<?xml version="1.0" encoding="UTF-8"?>
<svg id="Layer_2" data-name="Layer 2" xmlns="http://www.w3.org/2000/svg" viewBox="0 0 213.84 288.17">
  <defs>
    <style>
      .cls-1 {
        fill: #414141;
      }

      .cls-2 {
        fill: #f5f5f6;
      }

      .cls-3 {
        fill: #0b0b09;
      }

      .cls-4 {
        fill: #fe1417;
      }

      .cls-5 {
        fill: #fff;
      }

      .cls-6 {
        fill: #fe1014;
      }

      .cls-7 {
        fill: #fe0c11;
      }

      .cls-8 {
        fill: #fe2327;
      }
    </style>
  </defs>
  <g id="Layer_1-2" data-name="Layer 1">
    <g>
      <rect class="cls-5" x="2.4" y="2.29" width="210" height="284"/>
      <path class="cls-3" d="M0,281.12V0h213.84l-.07,283.76c-2.54.62-5.8-.46-8.05.07v-2.7l2.22-1.95.49-276.47H6.77c-.66,0-3.36,3.03-3.77,4.35l-.29,271.37-2.71,2.7Z"/>
      <path class="cls-1" d="M205.72,281.12v2.7c-.48.11-1.78,2.48-6.5,2.86-60.93,4.84-128.22-4.03-189.86-.03-4.35.35-8.52-1.03-9.36-5.53l2.71-2.7c2.81,1.98,5.89,2.69,9.33,2.8,64.4,2.13,129.27-1.78,193.68-.1Z"/>
      <path class="cls-7" d="M143.15,32.77c1.76,2.41-2.22,8.6,3.01,7.77-3.61-9.9,11.72-14.23,17.65-8.13,12.16,12.52-11.05,38.04-18.99,38.04-5.71,0-22.6-19.38-23.11-25.97-.4-5.12,5.37-13.2,10.02-14.51,2.25-.64,10.8,1.94,11.43,2.8Z"/>
      <path class="cls-7" d="M143.15,94.94c1.76,2.41-2.22,8.6,3.01,7.77-2.57-13.32,14.77-13.71,20.35-2.75,7.41,14.59-13.86,24.91-21.69,35.17-7.27-8.77-28.53-22-21.71-35.17.81-1.57,6.97-7.35,8.62-7.82,2.25-.64,10.8,1.94,11.43,2.8Z"/>
      <path class="cls-7" d="M66.55,213.64c2.94-.66,21.45,17.54,22.36,20.58,4.42,14.77-9.5,31.09-20.11,14.56l-13.08,7.92c-22.21-16.25-3.38-30.18,10.82-43.06Z"/>
      <path class="cls-7" d="M108.26,216.25h-2.67c-.45,11.1-14.87,11.71-19.56,1.95-7.32-15.23,9.13-24.57,18.42-34.3,4.02-.9,25.71,21.58,25.58,28.34-5.39,11.61-17.37,22.9-21.76,4.01Z"/>
      <path class="cls-7" d="M66.55,151.47c2.94-.66,21.45,17.54,22.36,20.58,3.08,10.28-2.29,23.2-14.03,19.51-2.8-.88-4.75-5.65-8.18-4.84-1.99.47-3.76,4.06-6.24,4.84-12.15,3.82-18.33-11.04-13.13-21.3.79-1.55,17.9-18.49,19.21-18.79Z"/>
      <path class="cls-7" d="M105.58,70.27c5.23.84,1.25-5.36,3.01-7.77.29-.39,7.88-3.09,9.22-3.12,4.12-.08,12.25,8.16,12.15,12.13-.03,1.24-2.84,11.16-3.29,11.73-.86,1.09-4.38,1.44-6.2,3.15-3.54,3.33-12.2,14.38-16.02,13.53-6.19-7.28-20.81-15.88-20.76-25.57.09-17.22,18.01-21.66,21.89-4.07Z"/>
      <path class="cls-7" d="M70.36,135.15c-3.49,4.6-7.41-6.15-9.34-8.19-3.43-3.64-13.56-11.62-14.63-15.18-1.62-5.38,1.03-17.94,6.66-19.65,8.4-2.56,10.36,4.2,13.66,4.98s15.77-14.49,21.39,2.77c5.08,15.61-6.61,18.52-15.13,28.5-2.33,2.73-2.22,6.26-2.61,6.78Z"/>
      <path class="cls-7" d="M53.15,30.05c8.82-2.55,11.82,5.76,15.48,4.89,4.9-1.16,14.09-13.72,19.46,2.77,5.29,16.26-9.9,21.66-19.3,32.48-2.94.66-21.45-17.54-22.36-20.58-1.95-6.52-.57-17.46,6.73-19.57Z"/>
      <path class="cls-7" d="M146.68,188.51c-.84-1.07-.56-3.24-.52-4.7h-2.68c-2.04,14.44-20.64,9.98-21.77-4.18-.75-9.51,17.38-20.47,23.1-28.24,8.5,11.68,27.26,15.5,21.8,32.54-3.07,9.59-15.28,10.54-19.94,4.58Z"/>
      <path class="cls-7" d="M146.15,245.98h-2.67c-2.02,14.44-20.65,9.99-21.77-4.18-.75-9.51,17.38-20.47,23.1-28.24,4.72,6.53,22.54,18.85,23.17,25.7,1.41,15.2-19.3,22.57-21.84,6.72Z"/>
      <path class="cls-8" d="M180.24,238.12c17.98-5.18,16.5,15.24,14.71,28.2-1,7.28-8.12,8.34-14.71,6.45s-6.61-32.75,0-34.65ZM186.77,243.28c-3.09-3.64-5.16-.38-5.4,4.01-.37,6.74-1.89,15.42,4.06,20.31l1.34-24.32Z"/>
      <path class="cls-6" d="M200.3,229.76c-5.08,1.52-7-4.57-9.83-5.21-4.08-.93-6.51,6.75-11.81,5.21-5.55-12.08.22-19.4,9.71-26.93,11.54,4.54,17.45,15.52,11.93,26.93Z"/>
      <path class="cls-4" d="M24.35,62.17c-1.06-5.42,1.52-6.92,6.77-5.4,9.44,2.75,1.08,24.12-8.11,24.48-6.13,0-16.51-14.29-14.83-20.31,5.71-8.21,10.1-2.96,16.17,1.22Z"/>
      <path class="cls-7" d="M23.16,10.96c18.25-6.48,14.68,35.49,5.06,37.61-2.87.4-6.89-3.17-7.96-5.28-2.53-5-3.3-30.58,2.9-32.33ZM29.77,16.22c-3.05-3.6-5.19-.4-5.41,4.02-.33,6.74.23,13.58,0,20.3,3.05,3.6,5.19.4,5.41-4.02.33-6.74-.23-13.58,0-20.3Z"/>
      <path class="cls-4" d="M16.24,10.81v37.84c-14.89-1.35-5.69-26.8-8.12-37.85h8.12Z"/>
      <path class="cls-4" d="M203.01,237.88c-.36,10.31.52,20.79,0,31.11-.22,4.42-2.36,7.62-5.41,4.02.36-10.31-.52-20.79,0-31.11.22-4.42,2.36-7.62,5.41-4.02Z"/>
      <path class="cls-2" d="M29.77,16.22c-.22,6.72.34,13.56,0,20.3-.22,4.42-2.36,7.62-5.41,4.02.22-6.72-.34-13.56,0-20.3.22-4.42,2.36-7.62,5.41-4.02Z"/>
    </g>
  </g>
</svg>