<?xml version="1.0" encoding="UTF-8"?>
<svg id="Layer_2" data-name="Layer 2" xmlns="http://www.w3.org/2000/svg" viewBox="0 0 217.59 288.38">
  <defs>
    <style>
      .cls-1 {
        fill: #191a18;
      }

      .cls-2 {
        fill: #13140f;
      }

      .cls-3 {
        fill: #fff;
      }

      .cls-4 {
        fill: #b7a68b;
      }

      .cls-5 {
        fill: #232322;
      }

      .cls-6 {
        fill: #0c0c0c;
      }
    </style>
  </defs>
  <g id="Layer_1-2" data-name="Layer 1">
    <g>
      <rect class="cls-3" x="1.75" y="1.65" width="210" height="284"/>
      <path class="cls-5" d="M216.55,4.46l-5.41,2.7H5.41v275.71c67.81,2.58,138.21-3.46,205.72,0,.33.02,1.54,3.71,5.41,0-.07,1.89,1.13,5.7-1.49,5.43l-208.36.05c-2.23.3-6.7-2.85-6.7-4.12V5.82C0,2.75,6.58,1.88,9.36,1.65c64.18-5.3,135.51,4.23,200.48.05l6.71,2.76Z"/>
      <path class="cls-6" d="M216.55,4.46c-2.44,92.29,3.26,186.32,0,278.42-3.87,3.71-5.08.02-5.41,0V7.17l5.41-2.7Z"/>
      <path class="cls-2" d="M97.45,239.63c-2.46-.47-5.34.74-8.16-1.23-12.15-8.51.29-22.19,13.34-17.3l2.93,5.01-2.69-13.5h10.82s-5.4,13.51-5.4,13.51c1.33,1.58,7.14-7.3,9.83-7.84,14.98-2.99,16.82,30.27-7.13,18.66-1.01,4.5,3.08,1.82,4.73,3.18,7.84,6.46-1.27,23.05-12.89,17.18-5.07-4.02-8.59-9.85-2.67-14.96,4.23-3.66,8.15-2.57,1.35-8.09l-4.06,5.39Z"/>
      <path class="cls-2" d="M100.15,47.71c-7.7-6.64,1.73-19.73,10.89-14.95,1.41.74,7.51,7.21,7.79,8.57-.24,2.09-1.29,5.97-2.32,7.42-2.16,3.03-6.43-.18-5.53,4.36,23.95-11.61,22.11,21.65,7.13,18.66-2.7-.54-8.5-9.41-9.83-7.84l5.4,13.5h-10.82s2.69-13.5,2.69-13.5l-2.93,5.01c-13.05,4.89-25.48-8.8-13.34-17.3,2.81-1.97,5.7-.76,8.16-1.23l4.06,5.39c6.79-5.52,2.89-4.43-1.35-8.09Z"/>
      <path class="cls-2" d="M18.94,39.62l8.12,5.4v-8.14s8.12,0,8.12,0v13.53s-21.66,0-21.66,0c.12-4.54-.92-9.28,1.29-13.59,2.68-5.2,10.95-4.2,12.26-12.09,1.81-10.85-14.98,4.8-13.53-5.4,6.3-12.1,25.21-5.34,21.31,7.73-1.07,3.59-11.22,12.89-15.91,12.54Z"/>
      <path class="cls-1" d="M29.95,69.07c14.51,3.67,8.71,17.94-5.59,11.09l5.41,8.09h-10.83s2.7-8.1,2.7-8.1c-18.98,8.89-9.06-20.71,1.3-21.73,8.46-.83,11.29,4.15,7,10.65Z"/>
      <path class="cls-1" d="M200.31,239.63c3.84,14.89-8.92,17.08-13.55,28.37,2.99,5.33,14.54-7.07,13.53,2.7-5.28,11.77-23.45,5.29-21.37-5.02.82-4.04,19.92-16.55,15.96-20.64-7.92-2.52-6.31,10.47-12.16,8.09-4.84-1.97-4.36-9.18-4.08-13.5h21.67Z"/>
      <path class="cls-2" d="M194.89,201.8l-2.7,8.1c12.76-6.64,20.54,11.81,2.67,10.89l2.57,6.44c-6.13,9.05-17.11,3.16-10.64-6.44-18.26.7-9.55-17.64,2.67-10.89l-2.7-8.1h8.12Z"/>
      <path class="cls-4" d="M100.15,242.34c.17-1.73-1.16-2.41-2.71-2.7l4.06-5.39c6.79,5.52,2.88,4.43-1.35,8.09Z"/>
      <path class="cls-4" d="M97.45,50.42c1.54-.3,2.87-.97,2.71-2.7,4.25,3.66,8.14,2.57,1.35,8.09l-4.06-5.39Z"/>
    </g>
  </g>
</svg>