<?xml version="1.0" encoding="UTF-8"?>
<svg id="Layer_2" xmlns="http://www.w3.org/2000/svg" version="1.1" viewBox="0 0 217.6 288.4">
  <!-- Generator: Adobe Illustrator 29.1.0, SVG Export Plug-In . SVG Version: 2.1.0 Build 142)  -->
  <defs>
    <style>
      .st0 {
        fill: #fe1417;
      }

      .st1 {
        fill: #fff;
      }

      .st2 {
        fill: #232322;
      }

      .st3 {
        fill: #0c0c0c;
      }

      .st4 {
        fill: #fe1014;
      }
    </style>
  </defs>
  <g id="Layer_1-2">
    <g>
      <rect class="st1" x="4.8" y="2.6" width="210" height="284"/>
      <path class="st2" d="M216.6,4.5l-5.4,2.7H5.4v275.7c67.8,2.6,138.2-3.5,205.7,0,.3,0,1.5,3.7,5.4,0,0,1.9,1.1,5.7-1.5,5.4H6.7c-2.2.3-6.7-2.8-6.7-4.1V5.8c0-3.1,6.6-3.9,9.4-4.2,64.2-5.3,135.5,4.2,200.5,0l6.7,2.8Z"/>
      <path class="st3" d="M216.6,4.5c-2.4,92.3,3.3,186.3,0,278.4-3.9,3.7-5.1,0-5.4,0V7.2l5.4-2.7h0Z"/>
      <path class="st0" d="M110.7,215.6c.8,1,.9,4.2,2.9,6.5,18.4,21.5,7.4,18.4-6.6,39.2-4-6.4-15.7-18.6-15.1-25.6.5-6,11.9-11.9,11.2-20.2l7.7.2h0Z"/>
      <path class="st4" d="M111,74.8c-2.9,4-18.8-16.6-19.1-20.3-.6-7,11-19.2,15.1-25.6,3.4,7,16.2,16.6,17.2,23.4,1.2,8.1-13.2,14.4-13.2,22.6h0Z"/>
      <path class="st0" d="M13.5,39.6c0-6.4,16.4-10.3,13.5-18.9l-13.5,2.7c2.2-19.2,28.4-10,20.3,5.4-1.4,2.6-5.7,3.4-3.9,8h0s5.4,1.7,5.4,1.7v12H13.5v-10.8"/>
      <path class="st0" d="M186.8,253.1c-8.9,0-8.7-6.1-8.1-13.5h21.7c2.8,13.1-5.5,17.6-13.5,25.7l13.5,1.3c-3.2,15.8-14.4,12.2-21.6,1.1,1.9-6.6,6.3-6.6,8-14.6,5.5,0,8.9-2.6,8.1-8.1h-8.1c-.4,2.6.5,5.8,0,8.1h0Z"/>
      <polygon class="st0" points="27 58.5 35.1 73.2 23 85.6 13.6 71 21.6 60.3 27 58.5"/>
      <path class="st4" d="M190.8,204.5l9.2,12.6-9.2,14.4c-11.5-9.5-11.4-17.6,0-27h0Z"/>
    </g>
  </g>
</svg>