<?xml version="1.0" encoding="UTF-8"?>
<svg id="Layer_2" data-name="Layer 2" xmlns="http://www.w3.org/2000/svg" viewBox="0 0 213.9 288.22">
  <defs>
    <style>
      .cls-1 {
        fill: #050505;
      }

      .cls-2 {
        fill: #191a18;
      }

      .cls-3 {
        fill: #414141;
      }

      .cls-4 {
        fill: #0f0f0d;
      }

      .cls-5 {
        fill: #3a3a3a;
      }

      .cls-6 {
        fill: #13140f;
      }

      .cls-7 {
        fill: #fff;
      }

      .cls-8 {
        fill: #b7a68b;
      }

      .cls-9 {
        fill: #232322;
      }

      .cls-10 {
        fill: #0c0c0c;
      }
    </style>
  </defs>
  <g id="Layer_1-2" data-name="Layer 1">
    <g>
      <rect class="cls-7" x="2.04" y="3.13" width="210" height="284"/>
      <path class="cls-1" d="M203.01,1.69c5.57-.72,10.47.49,10.89,6.69l-.06,279.83H0L.24,4.56c1.63-.84,3.96.25,5.17-.17v2.7l-2.22,1.95-.49,276.47h201.66c3.07,0,3.94-6.57,4.17-9.35,6.89-83.17-5.48-175.57.02-259.74,2.02-6.26-4.98-8.29-5.55-9.33-.53-.96.36-3.82,0-5.41Z"/>
      <path class="cls-5" d="M203.01,1.69c.36,1.59-.53,4.44,0,5.41H5.41v-2.7c1.05-.36,1.54-2.45,6.51-2.85,61.19-4.98,129.19,4.02,191.09.15Z"/>
      <path class="cls-4" d="M111,215.24l-2.75,5.39c8.67-1.59,20.55,1.46,18.65,11.67-1.12,6.01-18.46,25.19-25.05,23.26-1.33-.39-15.82-14.38-16.62-15.96-3.26-6.44-3.18-17.84,5.47-19.01,6.65-.9,8.36,2.89,10.96-5.49l9.34.14Z"/>
      <path class="cls-10" d="M97.45,71.97c-3.29-1.11-9.45-.71-13.32-2.92-4.35-10.34,7.41-26.47,15.97-30.95,7.92-4.16,12.27,4.54,17.69,9.64,1.76,1.65,4.88,1.95,6.12,3.21,6.15,6.32,3.77,20.46-6.21,21.21-4.64.35-7.54-3.5-12.11-2.88l5.41,8.09c-5.71,1.24-6.86-.36-10.83-2.69l2.7-1.36v-6.75s-5.4,5.41-5.4,5.41Z"/>
      <path class="cls-6" d="M24.37,80.07l.02,9.24-8.14,1.58,2.69-10.81c-9.5,6.16-13.65-2.77-9.52-10.88,1.55-3.05,8.45-7.54,11.12-10.66,3.73-.84,14.35,10.71,14.75,14.74.84,8.37-4.01,11.39-10.92,6.78Z"/>
      <path class="cls-10" d="M192.18,201.73l-2.69,10.81,10.82-2.71c6.27,12.41-4.85,15.66-12.18,24.31-10.52-9.19-26.8-24.48-1.35-24.32l-2.71-8.09h8.11Z"/>
      <path class="cls-9" d="M184.07,253.08c-7.28.59-9.63,1.23-8.2-6.83,1.86-10.42,13.58-5.93,21.74-6.68.9,6.59.21,8.58-2.71,13.51-1.67-.2-2.06-2.11-2.71-2.7-1.65-1.5-.44-3.66-6.77-2.78-2.58.72-1.02,3.76-1.35,5.49Z"/>
      <path class="cls-9" d="M184.07,263.89c.38,1.49-.3,3.68,0,5.41l13.52-2.7c3.74,16.01-21.76,13.23-21.81,1.34-.86-4.63,4.81-5.62,5.58-6.75,1.77-.19,2.32,1.18,2.71,2.7Z"/>
      <path class="cls-1" d="M16.24,42.24c1.88,1.68.78,3.52,6.78,2.74l1.34-5.44h8.12s.01,10.81.01,10.81H10.82c-1.4-6.09.72-7.41,2.71-10.81,1.44.39,1.92,2,2.71,2.7Z"/>
      <path class="cls-2" d="M29.78,28.72c-1.65.33-4.19-.49-5.41,0l-13.53-5.41c-1.66-11.27,19.72-10.34,21.55-3.94,1.65,5.79-.7,6.19-2.6,9.35Z"/>
      <path class="cls-3" d="M29.78,28.72c-1.67,2.77-4.99,10.38-5.41,10.81-.48.48-6.49.77-8.12,2.7-.79-.71-1.27-2.32-2.71-2.7,2.48-4.22,6.2-8.97,10.83-10.81,1.22-.49,3.77.33,5.41,0Z"/>
      <path class="cls-5" d="M194.89,253.08c-2.7,4.55-5.92,8.5-10.83,10.81-.39-1.52-.94-2.89-2.71-2.7,1.72-2.53,2.14-5.19,2.71-8.11,3.29-.26,5.33-1.19,8.12-2.7.65.59,1.03,2.5,2.71,2.7Z"/>
      <path class="cls-8" d="M100.15,74.67c-.5-.29-.87-2.09-2.71-2.7l5.4-5.41v6.75s-2.7,1.36-2.7,1.36Z"/>
    </g>
  </g>
</svg>