<?xml version="1.0" encoding="UTF-8"?>
<svg id="Layer_2" data-name="Layer 2" xmlns="http://www.w3.org/2000/svg" viewBox="0 0 213.84 286.53">
  <defs>
    <style>
      .cls-1 {
        fill: #fe1417;
      }

      .cls-2 {
        fill: #fff;
      }

      .cls-3 {
        fill: #0c0c0c;
      }

      .cls-4 {
        fill: #fe1014;
      }

      .cls-5 {
        fill: #fe0c11;
      }

      .cls-6 {
        fill: #fe2327;
      }
    </style>
  </defs>
  <g id="Layer_1-2" data-name="Layer 1">
    <g>
      <rect class="cls-2" x=".42" y=".84" width="210" height="284"/>
      <path class="cls-3" d="M213.84,0v286.53H0V0h213.84ZM208.43,5.41c-2.87,1.19-6.15-2.7-6.77-2.7H6.77c-.29,0-4.06,3.77-4.06,4.05v273.01c0,.29,3.77,4.05,4.06,4.05h194.89c.62,0,3.9-3.89,6.77-2.7V5.41Z"/>
      <path class="cls-4" d="M100.2,29.75c4.68-5.39,20.5,15.91,21.22,20.69.5,3.37-12.89,22.09-14.51,22.54-3.88,1.09-17.4-16.73-17.75-20.29-.87-8.96,11.74-13.28,11.04-22.94Z"/>
      <path class="cls-4" d="M100.2,256.78c.69-9.66-11.91-13.98-11.04-22.94.35-3.56,13.87-21.38,17.75-20.29,1.62.46,15.02,19.17,14.51,22.54-.71,4.78-16.53,26.08-21.22,20.69Z"/>
      <path class="cls-5" d="M104.23,121.65c3.52-1.06,16.67,17.22,17.19,20.7s-12.89,22.09-14.51,22.54c-3.88,1.09-17.4-16.72-17.75-20.29-.42-4.31,11.99-22.02,15.07-22.95Z"/>
      <path class="cls-6" d="M200.3,248.68c-2.37,2.18-15.57-5.99-16.24-1.34-1.52,10.58,4.08,7.07,10.82,4.05,1.03,1.2-1.21,9.95-2.52,11.87-2.04,2.97-6.51-.22-5.58,4.34l12.16-2.71c2.35.02,1.78,5.29,1.36,6.76-1.77,6.19-16.2,3.71-21.65,4.06-3.25-6.1,4.85-13.6,4.85-14.86,0-1.19-4.18-3.91-4.88-8.08-4.68-27.7,28.42-10.27,21.69-4.09Z"/>
      <path class="cls-1" d="M32.49,10.82c.69,7.55.59,13.28-8.13,13.53v2.66c10.95-1.82,9.33,17.35,5.22,21.44-3.47,3.46-20.95-1.71-18.74-10.61l16.23,2.69-13.54-8.11c-2.07-7.75,9.35-5.92,10.84-13.5l-13.53,2.69v-10.8s21.66,0,21.66,0Z"/>
      <polygon class="cls-4" points="188.13 202.75 200.21 215.13 188.13 229.74 178.87 217.21 188.13 202.75"/>
      <polygon class="cls-6" points="24.34 56.76 32.4 71.41 24.41 82.06 18.97 83.8 10.91 69.15 18.9 58.5 24.34 56.76"/>
    </g>
  </g>
</svg>