<?xml version="1.0" encoding="UTF-8"?>
<svg id="Layer_2" data-name="Layer 2" xmlns="http://www.w3.org/2000/svg" viewBox="0 0 213.84 286.62">
  <defs>
    <style>
      .cls-1 {
        fill: #fe1417;
      }

      .cls-2 {
        fill: #fff;
      }

      .cls-3 {
        fill: #0c0c0c;
      }

      .cls-4 {
        fill: #fe1014;
      }

      .cls-5 {
        fill: #fe0c11;
      }

      .cls-6 {
        fill: #fe2327;
      }
    </style>
  </defs>
  <g id="Layer_1-2" data-name="Layer 1">
    <g>
      <rect class="cls-2" x=".42" y="2.29" width="210" height="284"/>
      <path class="cls-3" d="M213.84,0v286.53l-207.14.07c-2.23.3-6.7-2.85-6.7-4.12V0h213.84ZM2.71,281.12h201.66c.29,0,4.06-3.77,4.06-4.05V6.76c0-.29-3.77-4.05-4.06-4.05H6.77c-.29,0-4.06,3.77-4.06,4.05v274.36Z"/>
      <path class="cls-5" d="M104.45,213.64c2.94-.66,21.45,17.54,22.36,20.58,3.04,10.15-1.24,16.9-9.35,22.46l-13.29-7.62-10.55,7.64c-22.21-16.25-3.38-30.18,10.82-43.06Z"/>
      <path class="cls-5" d="M102.88,37.85c7.48-6.31,16.29-14.55,22.23-1.97,7.95,16.84-8.68,23.21-18.43,34.3-3.61.81-22.13-18.28-22.82-22.85-2.53-16.69,14.62-26.28,19.02-9.48Z"/>
      <path class="cls-5" d="M102.88,127.05c7.48-6.31,16.29-14.55,22.23-1.97,7.95,16.84-8.68,23.21-18.43,34.3-3.61.81-22.13-18.28-22.82-22.85-2.53-16.69,14.62-26.28,19.02-9.48Z"/>
      <path class="cls-6" d="M32.48,10.82c2.46,6.22-4.52,9.66-5.2,12.55-.8,3.36,3.87,5.32,4.78,8.17,5.59,17.5-18.27,25.23-21.22,6.32l16.23,2.69v-8.1s-13.52-.01-13.52-.01l2.9-9.34-5.75-2.97.13-9.3h21.66ZM20.3,18.92c-1.76,0-1.76,2.7,0,2.7s1.76-2.7,0-2.7Z"/>
      <path class="cls-4" d="M185.74,202.94c9.82-2.8,25.59,20.84,10.27,26.76l-7.89-4.79-5.64,4.68c-12.92-1.22-4.84-24.34,3.26-26.65Z"/>
      <path class="cls-4" d="M18.97,83.8c-.4-7.87-13.1-14.22-10.8-22.86,1.88-7.06,10.43-2.22,14.35-2.19,2.21.01,5.18-2.7,8.39-1.91,10.17,2.52-1.39,28.33-11.94,26.96Z"/>
      <path class="cls-1" d="M197.59,245.98l-13.52-2.69-.02,8.1h10.85c1.07.96-1.17,9.9-2.55,11.87-2.09,2.97-6.49-.2-5.57,4.35l13.52-2.69v8.1s-21.64,0-21.64,0c-2.46-6.22,4.52-9.66,5.2-12.55s-10.02-10.86-3.98-20.02c3.48-5.28,19.47-4,17.72,5.54Z"/>
    </g>
  </g>
</svg>