<?xml version="1.0" encoding="UTF-8"?>
<svg id="Layer_2" data-name="Layer 2" xmlns="http://www.w3.org/2000/svg" viewBox="0 0 213.84 286.53">
  <defs>
    <style>
      .cls-1 {
        fill: #191a18;
      }

      .cls-2 {
        fill: #0f0f0d;
      }

      .cls-3 {
        fill: #0b0b09;
      }

      .cls-4 {
        fill: #b7c4d9;
      }

      .cls-5 {
        fill: #13140f;
      }

      .cls-6 {
        fill: #fff;
      }

      .cls-7 {
        fill: #0c0c0c;
      }
    </style>
  </defs>
  <g id="Layer_1-2" data-name="Layer 1">
    <g>
      <rect class="cls-6" x=".42" y="1.44" width="210" height="284"/>
      <path class="cls-7" d="M213.84,2.7v283.82H0V4.05C0,3.77,3.77,0,4.06,0h203.01c.62,0,3.9,3.89,6.77,2.7ZM2.71,5.41v274.36c0,.29,3.77,4.05,4.06,4.05h197.6c.29,0,4.06-3.77,4.06-4.05V9.46c0-.29-3.77-4.05-4.06-4.05H2.71Z"/>
      <path class="cls-2" d="M108.28,156.78l2.7,8.1-9.31.13c-2.16-8.76-7.82-3.52-13.86-8.08-13.29-10.02,8.99-28.32,16.63-35.2,4.73-1.06,22.38,19.27,22.87,25.7.82,10.63-10.34,15.48-19.04,9.35Z"/>
      <path class="cls-2" d="M108.28,67.58l2.7,8.1-9.31.13c-2.16-8.76-7.82-3.52-13.86-8.08-13.29-10.02,8.99-28.32,16.63-35.2,4.73-1.06,22.38,19.27,22.87,25.7.82,10.63-10.34,15.48-19.04,9.35Z"/>
      <path class="cls-3" d="M110.98,213.55l-5.41,8.09c5.34.29,8.64-4.23,14.49-2.41,4.43,1.37,7.73,6.71,6.85,11.38-1.14,6.02-18.46,25.19-25.05,23.26-6.83-2-21.71-21.97-18.07-30.66,5.7-4.91,12.68-5.6,19.07-1.56l-2.7-8.1h10.83Z"/>
      <path class="cls-5" d="M192.18,200.04l-2.7,8.09,8.16-1.46,5.54,8.23-15.05,17.55c-7.33-3.96-19.66-22.08-8.1-27,6.28-2.68,1.89,6.56,6.74,5.39l5.42-10.8Z"/>
      <path class="cls-5" d="M192.19,264.9l8.12,10.81h-21.65c-2.65-6,6.04-10.97,5.21-14.48-.65-2.71-5.4-3.99-5.45-11.18-.1-15.26,20.18-17.15,21.88-1.37l-16.23-2.69v8.1s13.53.02,13.53.02c.45.37-4.25,6.67-5.41,8.1-1.39,1.7-6.86,2.34-5.42,6.75l5.42,1.36v-5.4Z"/>
      <path class="cls-1" d="M32.48,13.52c2.46,6.22-4.52,9.66-5.2,12.55-.75,3.16,7.98,7.97,4.97,18.3-2.03,6.96-23.26,7.07-21.41-3.81l16.23,2.69v-8.1s-13.52-.01-13.52-.01c-1.3-1.21,4.03-10.34,5.3-11.73,2.61-2.86,6.3-.2,5.51-4.48l-13.52,2.69v-8.1s21.64,0,21.64,0Z"/>
      <path class="cls-1" d="M18.95,83.8c-.2-1.77.13-3.64,0-5.42l-6.52,2.58c-11.06-7.74.64-20.3,10.36-24.1,3.94,4.14,11.94,9.13,12.51,14.74.86,8.37-4,11.38-10.92,6.79v5.41h-5.42Z"/>
      <path class="cls-7" d="M24.36,83.8l2.7,5.4h-8.11c-.17-1.77.2-3.64,0-5.4h5.41Z"/>
      <path class="cls-4" d="M192.19,264.9v5.4s-5.42-1.36-5.42-1.36c-1.44-4.41,4.03-5.05,5.42-6.75v2.7Z"/>
    </g>
  </g>
</svg>