<?xml version="1.0" encoding="UTF-8"?>
<svg id="Layer_2" data-name="Layer 2" xmlns="http://www.w3.org/2000/svg" viewBox="0 0 213.84 286.64">
  <defs>
    <style>
      .cls-1 {
        fill: #191a18;
      }

      .cls-2 {
        fill: #e5e9f1;
      }

      .cls-3 {
        fill: #13140f;
      }

      .cls-4 {
        fill: #fff;
      }

      .cls-5 {
        fill: #b7a68b;
      }

      .cls-6 {
        fill: #0c0c0c;
      }
    </style>
  </defs>
  <g id="Layer_1-2" data-name="Layer 1">
    <g>
      <rect class="cls-4" x="1.81" width="210" height="284"/>
      <path class="cls-6" d="M213.84.11v286.53H0V.11h213.84ZM2.71,5.52v274.36c0,.29,3.77,4.05,4.06,4.05h197.6c.29,0,4.06-3.77,4.06-4.05V6.87c0-.29-3.77-4.05-4.06-4.05H9.47c-.62,0-3.9,3.89-6.77,2.7Z"/>
      <path class="cls-3" d="M59.55,48.76c-5.35-2.33-3.75-20.39,8.95-18.54,8.19,1.2,12.14,10.11,7.43,16.88-2.11,3.03-6.45-.21-5.54,4.35,18.52-10.34,27.27,15.64,9.03,18.66-4.8.79-7.14-6.83-11.73-7.83l5.4,13.51c-16.83,1.63-8.85-1.94-8.13-13.5l-4.21,5.56c-18.56,4.38-21.45-20.12-3.9-19.08l4.06,5.39,4.06-5.37c-1.67-.34-4.27.49-5.42-.01Z"/>
      <path class="cls-3" d="M151.58,240.68c5.92,5.12,2.39,10.94-2.67,14.96-11.62,5.87-20.73-10.72-12.89-17.18,1.65-1.36,5.74,1.32,4.73-3.18-23.95,11.61-22.11-21.65-7.13-18.66,2.7.54,8.5,9.41,9.83,7.84l-5.4-13.5h10.82s-2.69,13.5-2.69,13.5l2.93-5.01c13.05-4.89,25.48,8.8,13.34,17.3-2.78,1.95-5.63.8-8.16,1.23l-4.06-5.39-4.04,4.03c1.17,2.19,4,2.85,5.39,4.05Z"/>
      <path class="cls-3" d="M151.58,46.06c-4.25,3.66-8.14,2.57-1.35,8.09l4.06-5.39c2.46.47,5.34-.74,8.16,1.23,12.15,8.51-.29,22.19-13.34,17.3l-2.93-5.01,2.69,13.5h-10.82s5.4-13.51,5.4-13.51c-1.33-1.58-7.14,7.3-9.83,7.84-14.98,2.99-16.82-30.27,7.13-18.66.9-4.55-3.36-1.33-5.53-4.36-1.03-1.44-2.07-5.33-2.32-7.42.28-1.36,6.38-7.83,7.79-8.57,9.16-4.77,18.59,8.31,10.89,14.95Z"/>
      <path class="cls-3" d="M56.84,237.98c-17.55,1.04-14.66-23.46,3.9-19.08l4.21,5.56c-.72-11.56-8.7-15.13,8.13-13.5l-5.4,13.51c6.01-4.83,10.66-6.92,18.74-5.2,6.87,14.47-1.65,22.21-16.03,16.02-.91,4.57,3.43,1.32,5.54,4.35,4.71,6.77.76,15.68-7.43,16.88-12.7,1.85-14.29-16.21-8.95-18.54,1.15-.5,3.75.33,5.42-.01l-4.06-5.37-4.06,5.39Z"/>
      <path class="cls-1" d="M194.89,200.15l-5.41,8.09,9.31-2.66,4.24,13.46-8.17.03c5.58,7.73-.58,13.2-9.2,10.57-7.82-2.38-17.29-30.5,1.11-21.39l-2.7-8.1h10.83Z"/>
      <path class="cls-3" d="M27.04,67.68c7.15-.43,9.74-1.33,8.22,6.83-2.12,11.38-10.35,3.42-10.89,3.99l2.7,8.1h-8.12s1.38-8.07,1.38-8.07c-8.39,7.89-17.45-4.34-9.29-9.37,1.37-.84,3.81-.91,4.64-2.01,2.98-3.94,1.63-18.54,13.92-5.96l-2.56,6.5Z"/>
      <path class="cls-6" d="M29.77,13.63l-.13,14.66,5.59,2.91c-3.37,7.41-6.91,8.27-2.75,17.56h-10.82s1.44-10.82,1.44-10.82c-3.86-5.66-18.41.61-14.97-6.73.74-1.59,12.56-13.15,14.87-14.89s2.65-3.72,6.77-2.69ZM24.36,29.84v-8.1s-1.34,0-1.34,0l-6.77,8.09h8.12Z"/>
      <path class="cls-3" d="M192.19,265.01c-2.89,2.63-4.33,9.65-10.82,8.1l.13-14.65-5.54-1.57v-5.39s5.59-1.5,5.59-1.5l-2.89-12.02h10.82s-2.4,9.52-2.4,9.52c3.47,5.82,9.83,3.9,15.94,3.99.87,6.95-6.85,9.89-10.82,13.51l2.71-8.1h-8.12s0,8.09,0,8.09h5.41Z"/>
      <path class="cls-5" d="M154.29,48.76l-4.06,5.39c-6.79-5.52-2.89-4.43,1.35-8.09-.17,1.73,1.16,2.41,2.71,2.7Z"/>
      <path class="cls-5" d="M154.29,237.98c-1.53.26-2.88.99-2.71,2.7-1.4-1.21-4.23-1.86-5.39-4.05l4.04-4.03,4.06,5.39Z"/>
      <path class="cls-5" d="M59.55,48.76c1.15.5,3.75-.33,5.42.01l-4.06,5.37-4.06-5.39h2.71Z"/>
      <path class="cls-5" d="M56.84,237.98l4.06-5.39,4.06,5.37c-1.67.34-4.27-.49-5.42.01h-2.71Z"/>
      <polygon class="cls-2" points="24.36 29.84 16.24 29.83 23.01 21.74 24.35 21.73 24.36 29.84"/>
      <polygon class="cls-2" points="192.19 265.01 186.78 265.01 186.78 256.91 194.89 256.91 192.19 265.01"/>
    </g>
  </g>
</svg>