<?xml version="1.0" encoding="UTF-8"?>
<svg id="Layer_2" data-name="Layer 2" xmlns="http://www.w3.org/2000/svg" viewBox="0 0 213.84 286.53">
  <defs>
    <style>
      .cls-1 {
        fill: #b7c4d9;
      }

      .cls-2 {
        fill: #fe1417;
      }

      .cls-3 {
        fill: #fff;
      }

      .cls-4 {
        fill: #0c0c0c;
      }

      .cls-5 {
        fill: #fe1014;
      }

      .cls-6 {
        fill: #fe0c11;
      }

      .cls-7 {
        fill: #f0f1f3;
      }
    </style>
  </defs>
  <g id="Layer_1-2" data-name="Layer 1">
    <g>
      <rect class="cls-3" x="1.81" y="2.29" width="210" height="284"/>
      <path class="cls-4" d="M213.84,0v286.53c-3.56-2.91-5.66,0-6.77,0H4.06c-.29,0-4.06-3.77-4.06-4.05V0h213.84ZM208.43,281.12V6.76c0-.29-3.77-4.05-4.06-4.05H6.77c-.29,0-4.06,3.77-4.06,4.05v274.36h205.72Z"/>
      <path class="cls-6" d="M67.65,245.98h-2.67c-4.39,18.9-16.37,7.6-21.76-4.01-.13-6.75,21.56-29.24,25.58-28.34,9.29,9.74,25.74,19.07,18.42,34.3-4.69,9.76-19.11,9.15-19.56-1.96Z"/>
      <path class="cls-6" d="M142.95,33.13c.81,1.07.52,3.24.52,4.71h2.68c.96-11.77,15.68-9.09,20.37-.05,7.38,14.24-14.81,23.06-21.94,32.4-3.45.77-22.28-18.22-22.89-22.9-.78-5.98,1.66-11.79,5.39-16.34,3.37-2.72,13.93-.38,15.87,2.19Z"/>
      <path class="cls-6" d="M64.4,33.2c.96,1.14.7,3.14.58,4.65h1.34c6.05-8.07,15.53-13.36,20.91-1.96,7.95,16.84-8.68,23.21-18.43,34.3-3.82.85-12.47-10.2-16.02-13.53-1.82-1.71-5.35-2.05-6.2-3.15-.45-.57-3.26-10.49-3.29-11.73-.19-7.71,14.37-16.59,21.11-8.59Z"/>
      <path class="cls-6" d="M162.06,253.72c-4.28,3.07-17.55.22-15.91-7.74h-2.67c-1.96,14.46-20.8,9.92-21.76-4.18-1.02-14.91,17.3-14.52,19.06-28.26,4.1-1.02,4.43.93,6.76,2.69,5.87,4.43,22.27,20.54,19.97,27.89-.16.53-5,9.28-5.45,9.6Z"/>
      <path class="cls-2" d="M18.97,83.8c-.4-7.87-13.1-14.22-10.8-22.86,1.88-7.06,10.43-2.21,14.35-2.19,2.21.01,5.14-2.69,8.38-1.9,11.18,2.74-1.13,27.89-11.92,26.95Z"/>
      <path class="cls-2" d="M188.37,202.83c5.21-1.17,16.23,14.17,14.59,20.05-2.2,7.89-11.63,1.3-14.49,1.87s-4.81,6.02-8.44,5.01c-10.59-2.95.74-23.76,8.33-26.94Z"/>
      <path class="cls-6" d="M29.77,10.82l-.13,17.35,5.54,1.57v5.39s-5.59,1.5-5.59,1.5l2.89,12.02h-10.82s2.7-13.5,2.7-13.5h-14.88c-8.4-1.02,9.87-18.36,12.17-20.28,2.73-2.27,3.48-5.17,8.12-4.05ZM24.36,29.73v-8.1s-1.34,0-1.34,0l-6.77,8.09h8.12Z"/>
      <path class="cls-5" d="M192.19,262.2c-1.94,2.54-2.18,12.47-10.82,10.81l.13-14.66c-8.26-2.89-8.4-8.47.06-11.13l-2.9-9.34h13.52s-5.4,10.8-5.4,10.8h16.23c3.34,10.66-8.46,10.43-10.82,13.52,1.03-3.15,3.74-4.18,2.7-8.1h-8.11s0,8.1,0,8.1h5.41Z"/>
      <polygon class="cls-7" points="24.36 29.73 16.24 29.72 23.01 21.63 24.35 21.62 24.36 29.73"/>
      <path class="cls-1" d="M192.19,262.2h-5.41s0-8.1,0-8.1h8.11c1.04,3.92-1.67,4.95-2.7,8.1Z"/>
    </g>
  </g>
</svg>