<?xml version="1.0" encoding="UTF-8"?>
<svg id="Layer_2" data-name="Layer 2" xmlns="http://www.w3.org/2000/svg" viewBox="0 0 213.84 288.17">
  <defs>
    <style>
      .cls-1 {
        fill: #414141;
      }

      .cls-2 {
        fill: #0b0b09;
      }

      .cls-3 {
        fill: #fe1417;
      }

      .cls-4 {
        fill: #fff;
      }

      .cls-5 {
        fill: #fe1014;
      }

      .cls-6 {
        fill: #fe0c11;
      }
    </style>
  </defs>
  <g id="Layer_1-2" data-name="Layer 1">
    <g>
      <rect class="cls-4" x="2.19" y="2.29" width="210" height="284"/>
      <path class="cls-2" d="M0,281.12V0h213.84l-.07,283.76c-2.54.62-5.8-.46-8.05.07v-2.7l2.22-1.95.49-276.47H6.77c-.66,0-3.36,3.03-3.77,4.35l-.29,271.37-2.71,2.7Z"/>
      <path class="cls-1" d="M205.72,281.12v2.7c-.48.11-1.78,2.48-6.5,2.86-60.93,4.84-128.22-4.03-189.86-.03-4.35.35-8.52-1.03-9.36-5.53l2.71-2.7c2.81,1.98,5.89,2.69,9.33,2.8,64.4,2.13,129.27-1.78,193.68-.1Z"/>
      <path class="cls-6" d="M143.15,32.77c1.76,2.41-2.22,8.6,3.01,7.77-3.61-9.9,11.72-14.23,17.65-8.13,12.16,12.52-11.05,38.04-18.99,38.04-5.71,0-22.6-19.38-23.11-25.97-.4-5.12,5.37-13.2,10.02-14.51,2.25-.64,10.8,1.94,11.43,2.8Z"/>
      <path class="cls-6" d="M66.55,213.64c2.94-.66,21.45,17.54,22.36,20.58,4.42,14.77-9.5,31.09-20.11,14.56l-13.08,7.92c-22.21-16.25-3.38-30.18,10.82-43.06Z"/>
      <path class="cls-6" d="M108.26,127.05c.56-14.21,21.94-6.29,21.69,3.94-.03,1.24-2.84,11.16-3.29,11.73-.86,1.09-4.38,1.44-6.2,3.15-3.54,3.33-12.2,14.38-16.02,13.53-9.75-11.09-26.37-17.46-18.43-34.3,5.94-12.59,14.75-4.33,22.24,1.96Z"/>
      <path class="cls-6" d="M53.15,30.05c8.82-2.55,11.82,5.76,15.48,4.89,4.9-1.16,14.09-13.72,19.46,2.77,5.29,16.26-9.9,21.66-19.3,32.48-2.94.66-21.45-17.54-22.36-20.58-1.95-6.52-.57-17.46,6.73-19.57Z"/>
      <path class="cls-6" d="M146.15,245.98h-2.67c-2.02,14.44-20.65,9.99-21.77-4.18-.75-9.51,17.38-20.47,23.1-28.24,4.72,6.53,22.54,18.85,23.17,25.7,1.41,15.2-19.3,22.57-21.84,6.72Z"/>
      <path class="cls-6" d="M32.49,10.82v8.1s-13.54.01-13.54.01c-1.64,8.59,4.18,4.29,9.08,5.75,9.32,2.77,4.83,27.31-7.39,23.76-2.71-.79-12.37-11.04-9.82-13.29l16.23,5.4v-10.8s-16.24,0-16.24,0l.3-14.58,4.06-4.05,17.31-.29Z"/>
      <path class="cls-5" d="M200.3,248.68l-13.52-5.4v10.8s13.54,0,13.54,0v18.94s-21.66-.01-21.66-.01l16.23-5.41-14.92-10.76c-2.74-9.94-4.05-18.4,8.1-19.11,8.6-.5,13.54,1.03,12.23,10.95Z"/>
      <path class="cls-5" d="M200.3,229.76c-5.08,1.52-7-4.57-9.83-5.21-4.08-.93-6.51,6.75-11.81,5.21-5.55-12.08.22-19.4,9.71-26.93,11.54,4.54,17.45,15.52,11.93,26.93Z"/>
      <path class="cls-3" d="M24.35,62.17c-1.06-5.42,1.52-6.92,6.77-5.4,9.44,2.75,1.08,24.12-8.11,24.48-6.13,0-16.51-14.29-14.83-20.31,5.71-8.21,10.1-2.96,16.17,1.22Z"/>
    </g>
  </g>
</svg>