<?xml version="1.0" encoding="UTF-8"?>
<svg id="Layer_2" data-name="Layer 2" xmlns="http://www.w3.org/2000/svg" viewBox="0 0 217.01 289.04">
  <defs>
    <style>
      .cls-1 {
        fill: #050505;
      }

      .cls-2 {
        fill: #191a18;
      }

      .cls-3 {
        fill: #414141;
      }

      .cls-4 {
        fill: #0f0f0d;
      }

      .cls-5 {
        fill: #3a3a3a;
      }

      .cls-6 {
        fill: #0b0b09;
      }

      .cls-7 {
        fill: #13140f;
      }

      .cls-8 {
        fill: #fff;
      }

      .cls-9 {
        fill: #0c0c0c;
      }
    </style>
  </defs>
  <g id="Layer_1-2" data-name="Layer 1">
    <g>
      <rect class="cls-8" x="2.2" y="3.01" width="210" height="284"/>
      <path class="cls-9" d="M205.73,4.27c3.24.58,7.38-.41,10.84,0l.13,271.93c1.42,3.21-2.6,5.78-2.86,6.5h-5.41c0-91.2.41-182.62-.49-273.76l-2.22-1.95v-2.7Z"/>
      <path class="cls-9" d="M2.71,9.68c7.22,85.26-6.25,180.5-.11,266.36.17,2.36-.22,4.73,1.32,6.79l204.51,2.56v2.7c-68.7,2.97-139.52-2.22-208.44,0V6.97c1.72-.23,2.58,1.16,2.71,2.7Z"/>
      <path class="cls-3" d="M205.73,4.27v2.7L2.71,9.68c-.13-1.55-.99-2.93-2.71-2.7C.85,2.48,5.02,1.09,9.37,1.45c61.8,3.81,128.7-4.64,189.86-.04,4.73.36,6.15,2.8,6.5,2.86Z"/>
      <path class="cls-2" d="M213.85,282.69c-.42,1.19.72,3.54-.24,5.16-1.68.74-3.44.17-5.17.25v-5.41h5.41Z"/>
      <path class="cls-4" d="M127.02,158.13l-14.29,2.9c-2.97,7.11-4.73,5.82-12.57,5.41l5.41-8.09c-1.2-1-17.67,8.36-21.35-4.47-2.32-8.12,9.24-23.25,15.87-26.68,12.06-6.24,32.5,17.91,26.92,30.93Z"/>
      <path class="cls-4" d="M151.61,215.12l-2.75,5.39c8.66-1.59,20.55,1.46,18.65,11.67-1.16,6.27-18.61,25.14-25.05,23.26-4.9-1.44-22.34-20.99-20.41-27.75,3.24-11.33,18.39-2.38,20.21-12.71l9.34.14Z"/>
      <path class="cls-7" d="M64.97,74.55c.44-1.21-.21-3.7-.01-5.41-8.65,6.1-19.85,1.35-19.04-9.35.73-9.53,14.33-19,20.63-25.7,4.73-1.06,22.38,19.27,22.87,25.7.82,10.69-10.39,15.45-19.04,9.35.2,1.7-.44,4.19-.01,5.41h-5.41Z"/>
      <path class="cls-6" d="M146.18,69.15l5.41,8.09h-10.82s2.7-8.09,2.7-8.09c-15.49,6.2-27.83-2.48-16.27-17.62,13.81-18.09,19.58-19.1,33.94-1.38,6.99,8.63,9.24,13.43-.35,21.5l-14.6-2.49Z"/>
      <path class="cls-6" d="M64.97,223.22c1.46.22,3.95.22,5.41,0,5.37-.81,12.73-6.97,17.65,2.64s-7.66,19.56-14.9,25.78c-7.99,6.87-9.83,4.5-16.3-2.73s-18.66-23.88-3.64-28.1c6.06-1.7,8.49,1.91,11.77,2.41Z"/>
      <path class="cls-6" d="M200.31,252.95l-6.93-5.53-9.3.13v10.8s16.24,0,16.24,0v18.94s-21.67-.01-21.67-.01v-8.1s16.25-.02,16.25-.02c-7.08-10.34-17.47-.17-16.39-17.63.98-15.68,22.58-15.32,21.8,1.42Z"/>
      <path class="cls-7" d="M32.48,15.09l-13.52,5.41,12.33,7.95.9,17.43c-2.52,8.78-22.6,4.74-21.35-6.46l16.23,5.4.02-10.8-15.04-2.57-1.22-16.37h21.66Z"/>
      <path class="cls-7" d="M194.9,207c.82,1.79,9.18,2.91,8.28,12.14-.33,3.36-9.5,13.56-12.36,14.88-4.63,2.13-4.69-5.41-7.98-8.3-2.17-1.9-6.71-1.91-7.02-4-1.99-13.21,7.69-11.19,8.25-12.02l7.98,2.6,2.84-5.3Z"/>
      <path class="cls-7" d="M21.68,55.64l16.12,17.8c-3.22,12.42-8.53,6.8-14.78,6.8s-8.91,5.37-14.81-4.55l13.47-20.06Z"/>
      <path class="cls-5" d="M184.07,209.7c.68-1-.74-5.81.15-7.97,13.77-1.78,8.59.71,10.67,5.27l-2.84,5.3-7.98-2.6Z"/>
      <path class="cls-5" d="M64.97,223.22l-2.7-10.81h10.82l-2.7,10.81c-1.46.22-3.95.22-5.41,0Z"/>
      <rect class="cls-7" x="18.96" y="85.37" width="8.11" height="5.4"/>
      <path class="cls-1" d="M70.39,74.55c.08.23,1.9.26,2.7,1.33l-10.82,1.36c-.68-2.31,2.61-2.41,2.71-2.69h5.41Z"/>
    </g>
  </g>
</svg>