<?xml version="1.0" encoding="UTF-8"?>
<svg id="Layer_2" data-name="Layer 2" xmlns="http://www.w3.org/2000/svg" viewBox="0 0 213.84 286.53">
  <defs>
    <style>
      .cls-1 {
        fill: #414141;
      }

      .cls-2 {
        fill: #f5f5f6;
      }

      .cls-3 {
        fill: #fe1417;
      }

      .cls-4 {
        fill: #fff;
      }

      .cls-5 {
        fill: #0c0c0c;
      }

      .cls-6 {
        fill: #fe1014;
      }

      .cls-7 {
        fill: #fe0c11;
      }

      .cls-8 {
        fill: #fe2327;
      }
    </style>
  </defs>
  <g id="Layer_1-2" data-name="Layer 1">
    <g>
      <rect class="cls-4" x=".87" y=".84" width="210" height="284"/>
      <path class="cls-5" d="M0,2.7L1.64.34l212.2-.34v286.53l-212.2-.34-1.64-2.36,2.71-2.7c4.57,3.37,9.6,2.6,14.85,2.75,61.15,1.72,122.66-1.14,183.81-.34,1.33-.41,4.36-3.1,4.36-3.76V6.76c0-.66-3.03-3.35-4.36-3.76-61.1,1.14-122.73-2.52-183.82-.35-5.32.19-10.1-.42-14.84,2.76L0,2.7Z"/>
      <polygon class="cls-1" points="2.71 5.41 2.71 281.12 0 283.82 0 2.7 2.71 5.41"/>
      <path class="cls-3" d="M138.1,164.87c.69-9.66-11.91-13.98-11.04-22.94.45-4.71,5.32-7.38,7.95-11.18,3.47-5,.97-11.72,9.71-9.02,1.98.61,15.1,19.07,14.59,22.45-.71,4.78-16.53,26.08-21.22,20.69Z"/>
      <path class="cls-6" d="M70.33,256.78c-4.68,5.39-20.5-15.91-21.22-20.69-.5-3.37,12.89-22.09,14.51-22.54,3.88-1.09,17.4,16.73,17.75,20.29.87,8.96-11.74,13.28-11.04,22.94Z"/>
      <path class="cls-3" d="M146.15,213.54c-.07,8.13,14.38,14.46,13.17,22.55-.7,4.71-16.48,26.1-21.09,20.57-1.11-8.43-11.89-14.64-11.18-22.81.32-3.69,16.17-24.35,19.1-20.31Z"/>
      <path class="cls-3" d="M146.15,72.98c-2.94,4.04-18.78-16.62-19.1-20.31-.71-8.16,10.07-14.38,11.18-22.81,4.62-5.53,20.39,15.86,21.09,20.57,1.21,8.08-13.24,14.42-13.17,22.55Z"/>
      <path class="cls-6" d="M70.33,29.75c-.69,9.66,11.91,13.98,11.04,22.94-.35,3.56-13.87,21.38-17.75,20.29-1.62-.46-15.02-19.17-14.51-22.54.71-4.78,16.53-26.08,21.22-20.69Z"/>
      <path class="cls-7" d="M63.63,121.64c3.88-1.09,17.4,16.72,17.75,20.29.42,4.31-11.99,22.02-15.07,22.95-3.52,1.06-16.67-17.22-17.19-20.7s12.89-22.09,14.51-22.54Z"/>
      <path class="cls-8" d="M178.65,267.61l13.54-5.4c-23.9,3.45-20.49-30.36,1.12-24.09,6,1.74,5.44,22.49,3.89,27.73-2.4,8.1-18.19,16.27-18.54,1.76ZM192.18,243.27h-8.11v13.53h8.11v-13.53Z"/>
      <path class="cls-6" d="M27.06,10.82c3.14,12.48-7.28,4.95-10.82,13.5,23.9-3.45,20.49,30.35-1.12,24.09-6-1.74-5.44-22.49-3.89-27.73,1.41-4.78,10.17-11.63,15.83-9.86ZM24.36,29.73h-8.11v13.53h8.11v-13.53Z"/>
      <path class="cls-3" d="M189.46,229.77l-13.43-12.39,8.06-14.65c7.46-.93,8.71,8.28,13.33,12.52l-7.96,14.52Z"/>
      <path class="cls-7" d="M20.3,56.79c11.34,10.1,12.86,17.65,0,26.99l-9.26-14.46,9.26-12.53Z"/>
      <rect class="cls-2" x="184.07" y="243.27" width="8.11" height="13.53"/>
      <rect class="cls-2" x="16.25" y="29.73" width="8.11" height="13.53"/>
    </g>
  </g>
</svg>