<?xml version="1.0" encoding="UTF-8"?>
<svg id="Layer_2" data-name="Layer 2" xmlns="http://www.w3.org/2000/svg" viewBox="0 0 215.35 288.26">
  <defs>
    <style>
      .cls-1 {
        fill: #191a18;
      }

      .cls-2 {
        fill: #414141;
      }

      .cls-3 {
        fill: #0f0f0d;
      }

      .cls-4 {
        fill: #0b0b09;
      }

      .cls-5 {
        fill: #13140f;
      }

      .cls-6 {
        fill: #fff;
      }

      .cls-7 {
        fill: #232322;
      }

      .cls-8 {
        fill: #0c0c0c;
      }

      .cls-9 {
        fill: #f0f1f3;
      }
    </style>
  </defs>
  <g id="Layer_1-2" data-name="Layer 1">
    <g>
      <rect class="cls-6" x="3.36" y="3.18" width="210" height="284"/>
      <path class="cls-8" d="M204.51,4.44c3.24.58,7.38-.41,10.84,0v283.82s-213.86.01-213.86.01l2.71-5.41,203.02,2.71-.5-276.48-2.22-1.95v-2.7Z"/>
      <path class="cls-2" d="M204.51,4.44v2.7H4.19s0,275.71,0,275.71l-2.71,5.41L0,4.3,8.15,1.63c63.38,5.52,134.78-8.24,196.36,2.81Z"/>
      <path class="cls-3" d="M72.32,72.63c-1.36,1,.62,7.82-11.27,4.78l2.7-8.1c-6.05,3.86-14.13,4.19-17.65-2.64-6.33-12.28,11.58-24.57,19.24-32.4,4.73-1.06,22.38,19.27,22.87,25.7,1.06,13.84-12.32,10.04-15.89,12.66Z"/>
      <path class="cls-3" d="M72.32,161.83c-1.36,1,.62,7.82-11.27,4.78l2.7-8.1c-6.05,3.86-14.13,4.19-17.65-2.64-6.33-12.28,11.58-24.57,19.24-32.4,4.73-1.06,22.38,19.27,22.87,25.7,1.06,13.84-12.32,10.04-15.89,12.66Z"/>
      <path class="cls-3" d="M144.96,158.53l5.41,8.09-9.31.13-3.26-5.54-14.29-2.9c-5.9-11.14,12.77-33.36,22.78-32.39,6.98.68,21.21,17.96,20.48,25.8-1.46,15.66-20.78,5.95-21.81,6.81Z"/>
      <path class="cls-3" d="M144.96,69.32l5.41,8.09-9.31.13-3.26-5.54-14.29-2.9c-5.9-11.14,12.77-33.36,22.78-32.39,6.98.68,21.21,17.96,20.48,25.8-1.46,15.66-20.78,5.95-21.81,6.81Z"/>
      <path class="cls-4" d="M150.37,215.29l-5.41,8.09c1.8,1.5,14.75-8.26,20.39,2.67,4.32,8.38-9.72,22.1-16.23,27.16-7.99,6.22-18.79-5.51-22.74-12.63-8.65-15.58-.56-25.5,15.86-17.2l-2.7-8.1h10.83Z"/>
      <path class="cls-4" d="M71.87,215.29l-2.7,8.1c6.88-4.53,11.72-2.25,18.74.19,5.29,9.3-12.37,32.43-20.1,32.41-6.7-.01-35.15-29.07-15.84-35.03,5.86-1.81,9.14,2.7,14.49,2.41l-5.41-8.09h10.83Z"/>
      <path class="cls-5" d="M23.16,80.13l2.69,10.81h-8.11s2.69-10.81,2.69-10.81c-9.48,6.17-13.67-2.81-9.53-10.88,1.98-3.87,10.46-6.78,9.55-13.45,14.21,6.71,27.19,32.51,2.7,24.33Z"/>
      <path class="cls-1" d="M180.15,277.45l13.53-13.51c-24.52,6.78-19.88-29.28-1.72-24.02,13.05,3.78,10.56,46.05-11.81,37.52ZM193.68,247.72h-8.11v10.81h8.11v-10.81Z"/>
      <path class="cls-5" d="M193.68,201.77l-2.73,8.09c20.09.8,9.27,16.34-1.33,24.32l-15.05-17.55,5.54-8.23,8.16,1.46-2.7-8.09h8.11Z"/>
      <path class="cls-1" d="M28.56,28.77c3.6,4.56,4.5,14.41,1.49,19.05-3.78,5.84-16.87,5.02-17.83-6.77-1.24-15.27.47-29.12,19.04-25.79l-13.52,9.47,8.11,1.34,2.71,2.7ZM25.85,44.98c.77-7.25.09-14.22-8.11-13.5v13.52s8.11-.01,8.11-.01Z"/>
      <path class="cls-7" d="M28.56,28.77l-2.71-2.7c2.85.19,2.1,1.93,2.71,2.7Z"/>
      <path class="cls-9" d="M25.85,44.98h-8.11s0-13.5,0-13.5c8.2-.72,8.88,6.25,8.11,13.5Z"/>
    </g>
  </g>
</svg>