<?xml version="1.0" encoding="UTF-8"?>
<svg id="Layer_2" data-name="Layer 2" xmlns="http://www.w3.org/2000/svg" viewBox="0 0 217.59 288.38">
  <defs>
    <style>
      .cls-1 {
        fill: #fe1417;
      }

      .cls-2 {
        fill: #fff;
      }

      .cls-3 {
        fill: #232322;
      }

      .cls-4 {
        fill: #0c0c0c;
      }

      .cls-5 {
        fill: #fe1014;
      }

      .cls-6 {
        fill: #fe0c11;
      }
    </style>
  </defs>
  <g id="Layer_1-2" data-name="Layer 1">
    <g>
      <rect class="cls-2" x="4.96" y="2.6" width="210" height="284"/>
      <path class="cls-3" d="M216.55,4.46l-5.41,2.7H5.41v275.71c67.81,2.58,138.21-3.46,205.72,0,.33.02,1.54,3.71,5.41,0-.07,1.89,1.13,5.7-1.49,5.43l-208.36.05c-2.23.3-6.7-2.85-6.7-4.12V5.82C0,2.75,6.58,1.88,9.36,1.65c64.18-5.3,135.51,4.23,200.48.05l6.71,2.76Z"/>
      <path class="cls-4" d="M216.55,4.46c-2.44,92.29,3.26,186.32,0,278.42-3.87,3.71-5.08.02-5.41,0V7.17l5.41-2.7Z"/>
      <path class="cls-1" d="M69.02,120.72c4.03,6.38,15.68,18.64,15.06,25.63-.34,3.89-12.63,17.68-15.07,22.99-3.27-6.59-18.19-18.61-17.2-25.23,1.02-6.8,13.81-16.41,17.2-23.38Z"/>
      <path class="cls-1" d="M72.94,215.39c-.18,9.73,11.99,14.27,11.12,22.85-.25,2.45-13.66,23.01-15.04,23-15.79-21.94-24.63-18.42-5.51-40.75,2.8-3.27-.28-7.15,9.43-5.1Z"/>
      <path class="cls-5" d="M64.99,74.75c.07-8.13-14.37-14.46-13.17-22.55,1.02-6.8,13.81-16.41,17.2-23.38,4.03,6.38,15.68,18.64,15.07,25.63-.33,3.69-16.17,24.35-19.1,20.31Z"/>
      <path class="cls-5" d="M106.92,74.77l17.76,22.96-17.76,22.96c-17.62-19.2-19.67-27.27,0-45.91Z"/>
      <path class="cls-5" d="M144.98,31.56c4.95-1.07,15.1,15.6,17.54,20.16-.23,4.09-13.39,22.55-15,23.02-3.78,1.1-4.61-2.45-6.33-4.48-4.41-5.21-9.65-11.95-11.36-18.54,0-2.17,13.05-19.71,15.15-20.16Z"/>
      <path class="cls-5" d="M144.83,215.31c3.54-1.03,16.67,17.21,17.2,20.7.54,3.54-11.55,21.82-14.66,22.48-4.95,1.06-15.1-15.59-17.53-20.16.23-4.09,13.39-22.55,15-23.02Z"/>
      <path class="cls-6" d="M144.84,123.41c3.52-1.05,16.66,17.22,17.19,20.7s-12.89,22.09-14.51,22.54c-4.53,1.27-16.61-16.84-17.2-20.69-.54-3.52,11.52-21.64,14.53-22.55Z"/>
      <path class="cls-1" d="M35.19,12.58c-.05,12.9-10.49,23.6-8.13,37.85l-8.11-.02c.07-10.41,3.06-20.8,8.12-29.72l-13.53,2.69v-10.8s21.65,0,21.65,0Z"/>
      <polygon class="cls-1" points="27.05 58.53 35.11 73.17 23.02 85.55 13.65 70.97 21.61 60.26 27.05 58.53"/>
      <path class="cls-5" d="M190.83,204.51l9.18,12.58-9.18,14.41c-11.49-9.46-11.41-17.61,0-26.99Z"/>
      <path class="cls-1" d="M186.77,263.96c.12,1.79-.08,3.62,0,5.4l13.52-2.69v10.8c-16.52,2.06-30.87-1.83-13.53-16.21-.04.88-.06,1.82,0,2.7Z"/>
      <path class="cls-5" d="M186.77,261.26c.37-7.8,2.68-14.05,2.71-21.64,5.35-.2,5.41-1.28,5.48,4.11.08,6.16-1.52,17.39-8.19,20.23-.06-.88-.04-1.82,0-2.7Z"/>
    </g>
  </g>
</svg>