<?xml version="1.0" encoding="UTF-8"?>
<svg id="Layer_2" data-name="Layer 2" xmlns="http://www.w3.org/2000/svg" viewBox="0 0 213.84 286.64">
  <defs>
    <style>
      .cls-1 {
        fill: #191a18;
      }

      .cls-2 {
        fill: #e5e9f1;
      }

      .cls-3 {
        fill: #0f0f0d;
      }

      .cls-4 {
        fill: #b7c4d9;
      }

      .cls-5 {
        fill: #13140f;
      }

      .cls-6 {
        fill: #fff;
      }

      .cls-7 {
        fill: #b7a68b;
      }

      .cls-8 {
        fill: #0c0c0c;
      }
    </style>
  </defs>
  <g id="Layer_1-2" data-name="Layer 1">
    <g>
      <rect class="cls-6" x="3.02" width="210" height="284"/>
      <path class="cls-8" d="M213.84.11v286.53H0V.11h213.84ZM2.71,5.52v274.36c0,.29,3.77,4.05,4.06,4.05h197.6c.29,0,4.06-3.77,4.06-4.05V6.87c0-.29-3.77-4.05-4.06-4.05H9.47c-.62,0-3.9,3.89-6.77,2.7Z"/>
      <path class="cls-5" d="M148.88,237.98c5.35,2.33,3.75,20.39-8.95,18.54-8.19-1.2-12.14-10.11-7.43-16.88,2.11-3.03,6.45.21,5.54-4.35-28.36,10.08-23.76-30.81,2.7-10.82l-5.4-13.51h9.46s-1.34,13.5-1.34,13.5l2.93-5.02c22.21-2.26,32.17,14.99,5.18,18.54l-4.06-5.39-4.06,5.37c1.67.34,4.27-.49,5.42.01Z"/>
      <path class="cls-5" d="M113.69,132.56l-5.41,5.4c4.89,1.49,5.07-2.62,5.41-2.69,20.09-4.43,18.76,25.27-2.47,18.53l-2.93-5.01,2.69,13.5h-10.82l2.69-13.5-4.21,5.56c-19.68,3.18-17.38-16.98-10.47-18.94l14.68,2.56c.92-4.55-3.47-1.36-5.55-4.36-13.25-19.11,27.22-25.56,16.39-1.04Z"/>
      <path class="cls-5" d="M59.55,110.94c-10.2-4.59,5.35-33.29,18.68-9.09.28,1.36-1.51,6.29-2.32,7.42-2.16,3.03-6.43-.18-5.53,4.36,18.57-10.37,27.22,15.72,9.05,18.66-4.53.73-6.31-6.71-11.76-5.13l5.41,10.79c-16.82,1.64-8.86-1.93-8.13-13.5l-9.9,7.79c-10.42,1.6-14.87-25.16,1.79-21.31l4.06,5.39,4.06-5.37c-1.67-.34-4.3.49-5.42-.01Z"/>
      <path class="cls-5" d="M59.55,48.76c-5.35-2.33-3.75-20.39,8.95-18.54,8.19,1.2,12.14,10.11,7.43,16.88-2.11,3.03-6.45-.21-5.54,4.35,18.52-10.34,27.27,15.64,9.03,18.66-4.8.79-7.14-6.83-11.73-7.83l5.4,13.51c-16.83,1.63-8.85-1.94-8.13-13.5l-4.21,5.56c-18.56,4.38-21.45-20.12-3.9-19.08l4.06,5.39,4.06-5.37c-1.67-.34-4.27.49-5.42-.01Z"/>
      <path class="cls-5" d="M151.58,175.81c10.2,4.59-5.35,33.29-18.68,9.09-.28-1.36,1.51-6.29,2.32-7.42,2.16-3.03,6.43.18,5.53-4.36-19.59,10.63-25.49-16.12-9.03-18.61,4.91-.74,7.11,6.73,11.74,7.79l-5.4-13.5,9.47-.02-1.34,13.52c4.55.89,1.33-3.36,4.37-5.52,1.13-.8,6.07-2.59,7.43-2.31,13.39,6.91,11.67,21.45-3.69,21.35l-4.06-5.39-4.06,5.37c1.67.34,4.3-.49,5.42.01Z"/>
      <path class="cls-3" d="M56.84,175.81c-1.8-.34-4.22.49-6.34-.34-9.52-3.72-3.58-22.22,4.55-20.97l9.9,7.79-2.69-13.5h10.82s-5.4,13.51-5.4,13.51l9.8-7.88c21.39,4.33,11.84,27.79-7.1,18.71-.9,4.55,3.36,1.33,5.53,4.36,1.03,1.44,2.07,5.33,2.32,7.42-.28,1.36-6.38,7.83-7.79,8.57-9.16,4.77-18.59-8.31-10.89-14.95,4.25-3.66,8.14-2.57,1.35-8.09l-4.06,5.39Z"/>
      <path class="cls-5" d="M151.58,110.94c-1.12.5-3.75-.33-5.42.01l4.06,5.37,4.06-5.39c15.35-.1,17.07,14.45,3.69,21.35-1.36.27-6.3-1.51-7.43-2.31-3.04-2.16.19-6.41-4.37-5.52.73,11.56,8.69,15.14-8.13,13.5l5.4-13.5-8.13,6.91c-13.1,7.97-22.77-29,5.43-17.74l-8.02-11.92c13.86-23.89,28.93,4.68,18.85,9.22Z"/>
      <path class="cls-5" d="M151.58,46.06c-4.25,3.66-8.14,2.57-1.35,8.09l4.06-5.39c2.46.47,5.34-.74,8.16,1.23,12.15,8.51-.29,22.19-13.34,17.3l-2.93-5.01,2.69,13.5h-10.82s5.4-13.51,5.4-13.51c-1.33-1.58-7.14,7.3-9.83,7.84-14.98,2.99-16.82-30.27,7.13-18.66.9-4.55-3.36-1.33-5.53-4.36-1.03-1.44-2.07-5.33-2.32-7.42.28-1.36,6.38-7.83,7.79-8.57,9.16-4.77,18.59,8.31,10.89,14.95Z"/>
      <path class="cls-5" d="M56.84,237.98c-17.55,1.04-14.66-23.46,3.9-19.08l4.21,5.56c-.72-11.56-8.7-15.13,8.13-13.5l-5.4,13.51c6.01-4.83,10.66-6.92,18.74-5.2,6.87,14.47-1.65,22.21-16.03,16.02-.91,4.57,3.43,1.32,5.54,4.35,4.71,6.77.76,15.68-7.43,16.88-12.7,1.85-14.29-16.21-8.95-18.54,1.15-.5,3.75.33,5.42-.01l-4.06-5.37-4.06,5.39Z"/>
      <path class="cls-1" d="M13.54,48.76c-.84-5.68,2.13-6.74,6.76-8.13,2.81-.84,7.52,2.21,6.76-2.67-24.26,2.79-19.2-31.74-1.77-26.8,13.06,3.7,10.69,46.15-11.76,37.6ZM27.06,19.03h-8.11v10.81h8.11v-10.81Z"/>
      <path class="cls-1" d="M194.89,200.15l-5.41,8.09,9.31-2.66,4.24,13.46-8.17.03c5.58,7.73-.58,13.2-9.2,10.57-7.82-2.38-17.29-30.5,1.11-21.39l-2.7-8.1h10.83Z"/>
      <path class="cls-5" d="M197.6,237.99c.84,5.68-2.13,6.74-6.76,8.13-2.81.84-7.52-2.21-6.76,2.67,12.75,1.76,20.04,5.5,15.82,19.88-2.81,9.59-18.03,9.63-20.83,0-1.18-4.07-1.15-16.65.07-20.72,2.94-9.83,8.75-11.55,18.46-9.95ZM194.89,256.91h-10.82v10.8h10.82v-10.8Z"/>
      <path class="cls-5" d="M27.04,67.68c7.15-.43,9.74-1.33,8.22,6.83-2.12,11.38-10.35,3.42-10.89,3.99l2.7,8.1h-8.12s1.38-8.07,1.38-8.07c-8.39,7.89-17.45-4.34-9.29-9.37,1.37-.84,3.81-.91,4.64-2.01,2.98-3.94,1.63-18.54,13.92-5.96l-2.56,6.5Z"/>
      <path class="cls-7" d="M154.29,48.76l-4.06,5.39c-6.79-5.52-2.89-4.43,1.35-8.09-.17,1.73,1.16,2.41,2.71,2.7Z"/>
      <path class="cls-7" d="M59.55,178.51c.18-1.73-1.17-2.41-2.71-2.7l4.06-5.39c6.79,5.52,2.89,4.43-1.35,8.09Z"/>
      <path class="cls-7" d="M154.29,175.81h-2.71c-1.12-.5-3.75.33-5.42-.01l4.06-5.37,4.06,5.39Z"/>
      <path class="cls-7" d="M59.55,110.94c1.12.5,3.75-.33,5.42.01l-4.06,5.37-4.06-5.39h2.71Z"/>
      <path class="cls-7" d="M151.58,110.94h2.71l-4.06,5.39-4.06-5.37c1.67-.34,4.3.49,5.42-.01Z"/>
      <path class="cls-7" d="M151.58,237.98h-2.71c-1.15-.5-3.75.33-5.42-.01l4.06-5.37,4.06,5.39Z"/>
      <path class="cls-7" d="M56.84,237.98l4.06-5.39,4.06,5.37c-1.67.34-4.27-.49-5.42.01h-2.71Z"/>
      <path class="cls-7" d="M59.55,48.76c1.15.5,3.75-.33,5.42.01l-4.06,5.37-4.06-5.39h2.71Z"/>
      <path class="cls-4" d="M113.69,135.26c-.35.08-.53,4.18-5.41,2.69l5.41-5.4v2.7Z"/>
      <rect class="cls-2" x="184.07" y="256.91" width="10.82" height="10.8"/>
    </g>
  </g>
</svg>