<?xml version="1.0" encoding="UTF-8"?>
<svg id="Layer_2" data-name="Layer 2" xmlns="http://www.w3.org/2000/svg" viewBox="0 0 213.84 286.53">
  <defs>
    <style>
      .cls-1 {
        fill: #fe1417;
      }

      .cls-2 {
        fill: #fff;
      }

      .cls-3 {
        fill: #0c0c0c;
      }

      .cls-4 {
        fill: #fe1014;
      }

      .cls-5 {
        fill: #f0f1f3;
      }
    </style>
  </defs>
  <g id="Layer_1-2" data-name="Layer 1">
    <g>
      <rect class="cls-2" x="2.02" y=".84" width="210" height="284"/>
      <path class="cls-3" d="M213.84,0v286.53H0V0h213.84ZM2.71,281.12c2.87-1.19,6.15,2.7,6.77,2.7h194.89c.29,0,4.06-3.77,4.06-4.05V6.76c0-.29-3.77-4.05-4.06-4.05H6.77c-.29,0-4.06,3.77-4.06,4.05v274.36Z"/>
      <path class="cls-1" d="M62.31,194.61c.42-9.84-11.88-14.23-11.04-22.94.38-3.97,12.6-17.61,15.05-22.97,4,5.06,18.04,19.64,17.2,25.23-.72,4.78-16.53,26.08-21.22,20.69Z"/>
      <path class="cls-1" d="M144.82,148.69c4.03,6.38,15.68,18.64,15.06,25.63-.34,3.89-12.63,17.68-15.07,22.99-3.27-6.59-18.19-18.61-17.2-25.23,1.02-6.8,13.81-16.41,17.2-23.38Z"/>
      <path class="cls-1" d="M144.82,89.22c4.03,6.38,15.68,18.64,15.06,25.63-.34,3.89-12.63,17.68-15.07,22.99-3.27-6.59-18.19-18.61-17.2-25.23,1.02-6.8,13.81-16.41,17.2-23.38Z"/>
      <path class="cls-1" d="M148.74,213.63c-.18,9.73,11.99,14.27,11.12,22.85-.25,2.45-13.66,23.01-15.04,23-15.79-21.94-24.63-18.42-5.51-40.75,2.8-3.27-.28-7.15,9.43-5.1Z"/>
      <path class="cls-1" d="M62.31,135.14c.69-9.66-11.91-13.98-11.04-22.94.45-4.71,5.32-7.38,7.95-11.18,3.47-5,.97-11.72,9.71-9.02,1.98.61,15.1,19.07,14.59,22.45-.71,4.78-16.53,26.08-21.22,20.69Z"/>
      <path class="cls-1" d="M70.36,72.98c-2.94,4.04-18.78-16.62-19.1-20.31-.71-8.16,10.07-14.38,11.18-22.81,4.62-5.53,20.39,15.86,21.09,20.57,1.21,8.08-13.24,14.42-13.17,22.55Z"/>
      <path class="cls-1" d="M70.36,213.54c-.07,8.13,14.38,14.46,13.17,22.55-.7,4.71-16.48,26.1-21.09,20.57-1.11-8.43-11.89-14.64-11.18-22.81.32-3.69,16.17-24.35,19.1-20.31Z"/>
      <path class="cls-4" d="M140.78,72.98c.07-8.13-14.37-14.46-13.17-22.55,1.02-6.8,13.81-16.41,17.2-23.38,4.03,6.38,15.68,18.64,15.07,25.63-.33,3.69-16.17,24.35-19.1,20.31Z"/>
      <path class="cls-4" d="M104.23,124.35c3.78-1.1,4.61,2.45,6.33,4.48,4.41,5.21,9.65,11.95,11.36,18.54,0,2.15-13.05,19.63-15.01,20.22-3.52,1.06-16.67-17.22-17.19-20.7-.5-3.36,12.86-22.06,14.51-22.54Z"/>
      <path class="cls-1" d="M13.54,48.65l13.53-13.51C2.56,41.93,7.2,5.87,25.35,11.13c12.6,3.65,11.8,46.24-11.81,37.52ZM27.06,18.92h-8.11v10.81h8.11v-10.81Z"/>
      <path class="cls-1" d="M197.6,237.88l-13.53,10.8c16-2.43,23.77,18.27,10.05,24.91-16.02,7.75-18.49-14.05-14.98-25.76,2.95-9.83,8.75-11.55,18.46-9.95ZM194.89,256.8h-10.82v10.8h10.82v-10.8Z"/>
      <path class="cls-1" d="M192.17,202.73l8.06,14.65-7.99,10.65-5.44,1.73-7.96-14.51c4.62-4.24,5.87-13.45,13.33-12.52Z"/>
      <path class="cls-1" d="M18.97,83.8l-8.06-14.65,12.1-12.37,9.26,14.46c-4.53,4.3-5.87,13.47-13.3,12.55Z"/>
      <rect class="cls-5" x="184.07" y="256.8" width="10.82" height="10.8"/>
    </g>
  </g>
</svg>