<?xml version="1.0" encoding="UTF-8"?>
<svg id="Layer_2" data-name="Layer 2" xmlns="http://www.w3.org/2000/svg" viewBox="0 0 213.91 286.64">
  <defs>
    <style>
      .cls-1 {
        fill: #191a18;
      }

      .cls-2 {
        fill: #414141;
      }

      .cls-3 {
        fill: #13140f;
      }

      .cls-4 {
        fill: #fff;
      }

      .cls-5 {
        fill: #0c0c0c;
      }
    </style>
  </defs>
  <g id="Layer_1-2" data-name="Layer 1">
    <g>
      <rect class="cls-4" x="1.72" width="210" height="284"/>
      <path class="cls-5" d="M.07,2.81L1.7.45,213.91.11v286.53l-212.2-.34-1.64-2.36,2.71-2.7c4.57,3.37,9.6,2.6,14.85,2.75,61.15,1.72,122.66-1.14,183.81-.34,1.33-.41,4.36-3.1,4.36-3.76V6.87c0-.66-3.03-3.35-4.36-3.76-61.1,1.14-122.73-2.52-183.82-.35-5.32.19-10.1-.42-14.84,2.76-.03-.19-3.27.1-2.71-2.7Z"/>
      <path class="cls-2" d="M2.77,5.52c1.86,11.75-3.59,27.93,2.71,37.84-.23,1.73.35,3.84,0,5.41-.1.43-4.31,3.51-2.86,6.49l.15,225.97-2.71,2.7V2.81c-.56,2.81,2.68,2.51,2.71,2.7Z"/>
      <path class="cls-3" d="M5.48,43.36L21.71,10.93l16.27,36.46-13.55,1.37,2.7-8.09h-13.53s-8.12,8.1-8.12,8.1c.35-1.56-.23-3.67,0-5.41ZM24.43,32.54l-2.72-8.09h-2.68l-2.72,8.09h8.12Z"/>
      <path class="cls-3" d="M111.04,137.96c15.76-1.97,22.61,11.46,8.1,20.43-2.63,1.63-7.06.1-9.13-1.38-3.04-2.17.18-6.41-4.37-5.52l2.69,13.5h-10.82s5.4-13.51,5.4-13.51c-7.17,8.62-19.31,11.13-21.26-1.88-1.74-11.65,10.13-12.96,18.56-8.94-19.14-23.69,22.12-31.1,10.82-2.7Z"/>
      <path class="cls-1" d="M184.13,237.99l-2.71,8.09,12.2,2.69-1.36-10.78h10.82c4.19,4.17-15.83,29.98-13.54,37.84-4.58-3.16-8.81-11.95-11.34-17.05-2.34-4.73-6.24-12.16-7.42-16.94-1.76-7.15,9.26-2.84,13.35-3.85ZM192.25,254.21h-8.12l2.72,8.09h2.68l2.72-8.09Z"/>
      <path class="cls-3" d="M27.7,67.14c1.65,2.21,10.06,1.45,7.55,10-1.18,4.01-8.05,3.12-10.24,4.82-1.68,1.31.98,7-8.7,4.64l2.7-8.1c-9.99,5.99-11.84-1.85-10.83-10.79l8.17-.03c-7.04-9.46,6.01-16.17,10.22-6.09.67,1.6.03,4.07,1.14,5.55Z"/>
      <path class="cls-3" d="M192.25,200.15l-2.7,8.1c9.99-5.99,11.84,1.85,10.83,10.79l-8.17.03,2.56,6.5c-12.29,12.58-10.95-2.03-13.92-5.96-.83-1.1-3.28-1.17-4.64-2.01-8.16-5.03.9-17.27,9.29-9.37l-1.38-8.08h8.12Z"/>
    </g>
  </g>
</svg>