<?xml version="1.0" encoding="UTF-8"?>
<svg id="Layer_2" data-name="Layer 2" xmlns="http://www.w3.org/2000/svg" viewBox="0 0 215.34 288.24">
  <defs>
    <style>
      .cls-1 {
        fill: #414141;
      }

      .cls-2 {
        fill: #e5e9f1;
      }

      .cls-3 {
        fill: #fe1417;
      }

      .cls-4 {
        fill: #fff;
      }

      .cls-5 {
        fill: #0c0c0c;
      }

      .cls-6 {
        fill: #fe1014;
      }

      .cls-7 {
        fill: #fe0c11;
      }

      .cls-8 {
        fill: #f0f1f3;
      }

      .cls-9 {
        fill: #fe2327;
      }
    </style>
  </defs>
  <g id="Layer_1-2" data-name="Layer 1">
    <g>
      <rect class="cls-4" x="3.15" y="2.3" width="210" height="284"/>
      <path class="cls-5" d="M1.5,0h213.85s-.01,286.52-.01,286.52c-3.7.64-7.62-3.27-10.82-2.7v-2.7l2.22-1.95.5-276.48L4.2,5.41C4.16,5.11.44,2.61,1.5,0Z"/>
      <path class="cls-1" d="M4.2,5.41c1.45,10.86-.08,26.22,0,37.84,0,.9,0,1.8,0,2.7.46,78.34-.34,156.83,0,235.18h200.31s0,2.7,0,2.7c-61.67,10.94-132.91-2.62-196.36,2.81l-8.15-2.67L1.5,0c-1.05,2.6,2.67,5.11,2.71,5.41Z"/>
      <path class="cls-9" d="M4.2,43.26L21.79,10.83l17.63,33.76c1.41,7.49-9.07,3.07-13.56,4.07l2.7-10.8h-13.53s2.7,10.8,2.7,10.8l-13.53-2.7c0-.9,0-1.8,0-2.7ZM25.85,32.44c-.07-9.93-8.04-9.93-8.11,0h8.11Z"/>
      <path class="cls-7" d="M104.04,121.98c1.75,2.46-2.22,8.6,3.01,7.77-2.82-16.21,20.6-11.63,21.83,1.39.75,7.89-16.73,28.52-23.17,28.52-5.7,0-22.62-19.39-23.1-25.97-.3-4.16,3.05-13.28,7.16-14.53,2.87-.87,13.19,1.29,14.28,2.82Z"/>
      <path class="cls-3" d="M185.7,224.53c1.26,9.35-7.21,4.63-9.71-.12-4.08-7.78,8.13-23.72,16.02-21.47,9.01,2.57,14.36,29.17,3.22,26.68-2.79-.62-4.65-7.27-9.53-5.09Z"/>
      <path class="cls-6" d="M185.56,237.89l-2.7,8.09,12.18.02-1.35-8.11h10.82s-13.55,35.14-13.55,35.14c-6.75.68-4.35.22-5.52-3.87-2.9-10.15-10.91-19.3-13.38-27.26-2.19-7.06,9.75-3.19,13.5-4.01ZM193.68,251.4c-10.57-2.15-11.15,4.27-4.05,10.8,1.16.54,5.01-9.84,4.05-10.8Z"/>
      <path class="cls-3" d="M20.2,57.14l.26,5.04c6.07-4.18,10.46-9.43,16.17-1.22,1.77,6.35-7.99,19.02-14.83,20.31-10.78.02-20.06-28.31-1.6-24.12Z"/>
      <path class="cls-8" d="M25.85,32.44h-8.11c.07-9.93,8.04-9.93,8.11,0Z"/>
      <path class="cls-2" d="M193.68,251.4c.96.96-2.89,11.34-4.05,10.8-7.1-6.53-6.52-12.95,4.05-10.8Z"/>
    </g>
  </g>
</svg>