<?xml version="1.0" encoding="UTF-8"?>
<svg id="Layer_2" data-name="Layer 2" xmlns="http://www.w3.org/2000/svg" viewBox="0 0 216.55 286.53">
  <defs>
    <style>
      .cls-1 {
        fill: #191a18;
      }

      .cls-2 {
        fill: #e5e9f1;
      }

      .cls-3 {
        fill: #3a3a3a;
      }

      .cls-4 {
        fill: #13140f;
      }

      .cls-5 {
        fill: #fff;
      }

      .cls-6 {
        fill: #0c0c0c;
      }
    </style>
  </defs>
  <g id="Layer_1-2" data-name="Layer 1">
    <g>
      <rect class="cls-5" x="4.36" y="1.44" width="210" height="284"/>
      <path class="cls-3" d="M216.55,0v286.53H0V4.05C0,3.77,3.77,0,4.06,0h212.49ZM8.12,45.95c-.24.81.22,1.84,0,2.7-.09.37-4.35,3.29-2.86,6.5l.15,228.66h203.01V5.41H5.41c.76,11.91-1.05,24.8-.03,36.58.17,1.99.39,4.38,2.74,3.97Z"/>
      <path class="cls-4" d="M8.12,45.95L24.35,10.82l16.27,36.47-13.54,1.36,2.7-8.09h-13.53s-8.12,8.1-8.12,8.1c.22-.86-.24-1.9,0-2.7ZM27.06,35.13l-2.71-10.8h-2.68l-2.71,10.8h8.11Z"/>
      <path class="cls-6" d="M108.28,164.89l8.1,18.92h-18.94l8.1-18.92c-6.33,4.21-14.58,9.53-22.46,7.74-9.62-2.18-15.19-7.14-15.61-17.19-.89-20.82,27.25-37.9,39.44-52.7,12.82,15.29,53.82,41.67,33.93,63.6-14.63,16.12-31.35-2.79-32.57-1.45Z"/>
      <path class="cls-1" d="M184.05,248.68h13.55s-2.7-10.8-2.7-10.8h10.82s-13.54,37.84-13.54,37.84c-6.09-2.86-21.4-35.36-18.93-37.84,9.34-1.05,16.71,1.02,10.81,10.8ZM194.89,254.1h-8.12l2.72,8.09h2.68l2.72-8.09Z"/>
      <path class="cls-4" d="M24.37,78.39l2.69,10.81h-8.11s2.69-10.81,2.69-10.81c-9.48,6.17-13.67-2.81-9.53-10.88,1.98-3.87,10.46-6.78,9.55-13.45,14.21,6.71,27.19,32.51,2.7,24.33Z"/>
      <path class="cls-4" d="M194.89,200.04l-2.73,8.09c20.09.8,9.27,16.34-1.33,24.32l-15.05-17.55,5.54-8.23,8.16,1.46-2.7-8.09h8.11Z"/>
      <polygon class="cls-2" points="27.06 35.13 18.95 35.13 21.67 24.33 24.35 24.33 27.06 35.13"/>
    </g>
  </g>
</svg>