<?xml version="1.0" encoding="UTF-8"?>
<svg id="Layer_2" data-name="Layer 2" xmlns="http://www.w3.org/2000/svg" viewBox="0 0 213.84 286.64">
  <defs>
    <style>
      .cls-1 {
        fill: #050505;
      }

      .cls-2 {
        fill: #191a18;
      }

      .cls-3 {
        fill: #414141;
      }

      .cls-4 {
        fill: #87722b;
      }

      .cls-5 {
        fill: #f5f5f6;
      }

      .cls-6 {
        fill: #e5e9f1;
      }

      .cls-7 {
        fill: #0f0f0d;
      }

      .cls-8 {
        fill: #dab924;
      }

      .cls-9 {
        fill: #3a3a3a;
      }

      .cls-10 {
        fill: #b7c4d9;
      }

      .cls-11 {
        fill: #13140f;
      }

      .cls-12 {
        fill: #fff;
      }

      .cls-13 {
        fill: #c4a025;
      }

      .cls-14 {
        fill: #172680;
      }

      .cls-15 {
        fill: #b7a68b;
      }

      .cls-16 {
        fill: #c71618;
      }

      .cls-17 {
        fill: #802121;
      }

      .cls-18 {
        fill: #232322;
      }

      .cls-19 {
        fill: #0c0c0c;
      }

      .cls-20 {
        fill: #fe1014;
      }

      .cls-21 {
        fill: #fe0c11;
      }

      .cls-22 {
        fill: #f2d621;
      }

      .cls-23 {
        fill: #585858;
      }

      .cls-24 {
        fill: #f0f1f3;
      }

      .cls-25 {
        fill: #fe2327;
      }

      .cls-26 {
        fill: #95a4ca;
      }

      .cls-27 {
        fill: #ad912e;
      }

      .cls-28 {
        fill: #6874af;
      }
    </style>
  </defs>
  <g id="Layer_1-2" data-name="Layer 1">
    <g>
      <rect class="cls-12" x=".08" width="210" height="284"/>
      <path class="cls-19" d="M0,2.81L1.64.45,213.84.11v286.53l-212.2-.34-1.64-2.36,2.71-2.7c4.57,3.37,9.6,2.6,14.85,2.75,61.15,1.72,122.66-1.14,183.81-.34,1.33-.41,4.36-3.1,4.36-3.76V6.87c0-.66-3.03-3.35-4.36-3.76-61.1,1.14-122.73-2.52-183.82-.35-5.32.19-10.1-.42-14.84,2.76L0,2.81Z"/>
      <polygon class="cls-3" points="2.71 5.52 2.71 281.23 0 283.93 0 2.81 2.71 5.52"/>
      <path class="cls-5" d="M2.71,281.23V5.52c4.74-3.18,9.52-2.57,14.84-2.76,61.09-2.17,122.71,1.49,183.82.35,1.33.41,4.36,3.1,4.36,3.76v273.01c0,.66-3.03,3.35-4.36,3.76-61.15-.79-122.66,2.07-183.81.34-5.25-.15-10.28.62-14.85-2.75ZM27.06,13.63h-10.82s2.7,29.72,2.7,29.72l-10.82-8.1c-2.69,9.73,4.98,18.17,13.65,12.28,5.34-3.63.47-26.02,5.29-33.9ZM184.07,29.84H35.19v227.06h138.05V36.6l10.82-4.07v-2.69ZM21.62,64.98c3.45-5.29,3.42-10-4.03-10.82-7.45.82-7.47,5.53-4.03,10.82l-8.17.03c-1.01,8.95.84,16.78,10.83,10.79l-2.7,8.1h8.12l-2.7-8.1c10.21,6.06,11.81-2.19,10.83-10.79l-8.17-.03ZM194.89,202.85h-8.12s2.68,6.77,2.68,6.77c-1.63,2.48-3.4-1.47-6.34-.87-9.49,1.92-9.38,15.18,3.7,13.09-6.48,9.6,4.53,15.51,10.63,6.43l-2.56-6.5,8.17-.03c1.01-8.95-.84-16.78-10.83-10.79l2.7-8.1ZM200.3,251.49c4.52-10.7-9.72-19.26-14.99-10.92-1.76,2.79-2.01,20.78-2.73,27.14-.36,3.18-1.69,6.72,2.85,8.1,11.89,3.62,4.55-7.75,4.18-12.28-.55-6.69.07-13.46-.12-20.14l10.82,8.1Z"/>
      <path class="cls-7" d="M184.07,29.84v2.69s-10.83,4.07-10.83,4.07v220.3H35.19V29.84h148.88ZM37.9,73.09c.24,29.56-.75,58.18-.11,87.98.13,6.01.77,14.47,2.82,20.14l-2.71,2.7c.17,3.09-.57,6.52-.02,9.5.6,3.22,2.67,3.78,2.72,4.01,3.01,13.09,2.26,20.85,2.6,33.88.1,3.77,2.92,8.09,2.47,10.4-.79,4-9.44,6.28-7.77,12.48h18.94c2.05.05,2.14-1.19,2.71-2.7,1.8-.08,3.62.12,5.41,0,1.7,3.24,4.79,3.01,8.12,2.69l-2.71-2.69c1-.26,5.38-7.8,5.8,2.22,3.45-2.15,6.04.42,7.74.48,3.57.12,7.26.13,10.83,0,1.7-.06,4.28-2.71,7.79-.39l.55-4.9c2.11-.67,2.12,2.45,2.49,2.59l1.68,2.31,11.87.39v-5.41c2.59.34,4.75,4.58,10.82,5.41,12.4,1.69,27.79-1.23,40.61,0-.09-13.49.1-27.07,0-40.55-.15-19.41-1.48-38.8-1.44-58.11.03-16.03,4.11-33.9-1.26-50.01,1.89-.63,2.25-.07,2.71-2.7.59-3.39.18-8.36-.32-11.9-.23-1.62-2.35-1.48-2.38-1.62-.27-1.13-.25-4.23,0-5.41.05-.24,2.81-1.09,2.76-4-.05-2.65-2.69-3.77-2.76-4.11-.09-.48,2.64-5.63,2.79-9.33.34-8.64.74-20.14-.08-28.51-.13-1.28.37-2.75-.12-3.93l-2.59-1.47c-4.47.23-9.08-.35-13.53,0-.9.07-1.81-.05-2.71,0l-2.71,2.7-13.41-2.49-.14,5.2h-2.69s-.3-5.1-.3-5.1l-19.83-.47-1.55,5.57h-2.69s-.02-5.41-.02-5.41h-2.69s-.02,5.41-.02,5.41h-2.69s-1.55-5.57-1.55-5.57l-22.82.16h-40.61c.09,13.48-.1,27.06,0,40.55Z"/>
      <path class="cls-11" d="M194.89,202.85l-2.7,8.1c9.99-5.99,11.84,1.85,10.83,10.79l-8.17.03,2.56,6.5c-6.09,9.08-17.11,3.17-10.63-6.43-13.08,2.1-13.19-11.17-3.7-13.09,2.95-.6,4.72,3.35,6.34.87l-2.68-6.78h8.12Z"/>
      <path class="cls-11" d="M21.62,64.98l8.17.03c.98,8.6-.62,16.86-10.83,10.79l2.7,8.1h-8.12l2.7-8.1c-9.99,5.99-11.84-1.85-10.83-10.79l8.17-.03c-3.45-5.29-3.42-10,4.03-10.82,7.45.82,7.47,5.53,4.03,10.82Z"/>
      <path class="cls-11" d="M200.3,251.49l-10.82-8.1c.19,6.68-.43,13.45.12,20.14.37,4.53,7.71,15.9-4.18,12.28-4.54-1.38-3.21-4.92-2.85-8.1.72-6.35.97-24.35,2.73-27.14,5.28-8.34,19.51.22,14.99,10.92Z"/>
      <path class="cls-11" d="M27.06,13.63c-4.82,7.88.05,30.27-5.29,33.9-8.67,5.9-16.34-2.54-13.65-12.28l10.82,8.1-2.7-29.72h10.82Z"/>
      <path class="cls-24" d="M165.12,197.43c.29,6.13-2.17,14.01,5.41,16.22.1,13.49-.08,27.07,0,40.55-12.82-1.24-28.21,1.68-40.61,0l-8.12-13.52,2.59-22.73c8.1-2.31,3.1-8.67,10.95-12.41h2.71c2.24.34,2.05-2.11,2.71-2.7,3.16-1,8.12-1.43,10.83-2.7s4.82-2.22,5.41-5.41l5.31-2.7,2.81,5.4ZM159.7,221.77h-8.12s1.38,8.07,1.38,8.07c-9.43-7.53-17.55,4.1-8.22,10.36l6.85-2.21-2.7,10.8,10.91-1.27,2.26-3.08-1.95-5.28,7.71-2.54-4.28-9.32-6.52,2.57,2.7-8.1Z"/>
      <path class="cls-24" d="M78.5,32.55c-1.33,5.92,7.68,9.44,8.12,13.52l-5.41,24.33c-2.76.58-1.85.98-2.71,2.7-4.67,9.38-3.3,4.99-10.83,10.81-3.75.3-7.08,2.35-10.83,2.7-2.84-.7-4.32,4.39-5.41,5.41-1.22,1.13-3.86,1.68-5.41,2.7.42-2.27-3.18-21.8-8.12-21.62-.11-13.49.08-27.07,0-40.55h40.61ZM59.55,37.96c-11.76-5.55-25.49,19.24-14.66,21.5l6.53-2.58-2.7,8.1h8.12s-2.7-8.09-2.7-8.09c11,5.58,19.52-2.04,9.17-10.45l-6.44,1,2.68-9.47Z"/>
      <path class="cls-24" d="M46.02,200.14c2.68.19,9.15-2.14,13.53-2.7,2.56-.33,5.46.16,8.12,0v2.7c-3.58-.21-7.24.14-10.82,0-2.03,4.74,2.63,7.65,2.7,8.1.28,1.68-.23,3.67,0,5.41.21,1.58-.89,3.52.57,4.93,7.57-.58,5.26,12.74,4.85,19.4-.06.89.15,1.86,0,2.7l-13.53-8.1,5.41,21.62h-18.94c-1.66-6.21,6.99-8.48,7.77-12.49.45-2.31-2.37-6.63-2.47-10.4-.34-13.03.41-20.79-2.6-33.88,2.07.31,3.41,2.56,5.41,2.7Z"/>
      <path class="cls-24" d="M167.82,32.55c-.29,1.69.43,4.02,0,5.41-.88,2.82-4.52,4.84-5.01,7.1-.53,2.5,2.99,22.57,2.3,30.74-.29,3.45-1.57,5.17-2.71,8.1h5.41c-.25,1.18-.27,4.29,0,5.42-2.51-1.23-5.2-3.09-8.12-2.7l-1.36-2.69h-4.04s0,5.4,0,5.4c.87,1.04,3.69-2.48,5.4-2.7v18.92c-.91.14-1.89-.19-2.71,0l-2.99-13.3c-2.41-1.07-5.81.36-7.84-.22-1.06-.3-3.89-4.68-5.41-5.41,2.64-.25,5.59.41,8.12,0,1.16-.19,2.17.17,2.68-1.35,1.81-6.94-1.42-8.84-2.68-12.16-1.03-2.71-.25-2.44-2.71-5.41-.73-.89-.95-2.51-2.71-2.7-.52-4.05,0-9.2,0-13.52,1.71.27,3.95-.4,5.41,0,2.32.63,4.64,3.6,8.11,2.7-.24-1.69.45-4.16,0-5.4l-.38-6.35-2.32-1.76c-.12-.85,0-1.83,0-2.7.01-1.8,0-3.6,0-5.41,4.46-.35,9.06.23,13.53,0Z"/>
      <path class="cls-16" d="M78.5,32.55l22.82-.16,1.55,5.57h2.69s.02-5.41.02-5.41h2.69s.02,5.41.02,5.41h2.69s1.55-5.57,1.55-5.57l19.83.47.3,5.1h2.69s.14-5.19.14-5.19l13.41,2.49c-.43,2.2,0,5.57,0,8.11h-5.41c-18.12,0-36.44-1.34-54.14,2.7h-2.71c-.44-4.08-9.45-7.6-8.12-13.52Z"/>
      <path class="cls-27" d="M46.02,94.72c-.22,1.18-2.62,3.2-2.86,9.34-.29,7.34,2.53,10.02,2.86,12.29.2,1.36-2.63,20.44-2.71,27.03-.1,8.98,0,18.05,0,27.03v10.81c-.88.12-1.81-.09-2.71,0-2.04-5.67-2.69-14.13-2.82-20.14-.64-29.8.35-58.42.11-87.98,4.94-.17,8.54,19.36,8.12,21.62Z"/>
      <path class="cls-16" d="M119.1,240.68h2.71l8.12,13.52c-6.06-.83-8.23-5.07-10.83-5.41-3.73-.48-9.43,4.23-13.53,2.7-.38-.14-.39-3.25-2.49-2.59l-.55,4.9c-3.5-2.32-6.09.33-7.79.39l-1.54-2.51c-3.26-.41-8.76-1.62-9.29,2.51-1.69-.06-4.29-2.63-7.74-.48-.41-10.02-4.8-2.48-5.8-2.22-1.4.37-3.66-.11-5.41,0s-3.62-.08-5.41,0c2.63-6.94,3.29-5.14,5.41-8.11,18-.93,36.73,2.47,54.14-2.7Z"/>
      <path class="cls-27" d="M170.53,213.65c-7.58-2.2-5.13-10.09-5.41-16.22-.37-7.9.86-16.74,0-24.33-.17-1.54-2.42-3.78-2.71-5.41,4.9-4.96,2.66-16.82,2.71-24.33.06-8.98,0-18.05,0-27.03v-10.81c.94-.13,1.99.24,2.71,0,5.37,16.11,1.3,33.98,1.26,50.01-.04,19.31,1.29,38.71,1.44,58.11Z"/>
      <path class="cls-4" d="M167.82,75.8h-2.71c.69-8.17-2.83-28.24-2.3-30.74.48-2.26,4.13-4.28,5.01-7.1h2.71c.82,8.37.42,19.87.08,28.51-.15,3.7-2.88,8.85-2.79,9.33Z"/>
      <path class="cls-14" d="M167.82,89.31l.38,11.82,2.32,1.7c-.46,2.63-.81,2.07-2.71,2.7-.72.24-1.76-.13-2.71,0-.88.12-1.81-.09-2.71,0s-1.83-.13-2.71,0v-18.92c2.92-.38,5.61,1.47,8.12,2.7Z"/>
      <path class="cls-4" d="M56.84,254.2l-5.41-21.62,13.53,8.1c-.17.98.32,2.26,0,2.7-2.13,2.97-2.78,1.17-5.41,8.11-.57,1.51-.65,2.75-2.71,2.7Z"/>
      <path class="cls-14" d="M43.31,181.22c.88-.12,1.81.09,2.71,0s1.84.15,2.71,0c.02,6.43,1.12,13.31-2.71,18.92-2-.14-3.34-2.4-5.41-2.7l-.38-11.83-2.33-1.69,2.71-2.7c.89-.09,1.83.12,2.71,0Z"/>
      <path class="cls-4" d="M154.29,37.95c0,.88-.12,1.85,0,2.7.8,5.67,1.85,5.71,2.71,8.11.44,1.24-.24,3.71,0,5.4-3.47.9-5.8-2.07-8.11-2.7v-8.11c0-2.54-.43-5.91,0-8.11l2.71-2.7.37,3.81,2.34,1.59Z"/>
      <path class="cls-27" d="M167.82,83.9h-5.41c1.14-2.94,2.41-4.65,2.71-8.11h2.71c.07.35,2.71,1.46,2.76,4.11.05,2.9-2.71,3.76-2.76,4Z"/>
      <path class="cls-21" d="M119.1,248.79v5.41s-11.86-.39-11.86-.39l-1.68-2.31c4.11,1.52,9.81-3.19,13.53-2.7Z"/>
      <path class="cls-6" d="M40.6,197.43c-.05-.24-2.12-.79-2.72-4.01-.56-2.98.19-6.41.02-9.5l2.33,1.69.38,11.83Z"/>
      <path class="cls-6" d="M170.53,102.83l-2.32-1.7-.38-11.82c.03.14,2.15,0,2.38,1.62.5,3.54.92,8.51.32,11.9Z"/>
      <path class="cls-21" d="M94.74,254.2c-3.57.13-7.26.12-10.83,0,.53-4.13,6.03-2.92,9.29-2.51l1.54,2.51Z"/>
      <path class="cls-21" d="M70.38,251.5l2.71,2.69c-3.33.32-6.42.55-8.12-2.69,1.76-.11,4.02.37,5.41,0Z"/>
      <path class="cls-10" d="M170.53,37.95h-2.71c.43-1.39-.29-3.72,0-5.41l2.59,1.47c.49,1.18,0,2.65.12,3.93Z"/>
      <path class="cls-10" d="M154.29,37.95l-2.34-1.59-.37-3.81c.9-.05,1.81.07,2.71,0,0,1.8.01,3.6,0,5.41Z"/>
      <path class="cls-11" d="M159.7,221.77l-2.7,8.1,6.52-2.57,4.28,9.32-7.71,2.54,1.95,5.28-2.26,3.08-10.91,1.27,2.7-10.8-6.85,2.21c-9.33-6.26-1.21-17.89,8.22-10.36l-1.38-8.08h8.12Z"/>
      <path class="cls-10" d="M148.88,178.51c1.37-1.13,3.79-1.7,5.41-2.7.9.73,2.09.27,2.71,2.7.2.77-.1,1.77,0,2.7-7.55,2.52-7.62,10.99,0,13.52-.59,3.19-2.8,4.18-5.41,5.41l-1.39-2.67c-6.99-2-6.94,3.12-9.44,5.38-.65.59-.47,3.04-2.71,2.7-1.71-2.51-2.42-5.1-2.71-8.11,3.16-1.91,5.44-6.05,5.42-9.45l-.02-1.36h-5.41c-.07-3.61.05-7.22,0-10.82.71-.2,1.78.03,2.71,0l6.77,8.09c2.24-.86,3.08-4.58,4.06-5.39Z"/>
      <path class="cls-4" d="M119.1,194.73l-2.71,8.1,10.83-2.69c1.35.85,5.7-.46,8.12,5.41-7.85,3.74-2.85,10.1-10.95,12.41l-2.59,22.73h-2.71c.23-1.71-1.16-2.57-2.71-2.7,1.96-2.41,1.85-5.55,2.71-8.11.91-2.7,1.67-3.78,2.71-8.11.62-2.57,3.45-9.9,2.61-10.63l-9.42-5.26-4.02,5.07-5.41-2.7,1.33-2.15c3.01,1.76,6.35.58,6.79-3.25-2.68-.17-5.45.21-8.12-.01v-2.7c.42.07,5.77-2.11,8.12-2.7,1.73-.44,3.69-2.35,5.41-2.7Z"/>
      <path class="cls-18" d="M165.12,197.43l-2.81-5.4-5.31,2.7c.59-3.16.36-10.03,0-13.52-.1-.93.2-1.93,0-2.7l8.12-5.41c.86,7.59-.37,16.43,0,24.33Z"/>
      <path class="cls-2" d="M135.34,186.62c.07,3.55-.33,7.34,0,10.81.29,3.01,1,5.6,2.71,8.11h-2.71c-2.42-5.87-6.77-4.56-8.12-5.41-.86-.54-1.78-4.09-2.71-5.41.89-.09,1.81.07,2.71,0,1.79-.13,3.63.11,5.42.01.17-3.58-.23-7.24,0-10.82.14-2.16-.37-4.41.16-6.58.34-1.85,1.49-1.24,2.54-1.53.05,3.6-.07,7.21,0,10.81Z"/>
      <path class="cls-16" d="M151.58,200.14c-2.71,1.27-7.67,1.7-10.83,2.7,2.5-2.26,2.44-7.37,9.44-5.38l1.39,2.67Z"/>
      <path class="cls-7" d="M59.55,37.96l-2.68,9.47,6.44-1c10.35,8.41,1.83,16.03-9.17,10.45l2.7,8.09h-8.12s2.7-8.1,2.7-8.1l-6.53,2.58c-10.83-2.26,2.89-27.05,14.66-21.5Z"/>
      <path class="cls-6" d="M67.67,83.9c1.78-.14,3.63.06,5.41,0,.11,1.79-.1,3.62,0,5.41-5.45,1.53-6.03,5.53-5.41,10.81h5.41c0,.91,0,1.81,0,2.71v8.11c-.87-.14-1.82.1-2.71,0l-6.77-8.09-6.77,8.09c-.89.07-1.83-.13-2.71,0-.96.14-2.05-.26-2.71,0l-2.33-1.33c.28-1.49,2.25-3.07,2.33-4.07l5.53-6.73-5.53-6.79c1.1-1.02,2.57-6.11,5.41-5.41.41.1.83,2.03,2.12,2.27,7.86,1.42,6.26-3.08,8.7-4.97Z"/>
      <path class="cls-4" d="M83.91,70.39c-1.74,5.35,5.35,7.99,9.57,8.08,2.62.05,3.63-2.59,3.96-2.68.89-.22,3.92,2.23,5.41,2.7l-5.43,4.05,5.43,1.35v5.41c-4.05.1-8.93,1.67-10.83,5.41-5.4-2.69-10.81-5.47-16.24-8.11,2.66-3.75,8.35-2.54,5.12-11.93l-2.41-1.59c.86-1.72-.05-2.12,2.71-2.7.86-.18,1.83.14,2.71,0Z"/>
      <path class="cls-9" d="M51.43,105.53c-.08,1.01-2.06,2.59-2.33,4.07l2.33,1.33c-.46.18-6,4.6-5.41,5.41-.33-2.26-3.15-4.94-2.86-12.29.24-6.14,2.64-8.16,2.86-9.34,1.56-1.02,4.2-1.58,5.41-2.7-.26,4.46.36,9.07,0,13.52Z"/>
      <path class="cls-23" d="M92.03,48.76c-3.89,7.47-1.44,15.28-8.12,21.62-.88.14-1.85-.18-2.71,0l5.41-24.33h2.71c-.23,1.71,1.16,2.57,2.71,2.7Z"/>
      <path class="cls-9" d="M78.5,73.09l2.41,1.59c3.23,9.39-2.46,8.18-5.12,11.93-.67.94.57,4.87-2.71,5.41-.03-.9.05-1.81,0-2.7-.11-1.79.11-3.62,0-5.41-1.79.06-3.63-.14-5.41,0,7.53-5.82,6.16-1.43,10.83-10.81Z"/>
      <path class="cls-17" d="M67.67,83.9c-2.44,1.89-.84,6.39-8.7,4.97-1.29-.23-1.72-2.17-2.12-2.27,3.74-.36,7.07-2.41,10.83-2.7Z"/>
      <path class="cls-4" d="M67.67,200.14c5.44.32,7.6,2.62,8.12,2.7v2.7c-3.76,1.02-6.23,11.1-6.98,14.82-.14.68,1.58,1.29,1.57,1.39-.64,3.82-2.22,7.15-2.71,10.81-.23,1.73.16,3.64,0,5.41h-2.71c.42-6.66,2.72-19.98-4.85-19.4-1.46-1.41-.35-3.34-.57-4.93h8.13s-.01-8.1-.01-8.1c-3.55-.75-5.27,1.06-8.12,2.7-.08-.45-4.73-3.36-2.7-8.1,3.58.13,7.25-.22,10.82,0Z"/>
      <path class="cls-2" d="M100.15,237.98c5.32.05,11.01-.44,16.24,0,1.55.13,2.94.99,2.71,2.7-17.41,5.17-36.13,1.77-54.14,2.7.32-.44-.17-1.73,0-2.7.15-.85-.06-1.81,0-2.7h2.71c10.8.07,21.68-.1,32.48,0Z"/>
      <path class="cls-6" d="M51.43,181.22l2.89,13.39,5.23.13v2.7c-4.38.56-10.86,2.9-13.53,2.7,3.83-5.61,2.72-12.49,2.71-18.92.88-.15,1.84.16,2.71,0Z"/>
      <path class="cls-4" d="M67.67,194.73c.72.77,2.4,1.17,2.71,2.7-.9.04-1.81-.05-2.71,0-2.66.16-5.57-.33-8.12,0v-2.7l1.35-10.82c2.59,4.27,2.99,6.75,6.77,10.82Z"/>
      <path class="cls-9" d="M73.09,192.03c2.53,5.84,6.97,4.53,10.83,8.11-2.32.6-7.7,2.77-8.12,2.7-.52-.08-2.68-2.38-8.12-2.7v-2.7c.9-.05,1.81.04,2.71,0l2.55-1.5c.49-1.24.01-2.65.16-3.9Z"/>
      <path class="cls-10" d="M59.55,208.25c2.84-1.64,4.57-3.45,8.12-2.7v8.1s-8.12,0-8.12,0c-.23-1.73.28-3.73,0-5.41Z"/>
      <path class="cls-27" d="M140.76,92.01c2.33,2.1,2.39,5.47,4.06,5.42l1.35-5.42c2.03.57,5.42-.85,7.84.22l2.99,13.3c-8.43,2-9.35,6.53-16.24,10.81-1.73.46-2.62-1.19-2.71-2.7-.03-.52,1.64-7.53,1.72-9.89.14-4.15-2.64-7.93.98-11.73Z"/>
      <path class="cls-4" d="M143.46,51.47c0,4.32-.52,9.46,0,13.52.2,1.58.95,2.92,2.71,2.7,2.46,2.96,1.68,2.69,2.71,5.41h-8.13s.02,8.11.02,8.11l5.4-2.7-5.41,8.11c-.56-.27-3.9-.06-6.07-.51-1.32-.27-1.74-2.13-2.05-2.19v-2.7c7.34-1.37,4.65-8.85,5.41-13.52.14-.87-.11-1.82,0-2.7.55-4.38-.13-6.93,0-8.11.2-1.88,3.16-5.23,2.71-8.11h2.71v2.7Z"/>
      <path class="cls-3" d="M140.76,86.61c1.52.73,4.36,5.11,5.41,5.41l-1.35,5.42c-1.67.05-1.73-3.31-4.06-5.42-.67-.6-5.12-3.04-5.4-2.7-.07,2.69.06,5.41-.01,8.11-4.99-1.1-5.04-4.16-2.69-8.1-2.7-.08-5.43.07-8.14,0,.85-2.24,7.04-5.62,8.12-5.41.3.06.73,1.92,2.05,2.19,2.17.45,5.51.24,6.07.51Z"/>
      <path class="cls-10" d="M148.88,73.09c1.26,3.32,4.49,5.22,2.68,12.16-.51,1.52-1.52,1.17-2.68,1.35v-6.74s-2.71-1.37-2.71-1.37l-5.4,2.7-.02-8.1h8.13Z"/>
      <path class="cls-9" d="M148.88,86.61c-2.53.41-5.48-.25-8.12,0l5.41-8.11,2.7,1.37v6.74Z"/>
      <path class="cls-10" d="M148.88,43.36v8.11c-1.47-.4-3.7.27-5.41,0v-8.11h5.41Z"/>
      <path class="cls-18" d="M157,105.53c.81-.19,1.79.14,2.71,0s1.82.09,2.71,0l-1.76,2.29c-1.95,1.02-4.92-.08-6.36.42-6.41,2.19-4.33,6.77-5.41,8.11-2.01,2.48-8.21,3.29-8.22,9.42-.01,5.07,7.42,11.11,5.52,17.61-2.93-1.8-6.43-1.79-8.12-2.7.39-1.81,3.19-4.06,2.86-6.67l-5.33-1.68,2.65-6.34-5.6-1.53-.02-5.39c4.27,1.1,5.64-1.16,8.13-2.71,6.89-4.28,7.81-8.81,16.24-10.81Z"/>
      <path class="cls-26" d="M159.7,86.61c-1.72.23-4.53,3.74-5.4,2.7v-5.4s4.04,0,4.04,0l1.36,2.69Z"/>
      <path class="cls-10" d="M157,48.76c-.86-2.4-1.9-2.44-2.71-8.11l2.32,1.76.38,6.35Z"/>
      <path class="cls-10" d="M146.17,67.69c-1.76.22-2.5-1.12-2.71-2.7,1.76.2,1.97,1.82,2.71,2.7Z"/>
      <path class="cls-2" d="M143.46,43.36v5.41h-2.71c-10.8-.07-21.68.1-32.48,0-5.32-.05-11.01.44-16.24,0-1.55-.13-2.94-.99-2.71-2.7,17.69-4.05,36.02-2.7,54.14-2.7Z"/>
      <path class="cls-15" d="M59.55,167.7c-.86,3.62-2.34,4.4-2.71,5.41l-13.53-2.7c0-8.98-.1-18.05,0-27.03h2.71c.97,6.27,10.18,18.16,13.53,24.33Z"/>
      <path class="cls-6" d="M56.84,173.11c-1.76,4.74,2.82,6.09-9.01,5.86l-1.82,2.25c-.89.09-1.82-.12-2.71,0v-10.81l13.53,2.7Z"/>
      <path class="cls-2" d="M48.72,121.75l-2.45,1.78c2.47,6.76-1.19,13.78-.26,19.85h-2.71c.07-6.59,2.91-25.67,2.71-27.03,3.24.52,2.02,3.65,2.71,5.41Z"/>
      <path class="cls-23" d="M146.17,143.37c5.86,3.61,5.14,5.79,8.12,10.81,1.45,2.45,2.07,4.77,5.41,5.41.07.44,1.97,3.91,2.71,8.11.29,1.63,2.53,3.86,2.71,5.41l-8.12,5.41c-.61-2.43-1.81-1.98-2.71-2.7-2.24-1.81-.78-2.05-5.41-2.7.33-3.11-2.07-5.72-2.71-8.11-.97-3.62-1.42-6.68-2.71-10.81-1.11-3.57-.23-3.54-2.71-8.11-.2-.37-2.1-.47-2.71-2.7-.17-.62-.14-2.06,0-2.7,1.69.91,5.19.9,8.12,2.7Z"/>
      <path class="cls-15" d="M154.29,108.23l1.9,2.18,6.25.57-2.76,5.34h5.43c0,8.99.06,18.06,0,27.04h-2.71c-.57-4.29-5.04-10.94-8.1-14.41-3.39-3.84-7.79-.99-5.43-12.62,1.09-1.34-1-5.92,5.41-8.11Z"/>
      <path class="cls-19" d="M162.41,167.7c-.74-4.2-2.63-7.66-2.71-8.11-.23-1.39-.23-4.01,0-5.41.34-2.06,2.37-4.53,2.71-8.11.08-.83.11-1.88,0-2.7h2.71c-.05,7.51,2.19,19.37-2.71,24.33Z"/>
      <path class="cls-6" d="M165.12,116.34h-5.43s2.76-5.35,2.76-5.35l-6.25-.57-1.9-2.18c1.45-.49,4.41.61,6.36-.42l1.76-2.29c.89-.09,1.83.12,2.71,0v10.81Z"/>
      <path class="cls-18" d="M67.67,146.08c-.6,7.49-.05,5.38,2.71,13.52.26.76-.21,1.81,0,2.7.35,1.46,3.39,4.82,2.71,5.35-2.81-.42-3.74,1.21-5.42,2.76-.57.53-2.01.37-2.35,1.66l-.36,3.75c-.93.03-2.05-.21-2.71,0l-2.71,2.7c-2.82.91-4.54,2.03-8.12,2.7-.87.16-1.83-.15-2.71,0s-1.82-.09-2.71,0l1.82-2.25c11.83.23,7.25-1.12,9.01-5.86.37-1,1.85-1.78,2.71-5.41.02-.1,1.48,0,1.67-1.32.21-1.5-2.91-5.17-1.35-6.43,11.33-.67,1.2-9.45-.32-16.58l8.12,2.7Z"/>
      <path class="cls-16" d="M157,194.73c-7.62-2.52-7.55-10.99,0-13.52.36,3.48.59,10.35,0,13.52Z"/>
      <path class="cls-27" d="M148.88,173.11c4.63.66,3.17.9,5.41,2.7-1.62,1.01-4.04,1.57-5.41,2.7-2.7,1.05-4.92-2.57-5.41-2.7v-2.7c1.71.26,3.69-.24,5.41,0Z"/>
      <path class="cls-20" d="M135.34,186.62h5.41s.02,1.36.02,1.36c.02,3.4-2.27,7.54-5.42,9.45-.33-3.47.07-7.26,0-10.81Z"/>
      <path class="cls-16" d="M143.46,175.81c.5.13,2.71,3.76,5.41,2.7-.98.81-1.82,4.53-4.06,5.39l-6.77-8.09c1.64-.06,4.14-.33,5.41,0Z"/>
      <path class="cls-22" d="M143.46,173.11v2.7c-1.27-.33-3.78-.06-5.41,0-.93.03-1.99-.2-2.71,0v-2.7c2.34.5,5.59-.39,8.12,0Z"/>
      <path class="cls-27" d="M105.57,202.84c2.67.22,5.44-.16,8.12.01-.44,3.83-3.78,5.01-6.79,3.25l-1.33,2.15,2.72,16.21h2.69s.01-13.51.01-13.51l4.02-5.07,9.42,5.26c.84.73-1.99,8.05-2.61,10.63l-2.33,1.74-.38,6.37c-.86,2.56-.75,5.7-2.71,8.11-5.23-.44-10.92.05-16.24,0-.22-1.74.32-3.81,0-5.41.87-.16,1.82.12,2.71,0l2.7-1.36c.19-2.52.38-5.09-.47-7.53l-2.23-1.93c-.48-7.05-3.47-11.88,0-18.92.87.14,1.82-.07,2.71,0Z"/>
      <path class="cls-18" d="M97.45,146.08l.21,32.22c.79,1.09,8.62,1.87,10.62,2.92.66.35,5.41,3.78,8.12,5.41,3.29,1.98,8.1,5.35,10.83,8.11-.9.07-1.82-.09-2.71,0-1.76.19-3.83-.32-5.41,0-1.72.35-3.69,2.27-5.41,2.7,5.68-7.79-6.6-12.54-5.82-3.21l-7.7.5,2.69-10.81c-2.69-.08-5.42.08-8.12,0-.9-.03-1.81,0-2.71,0l-5.43-5.41.03-8.11,8.1,2.7-8.13-8.11v-8.1s5.43-8.11,5.43-8.11c.51-.26,1.16-2.33,2.71-2.7.79-.19,1.78.11,2.71,0Z"/>
      <path class="cls-8" d="M94.74,183.92c2.7.09,5.43-.07,8.12,0l-2.69,10.81,7.7-.5c-.78-9.33,11.5-4.58,5.82,3.21-2.35.6-7.7,2.77-8.12,2.7-3.36-.53-5.73-3.19-13.53-2.7-.57-2.3,1.8-1.84,2.71-2.7.52-.5,2.23-.32,2.49-1.64l-2.49-9.17Z"/>
      <path class="cls-28" d="M105.57,200.14v2.7c-.89-.07-1.84.14-2.71,0-3.36-.53-6.28-1.47-9.42-2.77l-1.41-2.64c7.81-.48,10.17,2.17,13.53,2.7Z"/>
      <path class="cls-8" d="M124.52,194.73c.92,1.31,1.85,4.87,2.71,5.41l-10.83,2.69,2.71-8.1c1.58-.32,3.65.19,5.41,0Z"/>
      <path class="cls-16" d="M129.93,173.11c-.29,1.52,0,3.67,0,5.41h-8.13s.01,8.1.01,8.1l8.11-2.7h2.71c-.23,3.58.18,7.24,0,10.82-1.79.1-3.63-.14-5.42-.01-2.73-2.76-7.54-6.13-10.83-8.11l-2.7-20.27c.45-1.75,1.72-1.11,2.7-1.36,1.96,5.34,8.22,7.54,13.53,8.11Z"/>
      <path class="cls-17" d="M135.34,173.11v2.7c-1.06.29-2.2-.32-2.54,1.53-.54,2.17-.03,4.42-.16,6.58h-2.71v-5.41c0-1.74-.29-3.89,0-5.41.05-.27,2.48-1.37,2.71-2.7,1.42.48,2.38,2.63,2.71,2.7Z"/>
      <path class="cls-3" d="M119.1,229.87l.38-6.37,2.33-1.74c-1.04,4.33-1.8,5.41-2.71,8.11Z"/>
      <path class="cls-15" d="M56.84,113.64c.46.87,2.62,5.12,2.71,5.41.15.52.18,2.21,0,2.7-.34.91-3.98,1.88-2.6,6.45,1.13,2.43,2.88,3.48,5.3,4.36.8.29,1.91-.29,2.71,0-.81,2.97-4.85,2.23-5.41,2.7l-5.06-.27c-.92-4.85-4.03-8.81-5.76-13.24-.69-1.76.54-4.89-2.71-5.41-.58-.81,4.96-5.23,5.41-5.41.66-.26,1.75.14,2.71,0,.36,1.33,2.35,2.04,2.71,2.7Z"/>
      <path class="cls-8" d="M70.38,110.94c.89.1,1.83-.14,2.71,0,1.56.26,3.64,2.1,5.41,2.7,3.7,1.27,8.92.78,10.83,5.41v2.7c-8.45-6.16-22.16-9.01-32.48-8.11-.35-.66-2.35-1.37-2.71-2.7.87-.13,1.81.07,2.71,0,3.95-.31,9.7-.45,13.53,0Z"/>
      <path class="cls-9" d="M75.79,102.83l2.52,2.53,8.31-5.23-8.12,13.51c-1.77-.61-3.85-2.45-5.41-2.7v-8.11h2.71Z"/>
      <path class="cls-4" d="M70.38,110.94c-3.84-.45-9.58-.31-13.53,0l6.77-8.09,6.77,8.09Z"/>
      <path class="cls-16" d="M51.43,105.53c.36-4.44-.26-9.06,0-13.52l5.53,6.79-5.53,6.73Z"/>
      <path class="cls-25" d="M73.09,92.01c.08,2.7,0,5.41,0,8.11h-5.41c-.62-5.28-.05-9.29,5.41-10.81.05.9-.03,1.8,0,2.7Z"/>
      <path class="cls-11" d="M92.03,94.72c1.81.9,3.59,1.84,5.41,2.7v2.7c-1.12-.6-4.28.6-5.41,0-4.86-2.57-8.48-10.3-16.24-8.1v10.81h-2.71c0-.9,0-1.8,0-2.7,0-2.7.08-5.41,0-8.11,3.27-.54,2.04-4.46,2.71-5.41,5.43,2.64,10.84,5.42,16.24,8.11Z"/>
      <path class="cls-13" d="M108.27,48.76c-.71,1.88-1.94,3.57-2.71,5.41-.1.23-2.63.43-2.91,4.07-.42,5.36,2.83,6.36,2.91,6.74,1.48,6.64,1.26,12.29,0,18.92h-2.71l-5.43-1.35,5.43-4.05-2.72-16.21h-2.69s-.01,13.51-.01,13.51c-.33.08-1.34,2.73-3.96,2.68-4.22-.09-11.31-2.73-9.57-8.08,6.68-6.34,4.23-14.16,8.12-21.62,5.23.44,10.92-.05,16.24,0Z"/>
      <path class="cls-28" d="M119.1,89.31c-.87.14-1.82-.11-2.71,0-2.63-1.11-5.1,2.65-5.41,2.7-.9.17-1.89-.21-2.71,0l-1.38-2.69c-1.35-.04-2.7-.04-4.03,0v-5.41h2.71c3.78,1.1,12.83,1.93,13.53,5.41Z"/>
      <path class="cls-8" d="M102.86,89.31c1.34-.03,2.68-.03,4.03,0l1.38,2.69c-5.06,1.28-6.97-2.49-10.83,5.41-1.83-.86-3.61-1.8-5.41-2.7,1.89-3.73,6.77-5.3,10.83-5.41Z"/>
      <path class="cls-8" d="M102.86,78.5c-1.5-.47-4.52-2.92-5.41-2.7v-13.51s2.7,0,2.7,0l2.72,16.21Z"/>
      <path class="cls-24" d="M92.03,197.43l1.41,2.64c3.13,1.3,6.05,2.24,9.42,2.77-3.47,7.04-.48,11.88,0,18.92.24,3.57-.17,7.23,0,10.81-.89.12-1.84-.16-2.71,0-.24-1.17.15-2.19-1.5-2.56-1.23-.51-2.67.02-3.92-.14l-1.36-8.11c-11.57.03-7.39,2.84-6.76,8.11.15,1.24-3.58-.37,0,2.7,3.25,2.78,4.71,5.06,8.12,0,1.75,0,3.88.28,5.41,0,.32,1.6-.22,3.66,0,5.41-10.8-.1-21.68.07-32.48,0,.16-1.77-.23-3.67,0-5.41,2.26-1.27,5.57-3.28,8.12-2.7.32.07,1.73,3.88,5.41,2.7.08-1.79-.09-3.61,0-5.4.05-.89,0-1.81,0-2.7v-10.81c1.54.34,3.65-.17,5.41,0l1.35,2.7,1.35-1.35-2.71-1.35-2.62-5.26,5.33-.16v-2.68c-4.12.61-10.01-.97-13.54-.01v-2.7c.42.06,5.8-2.1,8.12-2.7,1.73-.45,3.79-2.45,5.41-2.7.87-.14,1.82.06,2.71,0Z"/>
      <path class="cls-6" d="M81.21,213.65v10.81l-10.83-2.7c.02-.1-1.7-.72-1.57-1.39.75-3.72,3.22-13.81,6.98-14.82,1.26,2.52,2.86,7.55,5.41,8.11Z"/>
      <path class="cls-28" d="M81.21,224.47c0,.9.05,1.81,0,2.7l-5.41,2.7c-2.55-.58-5.86,1.43-8.12,2.7.49-3.67,2.07-7,2.71-10.81l10.83,2.7Z"/>
      <path class="cls-27" d="M64.96,175.81c1.79-.06,3.62.02,5.41,0v5.4s-5.41.02-5.41.02c4.19,5.59,5.56,6.5,2.71,13.5-3.77-4.07-4.18-6.56-6.77-10.82l-1.35,10.82-5.23-.13-2.89-13.39c3.58-.67,5.3-1.79,8.12-2.7,1.5-.49,2.36-2.59,2.71-2.7.66-.21,1.77.03,2.71,0Z"/>
      <path class="cls-6" d="M73.09,173.11c-.06,4.5.08,9.02,0,13.52-.03,1.77.2,3.68,0,5.41-.15,1.26.34,2.67-.16,3.9l-2.55,1.5c-.3-1.54-1.99-1.93-2.71-2.7,2.85-7,1.49-7.91-2.71-13.5l5.41-.02v-5.4c-1.79.01-3.62-.07-5.41,0l.36-3.75c.34-1.29,1.78-1.13,2.35-1.66,1.45,1.12,4.36,1.65,5.41,2.7Z"/>
      <path class="cls-15" d="M83.91,175.81l-2.37,1.62c-.76,3.38-.76,6.89,0,10.27l2.37,1.62c.25.41,1.89-.34,2.71,0l2.71,8.11c-1.62.25-3.68,2.25-5.41,2.7-3.86-3.58-8.29-2.27-10.83-8.11.2-1.73-.03-3.63,0-5.41l5.44-1.38c-1.1-4.62-2.19-8.9-5.44-12.14-1.05-1.05-3.97-1.58-5.41-2.7,1.68-1.55,2.61-3.18,5.42-2.76.68-.53-2.36-3.89-2.71-5.35,1.66-.32,4.14.47,5.41,0,2.41-.89,3.36-4.02,5.41-5.41.52,6.31,2,12.26,2.71,18.92Z"/>
      <path class="cls-15" d="M124.52,89.31c2.7.08,5.44-.07,8.14,0-2.35,3.94-2.3,7,2.69,8.1-.02.9,0,1.8,0,2.7l-5.44,1.38,5.44,12.14h2.71c.09,1.51.97,3.16,2.71,2.7-2.49,1.55-3.86,3.81-8.13,2.71l.02,5.39,5.6,1.53-2.65,6.34,5.33,1.68c.32,2.61-2.47,4.86-2.86,6.67-3.21-1.73-1.88-5.43-4.06-5.42l-1.34.02c-.25,1.73.37,3.93-.01,5.4-1.3-1.2-5.05-4.44-5.41-5.41-.27-.73.21-1.79,0-2.7-.78-3.44-2.28-10.42-2.71-13.52-.64-4.61.5-10.06,0-14.86-.4-1.65-1.56-1.16-2.7-1.35.19-1.76-.3-3.78,0-5.41.08-.43,1.72-.95,2.12-2.22.74-2.38.23-4.94.59-5.89ZM129.92,119.04v-10.8h-2.69v10.8h2.69Z"/>
      <path class="cls-6" d="M140.76,92.01c-3.62,3.81-.84,7.59-.98,11.73-.08,2.36-1.76,9.37-1.72,9.89h-2.71v-13.52c0-.9-.02-1.8,0-2.7.07-2.7-.06-5.42.01-8.11.28-.34,4.74,2.1,5.4,2.7Z"/>
      <path class="cls-6" d="M140.76,48.76c.45,2.88-2.5,6.23-2.71,8.11h-10.82c-.02,1.79-.01,3.61,0,5.39l10.83,2.72c-.11.89.14,1.83,0,2.7-5.59-2.25-5.59,4.8-8.12,5.41-2.26.54-5.57-.37-8.14,0l2.64,5.25-5.33.16v2.68c4.28-.5,9.57.75,13.54.01v2.7c-1.08-.22-7.27,3.17-8.12,5.41-1.72-.05-3.86-.26-5.41,0-.7-3.48-9.76-4.31-13.53-5.41,1.26-6.63,1.48-12.28,0-18.92v-10.81c.77-1.84,2-3.52,2.71-5.41,10.8.1,21.68-.07,32.48,0ZM121.81,59.58c.25-1.45,3.25-4.76,2.71-5.35l-10.83-2.75v2.68c2.56-.46,3.72,1.47,5.41,2.72-5.18-.37-9.05,2.98-8.12,8.1,3.76.48,13.04.5,12.92-4.03-.02-.8-2.12-1.24-2.1-1.37Z"/>
      <path class="cls-28" d="M138.05,56.87c-.13,1.18.55,3.73,0,8.11l-10.83-2.72c0-1.78-.01-3.6,0-5.38h10.82Z"/>
      <path class="cls-16" d="M48.72,121.75c1.73,4.43,4.84,8.39,5.76,13.24l5.06.27c-.29.24.13,1.75,0,2.7-.2,1.42-.27,4.12,0,5.41,1.52,7.13,11.65,15.91.32,16.58-1.56,1.26,1.56,4.93,1.35,6.43-.18,1.31-1.64,1.21-1.67,1.32-3.35-6.16-12.57-18.06-13.53-24.33s2.73-13.09.26-19.85l2.45-1.78ZM56.83,151.48v-5.4h-2.69v5.4h2.69Z"/>
      <path class="cls-17" d="M148.88,116.34c-2.36,11.64,2.04,8.78,5.43,12.62,3.06,3.47,7.54,10.11,8.1,14.41l-5.4-2.7v5.4s5.4,0,5.4,0c-.34,3.58-2.37,6.04-2.71,8.11h-5.41c-2.98-5.02-2.26-7.21-8.12-10.81,1.9-6.49-5.53-12.53-5.52-17.61.01-6.14,6.21-6.94,8.22-9.42Z"/>
      <path class="cls-18" d="M124.52,162.29c.88.09,1.82,0,2.71,0h5.41l2.71,5.41,8,2.65.12-5.36h2.71c.64,2.39,3.04,5,2.71,8.11-1.72-.24-3.71.26-5.41,0-2.53-.39-5.78.5-8.12,0-.33-.07-1.29-2.23-2.71-2.7-4.38-1.47-10.74-4.85-13.53-5.41v-2.7c1.79.11,3.64-.17,5.41,0Z"/>
      <path class="cls-27" d="M129.93,151.48c3.61.54,5.56,2.03,8.12,2.7.83.22,1.84-.16,2.71,0h2.71c1.29,4.13,1.74,7.19,2.71,10.81h-2.71v-2.7l-1.59-2.48c-2.07-.7-4.41-.1-6.53-.22-.9-.05-1.81.04-2.71,0h-2.71c-.17-.86.23-1.87,0-2.7-.3-1.09-.02-2.14-1.51-2.53l-3.91-.18c-.12-.93.22-1.95,0-2.7,1.78.12,3.73-.25,5.41,0Z"/>
      <path class="cls-15" d="M140.76,146.08v8.11c-.87-.16-1.87.22-2.71,0l-2.71-10.81h2.71c.6,2.24,2.51,2.34,2.71,2.7Z"/>
      <path class="cls-3" d="M138.05,140.67c-.14.64-.17,2.08,0,2.7h-5.41c.35-.48-.25-1.76,0-2.7.38-1.47-.24-3.67.01-5.4l1.34-.02c2.18,0,.85,3.69,4.06,5.42Z"/>
      <path class="cls-14" d="M143.46,154.19h-2.71v-8.11c2.48,4.56,1.59,4.54,2.71,8.11Z"/>
      <path class="cls-16" d="M159.7,154.19c-.23,1.4-.23,4.01,0,5.41-3.34-.63-3.96-2.96-5.41-5.41h5.41Z"/>
      <path class="cls-21" d="M162.41,143.37c.11.82.08,1.87,0,2.7h-5.41s0-5.41,0-5.41l5.4,2.7Z"/>
      <polygon class="cls-8" points="110.98 210.95 110.97 224.46 108.28 224.46 105.57 208.25 110.98 210.95"/>
      <path class="cls-4" d="M102.86,232.57c-.17-3.59.24-7.24,0-10.81l2.23,1.93c.85,2.43.65,5,.47,7.53l-2.7,1.36Z"/>
      <path class="cls-16" d="M92.03,148.78l-5.43,8.11v8.1s8.13,8.11,8.13,8.11l-8.1-2.7-.03,8.11,5.43,5.41h-8.12c-.1-2.67.28-5.49,0-8.11-.71-6.66-2.18-12.62-2.71-18.92-.07-.85-.08-1.85,0-2.7l3.81.13c2.25-7.26,4.68-4.36,7.02-5.54Z"/>
      <path class="cls-8" d="M116.39,159.59l2.71,2.7v2.7c-.67-.13-2.05-.16-2.71,0-.98.25-2.25-.39-2.7,1.36l2.7,20.27c-2.71-1.63-7.47-5.06-8.12-5.41v-2.7c.72-7.52,1.44-11.6,0-18.92-.18-.91.24-1.94,0-2.7l8.12,2.7Z"/>
      <path class="cls-22" d="M100.15,165c.34,6.33,5.55,5.86,8.12,13.52v2.7c-2-1.05-9.83-1.83-10.62-2.92l-.21-32.22c.76-.09,1.99-.17,2.71,0,0,6.26-.33,12.69,0,18.92Z"/>
      <path class="cls-9" d="M92.03,183.92c.9,0,1.81-.03,2.71,0l2.49,9.17c-.26,1.32-1.97,1.14-2.49,1.64-1.49-3.14-5.13-4.15-8.12-5.41-.82-.34-2.45.41-2.71,0-.38-.63.06-3.8,0-5.41h8.12Z"/>
      <path class="cls-3" d="M75.79,124.45c15.32-2.16,11.84,1.44,18.95,10.81,1.54,2.03,1.93,4.81,5.41,5.41v5.41c-.72-.17-1.95-.09-2.71,0-.93.11-1.92-.19-2.71,0v-8.1c-3.29-1.11-5.12,2.64-5.41,2.7-.42.08-5.75-2.11-8.12-2.7-1.7-.43-3.59-2.19-5.41-2.7-2.87-3.64-2.88-7.1,0-10.81Z"/>
      <path class="cls-14" d="M94.74,143.37v2.7c-1.55.38-2.2,2.45-2.71,2.7-2.34,1.18-4.77-1.72-7.02,5.54l-3.81-.13c.09-.97-.27-2.16,0-2.7.25-.52,7.63-7.8,8.12-8.11.85-.53,3.84.36,5.41,0Z"/>
      <path class="cls-4" d="M94.74,194.73c-.91.86-3.27.4-2.71,2.7-.89.06-1.84-.14-2.71,0l-2.71-8.11c2.99,1.26,6.63,2.27,8.12,5.41Z"/>
      <polygon class="cls-2" points="129.93 178.51 129.93 183.92 121.81 186.62 121.8 178.52 129.93 178.51"/>
      <path class="cls-22" d="M132.64,170.4c-.23,1.34-2.66,2.43-2.71,2.7-5.31-.57-11.58-2.77-13.53-8.11.65-.16,2.03-.13,2.71,0,2.79.55,9.16,3.93,13.53,5.41Z"/>
      <path class="cls-23" d="M70.38,135.26l5.41,8.11c-.3.52.15,1.73,0,2.7-.39,2.51.24,5.48.01,8.11l2.7-2.7h2.71c-.27.54.09,1.74,0,2.7-.08.85-.07,1.85,0,2.7-2.05,1.39-3,4.51-5.41,5.41v-5.41s-5.41,2.7-5.41,2.7c-2.76-8.13-3.3-6.02-2.71-13.52.14-1.74.15-3.54-.1-5.27l-8.02-2.84c.13-.96-.29-2.46,0-2.7.57-.48,4.61.26,5.41-2.7,3.21,1.17,5.1,2.6,5.41,2.7Z"/>
      <path class="cls-4" d="M59.55,119.04l6.8-2.53,5.38,7.94,1.36-5.42h2.69s.01,5.41.01,5.41c-2.88,3.71-2.87,7.17,0,10.81-1.54-.43-3.99.46-5.41,0-.32-.1-2.21-1.54-5.41-2.7-.8-.29-1.91.29-2.71,0l-2.71-10.81c.18-.49.15-2.18,0-2.7Z"/>
      <path class="cls-18" d="M89.33,121.75c.58.42,6.4,6.41,8.12,8.11v5.41h-2.71c-7.11-9.37-3.63-12.98-18.95-10.81v-5.4s-2.7,0-2.7,0l-1.36,5.42-5.38-7.94-6.8,2.53c-.08-.29-2.24-4.54-2.71-5.41,10.33-.9,24.03,1.95,32.48,8.11Z"/>
      <path class="cls-23" d="M62.26,132.56c-2.42-.88-4.17-1.93-5.3-4.36-1.39-4.57,2.26-5.54,2.6-6.45l2.71,10.81Z"/>
      <path class="cls-13" d="M97.45,100.12c.33.18.73,2.87,2.74,3.94,3.54,1.89,9.24,1.46,10.52,5.79.78,6.65.05,13.36.27,20,.1,3.09-.37,6.21.17,9.31.34,1.87,1.51,1.21,2.53,1.5-.33,3.95-.05,7.37-2.71,10.81-2.71-3.15-3.19-6.62-5.41-10.81-.9-1.7-1.66-4.04-2.71-5.41-2.45-3.2-3.38-3.4-5.41-5.41-1.72-1.7-7.54-7.69-8.12-8.11v-2.7l5.35-.14c-3.49-5.92-2.85-12.13-2.64-18.78,1.14.6,4.3-.6,5.41,0ZM108.28,116.35l-8.12-2.71c1.07,4.03-1.85,4.93-2.72,8.1h10.82s.01-5.39.01-5.39Z"/>
      <path class="cls-16" d="M92.03,100.12c-.21,6.65-.84,12.87,2.64,18.78l-5.35.14c-1.9-4.63-7.13-4.14-10.83-5.41l8.12-13.51-8.31,5.23-2.52-2.53v-10.81c7.77-2.19,11.38,5.53,16.24,8.1Z"/>
      <path class="cls-4" d="M105.57,64.98c-.09-.38-3.33-1.38-2.91-6.74.28-3.64,2.82-3.84,2.91-4.07v10.81Z"/>
      <path class="cls-18" d="M121.81,97.42c-.3,1.62.19,3.64,0,5.41-3.95-.66-7.11,1.34-8.12,5.4h8.12v8.12c-1.7-.85-5.63-.84-8.11-2.7v10.81s8.1-2.7,8.1-2.7l.02,8.1h-8.13s-2.71,0-2.71,0c-.22-6.64.51-13.35-.27-20-1.27-4.33-6.98-3.9-10.52-5.79-2.01-1.08-2.41-3.77-2.74-3.94v-2.7c3.85-7.89,5.77-4.13,10.83-5.41l-2.7,10.81,8.15-1.38-2.74-9.43,5.26,2.65.15-5.35c.89-.11,1.83.14,2.71,0,.36,1.77-.49,4.31.44,6.32l2.27,1.79Z"/>
      <path class="cls-22" d="M110.98,92.01l2.74,9.43-8.15,1.38,2.7-10.81c.82-.21,1.81.17,2.71,0Z"/>
      <path class="cls-13" d="M116.39,89.31l-.15,5.35-5.26-2.65c.31-.06,2.78-3.81,5.41-2.7Z"/>
      <path class="cls-28" d="M86.62,229.87c-.63-5.27-4.81-8.09,6.76-8.11l1.36,8.11c-2.59-.33-5.47.22-8.12,0Z"/>
      <path class="cls-26" d="M75.79,205.54c3.53-.96,9.42.62,13.53.01v2.68s-5.32.16-5.32.16l2.62,5.26c-1.76-.17-3.87.34-5.41,0-2.56-.56-4.15-5.59-5.41-8.11Z"/>
      <path class="cls-6" d="M94.74,229.87c1.25.16,2.68-.36,3.92.14,1.64.37,1.26,1.39,1.5,2.56-1.53.28-3.67,0-5.41,0h-8.12c-3.58-3.07.15-1.46,0-2.7,2.65.22,5.53-.33,8.12,0Z"/>
      <path class="cls-26" d="M94.74,232.57c-3.41,5.06-4.87,2.78-8.12,0h8.12Z"/>
      <path class="cls-6" d="M81.21,227.17c-.1,1.79.07,3.61,0,5.4-3.68,1.18-5.09-2.62-5.41-2.7l5.41-2.7Z"/>
      <polygon class="cls-6" points="86.62 213.65 89.33 215 87.97 216.36 86.62 213.65"/>
      <path class="cls-4" d="M59.55,178.51l2.71-2.7c-.35.11-1.21,2.22-2.71,2.7Z"/>
      <path class="cls-14" d="M73.09,173.11c3.25,3.24,4.34,7.52,5.44,12.14l-5.44,1.38c.08-4.5-.06-9.02,0-13.52Z"/>
      <path class="cls-10" d="M83.91,183.92c.06,1.61-.38,4.78,0,5.41l-2.37-1.62c-.76-3.38-.76-6.89,0-10.27l2.37-1.62c.28,2.62-.1,5.44,0,8.11Z"/>
      <path class="cls-10" d="M75.79,162.29c-1.27.47-3.75-.32-5.41,0-.21-.89.26-1.94,0-2.7l5.4-2.7v5.41Z"/>
      <path class="cls-21" d="M121.81,116.34c.32.16.42,3.2,2.71,2.7.43,3.1,1.93,10.08,2.71,13.52-6.25-1.65-5.28,5.58-10.83,8.11-.91,0-2.02.19-2.71,0,.3-3.56-.2-7.24,0-10.81h8.13s-.02-8.11-.02-8.11l-8.1,2.7v-10.81c2.48,1.86,6.41,1.85,8.11,2.7Z"/>
      <path class="cls-13" d="M132.64,140.67c-.25.95.35,2.22,0,2.7-1.65,2.26-7.95,1.63-2.71,8.11-1.68-.25-3.64.12-5.41,0-.81-2.83-2.56-4.63-5.41-5.41-.15-1.78.1-3.62,0-5.41,2.9-.8,6.69-2.56,8.12-5.41.36.97,4.12,4.21,5.41,5.41Z"/>
      <polygon class="cls-14" points="135.34 100.12 135.34 113.64 129.9 101.5 135.34 100.12"/>
      <path class="cls-13" d="M124.52,89.31c-.36.95.15,3.51-.59,5.89-.39,1.27-2.04,1.79-2.12,2.22l-2.27-1.79c-.93-2.01-.08-4.55-.44-6.32,1.55-.26,3.7-.05,5.41,0Z"/>
      <path class="cls-25" d="M124.52,119.04c-2.29.5-2.38-2.54-2.71-2.7v-8.11c0-1.77-.19-3.68,0-5.41,1.14.19,2.29-.3,2.7,1.35.51,4.81-.63,10.25,0,14.86Z"/>
      <rect class="cls-3" x="127.23" y="108.24" width="2.69" height="10.8"/>
      <path class="cls-14" d="M127.22,132.56c.21.91-.27,1.98,0,2.7-1.43,2.84-5.22,4.61-8.12,5.41-.69.19-1.8,0-2.71,0,5.55-2.53,4.58-9.76,10.83-8.11Z"/>
      <path class="cls-28" d="M119.1,56.87c.74.54,1.26,2.37,2.71,2.7-.02.12,2.08.57,2.1,1.37.11,4.53-9.16,4.51-12.92,4.03-.94-5.13,2.94-8.47,8.12-8.1Z"/>
      <path class="cls-26" d="M129.93,73.09l2.71,8.11c-3.97.74-9.26-.51-13.53-.01v-2.68s5.32-.16,5.32-.16l-2.64-5.25c2.57-.37,5.88.53,8.14,0Z"/>
      <path class="cls-26" d="M119.1,56.87c-1.69-1.24-2.85-3.17-5.41-2.72v-2.68s10.82,2.75,10.82,2.75c.54.59-2.46,3.9-2.71,5.35-1.44-.33-1.97-2.16-2.71-2.7Z"/>
      <path class="cls-15" d="M59.55,137.97l8.02,2.84c.25,1.73.24,3.53.1,5.27l-8.12-2.7c-.27-1.28-.2-3.99,0-5.41Z"/>
      <rect class="cls-18" x="54.15" y="146.08" width="2.69" height="5.4"/>
      <path class="cls-23" d="M119.1,140.67c.1,1.79-.15,3.63,0,5.41s-.14,3.62,0,5.41c1.79.12,3.62-.12,5.42,0,.22.76-.12,1.77,0,2.7.34,2.57-.23,5.47,0,8.11-1.78-.17-3.63.11-5.41,0l-2.71-2.7v-8.13c-.57-.6-2.82,1.63-4.11,1.66-1.68.04-.95-1.23-1.3-1.64,2.66-3.44,2.38-6.87,2.71-10.81.69.19,1.79,0,2.71,0s2.02.19,2.71,0Z"/>
      <polygon class="cls-23" points="143.46 162.29 143.46 165 143.34 170.35 135.34 167.7 135.34 165 143.46 162.29"/>
      <path class="cls-3" d="M129.93,156.89l-2.34,1.59-.37,3.81c-.89,0-1.83.09-2.71,0-.23-2.64.34-5.54,0-8.11l3.91.18c1.48.39,1.21,1.44,1.51,2.53Z"/>
      <path class="cls-15" d="M135.34,165v2.7l-2.71-5.41v-2.7c.9.04,1.81-.05,2.71,0v5.41Z"/>
      <path class="cls-23" d="M129.93,159.59v2.7h-2.71l.37-3.81,2.34-1.59c.23.83-.17,1.84,0,2.7Z"/>
      <rect class="cls-3" x="129.93" y="159.59" width="2.71" height="2.7"/>
      <path class="cls-14" d="M135.34,143.37l2.71,10.81c-2.56-.67-4.51-2.17-8.12-2.7-5.25-6.48,1.05-5.85,2.71-8.11h2.71Z"/>
      <path class="cls-18" d="M143.46,162.29l-8.12,2.7v-5.41c2.11.12,4.45-.48,6.53.22l1.59,2.48Z"/>
      <path class="cls-27" d="M108.27,156.89c.24.76-.18,1.79,0,2.7-3.01,3.14-2.71,6.88-8.12,5.41-.33-6.24,0-12.66,0-18.92.85.2,1.83-.15,2.71,0,1.36,3.74,4.22,7.04,5.41,10.81Z"/>
      <path class="cls-2" d="M110.98,151.48c.35.41-.39,1.68,1.3,1.64,1.29-.03,3.54-2.26,4.1-1.66v8.13s-8.11-2.7-8.11-2.7c-1.2-3.77-4.05-7.07-5.41-10.81l2.34-1.59.37-3.81c2.22,4.19,2.7,7.67,5.41,10.81Z"/>
      <path class="cls-4" d="M108.27,178.51c-2.57-7.65-7.78-7.19-8.12-13.52,5.42,1.47,5.11-2.27,8.12-5.41,1.44,7.32.72,11.4,0,18.92Z"/>
      <path class="cls-1" d="M105.57,140.67l-.37,3.81-2.34,1.59c-.87-.15-1.86.2-2.71,0v-10.81h2.71c1.04,1.36,1.8,3.7,2.71,5.41Z"/>
      <path class="cls-26" d="M89.33,140.67c.3-.05,2.12-3.81,5.41-2.7v5.4c-1.56.36-4.56-.53-5.41,0v-2.7Z"/>
      <path class="cls-15" d="M100.15,135.26v5.41c-3.49-.59-3.87-3.38-5.41-5.41h5.41Z"/>
      <path class="cls-13" d="M89.33,140.67v2.7c-.49.3-7.87,7.59-8.12,8.11h-2.71l-.37-3.81-2.34-1.59c.15-.97-.3-2.18,0-2.7.37-.65,5.39-2.14,5.41-5.41,2.37.6,7.7,2.78,8.12,2.7Z"/>
      <path class="cls-14" d="M75.79,135.26c1.83.51,3.71,2.27,5.41,2.7-.03,3.26-5.05,4.76-5.41,5.41l-5.41-8.11c1.43.46,3.87-.43,5.41,0Z"/>
      <path class="cls-6" d="M78.5,151.48l-2.7,2.7c.23-2.63-.4-5.6-.01-8.11l2.34,1.59.37,3.81Z"/>
      <path class="cls-4" d="M108.28,116.35v5.39s-10.83,0-10.83,0c.87-3.16,3.79-4.07,2.72-8.1l8.12,2.71Z"/>
      <path class="cls-2" d="M113.69,140.67c-1.03-.29-2.19.37-2.53-1.5-.54-3.1-.07-6.22-.17-9.31h2.71c-.2,3.58.3,7.25,0,10.81Z"/>
      <path class="cls-3" d="M102.86,135.26h-5.41v-5.41c2.04,2.01,2.96,2.2,5.41,5.41Z"/>
      <path class="cls-16" d="M121.81,102.83c-.19,1.73,0,3.64,0,5.41h-8.12c1.01-4.06,4.17-6.06,8.12-5.41Z"/>
      <path class="cls-3" d="M124.52,151.48c-1.79-.12-3.62.12-5.42,0-.13-1.79.16-3.63,0-5.41,2.86.78,4.6,2.57,5.41,5.41Z"/>
    </g>
  </g>
</svg>