<?xml version="1.0" encoding="UTF-8"?>
<svg id="Layer_2" data-name="Layer 2" xmlns="http://www.w3.org/2000/svg" viewBox="0 0 214.08 286.53">
  <defs>
    <style>
      .cls-1 {
        fill: #191a18;
      }

      .cls-2 {
        fill: #414141;
      }

      .cls-3 {
        fill: #87722b;
      }

      .cls-4 {
        fill: #f5f5f6;
      }

      .cls-5 {
        fill: #e5e9f1;
      }

      .cls-6 {
        fill: #dab924;
      }

      .cls-7 {
        fill: #3a3a3a;
      }

      .cls-8 {
        fill: #b7c4d9;
      }

      .cls-9 {
        fill: #fe1417;
      }

      .cls-10 {
        fill: #13140f;
      }

      .cls-11 {
        fill: #fff;
      }

      .cls-12 {
        fill: #c4a025;
      }

      .cls-13 {
        fill: #172680;
      }

      .cls-14 {
        fill: #b7a68b;
      }

      .cls-15 {
        fill: #c71618;
      }

      .cls-16 {
        fill: #802121;
      }

      .cls-17 {
        fill: #232322;
      }

      .cls-18 {
        fill: #0c0c0c;
      }

      .cls-19 {
        fill: #fe0c11;
      }

      .cls-20 {
        fill: #585858;
      }

      .cls-21 {
        fill: #f0f1f3;
      }

      .cls-22 {
        fill: #fe2327;
      }

      .cls-23 {
        fill: #95a4ca;
      }

      .cls-24 {
        fill: #ad912e;
      }

      .cls-25 {
        fill: #6874af;
      }
    </style>
  </defs>
  <g id="Layer_1-2" data-name="Layer 1">
    <g>
      <rect class="cls-11" x="4.08" y=".84" width="210" height="284"/>
      <path class="cls-18" d="M0,2.7L1.64.34l212.2-.34v286.53l-212.2-.34-1.64-2.36,2.71-2.7c4.57,3.37,9.6,2.6,14.85,2.75,61.15,1.72,122.66-1.14,183.81-.34,1.33-.41,4.36-3.1,4.36-3.76V6.76c0-.66-3.03-3.35-4.36-3.76-61.1,1.14-122.73-2.52-183.82-.35-5.32.19-10.1-.42-14.84,2.76L0,2.7Z"/>
      <polygon class="cls-2" points="2.71 5.41 2.71 281.12 0 283.82 0 2.7 2.71 5.41"/>
      <path class="cls-4" d="M2.71,281.12V5.41c4.74-3.18,9.52-2.57,14.84-2.76,61.09-2.17,122.71,1.49,183.82.35,1.33.41,4.36,3.1,4.36,3.76v273.01c0,.66-3.03,3.35-4.36,3.76-61.15-.79-122.66,2.07-183.81.34-5.25-.15-10.28.62-14.85-2.75ZM27.06,13.52h-10.82s2.7,29.72,2.7,29.72l-10.82-8.1,2.83,13.39c21.96,3.79,9.29-21.25,16.11-35.01ZM173.24,29.73H35.19v227.06h138.05V29.73ZM17.59,54.08l-9.26,14.46,9.26,12.53,9.18-14.41-9.18-12.58ZM192.17,205.43c-13.02,7.54-12.96,17.86-1.34,27.02l9.29-12.5-7.95-14.51ZM197.47,238c-18.2-2.67-15.3,12.68-16.25,25.42-.72,9.76-6.15,12.94,10.96,12.29l-2.7-32.43,10.82,8.1-2.83-13.38Z"/>
      <path class="cls-18" d="M173.24,29.73v227.06H35.19V29.73h138.05ZM37.9,72.98c.03,10.78-.05,21.65,0,32.44.01,2.14,1.57,4.61,1.59,6.79.01,2-1.59,3.44-1.59,4.02,0,7.48-2.16,19.39,2.71,24.33-.38.55.32,1.84,0,2.7-.86,2.31-2.17,1.98-2.71,8.11-.31,3.55.14,7.24,0,10.81-.07,1.8.05,3.61,0,5.41-.02.9.02,1.8,0,2.7-.05,2.7.03,5.41,0,8.11-.07,5.39-.06,10.83,0,16.22.05,4.5-.03,9.01,0,13.52.03,4.49-.2,9.04,0,13.52.08,1.8-.09,3.62,0,5.41,1.8.08,3.61-.08,5.42,0l-2.7,27.02c7.19.05,14.46-.04,21.65,0,1.8.01,3.61,0,5.41,0,5.4.02,10.84,0,16.24,0,6.3,0,12.65,0,18.95,0h21.65c.8.15,1.87.04,2.71,0,4.17-.22,5.11-2.66,5.41-2.7.51-.06,5.64,2.74,9.34,2.79,9.51.13,19.07-.26,28.56-.08v-41.9c0-1.32-15.01-10.65-5.41-20.27.74-.9-1.49-5.58,1.35-5.42l4.07,4.06-.02-12.15-4.05,5.41-1.35-5.42v-18.94s5.4,2.74,5.4,2.74c1.1-7.64-2.1-14.25-2.7-21.65,1.72.23,2.57-1.15,2.71-2.7.37-4.14.22-9.29,0-13.52-.09-1.78.27-3.79,0-5.41s-2.1-3.65-2.71-5.41c.54-1.02,2.2-.27,2.71-5.41s-.11-10.92,0-16.22c.17-8.2,3.64-34.43-5.41-32.44l2.7-27.02c-7.19-.05-14.46.04-21.65,0-1.8-.01-3.61,0-5.41,0-6.3-.03-12.65,0-18.95,0h-2.71c-5.4,0-10.84,0-16.24,0h-18.95c-.8-.15-1.87-.04-2.71,0-4.17.22-5.11,2.66-5.41,2.7-.51.06-5.65-2.74-9.34-2.79-9.51-.13-19.08.27-28.56.08.04,13.49-.03,27.06,0,40.55Z"/>
      <path class="cls-9" d="M197.47,238l2.83,13.38-10.82-8.1,2.7,32.43c-17.11.65-11.68-2.53-10.96-12.29.94-12.74-1.95-28.09,16.25-25.42Z"/>
      <path class="cls-19" d="M27.06,13.52c-6.82,13.76,5.85,38.8-16.11,35.01l-2.83-13.39,10.82,8.1-2.7-29.72h10.82Z"/>
      <polygon class="cls-19" points="17.59 54.08 26.78 66.66 17.59 81.07 8.34 68.54 17.59 54.08"/>
      <path class="cls-19" d="M192.17,205.43l7.95,14.51-9.29,12.5c-11.62-9.15-11.68-19.48,1.34-27.02Z"/>
      <path class="cls-4" d="M165.12,191.92c-9.59,9.63,5.41,18.96,5.41,20.27v41.9c-9.48-.18-19.04.22-28.56.08-3.7-.05-8.83-2.85-9.34-2.79-1.57-3.7-3.87-7.1-5.41-10.81-.75-1.81-2.19-3.64-2.71-5.41.8-.44,2.16,0,2.47-1.61.77-2.07,0-4.5.24-6.49.95-7.76,2.66-14.22,0-21.63l5.14,2.6c.55-9.66,9.93-8.08,16.51-10.7,1.86-.74,3.55-2.01,5.41-2.7s3.58-2.12,5.41-2.7c1.5-.48,4.96.55,5.41,0ZM159.69,248.69l7.89-14.46-9.23-15.27c-11.44,11.53-12.19,19.44,1.33,29.73Z"/>
      <path class="cls-4" d="M75.79,35.14c-.74,4.8,4.21,7.15,5.41,10.81.23.71-.12,1.76,0,2.7.22,1.7-.03,3.64,0,5.41s0,3.61,0,5.41c-.02,8.11-3.35,13.67,0,21.63l-5.33-2.73c-.47,1.72.38,4.11-.07,5.43-.06.18-2.53,2.64-2.71,2.7-2.82.98-6.5,1.05-10.83,2.7-2.47.94-5.21,1.55-8.12,2.7-2.61,1.03-4.91,2.94-8.12,2.7,0-.1-1.48-.39-1.57-1.31-.58-6.59,4.41-15.58-6.56-20.31-.04-13.49.03-27.06,0-40.55,9.49.19,19.05-.21,28.56-.08,3.7.05,8.84,2.85,9.34,2.79ZM51.42,67.57l8.3-14.85-10.98-14.88c.03,8.21-12.09,10.68-6.86,18.98l9.54,10.75Z"/>
      <path class="cls-21" d="M48.72,194.62c.29.07,3.31,1.84,5.41,2.7,1.17.48,3.5-.46,5.5,1.24,3.5,2.97.78,9.4,10.74,6.87-.18,3.4-3.1,8.01-2.87,14.93.22,6.44,2.78,11.41,2.87,17.5.01.9.2,2.04,0,2.7-1.19,4.03-7.2,8.44-8.12,13.52-7.19-.05-14.46.04-21.65,0l2.7-27.02c7.02.28,12.04.61,18.95,2.69-2.97-5.05-5.83-10.33-10.83-13.51-2.27-1.44-3.29-4.18-8.12-2.7.39-6.3,3.15-12.12,0-18.92,1.75.21,3.91-.36,5.41,0Z"/>
      <path class="cls-21" d="M146.17,32.44c7.19.05,14.46-.04,21.65,0l-2.7,27.02-18.96-1.34c1.93,7.99,10.48,12.28,16.44,16.61l2.52,17.17c-1.75-.21-3.91.36-5.41,0-1.18-.29-10.5-3.67-10.98-3.99-3.14-2.1-.76-9.65-10.67-6.82.18-3.42,3.1-8,2.87-14.93-.22-6.44-2.78-11.41-2.87-17.5-.01-.9-.2-2.04,0-2.7,1.19-4.03,7.2-8.44,8.12-13.52Z"/>
      <path class="cls-3" d="M73.09,86.5v5.41c-1.88.08-2.02,1.95-2.71,2.7-4.13,4.51-5.77,8.24-9.01,12.76-.61.85-3.1.59-3.85,1.4-1.6,1.72-.29,3.98-.67,4.76-.24.48-2.48,1.2-2.71,2.7-.12.81-.07,1.88,0,2.7-1.76-.29-2.73,1.13-2.71,2.7l-5.41-2.7-2.71,2.7-5.41-5.41c0-.58,1.6-2.02,1.59-4.02-.01-2.18-1.58-4.65-1.59-6.79l5.18-2.56,2.94,5.27c8.02-3.95,14.7-9.5,16.24-18.92,4.33-1.65,8.01-1.72,10.83-2.7Z"/>
      <path class="cls-15" d="M81.21,32.44c-.48,11.06,15.91,11.18,18.95,2.71-4.79.26-9.41.11-14.2-.55-1.16-.16-1.63-2.09-2.04-2.17h18.95c-.17,11.61,16.51,11.45,16.24,0h2.71c-.51,11.72,19.45,11.72,18.95,0,1.8,0,3.61-.01,5.41,0-.93,5.08-6.93,9.48-8.12,13.52-17.84-4.28-39-4.28-56.84,0-1.21-3.66-6.16-6.01-5.41-10.81.3-.04,1.25-2.49,5.41-2.7Z"/>
      <path class="cls-3" d="M167.82,135.15c-.04.89-.05,1.82,0,2.7s-.07,1.81,0,2.7c.59,7.4,3.8,14.01,2.7,21.65l-5.39-2.74v18.94c-.91.04-1.82-.05-2.72,0-3.41.2-8.66,2.91-10.83,5.41-1.78-.66-3.7-2.33-5.41-2.7-1.57-.34-3.68.23-5.41,0,1.73-2.63,1.65-4.19,5.41-5.41.82-.26,1.89.27,2.71,0,6.85-2.27,4.19-1.67,8.12-5.41.94-.89,1.88-1.26,2.71-2.7,2.11-3.67,2.27-2.2,2.71-8.11.57-7.78,0-16.39,0-24.33h5.41Z"/>
      <path class="cls-3" d="M165.12,59.47c9.06-1.99,5.59,24.24,5.41,32.44h-2.71c-.89-.08-1.82.11-2.71,0l-2.52-17.17c-5.96-4.33-14.51-8.61-16.44-16.61l18.96,1.34Z"/>
      <path class="cls-15" d="M127.22,240.57c1.54,3.71,3.84,7.11,5.41,10.81-.3.04-1.25,2.49-5.41,2.7.48-11.06-15.91-11.18-18.95-2.71,4.8-.26,9.41-.11,14.2.55,1.16.16,1.63,2.09,2.04,2.17h-18.95c-1.15-13.88-9.99-6.04-16.24-5.41s-20.81-9.92-21.65,5.41c-1.8,0-3.61.01-5.41,0,.93-5.08,6.93-9.48,8.12-13.52,18.32,4.83,38.4,3.46,56.84,0Z"/>
      <path class="cls-3" d="M43.31,194.62c3.15,6.8.39,12.62,0,18.92-.17,2.68.09,5.42.01,8.1h2.69s.35-4.99.35-4.99l5.07-.41c5,3.17,7.86,8.45,10.83,13.51-6.91-2.08-11.93-2.41-18.95-2.69-1.8-.07-3.62.09-5.42,0-.09-1.79.08-3.61,0-5.41l2.37-1.62c.76-3.38.76-6.89,0-10.27l-2.37-1.62c-.03-4.5.05-9.01,0-13.52h2.71c.89.08,1.82-.11,2.71,0Z"/>
      <path class="cls-24" d="M46.02,94.61c.06,2.7,0,5.41,0,8.11v5.41l-2.94-5.27-5.18,2.56c-.05-10.78.03-21.65,0-32.44,10.97,4.73,5.98,13.72,6.56,20.31.08.93,1.56,1.21,1.57,1.31Z"/>
      <path class="cls-3" d="M46.02,137.86v24.33c-.81.26-1.85-.19-2.71,0l-1.35-5.42-4.06,5.42c.14-3.58-.31-7.26,0-10.81l2.33-1.74.38-6.37c.32-.86-.38-2.15,0-2.7.55-.79.08-3,2.71-2.7h2.71Z"/>
      <path class="cls-24" d="M89.33,248.68v2.7c-1.29.06-2.57-.08-3.81.38l-1.6,2.32c-5.4,0-10.84.02-16.24,0,.84-15.32,15.16-4.75,21.65-5.41Z"/>
      <path class="cls-22" d="M140.76,32.44c.51,11.72-19.45,11.72-18.95,0,6.3,0,12.65-.03,18.95,0Z"/>
      <path class="cls-14" d="M119.1,32.44c.27,11.45-16.41,11.61-16.24,0,5.4,0,10.84,0,16.24,0Z"/>
      <path class="cls-7" d="M43.31,121.64v16.22c-2.63-.3-2.16,1.92-2.71,2.7-4.87-4.94-2.7-16.85-2.71-24.33l5.41,5.41Z"/>
      <path class="cls-14" d="M83.91,32.44c.42.08.88,2.01,2.04,2.17,4.79.66,9.4.81,14.2.55-3.04,8.46-19.43,8.34-18.95-2.71.83-.04,1.91-.15,2.71,0Z"/>
      <path class="cls-14" d="M127.22,254.09c-.83.04-1.91.15-2.71,0-.42-.08-.88-2.01-2.04-2.17-4.79-.66-9.4-.81-14.2-.55,3.04-8.46,19.43-8.34,18.95,2.71Z"/>
      <path class="cls-2" d="M170.53,124.34l-2.32,1.75c-.91,2.99-.26,6.05-.39,9.06h-5.41v-10.81c1.04-1.35,1.26-1.65,2.71-2.7,1.53-1.12,3.74-1.7,5.41-2.7.27,1.62-.09,3.62,0,5.41Z"/>
      <path class="cls-24" d="M165.12,178.4l1.35,5.42,4.05-5.41.02,12.15-4.07-4.06c-2.85-.16-.61,4.52-1.35,5.42-.45.55-3.91-.48-5.41,0,1.82-2.47,2.25-5.16,2.71-8.11.26-1.69-.18-3.65,0-5.41.9-.05,1.81.04,2.71,0Z"/>
      <path class="cls-8" d="M170.53,108.12c-1.75-.22-3.81.32-5.41,0,.37-1.31-.05-3.68,0-5.41s-.04-3.61,0-5.41c.73-.35,1.83-4.14,2.71-5.41h2.71c-.11,5.3.51,11.1,0,16.22Z"/>
      <path class="cls-14" d="M105.57,254.09h-2.71l-1.7-2.32c-3.91-.71-7.91-.58-11.84-.38v-2.7c6.25-.63,15.09-8.47,16.24,5.41Z"/>
      <path class="cls-5" d="M43.31,186.51c0,1.49-3.23,5.41-2.71,8.11h-2.71c-.06-5.39-.07-10.83,0-16.22h2.71c-.53,2.7,2.71,6.62,2.71,8.11Z"/>
      <path class="cls-2" d="M170.53,108.12c-.51,5.14-2.16,4.39-2.71,5.41-.17.31-2.11.7-2.71,2.7h-5.41c1.16-3.02,4.62-5.26,5.41-8.11,1.6.32,3.67-.22,5.41,0Z"/>
      <path class="cls-15" d="M89.33,251.39c3.92-.19,7.93-.32,11.84.38l1.7,2.32c-6.3,0-12.65,0-18.95,0l1.6-2.32c1.24-.46,2.53-.32,3.81-.38Z"/>
      <path class="cls-7" d="M43.31,173h2.71c-1.02,1.74-1.83,3.6-2.71,5.41-.8-.26-1.86.2-2.71,0h-2.71c.03-2.7-.05-5.41,0-8.11l5.41,2.7Z"/>
      <path class="cls-7" d="M43.31,162.19v2.7l-5.41,2.7c.05-1.8-.07-3.61,0-5.41l4.06-5.42,1.35,5.42Z"/>
      <path class="cls-12" d="M37.9,221.65c-.2-4.48.03-9.03,0-13.52l2.37,1.62c.76,3.38.76,6.89,0,10.27l-2.37,1.62Z"/>
      <path class="cls-24" d="M170.53,137.86h-2.71c-.05-.89-.04-1.81,0-2.7.12-3-.52-6.07.39-9.06l2.32-1.75c.22,4.23.37,9.37,0,13.52Z"/>
      <path class="cls-24" d="M43.31,173l-5.41-2.7c.02-.9-.02-1.8,0-2.7l5.41-2.7v8.11Z"/>
      <path class="cls-24" d="M170.53,118.94c-1.68,1.01-3.88,1.59-5.41,2.7.28-1.7-.42-3.98,0-5.41.59-2,2.54-2.39,2.71-2.7.61,1.75,2.43,3.79,2.71,5.41Z"/>
      <path class="cls-7" d="M37.9,151.37c.53-6.13,1.84-5.8,2.71-8.11l-.38,6.37-2.33,1.74Z"/>
      <path class="cls-2" d="M167.82,140.56c-.07-.89.05-1.8,0-2.7h2.71c-.14,1.55-.99,2.93-2.71,2.7Z"/>
      <path class="cls-3" d="M119.1,170.29v8.11c-.76.37-2.25,3.79-5.41,2.73v2.67c4.01,1.44,9.94,3.55,13.53,5.42,1.15.6,2.29,3.65,5.43,2.73l-2.72,8.07h5.39c.14-2.9,1.21-5.66,2.73-8.1,1.64-2.63,5.13-6.81,8.12-8.11l2.71,5.41c-1.4,3.18-2.6,4.84,0,8.11-6.58,2.62-15.95,1.04-16.51,10.7l-5.14-2.6c2.66,7.41.94,13.87,0,21.63h-5.43c2.9-3.79.35-5.65.01-8.11-.78-5.71-1.29-8.07-2.71-13.52-.41-1.58.46-4.01,0-5.41l5.41-5.4c-2.69-.07-5.42.05-8.12-.01-.71-.84-.65-2.29-2.71-2.7.71-3.06-1.75-3.96-2.71-5.41-1.07-1.61-2.54-3.57-2.71-5.41-.81-4.79,4.32-7.19,5.41-10.81h5.41Z"/>
      <path class="cls-9" d="M159.69,248.69c-13.53-10.29-12.77-18.2-1.33-29.73l9.23,15.27-7.89,14.46Z"/>
      <path class="cls-1" d="M124.52,235.17c.52,1.76,1.95,3.59,2.71,5.41-18.45,3.46-38.52,4.83-56.84,0,.2-.66.01-1.8,0-2.7h10.83c4.5,0,9.03.1,13.53,0,8.61-.2,22.41,1.36,29.78-2.7Z"/>
      <path class="cls-25" d="M121.81,218.95c.34,2.46,2.89,4.32-.01,8.1h5.43c-.24,2.01.53,4.43-.24,6.5-.3,1.61-1.66,1.17-2.47,1.61-.4-1.35.5-3.61-.06-5.3l-13.49-.12v-10.8s10.84,0,10.84,0Z"/>
      <path class="cls-13" d="M162.41,178.4c-.18,1.75.26,3.71,0,5.41-4.81,1.47-6.18,6.72-8.12,10.81-1.86.69-3.56,1.96-5.41,2.7-2.6-3.27-1.4-4.93,0-8.11.36-.81,2.51-5.18,2.71-5.41,2.17-2.5,7.42-5.21,10.83-5.41Z"/>
      <path class="cls-15" d="M159.7,191.92c-1.83.58-3.58,2.02-5.41,2.7,1.94-4.09,3.31-9.34,8.12-10.81-.46,2.95-.89,5.64-2.71,8.11Z"/>
      <path class="cls-5" d="M113.69,48.66v2.7c.22,1.74-.33,3.82,0,5.41-5.57-.37-10.13-.9-13.51,4.05l8.08,6.76,5.43-8.12c.03.24,2.42,1.13,2.71,3.96.47,4.59.96,17.32-1.24,20.48-.39.56-10.54,7.46-11.39,7.72-5.41,1.64-7.78-3.21-11.73-5.13l16.23-8.1-7.78-2.37-1.93,5.2-11.94-.14c.27-6.73-1.53-8.5-2.71-13.52l12.72-4.05.83-6.75-16.25-2.71c-.03-1.77.22-3.71,0-5.41,4.89,4.4,9.35.15,14.79-.09,5.87-.26,11.82.2,17.69.09Z"/>
      <path class="cls-3" d="M94.74,105.42c.78.75,1.18,2.38,2.71,2.7-.16.87.22,1.87,0,2.7-.45,1.76-2.01,3.61-2.71,5.41h-10.83c1.48-7.64-1.9-9.68,10.83-10.81Z"/>
      <path class="cls-3" d="M83.91,67.58c1.18,5.01,2.98,6.79,2.71,13.52-.07,1.74.36,4.06,0,5.41-.09.33-4.01.94-2.7,5.4,14.4,3.78,26.22,3.31,40.6,0,.86-.2,1.85.19,2.71,0v2.7c-7.2,7.61-15.94,3.68-24.36,8.11v-5.4c-5.69-.71-6.12-.28-5.41,5.4h5.41c-.35,2.55.54,5.88,0,8.11h-2.71l-.17-3.9c-.35-1.61-1.42-1.21-2.54-1.51-.7-.18-1.92-.07-2.71,0-5.65-5.41-10.54-9.63-18.95-8.11-.02-1.8,0-3.6,0-5.41,0-2.7,0-5.41,0-8.11.45-1.32-.4-3.71.07-5.43l5.33,2.73c-3.34-7.96-.01-13.52,0-21.63l2.3,1.75c.98,2.01,0,4.65.41,6.36Z"/>
      <path class="cls-9" d="M51.42,67.57l-9.54-10.75c-5.23-8.31,6.89-10.77,6.86-18.98l10.98,14.88-8.3,14.85Z"/>
      <path class="cls-1" d="M138.05,45.95c-.2.66-.01,1.8,0,2.7h-10.83c-4.5,0-9.03-.08-13.53,0-5.87.1-11.82-.35-17.69-.09-5.44.24-9.9,4.49-14.79.09-.12-.94.23-1.99,0-2.7,17.84-4.28,39-4.28,56.84,0Z"/>
      <path class="cls-25" d="M81.21,54.06l16.25,2.71-.83,6.75-12.72,4.05c-.4-1.71.57-4.35-.41-6.36l-2.3-1.75c0-1.8.03-3.61,0-5.41Z"/>
      <path class="cls-13" d="M62.26,89.2c-1.54,9.42-8.22,14.97-16.24,18.92v-5.41l5.1-.23,3.02-10.58c2.91-1.15,5.65-1.76,8.12-2.7Z"/>
      <path class="cls-15" d="M54.14,91.9l-3.02,10.58-5.1.23c0-2.7.06-5.41,0-8.11,3.21.24,5.51-1.67,8.12-2.7Z"/>
      <path class="cls-25" d="M75.79,91.9h-2.71v-5.41c.18-.06,2.64-2.52,2.71-2.7,0,2.7,0,5.41,0,8.11Z"/>
      <path class="cls-24" d="M83.91,200.03c.9-.04,1.82.09,2.71,0,.44,1.55,2.67,2.46,2.71,2.7,1.02,7.49-.7,16.56,0,24.33-.15-.38-1.95-.65-2.22-1.94l-3.19-16.98-.02,18.91-10.81-4.03,5.38,2.68,2.73,12.18h-10.83c-.1-6.09-2.66-11.06-2.87-17.5-.23-6.93,2.69-11.54,2.87-14.93.07-1.35-2.13-3.74-2.71-5.41,5.39-.16,10.85.24,16.24,0Z"/>
      <path class="cls-13" d="M67.67,151.37c.03.88.07,1.83,0,2.7s.1,1.81,0,2.7c-.27,2.54-2.32,15.22-2.71,16.22-.32.82-8.35,9.38-10.83,13.52-1.64,2.74-2,6.58-5.41,8.11-1.51-.36-3.66.21-5.41,0-.89-.11-1.81.08-2.71,0-.53-2.7,2.71-6.62,2.71-8.11h2.71c8.47-6.81,15.93-20.9,18.38-31.71.95-4.2.02-8.11.57-11.54l2.33,1.75c.77,2.08.31,4.24.38,6.36Z"/>
      <path class="cls-25" d="M70.38,178.4c.35,1.52.46,3.83-.54,5.03l-5,2c.28,2.98-.29,6.34.13,9.2-4.46-.09-6.89-.53-10.82-2.7v5.41c-2.11-.86-5.13-2.63-5.42-2.7,3.42-1.53,3.77-5.37,5.41-8.11,6.59,1.62,7.14-5.3,8.14-10.82l8.1,2.72Z"/>
      <path class="cls-20" d="M64.96,194.62c.69,4.66,2.53,4.9,2.71,5.41.58,1.67,2.78,4.06,2.71,5.41-9.96,2.53-7.24-3.89-10.74-6.87-2-1.7-4.33-.76-5.5-1.24v-5.41c3.93,2.17,6.37,2.61,10.83,2.7Z"/>
      <path class="cls-12" d="M51.43,216.25l-5.07.41-.35,4.99h-2.69c.08-2.68-.18-5.43-.01-8.11,4.83-1.47,5.85,1.26,8.12,2.7Z"/>
      <path class="cls-24" d="M138.05,48.66c.1,6.09,2.66,11.06,2.87,17.5.23,6.93-2.69,11.52-2.87,14.93-.06,1.04,1.89,4.06,2.71,5.41h-16.24c-9.46,2.15-4.74-16.49-5.41-24.33l4.06,16.23,1.36-18.94,5.4,2.71c-.2,3.25,2.46,3,5.41,2.7l-2.7-5.4c.95-2.6,1.2-5.61,2.73-8.1l-8.15-2.71h10.83Z"/>
      <path class="cls-24" d="M129.93,62.17l2.71-2.7c-.57,1.55-.47,2.36-2.71,2.7Z"/>
      <path class="cls-20" d="M138.05,81.09c9.92-2.83,7.53,4.72,10.67,6.82.49.32,9.8,3.71,10.98,3.99-4.16,5.05-6.07,11.6-10.83,16.22l-10.8-5.41-2.64,6.96c-2.12,2.07-3.99-1.37-5.51-1.55,5.6-5.09,5.9-17.01,13.46-16.3,1.65-5.02-2.19-4.59-2.63-5.32-.82-1.34-2.76-4.36-2.71-5.41Z"/>
      <path class="cls-13" d="M165.12,91.9c.89.11,1.81-.08,2.71,0-.88,1.26-1.98,5.05-2.71,5.41-.79.38-3.22-.87-4.8.52-1.95,1.72-10.66,15.93-12,19.19-3.54,8.59-4.66,17.1-4.86,26.24-2.45-1.24-2.51-2.98-2.71-5.41-.22-2.67.21-5.43,0-8.11-.14-1.78.19-3.64,0-5.41l2.36-1.61c.49-1.24.31-2.51.35-3.8.03-.87.17-1.96,0-2.7l2.34-1.59.37-3.81c2.23-.83,2.04-2.06,2.71-2.7,4.76-4.61,6.67-11.17,10.83-16.22,1.5.36,3.66-.21,5.41,0Z"/>
      <path class="cls-15" d="M54.14,116.23l5.11.22c2.11,8.01,6.72,15.52,5.71,24.1-.11.89.14,1.83,0,2.7-.56,3.43.37,7.34-.57,11.54-2.44,10.82-9.91,24.91-18.38,31.71-.26-1.71.39-3.91,0-5.41,9.98-12.32,15.57-28.61,13.42-44.49-.82-6.07-4.75-11.46-5.29-17.68-.07-.83-.12-1.89,0-2.7Z"/>
      <path class="cls-6" d="M46.02,181.11c-.65-2.49-.61-2.01-2.71-2.7.88-1.81,1.69-3.67,2.71-5.41,8.02-13.66,9.13-20.51,8.22-36.58-.29-5.11-2.73-9.15-2.8-14.78-.02-1.58.95-2.99,2.71-2.7.54,6.22,4.47,11.6,5.29,17.68,2.16,15.89-3.44,32.17-13.42,44.49Z"/>
      <path class="cls-20" d="M75.79,91.9c0,1.8-.02,3.6,0,5.41.09,9.98-.94,26.31,0,35.14.16,1.48,2.32,3.69,2.71,5.41-3.16-1.22-6.9-.14-8.12-5.41v-37.84c.69-.76.82-2.63,2.71-2.7h2.71Z"/>
      <path class="cls-10" d="M51.43,121.64c.07,5.63,2.51,9.67,2.8,14.78.91,16.07-.19,22.92-8.22,36.58h-2.71v-10.81c.85-.19,1.9.26,2.71,0,6.67-2.14,7.73-29.97,0-35.14v-8.11l5.41,2.7Z"/>
      <path class="cls-13" d="M62.26,113.53c2.17,1.16,5.37,15.07,5.41,18.92.06,5.92-2.65,7.66-2.71,8.11,1-8.58-3.61-16.09-5.71-24.1l-5.11-.22c.23-1.51,2.47-2.22,2.71-2.7,1.59.36,4.44-.52,5.41,0Z"/>
      <path class="cls-25" d="M70.38,102.72l-8.12,10.81c-.98-.52-3.82.36-5.41,0,.38-.78-.93-3.04.67-4.76.75-.8,3.24-.55,3.85-1.4,3.24-4.52,4.88-8.25,9.01-12.76v8.11Z"/>
      <polygon class="cls-14" points="46.02 127.04 46.02 137.86 43.31 137.86 43.31 121.64 46.02 118.94 46.02 127.04"/>
      <path class="cls-6" d="M165.12,108.12c-.8,2.85-4.26,5.09-5.41,8.11-6.66,17.39-8.85,34.12,0,51.36-.83,1.44-1.77,1.81-2.71,2.7h-2.71c1.25-6.86-4.43-11.5-5.37-17.61-2.51-16.33,2.98-34.63,13.49-47.26-.16,1.83,1.09,2.38,2.71,2.7Z"/>
      <path class="cls-1" d="M165.12,116.23c-.42,1.42.28,3.71,0,5.41-1.44,1.05-1.66,1.35-2.71,2.7-7.49,9.7-7.85,25.5,0,35.14-.43,5.91-.59,4.44-2.71,8.11-8.85-17.24-6.66-33.97,0-51.36h5.41Z"/>
      <path class="cls-16" d="M162.41,135.15c0,7.94.57,16.55,0,24.33-7.85-9.64-7.49-25.44,0-35.14v10.81Z"/>
      <path class="cls-13" d="M151.58,170.29c-.81.57-1.69,4.13-2.71,5.41-.81.27-1.89-.26-2.71,0-3.05-6.16-4.97-11.96-5.41-18.92-.19-3.02-.3-6.07.39-9.06l2.32-1.76c.49,8.31,1.51,18.75,8.12,24.33Z"/>
      <path class="cls-19" d="M146.17,175.7c-3.77,1.22-3.69,2.77-5.41,5.41-.75,1.15-1.08,2.45-2.71,2.7,0-8.63.85-18.74,0-27.03h2.71c.45,6.96,2.37,12.77,5.41,18.92Z"/>
      <path class="cls-14" d="M146.17,181.11v2.7c-2.99,1.3-6.48,5.47-8.12,8.11v-8.11c1.62-.25,1.96-1.56,2.71-2.7,1.74.23,3.84-.34,5.41,0Z"/>
      <path class="cls-12" d="M151.58,183.81c-.2.23-2.35,4.6-2.71,5.41l-2.71-5.41v-2.7c1.71.37,3.63,2.04,5.41,2.7Z"/>
      <path class="cls-12" d="M157,170.29c-3.93,3.74-1.27,3.13-8.12,5.41,1.02-1.28,1.89-4.83,2.71-5.41.5-.35,1.8.23,2.71,0h2.71Z"/>
      <path class="cls-16" d="M46.02,162.19v-35.14c7.73,5.17,6.67,33,0,35.14Z"/>
      <path class="cls-15" d="M165.12,97.31c-.04,1.8.05,3.61,0,5.41-1.63.28-1.94,1.78-2.71,2.7-10.51,12.63-16,30.93-13.49,47.26.94,6.11,6.62,10.75,5.37,17.61-.9.23-2.21-.35-2.71,0-6.61-5.58-7.63-16.01-8.12-24.33-.05-.89-.02-1.81,0-2.7.19-9.13,1.32-17.65,4.86-26.24,1.35-3.27,10.05-17.47,12-19.19,1.57-1.39,4.01-.14,4.8-.52Z"/>
      <path class="cls-3" d="M165.12,108.12c-1.62-.33-2.87-.88-2.71-2.7.77-.92,1.07-2.42,2.71-2.7-.05,1.72.37,4.1,0,5.41Z"/>
      <path class="cls-20" d="M46.02,181.11c.39,1.49-.26,3.69,0,5.41h-2.71c0-1.49-3.23-5.41-2.71-8.11.85.2,1.91-.26,2.71,0,2.1.69,2.06.21,2.71,2.7Z"/>
      <path class="cls-5" d="M110.98,194.62l4.05,8.11c-4,.18-14.22.08-14.87,5.4l7.99,2.62,2.82-5.31,1.36,8.11,6.77-8.12c1.41,5.45,1.92,7.8,2.71,13.52h-10.84s0,10.81,0,10.81l13.49.12c.56,1.69-.34,3.94.06,5.3-7.36,4.07-21.16,2.5-29.78,2.7-3.3-3.47-3.89-6.84-5.41-10.81-.7-7.77,1.02-16.84,0-24.33l9.45-2.73,1.38-2.67c2.95-.45,5.84-2.22,10.83-2.7ZM94.74,229.75c5.76.26,10.11,1.1,13.51-4.04l-8.08-6.76-5.43,10.81Z"/>
      <path class="cls-2" d="M138.05,156.78c.85,8.29,0,18.41,0,27.03v8.11c-1.52,2.44-2.59,5.2-2.73,8.11h-5.39s2.72-8.08,2.72-8.08c-3.14.92-4.28-2.14-5.43-2.73h2.71l2.69-1.37-2.69-1.33v-8.11l2.3-2.06c1.23-3.4,1.06-6.92-2.3-8.75.12-1.78-.17-3.63,0-5.41.04-.45,3.47-2.13,2.71-8.11-.19-1.51-2.21-3.65-2.71-5.41l5.4-2.7c.16,3.83,2.32,6.9,2.72,10.81Z"/>
      <path class="cls-15" d="M129.93,148.67c.5,1.75,2.51,3.89,2.71,5.41-5.28.97-4.29,4.84-5.41,8.11-.97,2.84-1.87,4.91-2.71,8.11h-10.83c.43-1.41-.29-3.71,0-5.41,3.19-4.16,3.74-6.15,5.41-10.81.89-2.49,1.97-5.61,2.71-8.11,3.11.12,5.48-1.45,8.12-2.7.28,1.7-.41,3.97,0,5.41Z"/>
      <path class="cls-21" d="M129.93,167.59c-.23,3.56,0,7.24,0,10.81v10.81h-2.71c-3.59-1.86-9.52-3.98-13.53-5.42v-2.67c3.15,1.06,4.64-2.35,5.41-2.73s1.98.35,2.71,0c1.17-.57,2.79-.11,2.71-2.7.26-1.72-.39-3.92,0-5.41.84-3.2,1.73-5.27,2.71-8.11h2.71c-.17,1.77.12,3.62,0,5.41Z"/>
      <path class="cls-25" d="M116.39,194.62c.78.92,2.27,4.07,2.71,5.41s-.41,3.83,0,5.41l-6.77,8.12-1.36-8.11-2.82,5.31-7.99-2.62c.65-5.32,10.87-5.21,14.87-5.4l-4.05-8.11c1.73-.17,3.65-.04,5.41,0Z"/>
      <path class="cls-14" d="M102.86,191.92c3.55-.33,7.25.22,10.83,0,2.05.41,2,1.87,2.71,2.7-1.76-.04-3.68-.17-5.41,0-4.99.48-7.88,2.25-10.83,2.7l-1.38-2.69h-4.03c1.57-.39,2.46-2.19,8.12-2.71Z"/>
      <path class="cls-20" d="M113.69,170.29c-1.1,3.63-6.22,6.02-5.41,10.81h-2.71c-.52-2.98-1.42-5.22-2.62-7.91,5.18-.17,7.87-4.57,10.74-8.31-.29,1.69.43,4,0,5.41Z"/>
      <path class="cls-2" d="M105.57,181.11c.44,2.5-.27,5.48,0,8.1h4.04s1.36-2.7,1.36-2.7c.96,1.44,3.42,2.35,2.71,5.41-3.57.22-7.27-.33-10.83,0,.36-2.54-.53-5.83,0-8.11.19-.83,1.84-2.45,2.71-2.7Z"/>
      <path class="cls-6" d="M110.98,186.51l-1.36,2.69h-4.04c-.28-2.62.43-5.6,0-8.1h2.71c.17,1.84,1.64,3.8,2.71,5.41Z"/>
      <path class="cls-17" d="M124.52,170.29c-.39,1.49.26,3.69,0,5.41l-2.71,2.7c-.73.35-1.98-.36-2.71,0v-8.11h5.41Z"/>
      <path class="cls-5" d="M116.39,194.62c2.7.06,5.43-.06,8.12.01l-5.41,5.4c-.44-1.34-1.93-4.48-2.71-5.41Z"/>
      <path class="cls-6" d="M89.33,227.06c1.53,3.97,2.12,7.35,5.41,10.81-4.5.1-9.03,0-13.53,0l-2.73-12.18-5.38-2.68,10.81,4.03.02-18.91,3.19,16.98c.26,1.29,2.07,1.56,2.22,1.94Z"/>
      <path class="cls-8" d="M119.1,62.17c.67,7.84-4.05,26.47,5.41,24.33v5.41c-14.38,3.31-26.2,3.78-40.6,0-1.31-4.46,2.61-5.07,2.7-5.4h5.41c3.95,1.92,6.32,6.77,11.73,5.13.85-.26,11-7.15,11.39-7.72,2.21-3.17,1.71-15.89,1.24-20.48-.29-2.83-2.68-3.72-2.71-3.96-.13-.9.17-1.87,0-2.7-.33-1.59.22-3.67,0-5.41,6.1,1.54,5,5.95,5.41,10.81Z"/>
      <path class="cls-6" d="M127.22,48.66l8.15,2.71c-1.53,2.49-1.78,5.5-2.73,8.1l-2.71,2.7-5.4-2.71-1.36,18.94-4.06-16.23c-.42-4.86.68-9.27-5.41-10.81v-2.7c4.5-.08,9.03,0,13.53,0Z"/>
      <path class="cls-6" d="M132.64,59.47l2.7,5.4c-2.95.3-5.61.55-5.41-2.7,2.23-.34,2.14-1.15,2.71-2.7Z"/>
      <path class="cls-25" d="M86.62,81.09l11.94.14,1.93-5.2,7.78,2.37-16.23,8.1h-5.41c.36-1.35-.07-3.67,0-5.41Z"/>
      <path class="cls-25" d="M113.69,56.76c.17.84-.13,1.8,0,2.7l-5.43,8.12-8.08-6.76c3.39-4.95,7.94-4.42,13.51-4.05Z"/>
      <path class="cls-17" d="M140.76,86.5c.44.73,4.28.3,2.63,5.32-7.57-.71-7.86,11.22-13.46,16.3-2.11-.25-3.6.15-5.39,1.27-10.14,6.28-3.99,6.31,2.69,9.54h-5.42c-.14.9.12,1.83,0,2.7,2.7.1,5.42-.07,8.12,0,.67.42,3.66-.93,5,.42,1.28,1.3,0,4.08.41,4.98v8.1s-2.7,0-2.7,0l-.02-10.8h-2.69c-.16,1.76.21,3.67-.01,5.4h-2.71l-1.6-2.47c-1.26-.36-2.53-.36-3.82-.23.16-1.77-.23-3.68,0-5.41-1.8-.07-3.61,0-5.41,0-.15,0-.38-3.09-2.61-1.53-3.15,2.2-6.38,6.74-9.55,9.66-5.47,5.04-6.33,1.43-9.5,10.79-1.88.96-5.96.58-8.12,2.7.41-.63-.42-2.09,0-2.7,1.74-2.57,3.56-5.75,5.41-8.11,4.53-5.76,30.36-33.18,35.19-35.14,1.37-.56,5.28,1.4,5.44-1.34l-.03-6.76c-4.79-1.41-5.07,2.62-5.41,2.7-.86.19-1.85-.2-2.71,0v-5.41h16.24Z"/>
      <path class="cls-8" d="M127.22,97.31c-4.83,1.96-30.66,29.38-35.19,35.14-4.85-2.23,2.64-12.06,5.41-16.22.67-1,4.41-1.27,5.41-5.41.54-2.23-.35-5.56,0-8.11,8.42-4.43,17.16-.5,24.36-8.11v2.7Z"/>
      <path class="cls-5" d="M94.74,105.42c-12.73,1.13-9.34,3.17-10.83,10.81-.17.9.22,1.91,0,2.7-.63,2.25-5.34,8.07-5.72,11.9l-2.4,1.62c-.94-8.83.09-25.16,0-35.14,8.41-1.52,13.3,2.7,18.95,8.11Z"/>
      <path class="cls-5" d="M97.45,108.12c-1.53-.32-1.93-1.95-2.71-2.7.78-.07,2.01-.18,2.71,0v2.7Z"/>
      <path class="cls-16" d="M127.22,91.9c.34-.08.62-4.1,5.41-2.7l.03,6.76c-.16,2.75-4.06.79-5.44,1.34v-5.41Z"/>
      <path class="cls-17" d="M102.86,110.83c-1.01,4.14-4.75,4.41-5.41,5.41h-2.71c.7-1.8,2.25-3.65,2.71-5.41h5.41Z"/>
      <path class="cls-6" d="M102.86,102.72h-5.41c-.71-5.68-.28-6.12,5.41-5.4v5.4Z"/>
      <path class="cls-6" d="M100.15,110.83h-2.71c.22-.84-.16-1.83,0-2.7v-2.7c1.12.29,2.19-.1,2.54,1.51l.17,3.9Z"/>
      <path class="cls-17" d="M121.81,143.26c-.27.78.25,1.85,0,2.7-.74,2.5-1.82,5.62-2.71,8.11l-29.78,27.03c-2.1,2.25-5.43,7.04-8.12,8.11-3.59,1.42-6.82-3.26-5.4,6.75l2.7,1.36,5.4-2.71v5.41c-5.38.24-10.84-.16-16.23,0-.18-.51-2.01-.75-2.71-5.41,1.8.04,3.62,0,5.41,0l-2.72-8.1c9.44,2.32,7.2-3.34,10.86-6.65,9.13-8.26,24.58-18.59,32.57-27.04,2.35-2.48,3.9-6.43,5.31-9.57,1.61-.32,3.67.21,5.41,0Z"/>
      <path class="cls-3" d="M89.33,181.11v5.41c4.38-2.26,8.53-3.48,13.53-2.7-.53,2.28.36,5.57,0,8.11-5.66.53-6.55,2.32-8.12,2.7-2.24.54-5.58-.41-8.13,0,.22,1.73-.38,4.01.01,5.4-.89.09-1.81-.04-2.71,0v-5.41s-5.41,2.71-5.41,2.71l2.71-8.11c2.69-1.06,6.02-5.86,8.12-8.11Z"/>
      <path class="cls-25" d="M100.15,197.33l-1.38,2.67-9.45,2.73c-.03-.24-2.27-1.15-2.71-2.7,5.19-.51,8.91-2,13.53-2.7Z"/>
      <path class="cls-3" d="M116.39,143.26c-1.41,3.14-2.97,7.09-5.31,9.57-7.99,8.45-23.44,18.78-32.57,27.04-3.66,3.31-1.42,8.96-10.86,6.65l2.72,8.1c-1.79,0-3.61.04-5.41,0-.42-2.85.15-6.22-.13-9.2l5-2c1-1.19.89-3.51.54-5.03-.68-2.93-2.62-4.58-5.41-5.41.38-1,2.43-13.68,2.71-16.22l8.11,5.42.02-5.42h2.69s.09,8.06.09,8.06c2.65.13,5.39.22,8.04.05,8.49-.53,3.9-2.61,8.01-6.87,1.99-2.06,4.15-2.71,5.52-3.94,4.99-4.47,9.88-9.56,16.24-10.81ZM86.61,167.6h-8.11v2.68h8.11v-2.68Z"/>
      <path class="cls-17" d="M78.5,137.86c.35,1.56-.24,3.67,0,5.41-3.86,2.61-6.83,5.84-10.83,8.11-.07-2.12.39-4.28-.38-6.36l-2.33-1.75c.14-.87-.11-1.82,0-2.7.06-.45,2.77-2.19,2.71-8.11h2.71c1.22,5.27,4.96,4.19,8.12,5.41Z"/>
      <path class="cls-3" d="M83.91,159.48c-1.77-.18-1.98-1.86-2.71-2.7h2.71c.18.87-.18,1.84,0,2.7Z"/>
      <path class="cls-3" d="M83.91,151.37c3.83-.63,6.96-2.69,10.82-2.7v5.38s-10.82,2.72-10.82,2.72c-.33-1.62.27-3.7,0-5.41Z"/>
      <path class="cls-3" d="M86.62,140.56c-.42.62.41,2.07,0,2.7-1.63,2.47-4.83,2.57-5.17,3.03-.77,1.06,2.23,3.64,2.46,5.08-1.7.28-3.72-.28-5.41,0-3.72.62-7.11,2.12-10.83,2.7.07-.87.03-1.82,0-2.7,4-2.27,6.97-5.5,10.83-8.11,1.35-.92,2.53-2.63,2.71-2.7,1.18-.5,3.77.33,5.41,0Z"/>
      <path class="cls-17" d="M78.5,151.37l.39,3.68c.38,1.18,1.83,1.16,2.31,1.73.73.84.94,2.52,2.71,2.7.34,1.68,2.07,3.63,2.71,5.41-2.65.16-5.39.07-8.04-.05l-.09-8.05h-2.69s-.02,5.41-.02,5.41l-8.11-5.42c.1-.89-.08-1.81,0-2.7,3.71-.58,7.11-2.09,10.83-2.7Z"/>
      <path class="cls-20" d="M70.38,178.4l-8.1-2.72c-.99,5.52-1.55,12.44-8.14,10.82,2.48-4.13,10.51-12.7,10.83-13.52,2.79.82,4.73,2.47,5.41,5.41Z"/>
      <path class="cls-14" d="M148.88,108.12c-.67.65-.48,1.88-2.71,2.7-1.26.47-3.73-.32-5.42.01-.95.74,2.3,3.59,2.71,5.4.17.74.03,1.83,0,2.7l-4.96,4.08c-.04.85,2.24,1.19,2.26,1.32.19,1.77-.14,3.63,0,5.41-1.26-.87-5.09-2.01-5.41-2.7-.41-.9.87-3.69-.41-4.98-1.34-1.35-4.33,0-5-.42s-1.28-2.01-2.71-2.7c-6.68-3.23-12.83-3.26-2.69-9.54,1.8-1.11,3.28-1.52,5.39-1.27,1.53.18,3.39,3.62,5.51,1.55l2.64-6.96,10.8,5.41Z"/>
      <path class="cls-15" d="M94.74,116.23h2.71c-2.77,4.16-10.27,13.99-5.41,16.22-1.85,2.36-3.67,5.54-5.41,8.11-1.64.33-4.23-.5-5.41,0-.09-1.78-1.3-2.16-2.71-2.7-.39-1.72-2.55-3.93-2.71-5.41l2.4-1.62c.39-3.82,5.09-9.65,5.72-11.9l1.36,2.69h4.05s-2.71-5.4-2.71-5.4h8.12Z"/>
      <path class="cls-15" d="M70.38,132.45h-2.71c-.04-3.85-3.25-17.76-5.41-18.92l8.12-10.81v29.73Z"/>
      <path class="cls-17" d="M140.76,137.86c.2,2.42.26,4.16,2.71,5.41-.02.89-.05,1.81,0,2.7l-2.32,1.76c-.69,2.99-.58,6.04-.39,9.06h-2.71c-.4-3.91-2.56-6.99-2.72-10.81l-5.4,2.7c-.41-1.44.28-3.7,0-5.41,1.81-.85,3.69-1.69,5.41-2.7l1.35,2.7,1.35-1.35-2.71-1.35c1.14-.67,2.1-3.78,5.41-2.7Z"/>
      <path class="cls-25" d="M94.74,229.75l5.43-10.81,8.08,6.76c-3.41,5.14-7.75,4.31-13.51,4.04Z"/>
      <path class="cls-23" d="M129.93,162.19h-2.71c1.12-3.27.13-7.13,5.41-8.11.76,5.98-2.66,7.66-2.71,8.11Z"/>
      <path class="cls-23" d="M129.93,178.4c0-3.58-.23-7.26,0-10.81,3.36,1.84,3.53,5.35,2.3,8.75l-2.3,2.06Z"/>
      <polygon class="cls-23" points="129.93 189.22 129.93 186.51 132.62 187.84 129.93 189.22"/>
      <path class="cls-5" d="M119.1,154.08c-1.67,4.67-2.22,6.65-5.41,10.81-2.87,3.74-5.56,8.14-10.74,8.31,1.2,2.69,2.1,4.93,2.62,7.91-.87.26-2.52,1.87-2.71,2.7-5.01-.77-9.16.44-13.52,2.7v-5.41s29.76-27.03,29.76-27.03Z"/>
      <path class="cls-3" d="M129.93,129.75c.23-1.74-.15-3.64.01-5.4h2.69s.02,10.8.02,10.8h2.69s.01-8.1.01-8.1c.32.69,4.16,1.83,5.41,2.7.21,2.67-.22,5.44,0,8.11-3.31-1.07-4.28,2.03-5.41,2.7-1.72,1.02-3.61,1.85-5.41,2.7-2.64,1.25-5.01,2.82-8.12,2.7.25-.85-.27-1.93,0-2.7.46-1.3-.49-3.5,1.23-5.51,3.57-4.18,5.72.99,6.89-8.01Z"/>
      <path class="cls-3" d="M121.81,178.4l2.71-2.7c.09,2.59-1.53,2.13-2.71,2.7Z"/>
      <path class="cls-8" d="M94.74,194.62h4.03s1.38,2.7,1.38,2.7c-4.62.7-8.35,2.19-13.53,2.7-.39-1.39.21-3.68-.01-5.4,2.55-.41,5.89.54,8.13,0Z"/>
      <path class="cls-3" d="M127.22,129.75l-12.17,8.12-1.36-.02c-1.18-3.72,2.2-5.88,2.7-8.1,1.69-.49,3.8-2.55,5.41-2.7,1.29-.12,2.56-.12,3.82.23l1.6,2.47Z"/>
      <path class="cls-3" d="M116.39,121.64c-.35,2.55.52,5.81,0,8.11-3.03.88-5.04,1.27-8.12,2.7-6.21,2.9-8.53,5.55-13.53,8.11,3.17-9.36,4.03-5.75,9.5-10.79,3.17-2.92,6.39-7.47,9.55-9.66,2.23-1.55,2.46,1.53,2.61,1.53Z"/>
      <path class="cls-12" d="M94.74,140.56c-2.95,8.7,1.36,5.87,5.41,13.52-1.37,1.23-3.54,1.88-5.52,3.94-4.11,4.26.48,6.35-8.01,6.87-.64-1.77-2.37-3.73-2.71-5.41-.18-.87.18-1.84,0-2.7l10.83-2.72v-5.38c-3.87,0-7,2.07-10.83,2.7-.23-1.44-3.23-4.02-2.46-5.08.34-.46,3.54-.55,5.17-3.03,2.16-2.12,6.25-1.74,8.12-2.7Z"/>
      <path class="cls-12" d="M83.91,151.37c.27,1.71-.33,3.79,0,5.41h-2.71c-.49-.56-1.94-.55-2.31-1.73l-.39-3.68c1.7-.28,3.71.28,5.41,0Z"/>
      <path class="cls-12" d="M121.81,121.64c-.23,1.73.16,3.64,0,5.41-1.62.16-3.72,2.21-5.41,2.7.52-2.3-.35-5.56,0-8.11,1.8,0,3.62-.07,5.41,0Z"/>
      <path class="cls-12" d="M116.39,129.75c-.5,2.23-3.89,4.38-2.7,8.1l1.36.02,12.17-8.12h2.71c-1.17,9-3.32,3.83-6.89,8.01-1.72,2.01-.77,4.2-1.23,5.51-1.75.21-3.8-.32-5.41,0l-8.12-10.81c3.08-1.44,5.09-1.82,8.12-2.7Z"/>
      <path class="cls-24" d="M127.22,118.94c1.42.69,2.03,2.27,2.71,2.7-2.7-.07-5.42.1-8.12,0,.12-.87-.14-1.81,0-2.69h5.42Z"/>
      <path class="cls-16" d="M86.62,116.23l2.71,5.4h-4.05s-1.36-2.69-1.36-2.69c.22-.8-.17-1.8,0-2.7h2.71Z"/>
      <path class="cls-16" d="M81.21,189.22l-2.71,8.11-2.7-1.36c-1.42-10.01,1.81-5.33,5.4-6.75Z"/>
      <path class="cls-1" d="M108.27,132.45l8.12,10.81c-6.36,1.25-11.25,6.34-16.24,10.81-4.06-7.65-8.36-4.82-5.41-13.52,5-2.56,7.33-5.21,13.53-8.11Z"/>
      <rect class="cls-17" x="78.5" y="167.6" width="8.11" height="2.68"/>
      <path class="cls-19" d="M81.21,140.56c-.18.07-1.35,1.79-2.71,2.7-.24-1.73.35-3.85,0-5.41,1.41.54,2.62.93,2.71,2.7Z"/>
      <path class="cls-2" d="M146.17,110.83l-.37,3.81-2.34,1.59c-.41-1.81-3.66-4.65-2.71-5.4,1.69-.33,4.16.46,5.42-.01Z"/>
      <path class="cls-20" d="M140.76,124.34c-.01-.13-2.29-.47-2.26-1.32l4.96-4.08c-.04,1.28.14,2.56-.35,3.8l-2.36,1.61Z"/>
      <polygon class="cls-13" points="135.34 140.56 138.05 141.91 136.7 143.26 135.34 140.56"/>
    </g>
  </g>
</svg>