<?xml version="1.0" encoding="UTF-8"?>
<svg id="Layer_2" data-name="Layer 2" xmlns="http://www.w3.org/2000/svg" viewBox="0 0 215.34 288.24">
  <defs>
    <style>
      .cls-1 {
        fill: #191a18;
      }

      .cls-2 {
        fill: #414141;
      }

      .cls-3 {
        fill: #87722b;
      }

      .cls-4 {
        fill: #f5f5f6;
      }

      .cls-5 {
        fill: #e5e9f1;
      }

      .cls-6 {
        fill: #dab924;
      }

      .cls-7 {
        fill: #3a3a3a;
      }

      .cls-8 {
        fill: #b7c4d9;
      }

      .cls-9 {
        fill: #fe1417;
      }

      .cls-10 {
        fill: #fff;
      }

      .cls-11 {
        fill: #c4a025;
      }

      .cls-12 {
        fill: #172680;
      }

      .cls-13 {
        fill: #b7a68b;
      }

      .cls-14 {
        fill: #c71618;
      }

      .cls-15 {
        fill: #802121;
      }

      .cls-16 {
        fill: #232322;
      }

      .cls-17 {
        fill: #0c0c0c;
      }

      .cls-18 {
        fill: #fe1014;
      }

      .cls-19 {
        fill: #fe0c11;
      }

      .cls-20 {
        fill: #f2d621;
      }

      .cls-21 {
        fill: #585858;
      }

      .cls-22 {
        fill: #f0f1f3;
      }

      .cls-23 {
        fill: #fe2327;
      }

      .cls-24 {
        fill: #95a4ca;
      }

      .cls-25 {
        fill: #ad912e;
      }

      .cls-26 {
        fill: #6874af;
      }
    </style>
  </defs>
  <g id="Layer_1-2" data-name="Layer 1">
    <g>
      <rect class="cls-10" x="4.57" y="2.3" width="210" height="284"/>
      <path class="cls-17" d="M1.5,0h213.85s-.01,286.52-.01,286.52c-3.7.64-7.62-3.27-10.82-2.7v-2.7l2.22-1.95.5-276.48L4.2,5.41,1.5,0Z"/>
      <path class="cls-2" d="M4.2,5.41v275.72s200.31,0,200.31,0v2.7c-61.67,10.94-132.91-2.62-196.36,2.81l-8.15-2.67L1.5,0l2.71,5.41Z"/>
      <path class="cls-17" d="M36.68,254.1l-2.71-224.36h140.76v224.36c-1.35-.21-2.44-2.65-2.71-2.7-.06-19.79.08-39.68,0-59.47-.02-4.5.05-9.02,0-13.52,0-.9.02-1.8,0-2.7-.06-3.57.29-7.27,0-10.81-.1-1.27.11-2.57-.38-3.81l-2.33-1.6c3.32-8.25.28-5.94,0-8.11-.12-.96,2.54-13.31,2.71-18.92.05-1.8-.01-3.61,0-5.41.07-9.85.31-19.89,0-29.73-.71-22.24-2.45-33.12,0-56.76.27-2.65-.16-5.45,0-8.11-8.1-.04-16.27.06-24.37,0-2.71-.02-5.41.01-8.12,0-.9,0-1.8,0-2.71,0-2.71,0-5.42-.03-8.12,0-1.8.02-3.61-.04-5.41,0s-3.61-.06-5.41,0c-4.49.14-9.07-.3-13.53,0-.9.06-1.81-.08-2.71,0-1.77.16-3.8-.3-5.41,0-4.48.21-9.07-.32-13.53,0-5.89.42-5.09,2.63-5.41,2.7-.52.12-3.99-2.65-6.74-2.65-10.39-.02-20.81-.09-31.17-.06.19,19.78-.24,39.69,0,59.48.11,8.98-.08,18.06,0,27.04h5.42c-1.33,2.45-5.59,11.52-5.41,13.5.13,1.42,2.18,4.93,2.71,8.11-1.14.2-2.1-.26-2.58,1.43-.38,6.73-.02,13.49-.13,20.2-.03,1.8.02,3.6,0,5.41-.05,5.37-.2,10.85,0,16.22.84,22.46,4.71,36.4,0,59.47-.48,2.36.32,5.53,0,8.11-.19.03-.47,3.23-2.71,2.7Z"/>
      <path class="cls-2" d="M63.75,251.39c2.71-.04,5.41.02,8.12,0,.9,0,1.8,0,2.71,0,2.71-.02,5.41.01,8.12,0,.9,0,1.8,0,2.71,0,1.8,0,3.61,0,5.41,0h16.24c.9,0,1.8,0,2.71,0,1.8,0,3.61,0,5.41,0,2.71,0,5.41,0,8.12,0,1.8,0,3.61,0,5.41,0,2.71.01,5.41-.02,8.12,0,9.97.06,26.59-1.67,35.19,0,.27.05,1.35,2.49,2.71,2.7-.17,3.87-3.9,2.6-6.71,2.76-37.11,2.21-87.58,2.1-124.75.06-4.53-.25-3.82-.06-6.59-2.83,2.24.53,2.52-2.68,2.71-2.7,6.99-1.03,16.78.1,24.36,0Z"/>
      <path class="cls-9" d="M189.87,205.54c10.79,4.15,21.26,17.3,10.55,26.94l-8.08-4.87-7.89,4.79-6.69-7.03c1.25-8.42,5.09-14.99,12.11-19.83Z"/>
      <path class="cls-9" d="M17.41,54.6l1.67,4.88c3.26-4.29,6.57-6.36,12.18-5.4,4.6,6.96-4.67,24.49-12.18,24.49-10.51-3.03-13.33-14.68-12.18-24.49l10.5.53Z"/>
      <path class="cls-18" d="M201.8,248.69l-10.82-5.4,2.7,29.72h-13.53c3.94-8.68,1.51-17.45,2.67-25.71,1.73-12.32,21.43-14.13,18.98,1.38Z"/>
      <path class="cls-19" d="M28.56,10.82c-3.27,7.68.29,40.34-11.94,37.73l-6.99-13.41,10.82,5.4-2.7-29.72h10.82Z"/>
      <path class="cls-4" d="M77.29,35.15c.19,3.92,7.8,7.42,8.12,8.11.55,1.17-.72,4.55.05,5.37.64.69,10.64-3.05,14.98-2.91,4.71.14,6.26,2.91,6.62,2.95,4.31,6.95,4.31,14.72,6.05,22.17.31,1.3,1.92,1.71,2.07,2.16.45,1.34-.3,3.73,0,5.41-.71-.12-2.03-.17-2.71,0-4.16,1.03-4.78,5.08-5.41,5.41-1.08.56-3.96-.51-5.41,0-1.76.62-3.8,2.44-5.41,2.7-1.49.25-3.79.13-5.41,0-.87-.07-.56-4.28-8.12,0-3.73,2.11-4.74,4.98-5.41,5.41-5.82,3.66-15.39,3.87-13.53,10.81-.9.22-1.96-.27-2.71,0-4.28,1.54-3.76,3.8-5.41,5.41-.82.79-2.35,1.21-2.71,2.7h-2.71c-.07-.51-3.88-2.88-2.87-9.23.36-2.29,4.81-1.99,5.58-4.28,6.58.79,14.18.37,13.53-8.11-8.37,4.03-11.92-2.34-20.04-2.91l-4.31,5.61h-2.71c-.25-19.78.19-39.69,0-59.48,10.36-.03,20.78.03,31.17.06,2.75,0,6.22,2.77,6.74,2.65ZM46.19,35.13c-11.5,5.59,3.91,28.44,10.6,26.98,10.19-2.22,20.76-40.11-2.52-22.12l-8.08-4.86ZM98.71,51.59c-6.65-.67-13.13-2.53-10.59,6.52,1.93,6.86,9.77,1.6,13.52,1.35l-2.93-7.87ZM85.4,62.17v-8.1h-2.69v8.1h2.69ZM96.23,70.3h-10.82s0,8.1,0,8.1l10.81-5.42v-2.68Z"/>
      <path class="cls-4" d="M153.08,181.11c.27.14,2.49,4.21,2.71,5.41h-10.84s0,8.1,0,8.1c2.52.42,5.98-.58,8.13,0,6.4,1.73,12.05,10.08,16.24-2.7h2.71c.08,19.79-.06,39.68,0,59.47-8.59-1.67-25.22.06-35.19,0-2.31-4.91-6.28-8.1-10.83-10.81-7.65-4.56-12.98-2.38-21.65-2.7-4.35-7.13-4.48-13.92-5.41-21.62-1.03-8.55-4.4-6.7,5.41-13.52.84.05,1.9.14,2.71,0,1.62-.27,3.83-2.67,6.84-2.74,7.95-.2,9.35,6.05,17.52-2.66,1.18-1.26,1.87-4.84,2.71-5.41,4.98-3.34,9.25-2,13.53-10.81,1.39.54,4.3-.57,5.41,0ZM128.74,216.24l-2.74-10.8-8.11,6.76,4.96,1.69-.93,5.04,6.81-2.69ZM120.6,221.66l-10.83,2.72c-1.46,10.23,4.46,11.84,13.53,10.8l-2.7-13.51ZM128.71,229.76v-8.1h-2.69v8.1h2.69ZM154.78,224.59c-4.86,1.43-13.95,14.42-12.48,19.93,1.88,7.06,10.43,2.22,14.35,2.19,2.21-.01,5.18,2.7,8.39,1.91,9.09-2.25.64-27.22-10.26-24.02Z"/>
      <path class="cls-22" d="M147.67,32.44c8.1.06,16.27-.04,24.37,0-.17,2.66.27,5.47,0,8.11-3.89,1.76-4.93,6.82-5.43,10.8h-2.68s-2.72-5.4-2.72-5.4c.19-3.58-.12-7.23-.01-10.81l-2.7,2.7c-1.31-.33-2.05.25-2.68,1.37-1.76,3.16-4.74,18.16-4.97,22.19-.23,3.94,3.66,5.65,4.95,8.88.48,1.21-.35,3.74,0,5.41h5.4c.3-1.72-.4-3.96,0-5.41.49-1.76,2.03-3.59,2.71-5.41.24.4,2.3.21,2.76,3.89.8,6.39,1.38,19.02-2.76,23.15-1.87-.77-3.6-1.83-5.41-2.7-1.22-.59-.74-1.95-5.41-2.7l2.7-8.1c-.75-.78-8.57,1.98-10.82,2.7-.87.27-2.54-.35-2.71,0l-3.19-27.93-2.23-1.8c.93-1.77,1.68-3.69,2.71-5.41,2.7-4.5,6.39-8.42,8.12-13.52Z"/>
      <path class="cls-22" d="M52.93,194.63c.68,1.75,2.47,3.93,2.71,5.41.4,2.52-.37,5.56,0,8.11,3.56-1.23,12.31-6.2,13.53,0,.47,2.38-.33,5.53,0,8.11.87,6.83,5.33,15.97,5.41,18.92.02.81-1.95,4.41-2.71,5.41-1.97,2.57-7.53,5.07-8.12,10.81-7.58.1-17.38-1.03-24.36,0,.32-2.57-.48-5.75,0-8.11,3.8-.75,5.54-4.55,5.45-8.12l2.68,2.71,2.72,10.81c3.07.47,2.48-2.46,2.7-2.7,10.54-11.64,3.98-20.42,2.71-32.44-.19-1.75.25-3.7,0-5.41-1.21.42-4.07-.82-5.15.26s.19,4.07-.26,5.15c-.77,1.85-1.87,3.58-2.71,5.41-.18-.37-2.32-.58-2.76-3.89-.95-7.19.75-15.72.06-23.14l8.11,2.7Z"/>
      <path class="cls-21" d="M153.08,86.51c4.68.76,4.19,2.12,5.41,2.7-1.33,8,2.45,4.33,5.41,5.41,1.4.5,3.84,4.51,8.12,2.7.31,9.84.07,19.88,0,29.73-9.07-3.74-10.21-17.71-16.24-24.33,4.7.37,6.32.88,5.42-4.04v-1.36c-1.8.02-3.63-.07-5.42,0-1.28.05-2.55-.13-3.78.38l-1.63,2.32h-2.71c-1.31-1.98-4.45-.38-5.41-8.11-.09-.72-.19-2.05,0-2.7.59-2.03.14-2.21,2.71-2.7,1.85-.36,6.19-.31,8.12,0Z"/>
      <path class="cls-20" d="M47.51,186.52c6.75,3.83,3.98,4.41,5.41,8.11l-8.11-2.7c.69,7.42-1.02,15.95-.06,23.14.44,3.31,2.58,3.53,2.76,3.89,6.08,12.7,1.12,11.66,2.71,18.92h-2.71l-2.68-2.71c.1,3.57-1.64,7.36-5.45,8.12,4.71-23.06.84-37.01,0-59.47,2.09,2.09,6.44,1.75,8.12,2.7Z"/>
      <path class="cls-20" d="M172.03,97.32c-4.28,1.81-6.72-2.2-8.12-2.7v-2.7c4.15-4.12,3.57-16.76,2.76-23.15-.46-3.68-2.52-3.49-2.76-3.89-.39-.65-2.42-1.26-2.71-2.7.11-.99-.18-9.61,0-13.52.04-.9-.05-1.8,0-2.7l2.72,5.4h2.68c.5-3.99,1.54-9.05,5.43-10.81-2.45,23.64-.71,34.53,0,56.76Z"/>
      <path class="cls-19" d="M123.3,32.44c2.01,7.12,11.01,4.52,16.23,8.11v-8.11c2.72.01,5.42-.02,8.13,0-1.73,5.09-5.42,9.01-8.12,13.52-8.69-3.79-17.01-1.98-25.81-2.69-2.75-.22-3.73-2.66-3.96-2.71l1.98-2.14,5.91-.85.23-5.12c1.8-.06,3.61.04,5.41,0Z"/>
      <path class="cls-24" d="M42.1,94.62v5.41s5.41-5.41,5.41-5.41c1.72.39,3.91,2.52,5.41,2.7-.77,2.29-5.21,1.99-5.58,4.28-1.01,6.35,2.8,8.72,2.87,9.23.12.88-.1,1.81,0,2.7-3.29.64-4.04,2.87-5.41,5.41h-5.42c-.08-8.97.11-18.05,0-27.03h2.71v2.7Z"/>
      <path class="cls-19" d="M82.7,32.44c.18,1.8,1.79,1.98,2.71,2.7,5.54,4.37,9.38,2.64,16.25,2.7v-5.41c.88-.08,1.8.06,2.69,0l2.71,8.11c-6.9,1.36-13.34,4.47-21.65,2.7-.32-.69-7.93-4.19-8.12-8.11.32-.07-.48-2.29,5.41-2.7Z"/>
      <path class="cls-8" d="M172.03,132.46c-.17,5.61-2.83,17.96-2.71,18.92l-8.11-8.11c-1.11,6.4-3.61,7.38-.01,13.51l-4.06,5.42-1.36-5.42h-5.4s.31,9.21.31,9.21l2.39,1.6c-1.02,1.38-1.86,3.7-2.71,5.41-1.95,3.95-2.07,6.8-2.71,8.11-1.19-.46-2.14-1.56-2.71-2.7-.67-5.94.98-13.34,0-18.92-.11-3.12,5.19-7.32,5.41-8.11h2.71l2.69,2.7c.81-3.14,1.47-8.14,2.72-10.81s5.89-9.91,8.12-10.81c1.21-.49,3.77.33,5.41,0Z"/>
      <path class="cls-13" d="M47.51,167.6c.13.83.04,1.85,0,2.7s-2.09,2.55-2.12,4.41c-.05,3.93,2.77,7.66,2.12,11.8-1.68-.95-6.03-.61-8.12-2.7-.2-5.36-.05-10.85,0-16.22,2.92,2.33,5.2,2.33,8.12,0Z"/>
      <path class="cls-6" d="M50.22,121.65c.12.88-.11,1.81,0,2.7l-2.16,1.95-.84,5.97-5.1-1.23-.02,1.42h-2.71c-.18-1.98,4.08-11.06,5.41-13.52s2.13-4.77,5.41-5.41c.3,2.61-.36,5.55,0,8.11Z"/>
      <path class="cls-6" d="M169.32,159.49c-.85,2.12-3.22,1.78-2.71,8.11-1.45.84-2.02,2.22-2.71,2.7-.61.43-2.17-.44-2.71,0,.28-1.7-.41-3.96,0-5.41.49-1.75,1.97-3.59,2.71-5.41,1.33-3.3-.99-4.54,5.41-8.11.28,2.16,3.32-.14,0,8.11Z"/>
      <path class="cls-13" d="M117.89,32.44l-.23,5.12-5.91.85-1.98,2.14c-.68-.15-2.01-.14-2.71,0l-2.71-8.11c4.47-.3,9.05.14,13.53,0Z"/>
      <path class="cls-12" d="M172.03,175.71c.02.9,0,1.8,0,2.7h-5.41c-.98.85,2.38,3.56,2.71,5.41l-5.4,2.7v-16.22c.68-.48,1.24-1.87,2.7-2.7.34,4.17.87,6.97,5.41,8.11Z"/>
      <path class="cls-13" d="M128.72,32.44l1.43,2.64c1.75.25,3.51.25,5.26,0l1.43-2.64c.9,0,1.8,0,2.71,0v8.11c-5.24-3.58-14.23-.99-16.24-8.11,1.8-.04,3.61.02,5.41,0Z"/>
      <path class="cls-8" d="M52.93,137.86c-.36,2.14-2.44,2.29-2.71,2.7-2.61.3-5.69-.44-8.12,0-.53-3.17-2.58-6.68-2.71-8.11h2.71l10.83,5.41Z"/>
      <path class="cls-25" d="M42.1,148.68c.24,1.6.93,2.9,2.71,2.7-.22.38-.03,1.82,0,2.7-2.94,1.02-2.03,3.85-2.71,5.41-.59,1.36-.94,2.59-2.71,2.7.11-6.71-.26-13.47.13-20.2.48-1.69,1.44-1.22,2.58-1.43.42,2.51-.38,5.57,0,8.11Z"/>
      <path class="cls-13" d="M101.65,32.44v5.41c-6.87-.07-10.7,1.66-16.24-2.7,4.76,2.39,9.65-2.49,10.83-2.7,1.61-.3,3.64.16,5.41,0Z"/>
      <path class="cls-15" d="M47.51,167.6c-2.92,2.33-5.2,2.33-8.12,0,.02-1.8-.03-3.6,0-5.41,1.76-.12,2.11-1.34,2.71-2.7,2.61,1.3,5.01,5.5,5.41,8.11Z"/>
      <path class="cls-6" d="M155.79,102.72c6.03,6.62,7.18,20.59,16.24,24.33-.01,1.8.05,3.61,0,5.41-1.64.33-4.21-.49-5.41,0l-8.7-21.04c-4.63-1.24-5.25-3.06-7.54-5.99-1.12-1.43-1.64-3.79-2.71-5.41h2.71c1.42,1.04,4.5,1.7,5.41,2.7Z"/>
      <path class="cls-24" d="M172.03,178.41c.05,4.5-.02,9.02,0,13.52h-2.71c.22-.68-.07-1.76,0-2.7.12-1.63.26-3.94,0-5.41-.33-1.85-3.69-4.55-2.71-5.4h5.41Z"/>
      <path class="cls-22" d="M172.03,175.71c-4.54-1.14-5.07-3.94-5.41-8.11,1.74-1,3.62-1.79,5.41-2.7.29,3.54-.06,7.24,0,10.81Z"/>
      <path class="cls-9" d="M96.23,32.44c-1.17.22-6.07,5.1-10.83,2.7-.92-.73-2.53-.9-2.71-2.7,4.46-.32,9.05.21,13.53,0Z"/>
      <path class="cls-7" d="M172.03,164.9c-1.79.91-3.67,1.7-5.41,2.7-.51-6.33,1.85-5.99,2.71-8.11l2.33,1.6c.49,1.24.28,2.53.38,3.81Z"/>
      <path class="cls-9" d="M136.84,32.44l-1.43,2.64c-1.75.25-3.51.25-5.26,0l-1.43-2.64c2.71-.03,5.41,0,8.12,0Z"/>
      <path class="cls-18" d="M126.01,240.58c4.55,2.71,8.51,5.91,10.83,10.81-2.71-.02-5.41.01-8.12,0-2.49-8.01-11.91-5.08-18.96-5.41v5.41c-.89,0-1.79,0-2.69,0v-5.41c-6.4-.02-14.16-1.84-16.24,5.41-1.8,0-3.61,0-5.41,0v-5.41c-5.79-.33-11.82-.97-13.53,5.41-2.71.02-5.41-.04-8.12,0,.59-5.74,6.15-8.24,8.12-10.81,9.99-1.75,18.9,2.37,28.31,2.82,9.57.46,16.73-2.69,25.83-2.82Z"/>
      <path class="cls-13" d="M90.82,251.39c2.08-7.25,9.84-5.43,16.25-5.41v5.41h-16.25Z"/>
      <path class="cls-13" d="M128.72,251.39c-1.8,0-3.61,0-5.41,0l-1.43-2.64c-1.75-.25-3.51-.25-5.26,0l-1.43,2.64c-1.8,0-3.61,0-5.41,0v-5.41c7.04.33,16.45-2.6,18.95,5.41Z"/>
      <path class="cls-13" d="M71.87,251.39c1.71-6.38,7.74-5.74,13.53-5.41v5.41c-.9,0-1.8,0-2.7,0l-1.43-2.64c-1.75-.25-3.51-.25-5.26,0l-1.43,2.64c-.9,0-1.8,0-2.71,0Z"/>
      <path class="cls-18" d="M123.3,251.39c-2.71,0-5.41,0-8.12,0l1.43-2.64c1.75-.25,3.51-.25,5.26,0l1.43,2.64Z"/>
      <path class="cls-23" d="M82.7,251.39c-2.71.01-5.41-.02-8.12,0l1.43-2.64c1.75-.25,3.51-.25,5.26,0l1.43,2.64Z"/>
      <path class="cls-11" d="M136.84,51.37l2.23,1.8,3.19,27.93v5.41c-6.04-6.2-9.8-4.29-16.24-5.41-1.47-4.8-6.73-6.17-10.83-8.11-.15-.45-1.76-.85-2.07-2.16-1.74-7.46-1.74-15.22-6.05-22.17.68.07,3.76-2.58,6.68-2.49,3.56.11,20.9,3.44,23.1,5.19Z"/>
      <path class="cls-9" d="M46.19,35.13l8.08,4.86c23.28-17.99,12.71,19.9,2.52,22.12-6.69,1.46-22.1-21.39-10.6-26.98Z"/>
      <path class="cls-16" d="M109.77,40.55c.23.05,1.21,2.49,3.96,2.71,8.8.72,17.13-1.09,25.81,2.69-1.03,1.72-1.77,3.63-2.71,5.41-2.2-1.75-19.53-5.09-23.1-5.19-2.92-.09-6,2.56-6.68,2.49-.36-.04-1.91-2.8-6.62-2.95-4.34-.13-14.34,3.6-14.98,2.91-.77-.82.5-4.2-.05-5.37,8.31,1.77,14.75-1.35,21.65-2.7.69-.14,2.02-.15,2.71,0Z"/>
      <path class="cls-12" d="M77.29,97.32c1.47,6.85,9.44,12.8,8.12,21.62l-6.76-8.04-4.07,2.63c-1.79-1.96-6.58-2.42-5.41-8.11,11.18,8.58,9.32-4.62,4.06-5.2-.74-.08-2.64,2.35-4.06,2.5-.89.09-1.83-.13-2.71,0s-1.9-.2-2.71,0c-1.86-6.94,7.72-7.16,13.53-10.81.17,1.75-.33,3.86,0,5.41Z"/>
      <path class="cls-3" d="M42.1,91.91l4.31-5.61c8.12.57,11.68,6.94,20.04,2.91.66,8.48-6.94,8.9-13.53,8.11-1.51-.18-3.69-2.32-5.41-2.7-1.56-.35-3.68.24-5.41,0v-2.7Z"/>
      <path class="cls-11" d="M90.82,86.51l-2.31,4.05c1.77,2.45,4.79,6.18,7.73,6.76-.01,1.73-.29,3.92,0,5.41.8,4.06,5.09,7.12,5.41,8.11.52,1.58,0,5.78,0,8.11-.93-.43-1.99-.4-2.38-1.63-3.76-6.11-6.55-13.97-9.93-19.95-1.15-2.04-3.72-2.4-3.93-2.75-.93-1.57-.63-6.06-2.71-8.11,7.56-4.28,7.25-.07,8.12,0Z"/>
      <path class="cls-6" d="M101.65,83.8v8.1s8.12,0,8.12,0l-2.71-5.4h5.41c.88,0,1.85-.11,2.71,0,.98.13,2.2-.29,2.71,0l-5.42,2.73,2.72,5.38c-1.09.42-2.65-.19-3.78.46l-1.63,2.25c-4.2-.11-9.9.72-13.53,0,.03-3.61,3.49-7.21,0-10.81,1.62-.27,3.65-2.08,5.41-2.7Z"/>
      <path class="cls-26" d="M98.71,51.59l2.93,7.87c-3.76.25-11.6,5.51-13.52-1.35-2.54-9.06,3.94-7.19,10.59-6.52Z"/>
      <path class="cls-3" d="M96.23,86.51c3.49,3.6.03,7.2,0,10.81-2.93-.58-5.96-4.31-7.73-6.76l2.31-4.05c1.62.13,3.92.25,5.41,0Z"/>
      <path class="cls-3" d="M126.01,81.1c-1.65-.29-3.66.2-5.41,0-1.48-.17-3.73-2.42-5.41-2.7-.3-1.68.45-4.07,0-5.41,4.09,1.94,9.36,3.3,10.83,8.11Z"/>
      <polygon class="cls-26" points="96.23 70.3 96.23 72.98 85.42 78.4 85.41 70.29 96.23 70.3"/>
      <path class="cls-11" d="M120.6,81.1v2.7c-1.29-.23-2.64.02-3.94.09l-1.48,2.62c-.86-.11-1.83,0-2.71,0v-8.11c.68-.17,2-.12,2.71,0,1.68.28,3.93,2.53,5.41,2.7Z"/>
      <path class="cls-16" d="M107.06,83.8v2.7l2.71,5.4h-8.13s.01-8.1.01-8.1c1.45-.51,4.34.56,5.41,0Z"/>
      <path class="cls-3" d="M112.48,86.51h-5.41v-2.7c.63-.33,1.25-4.37,5.41-5.41v8.11Z"/>
      <path class="cls-1" d="M85.41,94.62c-.3-.45-2.09.42-2.71,0-.29-.2-.07-4.2-5.41-2.7.67-.42,1.69-3.3,5.41-5.41,2.08,2.05,1.78,6.54,2.71,8.11Z"/>
      <rect class="cls-24" x="82.71" y="54.07" width="2.69" height="8.1"/>
      <path class="cls-11" d="M66.46,197.33l.36,4.97c8.49-2.14,16.83,1.95,24,5.85.26,2.34,3.15,4.09-.01,8.1h8.13c.93,7.71,1.07,14.5,5.41,21.63-10.23-.38-19.89,1.21-29.78-2.7-.08-2.95-4.54-12.09-5.41-18.92l2.59-1.5c.35-1.71.35-3.43-.01-5.14l-2.58-1.47c-1.22-6.2-9.97-1.23-13.53,0-.37-2.55.4-5.59,0-8.11,2.8-1.18,8.86-1.72,10.83-2.7Z"/>
      <path class="cls-18" d="M154.78,224.59c10.9-3.2,19.35,21.77,10.26,24.02-3.21.8-6.18-1.92-8.39-1.91-3.92.03-12.46,4.87-14.35-2.19-1.47-5.5,7.62-18.5,12.48-19.93Z"/>
      <path class="cls-11" d="M120.6,183.82c.33,1.05-.72,2.76.61,4.8.4.62,3.29,1.8,4.81,3.31,1.44,1.43,1.87,5.07,5.41,5.41-8.18,8.71-9.57,2.46-17.52,2.66-3.01.08-5.22,2.47-6.84,2.74-.21-1.75.31-3.8,0-5.41-.17-.86.13-1.82,0-2.7-1.53-5.59,2.44-5.1,5.41-8.11.9-.91,1.8-1.77,2.71-2.7.67-.69,2.61-.89,2.71-2.7,1.8-.09,2.23,1.2,2.71,2.7ZM120.59,191.93h-5.4v5.4h5.4v-5.4Z"/>
      <path class="cls-16" d="M104.36,237.88c8.68.32,14.01-1.85,21.65,2.7-9.1.14-16.26,3.29-25.83,2.82-9.41-.46-18.32-4.57-28.31-2.82.76-.99,2.73-4.6,2.71-5.41,9.88,3.92,19.55,2.32,29.78,2.7Z"/>
      <path class="cls-12" d="M126.01,159.49c-1.82,4.24,2.24,6.76,2.71,8.11s-.35,3.72,0,5.41h6.76s1.36-2.71,1.36-2.71c1.63,2.56,1.6,2.59,2.71,5.41-6.64-1.23-7.72,2.3-2.71,6.77l1.36,1.32,4.06-5.39h2.71c.56,1.14,1.52,2.25,2.71,2.7-4.28,8.81-8.56,7.47-13.53,10.81v-5.39c-6.87.94-4.47-2.25-5.41-5.42-1.29-4.33-2.43-8.87-2.89-13.39-1.71-.6-3.59.1-5.23-.12v-8.11h2.71c.88-.13,1.84.17,2.71,0Z"/>
      <path class="cls-25" d="M90.82,194.63l.27,5.12,5.14-2.41c.3,1.56,1.43,2.08,2.71,2.7,1.03.5.35,2.4,5.41,2.7-9.81,6.81-6.45,4.96-5.41,13.52h-8.13c3.17-4.02.27-5.77.01-8.11-.01-.11,1.85-.55,1.81-1.42-.02-.4-4.15-6.52-4.52-6.69l2.71-5.41Z"/>
      <path class="cls-26" d="M120.6,221.66l2.7,13.51c-9.07,1.04-14.99-.57-13.53-10.8l10.83-2.72Z"/>
      <path class="cls-3" d="M169.32,189.22c-.07.94.22,2.03,0,2.7-4.19,12.78-9.84,4.43-16.24,2.7-1.14-2.68,2.64-5.1,2.71-5.41,4.84,1.75,8.7,1.75,13.53,0Z"/>
      <path class="cls-25" d="M155.79,186.52c.13.71.15,2.01,0,2.7-.07.31-3.84,2.72-2.71,5.41-2.16-.58-5.61.42-8.13,0v-8.1s10.84,0,10.84,0Z"/>
      <polygon class="cls-26" points="128.74 216.24 121.93 218.94 122.85 213.9 117.89 212.2 126 205.44 128.74 216.24"/>
      <path class="cls-7" d="M107.06,202.74c-.81.14-1.87.05-2.71,0-5.07-.3-4.38-2.2-5.41-2.7l8.12-2.7c.31,1.61-.21,3.66,0,5.41Z"/>
      <path class="cls-17" d="M134.13,191.93c-.84.56-1.52,4.14-2.71,5.41-3.55-.33-3.98-3.98-5.41-5.41h8.12Z"/>
      <rect class="cls-24" x="126.02" y="221.67" width="2.69" height="8.1"/>
      <path class="cls-26" d="M161.2,48.66c-.18,3.9.11,12.53,0,13.52-.05.45-4.61,4.46-2.71,8.11h-2.71c-1.29-3.23-5.18-4.94-4.95-8.88.24-4.03,3.21-19.03,4.97-22.19.63-1.12,1.37-1.7,2.68-1.37l.46,9.07,2.25,1.75Z"/>
      <path class="cls-11" d="M144.96,81.1c2.25-.71,10.07-3.47,10.82-2.7l-2.7,8.1c-1.93-.31-6.27-.36-8.12,0v-5.41Z"/>
      <path class="cls-25" d="M161.2,45.96c-.05.9.04,1.8,0,2.7l-2.25-1.75-.46-9.07,2.7-2.7c-.11,3.58.2,7.23.01,10.81Z"/>
      <path class="cls-21" d="M161.2,70.29c-.4,1.45.3,3.69,0,5.41h-5.4c-.36-1.67.48-4.2,0-5.41h5.41Z"/>
      <path class="cls-25" d="M163.91,64.88c-.68,1.82-2.22,3.65-2.71,5.41h-2.71c-1.9-3.65,2.66-7.66,2.71-8.11.28,1.45,2.31,2.05,2.71,2.7Z"/>
      <path class="cls-6" d="M163.91,91.91v2.7c-2.97-1.07-6.75,2.6-5.41-5.41,1.82.87,3.55,1.93,5.41,2.7Z"/>
      <path class="cls-7" d="M126.01,81.1c6.45,1.12,10.2-.79,16.23,5.41v-5.41c.18-.35,1.85.27,2.72,0v5.41c-2.57.49-2.11.68-2.71,2.7l-10.6-1.38,2.48,4.08c-1.68.29-4.09-.45-5.41,0l-.26-5.14c-1.62-.92-4.01.18-5.16-.27-.28-.11-.83-2.37-2.71-2.7v-2.7c1.76.2,3.76-.29,5.41,0Z"/>
      <path class="cls-26" d="M55.63,213.55c1.27,12.01,7.83,20.8-2.71,32.44,1.92-3.85-2.54-7.35-2.71-8.11-1.58-7.26,3.37-6.22-2.71-18.92.84-1.83,1.94-3.55,2.71-5.41h5.41Z"/>
      <path class="cls-16" d="M52.93,245.99c-.22.24.37,3.18-2.7,2.7l-2.72-10.81h2.71c.16.75,4.63,4.26,2.71,8.11Z"/>
      <path class="cls-12" d="M55.63,208.14c.25,1.71-.19,3.65,0,5.41h-5.41c.45-1.08-.84-4.05.26-5.15s3.95.16,5.15-.26Z"/>
      <path class="cls-3" d="M69.17,216.25c-.33-2.58.47-5.73,0-8.11l2.58,1.47c.36,1.71.36,3.43.01,5.14l-2.59,1.5Z"/>
      <path class="cls-7" d="M147.67,100.02c1.06,1.61,1.59,3.97,2.71,5.41h-5.41c-.62,6.04,6.15,8.97,7.62,15.36,1.09,4.73.4,9.61.49,14.37-.65-.55-4.75.42-5.41-2.7-1.22-3.49,1.89-7.27,1.89-9.64,0-2.58-4.32-3.32-4.59-3.87-.51-1.02.32-3.75-.01-5.41h-1.34c-3.83,2.22-3.07,5.16-4.07,8.11-.48,1.41-.98,2.6-2.71,2.7-.6-.47-.96-2.6-2.71-2.7.37-1.38-.12-3.65,0-5.41s-.06-3.61,0-5.41c1.84.46,4.63,3.62,5.4,2.7v-10.81s-5.4,0-5.4,0c-.08,2.69.09,5.41,0,8.1-1.46-.36-3.65.03-5.32.1-.65,1.63.39,4.29-.09,5.3-1.94,4.06-8.75,6.39-2.71,13.52h-10.83v-5.41c2.29-1.52,5.24-1.8,7.58-3.22l14.08-26.51c1.84-.82,3.57-1.88,5.41-2.7.96,7.73,4.11,6.13,5.41,8.11Z"/>
      <path class="cls-7" d="M107.06,118.94c.15,1.78-.1,3.62.01,5.4,3.04-.08,4.19-3.16,5.4-5.4h2.71c-.37,1.14,0,3.75,0,5.41-3.36,2.23-3.17,2.17-5.41,5.41-.49.7-.12,2.08-1.34,2.46-.9,0-1.08-2.39-1.36-2.46-2.56-3.44-2.52-6.8-2.71-10.81.88.08,1.81-.01,2.71,0Z"/>
      <path class="cls-20" d="M142.25,89.21c-.19.66-.09,1.99,0,2.7-1.84.82-3.58,1.88-5.41,2.7-.78.35-2.07-.38-2.71,0v-2.7l-2.48-4.08,10.6,1.38Z"/>
      <path class="cls-14" d="M155.79,97.32c1.79-.07,3.62.02,5.41,0v1.36c.92,4.92-.7,4.42-5.41,4.04v-5.41Z"/>
      <path class="cls-26" d="M155.79,97.32v5.41c-.91-1-4-1.66-5.41-2.7l1.63-2.32c1.23-.51,2.5-.33,3.78-.38Z"/>
      <path class="cls-21" d="M69.17,164.9c-.09.55-3.51,2.19-2.71,8.11,2.01,4.19,2.86,13.95,2.71,18.92-.03.93.22,2.05,0,2.7-.06.18-2.54,2.62-2.71,2.7-1.97.98-8.03,1.52-10.83,2.7-.23-1.48-2.03-3.66-2.71-5.41-1.43-3.7,1.33-4.28-5.41-8.11.65-4.14-2.16-7.88-2.12-11.8.02-1.87,2.07-3.58,2.12-4.41l12.19,13.51,1.35-5.4,5.42-1.33c-2.01-2.48-4.81-6.49-5.42-9.49-.27-1.3-.2-3.99,0-5.41l8.12-2.7c-.42,1.39.27,3.69,0,5.41Z"/>
      <path class="cls-1" d="M52.93,118.94c-.56.24-1.37,2.39-2.71,2.7-.36-2.56.3-5.5,0-8.11-.1-.89.12-1.82,0-2.7h2.71v8.11Z"/>
      <path class="cls-4" d="M47.51,94.62l-5.4,5.41v-5.41c1.72.24,3.84-.35,5.4,0Z"/>
      <path class="cls-14" d="M150.37,105.43c2.29,2.93,2.91,4.74,7.54,5.99l8.7,21.04c-2.23.91-6.89,8.18-8.12,10.81-3.54-1.02-3.91-6.82-5.41-8.11-.09-4.76.6-9.65-.49-14.37-1.47-6.39-8.24-9.32-7.62-15.36h5.41Z"/>
      <path class="cls-21" d="M147.67,132.46c.67,3.12,4.77,2.15,5.41,2.7,1.51,1.29,1.88,7.09,5.41,8.11-1.25,2.67-1.91,7.67-2.72,10.81l-2.69-2.7v-10.81s-2.7,0-2.7,0c-.57,3.28.78,8.04-.01,10.81-.23.79-5.52,4.99-5.41,8.11-.05-.3-3.76-2.83-2.71-5.41,8.61-7.07,4.89-4.91,2.71-13.52-.71-2.78-1.08-5.29-2.49-7.85l5.19-.26Z"/>
      <path class="cls-7" d="M169.32,151.38c-6.4,3.57-4.08,4.81-5.41,8.11-1.77-.21-2-1.49-2.71-2.7-3.6-6.14-1.1-7.12.01-13.51l8.11,8.11Z"/>
      <path class="cls-20" d="M50.22,162.19c.64,6.77,4.51,13.42,10.83,16.22l-1.35,5.4-12.19-13.51c.04-.85.13-1.88,0-2.7-.4-2.61-2.81-6.81-5.41-8.11.68-1.56-.23-4.39,2.71-5.41.21,6.81,2.44,5.34,5.41,8.11Z"/>
      <path class="cls-16" d="M50.22,127.05c.23,2.51,3.58,5.59,2.71,10.81l-10.83-5.41.02-1.42,5.1,1.23.84-5.97,2.16-1.95c.11.89-.08,1.81,0,2.7Z"/>
      <path class="cls-13" d="M55.63,124.35c1.5-.38,3.69.26,5.41,0-.27,1.94-3.21,5.16-2.71,8.11h-2.71c-.33-2.44,0-5.49,0-8.11-1.76.45-3.62,2-5.41,2.7-.08-.89.11-1.82,0-2.7s.12-1.82,0-2.7c1.33-.32,2.15-2.47,2.71-2.7.75-.32,1.9.31,2.71,0v5.41Z"/>
      <path class="cls-5" d="M163.91,170.3v16.22s5.41-2.7,5.41-2.7c.26,1.47.12,3.78,0,5.41-4.84,1.75-8.7,1.75-13.53,0,.15-.69.13-1.99,0-2.7-.22-1.19-2.44-5.27-2.71-5.41,6.15-2.38,4.42-6.3,5.41-8.11.09-.17,2.35-2.41,2.71-2.7.54-.44,2.1.43,2.71,0Z"/>
      <path class="cls-5" d="M158.49,164.9v8.11h-8.12c.84-1.71,1.69-4.02,2.71-5.41,1.58-2.15,1.74-3.33,5.41-2.7Z"/>
      <path class="cls-3" d="M153.08,167.6l-2.39-1.6-.31-9.21h5.4s1.36,5.41,1.36,5.41l4.06-5.42c.71,1.21.94,2.49,2.71,2.7-.73,1.81-2.21,3.66-2.71,5.41h-2.71c-3.68-.63-3.83.55-5.41,2.7Z"/>
      <path class="cls-21" d="M161.2,170.3c-.36.29-2.62,2.54-2.71,2.7v-8.11h2.71c-.41,1.45.28,3.7,0,5.41Z"/>
      <path class="cls-21" d="M158.49,173c-.99,1.81.74,5.73-5.41,8.11-1.11-.57-4.02.54-5.41,0,.63-1.31.76-4.16,2.71-8.11h8.12Z"/>
      <path class="cls-5" d="M55.63,132.46c.26,1.88,2.42,4.51,2.71,8.11-2.51,2.05-12.69,9.38-13.53,10.81-1.78.2-2.47-1.1-2.71-2.7,4.29-1.39,5.91-4.65,8.12-8.11.26-.41,2.35-.56,2.71-2.7.88-5.22-2.48-8.31-2.71-10.81,1.8-.7,3.65-2.26,5.41-2.7,0,2.62-.33,5.67,0,8.11Z"/>
      <path class="cls-2" d="M50.22,140.57c-2.21,3.46-3.83,6.72-8.12,8.11-.38-2.54.42-5.6,0-8.11,2.43-.44,5.51.3,8.12,0Z"/>
      <path class="cls-19" d="M58.34,167.6l-2.67,2.71c.68-5.43-3.15-5.97-5.45-8.11-2.97-2.77-5.2-1.3-5.41-8.11-.03-.88-.22-2.32,0-2.7.85-1.44,11.03-8.76,13.53-10.81.69,8.84-2.44,17.7,0,27.03Z"/>
      <path class="cls-7" d="M101.65,118.94c0,2.02-3.03,6.53,0,10.81-3.95-.27-7.98.28-11.96.13l-3.06-5.66c-2.09.41-4.84-.36-6.64.13v-5.41c1.42.8,3.13,1.11,4.07,2.68,1.62-.49,1.17-1.5,1.35-2.68,1.32-8.83-6.65-14.77-8.12-21.62h5.41v8.11s5.38-4.05,5.38-4.05l-2.68-6.77c.21.35,2.78.71,3.93,2.75,3.39,5.98,6.18,13.83,9.93,19.95.39,1.22,1.45,1.19,2.38,1.63ZM93.53,113.53l-5.4-5.4v5.4s5.4,0,5.4,0ZM96.23,121.64l-5.4-5.4v5.4s5.4,0,5.4,0Z"/>
      <path class="cls-1" d="M69.17,105.43c-1.17,5.69,3.62,6.15,5.41,8.11,2.02,2.21,1.48,3.2,5.41,5.41v5.41c-2.76.76-8.46,6.28-13.53,5.41-.06-.89.02-1.8,0-2.7-.19-8.08.13-16.24,0-24.33.88-.13,1.82.09,2.71,0v2.7Z"/>
      <path class="cls-8" d="M66.46,102.72c.13,8.08-.19,16.25,0,24.33l-5.41,5.41h-2.71c-.51-2.95,2.44-6.17,2.71-8.11.35-2.56-.22-5.47-.01-8.11-.62-.74-3.61,2.02-5.4,2.7-.8.31-1.96-.32-2.71,0v-8.11c.36-1.5,1.89-1.91,2.71-2.7l5.4,5.41v-10.81c.76-.27,1.82.22,2.72,0,.81-.2,1.79.14,2.71,0Z"/>
      <path class="cls-14" d="M85.41,118.94c-.18,1.18.27,2.19-1.35,2.68-.93-1.57-2.64-1.88-4.07-2.68-3.94-2.2-3.39-3.2-5.41-5.41l4.07-2.63,6.76,8.04Z"/>
      <path class="cls-14" d="M69.17,102.72c1.42-.15,3.32-2.58,4.06-2.5,5.26.58,7.12,13.78-4.06,5.2v-2.7Z"/>
      <path class="cls-21" d="M82.7,94.62v2.7h-5.41c-.33-1.55.17-3.65,0-5.41,5.34-1.5,5.12,2.51,5.41,2.7Z"/>
      <path class="cls-15" d="M128.72,100.02c-.32.44.29,3.18-1.33,5.3-2.01,2.63-11.92,12.75-12.2,13.62h-2.71c1.31-2.42,6.09-12.81,5.41-13.51l-13.29.15-.24,5.26h-2.71c-.33-.99-4.61-4.05-5.41-8.11h2.71c3.59.17,7.25-.25,10.83,0,1.79.12,3.64-.17,5.41,0,3.16.31,5.15,1.49,7.91,2.56l.21-5.26c1.79-.11,3.62.08,5.41,0Z"/>
      <path class="cls-12" d="M109.77,97.32c7.19.19,14.46-.13,21.65,0-.92,1.02-2.41,2.31-2.71,2.7-1.8.08-3.62-.11-5.41,0-2.1.13-4.3-.43-6.38.38l-1.75,2.33c-1.77-.17-3.63.12-5.41,0-.53-4.13-6.03-2.92-9.29-2.51l-1.54,2.51h-2.71c-.29-1.49-.01-3.68,0-5.41,3.64.72,9.34-.11,13.53,0Z"/>
      <path class="cls-16" d="M104.36,118.94c-.97-.09-2.15.26-2.71,0,0-2.33.52-6.53,0-8.11h2.71c.09,2.69-.13,5.42,0,8.11Z"/>
      <path class="cls-25" d="M128.72,91.91c1.33-.45,3.73.29,5.41,0v2.7c-.24.14-2.15,2.09-2.71,2.7-7.19-.13-14.46.19-21.65,0l1.63-2.25c1.14-.65,2.7-.04,3.78-.46,1.53-.59,4.77-2.85,5.41-2.7.38.09,1.41,2.69,4.12,2.75,3.14.07,3.77-2.67,4-2.75Z"/>
      <path class="cls-3" d="M120.6,83.8c1.88.33,2.43,2.59,2.71,2.7l-2.71,5.41c.21-2.33-.63-4.22-2.71-5.41-.5-.29-1.73.13-2.71,0l1.48-2.62c1.3-.07,2.65-.31,3.94-.09Z"/>
      <path class="cls-7" d="M120.6,91.91c-.64-.15-3.89,2.11-5.41,2.7l-2.72-5.38,5.42-2.73c2.07,1.19,2.92,3.08,2.71,5.41Z"/>
      <path class="cls-13" d="M85.41,94.62l2.68,6.77-5.37,4.05v-8.11s-.01-2.7-.01-2.7c.62.42,2.4-.45,2.71,0Z"/>
      <path class="cls-2" d="M82.7,191.93c.01.1,1.47.37,1.53,1.4.1,1.88-2.54,5.31-1.45,6.57.82.95,4.22-.37,5.34.14.37.17,4.5,6.29,4.52,6.69.04.87-1.82,1.31-1.81,1.42-7.18-3.89-15.51-7.98-24-5.85l-.36-4.97c.17-.09,2.65-2.52,2.71-2.7l9.48,5.39c2.46-1.34-.67-2.37-.63-6.04.01-1.08,2-1.81,1.98-2.04h2.71Z"/>
      <path class="cls-6" d="M88.11,186.52c1.31,5.58,15.04,1.24,16.26,2.71l-2.65,5.25,5.34.15c.13.88-.17,1.84,0,2.7l-8.12,2.7c-1.28-.62-2.41-1.14-2.71-2.7v-5.4s-4.05,0-4.05,0l-1.36,2.69-2.71,5.41c-1.11-.51-4.52.8-5.34-.14-1.09-1.26,1.55-4.69,1.45-6.57-.06-1.03-1.51-1.3-1.53-1.4-.23-1.74.15-3.64,0-5.41h5.41Z"/>
      <path class="cls-12" d="M85.41,178.41v5.41s25.64-.13,25.64-.13c1.68-.39,1.22-1.4,1.43-2.58,1.55.19,2.95.98,2.71,2.7-.91.94-1.81,1.79-2.71,2.7h-32.48c.9-3.8,2.9-5.54,5.41-8.11Z"/>
      <path class="cls-21" d="M128.72,181.11c.95,3.17-1.45,6.36,5.4,5.42v5.39s-8.11,0-8.11,0c-1.52-1.51-4.4-2.69-4.81-3.31-1.33-2.04-.27-3.75-.61-4.8,1.87.15,2.53-2.64,2.71-2.7,1.35-.45,3.73.3,5.41,0Z"/>
      <path class="cls-3" d="M112.48,186.52c-2.97,3.01-6.95,2.52-5.41,8.11l-5.34-.15,2.65-5.25c-1.22-1.48-14.95,2.87-16.26-2.71h24.36Z"/>
      <path class="cls-6" d="M117.89,178.41v2.7c-.09,1.81-2.04,2.01-2.71,2.7.24-1.73-1.16-2.51-2.71-2.7.39-2.14.15-5.72,0-8.11,1.39,1.49,4.4,5.8,5.41,5.41Z"/>
      <path class="cls-16" d="M117.89,178.41l5.22-2.59.19,5.29c-.18.06-.83,2.86-2.71,2.7-.48-1.5-.91-2.79-2.71-2.7v-2.7Z"/>
      <rect class="cls-7" x="115.19" y="191.93" width="5.4" height="5.4"/>
      <path class="cls-2" d="M117.89,162.19c-.07.32-3.88,1.73-2.7,5.4,1.76.16,3.68-.23,5.41,0,1.64.22,3.52-.48,5.23.12.46,4.52,1.6,9.07,2.89,13.39-1.68.3-4.07-.45-5.41,0l-.19-5.29-5.22,2.59c-1.02.4-4.02-3.92-5.41-5.41-.3-4.66-1.25-9.13-2.71-13.52l2.34-1.59.37-3.81c.89.1,1.82-.12,2.71,0,1.27,2.26,3.29,5.57,2.71,8.11Z"/>
      <path class="cls-1" d="M144.96,159.49c.98,5.58-.67,12.98,0,18.92h-2.71c-1.73-.13-2.17-1.33-2.71-2.7-1.11-2.81-1.07-2.84-2.71-5.41-1.5-2.35-2.01-4.7-5.41-5.41,6.56-4.82,3.59-4.49,5.41-8.11.34-.68,4.1-1.63,5.41-2.7-1.06,2.58,2.65,5.11,2.71,5.41Z"/>
      <path class="cls-3" d="M136.84,156.79c-1.83,3.62,1.15,3.29-5.41,8.11-1.02.75-2.47.99-2.71,2.7-.47-1.35-4.53-3.87-2.71-8.11,4.32-.85,2.88-.6,5.41-2.7,1.31-1.09,1.64-1.48,2.71-2.7l2.71,2.7Z"/>
      <path class="cls-15" d="M136.84,170.3l-1.36,2.69h-6.76c-.35-1.67.45-4.09,0-5.4.23-1.71,1.69-1.95,2.71-2.7,3.4.71,3.92,3.06,5.41,5.41Z"/>
      <path class="cls-19" d="M139.54,175.71c.54,1.37.97,2.58,2.71,2.7l-4.06,5.39-1.36-1.32c-5.01-4.46-3.93-8,2.71-6.77Z"/>
      <polygon class="cls-7" points="90.82 194.63 92.19 191.94 96.23 191.93 96.23 197.33 91.09 199.74 90.82 194.63"/>
      <path class="cls-25" d="M147.67,132.46l-5.19.26c1.41,2.55,1.78,5.07,2.49,7.85h-2.71l-1.36-2.69h-4.04s0,5.4,0,5.4c-3.51-5.89-4.74-4.54-5.41-13.52-.13-1.78.09-3.61,0-5.41.4-.62,2.28-1.12,2.71-2.7,1.74.1,2.11,2.23,2.71,2.7.89.69-.11,3.6,5.41,2.7,4.22-.68,2.55-4.14,2.71-8.11.28.55,4.59,1.29,4.59,3.87,0,2.38-3.11,6.15-1.89,9.64Z"/>
      <path class="cls-6" d="M115.18,129.76h-5.41c2.24-3.24,2.05-3.17,5.41-5.41v5.41Z"/>
      <path class="cls-6" d="M136.84,94.62l-14.08,26.51c-2.34,1.42-5.29,1.7-7.58,3.22,0-1.66-.37-4.27,0-5.41.28-.87,10.2-10.99,12.2-13.62,1.62-2.12,1.01-4.86,1.33-5.3.29-.4,1.79-1.68,2.71-2.7.56-.62,2.47-2.56,2.71-2.7.64-.38,1.92.35,2.71,0Z"/>
      <path class="cls-21" d="M134.13,116.24c-.12,1.75.37,4.02,0,5.41-.42,1.58-2.31,2.08-2.71,2.7-.34.53-1.96.57-2.31,1.77l-.39,3.64h-2.71c-6.05-7.13.77-9.45,2.71-13.52h5.41Z"/>
      <path class="cls-13" d="M134.13,110.83c.1-2.69-.07-5.42,0-8.1h5.4s0,10.81,0,10.81c-.77.91-3.56-2.25-5.4-2.7Z"/>
      <path class="cls-8" d="M134.13,110.83c-.06,1.79.12,3.62,0,5.41h-5.41c.48-1.01-.55-3.67.09-5.3,1.67-.08,3.86-.47,5.32-.1Z"/>
      <path class="cls-20" d="M144.96,118.94l-2.71,2.7h-2.71c1-2.95.23-5.89,4.07-8.1h1.34c.33,1.65-.5,4.38.01,5.4Z"/>
      <path class="cls-22" d="M142.25,127.05c-5.52.89-4.53-2.01-5.41-2.7,1.73-.11,2.23-1.29,2.71-2.7h2.71v5.41Z"/>
      <path class="cls-6" d="M123.3,86.51c1.15.45,3.54-.65,5.16.27l.26,5.14c-.23.08-.86,2.81-4,2.75-2.71-.06-3.73-2.66-4.12-2.75l2.71-5.41Z"/>
      <path class="cls-14" d="M50.22,162.19c2.31,2.15,6.13,2.69,5.45,8.11l2.67-2.71h2.71c.61,2.99,3.41,7,5.42,9.49l-5.42,1.33c-6.32-2.8-10.19-9.45-10.83-16.22Z"/>
      <path class="cls-16" d="M74.58,173l-2.39,1.67c-.46,2.12-.55,4.3-.31,6.43.22,1.99.5,2.8,2.71,2.7.31,3.97-1.47,7.17-5.41,8.11.15-4.97-.69-14.73-2.71-18.92l5.41-5.41c.06.3,1.83,3.28,2.71,5.41Z"/>
      <path class="cls-6" d="M77.29,186.52c.09,1.34,2.55,3.78,2.71,5.41.02.24-1.96.97-1.98,2.04-.04,3.67,3.1,4.7.63,6.04l-9.48-5.39c.22-.65-.03-1.77,0-2.7,3.95-.93,5.73-4.14,5.41-8.11h2.71c.09.89-.06,1.81,0,2.7Z"/>
      <path class="cls-21" d="M61.05,102.72v10.81s-5.41-5.41-5.41-5.41c1.65-1.6,1.13-3.87,5.41-5.41Z"/>
      <path class="cls-13" d="M142.25,154.08c-1.31,1.08-5.07,2.02-5.41,2.7l-2.71-2.7c.41-.47-.42-2.51,0-2.7,1.02-.47,3.68.54,5.3-.11.93-3.34-.94-5.23-2.59-8l5.41-2.7h2.71c2.19,8.61,5.9,6.45-2.71,13.52Z"/>
      <path class="cls-1" d="M153.08,151.38h-2.71c.79-2.77-.56-7.53.01-10.81h2.69s.01,10.81.01,10.81Z"/>
      <path class="cls-3" d="M61.05,124.35c-1.72.26-3.91-.38-5.41,0v-5.41c1.79-.68,4.78-3.45,5.4-2.7-.21,2.64.36,5.54.01,8.11Z"/>
      <path class="cls-7" d="M61.05,132.46c-1.82,5.18,4.35,5.5,5.41,8.11.23.57-.02,1.77,0,2.7h-5.42s1.28,7.89,1.28,7.89l1.43.22c-.74,3.05-2.4,8.64-2.71,10.81-.2,1.42-.27,4.1,0,5.41h-2.71c-2.44-9.33.69-18.19,0-27.03-.28-3.6-2.45-6.23-2.71-8.11h5.41Z"/>
      <path class="cls-13" d="M79.99,124.35c1.8-.49,4.55.28,6.64-.13l3.06,5.66c3.97.15,8-.4,11.96-.13,1.76.12,4.03-.37,5.41,0,.28.08.47,2.46,1.36,2.46,1.22-.38.85-1.76,1.34-2.46h8.12l2.71,5.4h-5.42c-3.6.1-7.23-.12-10.83,0-.9.03-1.82-.09-2.71,0-4.84.51-8.07,2.33-10.83,2.7-1.32.18-4.47.31-5.41,0v-10.81s-5.41,0-5.41,0v5.4s-8.13.01-8.13.01c-.45,3.09,2.61,2.53,2.71,2.69.94,1.48,2.32,3.83,2.71,5.41.2.81-.14,1.79,0,2.7h-5.41s5.41,5.41,5.41,5.41v2.7c-4.16-.32-6.98,1.38-8.12,5.41-.24.83.25,1.88,0,2.7l-8.12,2.7c.31-2.17,1.96-7.76,2.71-10.81.33-1.34,2.85-2,2.71-8.11-.02-.93.23-2.14,0-2.7h5.41s0-5.4,0-5.4c-6.38.74-5.07-.73-5.41-5.42,5.07.88,10.77-4.65,13.53-5.41Z"/>
      <path class="cls-20" d="M107.06,129.76c-1.38-.37-3.66.12-5.41,0-3.03-4.28,0-8.8,0-10.81.56.26,1.74-.09,2.71,0,.19,4.02.15,7.38,2.71,10.81Z"/>
      <polygon class="cls-24" points="96.23 121.64 90.83 121.64 90.83 116.24 96.23 121.64"/>
      <polygon class="cls-24" points="93.53 113.53 88.12 113.53 88.12 108.13 93.53 113.53"/>
      <path class="cls-21" d="M66.46,129.76c.34,4.68-.97,6.15,5.41,5.42v5.39s-5.41,0-5.41,0c-1.06-2.61-7.23-2.93-5.41-8.11l5.41-5.41c.02.9-.06,1.81,0,2.7Z"/>
      <path class="cls-12" d="M104.36,110.83l.24-5.26,13.29-.15c.68.7-4.1,11.1-5.41,13.51-1.8-.02-3.61.02-5.41,0-.18-2.22.16-4.51-.01-6.75l-2.7-1.36Z"/>
      <path class="cls-9" d="M109.77,102.72c-3.58-.25-7.24.17-10.83,0l1.54-2.51c3.26-.41,8.76-1.62,9.29,2.51Z"/>
      <path class="cls-14" d="M123.3,100.02l-.21,5.26c-2.76-1.07-4.75-2.25-7.91-2.56l1.75-2.33c2.08-.81,4.27-.24,6.38-.38Z"/>
      <path class="cls-14" d="M107.06,118.94c-.89-.01-1.82.08-2.71,0-.13-2.69.09-5.42,0-8.11l2.7,1.36c.17,2.24-.17,4.53.01,6.75Z"/>
      <path class="cls-3" d="M82.7,186.52c.15,1.77-.23,3.67,0,5.41h-2.71c-.15-1.62-2.62-4.07-2.71-5.41h5.41Z"/>
      <path class="cls-14" d="M107.06,167.6c1.06,3.08-2.29,4.52-2.71,5.41.92-7.32-2.91-7.91-6.65-2.58-2.23,3.18-3.57,6.92-6.88,9.34,2.42,3.95,7.32-1.99,10.82-1.36,2.46.45,5.35,2.02,10.83,2.7-.21,1.17.25,2.19-1.43,2.58l-25.65.13v-5.41c.9-.9,1.89-1.82,2.72-2.7,4.86-5.16,7.22-5.02,10.83-13.52,1.65-1.1,3.68-1.72,5.41-2.7.54,1.61,2.5,7.71,2.71,8.11Z"/>
      <path class="cls-20" d="M88.11,175.71c-.83.89-1.82,1.8-2.71,2.7-2.51,2.57-4.51,4.31-5.41,8.11h-2.71c-.06-.9.09-1.82,0-2.7s-.05-1.84,0-2.7c5.18-2.22,4.57-3.28,5.41-8.11,1.76-.96,3.72-1.64,5.41-2.7v5.41Z"/>
      <path class="cls-16" d="M112.48,173c.15,2.39.39,5.97,0,8.11-5.47-.69-8.37-2.26-10.83-2.7l2.24-1.7c.69-1.19.04-2.8.47-3.71s3.77-2.32,2.71-5.41c.61,1.17,4.03,3.93,5.41,5.41Z"/>
      <path class="cls-13" d="M96.23,148.68c.9-.04,1.81.02,2.71,0,1.8-.04,3.61.02,5.41,0,2.71-.03,5.41,0,8.12,0h13.53c.85,1.24.13,1.96,2.71,2.7l-2.71,5.41c-.87,0-1.9.16-2.71,0-.87-.17-1.83.15-2.71,0-.3-.05-1.26-2.16-5.41-2.7-.89-.12-1.82.1-2.71,0-1.77-.19-3.63.12-5.41,0-.9-.06-1.81.05-2.71,0l-1.36-1.82-1.35,1.82c-1.8.03-3.61-.05-5.41,0-2.7.08-5.42,0-8.12,0v-5.41c2.69-.1,5.42.11,8.12,0Z"/>
      <path class="cls-20" d="M109.77,159.49c1.46,4.38,2.41,8.85,2.71,13.52-1.39-1.48-4.81-4.24-5.41-5.41-.21-.4-2.16-6.5-2.71-8.11-.45-1.34.3-3.73,0-5.41.9.05,1.81-.06,2.71,0,.72,1.83,2.1,3.58,2.71,5.41Z"/>
      <path class="cls-26" d="M120.6,162.19v5.41c-1.73-.23-3.64.15-5.41,0-1.18-3.67,2.63-5.08,2.7-5.4h2.71Z"/>
      <path class="cls-1" d="M120.6,156.79v5.41h-2.71c.58-2.54-1.43-5.85-2.71-8.11,4.15.54,5.12,2.65,5.41,2.7Z"/>
      <path class="cls-1" d="M112.48,154.08l-.37,3.81-2.34,1.59c-.61-1.83-1.98-3.57-2.71-5.41,1.78.12,3.65-.19,5.41,0Z"/>
      <path class="cls-1" d="M134.13,151.38c-.42.2.41,2.23,0,2.7-1.07,1.22-1.4,1.62-2.71,2.7h-5.41l2.71-5.41c1.44.41,3.71-.28,5.41,0Z"/>
      <path class="cls-22" d="M131.42,156.79c-2.54,2.1-1.1,1.85-5.41,2.7-.86.17-1.82-.13-2.71,0v-2.7c.81.16,1.83,0,2.71,0h5.41Z"/>
      <path class="cls-3" d="M126.01,129.76h5.41c.67,8.97,1.9,7.62,5.41,13.52,1.65,2.77,3.52,4.66,2.59,8-1.62.65-4.28-.37-5.3.11-1.7-.28-3.98.41-5.41,0-2.58-.74-1.86-1.47-2.71-2.7-.17-.25-2.6-5.12-2.71-5.41-1.53-4.21,2.93-6.74-8.12-5.41-.08-.89.06-1.81,0-2.7h5.42s-2.71-5.41-2.71-5.41h8.12Z"/>
      <polygon class="cls-2" points="142.25 140.57 136.84 143.27 136.84 137.87 140.89 137.88 142.25 140.57"/>
      <path class="cls-2" d="M142.25,127.05v-5.41l2.71-2.7c-.15,3.97,1.52,7.43-2.71,8.11Z"/>
      <path class="cls-7" d="M131.42,129.76h-2.71l.39-3.64c.36-1.2,1.98-1.24,2.31-1.77.09,1.79-.13,3.62,0,5.41Z"/>
      <path class="cls-2" d="M77.29,162.19c1.6.32,3.67-.22,5.41,0,.04,1.78.13,3.64,0,5.41.88-.11,1.81.15,2.7,0,.05-2.7.01-5.41,0-8.12l2.33,1.6c.49,1.24.28,2.53.38,3.81.14,1.77,0,3.62,0,5.41,3.93-2.47,6.95-5.52,10.83-8.11-3.6,8.5-5.97,8.36-10.83,13.52v-5.41c-1.69,1.06-3.66,1.75-5.41,2.7.28-1.62-.13-3.63,0-5.41-1.74.23-3.64-.15-5.41,0l2.7,5.4c-.06,1.54-2.7,2.51-2.71,2.7-1.73-.13-2.14-1.33-2.71-2.7-.88-2.13-2.65-5.11-2.71-5.41-.16-.79-.04-1.88,0-2.7.21-4.6,2.16-4.24,2.71-5.41-.16,1.83,1.09,2.38,2.71,2.7Z"/>
      <path class="cls-11" d="M71.87,164.9c-.04.83-.16,1.92,0,2.7l-5.41,5.41c-.81-5.92,2.62-7.56,2.71-8.11h2.71Z"/>
      <path class="cls-13" d="M77.29,175.71c-.1,1.79.11,3.62,0,5.41-1.16.5-3.78-.34-5.41,0-.24-2.14-.15-4.32.31-6.43l2.39-1.67c.57,1.38.97,2.57,2.71,2.7Z"/>
      <path class="cls-2" d="M77.29,181.11c-.05.86-.09,1.85,0,2.7h-2.71c-2.2.09-2.48-.72-2.71-2.7,1.64-.34,4.25.5,5.41,0Z"/>
      <path class="cls-21" d="M66.46,143.27c.14,6.11-2.38,6.77-2.71,8.11l-1.43-.22-1.28-7.88h5.42Z"/>
      <path class="cls-25" d="M79.99,132.46c2.07,1.34,2.96,4.59,5.41,5.41.94.31,4.09.18,5.41,0l5.41,10.81c-2.7.11-5.43-.11-8.13,0v5.41s-2.7,0-2.7,0h-2.71c-.11-1.27.12-2.57-.38-3.81l-2.33-1.6c.02-.89.05-1.81,0-2.7l2.36-3.45c-.5-1.4-2.27-1.68-2.36-1.96-.39-1.24.72-3.51-.26-5.13l-5.15-.28c-.1-.16-3.16.39-2.71-2.69h8.13Z"/>
      <path class="cls-15" d="M101.65,135.16c.43,4.75.03,9.49-2.71,13.52-.9.02-1.81-.04-2.71,0l-5.41-10.81c2.76-.38,5.99-2.19,10.83-2.7Z"/>
      <path class="cls-11" d="M115.18,135.16c.06.9-.08,1.81,0,2.7.35,3.81,2.28,7.05,2.71,10.81h-5.41c.99-4.88-.31-5.53-2.71-8.11-.25-.27.23-2.66-1.34-2.67l-4.08,2.67v-5.41c3.6-.13,7.22.09,10.83,0Z"/>
      <path class="cls-7" d="M79.99,132.46v-5.4s5.41,0,5.41,0v10.81c-2.44-.81-3.33-4.07-5.41-5.41Z"/>
      <path class="cls-20" d="M104.36,140.57v8.11c-1.8.02-3.61-.04-5.41,0,2.74-4.03,3.14-8.77,2.71-13.52.88-.09,1.81.03,2.71,0v5.41Z"/>
      <path class="cls-19" d="M112.48,118.94c-1.22,2.25-2.36,5.32-5.4,5.4-.11-1.78.14-3.63-.01-5.4,1.8.02,3.61-.02,5.41,0Z"/>
      <path class="cls-12" d="M101.65,178.41c-3.5-.64-8.4,5.31-10.82,1.36,3.31-2.42,4.66-6.17,6.88-9.34,3.73-5.33,7.57-4.74,6.65,2.58-.43.91.22,2.52-.47,3.71l-2.24,1.7Z"/>
      <path class="cls-1" d="M77.29,181.11c.11-1.79-.1-3.61,0-5.41.01-.19,2.65-1.17,2.71-2.7h2.71c-.85,4.83-.24,5.89-5.41,8.11Z"/>
      <path class="cls-16" d="M96.23,154.08c.3,5.17-3.63,8.9-8.12,10.81-.1-1.28.11-2.57-.38-3.81l-2.33-1.6c0-1.8,0-3.6,0-5.41h2.71c2.7,0,5.42.08,8.12,0Z"/>
      <path class="cls-11" d="M101.65,154.08c-2.1,2.29-1.76,5.88-2.71,8.11-3.88,2.59-6.89,5.64-10.83,8.11,0-1.78.14-3.64,0-5.41,4.49-1.91,8.42-5.65,8.12-10.81,1.8-.05,3.61.03,5.41,0Z"/>
      <path class="cls-14" d="M115.18,137.86c11.05-1.33,6.59,1.19,8.12,5.41v5.41h-5.41c-.43-3.77-2.36-7.01-2.71-10.81Z"/>
      <path class="cls-16" d="M104.36,154.08c.3,1.68-.45,4.07,0,5.41-1.73.98-3.76,1.6-5.41,2.7.94-2.22.61-5.82,2.71-8.11l1.35-1.82,1.36,1.82Z"/>
      <path class="cls-15" d="M112.48,148.68c-2.71,0-5.41-.03-8.12,0v-2.7h5.42s0-5.41,0-5.41c2.39,2.58,3.69,3.23,2.71,8.11Z"/>
      <path class="cls-6" d="M126.01,148.68h-2.71v-5.41c.1.28,2.54,5.16,2.71,5.41Z"/>
      <path class="cls-3" d="M123.3,159.49h-2.71v-2.7c.88.15,1.84-.17,2.71,0v2.7Z"/>
      <path class="cls-22" d="M74.58,156.79c-.39.62.36,1.93,0,2.7-.55,1.16-2.49.8-2.71,5.41h-2.71c.27-1.72-.42-4.02,0-5.41.25-.82-.24-1.87,0-2.7h5.41Z"/>
      <path class="cls-16" d="M82.7,154.08c.23,2.65-.06,5.43,0,8.11-1.75-.22-3.81.32-5.41,0,1.77-2.51,2.33-5.11,2.71-8.11.21-1.7-.04-3.63,0-5.41l2.33,1.6c.5,1.24.27,2.54.38,3.81Z"/>
      <path class="cls-3" d="M79.99,154.08c-.38,3-.93,5.6-2.71,8.11-1.62-.33-2.87-.88-2.71-2.7.36-.77-.39-2.09,0-2.7.7-1.12,1.54-2.05,2.71-2.7h2.71Z"/>
      <path class="cls-21" d="M85.41,159.49c0,2.71.04,5.42,0,8.12-.89.14-1.82-.12-2.7,0,.13-1.77.04-3.63,0-5.41-.06-2.68.23-5.46,0-8.11h2.71c0,1.8,0,3.6,0,5.41Z"/>
      <path class="cls-24" d="M82.7,167.6c-.13,1.78.28,3.79,0,5.41h-2.71l-2.7-5.4c1.77-.15,3.67.22,5.41,0Z"/>
      <path class="cls-20" d="M79.99,145.97c.05.89.02,1.81,0,2.7-.04,1.77.21,3.7,0,5.41h-2.71v-5.41c0-1.76.25-3.81,0-5.41-.14-.91.2-1.89,0-2.7h2.71c.06,1.8-.1,3.61,0,5.41Z"/>
      <path class="cls-16" d="M77.29,151.38v2.7c-1.17.65-2,1.59-2.71,2.7h-5.41c1.15-4.03,3.97-5.73,8.12-5.41Z"/>
      <path class="cls-7" d="M74.58,135.16l5.15.28c.98,1.62-.13,3.89.26,5.13h-2.71c-.38-1.57-1.77-3.92-2.71-5.41Z"/>
      <path class="cls-1" d="M77.29,143.27c.25,1.6,0,3.65,0,5.41l-5.41-5.4h5.41Z"/>
      <path class="cls-16" d="M79.99,145.97c-.1-1.79.06-3.61,0-5.41.09.28,1.86.56,2.36,1.96l-2.36,3.45Z"/>
      <path class="cls-14" d="M109.77,140.57v5.41s-5.41,0-5.41,0v-5.41l4.08-2.67c1.57.01,1.09,2.4,1.34,2.67Z"/>
    </g>
  </g>
</svg>