<?xml version="1.0" encoding="UTF-8"?>
<svg id="Layer_2" data-name="Layer 2" xmlns="http://www.w3.org/2000/svg" viewBox="0 0 216.55 286.53">
  <defs>
    <style>
      .cls-1 {
        fill: #050505;
      }

      .cls-2 {
        fill: #191a18;
      }

      .cls-3 {
        fill: #414141;
      }

      .cls-4 {
        fill: #87722b;
      }

      .cls-5 {
        fill: #f5f5f6;
      }

      .cls-6 {
        fill: #e5e9f1;
      }

      .cls-7 {
        fill: #0f0f0d;
      }

      .cls-8 {
        fill: #dab924;
      }

      .cls-9 {
        fill: #3a3a3a;
      }

      .cls-10 {
        fill: #b7c4d9;
      }

      .cls-11 {
        fill: #fe1417;
      }

      .cls-12 {
        fill: #13140f;
      }

      .cls-13 {
        fill: #fff;
      }

      .cls-14 {
        fill: #c4a025;
      }

      .cls-15 {
        fill: #172680;
      }

      .cls-16 {
        fill: #b7a68b;
      }

      .cls-17 {
        fill: #c71618;
      }

      .cls-18 {
        fill: #802121;
      }

      .cls-19 {
        fill: #232322;
      }

      .cls-20 {
        fill: #0c0c0c;
      }

      .cls-21 {
        fill: #fe1014;
      }

      .cls-22 {
        fill: #fe0c11;
      }

      .cls-23 {
        fill: #f2d621;
      }

      .cls-24 {
        fill: #585858;
      }

      .cls-25 {
        fill: #f0f1f3;
      }

      .cls-26 {
        fill: #fe2327;
      }

      .cls-27 {
        fill: #95a4ca;
      }

      .cls-28 {
        fill: #ad912e;
      }

      .cls-29 {
        fill: #6874af;
      }
    </style>
  </defs>
  <g id="Layer_1-2" data-name="Layer 1">
    <g>
      <rect class="cls-13" x="1.78" y="1.44" width="210" height="284"/>
      <path class="cls-9" d="M216.55,0v286.53H0V4.05C0,3.77,3.77,0,4.06,0h212.49ZM208.43,5.41H5.41v278.42h203.01V5.41Z"/>
      <path class="cls-2" d="M32.48,70.28c.06-.23,2.51-1.23,2.7-3.97.47-6.78-2.41-36.57,4.07-36.57h136.7c1.93,63.1-2.55,127.71-.09,190.66.18,4.71,2.8,8.81,3,13.43.34,7.6-4.53,14.91-2.91,22.97H35.19c-2.53-57.39,3.33-117.53.15-174.61-.27-4.82-2.76-6.06-2.86-6.49-.26-1.1-.26-4.32,0-5.41ZM75.79,35.14c-11.63-.65-23.54.47-35.2,0,.41,21.13-.53,42.39,0,63.54.17,6.74-1.84,8.81,5.41,4.04-.31.71.27,1.84,0,2.7-4.27,13.83-1.85,21.45,0,35.14l-.25,5.18-5.15-2.49c-1.63,4.07,2.66,8.7,2.7,10.83.02,1.17-2.69,4.82-2.71,8.11-.03,6.63,2.99,25.5,2.71,27.03-1.26,6.81-2.67,9.92-2.71,18.92-.01,3.6.05,7.21,0,10.81-.09,6.28-.06,12.64,0,18.92.04,3.59-.18,7.23,0,10.81.09,1.8-.09,3.62,0,5.41,6.26-.32,12.72.47,18.96,0,8.07-.61,11.44-5.42,14.78-5.41,7.44,0,27.14,4.87,36.65,5.41,1.35.08,4.64-2.92,5.41-2.7,4.38,1.2,5.54,3.19,13.53,2.7,5.89-.36,5.09-2.63,5.41-2.7.51-.11,3.98,2.65,6.74,2.65,10.39.03,20.81.08,31.17.06-.13-23.39.15-46.89,0-70.29-.08-12.06-.03-24.2.13-36.29l-.36-1.4c-1.62-.85-4.11.29-5.18-.16-.39-.16-1.33-1.91-2.71-2.7,1.07-6.29,8.42,2.59,8.13-1.36-.36-4.82-5.27-7.22-8.13-12.15,1.55-1.12,4.09-1.62,5.41-2.7,8.11-6.65-1-21.61,0-27.03,1.27-6.84,2.64-9.94,2.71-18.92.03-3.6-.05-7.21,0-10.81.1-7.18.09-14.44,0-21.62-.03-2.69.15-5.43,0-8.11-.1-1.79.09-3.62,0-5.41-6.26.32-12.72-.47-18.96,0-8.07.61-11.44,5.42-14.78,5.41-9.32,0-32.81-12.16-38.36.13-2.92.43-6.45-.65-9.12-.14l-2.71-2.7c2.7.08,5.43-.04,8.12-.01v-2.68s-9.23.3-9.23.3l-1.59,2.4c-3.78-.43-7.22-2.5-10.83-2.7Z"/>
      <path class="cls-12" d="M197.6,200.03l-2.68,6.78c2.29,2.18,4.52-2.6,8.12-.21,9.49,6.3-2.62,21.24-9.51,25.84l-15.05-17.55,5.54-8.23,8.16,1.46-2.7-8.09h8.12Z"/>
      <path class="cls-12" d="M32.48,70.28c-.26,1.09-.26,4.31,0,5.41l-20.11,5.29c-12.93-10.84,5-16.49,6.59-26.91l13.52,16.21Z"/>
      <path class="cls-12" d="M203.01,251.38l-10.82-5.4,2.7,29.72h-13.52c4.74-9.43-.43-30.76,7.98-36.62,6.85-4.78,15.58,4.58,13.66,12.29Z"/>
      <path class="cls-1" d="M29.77,13.52c-4.82,7.88.05,30.27-5.29,33.9-7.06,4.8-16.04-.68-13.65-9.57l10.82,5.4-2.7-29.72h10.82Z"/>
      <rect class="cls-12" x="16.25" y="83.8" width="8.11" height="5.4"/>
      <path class="cls-5" d="M173.24,183.81c.16,23.39-.12,46.89,0,70.29-10.36.03-20.78-.03-31.17-.06-2.75,0-6.23-2.77-6.74-2.65-.48-3.41-3.98-3.97-5.41-5.41s-1.8-5.22-5.41-5.41v-13.52c5.42-2.15,4.04-10.57,6.12-12.97,1.69-1.95,4.11,2.3,4.71-5.95.13-1.79-.11-3.62,0-5.41,2.34-2.06,5.75-1.79,8.12-2.7,5.58-2.15,9.41-5.98,13.53-8.11s5.68-1.93,10.83-5.41c1.65-1.11,3.66-1.77,5.41-2.7ZM162.41,218.96h-10.83s5.41,8.09,5.41,8.09l-8.16-1.47c-11.99,9.22-.72,15.75,7.04,23.01,3.01.67,13.51-9.75,14.32-12.42,2.64-8.74-2.69-14.58-10.48-9.12l2.7-8.1Z"/>
      <path class="cls-5" d="M75.79,35.14c1.43,4.23,4.59,5.97,8.12,8.11,1.58.96.66,2.3,5.41,2.7v16.22c-.25.23.83,3.03-.8,4.62-5.02,4.89-7.1,8.13-10.03,14.3-3.7,7.82-13.08,5.89-16.24,13.52-.87.22-1.91-.24-2.71,0-1.65.51-2.33,2.55-2.71,2.7-3.49,1.37-9.19.72-10.83,5.41-7.26,4.77-5.24,2.7-5.41-4.04-.54-21.15.4-42.41,0-63.54,11.65.48,23.56-.65,35.2,0ZM56.84,62.18c25.3.19,9.4-14.95-1.35-24.32-10.22,7.66-21.66,23.43-1.34,24.31l-2.72,8.1h8.12s-2.71-8.09-2.71-8.09Z"/>
      <path class="cls-25" d="M154.29,35.14c6.23-.47,12.7.32,18.96,0,.08,1.79-.11,3.61,0,5.41h-2.71l-8.12-2.7-2.32,1.66c-.82,4.24-.82,8.65,0,12.91l2.32,1.66c-.45,6.97-.6,6.75,0,13.52-7,5.22-5.34,8.23,0,13.52,2.36,2.34,4.7,4.68,8.11,5.41v-5.41h2.72c-.07,8.98-1.44,12.08-2.71,18.92l-5.41-2.7c-.28-3.56.2-7.24-.01-10.81h-2.68c.59,3-2.42,6-2.72,8.1-3.48-6.71-6.21-5.96-13.53-5.41h-2.71c-.68-2.43-3.32-4.91-2.74-8.13-4.45,2.51-8.4,3.21-13.5,2.73-.89-.08-1.84.15-2.71,0-.46-.08-6.17-2.05-8.12-2.7-1.44-.48-2.25-2.53-2.71-2.7l2.7-1.36v-6.75c-2.68-.08-5.41.09-8.11,0,.77-6.88,4.48-13.78,2.71-21.62,1.72-.24,4.33-2.51,10.83-2.7,1.57,3.8,9.6,2.2,10.04,6.69.25,2.59-3.88,6.02,2.15,9.53l4.05-13.51c.83.22,1.84-.17,2.71,0v10.81s2.7,0,2.7,0c.44-3.44-.59-7.61.01-10.81.2-1.08,1.95-4.48,2.71-5.41,1.61-1.97,7.46-3.53,8.12-8.11ZM138.05,72.98h-5.42s5.41,5.41,5.41,5.41v-5.41s5.42,1.4,5.42,1.4l2.71-4.09-10.83-2.7,2.71,5.4Z"/>
      <path class="cls-25" d="M62.26,200.03c1.77-.15,3.63-.02,5.41,0,.9,0,1.8,0,2.71,0,3.62,3.96,2.42,11.99,0,16.22-.27.47-3.07.86-4.17,2.61-3.55,5.62,2.45,13.68,4.17,19.02.44,1.37-.3,3.72,0,5.41l-10.83,10.81c-6.23.47-12.7-.32-18.96,0-.08-1.79.1-3.61,0-5.41h2.71l6.53,2.58c2.06-.6,1.48-2.47,1.59-2.58,3.73-3.78,3.55-6.06,2.37-11.89l-2.37-1.62c.7-7.3.26-7.67,0-13.52l2.32-1.68.39-11.83,2.99-7.89c1.66-.77,3.44-.08,5.13-.22Z"/>
      <path class="cls-28" d="M54.14,143.26c.3,1.64,2.09,3.64,2.71,5.41-7.2.09-5.6-.25-5.4,8.12,3.91-2.96,5.74-.28,8.11-.01-.28,1.7.42,3.99,0,5.41-.72,2.41-3.82,4.31-2.7,8.12.94.79,2.2-3.02,5.41-.01.61.57.78,2.69,2.71,2.7v2.7c-1.77-.21-2.49,1.11-2.71,2.7-.45,3.26.07,7.31,0,10.81-.02.9,0,1.8,0,2.7v5.41l-8.12-2.7c.21-13.54,1.62-31.59-10.83-40.55-.04-2.13-4.33-6.76-2.7-10.83l5.15,2.49.25-5.18,8.12,2.7Z"/>
      <path class="cls-17" d="M129.93,245.98l-18.92,2.77-.03,5.34c-9.51-.54-29.21-5.41-36.65-5.41-3.33,0-6.71,4.81-14.78,5.41l10.83-10.81c17.57,4.73,37.16,4.29,54.14-2.7,3.62.18,3.99,3.98,5.41,5.41Z"/>
      <path class="cls-17" d="M154.29,35.14c-.66,4.58-6.51,6.14-8.12,8.11-13.03.54-26.3-.71-39.34-.09-5.95.28-10.57,3.39-17.51,2.8-4.75-.41-3.84-1.74-5.41-2.7,3.8,1.93,7.44-2.57,8.12-2.7,2.68-.52,6.2.57,9.12.14,5.54-12.29,29.04-.13,38.36-.13,3.34,0,6.7-4.81,14.78-5.41Z"/>
      <path class="cls-19" d="M54.14,194.62h-2.71c-.22-1.03-1.84-1.94-2.71-2.7-.54-10.27.25-22.25-8.12-29.73.02-3.29,2.73-6.94,2.71-8.11,12.45,8.95,11.04,27,10.83,40.55Z"/>
      <path class="cls-19" d="M165.12,97.31c.82,10.59,2.11,19.47,5.41,29.73-1.32,1.08-3.86,1.58-5.41,2.7-1.74-3-1.78-5.31-2.71-8.11-.53-1.62-2.66-2.47-2.71-2.7-.46-2.28.15-5.5,0-8.11-.28-4.73-.63-11.8,0-16.22.3-2.1,3.31-5.11,2.72-8.1h2.68c.21,3.56-.26,7.25.01,10.81Z"/>
      <path class="cls-6" d="M48.72,191.92c.19,3.58-.14,7.23.01,10.81h2.69c-.3-2.58.52-5.79.01-8.1h2.71l8.12,2.7v2.7c-1.7.14-3.47-.55-5.13.22l-2.99,7.89c.09-2.43-.78-2.35-2.71-2.7-3.05-.55-6.63-.29-8.12,2.7h-2.71c.03-9,1.45-12.11,2.71-18.92,1.57,1.04,4.14,1.58,5.41,2.7Z"/>
      <path class="cls-14" d="M165.12,129.75c2.86,4.93,7.77,7.33,8.13,12.15.28,3.95-7.06-4.92-8.13,1.36-1.73-1-3.72-1.65-5.41-2.7-1.05-2.62-2.99-4.84-2.71-8.11.18-2.1,3.04-9.42,5.41-10.81.92,2.8.97,5.11,2.71,8.11Z"/>
      <path class="cls-17" d="M48.72,191.92c-1.28-1.13-3.84-1.66-5.41-2.7.28-1.53-2.74-20.4-2.71-27.03,8.37,7.49,7.58,19.47,8.12,29.73Z"/>
      <path class="cls-15" d="M167.82,145.97c1.07.45,3.56-.69,5.18.16l.36,1.4c-.16,12.09-.21,24.22-.13,36.29-1.76.93-3.76,1.59-5.41,2.7v-2.7c6.02-13.3-.12-24.44,0-37.84Z"/>
      <path class="cls-6" d="M46.02,121.64c-.12,4.14,2.55,4.84,2.71,5.41.44,1.53-.63,4.24-.09,6.33.66,2.55,5.01,1.02,5.62,3.5.49,2.02-.45,4.53-.11,6.38l-8.12-2.7c-1.85-13.69-4.27-21.31,0-35.14h2.71c4.54,7.78-2.53,9.8-2.71,16.22Z"/>
      <path class="cls-17" d="M170.53,100.01c-1,5.42,8.11,20.38,0,27.03-3.31-10.27-4.59-19.14-5.41-29.73l5.41,2.7Z"/>
      <path class="cls-19" d="M129.93,245.98c1.44,1.44,4.94,1.99,5.41,5.41-.32.07.48,2.34-5.41,2.7l-1.69-2.32-11.84-.39c-.78-.21-4.06,2.78-5.41,2.7l.03-5.34,18.92-2.77Z"/>
      <path class="cls-22" d="M56.84,97.31l.38,6.37,2.33,1.74c-.06.89.11,1.82,0,2.7l-10.83-2.7h-2.71c.27-.87-.31-1.99,0-2.7,1.64-4.69,7.34-4.04,10.83-5.41Z"/>
      <path class="cls-10" d="M143.46,129.75c1.75.97,3.73,1.64,5.41,2.7,3.38,2.14,6.8,5.6,10.83,8.11,1.03,2.57.13,6.04,4.07,8.1h1.34c.2-1.75-.27-3.74.01-5.4,1.38.8,2.32,2.54,2.71,2.7-.12,13.4,6.02,24.54,0,37.84-10.83-7.74-1.08-11.27,0-16.22,1.2-5.52-1.94-6.26-2.71-8.11-.37-.88.69-2.58.06-3.71-1.36-2.44-8.18-.91-5.48-9.82l-5.41,2.72-2.71-2.7c6.91-12.87-10.3-4.59-10.82-5.39v-8.14c-11.65,4.15-9.81-.61-13.54-2.69v-2.7h5.41s-2.7-8.11-2.7-8.11c.9-.05,1.81.07,2.71,0,2.06,9.18,5.87,8.05,10.83,10.81Z"/>
      <path class="cls-9" d="M86.62,37.84c.88.1,1.81-.03,2.71,0l2.71,2.7c-.68.13-4.32,4.63-8.12,2.7-3.53-2.14-6.69-3.88-8.12-8.11,3.61.2,7.04,2.27,10.83,2.7Z"/>
      <path class="cls-6" d="M173.24,70.28h-2.71c0-7.18.15-14.44,0-21.62h2.71c.09,7.18.1,14.45,0,21.62Z"/>
      <path class="cls-25" d="M43.31,229.76c.02,2.7-.05,5.41,0,8.11h-2.71c-.06-6.29-.09-12.64,0-18.92h2.71c0,3.6-.03,7.21,0,10.81Z"/>
      <path class="cls-21" d="M129.93,254.09c-8,.49-9.15-1.5-13.53-2.7l11.84.39,1.69,2.32Z"/>
      <path class="cls-11" d="M86.62,37.84l1.59-2.4,9.23-.3v2.68c-2.69-.03-5.42.09-8.12.01-.89-.03-1.83.1-2.71,0Z"/>
      <path class="cls-23" d="M173.24,81.09h-2.71v-10.81h2.71c-.05,3.6.03,7.21,0,10.81Z"/>
      <path class="cls-16" d="M43.31,240.57c.1,2.69-.06,5.42,0,8.11h-2.71c-.18-3.58.04-7.22,0-10.81h2.71c.02.9-.03,1.8,0,2.7Z"/>
      <path class="cls-23" d="M43.31,210.84v8.11h-2.71c.05-3.6-.01-7.21,0-10.81h2.71v2.7Z"/>
      <path class="cls-23" d="M173.24,48.66h-2.71c-.02-.9.05-1.81,0-2.7-.1-1.79.06-3.62,0-5.41h2.71c.15,2.68-.03,5.42,0,8.11Z"/>
      <path class="cls-28" d="M113.69,200.03c.24.05,1.25,3.09,3.4,2.35,1.27-.43,1.72-2.32,2.01-2.35.89-.09,1.81.07,2.71,0l1.35,2.68,1.35-2.68c1.31.28,4.05,1.86,5.41,2.7,2.07,1.29,3.37,3.93,5.41,5.41-.6,8.25-3.01,4-4.71,5.95-2.08,2.4-.7,10.82-6.12,12.97-2.61,1.04-6.57-2.51-5.42,5.41h-2.69s0-13.52,0-13.52h-8.13c1.19-6.85-4.51-13.06,0-18.91,1.46.41,3.73-.32,5.41,0ZM124.52,210.83l-4.05-5.37-6.77,2.69v2.68s10.82,0,10.82,0Z"/>
      <path class="cls-12" d="M162.41,218.96l-2.7,8.1c7.78-5.47,13.11.38,10.48,9.12-.8,2.67-11.3,13.09-14.32,12.42-7.76-7.26-19.02-13.78-7.04-23.01l8.16,1.47-5.41-8.09h10.83Z"/>
      <path class="cls-17" d="M154.29,148.67l5.41-2.72c-2.7,8.91,4.12,7.38,5.48,9.82.63,1.13-.43,2.83-.06,3.71l-2.57,4.05,5.28,4.05c-1.08,4.95-10.83,8.48,0,16.22v2.7c-5.15,3.48-6.8,3.33-10.83,5.41l-2.33-1.65c-2.66-7.13,1.84-13.73,2.33-19.97.14-1.78-.07-3.61,0-5.41.09-2.59.26-5.59,0-8.11s-.05-4.24-2.71-5.41v-2.7Z"/>
      <path class="cls-14" d="M108.27,218.95h8.13s0,13.51,0,13.51h2.69c-1.14-7.91,2.81-4.37,5.42-5.4v8.11c-8.43,2.8-12.53,4.83-21.65,5.41-2.03-8.09,1.73-15.25,2.71-21.62h2.71ZM108.26,235.16l2.7-9.47-1.32-1.32c-4.19,2.93-4.69,5.78-4.06,10.79h2.69Z"/>
      <path class="cls-19" d="M157,170.29c-.49,6.25-4.99,12.84-2.33,19.97l2.33,1.65c-4.13,2.12-7.96,5.96-13.53,8.11v-2.7c3.68-4.7,3.43-8.93-2.71-10.81.38-.98-.98-3.14.72-4.76,1.82-1.74,6.08,1.15,4.69-6.05-.33-1.73-2-3.65-2.71-5.41,5.88-2.58,7.11-2.24,13.53,0Z"/>
      <path class="cls-9" d="M124.52,235.17v5.41c-16.98,7-36.57,7.43-54.14,2.7-.3-1.68.44-4.04,0-5.41,1.67.31,4.11-.46,5.41,0,2.63.93,2.18,2.24,8.12,2.7,5.76.45,13.13.37,18.95,0,9.12-.57,13.22-2.61,21.65-5.41Z"/>
      <path class="cls-29" d="M135.34,189.22v5.41c0,2.69.16,5.43,0,8.11-.11,1.79.13,3.62,0,5.41-2.04-1.47-3.34-4.12-5.41-5.41v-13.52h2.71c.85-.2,1.91.27,2.71,0Z"/>
      <path class="cls-15" d="M143.46,197.33v2.7c-2.37.91-5.78.64-8.12,2.7.16-2.67,0-5.42,0-8.11l8.12,2.7Z"/>
      <path class="cls-28" d="M89.33,62.17c.52-.47,6.94,1.76,5.43-5.4h2.68s0,13.52,0,13.52c2.7.08,5.43-.11,8.13,0-.24,5.69-2.16,10.33-2.71,16.22h-8.12s0,10.81,0,10.81h-8.12c-.28-5.72,1.89-9.67-2.71-13.52-1.3-1.08-3.87-1.58-5.41-2.7,2.92-6.17,5.01-9.41,10.03-14.3,1.64-1.59.55-4.39.8-4.62ZM97.44,78.4h-8.11v2.68h8.11v-2.68Z"/>
      <path class="cls-7" d="M56.84,62.18l2.71,8.09h-8.12s2.72-8.1,2.72-8.1c-20.33-.88-8.88-16.65,1.34-24.31,10.75,9.36,26.65,24.51,1.35,24.32Z"/>
      <path class="cls-14" d="M110.98,48.66c1.77,7.84-1.94,14.74-2.71,21.62-.9-.03-1.81.03-2.71,0-2.7-.1-5.43.08-8.13,0v-13.52s-2.69,0-2.69,0c1.51,7.16-4.91,4.93-5.43,5.4v-10.81c7.15-1.87,14.75-1.74,21.65-2.7Z"/>
      <path class="cls-15" d="M83.91,83.8v10.81c-5.73,1.7-1.07,14.18-2.72,16.22-5.46-3.17-7.16-7.94-13.52-2.7.33-2.44,0-5.49,0-8.11l6.74,2.71c5.49-4.22,5.49-6.64-.02-10.83-2.42-.57-5.31,2.56-6.72,2.71-1.76.19-3.93-.37-5.41,0,3.16-7.62,12.54-5.7,16.24-13.52,1.54,1.12,4.12,1.62,5.41,2.7Z"/>
      <path class="cls-2" d="M146.17,43.25c-.75.92-2.5,4.33-2.71,5.41h-2.71c-.87-.17-1.87.22-2.71,0-6.47-1.73-8.53-2.94-16.24-2.7-6.5.2-9.1,2.46-10.83,2.7-6.9.96-14.5.84-21.65,2.7v-5.41c6.94.59,11.56-2.51,17.51-2.8,13.04-.62,26.3.63,39.34.09Z"/>
      <path class="cls-19" d="M67.67,94.61v5.41c0,2.62.33,5.67,0,8.11-.12.88.16,1.84,0,2.7-.11.6-4.68,4.29-2.71,8.11-2.7.08-5.42-.06-8.12,0v-5.41l2.7-1.38c.22-1.33-.15-2.72,0-4.03.11-.88-.06-1.81,0-2.7.24-3.57-.16-7.23,0-10.81.8-.24,1.83.22,2.71,0,1.48-.37,3.66.19,5.41,0Z"/>
      <path class="cls-17" d="M59.55,105.42l-2.33-1.74-.38-6.37c.38-.15,1.05-2.2,2.71-2.7-.16,3.59.24,7.24,0,10.81Z"/>
      <path class="cls-4" d="M146.17,89.2c7.32-.56,10.05-1.3,13.53,5.41-.63,4.42-.28,11.49,0,16.22l-2.7,1.36c-.3,3.02-.75,6.02,2.7,6.75.05.23,2.17,1.08,2.71,2.7-2.37,1.39-5.23,8.71-5.41,10.81h-2.71c-1.26-4.09-4.76-9.73-5.41-13.52-.29-1.67.25-3.69,0-5.41-.12-.87.06-1.81,0-2.7s.07-1.81,0-2.7c-.15-2.07.44-4.29-.38-6.36l-2.33-1.75v-10.81Z"/>
      <path class="cls-8" d="M170.53,40.55h-5.41s5.41,5.41,5.41,5.41c.05.9-.02,1.8,0,2.7.15,7.18,0,14.44,0,21.62-2.76,1.25-3.25,3.71-2.62,6.5l2.62,1.61v8.12c-3.42-.73-5.76-3.08-8.12-5.41-.26-4.46.39-9.08,0-13.52-.6-6.77-.45-6.55,0-13.52.34-5.35-.24-10.86,0-16.22l8.12,2.7Z"/>
      <path class="cls-8" d="M108.27,70.28c-.28,2.55-.22,5.4.23,7.94,1.63.88,4.04-.26,5.18.17.46.17,1.26,2.22,2.71,2.7l1.87,2.33,6.25.37c.86.15,1.82-.08,2.71,0v2.7c-3.44,1.05-13.02,6.63-10.83,10.81h-2.71v-10.81s-1.35-.02-1.35-.02l-1.34.02v10.81h-8.13c-.56-3.26,1.53-6.54,1.54-9.41,0-.84-1.55-1.3-1.54-1.4.55-5.89,2.46-10.53,2.71-16.22.9.03,1.81-.03,2.71,0Z"/>
      <path class="cls-29" d="M138.05,48.66l-4.05,13.51c-6.02-3.5-1.9-6.94-2.15-9.53-.44-4.48-8.47-2.89-10.04-6.69,7.71-.23,9.77.98,16.24,2.7Z"/>
      <path class="cls-24" d="M143.46,89.2c.41,1.46-.27,3.7,0,5.41h-2.71l-.03-5.41c-.25-.35-4.69,2.07-5.38,2.7-.32-1.16.35-2.66-.26-3.86l-2.45-1.55c-1.7.28-4.02-.43-5.41,0v-2.7c5.1.48,9.05-.22,13.5-2.73-.58,3.23,2.06,5.7,2.74,8.13Z"/>
      <path class="cls-4" d="M108.27,70.28c2.7.09,5.43-.07,8.12,0v6.75s-2.7,1.36-2.7,1.36c-1.15-.43-3.55.7-5.18-.17-.45-2.54-.51-5.39-.23-7.94Z"/>
      <path class="cls-4" d="M162.41,81.09c-5.34-5.28-7-8.29,0-13.52.39,4.44-.26,9.05,0,13.52Z"/>
      <polygon class="cls-29" points="138.05 72.98 135.33 67.59 146.17 70.29 143.46 74.39 138.05 72.98 138.04 78.4 132.63 72.99 138.05 72.98"/>
      <path class="cls-3" d="M162.41,54.06l-2.32-1.66c-.82-4.25-.82-8.66,0-12.91l2.32-1.66c-.24,5.36.34,10.87,0,16.22Z"/>
      <path class="cls-27" d="M143.46,48.66c-.6,3.2.43,7.36-.01,10.81h-2.69s-.01-10.81-.01-10.81h2.71Z"/>
      <path class="cls-10" d="M124.52,83.8l-6.25-.37-1.87-2.33c1.95.65,7.66,2.62,8.12,2.7Z"/>
      <path class="cls-23" d="M146.17,94.61h-2.71c-.27-1.71.41-3.95,0-5.41h2.71v5.41Z"/>
      <path class="cls-6" d="M83.91,202.73l1.35,2.68,1.35-2.68c.89.11,1.82-.12,2.71,0s1.9-.19,2.71,0l2.71,2.7c.77.37,2.11-.4,2.71,0v13.51c3.55.75,5.28-1.06,8.12-2.7.08.82.12,1.9,0,2.7-.98,6.38-4.73,13.53-2.71,21.62-5.81.37-13.18.45-18.95,0-4.49-5.21,2.34-9.8-4.06-13.49-3.93,2.84-4.76,6.06-4.06,10.79-1.31-.46-3.74.31-5.41,0-1.72-5.33-7.72-13.4-4.17-19.02,1.11-1.75,3.9-2.13,4.17-2.61l8.06,4.06,2.77-4.07-5.42-13.5c2.32.45,5.5-.16,8.12,0Z"/>
      <path class="cls-8" d="M51.43,205.43c.16,5.38-.24,10.84,0,16.22.26,5.85.7,6.21,0,13.52-.42,4.4.28,9.07,0,13.52-.11.11.47,1.98-1.59,2.58l-6.53-2.58h5.41s-5.41-8.11-5.41-8.11c-.03-.9.02-1.8,0-2.7-.05-2.7.02-5.41,0-8.11h5.42c-3.65-5.97,1.03-14.58-5.42-18.92v-2.7c1.49-2.99,5.07-3.25,8.12-2.7Z"/>
      <path class="cls-8" d="M92.03,164.89l-2.71,5.41c-3.28.99-2.08,4.1-2.71,5.41-.51,1.07-2.31,4.73-2.71,5.41-1.11,1.87-3.32,4.57-5.41,8.11-.37.63-2.01,1.28-2.71,2.7-.56,1.14-2.09.45-2.71,5.41-.09.72-.19,2.04,0,2.7h-2.71c-.9,0-1.8,0-2.71,0-.35-1.6.52-4.37,0-5.41,1.67-.26,1.95-1.64,2.71-2.7,2.87-4.06,3.66-7.75,5.41-10.81.45-.79,4.43-1.27,5.41-5.41.36-1.49-.18-3.66,0-5.41.46.18,2.22.16,2.71,0,2.73-.9,3.21-3.95,5.41-5.41.83.15,1.84,0,2.71,0Z"/>
      <path class="cls-27" d="M75.79,202.73l5.42,13.5-2.77,4.07-8.06-4.06c2.42-4.23,3.62-12.25,0-16.22h2.71c.59,2.05.16,2.21,2.71,2.7Z"/>
      <path class="cls-9" d="M54.14,208.14l-.39,11.83-2.32,1.68c-.24-5.38.16-10.83,0-16.22,1.93.35,2.8.27,2.71,2.7Z"/>
      <path class="cls-9" d="M51.43,248.68c.28-4.45-.42-9.11,0-13.52l2.37,1.62c1.18,5.84,1.36,8.11-2.37,11.89Z"/>
      <path class="cls-4" d="M67.67,194.62c.52,1.03-.35,3.8,0,5.41-1.78-.02-3.65-.15-5.41,0v-8.11c1.23.91,5.09,2.06,5.41,2.7Z"/>
      <path class="cls-29" d="M56.84,148.67c.9-.01,2.05-.2,2.71,0,2.49.74,1.9,1.61,2.71,2.7,1.1,1.48,1.65,3.76,2.71,5.41-1.64-.29-3.66.2-5.41,0-2.37-.27-4.2-2.94-8.11.01-.2-8.37-1.79-8.03,5.4-8.12Z"/>
      <path class="cls-19" d="M64.96,156.78c2.92.52,5.66.85,8.12,2.7-.28.71.21,1.79,0,2.7-4.81-1.36-5.72,2.01-8.12,5.41l-5.41-5.41c.42-1.42-.28-3.71,0-5.41,1.76.2,3.77-.29,5.41,0Z"/>
      <path class="cls-3" d="M64.96,167.59c-.75,1.05-.99,2.46-2.71,2.7-3.2-3.01-4.46.8-5.41.01-1.12-3.81,1.98-5.71,2.7-8.12l5.41,5.41Z"/>
      <path class="cls-24" d="M70.38,173c1.7,6.84-4.79,5.04-5.41,8.11-.54,2.67,1.34,5.79,2.71,8.11h-5.41c.07-3.5-.45-7.55,0-10.81l2.71-2.7v-2.7h5.41Z"/>
      <path class="cls-10" d="M59.55,148.67c-.66-.2-1.8-.01-2.71,0-.62-1.76-2.41-3.77-2.71-5.41l2.71-2.7h2.71c-.17,2.68.11,5.42,0,8.11Z"/>
      <path class="cls-27" d="M67.67,189.22c.72,1.22.97,2.5,2.71,2.7-.75,1.07-1.04,2.44-2.71,2.7-.32-.64-4.18-1.79-5.41-2.7,0-.9-.02-1.8,0-2.7h5.41Z"/>
      <path class="cls-29" d="M73.09,162.19c-.35,1.55.24,3.67,0,5.41h-5.41c-.94.8,2.26,3.61,2.71,5.41h-5.41c-1.93-.02-2.1-2.13-2.71-2.7,1.72-.24,1.96-1.65,2.71-2.7,2.4-3.4,3.31-6.77,8.12-5.41Z"/>
      <path class="cls-6" d="M62.26,178.4c.22-1.59.94-2.92,2.71-2.7l-2.71,2.7Z"/>
      <path class="cls-15" d="M51.43,194.62c.51,2.31-.31,5.53-.01,8.1h-2.69c-.15-3.58.18-7.23-.01-10.81.87.77,2.48,1.68,2.71,2.7Z"/>
      <path class="cls-14" d="M159.7,118.94c-3.45-.73-3-3.73-2.7-6.75l2.7-1.36c.15,2.61-.46,5.83,0,8.11Z"/>
      <path class="cls-29" d="M165.12,143.26c-.28,1.66.19,3.65-.01,5.4h-1.34c-3.93-2.07-3.04-5.54-4.07-8.11,1.69,1.05,3.68,1.7,5.41,2.7Z"/>
      <path class="cls-15" d="M154.29,132.45h2.71c-.28,3.26,1.66,5.48,2.71,8.11-4.02-2.51-7.45-5.97-10.83-8.11h5.41Z"/>
      <path class="cls-17" d="M59.55,108.12c-.16,1.31.21,2.69,0,4.03l-2.7,1.38-2.68-2.73c.23,5.36-.43,10.9-.03,16.24.38,5.07,1.67,8.74,2.71,13.52l-2.71,2.7c-.34-1.86.6-4.37.11-6.38-.61-2.49-4.96-.95-5.62-3.5-.54-2.1.53-4.8.09-6.33l2.69-1.35-5.39-4.06c.18-6.42,7.25-8.44,2.71-16.22l10.83,2.7Z"/>
      <path class="cls-29" d="M48.72,127.04c-.16-.56-2.82-1.27-2.71-5.41l5.39,4.06-2.69,1.35Z"/>
      <path class="cls-27" d="M167.82,167.59l-5.28-4.05,2.57-4.05c.77,1.85,3.91,2.59,2.71,8.11Z"/>
      <path class="cls-4" d="M43.31,210.84c6.46,4.34,1.77,12.95,5.42,18.91h-5.42c-.03-3.59,0-7.2,0-10.8v-8.11Z"/>
      <path class="cls-19" d="M170.53,78.39l-2.62-1.61c-.63-2.79-.14-5.25,2.62-6.5v8.11Z"/>
      <path class="cls-4" d="M43.31,240.57l5.41,8.1h-5.41c-.06-2.68.1-5.41,0-8.1Z"/>
      <path class="cls-4" d="M170.53,40.55c.06,1.79-.1,3.61,0,5.41l-5.41-5.4h5.41Z"/>
      <path class="cls-19" d="M127.22,170.29c.89.1,1.82-.1,2.71,0v32.44c-1.36-.84-4.11-2.42-5.41-2.7-.76-.16-1.9-.06-2.71,0-.9.07-1.82-.09-2.71,0v-2.7h8.12c.97-.82-2.35-3.54-2.71-5.41-.17-.91.23-1.93,0-2.7-1.07-3.6,2.45-3.83-3.7-5.49-3.65-.98,1.96-5.18.99-8.02l-8.11,8.1c1.65-8.33-1.35-8.04-8.12-10.81l-2.72,13.51,16.24,2.71c-6.64,0-17.63-2.1-21.65,2.7-.51.26-5.91,6.87-8.12,8.11v2.7c-.89-.12-1.82.11-2.71,0s-1.81.06-2.71,0c-2.62-.16-5.8.45-8.12,0-2.55-.49-2.12-.66-2.71-2.7-.19-.66-.09-1.98,0-2.7h2.71c5.7,7.62,10.4-5.84,13.53-10.81.35-.55,1.81-1.26,2.71-2.7,3.87-1.15,5.74-4.06,5.41-8.11,2.43-2.54,5.64-5.22,8.12-8.11,7.2.94,14.42,1.86,21.65,2.7Z"/>
      <path class="cls-8" d="M105.57,197.33c.29.9,1.8,2.45,2.71,2.7-4.51,5.85,1.19,12.06,0,18.92h-2.71c.12-.81.08-1.88,0-2.7-.62-6.76-3.07-7.49-8.12-10.81-.6-.4-1.94.37-2.71,0-.17-.08.38-2-2.71-2.7-.81-.19-1.79.12-2.71,0v-2.7c5-.74,9.18.4,13.52,2.7v-10.81c.9-.1,1.82.06,2.72,0,.3,1.68-.44,4.03,0,5.41Z"/>
      <path class="cls-8" d="M119.1,191.92v8.11c-.29.03-.74,1.92-2.01,2.35-2.15.73-3.16-2.31-3.4-2.35v-8.11h5.41Z"/>
      <polygon class="cls-8" points="124.52 210.83 113.69 210.83 113.69 208.15 120.46 205.46 124.52 210.83"/>
      <path class="cls-19" d="M113.69,197.33v2.7c-1.68-.32-3.95.41-5.41,0-.9-.26-2.42-1.81-2.71-2.7h8.12Z"/>
      <path class="cls-8" d="M121.81,200.03c.8-.06,1.95-.16,2.71,0l-1.35,2.68-1.35-2.68Z"/>
      <path class="cls-8" d="M154.29,151.37c2.66,1.16,2.45,2.99,2.71,5.41l-10.82,2.72-.02,1.34.02,1.34,10.82,2.72c-.07,1.79.14,3.63,0,5.41-6.43-2.24-7.66-2.58-13.53,0-1.28.56-5.22,2.32-5.41,2.7l-1.49-2.56c-1.25-.52-2.69.06-3.92-.14-.88-.14-1.82.1-2.71,0s-1.82.1-2.71,0v-2.7c.89.06,1.81,0,2.71,0,1.75,0,3.89.29,5.41,0,4.94-.94,5.7-.17,8.12-5.41,1.31-2.83,3.14-7.62,5.96-10.22,1.36-1.26,3.19-.71,4.87-.59Z"/>
      <path class="cls-9" d="M140.76,143.26l-2.71,10.81h5.42s0-8.11,0-8.11c2.16.58,5.62-.39,8.12,0l2.71,2.7v2.7c-1.68-.12-3.51-.66-4.87.59-2.82,2.6-4.65,7.39-5.96,10.22-5.43-.21-4.92-7.59-5.41-8.11-.35-.37-3.82.15-5.41,0-.89-.09-1.81.04-2.71,0s-1.81.03-2.71,0c-1.8-.06-3.61,0-5.41,0h-5.41l10.81-2.76.02-5.35v-2.7c1.74,1.4,2.94,3.04,2.72,5.4h2.68s.01-8.1.01-8.1c3.02,1.28,5.58,1.74,8.12,2.7Z"/>
      <path class="cls-9" d="M157,156.78c.26,2.52.09,5.52,0,8.11l-10.82-2.72-.02-1.34.02-1.34,10.82-2.72Z"/>
      <path class="cls-28" d="M108.26,235.16h-2.69c-.63-5.01-.13-7.86,4.06-10.79l1.32,1.32-2.7,9.47Z"/>
      <path class="cls-6" d="M143.46,197.33l-8.12-2.7v-5.41c2.38-.81,2.14-2.21,2.71-2.7.46-.4,2.55.41,2.71,0,6.14,1.89,6.38,6.12,2.71,10.81Z"/>
      <path class="cls-10" d="M132.64,170.29v5.41s5.41-2.7,5.41-2.7c-.41.81.07,3.76,0,5.41,2.42-.69,4.99-3.02,8.12-2.7,1.39,7.21-2.88,4.32-4.69,6.05-1.7,1.62-.34,3.78-.72,4.76-.16.41-2.25-.4-2.71,0,.08-2.7-.12-5.42,0-8.11-1.37.39-3.6-.51-5.29.06l-.12,10.75h-2.71v-18.92c.89.1,1.83-.14,2.71,0Z"/>
      <path class="cls-27" d="M146.17,175.7c-3.13-.32-5.7,2.02-8.12,2.7.07-1.65-.41-4.59,0-5.41.19-.39,4.14-2.14,5.41-2.7.71,1.76,2.37,3.67,2.71,5.41Z"/>
      <path class="cls-15" d="M83.91,240.57c-5.94-.47-5.49-1.77-8.12-2.7-.7-4.73.13-7.95,4.06-10.79,6.4,3.7-.43,8.28,4.06,13.49Z"/>
      <path class="cls-15" d="M138.05,178.4c-.12,2.69.08,5.41,0,8.11-.56.5-.33,1.89-2.71,2.7-.79.27-1.86-.2-2.71,0l.12-10.75c1.69-.58,3.92.33,5.29-.06Z"/>
      <path class="cls-2" d="M86.62,97.31c.22,4.48-.18,9.04,0,13.53,1.8.04,3.61-.03,5.41-.01,9.29.11,2.4-4.92,8.11-5.4-2.27,15.55,13.55,7.7,10.84-2.71v-2.7c1.26-.13,2.69.37,3.92-.16l1.5-2.55c-2.2-4.18,7.38-9.76,10.83-10.81,1.4-.43,3.72.28,5.41,0-3.93,6.66-10.63,12.79-14.87,19.03-1.42,2.09-.95,4.65-1.37,5.29-1.6,2.46-2.03,4.31-2.71,5.41-.98,1.58-3.67,4.85-5.41,5.41-.84-.21-1.93.29-2.71,0-8.32-3.07-11.74-5.06-21.65-5.41v-32.44c4.6,3.84,2.42,7.8,2.71,13.52Z"/>
      <path class="cls-18" d="M110.98,100.01v2.7h-21.65s2.71,8.11,2.71,8.11c-1.8-.02-3.62.05-5.41.01-.18-4.48.22-9.04,0-13.53h2.71c3.53,4.34,15.76,3.3,21.65,2.7Z"/>
      <path class="cls-26" d="M94.74,97.31h21.65l-1.5,2.55c-1.22.53-2.66.03-3.92.16-5.9.6-18.12,1.64-21.65-2.7h5.41Z"/>
      <polygon class="cls-8" points="100.15 86.5 100.15 97.31 94.74 97.31 94.74 86.49 100.15 86.5"/>
      <path class="cls-3" d="M102.86,97.31h-2.71v-10.81h2.71c0,.1,1.54.56,1.54,1.4,0,2.87-2.1,6.15-1.54,9.41Z"/>
      <rect class="cls-23" x="89.33" y="78.4" width="8.11" height="2.68"/>
      <path class="cls-10" d="M83.91,116.23c-.89-.03-1.82-.05-2.71,0-2.29-5.09-7.18-4.37-11.8-3.26l-1.74-2.15c.16-.87-.12-1.82,0-2.7,6.37-5.24,8.06-.46,13.52,2.7,1.65-2.03-3.01-14.52,2.72-16.22v21.62Z"/>
      <path class="cls-5" d="M67.67,100.01v-5.41c1.4-.16,4.3-3.28,6.72-2.71,5.51,4.2,5.51,6.62.02,10.83l-6.74-2.71Z"/>
      <path class="cls-14" d="M81.21,116.23c.89-.05,1.82-.03,2.71,0,9.91.35,13.33,2.34,21.65,5.41-1.32.3-2.2,2.52-2.71,2.7-1.19.42-3.54-.69-5.18.16l-.24,10.65c-1.8-.03-3.61,0-5.41,0l-1.36-13.53c-7.17.09-7.39,7.28-6.76,13.53h-5.41v-13.51c-5.87-1.97-6.23,4.11-8.12,5.4-.3.21-1.85.04-2.71,0-3.79-.2-7.07-2.37-10.83-2.7v-5.41c2.7-.06,5.42.08,8.12,0,6.26-.2,12.14-2.47,16.24-2.7Z"/>
      <path class="cls-29" d="M81.21,116.23c-4.1.23-9.98,2.51-16.24,2.7-1.97-3.82,2.6-7.51,2.71-8.11l1.74,2.15c4.61-1.11,9.51-1.84,11.8,3.26Z"/>
      <path class="cls-4" d="M56.84,113.53v13.52h-2.71c-.4-5.34.26-10.88.03-16.24l2.68,2.73Z"/>
      <path class="cls-29" d="M148.88,118.94c-3.9,1.91-5.08,6.71-5.41,10.81-4.96-2.76-8.77-1.63-10.83-10.81,2.61-.2,5.87.49,8.12,0,2.13-.46,2.15-.53,2.71-2.7l5.41-2.7c.25,1.72-.29,3.73,0,5.41Z"/>
      <path class="cls-19" d="M154.29,132.45h-5.41c-1.68-1.07-3.67-1.73-5.41-2.7.34-4.1,1.51-8.9,5.41-10.81.65,3.78,4.16,9.43,5.41,13.52Z"/>
      <path class="cls-17" d="M146.17,94.61v13.52c-1.73.25-3.89-.37-5.41,0v-13.52h5.41Z"/>
      <path class="cls-27" d="M146.17,108.12h2.71c.07.9-.06,1.81,0,2.7l-5.31.12c-.63,1.7.26,3.88-.1,5.29-.56,2.18-.58,2.24-2.71,2.7l-2.71-8.11c.6-1.07,1.53-2.42,2.71-2.7,1.53-.37,3.69.25,5.41,0Z"/>
      <path class="cls-18" d="M148.88,108.12h-2.71v-8.11l2.33,1.75c.82,2.07.23,4.29.38,6.36Z"/>
      <path class="cls-20" d="M148.88,110.83c.06.89-.12,1.83,0,2.7l-5.41,2.7c.36-1.41-.53-3.59.1-5.29l5.31-.12Z"/>
      <polygon class="cls-9" points="113.69 97.31 110.98 97.31 110.99 86.5 112.33 86.49 113.68 86.5 113.69 97.31"/>
      <path class="cls-14" d="M135.34,91.9c-3.3,3.02-2.36,4.98-2.71,5.41-.68.82-1.94,1.34-2.71,2.7-.22.4-2.19.63-2.71,2.7-.13.53-.2,2.25,0,2.7l-3.66.36-7.16,5.04c.42-.65-.05-3.2,1.37-5.29,4.24-6.24,10.94-12.37,14.87-19.03l2.45,1.55c.6,1.2-.07,2.7.26,3.86Z"/>
      <path class="cls-20" d="M140.76,94.61v2.7h-2.71l-2.26-1.59c-.57-1.19-.11-2.64-.45-3.82.69-.63,5.14-3.06,5.38-2.7l.03,5.41Z"/>
      <path class="cls-4" d="M105.57,216.25c-2.84,1.64-4.57,3.45-8.12,2.7v-13.51c5.05,3.32,7.5,4.06,8.12,10.81Z"/>
      <path class="cls-27" d="M94.74,205.43l-2.71-2.7c3.09.7,2.53,2.62,2.71,2.7Z"/>
      <path class="cls-27" d="M83.91,202.73c.9.06,1.82-.11,2.71,0l-1.35,2.68-1.35-2.68Z"/>
      <path class="cls-27" d="M97.45,156.78c.4.9,2.41,4.93,2.71,5.41-2.65.8-4.43,2.69-8.12,2.7-.86,0-1.88.15-2.71,0-.51-.09-3.69-4.61-8.12-2.69l2.71,8.1c-.48.16-2.25.18-2.71,0-1.52-.59-3.8-4.48-8.12-2.7l2.71,13.52h-10.83c.62-3.07,7.11-1.27,5.41-8.11-.45-1.79-3.64-4.6-2.71-5.4h5.41c.24-1.74-.35-3.86,0-5.42.21-.91-.28-1.99,0-2.7.07-.18,2.55-2.59,2.71-2.7,8.61-6.13,11.03,6.49,21.65,0Z"/>
      <path class="cls-16" d="M105.57,167.59c-2.48,2.89-5.69,5.57-8.12,8.11-4.7,4.9-3.18,4.5-5.41,8.11-.89,1.44-2.36,2.15-2.71,2.7h-2.71v-4.04s-2.71-1.36-2.71-1.36c.4-.67,2.19-4.34,2.71-5.41l1.49,1.75,3.92-3.12-2.7-4.04,2.71-5.41c3.69-.01,5.47-1.9,8.12-2.7,1.36,2.17,3.82,3.44,5.41,5.41Z"/>
      <path class="cls-17" d="M75.79,181.11c-1.76,3.06-2.55,6.75-5.41,10.81-1.73-.2-1.99-1.48-2.71-2.7-1.36-2.32-3.25-5.44-2.71-8.11h10.83Z"/>
      <path class="cls-19" d="M83.91,189.22c-.86.76-1.86,1.84-2.71,2.7l-2.71-2.7c2.09-3.54,4.3-6.24,5.41-8.11v8.11Z"/>
      <path class="cls-20" d="M86.62,175.7c.63-1.3-.57-4.42,2.71-5.41l2.7,4.04-3.92,3.12-1.49-1.75Z"/>
      <path class="cls-18" d="M89.33,164.89c-2.21,1.45-2.68,4.51-5.41,5.41l-2.71-8.1c4.43-1.92,7.61,2.6,8.12,2.69Z"/>
      <path class="cls-1" d="M78.5,194.62c-.78.82-1.13,2.4-2.71,2.7h-2.71c.61-4.96,2.15-4.27,2.71-5.41l2.71,2.7Z"/>
      <path class="cls-11" d="M81.21,170.29c-.18,1.75.36,3.91,0,5.41h-5.41c-.72-5.69-.28-6.1,5.41-5.41Z"/>
      <path class="cls-6" d="M81.21,191.92c-.89.9-1.85,1.81-2.71,2.7l-2.71-2.7c.7-1.42,2.33-2.07,2.71-2.7l2.71,2.7Z"/>
      <path class="cls-18" d="M81.21,170.29c-5.69-.69-6.13-.29-5.41,5.4h5.41c-.99,4.14-4.96,4.62-5.41,5.41l-2.71-13.52c4.32-1.78,6.6,2.12,8.12,2.7Z"/>
      <path class="cls-17" d="M64.96,140.56c5.39,1.69,10.78,6.27,16.24,8.11,1.28.43,3.68-.23,5.41,0,2.6.35,2.2,1.42,8.12,0,2.06,2.27,1.75,5.94,2.71,8.11-10.63,6.49-13.04-6.13-21.65,0l-2.18-1.94-.55-6.18-10.81,2.71c-.81-1.09-.22-1.96-2.71-2.7.11-2.69-.17-5.43,0-8.11,1.69.29,4.03-.43,5.41,0Z"/>
      <path class="cls-10" d="M62.26,151.37l10.81-2.71.55,6.18,2.18,1.94c-.16.11-2.64,2.52-2.71,2.7-2.46-1.86-5.2-2.18-8.12-2.7-1.05-1.64-1.6-3.92-2.71-5.41Z"/>
      <path class="cls-14" d="M56.84,127.04l.13,5.35,10.7-2.65c.16.87-.22,1.87,0,2.7l-7.86,3.04c-.82,1.64-.16,3.39-.26,5.07h-2.71c-1.04-4.77-2.33-8.44-2.71-13.52h2.71Z"/>
      <path class="cls-17" d="M119.1,189.22l-16.24-2.71,2.72-13.51c6.77,2.77,9.77,2.48,8.12,10.81l8.11-8.1c.96,2.85-4.64,7.04-.99,8.02,6.15,1.66,2.63,1.88,3.7,5.49-1.8,0-3.61,0-5.41,0Z"/>
      <path class="cls-23" d="M108.27,154.08v10.81s8.12.02,8.12.02v-10.83h2.71l3.01,13.3c1.66.73,3.42.1,5.11.22v2.7c-7.24-.84-14.46-1.77-21.65-2.7-1.59-1.97-4.05-3.24-5.41-5.41,1.3-.39,3.53.75,5.16-.23l.25-7.88h2.71Z"/>
      <path class="cls-4" d="M102.86,191.92v10.81c-4.36-2.3-8.54-3.45-13.53-2.7,2.21-1.24,7.61-7.85,8.12-8.11.88-.45,3.71.19,5.41,0Z"/>
      <path class="cls-16" d="M119.1,189.22c1.8,0,3.61,0,5.41,0,.23.78-.17,1.79,0,2.7h-10.83c-.9,0-1.81-.01-2.71,0-1.8.03-3.63-.11-5.41,0-.9.06-1.82-.1-2.71,0-1.7.19-4.54-.45-5.41,0,4.02-4.8,15.02-2.71,21.65-2.7Z"/>
      <path class="cls-8" d="M75.79,197.33c1.57-.3,1.93-1.89,2.71-2.7.86-.9,1.82-1.8,2.71-2.7s1.85-1.94,2.71-2.7c.94-.83,2.27-1.32,2.71-2.7h2.71c-3.13,4.97-7.84,18.43-13.53,10.81Z"/>
      <path class="cls-4" d="M124.52,191.92c.35,1.86,3.68,4.58,2.71,5.4h-8.12s0-5.4,0-5.4h5.41Z"/>
      <path class="cls-8" d="M92.03,183.81c2.24-3.61.71-3.2,5.41-8.11.32,4.05-1.54,6.96-5.41,8.11Z"/>
      <path class="cls-28" d="M110.98,191.92l2.71,2.7v2.7h-8.12c-.44-1.38.3-3.72,0-5.41,1.79-.11,3.62.03,5.41,0Z"/>
      <path class="cls-19" d="M113.69,194.62l-2.71-2.7c.9-.01,1.8,0,2.71,0v2.7Z"/>
      <path class="cls-17" d="M127.22,129.75c3.73,2.07,1.89,6.83,13.53,2.69v8.14c.53.79,17.74-7.48,10.83,5.39-2.5-.39-5.96.58-8.12,0-.35-.09-1.27-2.16-2.71-2.7-2.55-.96-5.1-1.42-8.12-2.7-.55-.23-1.87-1.91-3.87-2.85-3.05-1.43-7.2-1.44-9.67-2.55-2.12-.95-1.8-1.51-2.71-2.7,2.78,1.06,4.89-2.54,5.41-2.7.81-.25,5.03-.22,5.41,0Z"/>
      <path class="cls-16" d="M127.22,105.42c.08.18,3.25-.09,2.71,2.7-.41.22-.92,1.99-2.71,2.7-4.36,1.73-4.92-3.64-5.41,5.41-.15,2.69.05,5.43,0,8.12h5.42c-.19.84.14,1.81,0,2.69v2.7c-.39-.22-4.61-.25-5.41,0l-1.75-2.32c-2.09-.75-4.24-.34-6.37-.38-.64-3.11.44-7.42,0-10.81.68-1.09,1.11-2.95,2.71-5.41l7.16-5.04,3.66-.36Z"/>
      <path class="cls-18" d="M129.93,118.94l2.7,8.11h-5.41c.14-.87-.19-1.85,0-2.7.91-4.18,1.99-3.92,2.71-5.41Z"/>
      <path class="cls-17" d="M138.05,154.08c.49.52-.02,7.9,5.41,8.11-2.42,5.24-3.18,4.47-8.12,5.41-2.74-4.03-3.14-8.77-2.71-13.52,1.6.15,5.06-.37,5.41,0Z"/>
      <path class="cls-18" d="M121.81,154.08v8.1c1.8.02,3.62.02,5.41,0v-8.1c.91.03,1.81-.04,2.71,0v13.52c-.9,0-1.82.06-2.71,0-1.69-.12-3.45.51-5.11-.22l-3.01-13.3h2.71Z"/>
      <path class="cls-23" d="M135.34,167.59c-1.52.29-3.67,0-5.41,0v-13.52c.9.04,1.82-.09,2.71,0-.43,4.75-.03,9.49,2.71,13.52Z"/>
      <path class="cls-15" d="M138.05,173l-5.4,2.7v-5.41c1.22.2,2.66-.38,3.91.14l1.49,2.56Z"/>
      <path class="cls-28" d="M143.46,145.97v8.12s-5.41,0-5.41,0l2.71-10.81c1.44.54,2.36,2.61,2.71,2.7Z"/>
      <path class="cls-17" d="M110.98,102.72c2.72,10.41-13.11,18.26-10.84,2.71-5.71.49,1.18,5.51-8.11,5.4l-2.71-8.1h21.65Z"/>
      <path class="cls-14" d="M113.69,127.04c-1.8-.04-3.61.02-5.41,0v-5.41c1.75-.56,4.44-3.83,5.41-5.41.44,3.39-.64,7.71,0,10.81Z"/>
      <path class="cls-23" d="M108.27,121.64v13.52c-.87-.12-1.81.05-2.71,0l-.39-9.06-2.32-1.76c.51-.18,1.39-2.4,2.71-2.7.78.29,1.87-.21,2.71,0Z"/>
      <path class="cls-2" d="M78.5,135.15h5.41c2.71,0,5.41,0,8.12,0,1.8,0,3.61-.03,5.41,0,2.7.05,5.43-.14,8.12,0,.89.05,1.83-.12,2.71,0,1.6.22,2.83.96,2.71,2.7-8.84-.47-18.19-.15-27.07,0-.9.02-1.81-.02-2.71,0s-1.81-.03-2.71,0l-3.92-.14-1.49-2.56h5.41Z"/>
      <path class="cls-17" d="M83.91,135.15c-.63-6.25-.41-13.43,6.76-13.53l1.36,13.53c-2.71,0-5.41,0-8.12,0Z"/>
      <path class="cls-17" d="M102.86,124.34l2.32,1.76.39,9.06c-2.69-.14-5.42.05-8.12,0l.24-10.65c1.64-.85,3.99.26,5.18-.16Z"/>
      <path class="cls-19" d="M70.38,127.04c1.89-1.3,2.25-7.37,8.12-5.4v13.51s-5.41,0-5.41,0l-.43-6.32-2.27-1.78Z"/>
      <path class="cls-19" d="M67.67,127.04v2.7l-10.7,2.65-.13-5.35v-2.7c3.76.33,7.04,2.5,10.83,2.7Z"/>
      <path class="cls-8" d="M73.09,135.15l1.49,2.56,3.92.14c-2.89.11-1.49.95-8.12,0-.7-1.8-2.25-3.65-2.71-5.41-.22-.84.16-1.83,0-2.7v-2.7c.86.04,2.4.21,2.71,0l2.27,1.78.43,6.32Z"/>
      <path class="cls-17" d="M138.05,110.83l2.71,8.11c-2.25.49-5.51-.2-8.12,0-.9.07-1.81-.05-2.71,0,2.5-5.21,4.53-6.5,5.41-8.11h2.71Z"/>
      <path class="cls-9" d="M140.76,108.12c-1.17.28-2.1,1.63-2.71,2.7h-2.71c.51-.93-.35-3.73,0-5.41,1.78-.95,3.6-1.82,5.41-2.7v5.41Z"/>
      <path class="cls-23" d="M140.76,102.72c-1.81.89-3.63,1.75-5.41,2.7.34-1.67-.44-4.03,0-5.41.06-.18,2.82-.88,2.71-2.7h2.71v5.41Z"/>
      <path class="cls-19" d="M135.34,100.01c-.44,1.38.34,3.74,0,5.41-1.78.95-3.64,1.75-5.41,2.7.55-2.79-2.63-2.53-2.71-2.7-.2-.45-.13-2.17,0-2.7l2.71-2.7c.76-1.37,2.03-1.88,2.71-2.7l2.71,2.7Z"/>
      <path class="cls-10" d="M138.05,97.31c.11,1.82-2.65,2.52-2.71,2.7l-2.71-2.7c.35-.43-.59-2.39,2.71-5.41.33,1.18-.12,2.63.45,3.82l2.26,1.59Z"/>
      <path class="cls-16" d="M127.22,102.72c.52-2.08,2.48-2.3,2.71-2.7l-2.71,2.7Z"/>
      <path class="cls-18" d="M127.22,145.97l-.02,5.35-10.81,2.76v10.83s-8.12-.02-8.12-.02v-10.81s5.41,0,5.41,0v-2.68s-6.69.08-6.69.08l-1.43,2.62-.25,7.88c-1.64.98-3.86-.16-5.16.23-.3-.47-2.31-4.51-2.71-5.41-.96-2.17-.65-5.84-2.71-8.11.23-.06.81-2.25,3.93-2.72,8.67-1.31,19.52.93,28.55.02Z"/>
      <path class="cls-29" d="M86.62,186.51c-.44,1.39-1.77,1.87-2.71,2.7v-8.11l2.7,1.36v4.04Z"/>
      <path class="cls-24" d="M116.39,140.56c.9.06,1.83-.11,2.71,0,2.73.35,5.97.98,8.12,2.7v2.7c-9.03.91-19.88-1.33-28.55-.02-3.12.47-3.7,2.67-3.93,2.72-5.92,1.42-5.52.35-8.12,0l-2.71-8.11c10.75.48,21.76-.69,32.48,0Z"/>
      <path class="cls-4" d="M70.38,137.86c6.63.95,5.23.11,8.12,0,.9-.03,1.81.02,2.71,0v10.81c-5.46-1.84-10.85-6.42-16.24-8.11l1.57-2.5c1.27-.27,2.55-.39,3.84-.21Z"/>
      <path class="cls-9" d="M70.38,137.86c-1.29-.19-2.58-.06-3.84.21l-1.57,2.5c-1.39-.43-3.72.29-5.41,0,.11-1.68-.56-3.43.26-5.07l7.86-3.04c.45,1.76,2.01,3.61,2.71,5.41Z"/>
      <path class="cls-14" d="M83.91,140.56l2.71,8.11c-1.74-.23-4.13.43-5.41,0v-10.81c.9-.02,1.8.02,2.71,0v2.7Z"/>
      <polygon class="cls-9" points="105.57 154.08 107 151.46 113.68 151.38 113.69 154.07 108.27 154.08 105.57 154.08"/>
      <path class="cls-4" d="M132.64,140.56v8.1s-2.69,0-2.69,0c.22-2.36-.98-4-2.72-5.4-2.15-1.73-5.39-2.36-8.12-2.7v-5.41c2.47,1.11,6.62,1.12,9.67,2.55,1.99.94,3.32,2.62,3.87,2.85Z"/>
      <path class="cls-18" d="M113.69,127.04c.22,1.05,1.97,4.43,2.71,5.41.91,1.2.59,1.75,2.71,2.7v5.41c-.88-.11-1.81.06-2.71,0l-1.6-2.32c-1.24-.46-2.53-.31-3.81-.38.12-1.75-1.1-2.48-2.71-2.7v-8.11c1.8.02,3.61-.04,5.41,0Z"/>
      <path class="cls-10" d="M121.81,129.75c-.53.16-2.64,3.77-5.41,2.7-.74-.98-2.49-4.35-2.71-5.41,2.13.04,4.28-.37,6.37.38l1.75,2.32Z"/>
      <path class="cls-8" d="M135.34,110.83c-.88,1.61-2.91,2.9-5.41,8.11-.71,1.49-1.8,1.23-2.71,5.41h-5.42c.06-2.68-.14-5.42,0-8.11h5.42s0-5.41,0-5.41c1.79-.71,2.3-2.48,2.71-2.7,1.78-.95,3.64-1.76,5.41-2.7-.35,1.67.51,4.48,0,5.41Z"/>
      <path class="cls-19" d="M127.22,110.83v5.41s-5.41,0-5.41,0c.49-9.05,1.05-3.68,5.41-5.41Z"/>
      <path class="cls-17" d="M127.22,154.08v8.1c-1.8.02-3.62.02-5.41,0v-8.1c1.8,0,3.61-.06,5.41,0Z"/>
      <path class="cls-17" d="M110.98,137.86c1.28.07,2.57-.08,3.81.38l1.6,2.32c-10.72-.69-21.74.48-32.48,0v-2.7c8.88-.15,18.23-.47,27.07,0Z"/>
    </g>
  </g>
</svg>