<?xml version="1.0" encoding="UTF-8"?>
<svg id="Layer_2" data-name="Layer 2" xmlns="http://www.w3.org/2000/svg" viewBox="0 0 213.84 286.64">
  <defs>
    <style>
      .cls-1 {
        fill: #050505;
      }

      .cls-2 {
        fill: #191a18;
      }

      .cls-3 {
        fill: #414141;
      }

      .cls-4 {
        fill: #87722b;
      }

      .cls-5 {
        fill: #f5f5f6;
      }

      .cls-6 {
        fill: #e5e9f1;
      }

      .cls-7 {
        fill: #0f0f0d;
      }

      .cls-8 {
        fill: #dab924;
      }

      .cls-9 {
        fill: #3a3a3a;
      }

      .cls-10 {
        fill: #0b0b09;
      }

      .cls-11 {
        fill: #b7c4d9;
      }

      .cls-12 {
        fill: #13140f;
      }

      .cls-13 {
        fill: #fff;
      }

      .cls-14 {
        fill: #c4a025;
      }

      .cls-15 {
        fill: #172680;
      }

      .cls-16 {
        fill: #b7a68b;
      }

      .cls-17 {
        fill: #c71618;
      }

      .cls-18 {
        fill: #802121;
      }

      .cls-19 {
        fill: #232322;
      }

      .cls-20 {
        fill: #0c0c0c;
      }

      .cls-21 {
        fill: #fe1014;
      }

      .cls-22 {
        fill: #fe0c11;
      }

      .cls-23 {
        fill: #f2d621;
      }

      .cls-24 {
        fill: #585858;
      }

      .cls-25 {
        fill: #f0f1f3;
      }

      .cls-26 {
        fill: #fe2327;
      }

      .cls-27 {
        fill: #95a4ca;
      }

      .cls-28 {
        fill: #ad912e;
      }

      .cls-29 {
        fill: #6874af;
      }
    </style>
  </defs>
  <g id="Layer_1-2" data-name="Layer 1">
    <g>
      <rect class="cls-13" x="1.84" width="210" height="284"/>
      <path class="cls-20" d="M213.84.11v286.53H0V.11h213.84ZM208.43,5.52c-2.87,1.19-6.15-2.7-6.77-2.7H6.77c-.29,0-4.06,3.77-4.06,4.05v273.01c0,.29,3.77,4.05,4.06,4.05h194.89c.62,0,3.9-3.89,6.77-2.7V5.52Z"/>
      <path class="cls-10" d="M175.95,146.08h-5.41c.24-3.14,2.46-7.43,2.71-13.52.07-1.8-.06-3.61,0-5.41.76-24.48,1.58-54.22,0-78.39-.38-5.83-.48-10.46-2.92-16.01-8.01-.54-16.13-.08-24.15-.21-.9-.01-1.8.01-2.71,0-9.89-.12-19.89-.06-29.78,0-2.71.02-5.41,0-8.12,0-.9,0-1.8,0-2.71,0-1.8,0-3.61,0-5.41,0-4.97.02-10.63,0-16.24,0-1.22,0-4.05,2.77-5.41,2.7-1.65-.08-5.16-2.74-9.33-2.79-9.52-.11-19.08.27-28.57.08.16,21.14-.19,42.35.01,63.52.04,4.48-1.97,12.44,2.7,14.88-4.55,9.2-2.47,19.58-2.71,29.73-.1,4.5.06,9.02,0,13.52-.04,2.7.03,5.41,0,8.11-.29,30.6.22,61.32,0,91.91,9,.02,18.08-.05,27.08,0,1.8,0,3.61,0,5.41,0,9,.03,18.07.05,27.07,0,1.8-.01,3.61,0,5.41,0,11.53-.04,16.56-.4,27.07-2.7.75-.17,1.8,0,2.71,0s1.97-.17,2.71,0c.19.04-.37,2.39,2.71,2.7,4.26.43,9.11-.08,13.53,0,7.19.13,14.47-.09,21.66,0-.21-8.07.27-16.27,0-24.34-.59-17.08-.79-33.66,0-51.36v-2.7h2.71c-.09,24.76.02,49.61.07,74.4.3,2.22-2.85,6.69-4.13,6.69H35.19V29.84h136.7c1.27,0,4.43,4.46,4.13,6.69-.15,36.51-.03,73.07-.07,109.54Z"/>
      <path class="cls-19" d="M189.47,237.99l-2.4,10.48,6.47,5.75-1.35-16.22h13.53c-2.83,8.82-3.18,16.27-2.55,25.53.66,9.72,6.18,12.97-10.98,12.3l1.35-13.51-4.14,13.48-10.75.02c-1.68-8.69,5.97-12.02,10.8-17.57-5.91-5.39-11.78-11.56-10.8-20.27h10.82Z"/>
      <path class="cls-2" d="M21.65,75.8c-1.64-.17-3.78-.17-5.41,0-1.35.14-4.07,3.24-6.62,2.66-11.59-2.64,3.51-34.36,16.08-21.57,4.21,4.29,11.65,19.5,2.57,21.57-2.54.58-5.27-2.52-6.62-2.66Z"/>
      <path class="cls-12" d="M194.89,202.85l-2.7,8.09,10.83-2.7,2.61,9.23c-.85,3.45-6.32,3.32-7.46,4.83-2.13,2.83-.1,13.13-9.93,10.15-7.34-2.22-17.36-30.72,1.23-21.51l-2.7-8.1h8.12Z"/>
      <path class="cls-12" d="M16.24,13.62l-2.7,10.81c6.83.83,8.97-4.78,8.12-10.81,3.48.42,7.29-.3,10.82,0l-6.93,10.65-6.62,4.22c-.1,8,13.32,7.55,13.57,18.91-1.52,2.7-7.74,1.31-10.84,1.36.32-6.77,1.46-16.12-6.76-16.23l-1.36.02,2.7,16.21c-3.6-.08-7.23.06-10.82,0,.4-7.23,3.11-12.65,2.87-20.33-.18-5.76-2.25-9-2.9-13.45-1.39-9.5,10.2-1.43,10.85-1.35Z"/>
      <path class="cls-11" d="M21.65,48.76c-1.8.03-3.61.04-5.41,0l-2.7-16.21,1.36-.02c8.22.11,7.07,9.46,6.76,16.23Z"/>
      <path class="cls-19" d="M175.95,175.81h-5.41v-2.7c5.77-6.42,1.5-18.44,2.71-27.03h2.71c-.01,9.88.03,19.85,0,29.73Z"/>
      <path class="cls-11" d="M21.65,13.62c.86,6.03-1.28,11.64-8.12,10.81l2.7-10.81c1.76.22,3.65-.21,5.41,0Z"/>
      <path class="cls-9" d="M21.65,75.8l2.71,8.1c-2.75-.35-11.59,1.23-10.81-1.33.41-1.34,3.48-3.77,2.69-6.77,1.64-.17,3.78-.17,5.41,0Z"/>
      <path class="cls-25" d="M173.24,178.51c-.79,17.7-.59,34.28,0,51.36-1.72-.25-3.9.37-5.41,0-7.54-1.86-6.26-.36-12.16-.29-3.33.04-10.28-5.04-12.2,1.66s2.22,8.75,7.85,7.96c-3.87,3.95-.43,6.62.26,9.6.36,1.55-.24,3.68,0,5.41-4.43-.08-9.27.43-13.53,0l-2.71-2.7c-.74-.17-1.8,0-2.71,0-.34-4.1-1.51-8.9-5.41-10.81,0-.9,0-1.8,0-2.7s-.05-1.81,0-2.7c.4-7.98-.18-13.65,2.71-21.62.12-.33,4.14-.51,2.7-5.4-1.75-.22-3.84.33-5.41,0-.86-.19-1.85.19-2.71,0-1.3-.3-2.25-2.31-8.12-2.7-2.68-.18-5.43.1-8.12.01v2.68s5.41.01,5.41.01c-.26.19-.31,2.98-2.71,2.7l-8.12-2.69c.65,5.04,5.08,4.35,8.12,5.4,2.64.91,5.54.97,8.11,2.72l1.36-8.14,4.06,5.42v5.41c-5.29-2.09-8.39,1.87-10.83,2.7-1.48.51-4.39-.57-5.41,0l-9.07.39-1.76,2.31-2.69,4.06c-.12,1.71,2.45,1.15,2.69,1.35,4.25,3.63,5.13,2.75,10.83,2.7,1.74-.02,3.97.32,5.41,0,3.43-.75,7.21-4.29,10.83-5.41v8.11c-.88.14-1.85-.19-2.71,0-5.06,1.11-11.1,2.75-16.24,2.7-7.02-.07-11.28-2.48-13.53-2.7l-5.34-20.42,4.79-1.6.55-7.71h2.71c3.95-.73,5.75-4.26,5.41-8.11,2.7-.1,5.42.09,8.12,0s5.42.07,8.12,0c1.8-.05,3.63.13,5.41,0v5.41s9.27.12,9.27.12c2.99-.4,1.05-4.82,1.55-5.53.55-.76,14.29-7.21,16.24-8.11,4.32-2,6.25.4,13.53-5.41,1.33-1.06.99-3.68,5.41-5.41,1.24-.48,3.76.33,5.41,0ZM159.7,221.77h-8.11v2.68h8.11v-2.68Z"/>
      <path class="cls-5" d="M75.79,35.25c-.43,5.21,4.43,9.3,5.41,13.52,1.4,5.99,1.37,19.13.07,25.33-.75,3.57-6.59-.36-5.47,4.4,9.11,3.63,17.61,2.5,27.06,2.72,3.02.07,6.07-.48,9.07.39l1.76,2.32c-1.74,1.5-4.99,1.82-5.41,5.41-1.8-.06-3.61.06-5.41,0-10.32-.32-4.18.91-8.12,2.7-.84.38-7.64.25-8.11-.12l1.47-5.29c-1.2-3.1-10.91-3.82-12.18-2.49-.93.98.35,4.18-.14,5.2-.4.84-10.77,4.29-13.53,5.41-3.65,1.47-8.58.54-10.83,5.41-.28.6.15,1.74,0,2.7l-3.66.39c-1.14.4-1.17,1.84-1.76,2.31-1.22,1-1.71,1.55-2.71,2.7-.66.77-1.86,1-2.71,2.7-4.67-2.43-2.66-10.39-2.7-14.88-.2-21.17.14-42.38-.01-63.52,9.49.18,19.05-.2,28.57-.08,4.17.05,7.68,2.72,9.33,2.79ZM56.85,56.87l6.53,2.59c10.83-2.26-2.89-27.04-14.66-21.52v10.85c-5.88-3.61-8.98-.27-8.11,6.72l13.5,2.7-2.68,9.47h8.11s-2.69-10.81-2.69-10.81Z"/>
      <path class="cls-25" d="M43.31,237.98c3.86,4.3,6.75,2.22,7.84-1.63,2.27-8,.38-33.87.28-44.33h2.71c.9.22,2.17-.35,2.71,0,.83.54,1.27,4.27,5.41,5.41-.4,1.91-.43,9.82.24,10.56,2.73-.14,6.27,2.87,7.88,2.96v21.64c4.81-1.96,14.9-1.44,18.95,2.69-2.89-.34-15.39-.42-16.09.23-.99.94.33,4.12-.16,5.17-1.58,3.41-7.23,8.48-8.12,13.52-9-.04-18.08.03-27.08,0,.23-30.6-.28-61.32,0-91.91h2.71c1.98,23.27-1.09,45.3-.12,69.09.19,4.76.38,3.87,2.83,6.6Z"/>
      <path class="cls-25" d="M146.17,32.55c8.02.13,16.14-.33,24.15.21,2.44,5.55,2.54,10.19,2.92,16.01-1.78-.14-3.65.2-5.41,0-.3-.03-.69-1.85-1.39-1.79-.87.07-1.08,1.74-1.31,1.79-1.49.31-3.51-.58-5.19.16l-.35,1.42c.22,13.88.12,27.81.13,41.67,0,.9,0,1.8,0,2.7h-2.71c-3.04-1.31-5.14-4-8.12-5.41-3.71-1.76-7.78-4.41-12.8-4.73-3.38-.22-5.26,2-6.15,2.03-.16-1.77.07-3.62-.01-5.4h13.54c-3.18-9.76-1.04-21.38-10.82-27.04v-2.7c3.42-.66,3.96-2.98,5.41-5.41,2.42-4.03,3.45-7.03,5.41-10.81.31-.61,2.4-1.32,2.71-2.7Z"/>
      <path class="cls-27" d="M173.24,48.76c1.58,24.17.76,53.91,0,78.39-2.65,1.07-5.02-2.62-5.41-2.7-2.65-6.21.41-12.64.11-17.61-.22-3.7-2.73-3.79-2.82-4.02-.3-.78.29-1.9,0-2.7,4.67-2.43,2.66-10.39,2.7-14.88.12-12.16-.07-24.35,0-36.48,1.76.2,3.63-.14,5.41,0Z"/>
      <path class="cls-14" d="M143.46,32.55v2.7c-1.96,3.78-2.99,6.78-5.41,10.81l-10.44-.48c.18-8.16-3.66-2.2-11.21-2.22l-2.71-10.81c9.89-.06,19.89-.12,29.78,0Z"/>
      <path class="cls-11" d="M173.24,229.87c.28,8.07-.2,16.26,0,24.34-7.19-.1-14.47.12-21.66,0-.24-1.73.36-3.86,0-5.41l9.61-2.68-1.51-8.13,8.06-.08.08-8.03c1.52.37,3.69-.25,5.41,0Z"/>
      <path class="cls-8" d="M94.74,248.79c.37,1.71,2.05,3.62,2.71,5.41-9,.05-18.07.03-27.07,0,1.38-3.16,4.74-7.44,8.12-8.11,5.63-1.11,10.93,1.74,16.24,2.7Z"/>
      <path class="cls-8" d="M127.22,248.79c.79.78,2.41,1.13,2.71,2.7-10.51,2.31-15.54,2.66-27.07,2.7v-5.41c1.79-.1,3.61.08,5.41,0,5.57-.24,11.38.96,16.24-2.7.94,1.62,1.83,1.83,2.71,2.7Z"/>
      <path class="cls-28" d="M102.86,32.55l-2.71,5.4h5.41v2.71c-2.59.17-2.01,5.06-4.43,5.53-3.48.68-8.04-.61-11.81-.12-1.09-1.54-1.61-4.14-2.71-5.41,5.58-2.33,11.38,1.06,10.83-8.11,1.8,0,3.61,0,5.41,0Z"/>
      <path class="cls-22" d="M43.31,132.56c.02.12-1.62.54-1.92,1.48l1.92,1.22v2.7c-.7.24-2.62,3.71-5.41,2.7.23-10.15-1.84-20.54,2.71-29.73.84-1.71,2.04-1.94,2.71-2.7,1.43,7.01-1.55,13.52-2,19.89-.13,1.77,1.86,3.42,2,4.43Z"/>
      <path class="cls-14" d="M159.7,124.45c.9.16,1.88-.19,2.71,0,1.59.37,3.79-.36,5.41,0,.4.09,2.76,3.77,5.41,2.7-.06,1.8.07,3.61,0,5.41-1.71-.27-3.94.4-5.41,0-.38-.1-.73-1.85-2.03-2.32-2.12-.77-2.98,2.19-3.38,2.32-1.36.44-3.73-.3-5.41,0,.18-1.15-4.35-7.19-2.7-10.81.83-.96,3.49,2.37,5.4,2.7Z"/>
      <path class="cls-11" d="M48.72,137.97c-.02.9.03,1.8,0,2.7-.1,2.66.3,5.53,0,8.11l-2.72-5.4h-2.68c.12,3.57-.21,7.23-.01,10.8h-5.41c.06-4.5-.1-9.02,0-13.52,2.8,1.01,4.72-2.47,5.41-2.7,1.34-.45,3.74.3,5.41,0Z"/>
      <path class="cls-18" d="M81.21,32.55c-1.6,5.52,2.81,5.12,5.41,8.11,1.1,1.27,1.61,3.86,2.71,5.41-2.39.31-4.24-.01-5.41,2.7h-2.71c-.99-4.21-5.84-8.3-5.41-13.52,1.36.06,4.19-2.7,5.41-2.7Z"/>
      <path class="cls-17" d="M108.27,243.39v5.41c-1.8.08-3.62-.1-5.42,0v5.41c-1.8,0-3.61-.01-5.41,0-.66-1.78-2.33-3.7-2.71-5.41-.34-1.57.23-3.67,0-5.41.9.03,1.81,0,2.71,0,3.53-.03,7.46.37,10.83,0Z"/>
      <path class="cls-18" d="M78.5,240.68v5.41c-3.38.67-6.74,4.94-8.12,8.11-1.8,0-3.61,0-5.41,0,.89-5.04,6.54-10.11,8.12-13.52,1.74.21,3.78-.31,5.41,0Z"/>
      <path class="cls-11" d="M173.24,132.56c-.25,6.09-2.47,10.38-2.71,13.52h-2.71c-.01-.23-2.18-.66-2.53-3.93-.24-2.27,1.62-6.39,1.08-9.44l1.45-.15c1.48.4,3.7-.27,5.41,0Z"/>
      <path class="cls-17" d="M113.69,32.55l2.71,10.81c-4.79-.02-9.53-2.79-10.83-2.7v-8.11c2.71,0,5.41.02,8.12,0Z"/>
      <path class="cls-8" d="M97.45,32.55c.56,9.17-5.24,5.78-10.83,8.11-2.6-2.99-7.02-2.59-5.41-8.11,5.61,0,11.27.02,16.24,0Z"/>
      <path class="cls-18" d="M170.53,173.11c.47-8.92-.68-18.14,0-27.03h2.71c-1.2,8.6,3.06,20.61-2.71,27.03Z"/>
      <path class="cls-18" d="M132.64,251.5c-.91,0-1.95-.17-2.71,0-.29-1.57-1.92-1.93-2.71-2.7,0-2.7,0-5.41,0-8.11,3.9,1.91,5.08,6.71,5.41,10.81Z"/>
      <path class="cls-28" d="M40.6,162.29h-2.71c.03-2.7-.04-5.41,0-8.11h2.71c.15,2.68-.23,5.44,0,8.11Z"/>
      <path class="cls-23" d="M105.57,37.95h-5.41s2.71-5.41,2.71-5.41c.9,0,1.8,0,2.71,0v5.41Z"/>
      <path class="cls-11" d="M138.05,254.2c-3.07-.31-2.52-2.66-2.71-2.7l2.71,2.7Z"/>
      <path class="cls-27" d="M143.46,35.25v-2.7c.9.01,1.8-.01,2.71,0-.31,1.38-2.39,2.1-2.71,2.7Z"/>
      <path class="cls-11" d="M173.24,175.81v2.7c-1.65.33-4.18-.48-5.41,0v-2.7h5.41Z"/>
      <path class="cls-17" d="M170.53,173.11v2.7h-2.71c-5.21-4.42-.46-13.81,0-21.62.1-1.76.1-3.65,0-5.41-.05-.9.04-1.8,0-2.7h2.71c-.68,8.89.47,18.11,0,27.03Z"/>
      <path class="cls-16" d="M154.29,151.48c1.51.14,3.71,2.12,5.41,2.7-.19,8.15-.72,17.82-.03,25.76.17,1.99.39,4.38,2.74,3.97-7.28,5.8-9.21,3.41-13.53,5.41v-2.7l2.71-2.69c-2.53-.41-5.97.57-8.12-.01-4.97-1.35-10.81-11.24-18.59-11.29l-.36-7.63v-8.11h2.71c.63,3.21,2.92,4.03,5.41,5.41.69.38,2.53-.42,2.71,0,.69,1.65-.5,5.77,0,8.12l5.4-.02.25-16.05c1.63-.85,3.99.26,5.17-.17v8.11s1.35,0,1.35,0c5.67-4.54,6.62-9.44-1.35-8.1,1.94-.7,2.01-3.28,8.12-2.7ZM154.29,173.1v-8.1s-2.69,0-2.69,0l-2.72,8.09h5.41Z"/>
      <path class="cls-11" d="M81.21,200.14c5.04.93,6.68,2.58,10.83,5.41l-.55,7.71-4.79,1.6,5.34,20.42c-.89-.09-1.82.11-2.71,0-4.05-4.13-14.14-4.65-18.94-2.69v-21.64c1.91.1,8.11-3.96,13.52,0v-2.68c-2.59.49-3.77-1.62-5.41-2.72-.59-.4-1.21-1.79-2.71-2.7v-2.7c1.78.08,3.84-.29,5.41,0Z"/>
      <path class="cls-10" d="M167.82,229.87l-.08,8.03-8.06.08,1.51,8.13-9.61,2.68c-.69-2.98-4.13-5.65-.26-9.6-5.62.8-9.74-1.35-7.85-7.96s8.87-1.62,12.2-1.66c5.89-.07,4.62-1.57,12.16.29Z"/>
      <path class="cls-19" d="M167.82,154.19c-.46,7.81-5.21,17.21,0,21.62v2.7c-4.43,1.72-4.08,4.34-5.41,5.41-2.35.41-2.57-1.98-2.74-3.97-.68-7.95-.16-17.61.03-25.76.02-.9-.04-1.8,0-2.7h2.71l5.41,2.7Z"/>
      <path class="cls-19" d="M89.33,235.28c.89.11,1.81-.09,2.71,0,2.25.23,6.51,2.63,13.53,2.7l-8.12,5.41c-.9,0-1.81.03-2.71,0-4.52-.17-10.73-1.66-16.24-2.7-1.63-.31-3.67.21-5.41,0,.49-1.05-.83-4.24.16-5.17.69-.66,13.2-.58,16.09-.23Z"/>
      <path class="cls-9" d="M143.46,186.62c1.79.13,3.62-.09,5.41,0v2.7c-1.95.9-15.7,7.34-16.24,8.11v-2.7l5.41-8.11c.78.42,3.74-.12,5.41,0Z"/>
      <path class="cls-29" d="M105.57,194.73c1.55.14,2.93.99,2.71,2.7-2.7.09-5.42-.1-8.12,0-3.59.14-7.23-.11-10.82.01v2.68s5,.35,5,.35l.41,5.06h-2.71c-4.14-2.83-5.78-4.48-10.83-5.41v-2.7c8.06-2.58,15.85-3.49,24.36-2.7Z"/>
      <path class="cls-27" d="M124.52,219.06v8.11c-3.62,1.12-7.4,4.65-10.83,5.41v-10.81c2.44-.83,5.54-4.79,10.83-2.7Z"/>
      <path class="cls-6" d="M113.69,221.76v10.81c-1.45.32-3.68-.02-5.41,0l-1.76-2.31-9.07-.39c-.23-.2-2.8.36-2.69-1.35l2.69-4.06c8.32,6.2,8.73-1.54,10.83-2.7,1.02-.57,3.93.51,5.41,0Z"/>
      <path class="cls-18" d="M121.81,235.28c.24,1.73-.35,3.85,0,5.41-3.71.92-9.93,2.31-13.53,2.7-3.37.37-7.3-.03-10.83,0l8.12-5.41c5.15.05,11.18-1.59,16.24-2.7Z"/>
      <path class="cls-15" d="M129.93,213.65c-2.88,7.98-2.31,13.65-2.71,21.62h-2.71v-27.03c.86.19,1.84-.19,2.71,0l.37,3.81,2.34,1.59Z"/>
      <path class="cls-27" d="M124.52,208.25v5.41l-4.06-5.42-1.36,8.14c-2.57-1.75-5.47-1.81-8.11-2.72v-2.7c2.4.28,2.45-2.51,2.71-2.7.99-.75,2.42-1.04,2.71-2.7,5.87.39,6.82,2.41,8.12,2.7Z"/>
      <path class="cls-2" d="M116.39,189.33v8.11c-2.7.07-5.42-.09-8.12,0,.23-1.71-1.16-2.56-2.71-2.7v-5.41c.89.1,1.81-.07,2.71,0,2.68.21,5.43-.14,8.12,0Z"/>
      <path class="cls-27" d="M132.64,194.73v2.7c-.51.71,1.44,5.12-1.55,5.53l-9.28-.12v-5.41c1.28-.09,2.58.1,3.82-.38l1.6-2.32h5.41Z"/>
      <path class="cls-11" d="M100.15,197.43c.34,3.85-1.47,7.38-5.41,8.11l-.41-5.06-5-.35v-2.68c3.59-.12,7.24.13,10.83-.01Z"/>
      <path class="cls-15" d="M108.27,221.76c-2.09,1.16-2.51,8.91-10.83,2.7l1.76-2.31,9.07-.39Z"/>
      <path class="cls-17" d="M127.22,240.68c0,2.7,0,5.41,0,8.11-.88-.87-1.76-1.08-2.71-2.7-.85-1.46-2.4-4.05-2.71-5.41,1.73-.43,3.61-2.04,5.41-2.7,0,.9,0,1.8,0,2.7Z"/>
      <path class="cls-27" d="M127.22,208.25c1.56.34,3.66-.21,5.41,0,1.44,4.89-2.58,5.07-2.7,5.4l-2.34-1.59-.37-3.81Z"/>
      <path class="cls-29" d="M110.98,210.95v2.7c-3.04-1.05-7.47-.36-8.12-5.4l8.12,2.69Z"/>
      <path class="cls-29" d="M108.27,232.57c-5.7.05-6.57.92-10.83-2.7l9.07.39,1.76,2.31Z"/>
      <path class="cls-6" d="M127.22,194.73l-1.6,2.32c-1.24.48-2.54.28-3.81.38-1.78.13-3.62-.05-5.41,0v-2.7h10.83Z"/>
      <path class="cls-1" d="M127.22,235.28c-.05.89,0,1.81,0,2.7-1.81.66-3.68,2.27-5.41,2.7-.35-1.56.24-3.67,0-5.41.85-.19,1.83.14,2.71,0h2.71Z"/>
      <path class="cls-15" d="M116.39,205.54c-.29,1.66-1.71,1.95-2.71,2.7h-5.41s0-2.69,0-2.69c2.68.09,5.43-.19,8.12-.01Z"/>
      <rect class="cls-10" x="151.59" y="221.77" width="8.11" height="2.68"/>
      <path class="cls-6" d="M132.64,51.47v2.7h-13.53s5.19,17.73,5.19,17.73c.24,1.13-3.74,1.76-5.2,3.9-1.88,2.75.28,3.2-5.41,8.11l-1.76-2.32c-3-.87-6.05-.32-9.07-.39,1.83-3.32,6.68-8.1-1.35-8.11-8.94-.01,3.75,6.01-5.4,5.41l-1.37-8.11-8.1,8.1c-2.25-13,2.22-9.89,10.94-15.04l-.13-9.28-8.12,8.1-2.7-10.8c5.06-.51,8.99-2.94,14.9-2.92,9.69.03,20.39,5.28,31.12,2.92ZM113.68,54.18h-13.52v2.68h13.52v-2.68ZM113.68,62.29l-10.81-2.71v5.4s10.82,0,10.82,0v-2.68Z"/>
      <path class="cls-12" d="M56.85,56.87l2.69,10.81h-8.11s2.68-9.47,2.68-9.47l-13.5-2.7c-.87-6.99,2.24-10.33,8.1-6.72v-10.85c11.78-5.52,25.5,19.27,14.67,21.52l-6.53-2.59Z"/>
      <path class="cls-19" d="M148.88,89.31c-7.89-1.72-10.22,4.71-16.24,8.11-6.86,3.87-6.73,2.31-13.53,8.11h-8.12l-1.79-2.32c-6.19.48-5.47-1.73-7.75-5.92l-6.7,2.84v-8.11c3.94-1.79-2.2-3.02,8.12-2.7.31,1.47,2.17,1.98,2.71,2.7,8.72,11.72,15.91,2.41,27.07-.02.67-2.29-2.51-2.23-2.71-2.69-.26-.58.09-1.74,0-2.7.89-.03,2.77-2.25,6.15-2.03,5.02.32,9.09,2.98,12.8,4.73Z"/>
      <path class="cls-29" d="M86.62,51.47l2.7,10.8,8.12-8.1.13,9.28c-8.72,5.15-13.2,2.03-10.94,15.04l8.1-8.1,1.37,8.11c9.15.6-3.54-5.42,5.4-5.41,8.03,0,3.19,4.79,1.35,8.11-9.45-.22-17.95.92-27.06-2.72-1.12-4.76,4.72-.83,5.47-4.4,1.31-6.19,1.34-19.34-.07-25.33h2.71c-.42,1.8,1.1,2.86,2.71,2.7Z"/>
      <path class="cls-3" d="M92.03,94.72c-1.79,4.71,1.93,6.44,2.71,8.11v2.7c-1.75-.19-2.35,1.18-2.71,2.7-1.77-.63-3.76-2.4-5.41-2.7s-3.93.4-5.41,0c-6.68-1.82-11.93-5.21-18.82-5.59l-.13-5.22c2.77-1.11,13.13-4.56,13.53-5.41,5.25,2.54,10.05,6.25,16.24,5.41Z"/>
      <path class="cls-11" d="M62.26,94.72l.13,5.22c6.88.38,12.14,3.77,18.82,5.59.54,6.19,5.84,7.67,8.12,10.81.94,1.29,2.42,2.24,2.71,2.7,1.93,3.11,1.72,5.77,2.71,8.11,1.28,3.03,1.78,5.22,2.71,8.11.26.82-.26,1.89,0,2.7h-2.71l-2.94-16.06c-1.63-.85-4.04.28-5.18-.16-2.12-.81-5.83-4.29-8.12-5.41,4.49-.52-.12-7.2-1.91-8.09-6.07-3.05-12.6-6.58-18.22-2.54l-6.94-5.58c2.25-4.87,7.17-3.94,10.83-5.41Z"/>
      <path class="cls-19" d="M48.72,132.56c-1.61.32-3.67-.21-5.41,0-.14-1.02-2.13-2.66-2-4.43.46-6.38,3.43-12.88,2-19.89,1-1.15,1.49-1.71,2.71-2.7,4.82,5.83,2.81,18.77,2.71,27.03Z"/>
      <path class="cls-16" d="M51.43,100.12l6.94,5.58c5.62-4.03,12.15-.51,18.22,2.54,1.79.9,6.4,7.57,1.91,8.09-1.25-.6-4.77.62-5.41,0-.35-.34.13-4.54-2.65-6.82l-1.43-1.27c-1.13-.11-1.05,2.5-1.33,2.68-4.27,2.84-8.42,3.18-13.53,2.69v-2.68s5.42-.02,5.42-.02l-.02-2.68-8.11-2.72c.06-.89-.13-1.83,0-2.7.15-.96-.28-2.1,0-2.7Z"/>
      <path class="cls-27" d="M75.79,89.31c.49-1.02-.79-4.22.14-5.2,1.27-1.33,10.98-.62,12.18,2.49l-1.47,5.29c.47.37,7.26.51,8.11.12v2.7h-2.71c-6.19.84-10.99-2.86-16.24-5.41Z"/>
      <path class="cls-24" d="M51.43,102.83c-.13.87.06,1.81,0,2.7-.26,3.56.11,7.23,0,10.81-.15,4.92.32,9.88-.13,14.82-.36,1.25-1.57,1.2-2.58,1.4.1-8.26,2.11-21.2-2.71-27.03.58-.48.62-1.91,1.76-2.31l3.66-.39Z"/>
      <path class="cls-27" d="M121.81,86.61c-2.07.16-4.3-.44-6.37.38l-1.75,2.32c-1.77.12-3.64.06-5.41,0,.42-3.58,3.67-3.9,5.41-5.41,5.7-4.91,3.53-5.36,5.41-8.11l2.32,1.71.39,9.1Z"/>
      <path class="cls-29" d="M108.27,89.31c1.77.06,3.65.12,5.41,0s3.62.08,5.41,0v2.7c-4.36.46-9.1-.31-13.53,0-.53-.72-2.4-1.23-2.71-2.7,1.8.06,3.61-.06,5.41,0Z"/>
      <path class="cls-3" d="M54.14,143.37c6.33-1.78,4.6,3.04,6.15,4.54,6.43,6.19,9.13,3.21,7.38,17.09-.06.45-1.91,4.3-2.71,8.11-3.04,6.53-4.59,12.71-10.96,15.12l.13,3.8h-2.71c0-.9.01-1.8,0-2.7-.12-9.03,1.78-19.14-2.71-27.03,3.36.43,5.2,1.4,8.11,2.7,1.48-5.16-2.21-4.61-2.7-5.41-.74-1.22-2.88-4.87-2.71-5.41.04-.14,2.12.68,2.32-1.75.26-3.1.04-6.42.39-9.06Z"/>
      <path class="cls-24" d="M46.02,162.29c0,8.98,0,18.05,0,27.03,0,16.13,1.72,33.12-2.71,48.66-2.44-2.72-2.63-1.84-2.83-6.6-.97-23.79,2.1-45.82.12-69.09,1.78.13,3.65-.19,5.41,0Z"/>
      <path class="cls-8" d="M51.43,189.33c.01.9,0,1.8,0,2.7.1,10.46,1.99,36.33-.28,44.33-1.09,3.84-3.98,5.93-7.84,1.63,4.43-15.54,2.71-32.52,2.71-48.66h5.41Z"/>
      <path class="cls-27" d="M67.67,197.43v2.7c-3.24.72-3.12,2.17-2.7,5.4h13.53c1.64,1.11,2.82,3.21,5.41,2.72v2.68c-5.4-3.96-11.61.11-13.53,0-1.62-.08-5.15-3.1-7.88-2.96-.67-.74-.64-8.65-.24-10.56,1.15.32,4.21.3,5.41,0Z"/>
      <path class="cls-18" d="M62.26,197.43c-4.14-1.13-4.58-4.87-5.41-5.41,1.47-.97,4.96-4.33,5.41-5.41l5.4-2.7c2.34,6.63-4.57,9.57-5.4,13.52Z"/>
      <path class="cls-8" d="M62.26,186.62c-.46,1.07-3.94,4.44-5.41,5.41-.53-.35-1.8.22-2.71,0l-.13-3.8c6.37-2.41,7.92-8.59,10.96-15.12-.87,4.17-.92,9.32-2.71,13.52Z"/>
      <path class="cls-11" d="M119.1,75.8c1.46-2.13,5.44-2.76,5.2-3.9l-5.19-17.72h13.53c9.78,5.65,7.64,17.27,10.82,27.02h-13.54c.09,1.79-.15,3.65.01,5.41-2.69.11-5.44-.2-8.12,0l-.39-9.1-2.32-1.71Z"/>
      <path class="cls-19" d="M116.39,43.36c7.55.03,11.39-5.93,11.21,2.22l10.44.48c-1.46,2.43-2,4.74-5.41,5.41-10.73,2.35-21.43-2.89-31.12-2.92-5.91-.02-9.84,2.42-14.9,2.92-1.6.16-3.12-.9-2.71-2.7,1.17-2.71,3.02-2.39,5.41-2.7,3.77-.49,8.33.81,11.81.12,2.42-.47,1.84-5.36,4.43-5.53,1.3-.08,6.04,2.69,10.83,2.7Z"/>
      <path class="cls-24" d="M167.82,48.76c-.08,12.13.11,24.32,0,36.48-.04,4.48,1.97,12.44-2.7,14.88-.81-2.24-2.42-1.69-2.71-8.11-.62-13.82,4.52-29,2.71-43.25.24-.05.45-1.73,1.31-1.79.7-.06,1.09,1.76,1.39,1.79Z"/>
      <path class="cls-23" d="M165.12,48.76c1.81,14.25-3.32,29.43-2.71,43.25h-2.71c0-13.86.1-27.79-.13-41.67l.35-1.42c1.68-.74,3.7.15,5.19-.16Z"/>
      <path class="cls-14" d="M157,94.72c-2.07,2.24-1.74,6.03-2.71,8.11-.78,1.68-1.84,3.65-2.71,5.41-1.46,2.96-7.25,10.06-8.12,13.52h-2.71c.09-.89-.1-1.81,0-2.7s-.16-1.87,0-2.7c.19-.95-.29-2.07,0-2.7,1.97-4.26,6.69-5.59,8.12-13.52.37-2.06.22-5.85,0-8.11-.09-.89.06-1.81,0-2.7,2.98,1.41,5.08,4.1,8.12,5.41Z"/>
      <path class="cls-6" d="M165.12,100.12c.29.8-.3,1.92,0,2.7-2.24,7.1-3.47,14.1-2.71,21.62-.83-.19-1.81.16-2.71,0v-8.11c0-7.19,0-14.43,0-21.62,0-.9,0-1.8,0-2.7h2.71c.29,6.42,1.9,5.87,2.71,8.11Z"/>
      <path class="cls-7" d="M159.7,116.34h-5.43c2.78-4.03.95-3.8.01-5.41l2.67-6.63-2.67-1.48c.97-2.08.64-5.87,2.71-8.11h2.71c0,7.19,0,14.43,0,21.62Z"/>
      <path class="cls-24" d="M167.82,124.45c-1.62-.36-3.82.37-5.41,0-.77-7.52.47-14.52,2.71-21.62.09.23,2.6.32,2.82,4.02.3,4.96-2.77,11.39-.11,17.61Z"/>
      <path class="cls-28" d="M94.74,243.39c.23,1.74-.34,3.84,0,5.41-5.31-.96-10.61-3.82-16.24-2.7v-5.41c5.51,1.04,11.73,2.53,16.24,2.7Z"/>
      <path class="cls-28" d="M121.81,240.68c.31,1.36,1.86,3.95,2.71,5.41-4.86,3.66-10.67,2.46-16.24,2.7v-5.41c3.61-.4,9.83-1.79,13.53-2.7Z"/>
      <path class="cls-28" d="M48.72,132.56c-.02,1.8.04,3.61,0,5.41-1.68.3-4.07-.45-5.41,0v-5.41c1.75-.21,3.81.32,5.41,0Z"/>
      <path class="cls-18" d="M43.31,135.26l-1.92-1.22c.3-.94,1.94-1.36,1.92-1.48v2.7Z"/>
      <path class="cls-9" d="M154.29,110.94c.94,1.61,2.77,1.38-.01,5.4h5.43v8.12c-1.91-.34-4.57-3.66-5.4-2.7-1.65,3.62,2.88,9.66,2.7,10.81-.15.98-5.08,6.28-2.71,10.81-.82-.92-6.9-5.07-8.12-5.41v-2.7l-.38-6.36-2.33-1.75c.02-1.72-.34-4.04,0-5.41.87-3.45,6.66-10.55,8.12-13.52.26,1.46,2.35,2.09,2.71,2.7Z"/>
      <path class="cls-6" d="M162.41,132.56c-2.51,6.55-2.44,12.14-2.71,18.92-.04.9.02,1.8,0,2.7-1.7-.58-3.9-2.56-5.41-2.7v-2.7l2.28-1.31c-.96-1.14-1.47-3.2-2.28-4.1-2.38-4.53,2.55-9.83,2.71-10.81,1.68-.3,4.05.44,5.41,0Z"/>
      <path class="cls-15" d="M167.82,132.56l-1.45.15c.54,3.04-1.32,7.17-1.08,9.44.34,3.27,2.52,3.7,2.53,3.93.04.9-.05,1.81,0,2.7l-3.82.37-1.59,2.34h-2.71c.27-6.78.2-12.37,2.71-18.92.41-.13,1.27-3.09,3.38-2.32,1.3.47,1.65,2.22,2.03,2.32Z"/>
      <path class="cls-16" d="M56.84,119.04c.44,1.26-.27,3.71.01,5.41.77.89,3.56-2.2,5.4-2.7,1.46-.4,3.7.27,5.41,0-.26.82.27,1.89,0,2.7-1.47,4.47,1.77,11.32-8.12,10.81,1.61-1.94,4.74-3.36,5.41-5.41,1.33-4.03.06-6.59-4.05-5.41h-1.36c-.34,1.69.45,4.09,0,5.41-.52,1.54-3.74,2.42-2.71,8.11-.58.7-2.23.98-2.71,2.7h-5.41c.03-.9-.02-1.8,0-2.7.04-1.8-.02-3.61,0-5.41,1.02-.2,2.22-.15,2.58-1.4.45-4.94-.02-9.9.13-14.82h2.71c-.24,1.93,2.61,2.41,2.71,2.7Z"/>
      <path class="cls-6" d="M54.14,140.67c-.21.76.12,1.77,0,2.7-.35,2.64-.13,5.96-.39,9.06-.2,2.43-2.28,1.62-2.32,1.75h-2.71l-2.33-1.33c.29-1.49,2.21-3.02,2.33-4.07.3-2.58-.1-5.45,0-8.11h5.41Z"/>
      <path class="cls-8" d="M43.31,156.89l1.49,2.54,9.33.16c.49.8,4.17.24,2.7,5.41-2.91-1.3-4.75-2.27-8.11-2.7-.89-.11-1.81.1-2.71,0-1.77-.19-3.63.13-5.41,0-.23-2.67.15-5.43,0-8.11h2.71c.05.9-.04,1.8,0,2.7Z"/>
      <path class="cls-29" d="M48.72,148.78c-.12,1.06-2.04,2.58-2.33,4.07l2.33,1.33-5.41,2.7c-.04-.9.05-1.81,0-2.7-.2-3.57.13-7.23.01-10.81h2.68s2.72,5.4,2.72,5.4Z"/>
      <path class="cls-16" d="M167.82,148.78c.1,1.76.1,3.65,0,5.41l-5.41-2.7,1.59-2.34,3.82-.37Z"/>
      <path class="cls-18" d="M154.29,148.78v2.7c-6.11-.58-6.18,2-8.12,2.7-1.18.43-3.54-.68-5.17.17l-.25,16.05-5.4.02c-.51-2.35.69-6.47,0-8.12l2.41-1.58.32-9.22c-4.9,2.24-9.45-2.43-10.85-2.71v-2.7c8.4,1.26,20.98-3.11,27.07,2.7Z"/>
      <path class="cls-11" d="M127.22,148.78c1.39.28,5.94,4.95,10.85,2.71l-.32,9.22-2.41,1.58c-.17-.42-2.02.38-2.71,0v-5.41s-5.41,0-5.41,0h-2.71v-8.11c.89.13,1.85-.17,2.71,0Z"/>
      <path class="cls-11" d="M119.1,148.78c-.33,2.36-.1,5.58,0,8.11.09,2.36-.83,6.21.46,7.75l4.95.36.36,7.63c7.78.05,13.62,9.94,18.59,11.29v2.7c-1.67-.12-4.64.42-5.41,0-1.68-.91-1.7-2.8-8.12-5.41-1.16-6.77-11.15-9.05-13.21-11.2-.41-.43,3.48-8.66-3.03-10.42-.05-3.6.03-7.21,0-10.81,1.65.29,3.67-.23,5.41,0Z"/>
      <path class="cls-18" d="M124.52,156.89v8.11l-4.95-.36c-1.29-1.54-.37-5.39-.46-7.75l2.33-1.74.38-6.37c.88.14,1.82-.13,2.71,0v8.11Z"/>
      <path class="cls-15" d="M146.17,154.19c7.96-1.34,7.02,3.56,1.35,8.1h-1.34s-.01-8.1-.01-8.1Z"/>
      <polygon class="cls-11" points="154.29 173.1 148.88 173.1 151.6 165 154.28 165 154.29 173.1"/>
      <path class="cls-9" d="M127.22,156.89h5.42s0,5.41,0,5.41c-2.49-1.38-4.78-2.2-5.41-5.41Z"/>
      <path class="cls-25" d="M143.46,183.92c2.15.58,5.59-.4,8.12.01l-2.71,2.69c-1.79-.09-3.63.13-5.41,0v-2.7Z"/>
      <path class="cls-19" d="M100.15,181.22c-.14.87.11,1.82,0,2.7l1.46,2.62c2.21.13,4.46.26,6.66.09v2.7c-.9-.07-1.82.1-2.71,0-6.49-.76-11.55-5.26-18.29.84-1.59,1.44.38,6.9-8.78,4.57l2.71,2.69v2.7c-1.58-.29-3.64.08-5.41,0s-3.61.06-5.41,0h-2.71v-2.7c2.64-.67,7.6-5.78,10.83-8.11,1.88-1.35,4.86-1.5,6.36-2.58,2.38-1.71,1.12-5.29,3.37-5.65,3.65-.59,8.11.6,11.93.12Z"/>
      <path class="cls-27" d="M75.79,200.14v2.7c-.81-.5-2.56.16-3.77-.51l-1.65-2.2c1.8.06,3.62-.09,5.41,0Z"/>
      <path class="cls-24" d="M129.93,181.22c6.42,2.61,6.45,4.49,8.12,5.41l-5.41,8.11h-16.24v-2.7c1.68-.23,1.95-1.87,2.71-2.7,1.36-1.5,6.6-7.26,5.42-8.1-1.74-.29-3.88.34-5.42,0,.07-2.7-.06-5.42.01-8.1l1.34-.02c2.24-.14,1.37,4.72,3.98,6.94,1.93,1.64,4.31.7,5.49,1.18ZM132.63,189.32v-5.4s-5.4,4.06-5.4,4.06v1.34s5.4,0,5.4,0Z"/>
      <path class="cls-17" d="M105.57,189.33v5.41c-8.52-.78-16.3.12-24.36,2.7l-2.71-2.69c9.16,2.32,7.19-3.14,8.78-4.57,6.74-6.1,11.81-1.61,18.29-.84Z"/>
      <path class="cls-4" d="M116.39,189.33c-2.69-.14-5.44.21-8.12,0v-2.7c4.28-.34,4.8-2.51,5.41-2.7.81-.25,1.85.19,2.71,0v5.41Z"/>
      <path class="cls-6" d="M119.1,189.33c-.75.83-1.03,2.47-2.71,2.7v-8.11h2.71v5.41Z"/>
      <polygon class="cls-15" points="113.68 62.29 113.68 64.97 102.87 64.98 102.87 59.58 113.68 62.29"/>
      <rect class="cls-29" x="100.16" y="54.18" width="13.52" height="2.68"/>
      <path class="cls-14" d="M94.74,100.12l6.7-2.84c2.28,4.19,1.56,6.41,7.75,5.92l1.79,2.32-1.34,5.42c4.16.58,6.66-3.03,9.46-5.42,6.8-5.8,6.68-4.24,13.53-8.11-2.05,2.3-1.76,5.86-2.71,8.11-4.62,10.96-9.88,22.39-8.12,35.14-1.32-.14-2.69.11-4.04.01l-1.37,2.69,2.71,2.7c-.09.89.12,1.82,0,2.7-1.74-.23-3.76.29-5.41,0-.95-.17-2.04.27-2.71,0,3.41-4.75,1.01-12.79-5.41-10.81-.91-2.71-2.62-5.12-2.71-5.41-.43-1.49.4-3.82,0-5.41,1.75-.2,3.77.3,5.41,0,1.16-.21,2.45.13,3.8-.35,1.51-.54,1.24-1.95,1.61-2.35,3.57-3.84,4.95-9.95,0-10.81h-5.41s0,8.11,0,8.11c-.05-.13-1.63.88-2.26-1.74-.72-2.99-.52-6.05-.45-9.07-4.9-1.45-5.06,2.58-5.41,2.7-.79.28-1.89-.27-2.71,0-.19-2.94.64-5.97-.42-8.88-.5-1.37-2.12-1.58-2.28-1.93v-2.7Z"/>
      <path class="cls-21" d="M148.88,89.31c.06.9-.09,1.81,0,2.7l-8.13,4.07c-.82,3.14,1.96,4.58,4.07,6.71l4.06-2.67c-1.43,7.93-6.15,9.25-8.12,13.52v-5.4s-8.12,2.7-8.12,2.7c-.04-1.29.23-2.57-.28-3.83l-2.43-1.58c.95-2.25.66-5.81,2.71-8.11,6.02-3.4,8.35-9.83,16.24-8.11Z"/>
      <path class="cls-17" d="M129.93,89.31c.2.46,3.38.4,2.71,2.69-11.16,2.43-18.35,11.74-27.07.02,4.43-.31,9.17.46,13.53,0,3.75-.4,7.09-2.27,10.83-2.7Z"/>
      <path class="cls-15" d="M129.93,86.61c.09.96-.26,2.13,0,2.7-3.73.43-7.08,2.31-10.83,2.7v-2.7l2.71-2.7c2.68-.2,5.43.11,8.12,0Z"/>
      <path class="cls-23" d="M119.1,105.53c-2.81,2.39-5.31,6-9.46,5.42l1.34-5.42h8.12Z"/>
      <path class="cls-1" d="M86.62,105.53l2.72,8.1h2.68c.24-1.74-.35-3.87.01-5.4s.95-2.89,2.71-2.7v8.11c-.68.23-2.58,3.76-5.41,2.7-2.28-3.14-7.58-4.62-8.12-10.81,1.48.4,3.73-.31,5.41,0Z"/>
      <path class="cls-25" d="M97.45,113.64c-.81.27-1.9-.27-2.71,0v-10.81c.16.35,1.78.57,2.28,1.93,1.06,2.91.23,5.94.42,8.88Z"/>
      <path class="cls-24" d="M92.03,108.23c-.36,1.52.23,3.66-.01,5.4h-2.68s-2.72-8.1-2.72-8.1c1.65.31,3.65,2.08,5.41,2.7Z"/>
      <path class="cls-4" d="M78.5,116.34c2.3,1.11,6,4.59,8.12,5.41v8.11l-7.97,2.61c-.56-3.93-1.48-6.84-5.57-8.01-.06-2.7.04-5.42,0-8.11.64.62,4.17-.6,5.41,0Z"/>
      <path class="cls-17" d="M86.62,121.75c1.14.44,3.55-.69,5.18.16l2.94,16.06-2.71,2.7h-5.41v-18.92Z"/>
      <path class="cls-1" d="M97.45,119.04v5.41c-.75.75-1.08,2.45-2.71,2.7-.99-2.34-.78-5-2.71-8.11h5.41Z"/>
      <path class="cls-24" d="M97.45,119.04h-5.41c-.29-.46-1.77-1.41-2.71-2.7,2.83,1.05,4.73-2.47,5.41-2.7.81-.27,1.89.27,2.71,0,.11,1.78,0,3.62,0,5.41Z"/>
      <path class="cls-28" d="M73.09,116.34c-1.36.02-5.3,5.04-5.41,5.41-1.71.27-3.95-.4-5.41,0l-1.64-2.2-3.77-.5c-.1-.29-2.95-.77-2.71-2.7h13.55s-.01-5.41-.01-5.41c.28-.19.2-2.79,1.33-2.68l1.43,1.27c2.79,2.28,2.3,6.48,2.65,6.82Z"/>
      <path class="cls-11" d="M51.43,105.53l8.11,2.72.02,2.68-5.42.02v2.68c5.1.48,9.26.15,13.53-2.69v5.41s-13.53,0-13.53,0h-2.71c.11-3.58-.26-7.25,0-10.81Z"/>
      <path class="cls-25" d="M121.81,86.61l-2.71,2.7c-1.8.08-3.62-.12-5.41,0l1.75-2.32c2.07-.82,4.29-.22,6.37-.38Z"/>
      <path class="cls-8" d="M83.91,140.67v2.7c-2.31,1.16-2.85,2.99-2.71,5.41l-10.69,2.85c-.65,3.03.45,6.29-.16,9.31-.63,3.08-2.62,3.82-2.69,4.06,1.75-13.88-.95-10.9-7.38-17.09-1.55-1.5.18-6.32-6.15-4.54.12-.93-.21-1.94,0-2.7.48-1.72,2.13-2.01,2.71-2.7.2,1.11-.37,2.11,1.43,2.61l25.64.09Z"/>
      <path class="cls-16" d="M51.43,189.33h-5.41c0-8.98,0-18.05,0-27.03.89.1,1.82-.11,2.71,0,4.48,7.89,2.58,18,2.71,27.03Z"/>
      <path class="cls-28" d="M54.14,159.59l-9.33-.16-1.49-2.54,5.41-2.7h2.71c-.17.53,1.96,4.19,2.71,5.41Z"/>
      <path class="cls-23" d="M64.96,173.11c.8-3.8,2.65-7.66,2.71-8.11-1.11,3.86-.82,4.06-2.71,8.11Z"/>
      <path class="cls-17" d="M86.62,156.89c-.88,6.5-.5,15.16-2.71,21.62-1.26,3.7-6.14,6.02-5.41,10.81-3.23,2.33-8.19,7.44-10.83,8.11-1.2.3-4.26.32-5.41,0,.83-3.95,7.74-6.88,5.4-13.52l-5.4,2.7c1.79-4.2,1.83-9.34,2.71-13.52,1.89-4.05,1.6-4.25,2.71-8.11.07-.23,2.06-.98,2.69-4.06.62-3.02-.49-6.29.16-9.31l10.69-2.85,5.41,8.11ZM78.49,156.89h-5.4v5.4h5.4v-5.4ZM78.5,175.8c1.33-1.06-4.73-7.15-8.12-5.39v8.1c3.18-.87,4.07-3.79,8.12-2.71Z"/>
      <path class="cls-28" d="M143.46,127.15c-.03,2.14-.32,4.26.38,6.35l2.32,1.76v2.7c-1.79-.49-8.16-.82-8.13,1.35l.02,1.34,10.82,2.7c-5.24,1.1-10.22-1.16-14.99-1.46-2.07-.13-4.64,1.6-6.66,1.47.49-1.35,1.97-4.68,2.71-5.41,1.03-1.03,3.99-1.52,5.41-2.7s1.47-1.14,2.71-2.7c3.89-4.94,2.13-5.28,2.71-10.81h2.71c-.34,1.36.02,3.69,0,5.41Z"/>
      <path class="cls-21" d="M135.34,116.34c.63.64.63,1.99,1.77,2.31l3.64.39c-.1.89.09,1.81,0,2.7-1.89.03-2.12,2.18-2.71,2.7-.45.4-2.55-.4-2.71,0h-5.42s0,5.41,0,5.41l5.41,5.41c-1.43,1.18-4.38,1.68-5.41,2.7l-2.33-1.65c-3.72-9.36,3.01-16.12,5.04-22.68,1.45.4,1.9,1.89,2.71,2.7Z"/>
      <path class="cls-19" d="M148.88,100.12l-4.06,2.67c-2.11-2.14-4.89-3.58-4.07-6.71l8.13-4.07c.22,2.26.37,6.05,0,8.11Z"/>
      <path class="cls-19" d="M132.64,110.94l8.12-2.7v5.4c-.29.63.19,1.75,0,2.7h-5.41c-.81-.81-1.26-2.3-2.71-2.7.2-.64.03-1.82,0-2.7Z"/>
      <path class="cls-29" d="M154.29,110.94c-.35-.61-2.45-1.24-2.71-2.7.87-1.76,1.92-3.72,2.71-5.41l2.67,1.48-2.67,6.63Z"/>
      <path class="cls-17" d="M140.76,116.34c-.16.84.1,1.8,0,2.7l-3.64-.39c-1.14-.32-1.14-1.67-1.77-2.31h5.41Z"/>
      <path class="cls-8" d="M146.17,137.97c1.23.33,7.3,4.49,8.12,5.41s1.32,2.96,2.28,4.1l-2.28,1.31c-6.09-5.81-18.67-1.45-27.07-2.7.21-.84-.28-1.92,0-2.7,2.02.13,4.59-1.6,6.66-1.47,4.77.3,9.75,2.56,14.99,1.46l-10.82-2.7-.02-1.34c-.03-2.17,6.34-1.84,8.13-1.35Z"/>
      <path class="cls-2" d="M146.17,135.26l-2.32-1.76c-.7-2.09-.41-4.21-.38-6.35l2.33,1.75.38,6.36Z"/>
      <path class="cls-29" d="M64.96,129.86c-.68,2.05-3.8,3.47-5.41,5.41-.95,1.14-2.06,1.93-2.71,2.7-1.03-5.68,2.18-6.57,2.71-8.11h5.41Z"/>
      <path class="cls-15" d="M59.55,129.86c.45-1.32-.34-3.72,0-5.41h1.36c4.11-1.18,5.38,1.38,4.05,5.41h-5.41Z"/>
      <path class="cls-27" d="M62.26,121.75c-1.84.51-4.64,3.59-5.4,2.7-.28-1.7.43-4.14-.01-5.41l3.77.5,1.64,2.2Z"/>
      <path class="cls-4" d="M121.81,140.67c1.59.17,3.99,2.61,5.41,2.7-.28.78.21,1.86,0,2.7v2.7c-.86-.17-1.82.13-2.71,0s-1.83.14-2.71,0-1.82.12-2.71,0c.12-.88-.09-1.81,0-2.7h5.41s0-2.69,0-2.69h-8.12s1.37-2.7,1.37-2.7c1.35.1,2.72-.15,4.04-.01Z"/>
      <path class="cls-2" d="M113.69,159.59c6.51,1.77,2.61,10,3.03,10.42,2.07,2.15,12.06,4.43,13.21,11.2-1.18-.48-3.56.46-5.49-1.18-2.62-2.22-1.75-7.08-3.98-6.94l-1.34.02c-.07,2.69.06,5.41-.01,8.1-3.89-.9-4.99-12.15-5.41-16.22-.18-1.75.03-3.63,0-5.41Z"/>
      <path class="cls-22" d="M119.1,156.89c-.1-2.53-.33-5.75,0-8.11.89.12,1.83-.14,2.71,0l-.38,6.37-2.33,1.74Z"/>
      <path class="cls-8" d="M83.91,178.51c4.13-4.65,9.79.42,12.07-.03,6.15-1.22,1.74-6.66,1.56-9.49-.38-5.84-.02-11.69-.09-17.51l5.38,1.33c-3.92,4.44-.15,9.46.03,14.88.03.89.04,1.81,0,2.7-.24,5.32-2.2,7.66-2.71,10.81-3.82.48-8.28-.71-11.93-.12-2.24.36-.98,3.94-3.37,5.65-1.5,1.08-4.49,1.23-6.36,2.58-.73-4.79,4.15-7.11,5.41-10.81Z"/>
      <path class="cls-23" d="M100.15,181.22c1.77-.22,4.78-3.76,8.11-2.7.1,1.78-.13,3.62,0,5.4h-8.12c.11-.89-.14-1.83,0-2.7Z"/>
      <path class="cls-24" d="M108.27,183.92c.07.89-.05,1.81,0,2.7-2.2.18-4.44.04-6.66-.09l-1.46-2.62h8.12Z"/>
      <path class="cls-1" d="M119.1,181.22c1.54.35,3.68-.28,5.42,0,1.18.84-4.06,6.6-5.42,8.1v-5.41c0-.9-.02-1.8,0-2.7Z"/>
      <polygon class="cls-2" points="132.63 189.32 127.22 189.31 127.23 187.98 132.63 183.92 132.63 189.32"/>
      <path class="cls-11" d="M113.69,165c.43,4.07,1.52,15.32,5.41,16.22-.02.9,0,1.8,0,2.7h-2.71c-.86.19-1.89-.25-2.71,0-1.49-4.28-4.39-9.33-5.41-13.52-.39-1.58.39-3.83,0-5.41-.88-3.6-1.72-7.24-2.71-10.81,5.82.92,3.96,8.1,8.12,10.81Z"/>
      <path class="cls-28" d="M108.27,170.4c1.02,4.18,3.93,9.23,5.41,13.52-.61.19-1.14,2.36-5.41,2.7-.05-.9.07-1.81,0-2.7-.14-1.78.09-3.62,0-5.4-3.33-1.06-6.34,2.48-8.11,2.7.51-3.15,2.47-5.5,2.71-10.81h5.41Z"/>
      <path class="cls-17" d="M132.64,110.94c.03.88.2,2.07,0,2.7-2.03,6.55-8.75,13.32-5.04,22.68l2.33,1.65c-.73.73-2.22,4.06-2.71,5.41-1.42-.09-3.83-2.53-5.41-2.7-1.76-12.75,3.5-24.18,8.12-35.14l2.43,1.58c.5,1.25.23,2.54.28,3.83Z"/>
      <path class="cls-29" d="M105.57,137.97c1.27,3.75.84,8.93,5.41,10.81.66.27,1.76-.17,2.71,0,.03,3.6-.05,7.21,0,10.81.03,1.78-.18,3.65,0,5.41-4.16-2.71-2.3-9.89-8.12-10.81-.97-3.53-1.72-7.15-2.96-10.6-2.58-.7-5.25-.1-7.87-.21v-2.7c1.8-.09,3.62.07,5.41-.01.63-2.5-2.65-2.51-2.71-2.69-.26-.82.26-1.89,0-2.7l5.41-2.7c.08.29,1.79,2.7,2.71,5.41Z"/>
      <path class="cls-4" d="M100.15,113.64c.35-.13.51-4.15,5.41-2.7-.07,3.02-.27,6.08.45,9.07.63,2.62,2.21,1.61,2.26,1.74.47,1.27-.32,3.75,0,5.41-1.64.3-3.67-.2-5.41,0-.87-3.47-2.64-5.11-2.71-5.41-.55-2.23.37-5.58,0-8.11Z"/>
      <path class="cls-23" d="M113.69,113.64c-3.03,3.47-.82,6.81,0,10.81-.38.4-.11,1.82-1.61,2.35-1.35.48-2.64.14-3.8.35-.32-1.66.47-4.14,0-5.41v-8.12s5.41,0,5.41,0Z"/>
      <path class="cls-16" d="M102.86,127.15c.4,1.58-.43,3.91,0,5.41l-5.41,2.7c-.93-2.89-1.43-5.08-2.71-8.11,1.62-.25,1.95-1.95,2.71-2.7l2.71-2.7c.07.29,1.84,1.94,2.71,5.41Z"/>
      <path class="cls-16" d="M105.57,137.97c6.43-1.98,8.82,6.06,5.41,10.81-4.58-1.88-4.15-7.06-5.41-10.81Z"/>
      <path class="cls-4" d="M113.69,124.45c-.82-4-3.03-7.34,0-10.81,4.95.86,3.57,6.98,0,10.81Z"/>
      <path class="cls-5" d="M100.15,121.75l-2.71,2.7v-5.41c0-1.79.11-3.63,0-5.41.82-.27,1.91.28,2.71,0,.37,2.53-.55,5.87,0,8.11Z"/>
      <polygon class="cls-11" points="116.39 143.37 124.51 143.38 124.51 146.07 119.1 146.08 116.39 143.37"/>
      <path class="cls-11" d="M73.09,124.45c4.09,1.18,5.01,4.09,5.57,8.01l7.97-2.61v5.41c-1.8,0-3.61,0-5.41,0-2.68,0-5.37.24-8.04-.07-.29-3.56,0-7.17-.08-10.74Z"/>
      <path class="cls-9" d="M73.09,124.45c-1.44-.41-3.71.28-5.41,0,.27-.81-.26-1.88,0-2.7.12-.36,4.06-5.39,5.41-5.41.04,2.69-.06,5.41,0,8.11Z"/>
      <path class="cls-4" d="M86.62,135.26v8.11c-.97.11-2.17-.27-2.71,0v-2.7l-2.71-5.41c1.8,0,3.61,0,5.41,0Z"/>
      <path class="cls-11" d="M92.03,140.67c.9,0,1.81.04,2.71,0v2.7c-1.76-.07-3.67-.15-5.41,0-.9.08-1.82-.1-2.71,0v-2.7h5.41Z"/>
      <path class="cls-23" d="M97.45,137.97c.06.18,3.34.2,2.71,2.69-1.79.08-3.62-.08-5.41.01-.9.04-1.81,0-2.71,0l2.71-2.7h2.71Z"/>
      <path class="cls-18" d="M73.09,124.45c.08,3.57-.21,7.18.08,10.74,2.67.31,5.36.08,8.04.07l2.71,5.41-25.64-.09c-1.8-.5-1.23-1.5-1.43-2.61.65-.77,1.76-1.56,2.71-2.7,9.89.51,6.65-6.35,8.12-10.81,1.7.28,3.98-.41,5.41,0Z"/>
      <path class="cls-18" d="M86.62,143.37c.89-.1,1.81.08,2.71,0-4.06,3.87-.29,8.05-.67,11.62-.12,1.15-2,1.6-2.04,1.9l-5.41-8.11c-.15-2.42.4-4.24,2.71-5.41.54-.27,1.74.11,2.71,0Z"/>
      <path class="cls-28" d="M94.74,143.37c2.62.11,5.29-.49,7.87.21,1.24,3.45,1.99,7.07,2.96,10.6s1.83,7.21,2.71,10.81l-5.41,2.7c-.18-5.42-3.96-10.44-.03-14.88l-5.38-1.33c.07,5.82-.29,11.67.09,17.51.18,2.83,4.59,8.26-1.56,9.49-2.28.45-7.94-4.62-12.07.03,2.2-6.46,1.83-15.13,2.71-21.62.04-.29,1.92-.75,2.04-1.9.38-3.57-3.39-7.75.67-11.62,1.74-.15,3.66-.07,5.41,0Z"/>
      <path class="cls-2" d="M78.5,175.8c-4.05-1.08-4.93,1.84-8.11,2.71v-8.1c3.38-1.76,9.44,4.34,8.11,5.39Z"/>
      <rect class="cls-19" x="73.09" y="156.89" width="5.4" height="5.4"/>
      <path class="cls-17" d="M138.05,132.56c-1.24,1.57-1.29,1.53-2.71,2.7l-5.41-5.41c7.31,1.11,4.46-2.89,5.41-5.41.15-.4,2.26.4,2.71,0v8.11Z"/>
      <path class="cls-26" d="M138.05,132.56v-8.11c.59-.52.82-2.67,2.71-2.7-.58,5.53,1.19,5.88-2.71,10.81Z"/>
      <path class="cls-2" d="M135.34,124.45c-.96,2.52,1.9,6.52-5.41,5.41v-5.41s5.41,0,5.41,0Z"/>
      <path class="cls-4" d="M108.27,170.4h-5.41c.04-.89.03-1.81,0-2.7l5.41-2.7c.39,1.58-.39,3.83,0,5.41Z"/>
    </g>
  </g>
</svg>