<?xml version="1.0" encoding="UTF-8"?>
<svg id="Layer_2" data-name="Layer 2" xmlns="http://www.w3.org/2000/svg" viewBox="0 0 214 287.92">
  <defs>
    <style>
      .cls-1 {
        fill: #191a18;
      }

      .cls-2 {
        fill: #414141;
      }

      .cls-3 {
        fill: #87722b;
      }

      .cls-4 {
        fill: #f5f5f6;
      }

      .cls-5 {
        fill: #e5e9f1;
      }

      .cls-6 {
        fill: #dab924;
      }

      .cls-7 {
        fill: #3a3a3a;
      }

      .cls-8 {
        fill: #0b0b09;
      }

      .cls-9 {
        fill: #b7c4d9;
      }

      .cls-10 {
        fill: #fe1417;
      }

      .cls-11 {
        fill: #13140f;
      }

      .cls-12 {
        fill: #fff;
      }

      .cls-13 {
        fill: #c4a025;
      }

      .cls-14 {
        fill: #172680;
      }

      .cls-15 {
        fill: #b7a68b;
      }

      .cls-16 {
        fill: #c71618;
      }

      .cls-17 {
        fill: #802121;
      }

      .cls-18 {
        fill: #232322;
      }

      .cls-19 {
        fill: #0c0c0c;
      }

      .cls-20 {
        fill: #f2d621;
      }

      .cls-21 {
        fill: #585858;
      }

      .cls-22 {
        fill: #f0f1f3;
      }

      .cls-23 {
        fill: #fe2327;
      }

      .cls-24 {
        fill: #95a4ca;
      }

      .cls-25 {
        fill: #ad912e;
      }

      .cls-26 {
        fill: #6874af;
      }
    </style>
  </defs>
  <g id="Layer_1-2" data-name="Layer 1">
    <g>
      <rect class="cls-12" y="2.84" width="210" height="284"/>
      <path class="cls-19" d="M214,4.1v283.82H.16V5.45C.16,3.3,6.73.35,9.52,1.29c62.03,3.43,128.16-4.19,189.68.02,5.17.35,9.59,3.18,14.8,2.8ZM2.87,6.8v274.36c0,.29,3.77,4.05,4.06,4.05h197.6c.29,0,4.06-3.77,4.06-4.05V10.86c0-.29-3.77-4.05-4.06-4.05H2.87Z"/>
      <path class="cls-7" d="M35.35,33.83l1.42-2.58,139.34-.13c-.14,52.22.17,104.57,0,156.79h-2.71c-4.27,1.67-9.5,1.69-13.53,2.7.26-1.71-.39-3.92,0-5.41.67-2.56,2.32-4.46,2.71-8.11,1.32-.3,2.22-2.54,2.71-2.7,1.26-.42,3.61.54,5.27-.1,2.7-4.64-2.43-9.83-2.57-10.72-.08-.54,2.61-5.09,2.71-8.11.23-7.18-.26-14.45,0-21.62.05-1.41-.02-2.48,0-2.7.14-1.77-.31-3.83,0-5.41,1.48-7.56,3.2-16.31,2.71-24.33-.06-.9.05-1.8,0-2.7-.74-13.56-1.39-27.85-2.71-40.55-.09-.89.08-1.81,0-2.7-.16-1.78.11-3.62,0-5.41-.26-4.47.19-9.05,0-13.52-6.3-.03-12.66.06-18.96,0-1.8-.02-3.61,0-5.41,0-9.89-.05-19.88-.11-29.78,0-.9.01-1.8-.01-2.71,0-9.41.13-18.89-.29-28.3.17-1.91.36-1.21,1.51-1.48,2.54-.18.68-.06,1.87,0,2.7l-6.99-5.53-39.03.13c-.13-1.55-.99-2.93-2.71-2.7Z"/>
      <path class="cls-8" d="M38.05,36.54c1.79,21.15-1.21,44.56-.14,66.01l5.55,1.57c-.16.87.21,1.86,0,2.7-2.32,9.2-1.77,13.07-2.71,21.62-.17,1.55-2.58,3.94-2.71,5.41-.08.89.06,1.81,0,2.7-.45,6.23.21,12.66,0,18.92-.06,1.8.05,3.61,0,5.41-.02.9.02,1.8,0,2.7v21.62c0,.9,0,1.8,0,2.7-.02,3.6-.02,7.21,0,10.81.03,5.4-.01,10.82,0,16.22.01,6.29-.04,12.63,0,18.92.01,1.8-.02,3.6,0,5.41.06,5.39-.05,10.84,0,16.23,6.3.03,12.66-.06,18.96,0,1.8.02,3.61,0,5.41,0,10.79.05,21.7.17,32.48,0,.9-.01,1.8.01,2.71,0,8.53-.11,24.42,2.21,29.78-2.7.8-.73,1.27-2.32,2.71-2.7.45,1.19-.55,3.63.06,5.29l43.25.13v-67.58s2.7,0,2.7,0c-.08,23.38.06,46.9,0,70.28H35.35V33.83c1.71-.23,2.58,1.16,2.71,2.7Z"/>
      <path class="cls-18" d="M195.05,255.49l-2.7-16.21h13.52c-2.68,13.1-4.67,24.8,0,37.83h-13.52s1.35-13.52,1.35-13.52l-4.21,13.39-10.67.13c-2.15-9.63,2.7-6.53,5.42-9.91,1.79-2.23,3.27-6.96,5.4-9,.43-.41,2.4.22,3.81-.4l1.6-2.31Z"/>
      <path class="cls-11" d="M195.05,201.43l-2.7,8.09,8.16-1.46,5.54,8.23-15.05,17.55c-10.38-7.79-21.56-23.47-1.33-24.32l-2.73-8.09h8.11Z"/>
      <path class="cls-1" d="M16.4,85.19v-5.41s-6.53,2.58-6.53,2.58c-11.1-8.56.32-17.42,8.12-24.12,3.73-.84,14.35,10.71,14.75,14.74.84,8.36-4.02,11.4-10.92,6.78-.14,1.78.19,3.65,0,5.42h-5.41Z"/>
      <path class="cls-19" d="M16.4,14.91c-.33,4.44-5.89,11.52,0,13.52-.79,1.53-2.55,4.15-2.71,5.41-.75,5.9,1.49,10.72,2.71,16.22-3.6-.07-7.23.06-10.82,0l-.03-1.37c4.62-11.25,3.36-22.47.03-33.76,3.59-.07,7.23.06,10.82,0Z"/>
      <path class="cls-18" d="M21.81,28.43c.52,1.14,0,3.27,1.37,5.3,3,4.48,9.35,8.38,9.47,14.96l-.02,1.36c-3.59.06-7.23-.07-10.82,0,4.11-8.39-.98-11.92-8.12-16.22.16-1.25,1.91-3.88,2.71-5.41.75-1.45,2.45-2.19,2.71-2.7.33,1.33,2.43,2.11,2.71,2.7Z"/>
      <path class="cls-7" d="M189.64,258.19c-7.06-3.34-11.5-11.2-10.82-18.92h10.82c-1.22,8.29-4.05,12.21,5.42,16.21l-1.6,2.31c-1.41.62-3.38-.02-3.81.4Z"/>
      <path class="cls-11" d="M21.81,14.91c3.6.08,7.23-.06,10.82,0l.02,1.36c-.05,4.72-6.45,9.62-10.84,12.15-.27-.6-2.37-1.37-2.71-2.7,1.8-3.57,3.39-6.57,2.71-10.81Z"/>
      <path class="cls-9" d="M21.81,50.05c-1.8.04-3.61.04-5.41,0-1.21-5.5-3.46-10.32-2.71-16.22,7.14,4.29,12.23,7.83,8.12,16.22Z"/>
      <path class="cls-9" d="M21.81,14.91c.68,4.24-.9,7.24-2.71,10.81-.26.52-1.95,1.25-2.71,2.7-5.89-2-.33-9.07,0-13.52,1.8-.04,3.61-.04,5.41,0Z"/>
      <path class="cls-19" d="M21.81,85.19c-.2,1.76.16,3.63,0,5.41h-8.11s2.7-5.41,2.7-5.41h5.41Z"/>
      <path class="cls-22" d="M173.4,187.91v67.58s-43.25-.13-43.25-.13c-.61-1.66.39-4.1-.06-5.29-1.5-3.97-7.38-8.86-8.12-10.81-.3-.78-.21-4.23,0-5.41,1.33-7.37,4.69-11.53,5.41-21.62.25-3.57-.19-7.25,0-10.82l6.5,2.54,4.32-7.94c4.89-.71,8.9-1.84,13.53-2.7,3.41-.63,5.66-2.08,8.12-2.7,4.04-1.01,9.26-1.03,13.53-2.7ZM159.86,220.36h-8.12l2.7,8.09c-.9.88-9.21-4.96-10.81,1.37-2.42,9.61,6.64,14.1,12.17,20.24,6.31-6.58,17.92-13.4,9.48-23.05l-8.12,1.44,2.7-8.09Z"/>
      <path class="cls-4" d="M38.05,36.54l39.03-.13,6.99,5.53c.52,7.2,4.4,8.21,5.41,10.81.3.76.21,4.23,0,5.41-1.68,9.54-8.85,18.86-5.42,29.73l-10.81-2.7v8.1s-5.42,2.7-5.42,2.7l-1.35-2.68-1.35,2.68c-6.51.5-9.34,3.89-13.53,5.41-1.4.51-4.4-.61-6.34.42l-1.78,2.28-5.55-1.57c-1.07-21.45,1.93-44.85.14-66.01ZM56.99,63.57c4.96.41,11.03-.62,10.94-6.81l-12.28-17.51c-10.49,9.2-26.82,24.49-1.36,24.33l-5.41,8.09h10.83s-2.72-8.1-2.72-8.1Z"/>
      <path class="cls-22" d="M151.74,36.54c6.3.06,12.66-.04,18.96,0,.18,4.48-.27,9.05,0,13.52l-10.96,4.3c.23,14.77.13,29.6.13,44.35-1.63.08-2.4,2.55-2.71,2.7-.28.14-2.52.15-2.71,0-4.22-3.32-3.54-7.42-13.53-5.41,2.04-9.47,7.47-21.54,7.11-31.16-.13-3.38-4.1-6.68-4.41-9.38-.62-5.52,6.38-13.47,8.12-18.92Z"/>
      <path class="cls-17" d="M116.55,36.54c3.63,6.06,13.14,4.99,18.64,3.05l1.66,5.09,9.48-8.14c1.8,0,3.61-.02,5.41,0-1.74,5.45-8.74,13.4-8.12,18.92h-2.71c1.46-8.37-4.18-5.03-9.44-5.38-13.55-.92-29-2.24-41.99,2.68-1.02-2.6-4.89-3.62-5.41-10.81-.06-.83-.18-2.03,0-2.7l6.76,5.4c3.57-6.62,8.43-2.05,13.69-5.13l1.22,5.13,8.11-8.11c.9-.01,1.8.01,2.71,0Z"/>
      <path class="cls-25" d="M170.69,50.05c.11,1.79-.16,3.63,0,5.41l-7.82,4.36-.29,14.56h2.69c.1-2.68-.1-5.41.01-8.1,7.16,4.37-.48,13.98-.02,20.07.28,3.72,3.36,7.88,2.92,12.23l5.22.14c.05.9-.06,1.81,0,2.7-5.42-1.47-5.11,2.27-8.12,5.41l-2.7-16.21c-.02,9.89-.01,19.84-.01,29.73h-2.71c0-4.5,0-9.02,0-13.52v-8.11c0-14.75.1-29.58-.13-44.35l10.96-4.3Z"/>
      <path class="cls-9" d="M162.57,133.85h8.12c-.26,7.17.23,14.45,0,21.62l-8.12-2.7c.34-3.13-2.77-8.81,0-13.51l-5.4,2.7c.3-1.67-.33-3.77,0-5.41.18-.86-.14-1.82,0-2.7h5.41Z"/>
      <path class="cls-13" d="M173.4,98.71l-5.22-.14c.44-4.35-2.64-8.52-2.92-12.23-.46-6.09,7.17-15.69.02-20.07.08-1.8-.06-3.63,0-5.43l5.4,2.74v-5.43c1.33,12.7,1.98,26.99,2.72,40.55Z"/>
      <path class="cls-20" d="M113.85,36.54l-8.11,8.11-1.22-5.13c-5.26,3.08-10.12-1.49-13.69,5.13l-6.76-5.4c.27-1.02-.43-2.18,1.48-2.54,9.41-.45,18.89-.03,28.3-.17Z"/>
      <path class="cls-20" d="M146.33,36.54l-9.48,8.14-1.66-5.09c-5.49,1.94-15.01,3.02-18.64-3.05,9.89-.11,19.88-.05,29.78,0Z"/>
      <path class="cls-13" d="M173.4,101.41c.5,8.02-1.23,16.77-2.71,24.33-.65-1.03-2.58-4.73-2.71-5.41-.46-2.57.76-6.13-.44-8.99l-2.27-1.82c0-.9,0-1.8,0-2.7,3.01-3.14,2.71-6.88,8.12-5.41Z"/>
      <path class="cls-3" d="M170.69,155.47c-.1,3.02-2.79,7.57-2.71,8.11h-10.83c-.9,0-1.81-.05-2.71,0,3.66-2.51,7.61-6.15,8.12-10.81l8.12,2.7Z"/>
      <path class="cls-9" d="M162.57,177.1c-.38,3.65-2.04,5.55-2.71,8.11l-3.69-.38c-1.18-.39-1.16-1.82-1.72-2.32-.29-3.18,1.56-5.46,2.71-8.11.79-1.82,4.12-3.75,2.72-8.1h2.69c-.23,3.55.38,7.28.01,10.81Z"/>
      <path class="cls-14" d="M154.45,182.5c.57.51.55,1.94,1.72,2.32l3.69.38c-.39,1.49.26,3.69,0,5.41-2.46.62-4.71,2.07-8.12,2.7v-2.7c1.07-2.6-2.65-5.07-2.71-5.41-.34-1.9-.32-6.15,0-8.11,1.67,1.87,3.55,3.73,5.41,5.41Z"/>
      <path class="cls-20" d="M170.69,55.46c.08.89-.09,1.81,0,2.7v5.43s-5.4-2.74-5.4-2.74c-.07,1.8.07,3.63,0,5.43-.11,2.69.09,5.42-.01,8.1h-2.69s.29-14.56.29-14.56l7.82-4.36Z"/>
      <path class="cls-14" d="M165.28,163.58v10.81c-.49.16-1.39,2.41-2.71,2.7.37-3.53-.24-7.26-.01-10.81h-2.69c1.4,4.36-1.93,6.28-2.72,8.1v-10.81h8.12Z"/>
      <path class="cls-25" d="M167.98,163.58c.14.88,5.27,6.07,2.57,10.72-1.67.63-4.02-.32-5.27.1v-10.81h2.71Z"/>
      <path class="cls-15" d="M170.69,125.74c-.31,1.58.14,3.63,0,5.41l-5.41-2.7c.27-2.61-.07-5.44,0-8.11h2.71c.12.68,2.06,4.38,2.71,5.41Z"/>
      <path class="cls-6" d="M170.69,131.14c-.02.22.05,1.3,0,2.7h-8.12v-2.7c1.73.21,2.54-1.14,2.71-2.7l5.41,2.7Z"/>
      <path class="cls-4" d="M57,190.61c.66.36,3.24,7.38,8.12,5.41,1.55,5.44-1.71,10.93-1.99,15.37-.67,10.93,2,14.53,4.69,22.47.65,1.92-.44,5.7,0,8.11l-10.83,13.52c-6.3-.06-12.66.04-18.96,0-.04-5.39.07-10.83,0-16.23l7.91,2.46c-1.15-4.63,5.06-5.74,5.63-7.87,1.81-6.8.38-34.06,0-43.25,1.59.35,4.44-.53,5.41,0Z"/>
      <path class="cls-6" d="M46.18,158.18c2.96.23,5.67-1.22,8.12-2.7-.08.67,3.24,3.52,1.53,5.53-6.05,3.31-6.75,1.24-6.95,7.99-.18,6.17,2.71,11.28,2.71,13.52,0,3.3-.15,4.62,0,8.11.38,9.19,1.81,36.45,0,43.25-1.68.3-4.05-.44-5.41,0,1.86-4.11-2.35-6.93-2.71-8.11-.47-1.54.59-4.36-.43-6.32l-2.28-1.79c.1-.89-.08-1.81,0-2.7l5.55-1.51c2.39-5.18-2.61-10.67-2.84-12.01-.62-3.58.84-8.23-.21-12l-2.49-1.52h-2.71c0-.9,0-1.8,0-2.7,1.76.22,2.5-1.12,2.71-2.7,5.58-4.27,1.66-14.96,2.71-21.64h-5.42c.05-1.79-.06-3.59,0-5.39,2.85-.51,6.35,2.57,8.12,2.7Z"/>
      <path class="cls-17" d="M121.97,239.27c.74,1.95,6.62,6.84,8.12,10.81-1.44.39-1.91,1.97-2.71,2.7l-12.19-8.09,1.36,8.09-13.55-4.12-5.39,6.83c-.9.01-1.8-.01-2.71,0-2.1-9.68-19.27-3.25-21.42-5.79l-1.59-5.03-9.47,10.82c-1.8,0-3.61.02-5.41,0l10.83-13.52c6.75.3,13.63-.51,20.39,0,2.75.21,3.74,2.64,3.97,2.7v5.4c1.8.02,3.62.02,5.41,0v-5.4c.24-.05,1.07-2.3,3.99-2.69,6.63-.9,13.55.43,20.38-2.71Z"/>
      <path class="cls-9" d="M43.47,139.25c.63.42,2.14-.43,2.71,0,2.21,1.68,1.55,9.39,5.41,10.81-3.5,2.25-6.72,3.56-5.41,8.11-1.77-.14-5.27-3.21-8.12-2.7.21-6.26-.45-12.7,0-18.92,1.71,1.01,3.78,1.61,5.41,2.7Z"/>
      <path class="cls-20" d="M62.42,255.49l9.47-10.82,1.59,5.03c2.15,2.55,19.31-3.89,21.42,5.79-10.79.17-21.69.05-32.48,0Z"/>
      <path class="cls-20" d="M97.61,255.49l5.39-6.83,13.55,4.12-1.36-8.09,12.19,8.09c-5.36,4.91-21.24,2.59-29.78,2.7Z"/>
      <path class="cls-15" d="M43.47,201.42c.23,1.34,5.23,6.83,2.84,12.01l-5.55,1.51h-2.71c-.01-5.4.03-10.82,0-16.22h2.71l2.71,2.7Z"/>
      <path class="cls-20" d="M40.76,217.64c-.4,3.51.26,7.27.01,10.81l2.7-2.7c.36,1.18,4.56,4,2.71,8.11-1.68.55-2.89,4.8-8.12,0-.04-6.29.01-12.63,0-18.92h2.71c-.08.89.1,1.82,0,2.7Z"/>
      <path class="cls-6" d="M46.18,112.22v2.7l-2.33,1.6c-.5,1.23-.26,2.54-.38,3.81-.26,2.66.17,5.43,0,8.11h-2.71c.94-8.56.38-12.43,2.71-21.62h2.71v5.41Z"/>
      <path class="cls-21" d="M38.05,160.88h5.42c-1.05,6.67,2.87,17.35-2.71,21.62.64-4.96,1.52-16.32-2.71-18.92.02-.9-.02-1.8,0-2.7Z"/>
      <path class="cls-20" d="M40.76,182.5c-.21,1.58-.95,2.92-2.71,2.7v-21.62c4.23,2.6,3.35,13.96,2.71,18.92Z"/>
      <path class="cls-2" d="M51.59,101.41v5.41s-5.41,0-5.41,0h-2.71c.21-.84-.16-1.83,0-2.7l1.78-2.28c1.94-1.04,4.94.09,6.34-.42Z"/>
      <path class="cls-25" d="M46.18,233.86c1.36-.44,3.73.3,5.41,0-.57,2.13-6.77,3.24-5.63,7.87l-7.91-2.46c-.02-1.8.01-3.6,0-5.41,5.23,4.8,6.44.55,8.12,0Z"/>
      <path class="cls-9" d="M46.18,128.44v2.7l-8.12,2.7c.13-1.46,2.54-3.85,2.71-5.41h5.41Z"/>
      <path class="cls-20" d="M40.76,198.72h-2.71c-.02-3.6-.02-7.21,0-10.81h2.71v10.81Z"/>
      <path class="cls-14" d="M43.47,139.25c-1.63-1.09-3.71-1.7-5.41-2.7.06-.9-.08-1.81,0-2.7l8.12-2.7-2.71,8.11Z"/>
      <path class="cls-9" d="M108.43,190.61c-.3,1.68.45,4.05,0,5.41-.09.27-3.34.43-2.71,2.69l13.54,2.72c-.14.95.26,2.04,0,2.7-2.02,5.13-7.88,8.1-5.4,16.22.52.64,6.17-4.21,8.11-5.41,1.71-1.05,3.65-1.76,5.41-2.7-.72,10.09-4.09,14.26-5.41,21.62-5.28.4-11.11-.6-16.24,0-.24-1.76-2.62-7.2-2.71-8.11s.14-1.83,0-2.7c-1.13-7.09,3.2-16.35-8.12-16.22.41-1.45-.27-3.7,0-5.41,2.7,0,5.42.01,8.12,0v-5.4c-5.59,2.67-11.93-2.46-13.53-2.71,5.57,2.55,11.72-2.4,13.53-2.7.88-.15,1.84.17,2.71,0s1.84.17,2.71,0Z"/>
      <path class="cls-11" d="M132.79,158.18c.84,2.98,4.56,5.14,5.41,8.11.24.82-.18,1.84,0,2.7h-5.41s-.01,5.4-.01,5.4c2.61.32,5.7-.44,8.13,0-.39,2.49.58,5.96,0,8.11-.09.33-4.05.81-2.7,5.4l13.53,2.71v2.7c-4.64.86-8.64,1.99-13.53,2.7-1.71.25-3.66-.19-5.41,0-2.71-6.78-5.59-13.81-7.57-20.86s2.52-10.09-5.97-14.28h5.41s0-5.41,0-5.41c3.59-.28,6.13-2.41,8.12-2.7.2,1.75-.39,4.01,0,5.41ZM135.5,177.1h-5.4v5.4h5.4v-5.4Z"/>
      <path class="cls-8" d="M159.86,220.36l-2.7,8.09,8.12-1.44c8.44,9.65-3.17,16.47-9.48,23.05-5.53-6.14-14.59-10.63-12.17-20.24,1.6-6.34,9.91-.49,10.81-1.37l-2.7-8.09h8.12Z"/>
      <path class="cls-1" d="M73.24,233.86l1.75,2.32c2.08.78,4.25.28,6.37.38,10.4.48,16.03-1.74,24.36-2.7,5.13-.6,10.96.4,16.24,0-.21,1.17-.3,4.62,0,5.41-6.83,3.15-13.75,1.81-20.38,2.71-2.92.4-3.75,2.64-3.98,2.69-1.11.26-4.31.26-5.41,0-.23-.06-1.22-2.49-3.97-2.7-6.76-.51-13.64.29-20.39,0-.44-2.41.65-6.19,0-8.11h2.71c.9.07,1.81-.09,2.71,0Z"/>
      <path class="cls-26" d="M132.79,196.02c1.76-.19,3.7.25,5.41,0l-4.32,7.94-6.5-2.54c-.2,3.57.25,7.26,0,10.82-1.77.95-3.71,1.66-5.41,2.7l2.7-10.81h-5.41c.26-.67-.14-1.76,0-2.71.13-.87-.08-1.81,0-2.7,2.63,1.05,5.03-2.62,5.41-2.7,2.3-.49,5.52.28,8.12,0Z"/>
      <path class="cls-18" d="M78.66,96c1.79,3.89,1.58,10.24,2.71,13.52l-4.06-2.68-4.06,5.37h6.76s1.36-2.69,1.36-2.69c1.47,4.26,5.31,17.7,5.84,18.56.4.63,4.08.76,4.99,3.07-1.69-.26-3.64.11-5.41,0-.24,1.75.32,3.82,0,5.41-.24,1.19.38,2.67-.14,3.93-.38,1.61-1.4,1.24-2.57,1.48v-5.4c-4.57-1.34-5.08,2.63-5.41,2.7-.84.18-1.8-.13-2.71,0v-5.41l5.42-1.35-.02-1.34c-1.67-.32-4.27.49-5.41-.01-3.07-1.34-9.25-17.4-8.12-21.62.09-.33,3.99-1.12,2.7-5.4h-8.12c.89-1.53-.8-5.76,5.41-8.12l5.41-2.7c2.88-1.32,5.1,2.63,5.41,2.7ZM84.07,123.04h-5.4v5.4h5.4v-5.4Z"/>
      <path class="cls-11" d="M56.99,63.57l2.72,8.1h-10.83s5.41-8.09,5.41-8.09c-25.46.15-9.13-15.13,1.36-24.33l12.28,17.51c.09,6.19-5.98,7.23-10.94,6.81Z"/>
      <path class="cls-24" d="M105.73,55.46c-2.16,5.17,2.02,8.59,2.71,10.81.16.53.17,2.18,0,2.7-.45,1.36-4.16,2.8-2.71,8.11l-2.71,1.36-2.69-6.76-8.13,13.5,5.4-16.2c-5.63-.55.77,6.45-6.75,5.41-3.02-.42,6.07-12.53-2.75-5.42-.38,7,1.99,11.7-1.32,18.93,3.45.43,7.62-.6,10.82,0l-1.74,2.33c-2.07.86-4.36.17-6.38.38-1.77.18-3.63-.17-5.42,0v5.41c-1.7.02-4.01.32-5.41,0-.31-.07-2.53-4.02-5.41-2.7v-8.1s10.82,2.7,10.82,2.7c-3.43-10.88,3.74-20.19,5.42-29.73,5.42-2.08,10.59-2.17,16.24-2.7Z"/>
      <path class="cls-1" d="M89.48,52.76c12.99-4.92,28.44-3.6,41.99-2.68,5.26.36,10.9-2.99,9.44,5.38h-2.71c-1.8,0-3.62.09-5.41,0-2.69-.13-5.42.01-8.12,0-5.82-.03-12.34-.62-18.95,0-5.65.53-10.82.63-16.24,2.7.21-1.17.3-4.65,0-5.41Z"/>
      <path class="cls-14" d="M65.12,96c.9-.07,1.81.05,2.71,0-6.22,2.36-4.52,6.59-5.41,8.11-1.36,2.33-1.73,3.44-2.71,5.41-.82,1.65-4.92,4.15-5.41,5.41l-8.12-2.7v-5.41h5.42s0-5.41,0-5.41c4.19-1.52,7.02-4.9,13.53-5.41Z"/>
      <path class="cls-24" d="M67.83,96c-.9.05-1.81-.07-2.71,0l1.35-2.68,1.35,2.68Z"/>
      <path class="cls-1" d="M154.45,101.41c-3.31.77-4.41,7.58-5.41,8.11-.81.43-3.77-.89-5.04.38s.02,3.91-.37,5.02c-1.27,3.59-2.12,9.54-2.71,10.81-.16.35-3.34,2.62-5.41,5.41-.09.12-2.69-.35-2.69,1.35.48,1.63,1.51,1.17,2.69,1.35-1.54,3.47-6.8,1.69-8.12,5.41-.25.72.17,1.77,0,2.7-1.75.22-3.81-.32-5.41,0-.54-2.16-.55-2.27-2.71-2.7l-1.67-2.32c-7.7.27-19.97-3.18-25.4,2.32,1.83,4.03-2.46,7.17-2.71,8.11l-1.36-2.69h-4.04c-.15,1.76.22,3.66,0,5.4-1.8,0-3.61-.05-5.41,0-.9.03-1.82-.09-2.71,0v-8.11c.85.12,1.83.01,2.71,0,1.75-.02,3.91.3,5.41,0,1.17-.23,2.18.14,2.57-1.48.52-1.26-.11-2.74.14-3.93h5.41c-.21-1.7.45-4.28,0-5.41,6.97,1.07,5.58.07,8.12,0,.9-.03,1.81.04,2.71,0,3.6-.15,7.23.13,10.83,0,2.69-.1,5.4.18,8.08-.02l.3-9.22c.23-1.94,1.3-1.32,2.45-1.58.52,1.59,2.79,4.19,2.71,5.41-.1,1.43-3.12,4.3-2.73,6.73l5.44,1.38c-.02-2.69.07-5.41,0-8.1-.04-1.69.38-4.22,0-5.41-.87-2.7-5.86-2.28-5.39-3.98l5.39-12.24c.88.14,1.82-.11,2.71,0v5.41s5.41-.01,5.41-.01c.49-3.18-4.98-4.53-5.41-5.4-.52-1.04.35-3.8,0-5.41,5.64-.43,7.05-2.49,8.12-2.7,10-2.01,9.32,2.08,13.53,5.41ZM146.32,101.42h-5.4v5.4h5.4v-5.4ZM138.2,114.93h-5.4v5.4h5.4v-5.4Z"/>
      <path class="cls-26" d="M143.62,55.46c.31,2.7,4.28,6,4.41,9.38.36,9.63-5.07,21.69-7.11,31.16-1.07.21-2.48,2.28-8.12,2.7-1.79.13-3.63-.14-5.41,0l1.75-2.25,9.09-.46-2.71-8.1-1.6-2.47c-1.26-.58-2.61-.08-3.82-.23-.76-.09-1.98-.16-2.71,0v-2.7c.7.25,1.76-.13,2.71,0,3.39.47,7.33-.31,10.84,0,.55-4.23-.81-9.64,0-13.52.07-.33,3.97-1.21,2.7-5.4-1.78.06-3.63-.15-5.41,0-3.75.31-7.08,2.34-10.83,2.7.09-2.69-.07-5.42,0-8.1,1.7.23,4.18-.44,5.41,0,.37.13,1.11,3.99,5.41,2.7v-5.4h5.42Z"/>
      <path class="cls-26" d="M157.16,101.41v5.41c-.03,1.72-2.46,2.25-2.71,2.7h-5.41c1-.53,2.11-7.34,5.41-8.11.19.15,2.43.14,2.71,0Z"/>
      <path class="cls-14" d="M159.86,106.82h-2.71v-5.41c.31-.15,1.08-2.62,2.71-2.7v8.11Z"/>
      <path class="cls-13" d="M159.86,120.33c-1.93.08-1.99,1.76-2.71,2.7-5.4,7.12-5.45,11.42-8.12,18.92l-5.05-.22c-.77-.77-.82-11.17-.36-13.29.12-.52,4.48-6.47,5.41-8.11,2.35-4.12,3.67-7.65,5.41-10.81.25-.45,2.67-.98,2.71-2.7h2.71c0,4.5,0,9.02,0,13.52Z"/>
      <path class="cls-20" d="M165.28,106.82c0,.9,0,1.8,0,2.7,0,3.6.09,7.22,0,10.81-.07,2.67.27,5.5,0,8.11-.16,1.57-.98,2.91-2.71,2.7v-10.81c0-9.89,0-19.84.01-29.73l2.7,16.21Z"/>
      <path class="cls-3" d="M162.57,120.33v13.52h-5.41c.25-1.52,2.54-3.75,2.71-5.41.13-1.29.12-2.56-.23-3.82l-2.48-1.59c.72-.94.78-2.63,2.71-2.7h2.71Z"/>
      <path class="cls-14" d="M162.57,152.77c-.51,4.67-4.46,8.3-8.12,10.81-.9.05-1.81-.07-2.71,0,.55-2.98-1.25-5.67-2.71-8.11-2.07-5.77,4.21-5.22,5.41-8.11.26-.63-.13-1.74,0-2.7,1.81.16,2.41-1.09,2.71-2.7l5.4-2.7c-2.76,4.7.35,10.39,0,13.51Z"/>
      <path class="cls-20" d="M159.86,128.44c-.16,1.66-2.46,3.88-2.71,5.41-.14.88.18,1.84,0,2.7h-2.71c.09-2.7-.1-5.42,0-8.12h5.42Z"/>
      <path class="cls-7" d="M167.98,120.33h-2.71c.09-3.6,0-7.21,0-10.81l2.27,1.82c1.2,2.86-.03,6.42.44,8.99Z"/>
      <path class="cls-6" d="M157.16,163.58v10.81c-1.15,2.65-3,4.92-2.71,8.11-1.87-1.68-3.74-3.54-5.41-5.41.31-1.92,3.73-4.73,2.7-8.1h-5.41c.37-.11,5.34-5.04,5.41-5.41.9-.07,1.81.05,2.71,0s1.81,0,2.71,0Z"/>
      <path class="cls-26" d="M138.21,168.99c2.48-.41,6.03.6,8.12,0-1.12,5.58.57,5.72,2.71,8.11-.32,1.96-.34,6.21,0,8.11h-2.71c-.31-3.51-1.99-10.19-5.41-10.81-2.43-.44-5.51.32-8.13,0v-5.4s5.42,0,5.42,0Z"/>
      <path class="cls-24" d="M146.33,185.21h2.71c.06.34,3.77,2.81,2.71,5.41l-13.53-2.71c-1.34-4.59,2.61-5.07,2.7-5.4l5.41,2.7Z"/>
      <path class="cls-24" d="M73.24,193.32v10.82c6.65,3.42,17.63-4.78,20.28-4.56.93.08,1.26,1.85,1.38,1.85-.27,1.7.41,3.95,0,5.41-.68,2.43-3.34,4.9-2.72,8.12l-21.63-5.42c.48,4.28-.73,9.53,0,13.52,1.46,8,7.39,2.58,8.12,2.7.3.05,2.03,3.77,5.41,2.72v2.68s-11.86.39-11.86.39l-1.67,2.32h-2.71c-2.7-7.94-5.36-11.54-4.69-22.47.27-4.44,3.53-9.93,1.99-15.37,2.96-7.03,7.57-2.71,8.12-2.7Z"/>
      <path class="cls-1" d="M67.83,171.69l2.72,8.11c4.42-1.54,6.16-6.27,10.81-8.11,1.22-.49,3.76.33,5.41,0-3,7-4.57,11.97-13.55,10.82l2.72,8.1v2.7c-.9-.01-1.8,0-2.71,0-.55,0-5.16-4.33-8.12,2.7-4.88,1.98-7.46-5.05-8.12-5.41,1.67-.26,1.95-1.64,2.71-2.7,4.14-5.86,8.14-9.04,2.71-16.22.43-.21,1.88-.07,2.71,0,.89.08,1.81-.06,2.71,0Z"/>
      <path class="cls-2" d="M57,179.8c-.18.46,3.43,2.53-2.71,8.1h5.41c-.75,1.08-1.04,2.45-2.71,2.71-.97-.53-3.82.35-5.41,0-.15-3.49,0-4.81,0-8.11l5.41-2.7Z"/>
      <path class="cls-13" d="M67.83,163.58c.11.89-.1,1.81,0,2.7-1.07.21-1.97.49-2.57,1.48l-.13,3.93c-.83-.07-2.28-.21-2.71,0-3.03,1.45-4.27,5.16-5.41,8.11l-5.41,2.7c0-2.23-2.89-7.35-2.71-13.52l3.78.11c7.38-7.38,8.15-10.91,9.75-21.74,7.93,2.22,4.71,10.35,5.41,16.22Z"/>
      <path class="cls-16" d="M59.71,139.25l2.71,2.7c-2.95,4.98.05,5.09,0,5.41-1.6,10.82-2.37,14.36-9.75,21.74l-3.78-.11c.2-6.76.9-4.68,6.95-7.99,1.71-2.01-1.62-4.85-1.53-5.53.06-.49,3.56-2.54,2.71-8.11-.3-1.94-3.88-4.75-2.63-8.03l5.34-.08Z"/>
      <path class="cls-5" d="M54.3,155.47c-2.45,1.48-5.16,2.93-8.12,2.7-1.31-4.55,1.91-5.86,5.41-8.11,1.68-1.08,3.64-1.78,5.41-2.7.86,5.57-2.65,7.61-2.71,8.11Z"/>
      <path class="cls-21" d="M43.47,201.42l-2.71-2.7v-10.81l2.49,1.52c1.06,3.76-.41,8.41.21,12Z"/>
      <path class="cls-21" d="M43.47,225.75l-2.7,2.7c.25-3.54-.41-7.3-.01-10.81l2.28,1.79c1.02,1.97-.04,4.78.43,6.32Z"/>
      <path class="cls-23" d="M97.61,244.67v5.4c-1.8.02-3.62.02-5.41,0v-5.4c1.1.26,4.3.26,5.41,0Z"/>
      <path class="cls-26" d="M57,131.14c.06,1.25-.33,2.62.22,3.81.41,1.23,1.63,1.09,2.49,1.59v2.7l-5.34.08c-1.25,3.28,2.33,6.09,2.63,8.03-1.78.92-3.73,1.62-5.41,2.7-3.86-1.43-3.2-9.14-5.41-10.81l5.28-.13.13-7.98c1.72-.25,3.93.39,5.41,0Z"/>
      <path class="cls-3" d="M51.59,131.14l-.13,7.98-5.28.13c-.57-.43-2.08.42-2.71,0l2.71-8.11v-2.7h2.71l2.71,2.7Z"/>
      <path class="cls-14" d="M54.3,128.44h-10.83c.17-2.68-.26-5.45,0-8.11h2.71c3.81,6.55,4.94,1.36,8.12-2.7-.48,3.37.33,7.32,0,10.81Z"/>
      <path class="cls-24" d="M54.3,114.93c-.26.66.14,1.75,0,2.7-3.18,4.07-4.31,9.25-8.12,2.7v-8.11l8.12,2.7Z"/>
      <path class="cls-8" d="M46.18,120.33h-2.71c.12-1.27-.12-2.57.38-3.81l2.33-1.6v5.41Z"/>
      <path class="cls-22" d="M103.02,223.05c-1.73.24-3.88-.37-5.41,0l-10.83,8.1h13.53c1.08-4.49-4.97-1.53-5.41-5.4h8.12c.09.91,2.47,6.35,2.71,8.11-8.33.97-13.96,3.18-24.36,2.7l-1.75-2.32c-2.07-.85-4.36-.18-6.37-.38-.89-.09-1.81.07-2.71,0l1.67-2.32,11.86-.39v-2.68c-3.38,1.06-5.11-2.66-5.41-2.72h5.41s0-2.69,0-2.69c-5.24-.9-8.83-4.13-13.53-.01-.73-3.99.49-9.24,0-13.52l21.63,5.42c-.62-3.22,2.04-5.69,2.72-8.12,11.32-.13,6.99,9.13,8.12,16.22Z"/>
      <path class="cls-25" d="M103.02,160.88v8.1s2.69,0,2.69,0l2.72-5.4,3.95.12c1.34.49,1.28,1.43,1.47,2.58l-2.37,1.62c-.76,3.38-.76,6.89,0,10.27l2.37,1.62c-1.45,3.45-5.43,1.7-5.43,4.05l5,1.69.43,5.06c-1.73.25-3.78-.31-5.41,0-.87.17-1.84-.17-2.71,0v-13.52c-5.89,1.42-5.34,8.89-8.12,13.52-3.02.04-6.07-.46-9.07.39l-1.76,2.32c-.88-.13-1.82.1-2.71,0v-2.7l13.53-29.73c1.79,0,3.64.14,5.41,0Z"/>
      <path class="cls-4" d="M84.07,193.32c.89.1,1.83-.13,2.71,0s1.83-.14,2.71,0c1.6.25,7.94,5.37,13.54,2.71v5.4c-2.71.02-5.42,0-8.13,0-.12,0-.44-1.77-1.38-1.85-2.65-.22-13.63,7.98-20.28,4.56v-10.82c.9,0,1.8-.01,2.71,0,2.65.03,5.56-.3,8.12,0Z"/>
      <path class="cls-5" d="M119.26,204.13h5.41s-2.7,10.81-2.7,10.81c-1.94,1.19-7.59,6.05-8.11,5.41-2.47-8.12,3.39-11.09,5.4-16.22Z"/>
      <path class="cls-1" d="M105.73,190.61c-.87.17-1.83-.15-2.71,0-1.8.02-3.61-.03-5.41,0,2.78-4.63,2.23-12.09,8.11-13.52v13.52Z"/>
      <path class="cls-6" d="M119.26,196.02h-10.83c.45-1.35-.3-3.73,0-5.41,1.64-.31,3.69.25,5.41,0,1.43-.21,2.24-2.5,2.71-2.7.68-.3,1.8.2,2.71,0v8.11Z"/>
      <path class="cls-14" d="M119.26,196.02c0,.89.08,1.82,0,2.7s.13,1.83,0,2.7l-13.54-2.72c-.63-2.26,2.62-2.42,2.71-2.69h10.83Z"/>
      <path class="cls-14" d="M97.61,190.61c1.8-.03,3.61.02,5.41,0-1.81.31-7.97,5.25-13.53,2.7-.88-.14-1.82.13-2.71,0l1.76-2.32c3-.85,6.05-.34,9.07-.39Z"/>
      <path class="cls-14" d="M103.02,223.05c.14.87-.09,1.81,0,2.7h-8.12c-.3-2.62.93-2.28,2.71-2.7,1.54-.37,3.69.24,5.41,0Z"/>
      <path class="cls-23" d="M119.26,160.88c8.48,4.18,4.04,7.4,5.97,14.28s4.86,14.08,7.57,20.86c-2.6.28-5.82-.49-8.12,0l-5.41-8.11c-.91.2-2.03-.3-2.71,0l-.39-9.06-2.32-1.76c.25-3.04.47-8.02,0-10.81-.19-1.15-.13-2.09-1.47-2.58l-3.95-.12v-2.7c3.43-.14,3-3.86,10.83,0Z"/>
      <path class="cls-18" d="M132.79,139.25v8.11c0,1.76-.2,3.69,0,5.41-1.99.29-4.53,2.42-8.12,2.7-1.79.14-3.62-.11-5.41,0,0-1.8,0-3.6,0-5.41,0-.87-.13-1.85,0-2.7.4-2.72-1.1-4.64,2.71-5.41.37,1.5-.3,3.68,0,5.41h1.36c6.12.95,3.33-1.39,4.05-5.41.17-.93-.25-1.99,0-2.7,1.78-.13,3.65.19,5.41,0Z"/>
      <path class="cls-1" d="M119.26,155.47c1.79-.11,3.63.14,5.41,0v5.41s-5.41,0-5.41,0c-7.83-3.86-7.39-.14-10.83,0-1.79.07-3.63-.14-5.41,0l-1.45-2.6c-2.22-.17-4.47-.27-6.68-.1v-2.7c8.07-.33,16.31.48,24.36,0Z"/>
      <path class="cls-14" d="M138.21,147.36l5.24.23c-1,2.75-2.28,4.73-2.53,7.88-.17,2.14-.22,4.26.37,6.36l2.34,1.75c-.39.09-2.78,3.75-5.41,2.7-.85-2.97-4.57-5.13-5.41-8.11h5.41s0-5.4,0-5.4c-1.76.12-3.71-.25-5.41,0-.2-1.72,0-3.64,0-5.41h5.41Z"/>
      <path class="cls-18" d="M151.74,163.58c-.07.38-5.05,5.3-5.41,5.41h5.41c1.02,3.37-2.39,6.19-2.7,8.11-2.13-2.39-3.82-2.53-2.71-8.11-2.09.6-5.64-.41-8.12,0-.18-.86.24-1.88,0-2.7,2.63,1.05,5.02-2.62,5.41-2.7,2.23-.49,5.52.19,8.12,0Z"/>
      <path class="cls-14" d="M146.33,185.21l-5.41-2.7c.58-2.14-.39-5.62,0-8.11,3.42.62,5.1,7.3,5.41,10.81Z"/>
      <path class="cls-24" d="M132.79,152.77c1.7-.25,3.65.13,5.41,0v5.4s-5.41,0-5.41,0c-.39-1.4.2-3.66,0-5.41Z"/>
      <rect class="cls-24" x="130.09" y="177.1" width="5.4" height="5.4"/>
      <path class="cls-24" d="M81.36,236.56c-2.11-.1-4.28.4-6.37-.38l-1.75-2.32c2.01.2,4.3-.48,6.37.38l1.75,2.32Z"/>
      <path class="cls-10" d="M124.67,196.02c-.38.08-2.78,3.75-5.41,2.7.08-.88,0-1.81,0-2.7v-8.11l5.41,8.11Z"/>
      <path class="cls-23" d="M92.19,96c-1.92,6.23,1.89,11.64,2.71,16.22.16.87-.18,1.85,0,2.7,1.07,4.98-.5,4.84,2.71,10.81.95,1.78,1.87,3.57,2.71,5.41-2.54.07-1.15,1.07-8.12,0-.91-2.3-4.59-2.43-4.99-3.07-.53-.85-4.37-14.3-5.84-18.56-1.13-3.27-.92-9.62-2.71-13.52,1.4.32,3.71.02,5.41,0,3.41-.05,2.78-.73,8.12,0Z"/>
      <path class="cls-24" d="M67.83,109.52c-1.13,4.22,5.05,20.29,8.12,21.62-1.64-.33-4.23.49-5.41,0-.18-.07-2.21-2.18-2.71-2.7.64-3.35-3.52-18.42-5.41-16.22l5.41-2.7Z"/>
      <path class="cls-26" d="M62.42,104.11h8.12c1.29,4.29-2.61,5.08-2.7,5.41l-5.41,2.7h-2.71v-2.7c.98-1.97,1.34-3.08,2.71-5.41Z"/>
      <path class="cls-5" d="M78.66,139.25c.33-.07.85-4.04,5.41-2.7v5.4c-1.5.3-3.66-.02-5.41,0v-2.7Z"/>
      <path class="cls-9" d="M75.95,133.85v5.41c-1.61.23-3.7.07-5.41,0-.32-1.6.22-3.66,0-5.41h5.41Z"/>
      <path class="cls-9" d="M92.19,131.14c.44,1.12-.22,3.7,0,5.4h-5.41c.33-1.58-.24-3.65,0-5.4,1.77.11,3.72-.26,5.41,0Z"/>
      <path class="cls-14" d="M75.95,131.14c1.14.5,3.73-.31,5.41.01l.02,1.34-5.42,1.35h-5.41v-2.7c1.19.49,3.77-.33,5.41,0Z"/>
      <rect class="cls-24" x="78.66" y="123.04" width="5.4" height="5.4"/>
      <polygon class="cls-24" points="81.36 109.52 80.01 112.21 73.24 112.21 77.3 106.84 81.36 109.52"/>
      <path class="cls-14" d="M75.95,139.25c.9-.13,1.87.18,2.71,0v2.7c-.87.01-1.86.12-2.71,0-1.24-.18-2.7.39-3.92-.14-1.59-.39-1.26-1.4-1.49-2.56,1.71.07,3.8.23,5.41,0Z"/>
      <path class="cls-22" d="M132.79,55.46v2.7c-1.23-.44-3.71.23-5.41,0-.08,2.69.09,5.41,0,8.1-.03.89-.05,1.82,0,2.7.16,2.68-.12,5.42.01,8.1l1.34.02,1.35-8.12h2.71c5.14,3.46,6.63,3.47,5.37,10.71l-6.12.64-1.96,2.16c-.95-.13-2.01.25-2.71,0-1.03-.36-4.53-4.69-6.78-5.38-2.02,1.58-3.14,2.95-4.05,5.38-.19.51-.1,1.93,0,2.7h-8.12c1.49-5.35-2.43-7.09-2.71-8.11-1.45-5.31,2.26-6.75,2.71-8.11,3.5,3.01,8.09,2.54,11.86.09,3.24-2.1,1.01-3.95,1.67-5.5.73-1.7,4.42-3.71,2.71-8.11,2.7.01,5.43-.13,8.12,0Z"/>
      <path class="cls-5" d="M97.61,87.9c-3.2-.6-7.38.43-10.82,0,3.31-7.23.93-11.93,1.32-18.93,8.82-7.11-.27,5,2.75,5.42,7.52,1.04,1.12-5.96,6.75-5.41l-5.4,16.2,8.13-13.5,2.69,6.76,2.71-1.36c.28,1.02,4.19,2.76,2.71,8.11-.09.34-3.41.46-2.71,2.69h5.41c-.22.07-1.27,2.56-2.71,2.71-2.5-.39-5.99.59-8.12,0-.18-.05.73-2.06-2.71-2.7Z"/>
      <path class="cls-5" d="M124.67,55.46c1.71,4.4-1.98,6.41-2.71,8.11l-6.72-2.82-1.88,4.94-4.94.58c-.69-2.22-4.86-5.64-2.71-10.81,6.6-.62,13.13-.03,18.95,0Z"/>
      <path class="cls-26" d="M121.97,63.57c-.66,1.55,1.57,3.39-1.67,5.5-3.78,2.45-8.37,2.92-11.86-.09.17-.52.16-2.18,0-2.7l4.94-.58,1.88-4.94,6.72,2.82Z"/>
      <path class="cls-5" d="M138.21,55.46v5.4c-4.3,1.3-5.05-2.57-5.41-2.7v-2.7c1.79.09,3.62,0,5.41,0Z"/>
      <path class="cls-14" d="M100.31,90.6v2.7l-9.07-.39-1.76-2.31c2.01-.21,4.31.48,6.38-.38l1.74-2.33c3.44.65,2.52,2.65,2.71,2.7Z"/>
      <path class="cls-18" d="M89.48,90.6l1.76,2.31,9.07.39c-.14.88.19,1.85,0,2.7-2.64-.24-5.55.35-8.12,0-5.34-.73-4.71-.05-8.12,0v-5.41c1.78-.17,3.64.19,5.41,0Z"/>
      <path class="cls-6" d="M59.71,112.22c1.95,6.2-1.94,11.72-2.71,16.22h-2.71c.33-3.5-.48-7.44,0-10.81.14-.95-.26-2.04,0-2.7.49-1.26,4.59-3.75,5.41-5.41v2.7Z"/>
      <path class="cls-25" d="M121.97,101.41c1.27.11,2.58-.12,3.81.38l1.6,2.32c-1.78.71-2.68,1.02-3.99,2.66-.91,1.13-9.23,15.37-9.54,16.27h-10.84s0,8.11,0,8.11c-.9.04-1.81-.03-2.71,0-.84-1.83-1.75-3.63-2.71-5.41l-.39-9.06-2.32-1.76c-.18-.86.16-1.83,0-2.7l5.41-2.7v10.81s5.06-4.02,5.06-4.02c-1.36-2.09-2.13-4.3-2.35-6.8-.08-.89.15-1.84,0-2.7l2.73,5.4,5.38.02,2.72-10.82c2.68.05,5.47-.23,8.12,0Z"/>
      <path class="cls-23" d="M130.09,104.11l-5.39,12.24c-.47,1.7,4.52,1.28,5.39,3.98-1.73.24-3.86-.35-5.41,0-1.15.26-2.22-.37-2.45,1.58l-.3,9.22c-2.68.2-5.39-.08-8.08.02.45-2.4-.65-6.21,0-8.11.31-.89,8.63-15.13,9.54-16.27,1.31-1.64,2.21-1.94,3.99-2.66.49-.19,2-.11,2.71,0Z"/>
      <path class="cls-7" d="M143.62,128.44c-.47,2.12-.41,12.52.36,13.29l5.05.22c-.28.79.27,1.88,0,2.7-.56,1.71-2.46,7.76-2.71,8.11-.62.9-4.08,1.74-5.41,2.7.26-3.15,1.54-5.13,2.53-7.88l-5.24-.23-.4-4.96-5.01-.45v-2.7c3.68-.4,5.73-.69,8.12-4.06v-1.34c-1.75-.18-3.72.26-5.41-.01-1.18-.19-2.2.28-2.69-1.35,0-1.71,2.6-1.23,2.69-1.35l8.12-2.7Z"/>
      <path class="cls-6" d="M113.85,123.04c-.65,1.9.45,5.71,0,8.11-3.6.13-7.23-.15-10.83,0v-8.12s10.83,0,10.83,0Z"/>
      <path class="cls-20" d="M119.26,139.25c-2.95-.59-7.42.11-10.83,0-2.68-.09-5.45-.12-8.12,0s-5.42-.08-8.12,0c5.42-5.5,17.69-2.05,25.4-2.32l1.67,2.32Z"/>
      <path class="cls-26" d="M143.62,114.93h5.42s0,5.41,0,5.41c-.93,1.64-5.3,7.59-5.41,8.11l-2.71-2.7c.59-1.27,1.44-7.22,2.71-10.81Z"/>
      <path class="cls-14" d="M149.04,109.52h5.41c-1.75,3.16-3.07,6.7-5.41,10.81v-5.41s-5.41,0-5.41,0c.39-1.11-.88-3.77.37-5.02s4.23.05,5.04-.38Z"/>
      <path class="cls-16" d="M119.26,139.25c2.16.43,2.17.54,2.71,2.7-3.8.77-2.3,2.69-2.71,5.41-4.09-1.94-9.36-3.3-10.83-8.11,3.41.11,7.88-.59,10.83,0Z"/>
      <path class="cls-17" d="M127.38,98.71c1.79-.14,3.63.13,5.41,0,.35,1.61-.52,4.36,0,5.41-.89-.11-1.83.14-2.71,0-.7-.11-2.22-.19-2.71,0l-1.6-2.32c-1.24-.5-2.54-.27-3.81-.38v-2.7c1.79-.04,3.63.14,5.41,0Z"/>
      <path class="cls-24" d="M135.5,133.85c1.69.27,3.65-.17,5.41.01v1.34c-2.39,3.37-4.44,3.66-8.12,4.06-1.77.19-3.63-.13-5.41,0,1.32-3.72,6.58-1.94,8.12-5.41Z"/>
      <path class="cls-24" d="M130.09,125.74c.06,2.69-.03,5.42,0,8.1l-5.44-1.38c-.39-2.43,2.63-5.29,2.73-6.73h2.71Z"/>
      <path class="cls-5" d="M127.38,141.96c-.72,4.02,2.07,6.35-4.05,5.41h-1.36c-.3-1.73.37-3.92,0-5.41,1.6-.32,3.67.22,5.41,0Z"/>
      <path class="cls-9" d="M143.62,128.44l-8.12,2.7c2.07-2.78,5.25-5.06,5.41-5.41l2.71,2.7Z"/>
      <rect class="cls-15" x="132.8" y="114.93" width="5.4" height="5.4"/>
      <rect class="cls-9" x="140.92" y="101.42" width="5.4" height="5.4"/>
      <path class="cls-9" d="M132.79,104.11c.43.87,5.91,2.22,5.41,5.4h-5.41s0-5.4,0-5.4Z"/>
      <path class="cls-22" d="M130.09,120.33c.38,1.18-.04,3.71,0,5.41h-2.71c.09-1.22-2.18-3.82-2.71-5.41,1.56-.35,3.68.24,5.41,0Z"/>
      <path class="cls-22" d="M116.55,87.9v5.41c.86,1.26,5.45-4.9,8.12-5.41.31-.06.93.75,5.41,0,1.68-.28,3.66.19,5.41,0l2.71,8.1-9.09.46-1.75,2.25c-1.78.14-3.62-.04-5.41,0l-1.52-2.48-11.72-.66-.29-4.97c1.44-.16,2.48-2.64,2.71-2.7,1.44-.38,3.68.2,5.41,0Z"/>
      <path class="cls-5" d="M138.21,68.97h2.71c-.8,3.88.56,9.3,0,13.52-3.51-.32-7.45.47-10.84,0l1.96-2.16,6.12-.64c1.26-7.24-.23-7.25-5.37-10.71h5.41Z"/>
      <path class="cls-5" d="M127.38,82.49v2.7c-1.59.35-2.77.81-2.71,2.7-2.67.51-7.26,6.67-8.11,5.41v-5.41c5.68.69,6.11.29,5.4-5.4h-5.41c.91-2.43,2.03-3.8,4.05-5.38,2.24.69,5.75,5.01,6.78,5.38Z"/>
      <path class="cls-14" d="M138.21,63.57v5.41h-10.83c-.05-.89-.03-1.81,0-2.7,3.74-.37,7.07-2.39,10.83-2.7Z"/>
      <path class="cls-9" d="M138.21,63.57c1.78-.15,3.63.06,5.41,0,1.26,4.19-2.63,5.07-2.7,5.4h-2.71v-5.41Z"/>
      <path class="cls-14" d="M130.09,85.19v2.7c-4.48.75-5.1-.06-5.41,0-.07-1.89,1.11-2.35,2.71-2.7.73-.16,1.94-.09,2.71,0Z"/>
      <path class="cls-5" d="M135.5,87.9c-1.75.19-3.73-.28-5.41,0v-2.7c1.2.14,2.55-.35,3.82.23l1.6,2.47Z"/>
      <path class="cls-16" d="M159.86,128.44h-5.42c-.1,2.69.1,5.41,0,8.11-.09,2.66.34,5.62,0,8.11-.13.96.26,2.07,0,2.7l-5.41-2.7c.27-.82-.28-1.91,0-2.7,2.67-7.5,2.72-11.8,8.12-18.92l2.48,1.59c.35,1.26.36,2.52.23,3.82Z"/>
      <path class="cls-13" d="M149.04,155.47c1.45,2.44,3.26,5.13,2.71,8.11-2.6.19-5.89-.49-8.12,0l-2.34-1.75c-.59-2.09-.54-4.22-.37-6.36,1.33-.96,4.79-1.8,5.41-2.7.31,1.41,2.32,2.05,2.71,2.7Z"/>
      <path class="cls-15" d="M154.45,147.36c-1.2,2.89-7.48,2.34-5.41,8.11-.39-.65-2.4-1.29-2.71-2.7.24-.35,2.15-6.4,2.71-8.11l5.41,2.7Z"/>
      <path class="cls-26" d="M70.54,223.05c4.7-4.12,8.29-.89,13.53.01v2.68s-5.41.01-5.41.01c-.73-.12-6.66,5.3-8.12-2.7Z"/>
      <path class="cls-18" d="M67.83,139.25l-.14,3.81,4.99,2.08.56,4.92c-2.23.68-2.14.24-2.71,2.7-.35,1.51.16,3.65,0,5.4,4.56,1.33,5.07-2.63,5.41-2.7.89-.18,1.89.21,2.71,0,1.48-.38,3.69.31,5.42,0,.18-1.77-.23-3.67,0-5.41h5.41c.57,2.68,2.38,2.23,2.71,2.7.75,1.09,1.45,2.13,2.71,2.7v2.7c-5.06.39-4.65,2.37-5.41,2.7-1.6.69-2.45,2.61-2.71,2.7-.72.26-1.78-.18-2.71,0-1.6.32-3.66-.21-5.41,0l2.7,8.1c-4.65,1.85-6.39,6.57-10.81,8.11l-2.72-8.11,2.48-1.34c-.48-1.39-2.37-2.97-2.48-4.07,1.6-.31,3.66.27,5.42,0v-5.4s-5.42,2.7-5.42,2.7c-.71-5.86,2.51-14-5.41-16.22.05-.31-2.95-.43,0-5.41.21-.36,2.83-.77,2.71-2.7.8.21,1.79-.15,2.71,0Z"/>
      <path class="cls-23" d="M97.61,160.88l-13.53,29.73h-8.12l-2.72-8.1c8.98,1.15,10.55-3.83,13.55-10.82.31-.73-.29-1.87,0-2.7.09-.28,3.64-1.32,2.69-3.88l-2.69-1.53c.26-.09,1.1-2.02,2.71-2.7h8.12Z"/>
      <path class="cls-26" d="M59.71,187.91h-5.41c6.13-5.58,2.53-7.65,2.71-8.11,1.15-2.95,2.39-6.66,5.41-8.11,5.44,7.18,1.43,10.36-2.71,16.22Z"/>
      <path class="cls-9" d="M84.07,163.58l.37,3.81,2.34,1.59c-.29.84.31,1.97,0,2.7-1.65.33-4.19-.49-5.41,0l-2.7-8.1c1.76-.22,3.81.31,5.41,0Z"/>
      <path class="cls-17" d="M84.07,190.61v2.7c-2.56-.3-5.47.03-8.12,0v-2.7h8.12Z"/>
      <path class="cls-24" d="M67.83,171.69c-.9-.06-1.81.08-2.71,0l.13-3.93c.61-.99,1.5-1.27,2.57-1.48.12,1.1,2,2.67,2.48,4.07l-2.48,1.34Z"/>
      <path class="cls-5" d="M67.83,163.58l5.4-2.7v5.4c-1.74.27-3.81-.31-5.4,0-.1-.89.11-1.82,0-2.7Z"/>
      <path class="cls-9" d="M65.12,139.25c.12,1.94-2.49,2.34-2.71,2.7l-2.71-2.7v-2.7c.62.36,5.12,2.63,5.41,2.7Z"/>
      <path class="cls-13" d="M67.83,128.44c.5.52,2.53,2.63,2.71,2.7v2.7c.22,1.74-.32,3.81,0,5.41-.89-.03-1.85.14-2.71,0-.92-.15-1.91.21-2.71,0-.29-.08-4.8-2.35-5.41-2.7-.86-.5-2.08-.36-2.49-1.59-.55-1.2-.16-2.57-.22-3.81,4.38-1.15,4.72-5.96,8.12-8.11.96,2.42-.2,2.34,2.71,5.41Z"/>
      <path class="cls-5" d="M54.3,128.44h2.71c-.14.82-.04,1.86,0,2.7-1.49.39-3.69-.25-5.41,0l-2.71-2.7h5.41Z"/>
      <path class="cls-26" d="M97.61,223.05c-1.78.42-3,.09-2.71,2.7.44,3.87,6.49.9,5.41,5.4h-13.53s10.83-8.1,10.83-8.1Z"/>
      <path class="cls-13" d="M116.55,187.91c-.47.2-1.28,2.5-2.71,2.7l-.43-5.06-5-1.69c0-2.35,3.98-.61,5.43-4.05.25-.59-.08-1.75,0-2.7l2.32,1.76.39,9.06Z"/>
      <path class="cls-3" d="M113.85,177.1c-.08.96.25,2.11,0,2.7l-2.37-1.62c-.76-3.38-.76-6.89,0-10.27l2.37-1.62c.47,2.8.25,7.77,0,10.81Z"/>
      <path class="cls-2" d="M94.9,158.18c2.21-.17,4.46-.07,6.68.1l1.45,2.6c-1.77.14-3.63,0-5.41,0h-8.12c.77-.33.35-2.31,5.41-2.7Z"/>
      <path class="cls-20" d="M108.43,160.88v2.7l-2.72,5.4h-2.68s-.01-8.1-.01-8.1c1.78-.14,3.62.07,5.41,0Z"/>
      <path class="cls-13" d="M100.31,150.07c.84.05,2.52,2.04,4.41,2.1,4.42.14,9.47-3.41,14.54-2.1,0,1.8,0,3.6,0,5.41-8.05.48-16.3-.33-24.36,0-1.25-.57-1.96-1.62-2.71-2.7l1.71-2.39c2.12-.57,4.26-.43,6.41-.31Z"/>
      <path class="cls-17" d="M108.43,139.25c1.47,4.8,6.73,6.17,10.83,8.11-.13.85,0,1.83,0,2.7-5.06-1.31-10.11,2.24-14.54,2.1-1.89-.06-3.57-2.05-4.41-2.1v-2.7h8.12s0-5.4,0-5.4c-3.39-1.76-9.45,4.33-8.12,5.4-9.12.76-6.9-4.52,0-8.11,2.67-.12,5.44-.09,8.12,0Z"/>
      <polygon class="cls-9" points="132.79 141.96 137.81 142.4 138.21 147.36 132.79 147.36 132.79 141.96"/>
      <path class="cls-6" d="M100.31,96c-.19.85.14,1.83,0,2.7h-5.41s0,5.41,0,5.41c2.94-1.24,4.68-2.31,8.11-2.7.36,1.57-.29,3.7,0,5.41.15.87-.08,1.81,0,2.7h-2.71l-5.41,2.7c-.82-4.58-4.62-9.98-2.71-16.22,2.57.35,5.48-.24,8.12,0Z"/>
      <path class="cls-16" d="M97.61,125.74c-3.2-5.98-1.64-5.83-2.71-10.81l2.32,1.76.39,9.06Z"/>
      <path class="cls-16" d="M100.31,139.25c-6.9,3.59-9.12,8.86,0,8.11v2.7c-2.15-.12-4.29-.26-6.41.31l-1.71,2.39c-.33-.47-2.14-.03-2.71-2.7-.14-.65-.17-2.07,0-2.7.25-.93,4.54-4.08,2.71-8.11,2.7-.08,5.42.12,8.12,0Z"/>
      <path class="cls-24" d="M75.95,141.96v8.11c-.94.1-1.99-.22-2.71,0l-.56-4.92-4.99-2.08.14-3.81c.86.14,1.82-.03,2.71,0,.24,1.16-.1,2.17,1.49,2.56,1.22.53,2.68-.04,3.92.14Z"/>
      <path class="cls-9" d="M89.48,147.36c-.17.63-.14,2.05,0,2.7h-5.41c.22-1.73-.14-3.64,0-5.4h4.04s1.36,2.7,1.36,2.7Z"/>
      <path class="cls-14" d="M75.95,150.07c.88-.09,1.81.03,2.71,0v5.41c-.82.21-1.82-.18-2.71,0l-1.59-2.34-3.82-.37c.57-2.46.48-2.02,2.71-2.7.72-.22,1.76.1,2.71,0Z"/>
      <path class="cls-15" d="M84.07,150.07c-.22,1.74.19,3.64,0,5.41-1.73.3-3.94-.39-5.42,0v-5.41c1.8-.05,3.61,0,5.41,0Z"/>
      <path class="cls-14" d="M67.83,128.44c-2.9-3.06-1.74-2.98-2.71-5.41-1.43-3.6-3.62-6.39-2.71-10.81,1.9-2.2,6.05,12.87,5.41,16.22Z"/>
      <path class="cls-2" d="M65.12,123.04c-3.4,2.15-3.74,6.96-8.12,8.11-.04-.84-.14-1.89,0-2.7.76-4.5,4.66-10.02,2.71-16.22h2.71c-.91,4.42,1.28,7.21,2.71,10.81Z"/>
      <path class="cls-14" d="M116.55,82.49h5.41c.72,5.69.28,6.1-5.41,5.41-.09-.89.11-1.82,0-2.7-.1-.77-.19-2.19,0-2.7Z"/>
      <path class="cls-24" d="M116.55,85.19c.11.88-.09,1.81,0,2.7-1.73.2-3.98-.38-5.41,0h-5.41c-.7-2.25,2.61-2.36,2.71-2.7h8.12Z"/>
      <path class="cls-5" d="M130.09,68.97l-1.35,8.12-1.34-.02c-.13-2.68.15-5.42-.01-8.1h2.71Z"/>
      <path class="cls-24" d="M108.43,90.6l.29,4.97,11.72.66,1.52,2.48c-3.93.1-7.91-.53-11.83.38l-1.7,2.32c-1.78.09-3.67-.2-5.41,0-.24-1.06-1.74-2.04-2.71-2.7.14-.88-.19-1.85,0-2.7s-.14-1.83,0-2.7v-2.7c2.13.59,5.62-.39,8.12,0Z"/>
      <path class="cls-18" d="M108.43,101.41c1.78-.09,3.62-.03,5.41,0l-2.72,10.82-5.38-.02-2.73-5.4c-.29-1.7.36-3.83,0-5.41,1.75-.2,3.63.09,5.41,0Z"/>
      <path class="cls-14" d="M121.97,98.71v2.7c-2.66-.23-5.44.05-8.12,0-1.79-.03-3.63-.09-5.41,0l1.7-2.32c3.92-.91,7.9-.29,11.83-.38Z"/>
      <path class="cls-20" d="M103.02,109.52c.22,2.5.99,4.7,2.35,6.8l-5.05,4.02v-10.81s2.7,0,2.7,0Z"/>
      <path class="cls-24" d="M75.95,155.47c-.33.07-.84,4.03-5.41,2.7.15-1.75-.35-3.89,0-5.4l3.82.37,1.59,2.34Z"/>
      <path class="cls-1" d="M86.78,168.99l-2.34-1.59-.37-3.81c.93-.18,1.99.26,2.71,0l2.69,1.53c.95,2.55-2.6,3.6-2.69,3.88Z"/>
      <path class="cls-20" d="M100.31,147.36c-1.34-1.07,4.73-7.16,8.12-5.4v5.4s-8.12,0-8.12,0Z"/>
      <path class="cls-2" d="M100.31,98.71c.97.66,2.47,1.64,2.71,2.7-3.43.39-5.17,1.47-8.11,2.7v-5.4s5.4,0,5.4,0Z"/>
    </g>
  </g>
</svg>