<?xml version="1.0" encoding="UTF-8"?>
<svg id="Layer_2" data-name="Layer 2" xmlns="http://www.w3.org/2000/svg" viewBox="0 0 217.59 288.38">
  <defs>
    <style>
      .cls-1 {
        fill: #050505;
      }

      .cls-2 {
        fill: #191a18;
      }

      .cls-3 {
        fill: #414141;
      }

      .cls-4 {
        fill: #87722b;
      }

      .cls-5 {
        fill: #f5f5f6;
      }

      .cls-6 {
        fill: #e5e9f1;
      }

      .cls-7 {
        fill: #dab924;
      }

      .cls-8 {
        fill: #3a3a3a;
      }

      .cls-9 {
        fill: #b7c4d9;
      }

      .cls-10 {
        fill: #fe1417;
      }

      .cls-11 {
        fill: #13140f;
      }

      .cls-12 {
        fill: #fff;
      }

      .cls-13 {
        fill: #c4a025;
      }

      .cls-14 {
        fill: #172680;
      }

      .cls-15 {
        fill: #b7a68b;
      }

      .cls-16 {
        fill: #c71618;
      }

      .cls-17 {
        fill: #802121;
      }

      .cls-18 {
        fill: #232322;
      }

      .cls-19 {
        fill: #0c0c0c;
      }

      .cls-20 {
        fill: #fe0c11;
      }

      .cls-21 {
        fill: #f2d621;
      }

      .cls-22 {
        fill: #585858;
      }

      .cls-23 {
        fill: #f0f1f3;
      }

      .cls-24 {
        fill: #fe2327;
      }

      .cls-25 {
        fill: #95a4ca;
      }

      .cls-26 {
        fill: #ad912e;
      }

      .cls-27 {
        fill: #6874af;
      }
    </style>
  </defs>
  <g id="Layer_1-2" data-name="Layer 1">
    <g>
      <rect class="cls-12" x="2.17" y="1.65" width="210" height="284"/>
      <path class="cls-18" d="M216.55,4.46l-5.41,2.7H5.41v275.71c67.81,2.58,138.21-3.46,205.72,0,.33.02,1.54,3.71,5.41,0-.07,1.89,1.13,5.7-1.49,5.43l-208.36.05c-2.23.3-6.7-2.85-6.7-4.12V5.82C0,2.75,6.58,1.88,9.36,1.65c64.18-5.3,135.51,4.23,200.48.05l6.71,2.76Z"/>
      <path class="cls-19" d="M216.55,4.46c-2.44,92.29,3.26,186.32,0,278.42-3.87,3.71-5.08.02-5.41,0V7.17l5.41-2.7Z"/>
      <path class="cls-11" d="M189.48,234.23c-6.76-9.22-15.58-28.41,2.7-21.63l-2.7-8.1c9.7-2.21,6.57,2.8,9.93,5.4,2.88,2.23,7.94,5.1,11.72,5.4v5.41l-13.56,2.74,1.49,8.11c-2.56,3.66-6.11,2.3-9.59,2.66,5.79,7.91,14.21,4.4,16.17,17.63,1.73,11.69.09,21.7-12.1,25.78-16.08.01-6.4-33.47-9.48-43.41,1.78-.12,3.64.18,5.41,0ZM197.6,245.03h-8.11v24.35h8.11v-24.35Z"/>
      <path class="cls-1" d="M175.95,34.2l-.38,11.81-2.32,1.7c-.14-2.69.19-5.43,0-8.11-.06-.9.05-1.8,0-2.7-1.38-4.42-21.5-2.95-27.07-2.7-2.63.12-5.75-.41-8.12,0-1.01.17-2.12,1.71-2.71,2.7h-2.71c-.81-2.45-3.3-2.4-5.41-2.7-2.48-.35-5.46.12-8.12,0-.9-.04-1.81.03-2.71,0-1.8-.05-3.61.03-5.41,0-2.71-.04-5.41.02-8.12,0-.9,0-1.8,0-2.71,0h-59.56c-.05,22.49.1,45.08,0,67.58-.05,11.68-.11,23.46,0,35.14.02,1.8-.02,3.6,0,5.41.08,6.27-.32,12.67,0,18.92.09,1.75-.36,4.01,0,5.41.24.95,2.42,2.91,2.71,2.7v2.7c-2.6,1.55-2.34,2.85-2.71,5.41-.13.87.06,1.81,0,2.7-.22,3.58.1,7.22,0,10.81-.08,2.7.04,5.41,0,8.11-.12,7.18-.09,14.45,0,21.62.02,1.8,0,3.6,0,5.41.03,7.18-.22,14.45,0,21.62.05,1.76-.31,3.9,0,5.41.23,1.11-.3,2.07,1.44,2.56,6.32-.01,12.81.61,19.12.29,4.69-.24,6.16-2.78,6.5-2.85,3.1-.63,6.6,2.66,8.12,2.7,1.24.04,4.39-2.9,5.41-2.7,6.72,1.3,9.71,3.13,18.95,2.7,6.78-.31,6.5-1.28,10.83-2.7.52-.17,2.19-.16,2.71,0,.84.27,1.68,2.83,6.51,2.85,17.15.1,34.31-.47,51.45-.03l1.59-5.53h5.41c-.08,2.7.08,5.43,0,8.12H37.9V31.5c42.65,2.62,89.28-3.48,131.46-.12,1.69.13,3.28.06,4.95.47s1.36,2.08,1.64,2.36Z"/>
      <path class="cls-2" d="M148.88,50.42c.97,1.23.03,7.78,5.41,8.11.1.94-.23,2,0,2.7,1.2,3.78,4.14,9.99,8.12,10.81,1.92,4.87,5.53,16.81,10.83,18.92,1.22.49,3.77-.33,5.41,0,.02,2.7,0,5.41,0,8.11l-2.37,1.62c-.76,3.38-.76,6.89,0,10.27l2.37,1.62c0,2.7,0,5.41,0,8.11-7.01,9.09,1.41,22.43-5.41,32.44,0-.9,0-1.8,0-2.7-.04-6.29.06-12.63,0-18.92-.02-1.8.02-3.6,0-5.41-.05-4.12-2.53-4.85-2.71-5.41s-.17-2.17,0-2.7,2.24-1.25,2.71-5.41c.19-1.71.05-3.66,0-5.41-.32-12.14-2.86-5.91-5.5-9.81-4.19-6.19-4.9-9.95-10.74-17.22-2.25-2.8-1.69-2.49-2.71-5.41-3.07-8.77-3.2-10.03-10.83-16.22-2.04-4.91-.75-5.68-5.41-10.81-.34-3.74-2.32-7.08-2.71-10.81.59-.99,1.7-2.53,2.71-2.7-.84,8.99,7.59,12.11,10.83,16.22Z"/>
      <path class="cls-2" d="M146.17,39.6h8.12s0,2.69,0,2.69l-5.4.02v2.68s8.07.09,8.07.09l.05,8.03c-.69.16-2,.12-2.71,0-1.02-.18-5.16-2.32-5.41-2.7-.78-1.19-2.31-8.51-2.71-10.81Z"/>
      <path class="cls-18" d="M27.07,55.82c-1.39-7.95-14.03-3.06-15.96-9.74-2.38-8.22-2.64-32.51,9.22-33.67,16.57-1.61,15.34,29.17,6.74,37.98,8.66-.22,9.47,4.95,0,5.42ZM24.36,20.67h-8.11c.93,7.97-3.21,18.42,4.07,24.33,6.62,1.25,3.83-5.23,4.04-9.44.25-4.94-.15-9.96,0-14.89Z"/>
      <path class="cls-11" d="M27.07,55.82c.53,3.04-1.13,8.35.37,10.46l7.66,4.63-2.61,9.25-9.49-2.69,1.37,8.09h-8.12s2.7-8.11,2.7-8.11c-16.51,8.42-11.02-14.74-2.8-20.39,3.17-2.18,7.38-1.06,10.92-1.24Z"/>
      <path class="cls-18" d="M178.65,158.54c-.04,24.29.09,48.7,0,72.98h-5.41v-45.95c0-1.8,0-3.6,0-5.41l2.69-1.35-2.69-1.35v-18.92h5.41Z"/>
      <path class="cls-22" d="M178.65,90.96c-1.65-.33-4.2.49-5.41,0,.49-6.12-.72-12.98,0-18.92.03-.25,2.56-1.07,2.88-4.15.54-5.19-2.83-6.28-2.88-6.66-.54-4.17.23-9.11,0-13.52l2.32-1.7.38-11.81c.94.93,2.27.06,2.76,3.9,1.93,15.08-.16,36.79-.05,52.87Z"/>
      <path class="cls-22" d="M178.65,158.54h-5.41c0-1.8.01-3.6,0-5.41,6.82-10-1.6-23.34,5.41-32.44.03,12.6.02,26.08,0,37.84Z"/>
      <path class="cls-18" d="M178.65,239.63c-.03,3.6.11,7.22,0,10.81h-5.41v-10.81h5.41Z"/>
      <path class="cls-22" d="M178.65,231.52c0,2.7.02,5.41,0,8.11h-5.41v-8.11h5.41Z"/>
      <path class="cls-22" d="M178.65,112.59l-2.37-1.62c-.76-3.38-.76-6.89,0-10.27l2.37-1.62c.01,4.5-.01,9.02,0,13.52Z"/>
      <path class="cls-5" d="M146.17,180.16h5.42c.11,1.79-.12,3.62,0,5.41.44,6.78-1.21,6.82,5.41,10.81.3.18.26,2.02,1.62,2.43,4.35,1.31,8.22-.63,9.21-5.14.37-1.65.33-6.37,0-8.11h5.41v64.87l-1.59,5.53c-17.14-.44-34.3.12-51.45.03-4.83-.03-5.66-2.59-6.51-2.85,2.05-2.29,1.75-5.9,2.71-8.11,6.32-14.65,21.65-38.91,18.95-51.36-.52-2.37,1.37-6.05,2.71-8.11,1.27-1.95,4.39-3.24,5.41-5.41h2.71ZM162.41,223.42h-8.11v2.68h8.11v-2.68ZM164.74,250.05c.88-.99.15-3.97,1.03-5.58,2.39-4.38,8.62-10.2,2.07-14.32-3.86-2.43-6.04,1.14-9.48,1.17s-12.7-6.01-14.88,1.57c-2.47,8.61,6.01,7.85,7.55,9.99s.08,6.99,3.21,9.08c.8.65,10.15-1.51,10.51-1.91Z"/>
      <path class="cls-5" d="M100.15,34.2c-.83,4.57-1.34,12.27-2.71,16.22-4.39,12.72-17.25,27.07-20.54,37.82-1.29,4.22.9,6.92,1.59,10.84.16.9-.19,1.88,0,2.7-4.65.85-5.9,6.04-8.12,8.11-.48.45-2.21-.45-2.71,0l-2.91-16.01c-11.92-4.95-20.59-5.19-18.74,10.6-1.36-1.11-3.82-1.63-5.41-2.7.09-22.49-.06-45.09,0-67.58h59.56ZM59.56,58.53l6.53,2.57,4.28-9.32-7.7-2.54c5-7.61-2.28-11.61-9.65-9.4-7.74,2.32-16.38,28.06,1.11,18.69-6.3,14.21,11.55,14.96,5.43,0Z"/>
      <path class="cls-6" d="M116.39,34.2l1.35,2.68,1.35-2.68c2.66.12,5.64-.35,8.12,0l.62,8.18c5.92,2.71,8.73,25.66,10.21,32.37.7,3.2,2.66,2.52,2.71,2.7.57,2.17-.39,5.61,0,8.11-.87-.13-1.81.06-2.71,0l-2.72-16.21c-4.62.47-3.09,6.15-8.16,9.41-3.97,2.55-11.32,3.94-16.2,4.1-6.4-2.34-6.39-8.32-8.12-13.52l1.39-13.55,6.72,2.74.02-9.46c-1.72-4.04-6.09.76-8.13,1.35v-13.52l4.06,2.57,4.06-5.27c1.8.03,3.61-.05,5.41,0ZM127.22,53.13l-6.77-2.69-4.04,4.03,4.06,4.05,6.75-5.39ZM116.39,74.73c1.33-1.06-4.73-7.14-8.12-5.39v5.4s8.12,0,8.12,0Z"/>
      <path class="cls-23" d="M110.98,218.01c-4.93,2.51-2.28,11.11-2.71,16.22l-4.07-2.69c-3.96-1.16.69,15.74,4.07,8.09h2.71v13.52c-4.33,1.42-4.05,2.39-10.83,2.7-1.88-6.34-12.57-8.11-15.64-11.4-2.78-2.98-4.37-13.77-6.02-18.34-.5-1.39.1-3.06-2.71-2.7-.27-1.71.39-3.93,0-5.41h2.71c7.45.02,11.51-9.74,18.95-10.81s12.01,3.68,13.53,10.81ZM105.56,215.31h-8.12c-1.27,1.15,4.57,7.04,8.12,5.4v-5.4ZM97.44,231.53l-10.82,2.71v2.68l10.82,2.71v-8.1Z"/>
      <path class="cls-16" d="M51.43,218.01c13.4,10.26,11.65,11.52,18.95,27.03l-4.07-2.68,1.36,8.09c-1.67.32-3.9-.4-5.41,0,1.72-5.8-3.1-4.53-5.41-8.11l2.7-5.4-13.53,2.7c.16-1.76-.24-3.68,0-5.41.56-4.02,3.07-6.76,2.7-10.81l-5.4,2.7h-2.71c0-1.8.02-3.6,0-5.41l10.83-2.7Z"/>
      <path class="cls-27" d="M78.5,226.12c1.65,4.57,3.24,15.36,6.02,18.34,3.07,3.29,13.76,5.06,15.64,11.4-9.24.43-12.23-1.41-18.95-2.7v-2.7c1.06-3.78-1.81-4.23-2.71-5.41-.97-1.27-2.27-2.09-2.71-2.7-3.78-5.26-3.24-5.87-5.41-10.81,5.82,1.47,4.91-2.1,8.12-5.41Z"/>
      <path class="cls-6" d="M46.02,104.48c.92.74,1.98.14,2.71,2.7h-5.41c.14,2.65,3.06,4.75,5.41,5.41.74.21,1.77-.1,2.71,0,3.54.36,7.26-.24,10.83,0h2.71v2.7c-1.47.57-4.39,1.86-5.41,2.7l-16.24-2.69,5.3,2.8-2.6,13.41c-1.37,1.28-1.9,5.07-5.41,5.41-.11-11.68-.05-23.46,0-35.14,1.59,1.08,4.05,1.59,5.41,2.7Z"/>
      <path class="cls-14" d="M75.79,134.21c-1.46.4-2.37,2.63-2.71,2.7-.82.17-1.79-.1-2.71,0,0-1.8,0-3.6,0-5.41s.04-3.61,0-5.41h-8.11c.24,2.63-.42,5.6,0,8.11.64,3.86,2.79,2.27,5.41,2.7l-8.12,8.11c-.21-1.75.31-3.8,0-5.41-.7-3.59-2.08-2.76-5.41-2.7l-1.35-2.68-1.35,2.68c-2.99,3.63,2.46,5.1,2.71,5.41.64.78.47,2.87,2.71,2.7-3.91,7.99-8.24,12.31-16.24,16.22-.32-6.25.08-12.65,0-18.92,11.56-9.91,26.01-35.83,35.19-8.11ZM48.72,145.03h-5.41s0,1.34,0,1.34l5.4,4.06v-5.4Z"/>
      <path class="cls-2" d="M54.14,207.2c3.54,5.58,11.4,23.11,16.24,24.33,2.17,4.94,1.63,5.55,5.41,10.81l-.37,3.81-2.34,1.59c-.71-1.41-2.47-2.2-2.71-2.7-7.29-15.51-5.55-16.78-18.95-27.03-.89-.68-4.29-18.44-10.83-18.92.04-2.7-.08-5.41,0-8.11,6.06,2.96,9.82,10.36,13.53,16.22Z"/>
      <path class="cls-13" d="M173.24,36.9h-13.54c3.22,4.97,1.49,8.31,0,13.52-.31.06-1.21,2.36-2.71,2.7l-.05-8.03-8.07-.09v-2.68s5.4-.02,5.4-.02v-2.68s-8.12-.01-8.12-.01c-.28-1.66.19-3.65,0-5.41,5.57-.25,25.69-1.71,27.07,2.7Z"/>
      <path class="cls-21" d="M46.02,239.63l13.53-2.7-2.7,5.4c-6.2,1.99-6.48,6.02-2.71,10.81-4.33.48-9.12-.32-13.53,0-.31-1.51.05-3.64,0-5.41l2.33-1.75c.79-2.08.28-4.25.38-6.36h2.71Z"/>
      <path class="cls-6" d="M51.43,218.01l-10.83,2.7c-.09-7.18-.12-14.45,0-21.62,6.54.48,9.94,18.24,10.83,18.92Z"/>
      <path class="cls-21" d="M173.24,36.9c.05.9-.06,1.81,0,2.7l-2.32,1.75c-.95,2.98-.2,6.07-.39,9.06-3.42.42-7.67-.61-10.83,0,1.48-5.2,3.21-8.54,0-13.51h13.54Z"/>
      <path class="cls-14" d="M132.64,36.9c2.29,6.9-.74,4.03,5.41,10.81.24,2.66-.25,5.45,0,8.11.49,5.27,4.16,12.22,6.64,19.01,2.24,6.12,7.93,13.24,6.89,18.83-.73-.2-1.77.07-2.71,0l-.37-3.74c-.33-1.31-1.82-1.14-2.34-1.66-.38-.38-.19-1.75-1.64-2.35-1.27-.53-2.57-.18-3.78-.36-.39-2.5.57-5.94,0-8.11l-2.71-2.7c-1.48-6.7-4.29-29.66-10.21-32.37l-.62-8.18c2.11.3,4.6.25,5.41,2.7Z"/>
      <path class="cls-6" d="M173.24,47.71c.23,4.4-.54,9.34,0,13.52v5.41s-8.12,0-8.12,0v-5.39s5.54-1.63,5.54-1.63c.13-3.05-.33-6.15-.13-9.19s-.56-6.08.39-9.06l2.32-1.75c.19,2.68-.14,5.42,0,8.11Z"/>
      <path class="cls-16" d="M146.17,34.2c.19,1.75-.28,3.74,0,5.41.39,2.3,1.93,9.62,2.71,10.81-3.23-4.11-11.67-7.22-10.83-16.22,2.37-.41,5.49.12,8.12,0Z"/>
      <path class="cls-16" d="M154.29,53.12c.12,1.78-.18,3.64,0,5.41-5.38-.33-4.44-6.88-5.41-8.11.25.38,4.4,2.52,5.41,2.7Z"/>
      <path class="cls-7" d="M67.67,250.44v2.7c-.35.07-1.81,2.62-6.5,2.85-6.31.32-12.8-.3-19.12-.29-1.74-.49-1.22-1.46-1.44-2.56,4.42-.32,9.21.48,13.53,0,5.61-.62,6.32-2.23,8.12-2.7,1.51-.4,3.74.32,5.41,0Z"/>
      <path class="cls-17" d="M102.86,36.9v13.52c-.82.24-1.84-.18-2.71,0h-2.71c1.36-3.95,1.87-11.65,2.71-16.22.9,0,1.8,0,2.71,0v2.7Z"/>
      <path class="cls-4" d="M116.39,245.04c-.95,2.21-.65,5.82-2.71,8.11-.52-.16-2.19-.17-2.71,0v-10.81c1.74-.2,2.01-1.44,2.71-2.7l2.34,1.59.37,3.81Z"/>
      <path class="cls-6" d="M43.31,234.23c0,1.8.08,3.62,0,5.41-.1,2.11.41,4.28-.38,6.36l-2.33,1.75c-.22-7.17.03-14.45,0-21.62h2.71c0,2.7-.01,5.41,0,8.11Z"/>
      <path class="cls-14" d="M51.43,177.46c.17,1.16,1.98,2.67,2.48,4.07l-2.48,1.34c-1.55-.7-5.84.48-8.12,0-.6-1.37-1.02-2.47-2.71-2.7.06-.89-.13-1.83,0-2.7h10.83Z"/>
      <path class="cls-16" d="M43.31,182.87c1.36,3.08,2.5,9.48,3.27,10.37,1.2,1.4,4.35.06,4.85.44.34.26,2.4,6.85,2.71,8.11.37,1.52-.25,3.68,0,5.41-3.71-5.86-7.47-13.26-13.53-16.22.1-3.59-.22-7.24,0-10.81,1.69.23,2.11,1.34,2.71,2.7Z"/>
      <path class="cls-16" d="M73.09,136.92l2.63,1.63c.82,2.37-2.57,3.52-2.63,3.78-3.03-1.06-4.55,2.32-5.41,2.7-8.47,3.75-5.85,3.86-10.83,8.11-1.17,1-1.87,1.94-2.71,2.7-3.98,3.65-9.1,7.6-13.53,10.81-.36-1.39.09-3.66,0-5.41,8-3.91,12.33-8.23,16.24-16.22h2.71l8.12-8.11c.79.13,1.9.09,2.71,0,.92-.1,1.89.17,2.71,0Z"/>
      <path class="cls-17" d="M78.5,245.04l.37,3.81,2.34,1.59v2.7c-1.02-.2-4.18,2.74-5.41,2.7.07-3.08-1.38-5.49-2.71-8.11l2.34-1.59.37-3.81c.44.61,1.74,1.43,2.71,2.7Z"/>
      <path class="cls-20" d="M73.09,247.74c1.32,2.62,2.77,5.02,2.71,8.11-1.52-.05-5.02-3.33-8.12-2.7v-2.7l2.7-1.36v-4.04c.25.51,2,1.29,2.72,2.7Z"/>
      <path class="cls-16" d="M138.05,47.71c-6.15-6.78-3.12-3.91-5.41-10.81h2.71c.39,3.73,2.37,7.07,2.71,10.81Z"/>
      <path class="cls-9" d="M51.43,174.76c.12.89-.13,1.82,0,2.7h-10.83c.37-2.55.11-3.86,2.71-5.41l1.37,2.69c2.24.17,4.53-.15,6.75.01Z"/>
      <path class="cls-14" d="M110.98,34.2l-4.06,5.27-4.06-2.57v-2.7c2.71.02,5.41-.04,8.12,0Z"/>
      <path class="cls-21" d="M48.72,169.35c-.98,2.97-4.55,2.19-5.41,2.7v-2.7l1.54-2.69c2.57-.73,3.65,2.62,3.88,2.69Z"/>
      <path class="cls-16" d="M73.09,120.7c2.1,3.61,3.01,5.82,8.12,5.41-.42,1.43.28,3.71,0,5.41v2.7c-1.71.27-3.94-.4-5.41,0-9.18-27.72-23.62-1.8-35.19,8.11-.02-1.8.02-3.6,0-5.41,3.52-.33,4.05-4.13,5.41-5.41,4.35-4.06,10.13-10.7,13.53-13.52,1.02-.84,3.95-2.14,5.41-2.7,1.09-.42,2.65.19,3.79-.46l1.63-2.25c3.59,2.29.39,4.13,2.71,8.11Z"/>
      <path class="cls-14" d="M116.39,34.2c.9.03,1.81-.04,2.71,0l-1.35,2.68-1.35-2.68Z"/>
      <path class="cls-26" d="M81.21,134.21l3.05,7.84,5.07.27c.03,1.52.35,4.79,0,5.41-.12.21-2.74.27-4.03,2.7s-.73,5.83-2.16,7.49c-1.35,1.57-6.77-.25-4.77,8.71l-10.6.13-.1,8h-2.71v-5.41c-5.43,1.85-8.32,1.08-13.53,0-.9-.18-1.91.23-2.71,0-.23-.06-1.3-3.42-3.88-2.69l-1.54,2.69c-.29.2-2.46-1.76-2.71-2.7,4.43-3.21,9.55-7.16,13.53-10.81l-2.71,8.1h10.82s0-2.68,0-2.68l-5.02-.29-.4-7.83c4.98-4.25,2.36-4.36,10.83-8.11v13.51s2.7,0,2.7,0c.86-5.06,1.49-11.39,2.72-16.21.07-.26,3.45-1.41,2.63-3.78l-2.63-1.63c.34-.07,1.24-2.3,2.71-2.7s3.7.27,5.41,0ZM64.95,158.53v-5.4h-2.69v5.4h2.69Z"/>
      <path class="cls-4" d="M162.41,120.7c.89-.01,1.82-.06,2.71,0,.34.02,1.37,3.81,5.41,0,.17.56,2.66,1.29,2.71,5.41-4.67,3.08-7.32,6.53-13.53,5.41-.33-.06-.61-2.29-1.41-2.3-1.66.23-.95,1.83-1.3,2.3-2.84,3.8-2.26,6.72-3.12,7.81-.99,1.25-3.95-.11-5,.3l-2.72-8.1h-2.68s-5.42,21.62-5.42,21.62c-.58.4-.67,1.89-1.82,2.25l-3.6.45c-.45-2.23-3.36-4.97-2.72-8.11l-2.69,2.7c-.86-2.17-3.2-1.94-2.71-8.11,10.28,1.11,7.77-12.1,11.34-15.72,5.4-5.47,19.21-5.81,26.55-5.91Z"/>
      <path class="cls-17" d="M170.53,50.42c-.19,3.04.26,6.13.13,9.19l-5.54,1.63v5.39s8.11,0,8.11,0v-5.41c.05.38,3.43,1.47,2.89,6.66-.32,3.08-2.85,3.9-2.88,4.15-3.4-.44-7.72.64-10.83,0-2.08-5.28-.57-12.7-8.12-10.81-.23-.71.1-1.76,0-2.7-.18-1.77.12-3.62,0-5.41.71.12,2.02.16,2.71,0,1.49-.35,2.39-2.64,2.71-2.7,3.16-.61,7.41.42,10.83,0ZM165.11,58.52v-5.4s-5.4,4.06-5.4,4.06v1.34s5.4,0,5.4,0Z"/>
      <path class="cls-25" d="M143.46,58.53c2.55,6.15,2.71,13.32,10.83,16.22,1.02,2.91.46,2.61,2.71,5.41.43,6.28,7.03,9.49,5.41,16.22-2.12-.59-5.63.4-8.12,0-.81-1.13-.25-2.02-2.71-2.7,1.04-5.59-4.65-12.7-6.89-18.83-2.49-6.8-6.15-13.74-6.64-19.01,1.59,1.08,4.05,1.6,5.41,2.7Z"/>
      <path class="cls-14" d="M173.24,150.43c-2.52,1.75-5.11,2.36-8.12,2.7-.89.1-1.81-.05-2.71,0l-2.71-8.11c.33-.19,3.64-3.82,5.41-5.41v5.4s5.41,0,5.41,0l-5.41-5.4c2.17-1.95,3.48-7.31,8.12-8.11.06,6.29-.04,12.63,0,18.92Z"/>
      <path class="cls-23" d="M173.24,72.04c-.72,5.94.49,12.8,0,18.92-5.3-2.12-8.91-14.05-10.83-18.92,3.11.64,7.43-.44,10.83,0Z"/>
      <path class="cls-17" d="M173.24,131.51c-4.64.8-5.95,6.16-8.12,8.11-1.77,1.59-5.08,5.21-5.41,5.41-.52.3-1.73-.16-2.71,0-1.58.26-3.66,0-5.41,0,2.32-2.93,3.95-3.77,5.41-5.41,2.34-2.61,3.76-3.24,2.71-8.11,6.21,1.12,8.87-2.33,13.53-5.41.02,1.8-.02,3.6,0,5.41Z"/>
      <path class="cls-16" d="M143.46,58.53c7.63,6.19,7.76,7.44,10.83,16.22-8.12-2.89-8.28-10.07-10.83-16.22Z"/>
      <path class="cls-10" d="M154.29,61.23c7.55-1.89,6.04,5.54,8.12,10.81-3.98-.82-6.92-7.03-8.12-10.81Z"/>
      <path class="cls-9" d="M167.82,112.59h5.41c-.46,4.16-2.53,4.85-2.71,5.41l-1.37-2.69c-2.25-.15-4.52.13-6.75-.01-.1-.89.07-1.81,0-2.7,1.8-.03,3.61,0,5.41,0Z"/>
      <path class="cls-24" d="M143.46,58.53c-1.36-1.11-3.82-1.63-5.41-2.7-.25-2.66.24-5.45,0-8.11,4.66,5.14,3.38,5.9,5.41,10.81Z"/>
      <path class="cls-10" d="M157,80.15c5.84,7.27,6.54,11.03,10.74,17.22,2.64,3.9,5.19-2.33,5.5,9.81h-2.71c.37-4.58-3.8-9.6-8.12-10.81,1.62-6.72-4.99-9.94-5.41-16.22Z"/>
      <path class="cls-13" d="M173.24,107.18c.05,1.75.19,3.7,0,5.41h-5.41v-5.41c.82.23,1.84-.18,2.71,0h2.71Z"/>
      <path class="cls-21" d="M170.53,117.99c-.17.53-.17,2.17,0,2.7-4.04,3.81-5.08.02-5.41,0l5.41-2.7Z"/>
      <path class="cls-16" d="M151.58,145.02c-1.96,2.48-3.41,5.69-5.41,8.11-1.03,1.24-1.82,1.8-2.71,2.7-1.03,1.04-4.39,1.82-5.39,4.05,1.43,2.06,3.3,2.94,5.39,4.05.72.38,2.5-.42,2.71,0v5.41c3.15,3.82,13.87-10.48,16.24-13.52.58-.75,2.38-1.24,2.71-2.7,3.01-.34,5.61-.96,8.12-2.7,0,.9,0,1.8,0,2.7-6.12,8.97-14.01,19.65-24.36,21.62-9.2,1.76-3.21.75-5.41,5.41-1.03,2.17-4.14,3.46-5.41,5.41l-2.53-10.49,7.93-4.38-10.81-6.76c.22-1.58.12-3.75,0-5.41-.07-.92.16-1.9,0-2.7l3.6-.45c1.14-.37,1.23-1.85,1.82-2.25,3.9-2.7,5.78-3.35,8.12-8.11h5.41Z"/>
      <path class="cls-23" d="M24.36,20.67c-.14,4.92.25,9.94,0,14.89-.21,4.21,2.58,10.69-4.04,9.44-7.28-5.91-3.14-16.36-4.07-24.33h8.11Z"/>
      <rect class="cls-23" x="189.48" y="245.03" width="8.11" height="24.35"/>
      <path class="cls-9" d="M173.24,158.54v18.92c0,.9,0,1.8,0,2.7,0,1.8,0,3.6,0,5.41h-5.41c-.03-.17-3.33-.28-2.54-2.45,5.56-.13,5.98.17,5.25-5.66-7.79-.62-13.91-1.78-21.66,0v-2.7c10.35-1.98,18.24-12.65,24.36-21.62.01,1.8,0,3.6,0,5.41Z"/>
      <path class="cls-22" d="M173.24,180.16c0-.9,0-1.8,0-2.7l2.69,1.35-2.69,1.35Z"/>
      <path class="cls-11" d="M164.74,250.05c-.36.4-9.7,2.56-10.51,1.91-3.13-2.1-1.72-7.01-3.21-9.08s-10.02-1.38-7.55-9.99c2.18-7.58,11.34-1.53,14.88-1.57s5.63-3.6,9.48-1.17c6.55,4.12.32,9.94-2.07,14.32-.88,1.61-.14,4.59-1.03,5.58Z"/>
      <path class="cls-16" d="M135.34,193.68c2.71,12.45-12.63,36.71-18.95,51.36l-.37-3.81-2.34-1.59c3.28-5.94,1.55-9.67,2.71-13.52.46-1.53,4.43-6.19,5.41-8.11,3.61-7.02,6.38-9.66,8.12-18.92.3-1.6-.32-3.63.02-5.38l5.4-.02Z"/>
      <path class="cls-2" d="M132.64,163.95l10.81,6.76-7.93,4.38,2.53,10.49c-1.34,2.06-3.22,5.74-2.71,8.11l-5.4.02c-.34,1.75.28,3.79-.02,5.38-2,.03-2.54-2.61-2.71-2.7.55-1.71,2.56-3.93,2.71-5.41.6-6.13-.54-12.77,0-18.92.16-1.78-.15-3.63,0-5.41.03-.3,2.53-1.43,2.71-2.7Z"/>
      <path class="cls-22" d="M148.88,177.46c7.75-1.78,13.87-.61,21.66,0,.73,5.82.31,5.53-5.25,5.66-.79,2.16,2.51,2.27,2.54,2.45.33,1.74.37,6.46,0,8.11h-2.71c.87-4.78-.12-5.49-2.71-8.11-.22-.22.3-2.2-1.54-2.5l-9.29,2.5c-.12-1.79.12-3.62,0-5.41h-5.42c-.08-1.75,1.16-2.34,2.71-2.7Z"/>
      <path class="cls-7" d="M162.41,185.57h-5.41s-.02,1.36-.02,1.36c-1.44,2.59,4.56,7.82,5.42,6.75-.69.24-2.58,3.75-5.41,2.7-6.62-3.99-4.97-4.03-5.41-10.81l9.29-2.5c1.84.3,1.32,2.28,1.54,2.5Z"/>
      <path class="cls-27" d="M167.82,193.68c-.99,4.5-4.86,6.45-9.21,5.14-1.35-.41-1.32-2.25-1.62-2.43,2.84,1.05,4.72-2.47,5.41-2.7.79-.27,1.86.2,2.71,0h2.71Z"/>
      <path class="cls-14" d="M148.88,174.76v2.7c-1.55.36-2.79.95-2.71,2.7h-2.71c2.21-4.66-3.79-3.65,5.41-5.41Z"/>
      <rect class="cls-11" x="154.3" y="223.42" width="8.11" height="2.68"/>
      <path class="cls-2" d="M59.56,58.53c6.12,14.96-11.74,14.21-5.43,0-17.49,9.37-8.85-16.36-1.11-18.69s14.65,1.79,9.65,9.4l7.7,2.54-4.28,9.32-6.53-2.57Z"/>
      <path class="cls-26" d="M46.02,104.48c-1.85-15.79,6.82-15.56,18.74-10.6l2.91,16.01c-.76.69-1.15,2.42-2.71,2.7h-2.71l-4.08-5.4h-2.68l-4.08,5.4c-.94-.1-1.96.21-2.71,0-.28-1.7.41-3.96,0-5.41-.73-2.57-1.79-1.96-2.71-2.7Z"/>
      <path class="cls-16" d="M100.15,61.23l-8.12,16.22c-4.84,1.64-6.09,6.67-8.12,10.81-.93,1.89-1.26,5.14-2.71,8.11-.64,1.32-1.01,2.47-2.71,2.7-.68-3.92-2.88-6.62-1.59-10.84,3.29-10.75,16.15-25.1,20.54-37.82h2.71c.29,3.53-.42,7.36,0,10.81Z"/>
      <path class="cls-2" d="M83.91,99.07c-.42,9.19,1.95,15.38,0,24.33-.05.23-2.23,1.05-2.71,2.7-5.11.41-6.02-1.8-8.12-5.41h5.43s-2.38-13.22-2.38-13.22l5.06-1.6c-1.03-1.18-2.33-2.6-2.69-4.11-.19-.83.16-1.81,0-2.7,1.7-.23,2.06-1.38,2.71-2.7,2.25-.55,2.52,2.67,2.71,2.7Z"/>
      <path class="cls-17" d="M78.5,101.78c.36,1.5,1.66,2.93,2.69,4.11l-5.06,1.6,2.38,13.21h-5.43c-2.32-3.96.89-5.81-2.71-8.1v-2.7c2.22-2.07,3.47-7.26,8.12-8.11Z"/>
      <path class="cls-14" d="M70.38,112.59l-1.63,2.25c-1.14.65-2.7.04-3.79.46v-2.7c1.56-.28,1.95-2.02,2.71-2.7.49-.45,2.22.45,2.71,0v2.7Z"/>
      <path class="cls-19" d="M102.86,69.34c1.73,5.2,1.72,11.18,8.12,13.52v2.7h-18.95v-8.11l8.12-16.22c.7,5.76,1.88,5.64,2.71,8.11Z"/>
      <path class="cls-25" d="M138.05,85.56c-8.8-.55-18.18,0-27.07,0v-2.7c4.88-.17,12.23-1.55,16.2-4.1,5.07-3.26,3.54-8.94,8.16-9.41l2.72,16.21Z"/>
      <path class="cls-21" d="M110.98,85.56c8.89,0,18.27-.55,27.07,0,.89.06,1.84-.13,2.71,0,1.21.18,2.5-.17,3.78.36,1.44.6,1.26,1.96,1.64,2.35h-54.14v-2.7h18.95Z"/>
      <path class="cls-27" d="M102.86,50.42c2.04-.58,6.4-5.38,8.13-1.35l-.02,9.46-6.72-2.74-1.39,13.55c-.82-2.47-2.01-2.35-2.71-8.11-.42-3.45.29-7.29,0-10.81.86-.18,1.88.24,2.71,0Z"/>
      <polygon class="cls-14" points="127.22 53.13 120.47 58.52 116.42 54.47 120.45 50.44 127.22 53.13"/>
      <path class="cls-27" d="M116.39,74.73h-8.12s0-5.39,0-5.39c3.38-1.75,9.45,4.33,8.12,5.39Z"/>
      <path class="cls-25" d="M140.76,77.45c-.05-.18-2,.5-2.71-2.7l2.71,2.7Z"/>
      <path class="cls-2" d="M121.81,204.49c.21.45,2.41.6,2.17,3.41-.25,2.92-3.07,6.45-2.17,10.1-.99,1.92-4.96,6.58-5.41,8.11l-5.41-2.7c-.18-1.76.33-3.85,0-5.41-1.52-7.13-5.88-11.91-13.53-10.81v-2.7h24.36Z"/>
      <path class="cls-25" d="M97.45,204.49v2.7c-7.44,1.07-11.49,10.83-18.95,10.81v-10.83s-5.41.01-5.41.01v-2.7h24.36Z"/>
      <path class="cls-14" d="M73.09,204.49v2.7c-1.09,4.29,1.84,7.55,2.71,10.81.39,1.48-.27,3.69,0,5.41l-2.68,2.73c-.59-7.43-3.28-14.61-5.44-21.65h5.41Z"/>
      <path class="cls-25" d="M116.39,226.12c-1.15,3.85.57,7.58-2.71,13.52-.7,1.26-.96,2.5-2.71,2.7v-2.7c0-1.8.04-3.61,0-5.41-.08-3.55.35-7.35,0-10.81l5.41,2.7Z"/>
      <polygon class="cls-27" points="97.44 231.53 97.44 239.63 86.63 236.92 86.63 234.24 97.44 231.53"/>
      <path class="cls-6" d="M73.09,207.2h5.42s0,10.81,0,10.81h-2.71c-.87-3.27-3.8-6.52-2.71-10.81Z"/>
      <path class="cls-27" d="M105.56,215.31v5.4c-3.55,1.64-9.39-4.24-8.12-5.39h8.12Z"/>
      <path class="cls-27" d="M108.27,234.23c-.08,1.01-2.06,2.58-2.33,4.07l2.33,1.33c-3.38,7.65-8.03-9.26-4.07-8.09l4.07,2.69Z"/>
      <path class="cls-14" d="M110.98,239.63h-2.71l-2.33-1.33c.28-1.49,2.25-3.07,2.33-4.07h2.71c.04,1.8,0,3.61,0,5.41Z"/>
      <path class="cls-25" d="M64.96,193.68v2.7c-1.1,2.79,2.55,4.86,2.71,5.41.24.83-.25,1.88,0,2.7,2.16,7.03,4.85,14.22,5.44,21.65l2.68-2.73c2.81-.36,2.21,1.31,2.71,2.7-3.21,3.3-2.3,6.87-8.12,5.41-4.47-10.16-8.27-21.73-16.24-29.73-.31-1.26-2.37-7.85-2.71-8.11,2.68,1.03,5.11-2.67,5.41-2.7.64-.08,5.07,2.58,8.12,2.7Z"/>
      <path class="cls-26" d="M56.84,242.34c2.31,3.57,7.13,2.31,5.41,8.11-1.8.47-2.51,2.08-8.12,2.7-3.77-4.8-3.49-8.83,2.71-10.81Z"/>
      <path class="cls-13" d="M46.02,234.23h-2.71c-.01-2.7,0-5.41,0-8.11l5.4-2.7c.38,4.05-2.14,6.79-2.7,10.81Z"/>
      <polygon class="cls-18" points="70.38 245.04 70.37 249.08 67.67 250.44 66.31 242.36 70.38 245.04"/>
      <path class="cls-4" d="M46.02,239.63h-2.71c.08-1.79,0-3.61,0-5.41h2.71c-.24,1.73.16,3.64,0,5.41Z"/>
      <path class="cls-1" d="M81.21,250.44l-2.34-1.59-.37-3.81c.89,1.17,3.77,1.62,2.71,5.41Z"/>
      <path class="cls-25" d="M59.55,117.99c-3.41,2.81-9.18,9.46-13.53,13.52l2.6-13.41-5.3-2.8,16.24,2.69Z"/>
      <path class="cls-8" d="M62.26,112.59c-3.57-.24-7.29.36-10.83,0l4.08-5.4h2.68l4.08,5.4Z"/>
      <path class="cls-8" d="M48.72,107.18c.41,1.45-.28,3.7,0,5.41-2.35-.66-5.27-2.76-5.41-5.4h5.41Z"/>
      <path class="cls-23" d="M59.55,139.62l-5.41,2.7c-.25-.3-5.7-1.78-2.71-5.41.16-.2,1.8.02,2.71,0,3.33-.06,4.71-.89,5.41,2.7Z"/>
      <path class="cls-25" d="M59.55,145.02h-2.71c-2.24.17-2.06-1.93-2.71-2.7l5.41-2.7c.31,1.61-.21,3.66,0,5.41Z"/>
      <path class="cls-27" d="M54.14,136.92c-.9.02-2.54-.2-2.71,0l1.35-2.68,1.35,2.68Z"/>
      <path class="cls-24" d="M70.38,231.52c-4.84-1.22-12.7-18.75-16.24-24.33-.25-1.72.37-3.88,0-5.41,7.97,8.01,11.78,19.57,16.24,29.73Z"/>
      <path class="cls-9" d="M51.43,182.87c.37.17,2.3,5.44,5.41,5.41v2.7c-.3.04-2.73,3.73-5.41,2.7-.51-.38-3.66.96-4.85-.44-.76-.9-1.91-7.29-3.27-10.37,2.28.48,6.57-.7,8.12,0Z"/>
      <path class="cls-27" d="M54.14,174.76l5.3,2.89-2.59,10.62c-3.12.03-5.04-5.24-5.41-5.41l2.48-1.34c-.5-1.4-2.32-2.91-2.48-4.07-.13-.88.12-1.82,0-2.7.9.06,1.81-.04,2.71,0Z"/>
      <path class="cls-18" d="M51.43,174.76c-2.23-.16-4.51.16-6.75-.01l-1.37-2.69c.86-.51,4.43.27,5.41-2.7.8.23,1.81-.18,2.71,0,.15,1.77-.23,3.67,0,5.41Z"/>
      <path class="cls-7" d="M162.41,115.29c.19,1.77-.13,3.63,0,5.41-7.34.09-21.15.44-26.55,5.91-3.57,3.62-1.06,16.82-11.34,15.72.42-5.2,4.02-10.4,2.71-16.22.64-.97-.31-2.52,2.71-5.41l4.05,2.7c1.83-.45,1.25-2.6,1.36-2.7,4-3.41,3.88-2.03,8.12-2.7,1.88-.3,4.32.54,6.37-.38l1.75-2.32c3.51-.15,7.33-.22,10.83,0Z"/>
      <path class="cls-27" d="M124.52,142.32c-.49,6.17,1.85,5.94,2.71,8.11,1.18,2.99.05,7.23,5.41,8.11.12,1.66.22,3.83,0,5.41-.18,1.28-2.68,2.4-2.71,2.7l-8.12-8.11c.09-.89-.04-1.81,0-2.7.08-1.78.06-3.62,0-5.41-.03-.9.06-1.81,0-2.7-.12-1.79.08-3.62,0-5.4h-5.4s0,5.4,0,5.4h-2.71v-8.11c2.17-.16,4.44.38,6.62-.15l1.5-2.56c-2.36-7.34,4.11-8.83,5.41-10.81,1.32,5.82-2.29,11.02-2.71,16.22Z"/>
      <path class="cls-3" d="M148.88,139.62c-4,1.56-1.98,3.92-2.71,5.41-2.34,4.76-4.22,5.41-8.12,8.11l5.42-21.62h2.68s2.72,8.1,2.72,8.1Z"/>
      <path class="cls-21" d="M132.64,155.84c.16.81-.07,1.78,0,2.7-5.36-.88-4.23-5.12-5.41-8.11l2.69-2.7c-.64,3.14,2.27,5.88,2.72,8.11Z"/>
      <path class="cls-7" d="M157,139.62c-1.47,1.64-3.1,2.47-5.41,5.41h-5.41c.73-1.49-1.29-3.85,2.71-5.41,1.05-.41,4.01.94,5-.3.86-1.09.29-4.01,3.12-7.81v8.11Z"/>
      <path class="cls-18" d="M170.53,117.99l-5.41,2.7c-.89-.06-1.81-.01-2.71,0-.13-1.78.19-3.64,0-5.41,2.23.14,4.51-.14,6.75.01l1.37,2.69Z"/>
      <path class="cls-18" d="M159.7,131.51c1.05,4.86-.37,5.5-2.71,8.11v-8.11c.35-.47-.36-2.07,1.3-2.3.79.01,1.08,2.24,1.41,2.3Z"/>
      <polygon class="cls-15" points="165.11 58.52 159.7 58.52 159.71 57.18 165.11 53.12 165.11 58.52"/>
      <path class="cls-8" d="M92.03,88.26h35.19l-5.46,4.17-16.19,3.93c13.01-.56,26.29.78,39.3.07,3.15-.17,5.97,1.24,6.71-2.76,2.46.68,1.9,1.58,2.71,2.7.75,1.05,2.63,4.5,2.71,5.41-3.15-.66-14.01-.66-17.25-.1-1.34.23-2.89,3.78-4.41,5.5v-5.41s-21.66,0-21.66,0v8.12c-.96-.9-1.76-1.02-2.7-2.7-.4-.72.5-2.53-.13-3.93l-2.58-1.47c-2.58-.32-5.76.48-8.12,0-6.06-1.24-10.28-1.78-16.24-2.7-.19-.03-.46-3.25-2.71-2.7,1.45-2.97,1.78-6.22,2.71-8.11h8.12Z"/>
      <path class="cls-9" d="M162.41,96.37c4.32,1.21,8.49,6.23,8.12,10.81-.86-.18-1.88.23-2.71,0-5.23-1.49-8.55-4.93-10.83-5.41-.08-.9-1.95-4.36-2.71-5.41,2.49.4,6-.59,8.12,0Z"/>
      <path class="cls-5" d="M162.41,153.13c-.9.05-1.81-.03-2.71,0-1.8.05-3.61,0-5.41,0,.29-1.98,3.2-5.14,2.71-8.11.98-.16,2.19.3,2.71,0l2.71,8.11Z"/>
      <path class="cls-27" d="M165.12,153.13c-.33,1.46-2.12,1.96-2.71,2.7l-2.71-2.7c.9-.03,1.81.05,2.71,0s1.82.1,2.71,0Z"/>
      <path class="cls-14" d="M157,145.02c.5,2.97-2.41,6.13-2.71,8.11,1.8,0,3.61.05,5.41,0l2.71,2.7c-2.38,3.04-13.09,17.34-16.24,13.52v-5.41s8.11,0,8.11,0c.14-1.78-.15-3.63,0-5.41s-.25-3.72,0-5.41h-8.12c2.01-2.42,3.46-5.63,5.41-8.11,1.76,0,3.83.26,5.41,0Z"/>
      <path class="cls-14" d="M167.82,107.18v5.41c-1.8,0-3.61-.03-5.41,0l-1.49-2.57c-2.2-.21-4.44-.34-6.63-.13,1.46-2.44,2.97-5.17,2.71-8.11,2.28.48,5.6,3.92,10.83,5.41Z"/>
      <path class="cls-2" d="M162.41,112.59c.07.9-.1,1.81,0,2.7-3.5-.22-7.31-.15-10.83,0-.9.04-1.82-.09-2.71,0v-2.7c4.5-.05,9.03.07,13.53,0Z"/>
      <path class="cls-14" d="M143.46,163.95c-2.09-1.12-3.96-1.99-5.39-4.05,1.01-2.24,4.37-3.01,5.39-4.05v8.11Z"/>
      <path class="cls-27" d="M154.29,153.13c-.25,1.69.16,3.64,0,5.41l-8.12-2.7v8.1c-.22-.42-2,.38-2.71,0v-8.11c.88-.9,1.68-1.46,2.71-2.7h8.12Z"/>
      <path class="cls-13" d="M129.93,199.09c-1.74,9.27-4.51,11.9-8.12,18.92-.9-3.65,1.91-7.18,2.17-10.1.24-2.82-1.96-2.97-2.17-3.41-.31-.66.21-1.8,0-2.7l5.36-.16-2.65-5.25c.91.22,2.1-.33,2.71,0,.17.09.71,2.73,2.71,2.7Z"/>
      <path class="cls-20" d="M129.93,166.65c-.15,1.78.16,3.63,0,5.41-5.39,3.38-1.82,13.08-2.71,18.92-1.79.09-3.63-.14-5.41,0-.89.07-1.83-.13-2.71,0-1.98-6.64,2.72-13.53,2.71-18.92,0-1.76-.83-3.08-2.71-2.7.16-.87-.13-1.82,0-2.7.05-.3,2.16-1.26,2.71-5.41.12-.88-.09-1.81,0-2.7l8.12,8.11Z"/>
      <path class="cls-21" d="M129.93,190.98h-2.71c.89-5.84-2.68-15.54,2.71-18.92-.54,6.15.6,12.79,0,18.92Z"/>
      <path class="cls-18" d="M127.22,190.98h2.71c-.14,1.47-2.16,3.7-2.71,5.41-.6-.33-1.8.22-2.71,0l-2.34-1.59-.37-3.81c1.79-.14,3.62.09,5.41,0Z"/>
      <path class="cls-21" d="M165.12,193.68c-.85.2-1.91-.27-2.71,0v-8.11c2.59,2.62,3.58,3.33,2.71,8.11Z"/>
      <path class="cls-3" d="M162.41,185.57v8.11c-.86,1.07-6.87-4.15-5.42-6.75l.02-1.36h5.41Z"/>
      <path class="cls-26" d="M92.03,85.56v2.7h-8.12c2.03-4.14,3.28-9.17,8.12-10.81v8.11Z"/>
      <path class="cls-16" d="M100.15,101.78c-3,3.29-1.93,7.48-2.71,10.81-.19.83.15,1.8,0,2.7-.53,3.1-5.16,9.73-2.71,16.22v2.7h-2.71c-2.3-5.34-.32-3.69-5.41-8.11-.77-.67-1.23-2.36-2.71-2.7,1.95-8.95-.42-15.14,0-24.33,5.96.92,10.18,1.46,16.24,2.7Z"/>
      <path class="cls-26" d="M86.62,126.1c-1.59.32-1.93,1.75-2.71,2.7s-1.12,2.39-2.71,2.7c.28-1.7-.42-3.97,0-5.41.48-1.65,2.66-2.47,2.71-2.7,1.48.34,1.94,2.04,2.71,2.7Z"/>
      <path class="cls-13" d="M129.93,88.26v5.41c6.25.32,12.7-.45,18.95,0,.94.07,1.98-.2,2.71,0-.74,4-3.56,2.58-6.71,2.76-13.01.72-26.29-.62-39.3-.07l16.19-3.93,5.46-4.17h2.71Z"/>
      <path class="cls-8" d="M146.17,88.26c.52.52,2.01.36,2.34,1.66l.37,3.74c-6.25-.45-12.7.32-18.96,0v-5.41h16.25Z"/>
      <path class="cls-21" d="M97.45,201.79h24.36c.21.9-.31,2.05,0,2.7h-54.14c-.25-.82.24-1.87,0-2.7h29.78Z"/>
      <path class="cls-18" d="M64.96,174.76h2.71v2.7c-3.6,3.18-9.42,4.63-8.12,10.81,5.3,2.69,17.07-2.91,18.94-2.7.3.03,1.4,2.58,5.41,2.7,5.39.16,10.86-.1,16.25,0v-8.1c.43,1.37,3.96,4.02,2.98,7.88,1.66.77,3.43.1,5.13.23,2.68.2,5.43-.13,8.12,0v2.7c-.27.12-1.28,1.85-2.71,2.7-11.7-.14-23.49.19-35.19,0-4.5-.07-9.04.18-13.53,0-3.05-.12-7.48-2.78-8.12-2.7v-2.7l2.59-10.62-5.3-2.89c3.6.16,7.23-.11,10.83,0Z"/>
      <path class="cls-21" d="M78.5,193.68v2.7c-2.68-.16-5.43,0-8.12,0h-5.41v-2.7c4.49.18,9.04-.07,13.53,0Z"/>
      <path class="cls-18" d="M70.38,196.38v5.41h-2.71c-.15-.54-3.81-2.62-2.71-5.41h5.41Z"/>
      <path class="cls-7" d="M89.33,142.32l-5.07-.27-3.05-7.84v-2.7c1.59-.32,1.93-1.75,2.71-2.7,4.98,2.7,5.31,8.59,5.41,13.52Z"/>
      <path class="cls-8" d="M56.84,153.13l.4,7.83,5.02.29v2.68s-10.83,0-10.83,0l2.71-8.1c.84-.77,1.54-1.7,2.71-2.7Z"/>
      <path class="cls-21" d="M51.43,169.35c5.22,1.08,8.1,1.85,13.54,0v5.41c-3.6-.11-7.23.16-10.83,0-.9-.04-1.81.06-2.71,0-.23-1.73.15-3.64,0-5.41Z"/>
      <path class="cls-27" d="M92.03,134.21c.78,1.82,2.15,3.66,2.71,5.41.06.2-.97-.92,0,2.7.75,2.79.82,5.69,2.71,8.11-2.2.42-2.17,2.24-2.71,2.7-.5.43-2.4-.45-2.71,0l-.25-3.73-2.46-1.67c.35-.61.03-3.89,0-5.41-.1-4.93-.44-10.82-5.41-13.52.78-.95,1.12-2.39,2.71-2.7,5.09,4.42,3.12,2.77,5.41,8.11Z"/>
      <path class="cls-7" d="M92.03,153.13l-4.92.36-.5,7.75c-2.78,3.08-2.48,5.17-2.71,5.41-.37.37-3.91,1.39-8.12,5.41-1.51,1.45-3.37,1.21-8.12,5.41v-2.7l.1-8,10.6-.13c-2.01-8.96,3.42-7.15,4.77-8.71,1.43-1.66.91-5.14,2.16-7.49s3.91-2.49,4.03-2.7l2.46,1.67.25,3.73Z"/>
      <path class="cls-18" d="M73.09,142.32c-1.23,4.83-1.85,11.15-2.72,16.21h-2.69s-.01-13.51-.01-13.51c.86-.38,2.38-3.76,5.41-2.7Z"/>
      <rect class="cls-18" x="62.27" y="153.14" width="2.69" height="5.4"/>
      <path class="cls-16" d="M157,101.78c.26,2.94-1.24,5.67-2.71,8.11-4.19.4-4.97,2.58-5.41,2.7-8.15,2.21-11.62,1.1-18.95,8.11-3.02,2.88-2.07,4.44-2.71,5.41-1.31,1.98-7.77,3.47-5.41,10.81-1.8,0-3.61-.01-5.41,0v-2.7c3.71-8.56,12.36-19.53,18.95-27.03,1.52-1.73,3.07-5.27,4.41-5.5,3.23-.56,14.1-.56,17.25.1Z"/>
      <path class="cls-27" d="M148.88,112.59v2.7c-1.27.13-2.58-.13-3.82.37l-1.59,2.33c-4.24.67-4.12-.71-8.12,2.7h-5.41c7.32-7,10.79-5.9,18.95-8.11Z"/>
      <path class="cls-4" d="M148.88,115.29c.89-.09,1.81.04,2.71,0l-1.75,2.32c-2.05.92-4.49.08-6.37.38l1.59-2.33c1.24-.51,2.55-.25,3.82-.37Z"/>
      <path class="cls-22" d="M135.34,120.7c-.12.1.47,2.25-1.36,2.7l-4.05-2.7h5.41Z"/>
      <path class="cls-11" d="M100.15,150.43c4.25-.41,9.13,0,13.53,0h8.12c.06,1.78.08,3.63,0,5.41h-2.71c-3.58-.2-7.26.29-10.83,0-.9-.07-1.81.07-2.71,0-2.55-.2-6.25-4.8-10.83,0v-2.7c.54-.47.51-2.28,2.71-2.7.83-.16,1.79.09,2.71,0Z"/>
      <path class="cls-15" d="M113.69,139.62v10.81c-4.4,0-9.28-.41-13.53,0l2.71-10.81c3.57,0,7.28.26,10.83,0Z"/>
      <path class="cls-2" d="M102.86,134.21c3.91.71,5.86,2.75,13.53,2.7,1.8-.01,3.61,0,5.41,0l-1.5,2.56c-2.18.52-4.45-.01-6.62.15-3.55.26-7.25,0-10.83,0h-8.12c-.55-1.74-1.92-3.59-2.71-5.41h2.71c2.6.3,5.69-.44,8.12,0Z"/>
      <path class="cls-26" d="M116.39,147.73v-5.4s5.41,0,5.41,0c.09,1.78-.11,3.61,0,5.4h-5.41Z"/>
      <path class="cls-9" d="M121.81,147.73c.06.9-.03,1.8,0,2.7h-8.12v-2.7h8.12Z"/>
      <path class="cls-16" d="M121.81,158.54c-.09.89.12,1.82,0,2.7l-2.34-1.59-.37-3.81h2.71c-.04.9.09,1.82,0,2.7Z"/>
      <path class="cls-13" d="M113.69,109.88v-8.12s21.67,0,21.67,0v5.41c-6.6,7.51-15.25,18.47-18.96,27.03-6.37-1.44-4.59-6.48-5.41-10.81l2.69-1.38c-.83-5.27,0-7.77,5.43-6.74.2-3.33-3.95-4.04-5.41-5.39Z"/>
      <path class="cls-4" d="M108.27,101.78l.39,3.7,2.31,1.71c.94,1.68,1.73,1.8,2.71,2.7,1.47,1.35,5.62,2.06,5.41,5.39-5.44-1.03-6.26,1.47-5.43,6.74l-2.69,1.38c-.31-1.61.24-3.66,0-5.42l-2.69.02,2.7,5.4c.83,4.33-.96,9.37,5.41,10.81v2.7c-7.68.05-9.62-1.99-13.53-2.7v-5.4s-8.12,2.7-8.12,2.7c-2.46-6.48,2.18-13.12,2.71-16.22,3.7,2.13,6.86,6.77,8.12,10.81.63,2.01-.42,5.62.01,8.1h2.69c1.99-4.55-2.62-7.65-2.7-8.1-.57-3.29.68-7.73,0-10.81v-8.11s-2.71,2.7-2.71,2.7l-5.41,2.7c.77-3.33-.29-7.52,2.71-10.81,2.36.48,5.54-.32,8.12,0Z"/>
      <path class="cls-21" d="M110.98,107.18l-2.31-1.71-.39-3.7,2.58,1.47c.63,1.41-.27,3.22.13,3.93Z"/>
      <path class="cls-25" d="M154.29,109.88c2.19-.21,4.44-.08,6.63.13l1.49,2.57c-4.5.07-9.03-.05-13.53,0,.44-.12,1.23-2.31,5.41-2.7Z"/>
      <path class="cls-6" d="M154.29,158.54c-.16,1.78.14,3.62,0,5.41h-8.12s0-8.11,0-8.11l8.12,2.7Z"/>
      <path class="cls-8" d="M121.81,190.98l.37,3.81,2.34,1.59,2.65,5.25-5.36.16h-21.65l-.02-5.4c6.85.94,8.76.15,13.55-2.71,1.43-.85,2.44-2.59,2.71-2.7.62-.27,1.74.14,2.71,0,.87-.13,1.81.07,2.71,0Z"/>
      <path class="cls-26" d="M119.1,155.84l.37,3.81,2.34,1.59c-.54,4.15-2.66,5.11-2.71,5.41l-2.73-5.4h-5.38c-1.59,5.06,4.32,6.56,5.41,10.8-2.72-1.09-4.94,2.58-5.41,2.7-.78.2-1.78-.11-2.71,0-2.6.31-5.68-.44-8.12,0-1.69.3-3.82-.35-5.41,0s-2.33,2.55-2.71,2.7c-4.49,1.86-8.8,4.29-13.53,5.41l16.24-18.92c.48,2.28,3.32,4.99,2.72,8.11h5.39c.12-1.78-.18-3.64,0-5.41l4.07,2.68c1.62-.49,1.17-1.5,1.35-2.68.5-3.36-.33-7.32,0-10.81,3.56.29,7.25-.2,10.83,0Z"/>
      <path class="cls-4" d="M116.39,172.06c-1.08-4.24-7-5.74-5.41-10.81h5.38s2.73,5.4,2.73,5.4c-.13.88.16,1.83,0,2.7s.17,1.84,0,2.7c-1.08,5.38-3.6,10.49-2.71,16.22-2.69-.13-5.44.2-8.12,0v-5.41l2.33-1.59.38-3.81h5.41c-.19-1.74.37-3.95,0-5.41Z"/>
      <path class="cls-16" d="M119.1,190.98c-.96.14-2.08-.27-2.71,0v-2.7c-.89-5.73,1.63-10.83,2.71-16.22h2.71c.01,5.39-4.69,12.28-2.71,18.92Z"/>
      <path class="cls-26" d="M121.81,172.06h-2.71c.17-.86-.16-1.83,0-2.7,1.88-.38,2.7.94,2.71,2.7Z"/>
      <path class="cls-7" d="M105.57,115.29c.68,3.08-.57,7.53,0,10.81-1.26-4.04-4.42-8.68-8.12-10.81.15-.9-.19-1.88,0-2.7l5.41-2.7c-1.22,3.39,2.64,5.09,2.71,5.41Z"/>
      <path class="cls-7" d="M94.74,131.51l8.12-2.7v5.4c-2.42-.44-5.51.3-8.12,0v-2.7Z"/>
      <path class="cls-8" d="M78.5,196.38c6.07.37,13.01,2.97,18.94-.01v5.42s-27.06,0-27.06,0v-5.41c2.69,0,5.44-.16,8.12,0Z"/>
      <path class="cls-26" d="M113.69,193.68c-4.79,2.85-6.7,3.64-13.55,2.71l.02,5.4h-2.71v-5.42c-5.94,2.98-12.88.38-18.95.01v-2.7c11.7.19,23.49-.14,35.19,0Z"/>
      <path class="cls-20" d="M94.74,155.84c.33,2.57-.49,5.77,0,8.11l-16.24,18.92v2.7c-1.87-.21-13.65,5.39-18.94,2.7-1.31-6.18,4.52-7.63,8.12-10.81,4.75-4.19,6.61-3.96,8.12-5.41,4.09.4,7.01-1.48,8.12-5.41.23-.23-.07-2.33,2.71-5.41,4.18-4.62,3.39-5.16,5.41-8.11.31-.45,2.2.43,2.71,0v2.7Z"/>
      <path class="cls-21" d="M108.27,174.76v13.52c-1.7-.12-3.47.55-5.13-.23.99-3.86-2.55-6.51-2.99-7.88s.29-3.72,0-5.41c2.44-.44,5.52.31,8.12,0Z"/>
      <path class="cls-7" d="M100.15,180.16v8.1c-5.39-.09-10.85.16-16.24,0,1.05-3.92,4-5.96,8.12-5.41,1.71.23,4.53,3.74,5.4,2.7-.09-1.77.25-3.69.01-5.41.89.11,1.81-.08,2.71,0Z"/>
      <path class="cls-4" d="M92.03,177.46v5.41c-4.12-.56-7.07,1.49-8.12,5.41-4.02-.12-5.11-2.67-5.41-2.7v-2.7c4.73-1.12,9.05-3.54,13.53-5.41Z"/>
      <path class="cls-6" d="M62.26,134.21c-.42-2.51.24-5.48,0-8.11h8.11c.04,1.79,0,3.6,0,5.4l-8.12,2.7Z"/>
      <path class="cls-27" d="M70.38,136.92c-.8.09-1.92.13-2.71,0-2.62-.44-4.77,1.15-5.41-2.7l8.12-2.7c0,1.8,0,3.6,0,5.41Z"/>
      <path class="cls-4" d="M100.15,150.43c-.91.09-1.87-.16-2.71,0-1.89-2.42-1.96-5.32-2.71-8.11l5.4,2.7v-5.41h2.72l-2.71,10.81Z"/>
      <path class="cls-9" d="M100.15,139.62v5.41s-5.41-2.7-5.41-2.7c-.97-3.63.06-2.5,0-2.7h5.41Z"/>
      <path class="cls-22" d="M92.03,153.13c-2.02,2.95-1.24,3.49-5.41,8.11l.5-7.75,4.92-.36Z"/>
      <path class="cls-3" d="M83.91,166.65c-1.11,3.92-4.03,5.81-8.12,5.41,4.21-4.02,7.75-5.03,8.12-5.41Z"/>
      <path class="cls-13" d="M105.57,155.84v2.7l-2.33,1.74c-.86,2.07-.17,4.35-.38,6.37-.18,1.77.12,3.63,0,5.4h-5.39c.6-3.11-2.25-5.82-2.72-8.1s.33-5.54,0-8.11c4.58-4.8,8.28-.2,10.83,0Z"/>
      <path class="cls-21" d="M108.27,166.65l-2.33-1.75-.38-6.36v-2.7c.9.07,1.81-.07,2.71,0-.33,3.49.5,7.46,0,10.81Z"/>
      <path class="cls-21" d="M105.57,126.1c.08.45,4.69,3.56,2.7,8.1h-2.69c-.43-2.49.62-6.1-.01-8.1Z"/>
      <path class="cls-18" d="M105.57,115.29c-.07-.32-3.93-2.01-2.71-5.41l2.7-2.7v8.11Z"/>
      <path class="cls-7" d="M110.98,123.4l-2.7-5.4,2.69-.02c.25,1.76-.3,3.8,0,5.42Z"/>
      <path class="cls-21" d="M116.39,172.06c.37,1.45-.19,3.66,0,5.4h-5.41s0-2.7,0-2.7c.48-.12,2.69-3.79,5.41-2.7Z"/>
      <path class="cls-8" d="M108.27,166.65c-.18,1.18.27,2.19-1.35,2.68l-4.07-2.68c.21-2.01-.48-4.3.38-6.37l2.33-1.74.38,6.36,2.33,1.75Z"/>
      <path class="cls-21" d="M97.45,180.16c-1.74-.22-3.64.15-5.41,0v-2.7c.38-.16,1.05-2.34,2.71-2.7.64,1.73,2.48,3.79,2.71,5.41Z"/>
      <path class="cls-8" d="M100.15,174.76c.29,1.69-.44,4.03,0,5.41-.89-.08-1.82.11-2.71,0-.23-1.62-2.07-3.68-2.71-5.41,1.6-.35,3.73.3,5.41,0Z"/>
      <path class="cls-18" d="M110.98,177.46l-.38,3.81-2.33,1.59v-8.11c.93-.11,1.93.2,2.71,0v2.7Z"/>
      <path class="cls-3" d="M97.45,180.16c.24,1.72-.1,3.64-.01,5.41-.87,1.04-3.69-2.47-5.4-2.7v-2.7c1.77.15,3.67-.22,5.41,0Z"/>
    </g>
  </g>
</svg>