<?xml version="1.0" encoding="UTF-8"?>
<svg id="Layer_2" data-name="Layer 2" xmlns="http://www.w3.org/2000/svg" viewBox="0 0 217.59 288.38">
  <defs>
    <style>
      .cls-1 {
        fill: #191a18;
      }

      .cls-2 {
        fill: #414141;
      }

      .cls-3 {
        fill: #87722b;
      }

      .cls-4 {
        fill: #f5f5f6;
      }

      .cls-5 {
        fill: #e5e9f1;
      }

      .cls-6 {
        fill: #dab924;
      }

      .cls-7 {
        fill: #3a3a3a;
      }

      .cls-8 {
        fill: #b7c4d9;
      }

      .cls-9 {
        fill: #fe1417;
      }

      .cls-10 {
        fill: #13140f;
      }

      .cls-11 {
        fill: #fff;
      }

      .cls-12 {
        fill: #c4a025;
      }

      .cls-13 {
        fill: #172680;
      }

      .cls-14 {
        fill: #b7a68b;
      }

      .cls-15 {
        fill: #c71618;
      }

      .cls-16 {
        fill: #802121;
      }

      .cls-17 {
        fill: #232322;
      }

      .cls-18 {
        fill: #0c0c0c;
      }

      .cls-19 {
        fill: #fe1014;
      }

      .cls-20 {
        fill: #fe0c11;
      }

      .cls-21 {
        fill: #f2d621;
      }

      .cls-22 {
        fill: #585858;
      }

      .cls-23 {
        fill: #f0f1f3;
      }

      .cls-24 {
        fill: #fe2327;
      }

      .cls-25 {
        fill: #95a4ca;
      }

      .cls-26 {
        fill: #ad912e;
      }

      .cls-27 {
        fill: #6874af;
      }
    </style>
  </defs>
  <g id="Layer_1-2" data-name="Layer 1">
    <g>
      <rect class="cls-11" x="2.17" y="2.6" width="210" height="284"/>
      <path class="cls-17" d="M216.55,4.46l-5.41,2.7H5.41v275.71c67.81,2.58,138.21-3.46,205.72,0,.33.02,1.54,3.71,5.41,0-.07,1.89,1.13,5.7-1.49,5.43l-208.36.05c-2.23.3-6.7-2.85-6.7-4.12V5.82C0,2.75,6.58,1.88,9.36,1.65c64.18-5.3,135.51,4.23,200.48.05l6.71,2.76Z"/>
      <path class="cls-18" d="M216.55,4.46c-2.44,92.29,3.26,186.32,0,278.42-3.87,3.71-5.08.02-5.41,0V7.17l5.41-2.7Z"/>
      <path class="cls-18" d="M178.65,253.15c-.08,1.8.08,3.62.01,5.41H37.9V31.5h140.76c.05,3.58-.07,7.22,0,10.81l-2.32,1.67c-2.12,7.03,2.83,17.99-3.09,22.66,0-.9,0-1.8,0-2.7s.01-1.8,0-2.7c-.03-2.7.06-5.41,0-8.11-.14-5.81.29-11.67-.12-17.5l-2.59-1.42c-6.29.09-12.65-.13-18.95,0-7.7.16-9.08,1.64-13.53,2.7-.42.1-4.69-2.69-8.12-2.7-8.1-.03-16.26,0-24.36,0-1.8,0-3.61,0-5.41,0-.9,0-1.8,0-2.71,0h-56.85s0,56.76,0,56.76c0,.9,0,1.8,0,2.7v5.41c0,3.6,0,7.21,0,10.81v21.62c-.27,1.64.15,3.63,0,5.41s.09,3.62,0,5.41c-.36,7.15.15,14.45,0,21.62-.06,2.7.04,5.41,0,8.11-.07,4.5.04,9.02,0,13.52-.03,2.7,0,5.41,0,8.11,0,2.7-.02,5.41,0,8.11s-.02,5.41,0,8.11c.05,5.4-.04,10.82,0,16.22,0,.9,0,1.8,0,2.7.03,2.7-.06,5.41,0,8.11.12,5.82-.28,11.67.12,17.5l2.59,1.42c6.3-.09,12.65.13,18.95,0,2.68-.05,5.46.23,8.12,0,1.27-.11,2.58.11,3.81-.38l1.6-2.32c3.86,2.39,6.48,2.53,10.83,2.7,6.27.25,14.48-.16,21.65,0,1.8.04,3.61-.02,5.41,0,17.66.22,44.02,2.39,59.55-2.7,1.36-.45,3.73.3,5.41,0Z"/>
      <path class="cls-24" d="M27.07,50.4l5.41,5.42-6.78.05-1.76-4.85c-2.81-2.03-11,1.4-12.82-4.94-2.12-7.36-2.16-30.57,6.85-33.19,18.46-5.35,18.48,27.9,9.11,37.51ZM24.36,20.67h-8.11c.93,7.97-3.21,18.42,4.07,24.33,6.62,1.25,3.83-5.23,4.04-9.44.25-4.94-.15-9.96,0-14.89Z"/>
      <path class="cls-10" d="M178.65,77.45c0,1.8-.01,3.6,0,5.41l-2.32,1.66c-.82,4.25-.82,8.66,0,12.91l2.32,1.66c.01,3.6,0,7.21,0,10.81-2.35-.41-2.57,1.98-2.74,3.97-.89,10.31.32,21.81.42,32.2l2.32,1.67c0,1.8,0,3.6,0,5.41l-5.41,10.81c0-3.6.03-7.21,0-10.81-.04-5.4.06-10.82,0-16.22-.05-4.49.04-9.03-.01-13.52-3.09-.46-2.53,2.61-2.7,2.7-.65.36-1.89-.33-2.71,0l-5.1-.36-.31-5.05,2.7-4.04c-1.6-1.75-2.93-3.52-5.41-4.07-1.56-.34-6.6-.36-8.12,0,2.18-7.19,3.44-6.24-2.71-13.52,1.55-.36,3.68.24,5.41,0,1.92,1.69,3.6,3.61,5.41,5.41,4.58,4.53,7.57,4.93,8.12,5.41.41.35-.25,3.8,0,5.4,3.41.35,4.75.71,5.41-2.7.3-1.55-.07-3.63,0-5.41s-.03-3.61,0-5.41-.02-3.6,0-5.41c.03-2.7-.05-5.41,0-8.11s-.03-5.41,0-8.11c0-.9,0-1.8,0-2.7h5.41Z"/>
      <path class="cls-20" d="M184.07,234.23l16.3,6.69,2.37,3.04c-.16,7.57,1.34,16.85.34,24.12-1,7.28-8.13,8.34-14.71,6.45-9.33-2.68-1.03-31.69-4.29-40.29ZM197.6,245.03h-8.11v24.35h8.11v-24.35Z"/>
      <path class="cls-9" d="M24.34,85.56c-7.43.92-8.77-8.25-13.3-12.55l9.26-14.46,12.1,12.37-8.06,14.65Z"/>
      <path class="cls-19" d="M193.54,204.51c11.41,9.38,11.49,17.53,0,26.99l-9.18-14.41,9.18-12.58Z"/>
      <path class="cls-22" d="M173.24,196.38c.13.05,0,2.19,1.59,2.34l3.82.37c-.59,17.93.81,36.15,0,54.06-1.68.3-4.06-.45-5.41,0-.29-15.73.4-31.57,0-47.32-.17-6.74,1.85-8.82-5.41-4.04-1.21-4.33,1.15-6.99,5.41-5.41Z"/>
      <path class="cls-10" d="M178.65,169.35v29.73l-3.82-.37c-1.59-.15-1.46-2.29-1.59-2.34v-29.73l5.41,2.7Z"/>
      <path class="cls-22" d="M178.65,77.45h-5.41c0-3.6.03-7.21,0-10.81,5.92-4.67.97-15.63,3.09-22.66l2.32-1.67c.21,11.67-.02,23.47,0,35.14Z"/>
      <path class="cls-22" d="M178.65,147.73l-2.32-1.67c-.1-10.4-1.31-21.89-.42-32.2.17-1.99.39-4.38,2.74-3.97.01,12.58.02,25.26,0,37.84Z"/>
      <path class="cls-22" d="M178.65,169.35l-5.41-2.7c0-.9,0-1.8,0-2.7l5.41-10.81c-.01,5.39,0,10.82,0,16.22Z"/>
      <path class="cls-22" d="M178.65,99.07l-2.32-1.66c-.82-4.24-.82-8.65,0-12.91l2.32-1.66c.03,5.39-.02,10.82,0,16.22Z"/>
      <path class="cls-4" d="M146.17,185.57c2.57-.01,5.84-.4,8.12,0v5.41c-.14.18-.14,2.52,0,2.7v5.41s5.41,0,5.41,0c1.04,1.17,1.52,1.67,2.71,2.7.24.21-.11,2.29,1.47,2.68l3.95-2.68c7.26-4.78,5.24-2.7,5.41,4.04.4,15.75-.29,31.59,0,47.32-15.53,5.1-41.9,2.92-59.55,2.7,6.47-14.43,13.96-24.2,16.24-40.55l2.33-1.75c.78-2.08.28-4.25.38-6.36.16-3.53-.82-11.59,0-13.52.1-.22,2.78-.86,4.01-2.77,1.36-2.12,1.06-4.88,1.4-5.34.2-.28,1.76.14,2.71,0,1.65-.24,3.65,0,5.41,0ZM162.4,250.44c.13-8.15,12.02-10.77,6.86-18.97l-9.54-10.75c-.13,8.15-12.02,10.77-6.86,18.97l9.54,10.75Z"/>
      <path class="cls-5" d="M129.93,34.2c-.18,1.96.43,3.57,1.41,5.24,2.16,3.68,12.74,19.7,14.83,21.79l-2.48,1.34c.6,1.42,2.06,2.72,2.48,4.07.26.81-.19,1.85,0,2.7h-5.41c-.31,2.95-.55,5.61,2.7,5.41-1.64,1.93-3.51,3.75-5.41,5.41-1.72,1.5-4.94,1.86-5.41,5.41-.89-.01-1.83-.08-2.71,0-5.22.45-9.19,2.31-13.53,2.7-.89.08-1.81-.05-2.71,0l-.41-5.02-5-.38c-.49-4.59-2.63-5.11-2.71-5.41-1.83-7.05-2.27-14.34-2.71-21.62-.05-.89.02-1.8,0-2.7h10.82s.02-1.35.02-1.35l-.02-1.34h-10.82c.02-.91-.07-1.82,0-2.71.3-3.83,2.01-9.47,2.71-13.52,8.1,0,16.26-.03,24.36,0ZM135.34,50.43c-6.8-1.6-13.09-6.09-16.23,2.68,3.65-1.23,6.67-.69,10.04-.77,2.54-.06,6.89,3.11,6.19-1.91ZM113.68,55.83h-8.11s0,2.69,0,2.69l8.1,2.71v-5.4ZM127.22,55.83h-8.12c-1.09.99,2.66,3.92,4.06,5.37l4.06-5.37ZM124.52,77.44c-1.64-6.3-8.38-5.8-13.53-5.39v5.4s13.53,0,13.53,0Z"/>
      <path class="cls-23" d="M100.15,201.79v5.41s5.41,0,5.41,0c-.23,2.46-.03,4.19-2.71,5.41h-10.83s4.28,5.3,4.28,5.3c2.35.59,4.77-2.12,6.55-2.6,1.48-.4,3.7.27,5.41,0-.05,1.72-.23,3.76,0,5.41l-.13,8.03-5.28.08-2.57,1.49c-.54,1.19-.03,2.67-.14,3.92-.07.81-.18,2.05,0,2.7.29,1.05-.33,2.21,1.55,2.53l6.57.18h2.71c-.08,1.79.18,3.64,0,5.41-.37,3.74-2.29,7.08-2.71,10.81-7.17-.16-15.39.25-21.65,0-3.25-8.6-10.55-14.63-16.24-21.62-1.85-7.84,4.76-15.3,0-21.62.93-.14,1.96.23,2.71,0,2.94-.91,5.12-4.24,8.12-5.41,6.53-2.53,14.16-3.52,18.95-5.41ZM94.73,228.82l-13.52,2.71v2.68s13.52,0,13.52,0v-5.4ZM94.73,236.93l-16.23,2.69c5.73-1.09,18.04,8.52,16.23-2.69Z"/>
      <path class="cls-26" d="M105.57,34.2c-.7,4.05-2.41,9.68-2.71,13.52-2.44-6.69-3.99,2.61-4.86,4.6-4.64,10.65-9.97,23.51-10.82,35.33-.21,2.99,2.09,3.13,2.14,3.32.4,1.45-.31,3.69,0,5.41h5.4c.08-2.69-.09-5.42,0-8.11.03-.9-.08-1.82,0-2.7h5.41c-.04,1.8.06,3.61,0,5.41,0,.15-1.76.54-1.76,1.34-.04,4.73,2.35,8.43,7.17,6.76l.43-4.91c1.17-1.19,3.35-.46,5-.48.15,1.78-.15,3.62,0,5.41h5.42c-.63,5.94-1.27,4.87-2.71,8.11l-1.59-2.3c-1.22-.54-2.58-.19-3.82-.4-9.9-1.7-20.55-2.01-29.78-5.41,4.07-5.94,1.84-10.62,2.71-16.22l2.32-1.76.39-9.06c3.66-11.36,9.01-21.49,13.53-32.44.34-.81,3.78-2.43,2.71-5.41,1.8,0,3.61,0,5.41,0Z"/>
      <path class="cls-26" d="M116.39,88.26v5.41c-1.8.02-3.61-.03-5.41,0-.15-1.78.1-3.62,0-5.41.87.07,1.83.05,2.71,0s1.81.08,2.71,0Z"/>
      <path class="cls-15" d="M138.05,36.9c.62,1.11,1.52,2.21,2.71,2.7l10.83,10.81c.84.98,1.44,2.14,2.71,2.7.27,6.43,6.93,11.16,10.83,16.22,2.7,3.5,4.31,8.19,8.12,10.81-.03,2.7.05,5.41,0,8.11-9.29-.7-13.94-15.11-18.95-21.62-3.03-3.94-6.57-3.85-8.12-5.41-2.09-2.1-12.67-18.12-14.83-21.79-.98-1.66-1.59-3.28-1.41-5.24,3.43.01,7.7,2.8,8.12,2.7Z"/>
      <path class="cls-15" d="M70.38,234.23c5.7,7,12.99,13.03,16.24,21.62-4.35-.18-6.97-.31-10.83-2.7-1.7-1.05-1.68-1.26-2.71-2.7-8.73-12.22-14.39-18.78-24.36-29.73-2.78-3.05-4.21-8.44-8.12-10.81-.02-2.7.02-5.41,0-8.11,6.48.58,12.29,9.92,16.26,14.84,4.62,5.72,8.83,11.84,13.51,17.59Z"/>
      <path class="cls-17" d="M46.02,139.62h5.42s0,8.11,0,8.11c-.87.86-1.92,2.03-2.71,2.7-1.8-.05-3.61.03-5.41,0-.01-1.76.23-3.75,0-5.41l5.4,2.7c1.28-3.85-2.27-5.93-2.7-8.11Z"/>
      <path class="cls-17" d="M54.14,153.13c-.51,1.11.36,3.77-.01,5.43l-8.1-2.72v5.39c6.68-.8,4.88.97,5.41,5.42.56,4.74-.91,4.31,2.71,8.11.38.4.16,1.72,1.62,2.35,1.29.56,2.63.13,3.79.35.78.15,1.89.06,2.71,0,.21.91-.3,2.03,0,2.7l-2.66,1.31,5.37,4.1,5.4-2.7-2.7,8.11c-4.84,1.1-5.09,2.63-5.41,2.7-.86.19-1.84-.17-2.71,0-.82.16-1.85,0-2.71,0v-2.7c1.07-3.56-1.88-4.21-2.71-5.41-3.38-4.85-8.22-10.65-13.53-13.52.04-2.7-.06-5.41,0-8.11,3.97-2.47,2.52-7.04,2.71-10.81l3.62-.39c1.15-.39,1.2-1.81,1.79-2.31.89.03,1.85-.13,2.71,0,1.61.24,2.82.94,2.71,2.7Z"/>
      <path class="cls-6" d="M62.26,93.67c.63,2.87-1.2,8.72.37,10.55,1.04,1.21,4.42-.17,5.04.26,1.43,1,2.52,13.07,2.71,16.22-2.68-.84-5.79-2.09-8.12-2.7l2.72-8.09c-3.19.45-5.59-1.88-8.14-2.72-3.13-1.04-4.39-3.32-8.12,0-2.52-2.68-2.88-3.8-2.99-7.88l-5.13-.23v-5.41h5.42s0-5.41,0-5.41c.71-.34,1.89.31,2.71,0,4.37,2.75,7.85,6.47,13.53,5.41Z"/>
      <path class="cls-6" d="M40.6,131.51c.18-1.07,5.09-5.97,2.72-10.81h2.69s.02,5.41.02,5.41l5.4-5.42h2.71l.4,4.97,7.51.64.22,7.93c3.51.68,5.29-1.08,8.12-2.72.11,2.69-.21,5.44,0,8.11-3.42.7-3.91,3.08-5.41,5.41-2.96,4.59-1.71,3.74-2.71,8.11-2.61-.59-2.33,2.39-2.71,2.7-.9.75-2.76.73-4.06,2.67-1.31,1.96-.84,3.92-1.35,5.44-.48,1.42-.97,2.6-2.71,2.7-.52-4.45,1.28-6.21-5.41-5.42v-5.39s8.1,2.72,8.1,2.72c.37-1.66-.5-4.32.01-5.43,1.21-2.64,11.07-10.56,8.12-13.51-5.75-1.17-6.98,4.3-10.82,8.1v-8.12s-5.41.01-5.41.01c-.21-1.08-.26-4.88,0-5.41.42-.84,5.91-2.22,5.41-5.4h-5.41c-.39,1.63.5,4.31,0,5.4-.32.69-4.16,1.83-5.41,2.7.15-1.78-.27-3.76,0-5.41Z"/>
      <path class="cls-8" d="M46.02,193.68c.35,1.87-.12,3.34,1.27,5.49,1.08,1.69,2.92,1.8,4.14,2.61.58.38,1.87-.33,2.71,0,.97.39,3.22,1.76,5.41,2.7v8.11c1.79.11,3.62-.12,5.41,0,1.66.11,3.86.24,5.41,0,4.76,6.33-1.85,13.79,0,21.62-4.68-5.75-8.89-11.87-13.51-17.59-3.98-4.92-9.79-14.26-16.26-14.84-.02-2.7,0-5.41,0-8.11,1.72.26,3.91-.38,5.41,0Z"/>
      <path class="cls-8" d="M51.43,193.68c.21.68-.04,1.77,0,2.7-1.8-.7-3.65-2.26-5.41-2.7-.31-1.63.21-3.66,0-5.41,2.2,1.74,4.23,1.6,5.41,5.41Z"/>
      <path class="cls-7" d="M73.09,250.44h-2.71c-2.35-5.6-6.97-3.4-5.41,2.7h5.41v2.71c-2.66.23-5.44-.05-8.12,0,1.61-9.28-7.27-12.7-12.12-19.07-1.46-1.92-1-4.7-1.41-5.25-1.57-2.14-3.63-3.51-5.41-5.41l5.41-5.41c9.97,10.95,15.64,17.51,24.36,29.73Z"/>
      <path class="cls-6" d="M48.72,231.52c.41.56-.05,3.34,1.41,5.25,4.85,6.37,13.74,9.8,12.12,19.07-6.3.13-12.65-.09-18.95,0-.89-5.84,2.68-15.54-2.71-18.92-.06-2.7.03-5.41,0-8.11l8.12,2.7Z"/>
      <path class="cls-6" d="M170.53,34.2c.89,5.84-2.68,15.54,2.71,18.92.06,2.7-.03,5.41,0,8.11l-16.93-16.36-4.72-10.67c6.29-.13,12.65.09,18.95,0Z"/>
      <path class="cls-12" d="M132.64,193.68c-.82,1.92.16,9.99,0,13.52l-2.33,1.75c-.9,2.06-.11,4.44-.38,6.36-2.28,16.35-9.77,26.12-16.24,40.55-1.8-.02-3.61.04-5.41,0,.41-3.73,2.33-7.07,2.71-10.81,12.86-10.78,14.72-29.42,19.13-44.47l-5.6-6.89c1.19-.31,2.24-4.38,8.12,0Z"/>
      <path class="cls-22" d="M151.58,34.2l4.72,10.67,16.93,16.36c.01.9,0,1.8,0,2.7-1.78.93-3.69,1.68-5.41,2.7l-13.53-13.52c-1.27-.56-1.87-1.72-2.71-2.7-5.02-5.89-.07-6.36-10.83-10.81-1.18-.49-2.09-1.6-2.71-2.7,4.45-1.06,5.83-2.54,13.53-2.7Z"/>
      <path class="cls-5" d="M40.6,99.07l5.13.23c.12,4.08.48,5.19,2.99,7.88,1.71,1.83,1.26,4.11,6.64,2.6l1.48-2.6c2.55.84,4.95,3.17,8.14,2.72l-2.72,8.09c-2.26-.6-6.02.64-8.12,0-.51-.16-4.23-3.5-8.12-5.41-1.02-.5-2.39-3.65-5.41-2.7,0-3.6,0-7.21,0-10.81Z"/>
      <path class="cls-27" d="M54.14,185.57l.37,3.81,2.34,1.59v2.7h-5.41c-1.19-3.81-3.22-3.66-5.41-5.41-.59-.47-.66-1.89-1.81-2.26l-3.6-.45c.04-4.5-.07-9.02,0-13.52,5.31,2.86,10.16,8.67,13.53,13.52Z"/>
      <path class="cls-8" d="M46.02,112.59l5.41,8.11-5.4,5.42-.02-5.42h-2.69c2.38,4.85-2.54,9.74-2.72,10.82v-21.62c3.02-.95,4.39,2.2,5.41,2.7Z"/>
      <path class="cls-5" d="M173.24,66.64c.03,3.6,0,7.21,0,10.81,0,.9,0,1.8,0,2.7-3.81-2.62-5.42-7.31-8.12-10.81.2-1.71,1.49-1.98,2.71-2.7,1.73-1.02,3.64-1.77,5.41-2.7,0,.9,0,1.8,0,2.7Z"/>
      <path class="cls-23" d="M48.72,220.71l-5.41,5.41h-2.71c-.04-5.4.05-10.82,0-16.22,3.91,2.37,5.34,7.76,8.12,10.81Z"/>
      <path class="cls-3" d="M46.02,139.62c.43,2.18,3.97,4.26,2.7,8.11l-5.4-2.7c-.22-1.6-.95-2.87-2.71-2.7.09-1.79-.15-3.63,0-5.41,1.25-.88,5.09-2.01,5.41-2.7-.26.52-.21,4.33,0,5.41Z"/>
      <path class="cls-21" d="M43.31,145.02c.23,1.66-.01,3.64,0,5.41,0,.9.04,1.81,0,2.7-.19,3.77,1.26,8.35-2.71,10.81.15-7.17-.36-14.47,0-21.62,1.76-.17,2.48,1.11,2.71,2.7Z"/>
      <path class="cls-14" d="M173.24,53.12c-5.39-3.38-1.82-13.08-2.71-18.92l2.59,1.42c.4,5.83-.02,11.69.12,17.5Z"/>
      <path class="cls-8" d="M43.31,255.85l-2.59-1.42c-.39-5.83,0-11.69-.12-17.5,5.39,3.38,1.82,13.08,2.71,18.92Z"/>
      <path class="cls-22" d="M51.43,196.38c.07,1.8-.05,3.61,0,5.41-1.22-.81-3.06-.93-4.14-2.61-1.38-2.16-.92-3.62-1.27-5.49,1.76.45,3.62,2,5.41,2.7Z"/>
      <path class="cls-22" d="M46.02,188.27c.21,1.74-.31,3.77,0,5.41-1.5-.38-3.69.26-5.41,0,0-2.7-.03-5.41,0-8.11l3.6.45c1.15.37,1.22,1.78,1.81,2.26Z"/>
      <path class="cls-13" d="M46.02,88.26v5.41s-5.41,0-5.41,0c0-.9,0-1.8,0-2.7,1.75-1.01,3.59-1.84,5.41-2.7Z"/>
      <path class="cls-22" d="M75.79,253.15l-1.6,2.32c-1.24.49-2.54.27-3.81.38v-5.41h2.71c1.03,1.44,1.01,1.65,2.71,2.7Z"/>
      <path class="cls-5" d="M97.45,39.6v-5.41c.9,0,1.8,0,2.71,0,1.07,2.98-2.37,4.59-2.71,5.41Z"/>
      <path class="cls-16" d="M48.72,231.52l-8.12-2.7c0-.9,0-1.8,0-2.7h2.71c1.78,1.9,3.85,3.27,5.41,5.41Z"/>
      <path class="cls-14" d="M151.58,112.59c-4.46,1.05-4.85,8.09-10.94,9.7,1.32,8.46-3.85,21.78,5.53,25.44h2.71c-3.13,4.89-6.56,6.06-8.12,8.11l-2.71-2.7,2.71-5.4h-5.42c1.33-5-.94-5.73-2.71-8.12-1-1.36-1.38-1.7-2.71-2.7-.05-4.92-.76-11.82,0-16.22.72-4.16,4.31-6.01,5.41-8.11,4.49-1.91,8.42-5.65,8.12-10.81,1.74-.27,3.76-2.32,5.41-2.7,6.15,7.28,4.89,6.33,2.71,13.52Z"/>
      <path class="cls-26" d="M138.05,85.56c.45.03,2.89,4.2,7.89.23.87,1.56-.27,4.47.23,5.18-4.74-.36-6.29-.9-5.42,4.04v1.36c1.8.07,3.62-.09,5.42,0,2.69.14,5.45-.24,8.12,0v2.7c-1.73.24-3.87-.36-5.41,0-1.66.38-3.68,2.43-5.41,2.7-.83.13-1.85.02-2.71,0-.2,0-.67-2.41-3.35-2.19-4.59.38-8.86,3.01-12.89,4.9-.78.36-2.13-.4-2.71,0-.89-1.79-1.68-3.7-2.71-5.41l7.87-.21,2.96-13.3c.88-.08,1.82-.01,2.71,0,1.79.02,3.63-.13,5.41,0Z"/>
      <path class="cls-8" d="M154.29,66.64c5.01,6.51,9.66,20.92,18.95,21.62-.05,2.7.03,5.41,0,8.11l-8.12-5.41c-2.73-1.82-3.45-1.73-5.41-2.7-.42-.21-1.03-2.11-2.71-2.7,1.02-2.81-2.47-4.72-2.71-5.41-.45-1.3.28-3.71-.01-5.4-5.37,3.88-9.01,6.76-16.23,5.4,1.91-1.66,3.78-3.47,5.41-5.41l2.36-1.7.35-3.71c-.19-.85.26-1.9,0-2.7h8.12Z"/>
      <path class="cls-15" d="M159.7,112.59v8.11c-.64-.12-2.12-.19-2.71,0-4.87,1.56-5.15,5.81-7.99,9.48l5.28,4.03c-1.45,5.05-2.5,8.95-5.41,13.52h-2.71c1.93-5.63-2.64-13.07-2.2-17.18.31-2.81,5.88-12.24,7.61-17.96,1.52-.36,6.57-.34,8.12,0Z"/>
      <path class="cls-8" d="M173.24,163.95c0,.9,0,1.8,0,2.7v24.33l-5.12-.25-3-7.86v-2.7c1.63-.92,1.97-.33,2.71-2.7.22-.71-.09-1.76,0-2.7.16-1.71.11-3.69,0-5.41l2.32-1.67.77-12.88,2.32-1.67c.03,3.6,0,7.21,0,10.81Z"/>
      <path class="cls-3" d="M173.24,153.13l-2.32,1.67-.77,12.88-2.32,1.67c-.26-4.12-2.69-5.1-2.71-5.41-.07-.99,3.47-4.41,2.43-5.14l-5.13-1.62c1.56-1.8,5.51-4.52,5.41-6.76-.07-1.63-3.7-5.07-2.71-8.11,6.28.78,5.14-.68,5.41-5.41h2.71c.06,5.4-.04,10.82,0,16.22Z"/>
      <path class="cls-27" d="M173.24,107.18c-.07,1.77.3,3.86,0,5.41l-5.41-2.7c-.56-.47-3.54-.88-8.12-5.41-.26-1.71.39-3.91,0-5.41h2.71l10.83,8.11Z"/>
      <path class="cls-8" d="M173.24,101.78c-.03,1.8.08,3.61,0,5.41l-10.83-8.11v-5.41c.98.17,2.21-.31,2.71,0,1.26.79,3.82,7.79,8.12,8.11Z"/>
      <path class="cls-2" d="M170.53,136.92c-.9-.22-2.14.34-2.71,0-.38-.23-1.46-1.78-2.71-2.7-.58-.43-.64-1.9-1.76-2.31l-3.65-.39c.07-.89-.05-1.81,0-2.7,4.48-1.09,4.7-1.33,8.12-2.7.82-.33,2.05.36,2.71,0-.14,3.59.21,7.23,0,10.81Z"/>
      <path class="cls-13" d="M173.24,96.37c-.02,1.8.03,3.61,0,5.41-4.3-.32-6.86-7.32-8.12-8.11v-2.7l8.12,5.41Z"/>
      <path class="cls-21" d="M162.41,120.7l.31,5.05,5.1.36c-3.42,1.37-3.64,1.61-8.12,2.7.15-2.68,0-5.42,0-8.11.86.17,1.82-.13,2.71,0Z"/>
      <path class="cls-14" d="M162.41,120.7c-.88-.13-1.84.17-2.71,0v-8.11c2.48.55,3.81,2.32,5.41,4.07l-2.7,4.04Z"/>
      <path class="cls-21" d="M173.24,136.92h-2.71c.21-3.58-.14-7.22,0-10.81.17-.09-.4-3.16,2.7-2.7.06,4.49-.04,9.02.01,13.52Z"/>
      <path class="cls-8" d="M159.7,99.07c.39,1.49-.26,3.69,0,5.41-1.82-1.79-3.5-3.72-5.41-5.41v-2.7c.89.08,1.81-.06,2.71,0,2.31-.12,2.26.96,2.71,2.7Z"/>
      <path class="cls-23" d="M173.24,112.59c-.66,3.41-2,3.04-5.41,2.7-.26-1.59.41-5.05,0-5.4l5.41,2.7Z"/>
      <path class="cls-21" d="M165.12,182.87l3,7.86,5.12.25v5.41c-4.27-1.58-6.63,1.08-5.41,5.41l-3.95,2.68c-1.57-.39-1.23-2.47-1.47-2.68,3.58-6.66.6-10.39,0-16.22-.17-1.62.89-3.11,2.71-2.7Z"/>
      <path class="cls-17" d="M121.81,163.95c-3,1.09-12.73,17.08-10.82,18.92l21.65,2.7c-1.22-6.51-4.39-9.96,0-16.2h-8.12s-2.71-.01-2.71-.01c.15-1.48,2.16-3.7,2.71-5.41,3.48-.64,8.48,1.75,10.83-2.7h2.71c-.25.78.22,1.83,0,2.7-1.95,7.74-3.22,14.13,0,21.62-.34.46-.04,3.22-1.4,5.34-1.23,1.91-3.92,2.55-4.01,2.77v-5.4s-27.07-2.71-27.07-2.71c.66-8.45,7.01-14.67,10.83-21.62.38-.69-.37-1.99,0-2.7,1.28.08,2.57-.09,3.81.38l1.6,2.32Z"/>
      <path class="cls-9" d="M162.4,250.44l-9.54-10.75c-5.16-8.21,6.73-10.82,6.86-18.97l9.54,10.75c5.16,8.21-6.73,10.82-6.86,18.97Z"/>
      <path class="cls-6" d="M151.58,180.16c3.13.49,5.41.85,8.12,2.7.72.49,1.3,2.35,2.71,2.7.6,5.83,3.58,9.56,0,16.22-1.18-1.04-1.67-1.53-2.71-2.7-1.68-1.89-5.06-4.93-5.41-5.41-.14-.18-.14-2.52,0-2.7.58-.77,3.64-.25,2.71-4.03-.48-1.68-1.53-1.17-2.71-1.38-2.28-.4-5.55-.01-8.12,0-.3-1.68.45-4.06,0-5.41,1.76.18,3.72-.26,5.41,0Z"/>
      <path class="cls-25" d="M140.76,169.35v16.22c-.95.14-2.5-.28-2.71,0-3.22-7.5-1.95-13.88,0-21.62l2.24,1.69c.69,1.17.04,2.76.47,3.71Z"/>
      <path class="cls-13" d="M143.46,174.76c.94,2.61,2.5,4.8,2.71,5.41.45,1.35-.3,3.73,0,5.41-1.76,0-3.77-.24-5.41,0v-16.22c.68,1.5,1.6,2.35,2.71,5.41Z"/>
      <path class="cls-2" d="M159.7,199.09h-5.42s0-5.41,0-5.41c.36.48,3.73,3.51,5.41,5.41Z"/>
      <path class="cls-27" d="M129.93,215.3c.27-1.92-.52-4.3.38-6.36l2.33-1.75c-.1,2.11.4,4.28-.38,6.36l-2.33,1.75Z"/>
      <path class="cls-3" d="M154.29,190.98v-5.41c1.18.21,2.24-.3,2.71,1.38.93,3.78-2.14,3.26-2.71,4.03Z"/>
      <path class="cls-1" d="M108.27,104.48l-5.41,16.22c-.78-.19-1.78.08-2.71,0,.33-2.57-.49-5.77,0-8.11.06-.3,4.06-.87,2.7-5.4l-21.65-2.7c4.78,6.91-.91,14.91,8.12,18.91-6.93-.23-6.33.56-10.83,2.7-.77.36-2.09-.39-2.71,0v-2.7c5.01-7.18,2.12-14.08,0-21.62.18-.13,2.6-2.55,2.71-2.7,9.22,3.39,19.88,3.7,29.78,5.41Z"/>
      <path class="cls-9" d="M56.82,66.64c-6.87.61-10.58-6.7-12.81-12.17l7.43-14.87,13.27,14.88-7.9,12.16Z"/>
      <path class="cls-25" d="M75.79,101.78c2.12,7.54,5.01,14.45,0,21.62-1.36-.27-2.25-2.54-2.71-2.7,4.22-5.5,3.06-12.39-2.71-16.22.95-2.8,4.56-2.1,5.41-2.7Z"/>
      <path class="cls-13" d="M73.09,120.7c-.79-.28-1.87.26-2.71,0-.19-3.15-1.28-15.22-2.71-16.22h2.71c5.77,3.83,6.93,10.71,2.71,16.22Z"/>
      <path class="cls-22" d="M62.26,93.67c-5.69,1.06-9.16-2.66-13.53-5.41.38-.14-.32-4.43,6.45-2.44,2.32.68,6.55,5.42,7.09,7.84Z"/>
      <path class="cls-25" d="M81.21,82.85c.88-5.69,1.22-6.21,2.71-10.81l-.39,9.06-2.32,1.76Z"/>
      <path class="cls-10" d="M102.86,47.71c-.07.89.02,1.81,0,2.7s-.02,1.81,0,2.7-.05,1.81,0,2.7c-5.95,7.84-7.23,20.08-8.12,29.73-.08.89.03,1.81,0,2.7l-5.41,2.7c-.05-.19-2.36-.33-2.14-3.32.84-11.81,6.18-24.68,10.82-35.33.87-1.99,2.42-11.29,4.86-4.6Z"/>
      <path class="cls-15" d="M105.57,77.45c-1.57.3-1.92,1.89-2.71,2.7-.86.89-1.82,1.82-2.71,2.7-.78.77-2.42,1.13-2.71,2.7h-2.71c.89-9.65,2.17-21.89,8.12-29.73.44,7.28.87,14.57,2.71,21.62Z"/>
      <path class="cls-7" d="M129.93,85.56l-2.96,13.3-7.87.21c-.72-1.21-1.01-2.5-2.71-2.7.03-.9,0-1.8,0-2.7v-5.41c4.35-.4,8.32-2.26,13.53-2.7Z"/>
      <path class="cls-25" d="M124.52,77.44h-13.53s0-5.39,0-5.39c5.14-.41,11.89-.91,13.53,5.39Z"/>
      <path class="cls-25" d="M135.34,50.43c.69,5.02-3.66,1.86-6.19,1.91-3.37.08-6.39-.46-10.04.77,3.14-8.77,9.43-4.28,16.23-2.68Z"/>
      <path class="cls-8" d="M108.27,82.85c.19,1.77-.13,3.63,0,5.41-1.73-.41-3.62-2.03-5.41-2.7.16-1.78-.11-3.62,0-5.41.78-.82,1.14-2.4,2.71-2.7.08.29,2.22.82,2.71,5.41Z"/>
      <path class="cls-27" d="M154.29,66.64h-8.12c-.43-1.35-1.88-2.64-2.48-4.07l2.48-1.34c1.55,1.55,5.09,1.46,8.12,5.41Z"/>
      <path class="cls-27" d="M102.86,50.42h10.82s.02,1.35.02,1.35l-.02,1.34h-10.82c-.02-.89-.02-1.8,0-2.69Z"/>
      <polygon class="cls-13" points="113.68 55.83 113.68 61.23 105.57 58.51 105.57 55.83 113.68 55.83"/>
      <path class="cls-13" d="M127.22,55.83l-4.06,5.37c-1.4-1.45-5.15-4.39-4.06-5.37h8.12Z"/>
      <path class="cls-27" d="M146.17,69.34l-.35,3.71-2.36,1.7c-3.25.2-3.01-2.45-2.7-5.4h5.41Z"/>
      <path class="cls-7" d="M108.27,82.85l5,.38.41,5.02c-.87.05-1.84.07-2.71,0-.93-.08-1.93.18-2.71,0-.13-1.78.19-3.64,0-5.41Z"/>
      <path class="cls-17" d="M138.05,85.56c-1.78-.13-3.62.02-5.41,0,.48-3.55,3.69-3.91,5.41-5.41v5.41Z"/>
      <path class="cls-3" d="M105.57,185.57l27.07,2.71v5.4c-5.88-4.38-6.93-.31-8.13,0-1.47.39-3.7-.27-5.44.01l2.55,7.8c-2.45.19-3.59,1.48-5.23,3-.9.83-1.8,1.82-2.71,2.7-.33-1.33-2.44-2.11-2.71-2.7-.99-2.17-.89-5.75-2.71-8.11h5.41c.71-5.68.28-6.11-5.41-5.41-.4,1.55.51,4.78,0,5.41-.19.23-3.17,1.29-5.41,2.7-1.35.85-2.51,2.63-2.71,2.7-4.78,1.89-12.42,2.87-18.95,5.41l-1.6-2.33-3.82-.38,2.7-13.51-5.4-.02-.48,6.27-2.24,1.85c-.18-.39-1.91.33-2.71,0v-5.41s-5.41,0-5.41,0c.32-.07.57-1.6,5.41-2.7,3.45-.79,5.12-2.64,5.41-2.7,2.18-.49,18.03-2.99,18.95-2.7.54.17,2.08,4.06,5.3,2.66l5.53-8.07c.28,1.14-.42,2.67.14,3.94l2.57,1.47ZM94.73,190.98h-8.11v5.4h8.11v-5.4Z"/>
      <path class="cls-17" d="M124.52,193.68l5.6,6.89c-4.41,15.05-6.27,33.68-19.13,44.47.18-1.77-.08-3.62,0-5.41.12-2.64.19-5.48,0-8.11l5.23-.13,5.62-25.53-.03-1.37h-5.41c1.64-1.52,2.78-2.81,5.23-3l-2.55-7.8c1.74-.28,3.97.37,5.44-.01Z"/>
      <path class="cls-15" d="M116.39,204.49h5.41s.03,1.38.03,1.38l-5.62,25.53-5.23.13c-.43-5.95-2.49-9.21-2.71-10.81s-.05-3.68,0-5.41c.19-6.94,1.34-4.17,5.41-8.11.91-.88,1.81-1.88,2.71-2.7Z"/>
      <path class="cls-8" d="M110.98,231.52c.19,2.63.12,5.47,0,8.11h-2.71l-1.75-2.33-6.38-.38c-.18-.65-.07-1.89,0-2.7l2.34-1.59.37-3.81,5.28-.08.13-8.03c.22,1.6,2.28,4.86,2.71,10.81Z"/>
      <path class="cls-8" d="M110.98,204.49c.27.59,2.37,1.38,2.71,2.7-4.08,3.94-5.22,1.17-5.41,8.11-1.71.27-3.94-.4-5.41,0v-2.7c2.68-1.21,2.47-2.95,2.71-5.41.08-.84.09-1.86,0-2.7h5.41Z"/>
      <polygon class="cls-27" points="94.73 228.82 94.73 234.22 81.21 234.22 81.21 231.53 94.73 228.82"/>
      <path class="cls-27" d="M102.86,212.6v2.7c-1.78.48-4.2,3.18-6.55,2.6l-4.28-5.29h10.83Z"/>
      <path class="cls-17" d="M81.21,207.2c-3,1.17-5.18,4.49-8.12,5.41v-8.11h2.71l3.82.38,1.6,2.33Z"/>
      <path class="cls-7" d="M105.57,204.49c.09.84.08,1.86,0,2.7h-5.42s0-5.41,0-5.41c.2-.08,1.35-1.85,2.71-2.7.55,1.71,2.55,3.92,2.71,5.41Z"/>
      <path class="cls-25" d="M94.73,236.93c1.81,11.21-10.5,1.6-16.23,2.69l16.23-2.69Z"/>
      <path class="cls-14" d="M73.09,209.9v2.7c-.74.23-1.77-.14-2.71,0-1.56.24-3.75.11-5.41,0v-5.41c2.58,1.42,5,2.89,8.12,2.7Z"/>
      <path class="cls-27" d="M108.27,239.63l-6.57-.18c-1.88-.32-1.25-1.48-1.55-2.53l6.38.38,1.75,2.33Z"/>
      <path class="cls-27" d="M100.15,234.23c.11-1.25-.4-2.73.14-3.92l2.57-1.49-.37,3.81-2.34,1.59Z"/>
      <path class="cls-6" d="M119.1,99.07c1.03,1.71,1.82,3.62,2.71,5.41-3.92,1.56-1.93,6.18-2.71,8.11h-5.42s0,8.11,0,8.11c-1.31-.46-3.74.31-5.41,0,.34-6.31,3.42-9.02,5.41-13.52,1.44-3.23,2.08-2.17,2.71-8.11.09-.88-.03-1.81,0-2.7,1.7.21,1.98,1.5,2.71,2.7Z"/>
      <path class="cls-8" d="M113.69,107.18c-1.99,4.49-5.08,7.21-5.41,13.52-.05.86-.21,2.2,0,2.7-2.7,1.09-4.97-2.6-5.41-2.7l5.41-16.22c1.24.21,2.6-.14,3.82.4l1.59,2.3Z"/>
      <path class="cls-17" d="M108.27,88.26c.78.18,1.78-.08,2.71,0,.1,1.79-.15,3.63,0,5.41-1.65.03-3.82-.71-5,.48l-.43,4.91c-4.82,1.67-7.21-2.03-7.17-6.76,0-.79,1.76-1.18,1.76-1.34l2.33-1.6c.5-1.24.26-2.54.38-3.81,1.79.68,3.68,2.29,5.41,2.7Z"/>
      <path class="cls-17" d="M116.39,93.67c0,.9.03,1.81,0,2.7s.09,1.82,0,2.7h-5.42c-.14-1.78.15-3.63,0-5.41,1.8-.03,3.61.02,5.41,0Z"/>
      <path class="cls-17" d="M94.74,88.26c-.09,2.69.07,5.42,0,8.1h-5.4c-.31-1.71.39-3.95,0-5.4l5.41-2.7Z"/>
      <path class="cls-6" d="M102.86,85.56c-.12,1.27.12,2.57-.38,3.81l-2.33,1.6c.06-1.8-.04-3.61,0-5.41v-2.7c.89-.89,1.85-1.81,2.71-2.7-.11,1.79.16,3.63,0,5.41Z"/>
      <path class="cls-17" d="M100.15,85.56h-2.71c.29-1.57,1.93-1.93,2.71-2.7v2.7Z"/>
      <path class="cls-17" d="M154.29,53.12l13.53,13.52c-1.21.72-2.51,1-2.71,2.7-3.9-5.06-10.55-9.79-10.83-16.22Z"/>
      <path class="cls-1" d="M151.58,50.42l-10.83-10.81c10.76,4.45,5.81,4.93,10.83,10.81Z"/>
      <path class="cls-14" d="M78.5,128.81c.03,1.78,2.33,2.14,2.71,2.7.89,1.34,2.38,2.17,2.71,2.7.4.66-.39,2.02,0,2.7.79,1.38,2.42,2.17,2.71,2.7.78,1.48,2.03,3.94,2.71,5.41s-.29,4.53,2.71,5.41v2.7c-2.69,1.13-2.2,3.28-2.71,5.41-.39,1.62.48,4.1,0,5.41-.23.63-1.9,3.65-2.71,5.41-.22.48-1.95,1.31-2.71,2.7-2.51,4.64-4.8,9.37-8.12,13.52-.6.75-2.38,1.24-2.71,2.7-.3.07-1.96,1.92-5.41,2.7l2.7-8.11-5.4,2.7c1.36-3.87-2.57-5.1-2.71-5.41-.3-.67.21-1.8,0-2.7.96-.07,2.16.26,2.71,0,7.15-3.32,6.91-15.79,8.12-21.62.18-.84,6.32-4.44,0-8.11.11-.89-.08-1.81,0-2.7h5.41s-.01-5.41-.01-5.41l-8.11,2.7c-.16-.81.07-1.78,0-2.7-.21-2.67.11-5.42,0-8.11,3.65-2.12,4.76-4.99,5.41-5.41.62-.39,1.94.36,2.71,0v2.7ZM83.9,158.53v-8.1h-2.69v8.1h2.69ZM81.2,169.35v-8.1h-2.69v8.1h2.69Z"/>
      <path class="cls-15" d="M64.96,145.02l4.9,9.83c-2.06,5.25-1.43,10.52-2.07,15.7-.47,3.78-10.7-2.28-8.24,6.91-1.16-.22-2.5.21-3.79-.35-1.46-.64-1.25-1.96-1.62-2.35-.64-7.66,13.28-8.83,10.82-20.26l-2.7-1.36c1-4.37-.26-3.52,2.71-8.11Z"/>
      <path class="cls-2" d="M51.43,147.73c3.84-3.8,5.07-9.27,10.82-8.1,2.96,2.95-6.9,10.87-8.12,13.51.11-1.76-1.1-2.46-2.71-2.7v-2.7Z"/>
      <path class="cls-6" d="M56.84,193.68c.86,0,1.89.16,2.71,0v8.11s-5.41,0-5.41,0c-.84-.33-2.13.38-2.71,0-.05-1.8.07-3.61,0-5.41-.04-.93.21-2.03,0-2.7h5.41Z"/>
      <path class="cls-8" d="M62.26,153.13l2.7,1.36c2.46,11.44-11.46,12.6-10.82,20.26-3.61-3.8-2.15-3.37-2.71-8.11,1.74-.1,2.23-1.29,2.71-2.7l3.76-.36c1.32-.33,1.13-1.8,1.65-2.35,3.93-4.13,1.78-4.05,2.71-8.11Z"/>
      <path class="cls-16" d="M70.38,142.32c.33,1.62.88,2.82,2.71,2.7-.08.89.11,1.82,0,2.7-.31,2.61.21,5.45,0,8.11-1.21,5.84-.97,18.3-8.12,21.62l-1.35-2.68-1.35,2.68c-.81.06-1.93.15-2.71,0-2.46-9.19,7.77-3.13,8.24-6.91.64-5.18.02-10.45,2.07-15.7l-4.9-9.83c1.5-2.33,2-4.7,5.41-5.41.07.92-.16,1.89,0,2.7Z"/>
      <path class="cls-21" d="M62.26,193.68h5.42s0,5.41,0,5.41c-2.66-1.1-5.06-2.75-8.12-2.7v-2.7c.87-.17,1.85.19,2.71,0Z"/>
      <path class="cls-6" d="M64.96,185.57l-5.37-4.1,2.66-1.31c.14.3,4.06,1.54,2.71,5.41Z"/>
      <path class="cls-12" d="M48.72,150.43c-.59.5-.64,1.92-1.79,2.31l-3.62.39c.04-.89,0-1.81,0-2.7,1.8.03,3.61-.05,5.41,0Z"/>
      <path class="cls-12" d="M51.43,150.43c-.86-.13-1.82.03-2.71,0,.79-.67,1.84-1.84,2.71-2.7v2.7Z"/>
      <path class="cls-8" d="M56.84,190.98l-2.34-1.59-.37-3.81c.83,1.19,3.78,1.85,2.71,5.41Z"/>
      <path class="cls-2" d="M62.26,117.99c2.33.61,5.44,1.86,8.12,2.7.13,2.17-.16,6.98,0,10.81-2.83,1.64-4.61,3.4-8.12,2.72l-.22-7.93-7.51-.64-.4-4.97v-2.7c2.1.64,5.86-.6,8.12,0Z"/>
      <path class="cls-13" d="M56.84,107.18l-1.48,2.6c-5.39,1.51-4.93-.78-6.64-2.6,3.73-3.32,4.99-1.04,8.12,0Z"/>
      <path class="cls-13" d="M46.02,112.59c3.89,1.91,7.61,5.25,8.12,5.41v2.7h-2.71l-5.41-8.11Z"/>
      <path class="cls-7" d="M46.02,134.21c.51-1.08-.39-3.77,0-5.41h5.41c.5,3.19-4.99,4.57-5.41,5.41Z"/>
      <path class="cls-7" d="M67.67,199.09c.8.33,2.52-.39,2.71,0l-2.63,5.29,5.33.12v5.41c-3.12.19-5.54-1.29-8.12-2.7v5.41c-1.79-.12-3.62.12-5.42,0v-5.41h5.42c-1.99-1.09-1.88-1.17-5.41-2.7-2.19-.95-4.44-2.31-5.41-2.7h5.42s0-5.41,0-5.41c3.06-.05,5.46,1.6,8.12,2.7Z"/>
      <path class="cls-26" d="M59.55,204.49c3.53,1.53,3.43,1.62,5.41,2.7h-5.41v-2.7Z"/>
      <path class="cls-14" d="M70.38,250.44v2.7h-5.41c-1.56-6.1,3.06-8.31,5.41-2.7Z"/>
      <path class="cls-6" d="M159.7,131.51c-.19,2.5.57,6.28,0,8.11-.27.85-6.81,6.97-5.41,8.1l5.41.02c.5-2.36-.69-6.43,0-8.12.15-.35,5.44-2.3,5.41-5.41,1.24.92,2.32,2.48,2.71,2.7-.76,1.87-1.86,3.58-2.71,5.41-.47,1.01-4.73,2.78-2.7,8.1h5.41c.09,2.25-3.85,4.97-5.41,6.77l5.13,1.62c1.04.73-2.49,4.15-2.43,5.14-.54,1.69-2.59,3.97-2.71,5.41-.93-.31-4.09-.18-5.41,0,.74-2.41,3.6-4.68,2.71-8.11-1.68-.35-4.17.47-5.42,0-.43-.16-1.26-2.03-2.71-2.7l2.71-5.4c-2.92-.49-5.83.83-8.12,2.69-.27.22-2.21-.41-2.65,1.47l5.37,14.75c3.97,1.32,5.08-2.64,5.4-2.71.84-.17,1.8.12,2.71,0-.4,1.31.56,3.6-.11,5.27-1.74.49-3.54.03-5.3.13-2.69.16-5.42-.11-8.12,0-1.1-3.05-2.03-3.9-2.71-5.41-.43-.95.22-2.55-.47-3.71l-2.24-1.69c.22-.88-.25-1.92,0-2.7.09-.29,2.52-5.17,2.71-5.41,1.56-2.05,5-3.22,8.12-8.11,2.92-4.56,3.96-8.47,5.41-13.52.23-.8-.2-1.82,0-2.7,1.8-.65,3.69-2.28,5.41-2.7-.05.9.07,1.81,0,2.7Z"/>
      <path class="cls-7" d="M146.17,147.73c-9.38-3.66-4.21-16.98-5.53-25.44,6.1-1.61,6.48-8.66,10.94-9.7-1.73,5.71-7.31,15.15-7.61,17.96-.45,4.12,4.12,11.55,2.2,17.18Z"/>
      <path class="cls-5" d="M132.64,139.62c-2.1,5.53,2.53,7.66,2.71,8.11.4.98-.29,2.55.39,3.73l2.32,1.68,2.71,2.7c-.18.24-2.61,5.12-2.71,5.41h-2.71v-2.7c.08-3.26-5.08-7.09-5.41-8.11-.57-1.74.17-5.64,0-8.11-.12-1.78.02-3.61,0-5.41,1.33,1,1.71,1.35,2.71,2.7Z"/>
      <path class="cls-15" d="M138.05,104.48c-2.08,2.14-1.75,6.28-2.71,8.11-1.11,2.1-4.7,3.95-5.41,8.11h-2.71c.23-3.48.28-6.48,2.24-9.56l-2.24-1.26c2.48-4.56,6.92-4.12,10.83-5.41Z"/>
      <path class="cls-5" d="M135.34,112.59c.96-1.82.62-5.96,2.71-8.11,1.44-.47,2.62-.94,2.71-2.7.86.02,1.87.13,2.71,0,.3,5.17-3.63,8.9-8.12,10.81Z"/>
      <path class="cls-23" d="M129.93,136.92c-1.51-1.13-2.52-2.64-2.71-2.7v-2.7c0-1.8,0-3.6,0-5.41,0-.9-.06-1.81,0-2.7s-.06-1.81,0-2.7h2.71c-.76,4.39-.05,11.3,0,16.22Z"/>
      <path class="cls-7" d="M135.34,147.73c-.18-.44-4.81-2.58-2.71-8.11,1.76,2.39,4.04,3.12,2.71,8.11Z"/>
      <path class="cls-22" d="M135.34,147.73h5.42s-2.71,5.41-2.71,5.41l-2.32-1.68c-.68-1.18,0-2.75-.39-3.73Z"/>
      <path class="cls-7" d="M154.29,80.15l-2.71,5.4c1.7.33,4.12-.45,5.42.01,1.68.59,2.29,2.49,2.71,2.7l-2.33,1.59-.38,3.81c-1.89-.45-10.51-2.25-10.83-2.7-.49-.7.65-3.61-.23-5.18-5.01,3.97-7.44-.2-7.89-.23v-5.41c7.22,1.35,10.86-1.52,16.23-5.4.29,1.7-.44,4.11.01,5.4Z"/>
      <path class="cls-7" d="M124.52,104.48c-.21,1.75.32,3.8,0,5.41-.74,3.73-2.61,6.98-2.7,10.81h5.41c-.06.9.06,1.81,0,2.71-6.35,1.89-9.6-1.31-13.53-2.7,1.35,1.61,4.5-5.84,5.41-8.11.78-1.93-1.21-6.55,2.71-8.11.57-.4,1.92.36,2.71,0Z"/>
      <path class="cls-17" d="M140.76,101.78c-.09,1.76-1.27,2.23-2.71,2.7-3.91,1.29-8.35.85-10.83,5.41h-2.71c.32-1.61-.21-3.66,0-5.41,4.03-1.88,8.3-4.51,12.89-4.9,2.68-.22,3.15,2.19,3.35,2.19Z"/>
      <path class="cls-6" d="M157,93.67v2.7c-.9-.06-1.81.08-2.71,0-2.67-.24-5.44.14-8.12,0v-5.41c.32.46,8.93,2.25,10.83,2.7Z"/>
      <path class="cls-10" d="M146.17,90.96v5.41c-1.8-.09-3.62.07-5.41,0v-1.36c-.88-4.94.67-4.41,5.41-4.04Z"/>
      <path class="cls-21" d="M165.12,90.96v2.7c-.5-.31-1.73.17-2.71,0-1.7-.3-3.86.37-5.41,0l.38-3.81,2.33-1.59c1.96.98,2.68.89,5.41,2.7Z"/>
      <path class="cls-12" d="M157,85.56c-1.3-.46-3.72.32-5.42-.01l2.71-5.4c.24.69,3.73,2.59,2.71,5.41Z"/>
      <path class="cls-25" d="M154.29,131.51c-.2.88.23,1.9,0,2.7l-5.28-4.03c2.83-3.68,3.11-7.92,7.99-9.48-.71,3.66-1.89,7.16-2.71,10.81Z"/>
      <path class="cls-7" d="M159.7,128.81c-1.73.42-3.61,2.05-5.41,2.7.82-3.65,1.99-7.15,2.71-10.81.59-.19,2.07-.12,2.71,0,0,2.69.15,5.43,0,8.11Z"/>
      <path class="cls-5" d="M162.41,169.35c-.22,2.67.12,5.44,0,8.11h5.42c-.74,2.37-1.08,1.77-2.71,2.7-.85.48-2.56-.16-3.77.51l-1.65,2.2c-2.71-1.85-4.99-2.22-8.12-2.7v-5.41c1.76-.1,3.56.36,5.3-.13.68-1.68-.29-3.96.11-5.27,1.33-.18,4.48-.31,5.41,0Z"/>
      <path class="cls-25" d="M167.82,169.35c.11,1.72.16,3.7,0,5.41-2.02-1.33-3.08-4.62-5.41-5.41.12-1.44,2.17-3.71,2.71-5.41.02.3,2.45,1.29,2.71,5.41Z"/>
      <path class="cls-13" d="M167.82,174.76c-.09.94.22,2,0,2.7h-5.42c.12-2.67-.22-5.44,0-8.11,2.33.78,3.39,4.07,5.41,5.41Z"/>
      <path class="cls-17" d="M165.12,180.16v2.7c-1.81-.41-2.87,1.08-2.71,2.7-1.41-.35-1.99-2.21-2.71-2.7l1.65-2.2c1.21-.66,2.91-.02,3.77-.51Z"/>
      <path class="cls-17" d="M167.82,150.43h-5.41c-2.02-5.32,2.24-7.1,2.7-8.11-.99,3.04,2.64,6.48,2.71,8.11Z"/>
      <path class="cls-18" d="M170.53,136.92c-.27,4.72.86,6.19-5.41,5.41.84-1.82,1.95-3.54,2.71-5.41.57.34,1.8-.22,2.71,0Z"/>
      <path class="cls-13" d="M162.41,93.67v5.41h-2.71c-.45-1.74-.39-2.83-2.71-2.7v-2.7c1.55.37,3.72-.3,5.41,0Z"/>
      <path class="cls-18" d="M165.12,134.21c.03,3.1-5.27,5.05-5.41,5.41.57-1.83-.19-5.61,0-8.11l3.65.39c1.12.41,1.18,1.88,1.76,2.31Z"/>
      <path class="cls-24" d="M124.52,163.95c-.55,1.71-2.56,3.92-2.71,5.41-.27,2.65.16,5.44.01,8.1l1.34.02,1.35-8.12h8.12c-4.4,6.25-1.23,9.7,0,16.21l-21.65-2.7c-1.91-1.83,7.82-17.82,10.82-18.92.71-.26,1.77.17,2.71,0Z"/>
      <path class="cls-8" d="M116.39,163.95c-3.82,6.95-10.17,13.18-10.83,21.62l-2.57-1.47c-.56-1.27.14-2.8-.14-3.94-.2-.84.18-1.83,0-2.7l8.12-13.52h5.41Z"/>
      <path class="cls-6" d="M121.81,158.54c4.4-.43,9.09.29,13.53,0v2.7c-2.35,4.45-7.34,2.06-10.83,2.7-.93.17-2-.26-2.71,0l-1.6-2.32c-1.24-.47-2.53-.3-3.81-.38,1.82-3.48,1.9-2.36,5.41-2.7Z"/>
      <path class="cls-22" d="M116.39,161.24c-.37.71.38,2.01,0,2.7h-18.95c2.94-4.47,13.44-3.03,18.95-2.7Z"/>
      <path class="cls-14" d="M124.52,169.35l-1.35,8.12-1.34-.02c.15-2.66-.28-5.46-.01-8.1h2.71Z"/>
      <path class="cls-25" d="M151.58,174.76v5.41c-1.7-.26-3.66.18-5.41,0-.2-.61-1.76-2.79-2.71-5.41,2.7-.11,5.43.16,8.12,0Z"/>
      <path class="cls-12" d="M113.69,120.7c3.93,1.39,7.18,4.6,13.53,2.7-.06.89,0,1.81,0,2.7-4.43,1.56-8.99,1.89-13.53,2.7-6.36,1.14-12.45,2.22-18.95,2.7-.89.07-1.81,0-2.71,0l-1.7-2.32-11.83-.38v-2.7c4.5-2.14,3.9-2.93,10.83-2.7,1.78.06,3.67-.19,5.41,0,.35.04,1.73,2.36,6.51,2.85,3.13.32,6.55-.41,9.73-.16.64-2.45-2.63-2.52-2.71-2.69-.21-.5-.05-1.84,0-2.7,1.67.31,4.11-.46,5.41,0Z"/>
      <path class="cls-24" d="M89.33,123.4c-9.04-4-3.34-12-8.12-18.91l21.65,2.7c1.36,4.53-2.64,5.11-2.7,5.4h-5.42s0,8.11,0,8.11v2.7c-1.74-.19-3.63.06-5.41,0Z"/>
      <path class="cls-7" d="M100.15,120.7c.93.08,1.93-.19,2.71,0,.44.1,2.71,3.8,5.41,2.7.07.18,3.35.24,2.71,2.69-3.18-.25-6.6.48-9.73.16-4.78-.49-6.16-2.81-6.51-2.85v-2.7c1.79.1,3.63-.15,5.41,0Z"/>
      <path class="cls-21" d="M75.79,123.4v2.7c-.65.41-1.77,3.29-5.41,5.41-.16-3.83.13-8.64,0-10.81.83.26,1.92-.28,2.71,0,.46.16,1.35,2.44,2.71,2.7Z"/>
      <path class="cls-9" d="M100.15,112.59c-.49,2.34.33,5.54,0,8.11-1.78-.15-3.62.1-5.41,0v-8.12s5.41.01,5.41.01Z"/>
      <path class="cls-17" d="M97.45,163.95h2.71l-8.12,21.62c-.91-.28-16.77,2.22-18.95,2.7.33-1.47,2.1-1.95,2.71-2.7,4.39,1.72,6.45-2.01,8.12-2.7.94-.39,3.42.88,4.89-.43l5.91-11.75-4.03-4.01-4.06,2.67c.81-1.76,2.47-4.77,2.71-5.41h8.12Z"/>
      <polygon class="cls-6" points="70.38 199.09 72.62 197.23 73.09 190.96 78.49 190.98 75.79 204.49 73.09 204.49 67.75 204.38 70.38 199.09"/>
      <path class="cls-12" d="M108.27,196.38c1.82,2.35,1.72,5.94,2.71,8.11h-5.41c-.15-1.49-2.15-3.7-2.71-5.41,2.25-1.41,5.22-2.47,5.41-2.7Z"/>
      <rect class="cls-1" x="86.62" y="190.98" width="8.11" height="5.4"/>
      <path class="cls-1" d="M108.27,196.38c.51-.63-.39-3.86,0-5.41,5.68-.7,6.12-.27,5.41,5.4h-5.41Z"/>
      <path class="cls-6" d="M102.86,177.46c.18.88-.2,1.87,0,2.7l-5.53,8.07c-3.21,1.4-4.75-2.5-5.3-2.66,6.51-1.27,6.39-7.59,8.12-10.81,1.82-.13,2.38,1.09,2.71,2.7Z"/>
      <path class="cls-8" d="M119.1,112.59c-.91,2.27-4.06,9.72-5.41,8.11v-8.1s5.41,0,5.41,0Z"/>
      <path class="cls-15" d="M129.93,142.32c.17,2.47-.57,6.37,0,8.11-1.79-.03-3.63.07-5.41,0v-5.41c-4.33,2.62-8.82-.05-10.83,0-2.25.06-12.33,2.66-13.53,2.7-.9.04-1.81.02-2.71,0l-1.6-2.33-3.82-.38h-2.71c-.68-1.47-1.93-3.93-2.71-5.41,5.1,3.79,9.85.05,10.83,0,1.05-.06,4.14,2.91,6.46,2.85s1.85-4.92,4.37-5.55c2.8,8.79,15.32.11,21.65,5.41Z"/>
      <path class="cls-1" d="M135.34,158.54c-4.45.29-9.13-.43-13.53,0l-1.67-2.31c-10.72-2.58-20.37,2.23-30.81,2.31.51-2.13.01-4.27,2.71-5.41h36.54s1.36-2.7,1.36-2.7c.34,1.02,5.49,4.85,5.41,8.11Z"/>
      <path class="cls-26" d="M121.81,158.54c-3.52.34-3.59-.78-5.41,2.7-5.51-.32-16.01-1.77-18.95,2.7h-8.12c.48-1.3-.39-3.78,0-5.41,10.44-.09,20.1-4.9,30.81-2.31l1.67,2.31Z"/>
      <path class="cls-6" d="M94.74,134.21h29.78c-.32.11-1.11,2.31-4.01,2.69-4,.52-9.12-.76-12.24.01-2.52.63-2.06,5.48-4.37,5.55s-5.41-2.9-6.46-2.85l-1.7-2.32-11.83-.38c-.39-.68.4-2.05,0-2.7h10.83Z"/>
      <path class="cls-21" d="M100.15,150.43c4.51,0,9.03-.04,13.53,0,3.6.03,7.23-.14,10.83,0,1.79.07,3.62-.03,5.41,0l-1.36,2.69h-36.54s0-2.69,0-2.69h8.12Z"/>
      <path class="cls-24" d="M86.62,169.35l4.06-2.67,4.03,4.01-5.91,11.75c-1.47,1.31-3.95.03-4.89.43l2.54-9.25-2.54-1.57c.75-1.4,2.49-2.23,2.71-2.7Z"/>
      <path class="cls-15" d="M83.91,182.87c-1.67.7-3.73,4.43-8.12,2.7,3.32-4.15,5.61-8.87,8.12-13.52l2.54,1.57-2.54,9.25Z"/>
      <path class="cls-13" d="M97.45,139.62c-.98.05-5.73,3.79-10.83,0-.28-.54-1.92-1.32-2.71-2.7l11.83.38,1.7,2.32Z"/>
      <path class="cls-13" d="M97.45,147.73c.9.02,1.81.04,2.71,0v2.7h-8.12c-3-.88-2-3.87-2.71-5.41h2.71l1.58,2.44c1.26.48,2.55.24,3.84.26Z"/>
      <path class="cls-3" d="M92.03,131.51c.9,0,1.82.07,2.71,0v2.7h-10.83c-.33-.54-1.82-1.36-2.71-2.7h10.83Z"/>
      <path class="cls-17" d="M92.03,131.51h-10.83c-.37-.57-2.68-.93-2.71-2.7l11.83.38,1.7,2.32Z"/>
      <path class="cls-21" d="M70.38,142.32l8.11-2.7v5.4s-5.4,0-5.4,0c-1.83.12-2.38-1.08-2.71-2.7Z"/>
      <path class="cls-21" d="M73.09,155.84c.21-2.65-.31-5.5,0-8.11,6.32,3.67.18,7.27,0,8.11Z"/>
      <rect class="cls-22" x="81.22" y="150.44" width="2.69" height="8.1"/>
      <rect class="cls-27" x="78.51" y="161.25" width="2.69" height="8.1"/>
      <path class="cls-15" d="M64.96,177.46c-.55.26-1.75-.07-2.71,0l1.35-2.68,1.35,2.68Z"/>
      <path class="cls-2" d="M59.55,161.24c-.52.54-.33,2.01-1.65,2.35l-3.76.36c.52-1.52.04-3.47,1.35-5.44,1.29-1.94,3.16-1.93,4.06-2.67v5.41Z"/>
      <path class="cls-27" d="M59.55,161.24v-5.41c.37-.31.09-3.29,2.71-2.7-.93,4.06,1.22,3.98-2.71,8.11Z"/>
      <path class="cls-3" d="M151.58,158.54c1.45.68,2.28,2.54,2.71,2.7v8.11c-.33.07-1.43,4.02-5.4,2.71l-5.37-14.75c.44-1.87,2.39-1.25,2.65-1.47l1.65,2.21c1.2.67,2.82.05,3.76.49Z"/>
      <path class="cls-17" d="M154.29,161.24c1.25.47,3.74-.35,5.42,0,.88,3.43-1.97,5.7-2.71,8.11-.9.12-1.87-.17-2.71,0v-8.11Z"/>
      <path class="cls-1" d="M159.7,139.62c-.69,1.69.5,5.76,0,8.12l-5.41-.02c-1.39-1.13,5.15-7.25,5.41-8.1Z"/>
      <path class="cls-17" d="M146.17,155.84c2.29-1.86,5.2-3.18,8.12-2.69l-2.71,5.4c-.94-.44-2.56.18-3.76-.49l-1.65-2.21Z"/>
      <path class="cls-22" d="M129.93,136.92c.02,1.79-.12,3.63,0,5.41-6.33-5.3-18.86,3.38-21.65-5.41,3.12-.78,8.24.51,12.24-.01,2.89-.38,3.69-2.58,4.01-2.69.49-.17,2.2-.16,2.71,0,.18.06,1.2,1.57,2.71,2.7Z"/>
      <path class="cls-24" d="M127.22,120.7h-5.41c.09-3.83,1.96-7.08,2.7-10.81h2.71l2.24,1.26c-1.96,3.07-2.01,6.08-2.24,9.56Z"/>
      <path class="cls-1" d="M127.22,126.1c0,1.8,0,3.6,0,5.41h-13.53v-2.7c4.54-.81,9.1-1.14,13.53-2.7Z"/>
      <path class="cls-3" d="M127.22,131.51v2.7c-.51-.16-2.21-.17-2.71,0h-10.83v-2.7h13.53Z"/>
      <path class="cls-12" d="M110.98,163.95l-8.12,13.52c-.32-1.62-.89-2.83-2.71-2.7,1.9-3.53,3.59-7.24,5.41-10.81h5.41Z"/>
      <path class="cls-25" d="M105.57,163.95c-1.83,3.57-3.51,7.28-5.41,10.81-1.74,3.22-1.61,9.55-8.12,10.81l8.12-21.62h5.41Z"/>
      <path class="cls-17" d="M113.69,128.81v5.41h-18.95v-2.7c6.5-.49,12.59-1.57,18.95-2.7Z"/>
      <path class="cls-22" d="M113.69,145.02v5.41c-4.51-.04-9.03,0-13.53,0v-2.7c1.21-.05,11.28-2.64,13.53-2.7Z"/>
      <path class="cls-14" d="M113.69,145.02c2.01-.06,6.5,2.62,10.83,0v5.41c-3.6-.14-7.23.03-10.83,0v-5.41Z"/>
      <path class="cls-14" d="M97.45,147.73c-1.29-.02-2.58.22-3.84-.26l-1.58-2.44,3.82.38,1.6,2.33Z"/>
    </g>
  </g>
</svg>