<?xml version="1.0" encoding="UTF-8"?>
<svg id="Layer_2" data-name="Layer 2" xmlns="http://www.w3.org/2000/svg" viewBox="0 0 214.39 288.15">
  <defs>
    <style>
      .cls-1 {
        fill: #050505;
      }

      .cls-2 {
        fill: #191a18;
      }

      .cls-3 {
        fill: #414141;
      }

      .cls-4 {
        fill: #87722b;
      }

      .cls-5 {
        fill: #f5f5f6;
      }

      .cls-6 {
        fill: #e5e9f1;
      }

      .cls-7 {
        fill: #0f0f0d;
      }

      .cls-8 {
        fill: #dab924;
      }

      .cls-9 {
        fill: #3a3a3a;
      }

      .cls-10 {
        fill: #b7c4d9;
      }

      .cls-11 {
        fill: #fe1417;
      }

      .cls-12 {
        fill: #fff;
      }

      .cls-13 {
        fill: #c4a025;
      }

      .cls-14 {
        fill: #172680;
      }

      .cls-15 {
        fill: #b7a68b;
      }

      .cls-16 {
        fill: #c71618;
      }

      .cls-17 {
        fill: #802121;
      }

      .cls-18 {
        fill: #232322;
      }

      .cls-19 {
        fill: #0c0c0c;
      }

      .cls-20 {
        fill: #fe1014;
      }

      .cls-21 {
        fill: #fe0c11;
      }

      .cls-22 {
        fill: #f2d621;
      }

      .cls-23 {
        fill: #585858;
      }

      .cls-24 {
        fill: #f0f1f3;
      }

      .cls-25 {
        fill: #fe2327;
      }

      .cls-26 {
        fill: #95a4ca;
      }

      .cls-27 {
        fill: #ad912e;
      }

      .cls-28 {
        fill: #6874af;
      }
    </style>
  </defs>
  <g id="Layer_1-2" data-name="Layer 1">
    <g>
      <rect class="cls-12" x="3.46" y="2.29" width="210" height="284"/>
      <path class="cls-1" d="M5.41,283.82c-1.21-.42-3.54.67-5.17-.17L0,0h213.84c-1.28,92.71,1.72,185.72,0,278.42l-2.34,1.59-.37,3.81c-1.28-.39-6.49-.29-8.12,0v-2.7c4.46-1.29,5.86-4.75,5.55-9.33-5.5-84.17,6.86-176.57-.02-259.73-.23-2.78-1.11-9.35-4.17-9.35H2.71l.49,276.47,2.22,1.95v2.7Z"/>
      <path class="cls-9" d="M203.01,281.12v2.7c-.36.07-3.58,4.28-6.5,2.86-59.87-4.02-125.44,4.81-184.59,0-4.97-.4-5.46-2.49-6.51-2.85v-2.7h197.6Z"/>
      <path class="cls-9" d="M213.84,278.42c-.05,2.7.05,5.42-.01,8.11-2.45.65-2.51-2.65-2.7-2.7l.37-3.81,2.34-1.59Z"/>
      <path class="cls-2" d="M62.26,189.22c.83-.04,1.92-.16,2.71,0-.65,6.81,4.83,7.04,5.41,8.11.74,1.35.57,4.65,2.07,7.27,5.42,9.41,11.68,17.99,19.58,25.17.81,4,.5,6.69,5.41,8.11-.76,2.9,2.09,4.22,2.71,5.41,1.28,2.48,2.24,7.94,4.32,8.25,8.48-.15,17-.24,25.46-.14,12.6.15,25.3-.11,37.9,0-.45,1.36.3,3.73,0,5.41-21.47,2.23-50.7.19-73.09,0,.41-2.35-1.98-2.57-3.98-2.74-9.66-.83-19.88.26-29.54.42l-1.67,2.32c-4.92-.16-10.17.59-14.97,0-2.99-.37-3.71-2.6-3.98-2.69v-2.7c6.3,0,12.65,0,18.95,0h13.53l21.65-1.35c-8.41-11.02-16.71-22.26-24.36-33.79-4.76-7.17-10.43-15.45-13.53-21.62v-5.41c1.79-.1,3.61.08,5.41,0Z"/>
      <path class="cls-19" d="M173.24,29.73c.23,1.71-1.16,2.57-2.71,2.7-6.04.5-12.75-.05-18.95,0-5.4.05-10.84-.02-16.24,0-.9,0-1.8,0-2.71,0-6.3.02-12.65,0-18.95,0-2.71,0-5.41-.01-8.12,0-8.1.03-16.26-.02-24.36,0-14.41.03-28.91-.02-43.32,0v70.28c3.52.69,5.4-1.08,8.13-2.7l2.39,1.61c.46,1.25.35,2.51.31,3.8l-5.4-2.7c3.73,9.78-4.51,10.99-5.42,13.52-.37,1.02-.03,3.81,0,5.41.07,3.53-1.32,8.11,2.71,8.11-3.35,4.32-2.88,10.95-2.71,16.22-.56,1.16.15,5.81,0,8.11-.11,1.79.05,3.61,0,5.41-.1,3.6.07,7.21,0,10.81-.08,4.5.04,9.02,0,13.52-.03,3.6,0,7.21,0,10.81s-.02,7.21,0,10.81c.01,1.8-.02,3.6,0,5.41.11,12.9-2.33,29.78,2.71,40.55v2.7c-1.21-.42-3.54.67-5.17-.17l-.25-224.2h138.06Z"/>
      <path class="cls-2" d="M175.95,110.83c.71,9.6-.27,19.97,0,29.73l-2.51,1.53c-.41,3.26-1.62,8.75,2.51,9.28.03,1.8-.03,3.6,0,5.41l-2.7,1.36v2.68l2.7,1.36c.08,6.29.03,12.64,0,18.92-1.69.29-4.01-.43-5.41,0-3.53,1.08-7.22,3.83-10.83,5.41l-2.7-10.81c.41-.47,4.24,1.87,5.4,2.7.2.14.02,2.8,1.33,2.68l1.4-1.29c3.17-2.4,1.94-4.86,2.68-6.8.09-.25,2.16-.36,2.47-1.72l-.98-3.68c-3.05-3.79-4.76-5.16-9.31-3.1l-.32-5.02h-2.69s-5.42,8.11-5.42,8.11c.87-4.8,2.26-8.43,2.7-13.51,2.76-4.74,4.16-9.4,6.84-13.44s12.72-9.14,8.05-13.58l-12.18,10.81v-8.11s2.7-10.81,2.7-10.81c.85-.22,1.87.23,2.71,0,3.4-.96,2.62.35,5.41-2.7,4.66-5.11,2.45-9.71,2.71-16.22.14-3.59-.1-7.22,0-10.81.02-.9-.02-1.8,0-2.7l2.32,1.67c-1.88,7.6,2.77,18.36,3.09,22.66ZM170.52,156.78v-16.21s-2.69,0-2.69,0l-2.2,12.25,4.89,3.96Z"/>
      <path class="cls-25" d="M29.77,54.06l-16.13-6.86c-7.59-4.57-6.71-21.35-5.59-29.69,1.47-10.9,18.78-8.25,21.31.47,3.38,11.67-3.63,24.9.4,36.08ZM21.65,18.91h-8.11v21.64h8.11v-21.64Z"/>
      <path class="cls-20" d="M178.73,227c-1.88-7,2.53-21.99,9.72-24.05,8.47-2.43,20.69,16.02,13.23,24.14-6.05,6.58-8.36-2.27-10.84-2.12-2.03.12-5.06,6.54-12.1,2.04Z"/>
      <path class="cls-11" d="M9.71,56.85c3.24-.79,6.17,1.91,8.38,1.9,3.92-.02,12.46-4.87,14.35,2.19,1.47,5.5-7.63,18.5-12.48,19.93-10.95,3.21-20.39-21.52-10.24-24.01Z"/>
      <path class="cls-21" d="M189.48,237.87c3.57,1.54,9.64-2.36,10.89,6.7.84,6.05,1.63,26.48-4.36,28.2-18.07,5.19-15.4-12.49-14.75-25.56.18-3.69,3.02-8.89,2.81-9.33h5.41ZM194.89,243.27h-8.11v24.35h8.11v-24.35Z"/>
      <path class="cls-23" d="M175.95,181.11c-.09,20.34,2.68,50.17.06,68.98-.82,5.88-3.08,6.17-8.18,6.7.3-1.68-.45-4.05,0-5.41.33-1,2.52-1.6,2.86-6.49,1.42-20.62-1.36-42.97-.15-63.79,1.4-.43,3.72.29,5.41,0Z"/>
      <path class="cls-23" d="M175.95,72.98h-5.41v-40.55c1.55-.13,2.94-.99,2.71-2.7l2.59,1.42c.24,13.92.12,27.92.12,41.83Z"/>
      <path class="cls-23" d="M94.74,256.79c-11.68-.1-23.52.37-35.19,0l1.67-2.32c9.66-.15,19.88-1.25,29.54-.42,1.99.17,4.38.39,3.98,2.74Z"/>
      <path class="cls-23" d="M175.95,81.09c0,9.88,0,19.85,0,29.73-.32-4.3-4.97-15.05-3.09-22.66l-2.32-1.67c.04-1.8-.02-3.6,0-5.41h5.41Z"/>
      <path class="cls-2" d="M175.95,72.98v8.11h-5.41c.01-.9,0-1.8,0-2.7s0-1.8,0-2.7v-2.7h5.41Z"/>
      <path class="cls-25" d="M189.48,237.87h-5.41c-.16-.35-4.17-1.9-5.41-4.06v-1.34c7.09-2.94,9.97,5.03,10.82,5.4Z"/>
      <path class="cls-23" d="M175.95,151.37c-4.14-.53-2.93-6.02-2.51-9.28l2.51-1.53c.1,3.6-.07,7.21,0,10.81Z"/>
      <path class="cls-23" d="M175.95,162.19l-2.7-1.36v-2.68l2.7-1.36c.03,1.8-.02,3.6,0,5.41Z"/>
      <path class="cls-5" d="M167.82,251.39c-12.6-.11-25.3.15-37.9,0v-2.7c.19-2.67-.29-5.46,0-8.11.66-6.09,1.67-12.88,2.71-18.92.26-1.52,2.09-3.85,2.59-6.76,2.09-12.29-2.73-14.54,10.95-22.97.91-.56,3.57-1.71,5.41-2.7,1.42-.77,5.4-1.52,8.12-2.7,3.61-1.57,7.3-4.33,10.83-5.41-1.21,20.82,1.58,43.16.15,63.79-.34,4.89-2.53,5.49-2.86,6.49ZM153.29,224.59c-4.85,1.42-13.95,14.42-12.47,19.91,6.21,10.2,12.59-.65,14.83-.66.87,0,11.48,11.25,12.35-1.93.43-6.55-6.6-19.7-14.71-17.32Z"/>
      <path class="cls-6" d="M110.98,202.73c1.1,3.64,6.51,3.8,8.12,5.41s1.76,7.01,5.41,8.11c.03.89-.12,1.83,0,2.7.52,3.78,2.34,7.12,2.71,10.81h-8.12c.3-2.18.43-9.89-.22-10.59l-13.31-2.92,1.32,5.38,6.79-2.68c-.22,10.48-1.29,28.52,13.54,18.92-.13.95.25,2.03,0,2.7-.95,2.57-6.39,7.31-5.41,8.1h8.12v2.71c-8.46-.1-16.98,0-25.46.14-2.08-.31-3.03-5.77-4.32-8.25,2.85,1.02,4.68-2.44,5.41-2.7,1.16-.42,3.55.72,5.17-.23.67-1.69.26-3.44.25-5.17s.05-3.61,0-5.41c-2.65.19-5.55-.34-8.13,0-3.37.44-5.18,1.41-8.11,2.72.78-4.32-.42-5.47-2.72-8.13-.67-4.15-3.07-7.69-2.62-11.94,1.35-5.09,12.49-3.27,13.44-9.68.9-.04,1.81.01,2.71,0,1.8-.03,3.62-.06,5.41,0ZM116.39,210.85h-13.52v2.68h13.52v-2.68Z"/>
      <path class="cls-5" d="M54.14,189.22c1.04,3.24,1.78,3.55,2.71,5.41,3.11,6.18,8.78,14.45,13.53,21.62h-2.71l-3.82.37-1.59,2.34c-1.2-.44-3.71.22-5.41,0-1.26,4.19,2.63,5.07,2.7,5.4.74,3.44-.06,9.43,0,13.52.05,3.6-.03,7.21,0,10.81v2.7c-6.3,0-12.65,0-18.95,0-5.04-10.77-2.6-27.65-2.71-40.55h2.71c-2.12,6.21,6.83,4.25,5.43,10.81,11.6-6.23,16.23-9.94,8.11-21.63-1.53-2.2-1.98-4.75-5.41-5.41-.3-1.68.44-4.05,0-5.41h5.41Z"/>
      <path class="cls-25" d="M70.38,216.25c7.65,11.53,15.94,22.78,24.36,33.79l-21.65,1.35v-2.7h10.82c2.53-2.94-6.09-10.51-8.11-13.52-2.46-3.66-3.8-5.04-2.71-10.82-5.23.62-8.92,4.14-13.53.01-.07-.33-3.96-1.21-2.7-5.4,1.7.22,4.21-.44,5.41,0,.44.16,1.27,4.15,5.38,2.67l.04-5.37h2.71Z"/>
      <path class="cls-10" d="M75.79,200.03c3.36,3.16,2.09,4.48,2.71,5.41,4.86,7.36,7.91,12.42,13.53,18.92.27,1.71-.33,3.79,0,5.41-7.9-7.18-14.16-15.76-19.58-25.17-1.51-2.61-1.34-5.91-2.07-7.27,1.49,1.11,4.27,1.63,5.41,2.7Z"/>
      <path class="cls-22" d="M73.09,243.28c-.38,1.52.25,3.68,0,5.41v2.7h-13.53v-2.7l2.39-1.7.32-6.41c2.6.48,6.18-.76,9.07.39l1.76,2.31Z"/>
      <path class="cls-26" d="M92.03,224.36c2.3,2.66,3.5,3.82,2.72,8.13,2.92-1.31,4.73-2.28,8.11-2.72v5.41s8.12,0,8.12,0c.01,1.74.42,3.48-.25,5.17-1.62.96-4.01-.19-5.17.23l-5.04-.51-.39-4.9-2.69,2.7c-4.92-1.42-4.61-4.11-5.41-8.11-.33-1.62.27-3.7,0-5.41Z"/>
      <path class="cls-26" d="M75.79,194.62c0,1.8,0,3.6,0,5.41-1.14-1.08-3.93-1.6-5.41-2.7-.58-1.07-6.06-1.3-5.41-8.11,5.94,1.2,7.94,4.76,10.83,5.41Z"/>
      <path class="cls-10" d="M56.84,183.81l5.41,2.7v2.7c-1.8.08-3.62-.1-5.42,0v5.41c-.93-1.85-1.67-2.17-2.7-5.41-.57-1.77-2.47-3.85-2.71-5.41.88,0,1.91.16,2.71,0,.97-.19,2.25.33,2.71,0Z"/>
      <path class="cls-5" d="M97.45,237.87l2.69-2.7.39,4.9,5.04.51c-.73.27-2.56,3.72-5.41,2.7-.62-1.19-3.46-2.51-2.71-5.41Z"/>
      <path class="cls-13" d="M67.67,159.48v27.03l-2.71,2.7c-.79-.16-1.87-.04-2.71,0v-2.7c2.61-1.17,2.52-2.95,2.71-5.41.6-8.12-3.6-15.4,0-24.33,1.38.26,2.25,2.53,2.71,2.7Z"/>
      <path class="cls-5" d="M81.21,32.44v2.7c-.57,1.78-2.41,3.8-2.71,5.41-2.96,16.06-4.23,32.8-8.12,48.66-4.47.57-5.12,2.62-5.41,2.7-3.43.96-4.31,2.27-5.41,2.7-5.63,2.2-6.38,1.17-13.53,5.41-2.72,1.62-4.61,3.39-8.12,2.7V32.43c14.4,0,28.89.04,43.3,0ZM51.15,35.52c-21.57-4-4.63,28.5,4.1,26.55,9.46-6.04,21.5-26.11,2.94-27l-1.36,5.45h-5.37l-.3-5Z"/>
      <path class="cls-6" d="M105.57,32.44c.83,2.69,4.4,12.18,5.41,13.52v2.7l-6.71-2.71c-3.77,2.76-4.69,4.77-4.12,9.46v1.35s10.83-2.7,10.83-2.7c1.88,4.61,7.78,10.13,10.83,13.52l-13.53,13.52-5.41,2.7c-1.79,0-3.63.1-5.41,0-3.24-4.93-5.98-5.59-8.12-8.11-1.96-2.3-2.14-5.3-2.71-8.11-.36-1.78.57-4.34-.39-6.37l-2.32-1.74c-.07-.93.18-1.92,0-2.7l10.83-2.72c.59-4.99.16-8-4.19-10.77l-6.64,2.68,2.71-10.8h-5.41v-2.71c8.1-.02,16.26.03,24.36,0ZM105.56,70.29h-13.52v2.68c5.3,1.8,8.22,1.8,13.52,0v-2.68Z"/>
      <path class="cls-5" d="M170.53,32.44v43.25h-2.71c1.01-5.22-2.33-6.03-5.41-8.11-.35-.24-.31-2.36-1.25-2.24-6.33.78-8.54,6.42-9.02,12.41-.25,3.06,2.09,3.16,2.15,3.35.99,3.49-2.36,6.61,5.41,5.41-.03,2.7.02,5.41,0,8.11-1.65.26-3.63-.12-5.41,0-3.8-9.67-10.46-18.13-16.24-27.03h2.71c3.57-.33,10.09-1.95,10.83-5.41,1.25-5.88-2.52-10.54-2.53-14.88-.01-3.7,3.45-7.86,2.53-12.15v-2.7c6.2-.05,12.91.5,18.95,0Z"/>
      <path class="cls-2" d="M113.69,32.44c8.07,11.67,16.64,23.24,24.36,35.14,5.78,8.9,12.45,17.36,16.24,27.03-1.79.12-3.62-.08-5.41,0s-3.63-.13-5.41,0c-6.22-13.01-14.77-28.35-23.1-40.44-2.72-3.94-8-6.39-9.38-8.22-1.01-1.33-4.58-10.83-5.41-13.52,2.71-.01,5.41,0,8.12,0Z"/>
      <path class="cls-25" d="M132.64,32.44l-2.64,4.13-5.49-.07c0,4.66,5.53,8.31,8.13,12.15,2.12,3.14.25,7.78,8.12,10.81v8.11h-2.71c-7.72-11.9-16.29-23.47-24.36-35.14,6.3,0,12.65.02,18.95,0Z"/>
      <path class="cls-18" d="M51.43,164.89c-.81.26-1.86-.24-2.71,0-3.97,1.14-3.27,1.45-5.41,2.7-1.74,1.02-3.6,1.84-5.41,2.7.07-3.6-.1-7.21,0-10.81l2.25-1.63c.65-1.18.03-2.75.45-3.78,7.4,2.14,4.78-6.63,10.82-8.11.05,6.29-.03,12.63.01,18.92Z"/>
      <path class="cls-18" d="M54.14,132.45c.12.89-.14,1.83,0,2.7l-2.71,5.41c-5.78,2.37-8.56,8.06-10.83,13.52h-2.71c.15-2.3-.56-6.95,0-8.11.23-.48,3.1-.83,4.03-2.56.99-1.85-1.71-6.95,1.31-11.95,1.09-1.8,6.95-3.29,8.2-7.12,1.56,3.45,1.98,2.49,2.71,8.11Z"/>
      <path class="cls-22" d="M151.58,32.44v2.7l-6.95,10.73-9.29-2.62c.62-3.15-.42-7.4,0-10.81,5.4-.02,10.84.05,16.24,0Z"/>
      <path class="cls-26" d="M46.02,183.81c-.05.16-3.17.25-2.49,2.34,1.78.58,4.55,1.07,5.2,3.07.44,1.36-.3,3.73,0,5.41v2.7c-.72-.1-2.03-.18-2.71,0v-8.11s-8.12,5.41-8.12,5.41c0-3.6-.03-7.21,0-10.81l5.41-5.41h2.71c-.4,1.58.43,3.92,0,5.41Z"/>
      <path class="cls-16" d="M135.34,43.25c-.07.34-3.76,2.81-2.71,5.41-2.6-3.84-8.14-7.49-8.13-12.15l5.49.07,2.64-4.13c.9,0,1.8,0,2.71,0-.42,3.41.62,7.66,0,10.81Z"/>
      <path class="cls-2" d="M48.72,118.94c1.96,6.21-6.02,8.11-8.12,10.81l-2.71-8.11c-.03-1.6-.37-4.39,0-5.41l10.83,2.7Z"/>
      <path class="cls-6" d="M46.02,197.33c-3.66.98-6.6,4.61-5.41,8.11h-2.71c-.02-3.6,0-7.21,0-10.81l8.11-5.41v8.11Z"/>
      <path class="cls-6" d="M43.31,178.4l-5.41,5.41c.04-4.5-.08-9.02,0-13.52,1.82-.87,3.67-1.69,5.41-2.7v10.81Z"/>
      <path class="cls-13" d="M51.43,124.34c-1.25,3.82-7.11,5.32-8.2,7.12-3.02,5-.32,10.1-1.31,11.95-.93,1.73-3.79,2.07-4.03,2.56-.18-5.27-.65-11.9,2.71-16.22,2.1-2.7,10.08-4.6,8.12-10.81,2.96,3.11,1.75,3.28,2.71,5.41Z"/>
      <path class="cls-8" d="M48.72,105.42c-.14,5.57-3.35,6.4-5.42,10.79,2.63-.44,3.82,1.04,5.42,2.72l-10.83-2.7c.92-2.52,9.16-3.73,5.42-13.52l5.4,2.7Z"/>
      <path class="cls-8" d="M40.6,210.84h-2.71c-.02-1.8.01-3.6,0-5.41h2.71c.17.5,3.26,1.69,2.63,3.77-.7,2.31-2.58,1.49-2.63,1.63Z"/>
      <path class="cls-8" d="M40.6,129.75c-4.03,0-2.64-4.58-2.71-8.11l2.71,8.11Z"/>
      <path class="cls-13" d="M54.14,140.56c.34,3.13-.85,6.18,2.71,8.11v5.41l-5.41,10.81c-.04-6.29.04-12.63-.01-18.92-6.04,1.48-3.41,10.25-10.82,8.11,2.27-5.45,5.04-11.14,10.83-13.52h2.71Z"/>
      <path class="cls-13" d="M37.9,159.48c.05-1.8-.11-3.62,0-5.41h2.71c-.43,1.03.2,2.61-.45,3.78l-2.25,1.63Z"/>
      <path class="cls-13" d="M154.29,154.08c-.45,5.08-1.83,8.71-2.7,13.51l5.42-8.1h2.69s.32,5.01.32,5.01c4.54-2.06,6.25-.68,9.31,3.1l.98,3.68c-.31,1.35-2.38,1.47-2.47,1.72h-5.42s0,5.41,0,5.41c-1.16-.84-5-3.17-5.4-2.7l2.7,10.81c-2.72,1.19-6.7,1.93-8.12,2.7l2.7-6.74-3.88,1.47-1.54-5.55-8.11,5.4,2.45-7.84-5.31-1.86c.28-3-.23-6.3.15-9.22,10.5,7.12,10.32-3.16,13.53-8.11.96-1.47,2.47-2.3,2.71-2.7Z"/>
      <path class="cls-8" d="M154.29,154.08c.08-.89-.04-1.81,0-2.7.12-2.69-.05-5.41,0-8.11.03-1.8.03-3.61,0-5.41-.04-2.7.14-5.42,0-8.11.88.12,1.81-.09,2.71,0v8.11s12.19-10.81,12.19-10.81c4.67,4.45-5.25,9.38-8.05,13.58s-4.08,8.71-6.84,13.44Z"/>
      <path class="cls-27" d="M159.7,118.94l-2.71,10.81c-.89-.09-1.82.12-2.71,0-.09-1.8.1-3.62,0-5.41-.46.04-.91.06-1.35,0-7.43-1.03-6.78-.48-6.76,5.41,0,.88-.16,1.91,0,2.7-1.43-.39-1.91-1.97-2.71-2.7-3.27-3.01-3.11-2.85-8.12-2.7-.04-.9.05-1.81,0-2.7h2.71c2.68,1.07,4.98-2.6,5.41-2.7,1.61-.36,3.81.37,5.41,0,3.22-.74,5.81-2.15,8.12-2.7.85-.2,1.86.22,2.71,0Z"/>
      <path class="cls-27" d="M170.53,89.2c-.1,3.6.14,7.22,0,10.81h-2.71c-3.54-.28-7.34.41-10.83,0-.26-1.52-2.02-3.65-2.71-5.41,1.78-.12,3.76.26,5.41,0,.96-.15,2.08.28,2.71,0,2.94-1.3,2.34-7.44,8.12-5.41Z"/>
      <path class="cls-6" d="M167.82,116.23c-4.79-1.7-3.96-7.76-5.41-10.81,1.79-1.52,4.99-1.87,5.41-5.41h2.71c-.26,6.51,1.96,11.11-2.71,16.22Z"/>
      <path class="cls-14" d="M167.82,116.23c-2.79,3.05-2.01,1.75-5.41,2.7-2.96-5.12-4.97-9.27,0-13.52,1.46,3.05.62,9.11,5.41,10.81Z"/>
      <path class="cls-24" d="M162.41,105.42c-4.97,4.24-2.96,8.4,0,13.52-.83.23-1.86-.22-2.71,0s-1.85-.2-2.71,0v-5.41c0-3.5.38-7.48,0-10.81l3.82.25c1.26.41,1.15,1.53,1.59,2.46Z"/>
      <polygon class="cls-27" points="170.52 156.78 165.63 152.82 167.84 140.57 170.52 140.57 170.52 156.78"/>
      <path class="cls-8" d="M167.82,173c-.74,1.94.49,4.4-2.68,6.8l-1.4,1.29c-1.31.11-1.13-2.54-1.33-2.68v-5.41s5.41,0,5.41,0Z"/>
      <path class="cls-24" d="M170.53,81.09c-.02,1.8.04,3.61,0,5.41-.02.9.02,1.8,0,2.7-5.78-2.04-5.18,4.11-8.12,5.41-.2-3.16,1.42-5.47,2.71-8.11.88-1.81,1.8-3.47,2.71-5.41.62-1.32.92-2.6,2.71-2.7,0,.9.01,1.8,0,2.7Z"/>
      <rect class="cls-5" x="13.54" y="18.91" width="8.11" height="21.64"/>
      <path class="cls-27" d="M170.53,75.69c0,.9,0,1.8,0,2.7-1.78.11-2.09,1.38-2.71,2.7l-2.62-1.64c-.56-2.13,2.53-3.33,2.62-3.77h2.71Z"/>
      <path class="cls-18" d="M127.22,156.78c1.71.23,4.53-.47,5.41,0,.53.28,2.21,5.4,5.41,5.41-.16.87.12,1.82,0,2.7-.38,2.92.13,6.21-.15,9.22l5.31,1.86-2.45,7.84,8.11-5.4,1.54,5.55,3.88-1.47-2.7,6.74c-1.84,1-4.5,2.14-5.41,2.7h-2.71l-1.79-2.2c-7.34-.99-15.23-2.99-22.58-3.21v-2.7l-1.55-2.48c-1.25-.54-2.62-.05-3.87-.22.53-3.17-1.99-8.19-5.41-8.11v-18.92c2.87-.49,14.12,2.06,18.95,2.7ZM121.81,159.48c-2.66-.25-5.45.14-8.12,0l2.71,16.22,8.12-2.71h2.71c.54,2.14,2.91,5.34,5.4,5.41l-.2-16c-3.6-.78-6.88-2.57-10.61-2.92Z"/>
      <path class="cls-11" d="M153.29,224.59c8.11-2.38,15.14,10.78,14.71,17.32-.87,13.17-11.47,1.92-12.35,1.93-2.25.01-8.62,10.86-14.83.66-1.48-5.5,7.62-18.49,12.47-19.91Z"/>
      <path class="cls-17" d="M129.93,218.95c.14,1.55.99,2.93,2.71,2.7-1.04,6.04-2.05,12.83-2.71,18.92h-2.71c.25-.67-.13-1.75,0-2.7.11-.86,0-1.83,0-2.7-.02-1.78.17-3.65,0-5.41-.37-3.69-2.19-7.03-2.71-10.81l2.32-1.75.39-9.06v-2.7h2.71c.26,4.46-.39,9.08,0,13.52Z"/>
      <path class="cls-4" d="M146.17,191.92c-13.68,8.44-8.86,10.69-10.95,22.97-.49,2.91-2.33,5.24-2.59,6.76-1.72.23-2.57-1.15-2.71-2.7l2.32-1.65c1.78-6.96.64-9.6-2.32-14.57-1.55-2.61-1.85-4.44-5.41-5.41-1.42-.39-3.66.2-5.41,0l1.62-2.35,3.8-.36c7.78,2.02,12.23,1.97,18.95-2.7h2.71Z"/>
      <path class="cls-4" d="M129.93,248.68h-8.12c-.97-.79,4.46-5.54,5.41-8.11h2.71c-.29,2.65.19,5.44,0,8.11Z"/>
      <path class="cls-28" d="M102.86,202.73c-.95,6.42-12.09,4.6-13.44,9.68-.45,4.25,1.95,7.79,2.62,11.94-5.63-6.5-8.67-11.56-13.53-18.92,1.77-.15,3.68.23,5.41,0,6.69-.89,11.32-2.32,18.95-2.7Z"/>
      <path class="cls-8" d="M105.57,200.03v2.7c-.9.01-1.81-.04-2.71,0-7.63.38-12.25,1.82-18.95,2.7l-2.71-5.4c8.07.02,18.31-6.9,24.36-.01Z"/>
      <path class="cls-27" d="M110.98,197.33l1.63,2.37c3.39.76,6.9.76,10.28,0l1.63-2.37c3.57.97,3.86,2.8,5.41,5.41v2.7h-2.71c-4.92-3.57-10.62-2.52-16.24-2.7-1.8-.06-3.62-.03-5.41,0v-2.7l2.94-5.31c2.12-.58,2.11,2.45,2.48,2.61Z"/>
      <path class="cls-26" d="M127.22,237.87c-14.83,9.6-13.76-8.44-13.54-18.92l-6.79,2.68-1.32-5.38,13.31,2.92c.65.7.52,8.41.22,10.59-.26,1.86-3.71,4.55-2.71,5.4h10.83c0,.89.11,1.86,0,2.71Z"/>
      <path class="cls-26" d="M127.22,205.43v2.7h-8.12c-1.61-1.61-7.02-1.76-8.12-5.41,5.62.18,11.32-.87,16.24,2.7Z"/>
      <path class="cls-14" d="M127.22,229.76c.17,1.76-.02,3.63,0,5.41h-10.83c-1.01-.85,2.45-3.55,2.71-5.41h8.12Z"/>
      <path class="cls-14" d="M102.86,229.76c2.58-.34,5.48.19,8.13,0,.04,1.8-.02,3.61,0,5.41h-8.13s.01-5.41.01-5.41Z"/>
      <rect class="cls-28" x="102.87" y="210.85" width="13.52" height="2.68"/>
      <path class="cls-13" d="M124.52,218.95c-.12-.87.03-1.81,0-2.7-.1-2.7.07-5.41,0-8.11h2.71l-.39,9.06-2.32,1.75Z"/>
      <path class="cls-3" d="M124.52,208.14c.07,2.7-.1,5.41,0,8.11-3.65-1.09-3.8-6.5-5.41-8.11h5.41Z"/>
      <path class="cls-4" d="M48.72,197.33c1.61.22,3.69,2.07,5.41,2.7,8.12,11.69,3.5,15.4-8.11,21.63,1.4-6.57-7.55-4.61-5.43-10.81.05-.15,1.93.67,2.63-1.63.63-2.08-2.46-3.27-2.63-3.77-1.19-3.5,1.75-7.13,5.41-8.11.68-.18,1.98-.1,2.71,0Z"/>
      <path class="cls-13" d="M59.55,224.36c4.61,4.13,8.3.61,13.53-.01-1.08,5.78.26,7.17,2.71,10.82,1.92,3.97-2.48,7.19-2.71,8.11l-1.76-2.31c-2.89-1.15-6.47.09-9.07-.39-.19-.03-.29-3.22-2.71-2.7-.06-4.09.74-10.07,0-13.52Z"/>
      <path class="cls-17" d="M67.67,216.25l-.04,5.37c-4.11,1.48-4.94-2.51-5.38-2.67l1.59-2.34,3.82-.37Z"/>
      <path class="cls-4" d="M62.26,240.57l-.32,6.41-2.39,1.7c-.03-3.6.05-7.21,0-10.81,2.41-.52,2.52,2.67,2.71,2.7Z"/>
      <path class="cls-16" d="M75.79,235.17c2.02,3.01,10.64,10.58,8.11,13.52h-10.82c.25-1.72-.38-3.89,0-5.41.23-.92,4.62-4.14,2.71-8.11Z"/>
      <path class="cls-4" d="M119.1,183.81v2.7c-3.59-.11-7.23.06-10.82,0v5.4s5.41,0,5.41,0v5.41c-.96-.1-2.09.26-2.71,0-.37-.15-.36-3.18-2.48-2.61l-2.94,5.31c-6.05-6.89-16.29.03-24.36.01l2.71,5.4c-1.74.23-3.64-.15-5.41,0-.61-.93.65-2.24-2.71-5.41,0-1.8,0-3.6,0-5.41,6.08,1.35,12.99-1.03,18.73-3l.22-5.11v-2.7c7.87.69,16.39-.48,24.36,0Z"/>
      <path class="cls-17" d="M89.33,181.11l1.38,2.69c1.34.18,2.71-.11,4.03,0v2.7c-6.58-.81-12.67.65-18.73,3-.66,1.67-.21,3.39-.22,5.11-2.89-.64-4.88-4.21-10.83-5.41l2.71-2.7c6.15,1.86,12.85-4.55,16.24-5.41,1.49-.38,3.67.24,5.41,0Z"/>
      <path class="cls-15" d="M62.26,154.08c.89,0,1.84.1,2.71,0v2.7c-3.6,8.92.6,16.21,0,24.33l-4.06-2.57c-2.1.1-3.73,5.03-4.06,5.27-.46.33-1.73-.19-2.71,0l-2.71-2.7c-.49-5.1.04-10.94,0-16.22l5.41-10.81c1.8.01,3.61-.02,5.41,0Z"/>
      <path class="cls-16" d="M64.96,181.11c-.18,2.46-.1,4.24-2.71,5.41l-5.41-2.7c.33-.24,1.96-5.17,4.06-5.27l4.06,2.57Z"/>
      <path class="cls-27" d="M51.43,183.81c.24,1.55,2.14,3.64,2.71,5.41h-5.41c-.65-1.99-3.42-2.49-5.2-3.07-.68-2.09,2.44-2.18,2.49-2.34h5.41Z"/>
      <path class="cls-16" d="M54.14,183.81c-.79.16-1.82,0-2.71,0-.13-.87.09-1.81,0-2.7l2.71,2.7Z"/>
      <path class="cls-6" d="M54.14,200.03c-1.73-.63-3.81-2.49-5.41-2.7v-2.7c3.43.65,3.88,3.21,5.41,5.41Z"/>
      <path class="cls-2" d="M64.96,91.9l1.75,2.33c1.91,1.07,5.11-.14,6.37.38,6.68,2.76,18.4,7.15,24.36,10.81l2.71,24.33c-5.1-1.15-13.62-5.82-16.24,0-2.78-1.04-4.51-3.74-7.1-5.1l-6.43,2.4c.51-1.52.04-5.84,0-8.11-.11-6.99-1.89-7.51-2.71-10.81-.55-2.23.37-5.55-.01-8.1h-2.68s-1.66,5.54-1.66,5.54c-1.38.45-2.98-.48-3.76-.14v-2.7c-2.26-2.81-2.22-5.28,0-8.11,1.1-.43,1.98-1.75,5.41-2.7ZM81.21,113.53c-.24-5.44,1.47-6.12-5.41-5.4l.2,13.3c4.05,1.11,7.55,2.62,11.88,3.02,14.76,1.4,9.27-3.12,6.86-13.62-4.65-2.02-7,2.34-8.12,2.71-1.35.45-3.73-.3-5.41,0Z"/>
      <path class="cls-11" d="M51.15,35.52l.3,5h5.37l1.36-5.45c18.57.89,6.53,20.96-2.94,27-8.73,1.95-25.67-30.55-4.1-26.55Z"/>
      <path class="cls-8" d="M97.45,83.8c1.09,1.66,1.73,3.67,2.71,5.41-5.4.07-10.85-.2-16.24,0-5.05-2.71-4.97-3.28-5.41-8.11h2.71c4.88,3.64,10.69,2.41,16.24,2.7Z"/>
      <path class="cls-8" d="M135.34,89.2l-2.71,5.41c-.45.04-1.98,3.17-8.12,2.7-9.94-.75-14.54,3.73-25.8,2.79-8.91-.74-16.32-6.73-25.63-5.49-1.25-.52-4.45.69-6.37-.38l-1.75-2.33c.29-.08.95-2.14,5.41-2.7,4.16-.53,9.13.16,13.53,0,5.69,3.06,5.31,1.83,10.83,2.7v5.41s1.35,0,1.35,0l1.34-.02v-5.4c2.05.18,4.24,2.72,7.86.29l.28,5.12h2.69s.25-5.02.25-5.02l13.3-3.09c.9-.04,1.82.09,2.71,0,3.01-.32,5.61-.97,8.12-2.7.94,1.06,2.06,1.93,2.71,2.7Z"/>
      <path class="cls-4" d="M59.55,94.61c-2.22,2.82-2.26,5.3,0,8.11h-5.41c-.75,10.03,2.51,3.95,5.41,2.7.78-.34,2.38.59,3.76.14l1.66-5.55h2.68c.38,2.56-.54,5.88.01,8.11.24,1.99-1.68,7.64-2.71,8.11-2.31,1.06-6.91-2.66-5.41,5.41-2.37,2.61-3.74,3.24-2.71,8.11v2.7h-2.71c-.73-5.62-1.15-4.65-2.71-8.11-.96-2.12.25-2.3-2.71-5.41-1.6-1.68-2.78-3.16-5.42-2.72,2.07-4.39,5.28-5.23,5.42-10.79.03-1.29.14-2.55-.31-3.8l-2.39-1.61c7.15-4.24,7.9-3.2,13.53-5.41Z"/>
      <path class="cls-9" d="M100.15,89.2c7.18-.1,14.5.35,21.65,0l-13.3,3.09-.25,5.02h-2.69s-.28-5.11-.28-5.11c-3.62,2.43-5.81-.11-7.85-.29-.89-.08-1.84.14-2.71,0-5.51-.88-5.14.36-10.83-2.7,5.39-.2,10.85.07,16.24,0Z"/>
      <path class="cls-9" d="M81.21,45.95c.71,5.89,1.97,7.57,2.71,10.81.18.78-.07,1.78,0,2.7.14,1.78-.09,3.62,0,5.41l-5.54,1.58c.39,4.82-.31,9.88.12,14.64.44,4.82.37,5.39,5.41,8.11-4.4.16-9.37-.53-13.53,0,3.89-15.85,5.16-32.6,8.12-48.66l2.33,1.6c.51,1.23.23,2.55.38,3.8Z"/>
      <path class="cls-23" d="M81.21,35.14h5.41s-2.71,10.81-2.71,10.81h-2.71c-.15-1.26.13-2.58-.38-3.8l-2.33-1.6c.3-1.6,2.14-3.63,2.71-5.41Z"/>
      <path class="cls-28" d="M121.81,67.58c5.54,6.14,9,4.63,8.12,13.52-3.43.41-7.64-.6-10.83,0l-3.82.37-1.59,2.34c-1.77.18-3.63-.11-5.41,0v-2.7l13.53-13.52Z"/>
      <path class="cls-13" d="M129.93,81.09c-.09.96.25,2.07,0,2.7-.73,1.87-4.27,3.33-5.41,5.41-.89.09-1.81-.04-2.71,0-7.16.35-14.48-.1-21.65,0-.98-1.74-1.62-3.74-2.71-5.41,1.79.1,3.62,0,5.41,0s3.63.11,5.41,0,3.64.18,5.41,0c4.05-.42,5.12-2.65,5.41-2.7,3.19-.6,7.4.41,10.83,0Z"/>
      <path class="cls-10" d="M143.46,94.61c-.9.06-1.81-.05-2.71,0s-1.81-.06-2.71,0l-.4-3.61c-.4-1.14-1.81-1.2-2.31-1.79-.64-.77-1.77-1.64-2.71-2.7-.78-.88-1.14-2.38-2.71-2.7.25-.64-.09-1.75,0-2.7.88-8.88-2.58-7.37-8.12-13.52-3.05-3.38-8.95-8.91-10.83-13.52-.49-1.2.33-3.76,0-5.41v-2.7c1.38,1.82,6.66,4.27,9.38,8.22,8.33,12.09,16.89,27.43,23.1,40.44Z"/>
      <path class="cls-28" d="M83.91,45.95l6.64-2.68c4.35,2.77,4.78,5.79,4.19,10.77l-10.83,2.72c-.74-3.24-1.99-4.93-2.71-10.81h2.71Z"/>
      <path class="cls-15" d="M89.33,75.69c2.14,2.51,4.88,3.18,8.12,8.11-5.55-.3-11.36.94-16.24-2.7v-8.11s8.12,2.7,8.12,2.7Z"/>
      <path class="cls-17" d="M83.91,64.87l2.71,2.7c.57,2.81.75,5.81,2.71,8.11l-8.11-2.7v8.11h-2.72c-.44-4.76.27-9.82-.12-14.64l5.54-1.58Z"/>
      <path class="cls-28" d="M110.98,48.66c.33,1.64-.49,4.2,0,5.41l-10.82,2.7v-1.35c-.58-4.69.34-6.7,4.11-9.46l6.71,2.71Z"/>
      <path class="cls-28" d="M105.56,70.29v2.68c-5.3,1.8-8.22,1.8-13.52,0v-2.68s13.52,0,13.52,0Z"/>
      <path class="cls-15" d="M86.62,67.58l-2.71-2.7c-.09-1.79.14-3.63,0-5.41l2.32,1.74c.96,2.03.03,4.59.39,6.37Z"/>
      <path class="cls-15" d="M108.27,81.09v2.7c-1.79.11-3.62,0-5.41,0l5.41-2.7Z"/>
      <path class="cls-27" d="M151.58,62.17c-2.97-3.07-8.4-1.77-10.83-2.7-7.87-3.03-6-7.68-8.12-10.81-1.05-2.6,2.64-5.06,2.71-5.41l9.29,2.62,6.95-10.73c.92,4.29-2.54,8.45-2.53,12.15.01,4.34,3.78,9,2.53,14.88Z"/>
      <path class="cls-27" d="M162.41,67.58c.55,4.8-2.15,8.95-2.71,13.52-1.78-.15-3.62.1-5.41,0-.05-.19-2.4-.29-2.15-3.35.48-5.99,2.69-11.63,9.02-12.41.94-.11.89,2.01,1.25,2.24Z"/>
      <path class="cls-16" d="M151.58,62.17c-.74,3.46-7.26,5.07-10.83,5.41v-8.11c2.42.93,7.85-.37,10.83,2.7Z"/>
      <path class="cls-18" d="M167.82,75.69c-.08.44-3.18,1.64-2.62,3.77l2.62,1.64c-.91,1.93-1.83,3.6-2.71,5.41v-5.41c-1.79-.14-3.63.15-5.41,0,.56-4.57,3.26-8.72,2.71-13.52,3.08,2.08,6.43,2.89,5.41,8.11Z"/>
      <path class="cls-22" d="M159.7,81.09c1.78.15,3.63-.15,5.42,0v5.41c-1.29,2.64-2.91,4.95-2.71,8.11-.62.28-1.75-.15-2.71,0,.02-2.7-.03-5.41,0-8.11.02-1.77-.21-3.69,0-5.41Z"/>
      <path class="cls-3" d="M159.7,81.09c-.21,1.71.02,3.64,0,5.41-7.77,1.2-4.43-1.92-5.41-5.41,1.79.1,3.63-.15,5.41,0Z"/>
      <path class="cls-10" d="M154.29,94.61c.69,1.75,2.45,3.89,2.71,5.41-.89-.1-1.81.09-2.71,0-1.47-.15-3.71-2.35-5.41-2.7v-2.7c1.8-.08,3.62.12,5.41,0Z"/>
      <path class="cls-4" d="M148.88,94.61v2.7c-.8-.16-1.87-.03-2.71,0-.93.03-2.07-.22-2.71,0v-2.7c1.79-.13,3.62.08,5.41,0Z"/>
      <path class="cls-15" d="M70.38,118.94c.04,2.27.51,6.59,0,8.11-2.05,6.09-5.84,14.5-8.12,21.62v-5.4c-5.7-.71-6.11-.28-5.41,5.4-3.56-1.93-2.37-4.98-2.71-8.11-.19-1.76.26-3.72,0-5.41-.14-.88.12-1.82,0-2.7h10.82s0-5.4,0-5.4l-8.12,2.7c-1.04-4.87.34-5.49,2.71-8.11,1.18-1.31,5.18-1.87,5.41-5.41l5.41,2.7Z"/>
      <path class="cls-4" d="M54.14,140.56h-2.71l2.71-5.41c.26,1.69-.19,3.65,0,5.41Z"/>
      <path class="cls-14" d="M48.72,164.89c2.29,6-1.97,10.62-2.71,13.52h-2.71v-10.81c2.14-1.25,1.44-1.56,5.41-2.7Z"/>
      <path class="cls-6" d="M51.43,181.11c.09.89-.13,1.83,0,2.7h-5.41c.43-1.49-.4-3.83,0-5.41.73-2.89,5-7.52,2.71-13.52.84-.24,1.9.26,2.71,0,.04,5.28-.49,11.12,0,16.22Z"/>
      <path class="cls-15" d="M151.58,156.78c-3.22,4.95-3.04,15.23-13.53,8.11.12-.89-.16-1.84,0-2.7.1-.58,4.68-4.3,2.71-8.11.82.27,1.89-.26,2.71,0,2.52.81,4.96,2.98,8.12,2.7Z"/>
      <path class="cls-10" d="M154.29,143.26c-.05,2.7.12,5.42,0,8.11-1.76.17-3.7-.25-5.41,0l-1.6-2.33c-1.23-.54-2.56-.2-3.82-.37-.06-1.8.09-3.61,0-5.41,1.49-.35,1.89-1.74,2.71-2.7l8.12,2.7Z"/>
      <path class="cls-16" d="M154.29,129.75c.14,2.69-.04,5.41,0,8.11-1.64.34-4.24-.5-5.41,0-.64-1.77-2.38-3.74-2.71-5.41-.16-.8,0-1.82,0-2.7,2.64.24,5.56-.36,8.12,0Z"/>
      <path class="cls-25" d="M148.88,151.37c1.71-.25,3.65.17,5.41,0-.04.9.08,1.81,0,2.7-.23.4-1.75,1.23-2.71,2.7-3.16.27-5.61-1.89-8.12-2.7l1.6-2.32c1.22-.55,2.57-.2,3.81-.38Z"/>
      <path class="cls-15" d="M154.29,137.86c.03,1.8.03,3.61,0,5.41l-8.12-2.7c.85-1.01.49-1.76,2.71-2.7,1.17-.5,3.78.34,5.41,0Z"/>
      <path class="cls-8" d="M143.46,129.75c.8.74,1.27,2.31,2.71,2.7.33,1.67,2.07,3.63,2.71,5.41-2.21.94-1.85,1.69-2.71,2.7s-1.21,2.35-2.71,2.7c-.12-2.23.15-4.49,0-6.74l-2.7-1.37c-4.65-.1-6.06,6.81-5.41,10.81.44,2.71.72,2.06,2.71,2.7.74.24,1.78-.16,2.71,0,.88.15,1.82-.12,2.71,0,1.25.17,2.59-.16,3.82.37l1.6,2.33c-1.25.18-2.59-.17-3.81.38l-1.6,2.32c-.82-.26-1.89.27-2.71,0-2.52-.82-4.96-2.97-8.12-2.7-.51-1.95-2.66-3.87-2.74-6.83-.14-5.44,4.57-9.87.03-14.79,1.43-.81,2.52-2.65,2.71-2.7.67-.21,1.78.03,2.71,0l1.53,2.54,6.6.16Z"/>
      <path class="cls-15" d="M157,113.53v5.41c-2.31.55-4.9,1.96-8.12,2.7l2.54-5.22c-7.05,1.06-3.86-5.16-7.95-8.3v-2.7c.63.2,1.83.04,2.71,0,3.06-.13,5.6-1.03,8.12-2.7l.39,9.06,2.32,1.75Z"/>
      <path class="cls-9" d="M143.46,110.83v10.81c-.44.1-2.74,3.78-5.41,2.7l-.38-11.81-2.32-1.7v-2.7c1.59-.25,3.66-2.11,5.41-2.7.18,1.25-.17,2.59.38,3.81l2.33,1.59Z"/>
      <path class="cls-8" d="M143.46,108.12c4.09,3.14.9,9.35,7.95,8.3l-2.54,5.22c-1.6.37-3.81-.36-5.41,0v-13.52Z"/>
      <path class="cls-19" d="M135.34,110.83c.17,4.49-.25,9.04,0,13.52.05.9-.04,1.8,0,2.7-.93.03-2.04-.21-2.71,0v-18.92c.56.2,2.03.11,2.71,0v2.7Z"/>
      <path class="cls-6" d="M146.17,129.75c-.02-5.89-.67-6.44,6.76-5.41.44.06.9.04,1.35,0,.1,1.79-.09,3.61,0,5.41-2.57-.36-5.48.24-8.12,0Z"/>
      <path class="cls-10" d="M138.05,124.34h-2.71c-.25-4.47.17-9.03,0-13.52l2.32,1.7.38,11.81Z"/>
      <path class="cls-16" d="M143.46,129.75l-6.6-.16-1.53-2.54c5.01-.15,4.85-.31,8.12,2.7Z"/>
      <path class="cls-28" d="M167.82,100.01c-.42,3.53-3.63,3.88-5.41,5.41-.44-.93-.34-2.05-1.59-2.46l-3.82-.25c-.1-.89.15-1.83,0-2.7,3.49.41,7.29-.28,10.83,0Z"/>
      <path class="cls-4" d="M157,102.72c.38,3.33,0,7.31,0,10.81l-2.32-1.75-.39-9.06v-2.7c.89.09,1.82-.1,2.71,0,.15.87-.1,1.82,0,2.7Z"/>
      <path class="cls-8" d="M119.1,186.51c7.35.22,15.24,2.21,22.58,3.21l1.79,2.2c-6.72,4.67-11.17,4.72-18.95,2.7-.65-.17-5.78-5.09-10.83-2.7h-5.41s0-5.4,0-5.4c3.59.06,7.23-.11,10.82,0Z"/>
      <path class="cls-17" d="M132.64,151.37c.39,1.49-.26,3.69,0,5.41-.89-.47-3.71.23-5.41,0v-5.41c-6.42,5.48-9.55.2-10.83,0,3.31,1.54,14.49-3.38,0-8.11-1.42-.46-2.6-.98-2.71-2.7,3.55.34,7.25-.23,10.83,0,.31,1.61-.2,3.64.01,5.4h2.69c2.52-4.99-2.62-10.22-2.7-10.8-.11-.88.08-1.81,0-2.7,1.8-.91,3.66-1.71,5.41-2.7,4.54,4.92-.17,9.35-.03,14.79.07,2.96,2.22,4.88,2.74,6.83Z"/>
      <path class="cls-16" d="M121.81,159.48c.13,1.78-.19,3.64,0,5.41.32,3.01.97,5.6,2.71,8.11l-8.12,2.71-2.71-16.22c2.67.14,5.46-.26,8.12,0Z"/>
      <path class="cls-10" d="M105.57,170.29h2.71v2.7l-2.7,1.37v6.74c-1.81-.06-3.62,0-5.42,0v-29.73c.86-.15,1.82.06,2.71,0,.89,5.84-2.68,15.54,2.71,18.92Z"/>
      <path class="cls-11" d="M121.81,159.48c3.73.36,7.01,2.14,10.61,2.92l.2,16c-2.49-.06-4.86-3.26-5.4-5.41s.4-5.58,0-8.12h-5.42c-.19-1.75.13-3.61,0-5.39Z"/>
      <path class="cls-16" d="M94.74,181.11c.9-.07,1.81.05,2.71,0s1.81,0,2.71,0c1.8,0,3.61-.06,5.41,0,.9.03,1.81-.05,2.71,0,1.78.09,3.71-.23,5.41,0,1.25.17,2.61-.32,3.87.22l1.55,2.48c-7.98-.48-16.49.69-24.36,0-1.32-.12-2.69.17-4.03,0l-1.38-2.69c1.71-.24,3.64.13,5.41,0Z"/>
      <path class="cls-4" d="M140.76,154.08c1.98,3.81-2.6,7.53-2.71,8.11-3.21,0-4.88-5.13-5.41-5.41-.26-1.71.39-3.92,0-5.41,3.16-.27,5.6,1.88,8.12,2.7Z"/>
      <path class="cls-8" d="M108.27,170.29h-2.71l.08-14.8c.48-1.77,1.5-1.23,2.62-1.42v16.22Z"/>
      <path class="cls-13" d="M116.39,151.37c1.28.2,4.41,5.48,10.82,0v5.41c-4.82-.64-16.07-3.19-18.94-2.7v-2.7c2.63.26,5.62-.39,8.12,0Z"/>
      <path class="cls-22" d="M121.81,164.89h5.42c.4,2.53-.56,5.89,0,8.11h-2.71c-1.74-2.51-2.38-5.1-2.71-8.11Z"/>
      <path class="cls-8" d="M113.69,181.11c-1.71-.23-3.64.09-5.41,0v-8.11c3.42-.08,5.95,4.94,5.41,8.11Z"/>
      <path class="cls-19" d="M129.93,218.95c-.39-4.44.26-9.05,0-13.52v-2.7c2.96,4.97,4.1,7.61,2.32,14.57l-2.32,1.65Z"/>
      <path class="cls-18" d="M124.52,194.62l-3.8.36-1.62,2.35c-1.77-.2-3.65.19-5.41,0v-5.41c5.05-2.39,10.17,2.53,10.83,2.7Z"/>
      <path class="cls-22" d="M119.1,197.33c1.75.2,3.99-.39,5.41,0l-1.63,2.37c-3.39.76-6.9.76-10.28,0l-1.63-2.37c.62.26,1.74-.1,2.71,0,1.77.19,3.65-.2,5.41,0Z"/>
      <path class="cls-8" d="M94.74,186.51l-.22,5.11c-5.74,1.97-12.65,4.36-18.73,3,0-1.72-.44-3.44.22-5.11,6.06-2.34,12.15-3.81,18.73-3Z"/>
      <path class="cls-2" d="M83.91,181.11c-3.39.86-10.09,7.26-16.24,5.41v-2.7l13.19-3.15c1.27-1.07-.06-3.9.35-4.96.32-.84,2.27-1.09,2.71-5.41h2.71l-2.71,10.81Z"/>
      <path class="cls-4" d="M92.03,175.7c-.17,1.38-2.8,3.57-2.71,5.41-1.74.24-3.92-.38-5.41,0l2.71-10.81h2.71c.09,1.28-.1,2.57.38,3.81l2.33,1.6Z"/>
      <path class="cls-4" d="M83.91,129.75c2.22.83,5.41,1.74,8.12,2.7l-8.12,6.76,5.41,4.05v2.7c-1.85-.3-4.55-3.7-5.4-2.7-.07,1.79.07,3.61-.01,5.41-.04.9.01,1.8,0,2.7-2.73.74-4.78,2.62-5.41,5.41h-2.71l-2.71,2.7h-2.71c-.84-.22-1.93.29-2.71,0-.46-.17-1.33-2.45-2.71-2.7v-2.7c19.54-2.15,15.21-14.79,5.41-27.03l6.43-2.4c2.59,1.36,4.33,4.06,7.1,5.1Z"/>
      <path class="cls-13" d="M64.96,154.08c-.87.1-1.82,0-2.71,0,.3-1.68-.44-4.03,0-5.41,2.28-7.13,6.07-15.53,8.12-21.62,9.8,12.24,14.12,24.88-5.41,27.03ZM67.68,148.67l5.36-4.11v-5.3l-4.02-4.1h-1.34s0,13.51,0,13.51Z"/>
      <path class="cls-16" d="M62.26,148.67c-.44,1.38.3,3.72,0,5.41-1.8-.02-3.61.01-5.41,0v-5.41h5.41Z"/>
      <path class="cls-17" d="M124.52,97.31v2.7c1.96,3.68-2.65,7.66-2.71,8.11h-2.71c-.2-1.73.3-3.61-.04-5.37-4.45-1.51-5.05,2.55-5.37,2.66-.62.22-1.79-.01-2.71,0s-1.94.16-2.71,0c-.32-.07-.98-3.09-5.41-2.7-1.16.1-2.12,1.64-2.71,2.7-.2-.43-2.07.39-2.71,0-5.96-3.67-17.68-8.05-24.36-10.81,9.3-1.24,16.72,4.75,25.63,5.49,11.27.94,15.87-3.54,25.8-2.79Z"/>
      <path class="cls-16" d="M86.62,113.53c1.12-.37,3.47-4.72,8.12-2.71,2.41,10.51,7.89,15.02-6.86,13.62-4.32-.41-7.83-1.91-11.88-3.02l-.2-13.3c6.88-.72,5.17-.04,5.41,5.4.12,2.69-.09,5.42,0,8.1l1.36.02,6.72-4.07-2.67-4.05Z"/>
      <path class="cls-27" d="M100.15,129.75c.87.2,1.88-.22,2.71,0,.39.1,1.27,2.34,2.71,2.7.85.21,1.88-.23,2.71,0-.72,3.96-3.88,3.87-5.41,5.41-6.8-6.26-4.32-3.09-10.83-5.41-2.71-.96-5.9-1.87-8.12-2.7,2.63-5.82,11.14-1.15,16.24,0Z"/>
      <path class="cls-22" d="M102.86,110.83v18.92c-.83-.22-1.84.2-2.71,0l-2.71-24.33c.64.39,2.5-.43,2.71,0,.42.88-.35,2.58.37,3.81l2.34,1.59Z"/>
      <path class="cls-22" d="M86.62,113.53l2.67,4.05-6.72,4.07-1.36-.02c-.09-2.68.11-5.41,0-8.1,1.68-.3,4.06.45,5.41,0Z"/>
      <path class="cls-22" d="M70.38,118.94l-5.41-2.7c1.03-.47,2.95-6.12,2.71-8.11.82,3.31,2.6,3.82,2.71,10.81Z"/>
      <path class="cls-22" d="M59.55,102.72v2.7c-2.9,1.25-6.16,7.33-5.41-2.7h5.41Z"/>
      <path class="cls-4" d="M138.05,94.61c-1.79.13-3.64-.16-5.41,0l2.71-5.41c.5.6,1.91.66,2.31,1.79l.4,3.61Z"/>
      <path class="cls-16" d="M138.05,94.61c.9-.06,1.81.05,2.71,0l-1.8,2.19-14.44,3.21v-2.7c6.14.47,7.67-2.66,8.12-2.7,1.78-.16,3.63.13,5.41,0Z"/>
      <path class="cls-17" d="M97.45,91.9v5.4s-1.35.02-1.35.02h-1.34s0-5.42,0-5.42c.87.14,1.82-.08,2.71,0Z"/>
      <path class="cls-9" d="M132.64,86.5c-2.51,1.73-5.11,2.38-8.12,2.7,1.14-2.08,4.69-3.53,5.41-5.41,1.56.33,1.93,1.82,2.71,2.7Z"/>
      <polygon class="cls-21" points="56.84 129.75 64.96 127.05 64.96 132.45 56.84 132.45 56.84 129.75"/>
      <path class="cls-13" d="M64.96,116.23c-.23,3.54-4.23,4.1-5.41,5.41-1.5-8.07,3.1-4.34,5.41-5.41Z"/>
      <path class="cls-15" d="M119.1,81.09c-.3.06-1.37,2.29-5.41,2.7l1.59-2.34,3.82-.37Z"/>
      <path class="cls-7" d="M143.46,97.31c-.35.12-1.22,2.08-2.71,2.7-4.22,1.76-7.1,2.24-10.83,5.41-7.18,6.1-6.25,18.07-5.41,27.03.08.89-.11,1.82,0,2.7h-2.71v-2.7c.27-5.36-.4-10.88,0-16.22.2-2.66-.31-5.49,0-8.11.05-.45,4.66-4.43,2.71-8.11l14.44-3.21,1.8-2.19c.9-.05,1.81.06,2.71,0v2.7Z"/>
      <path class="cls-25" d="M154.29,100.01v2.7c-2.52,1.67-5.06,2.58-8.12,2.7v-8.11c.84-.03,1.91-.16,2.71,0,1.7.35,3.94,2.55,5.41,2.7Z"/>
      <path class="cls-8" d="M146.17,105.42c-.88.04-2.08.2-2.71,0-.37-.11-1.32-2.48-2.71-2.7v-2.7c1.48-.62,2.35-2.58,2.71-2.7.64-.22,1.77.03,2.71,0v8.11Z"/>
      <path class="cls-6" d="M56.84,148.67c-.7-5.68-.29-6.12,5.41-5.4v5.4s-5.41,0-5.41,0Z"/>
      <path class="cls-4" d="M143.46,143.26c.09,1.79-.06,3.61,0,5.41-.89-.12-1.83.15-2.71,0v-13.52l2.7,1.37c.16,2.24-.11,4.51,0,6.74Z"/>
      <path class="cls-25" d="M132.64,108.12v18.92c-.18.06-1.28,1.89-2.71,2.7-1.75.99-3.62,1.8-5.41,2.7-.83-8.96-1.77-20.93,5.41-27.03,2.23-.54,2.5,2.63,2.71,2.7Z"/>
      <path class="cls-17" d="M140.76,148.67c-.93-.16-1.97.24-2.71,0l-2.71-2.7c-.65-4,.76-10.92,5.41-10.81v13.52Z"/>
      <path class="cls-4" d="M138.05,148.67c-1.99-.64-2.27,0-2.71-2.7l2.71,2.7Z"/>
      <path class="cls-4" d="M143.46,105.42v5.41l-2.33-1.59c-.55-1.22-.19-2.57-.38-3.81-.13-.88.1-1.81,0-2.7,1.39.22,2.34,2.59,2.71,2.7Z"/>
      <path class="cls-16" d="M140.76,102.72c.1.89-.13,1.82,0,2.7-1.75.59-3.82,2.45-5.41,2.7-.67.11-2.15.2-2.71,0-.21-.07-.47-3.24-2.71-2.7,3.73-3.17,6.61-3.65,10.83-5.41v2.7Z"/>
      <path class="cls-10" d="M116.39,151.37c-.22-.1-.59-3.25-2.67-4.05l2.67-4.05c14.49,4.73,3.31,9.65,0,8.11Z"/>
      <path class="cls-27" d="M121.81,135.15h2.71c.07.59,5.21,5.82,2.7,10.81h-2.69c-.21-1.76.3-3.79-.01-5.4-.21-1.09-.23-2.12-1.48-2.57-2.2-.48-4.46.01-6.64-.13v-2.7c1.61.32,3.66-.21,5.41,0Z"/>
      <path class="cls-8" d="M100.15,181.11c-.9,0-1.81-.05-2.71,0v-29.73c.89-.12,1.84.15,2.71,0v29.73Z"/>
      <path class="cls-14" d="M108.27,151.37v2.7c-1.12.19-2.15-.35-2.62,1.42l-.08,14.8c-5.39-3.38-1.82-13.08-2.71-18.92.89-.06,1.81,0,2.71,0s1.83-.09,2.71,0Z"/>
      <path class="cls-14" d="M108.27,181.11c-.9-.05-1.81.03-2.71,0v-6.74s2.71-1.37,2.71-1.37v8.11Z"/>
      <path class="cls-13" d="M105.57,148.67v2.7c-.9,0-1.81-.06-2.71,0s-1.85-.15-2.71,0l1.47-2.58,3.95-.12Z"/>
      <path class="cls-10" d="M97.45,181.11c-.9.05-1.81-.07-2.71,0,0-4.5-.01-9.01,0-13.52.01-5.01-1.9-13.86,2.71-16.22v29.73Z"/>
      <path class="cls-14" d="M94.74,181.11c-1.77.13-3.7-.24-5.41,0-.09-1.83,2.54-4.03,2.71-5.41.31-2.57-.11-5.45,0-8.11h2.71c-.01,4.5,0,9.01,0,13.52Z"/>
      <path class="cls-16" d="M113.69,140.56c.11,1.72,1.29,2.24,2.71,2.7l-2.67,4.05c2.08.81,2.45,3.95,2.67,4.05-2.5-.39-5.49.26-8.12,0-.88-.09-1.82,0-2.71,0v-2.7c.2-.85-.27-1.91,0-2.7.1-.29,2.54-5.16,2.71-5.41.82-1.2.13-2.07,2.71-2.7-.22,1.72,1.15,2.55,2.71,2.7Z"/>
      <path class="cls-19" d="M75.79,167.59v8.11c-1.74.84-4.57,5.24-8.12,5.41v-21.62c.78.29,1.87-.22,2.71,0l1.35,16.23,1.35-16.23,2.71-2.7v10.81Z"/>
      <path class="cls-16" d="M81.21,175.7c-.4,1.06.93,3.89-.35,4.96l-13.19,3.15v-2.7c3.55-.16,6.38-4.57,8.12-5.41,1.07-.52,3.8.35,5.41,0Z"/>
      <path class="cls-9" d="M105.57,145.97c-.27.8.2,1.86,0,2.7l-3.95.12-1.47,2.58c-.87.15-1.82-.12-2.71,0-4.61,2.36-2.69,11.21-2.71,16.22h-2.71c.22-5.37-.14-10.84-.01-16.21h-2.69c.3,6.25-.46,12.69-.01,18.92h-5.41c.6-5.92-.1-12.77,0-18.92.01-.9-.04-1.81,0-2.7l14.8-.15c1.74-.46,1.17-1.53,1.44-2.55.22-.85-.21-1.86,0-2.7l5.41,2.7Z"/>
      <path class="cls-25" d="M83.91,170.29c-.44,4.32-2.39,4.57-2.71,5.41-1.62.35-4.34-.52-5.41,0v-8.11l2.31-1.77c1.22-2.82-.15-6.63.4-9.04.64-2.78,2.68-4.67,5.41-5.41-.1,6.15.6,13,0,18.92Z"/>
      <path class="cls-13" d="M92.03,167.59c-.11,2.66.31,5.54,0,8.11l-2.33-1.6c-.48-1.24-.29-2.53-.38-3.81-.45-6.23.31-12.67.01-18.92h2.69c-.13,5.38.23,10.84.01,16.21Z"/>
      <path class="cls-10" d="M94.74,140.56l-5.41,2.7-5.41-4.05,8.12-6.76c1.72,2.92,2.1,4.85,2.71,8.11Z"/>
      <path class="cls-8" d="M89.33,145.97c1.62.26,3.63-.05,5.41,0s3.61-.04,5.41,0c-.26,1.03.3,2.09-1.44,2.55l-14.8.15c.08-1.79-.06-3.62.01-5.41.86-1,3.56,2.41,5.4,2.7Z"/>
      <polygon class="cls-10" points="73.09 159.48 71.73 175.71 70.38 159.48 73.09 159.48"/>
      <path class="cls-16" d="M75.79,167.59v-10.81h2.71c-.55,2.41.82,6.22-.4,9.04l-2.31,1.77Z"/>
      <path class="cls-18" d="M94.74,145.97c-1.78-.05-3.8.26-5.41,0v-2.7l5.41-2.7c.31,1.64-.21,3.66,0,5.41Z"/>
      <polygon class="cls-17" points="67.68 148.67 67.68 135.15 69.02 135.16 73.04 139.26 73.04 144.56 67.68 148.67"/>
      <path class="cls-28" d="M113.69,105.42c.32-.11.93-4.17,5.37-2.66.34,1.76-.16,3.64.04,5.37l-2.7,1.36v22.98s5.4-.01,5.4-.01v2.7c-1.75-.21-3.8.32-5.41,0-3.9-.76-5.12-2.63-5.41-2.7l2.7-1.36v-25.67Z"/>
      <path class="cls-26" d="M108.27,105.42v27.03c-.83-.23-1.85.21-2.71,0-.89-5.84,2.68-15.54-2.71-18.92v-10.81c4.43-.38,5.09,2.64,5.41,2.7Z"/>
      <path class="cls-8" d="M110.98,132.45c-.84-.22-1.87.23-2.71,0v-27.03c.77.16,1.82,0,2.71,0v27.03Z"/>
      <path class="cls-15" d="M110.98,132.45v-27.03c.92-.01,2.09.22,2.71,0v25.67s-2.71,1.36-2.71,1.36Z"/>
      <path class="cls-8" d="M121.81,116.23l-2.2-1.84c-.84-2.02-.27-4.23-.5-6.27h2.71c-.31,2.62.2,5.45,0,8.11Z"/>
      <path class="cls-14" d="M102.86,110.83l-2.34-1.59c-.72-1.24.06-2.93-.37-3.81.58-1.06,1.55-2.6,2.71-2.7v8.11Z"/>
      <path class="cls-16" d="M102.86,137.86c-.44.44-1.71.39-2.37,1.65s-.05,2.65-.33,3.75c-.21.85.22,1.86,0,2.7-1.8-.04-3.61.05-5.41,0-.21-1.74.31-3.77,0-5.41-.61-3.26-.99-5.19-2.71-8.11,6.51,2.32,4.03-.85,10.83,5.41Z"/>
      <path class="cls-14" d="M105.57,132.45c-1.44-.36-2.31-2.6-2.71-2.7v-16.22c5.39,3.38,1.82,13.08,2.71,18.92Z"/>
      <path class="cls-23" d="M116.39,135.15v2.7c-1.59-.1-4.14-.32-5.41,0-2.58.64-1.88,1.51-2.71,2.7l-3.69-.34c-1.17-.41-1.15-1.83-1.72-2.36,1.53-1.53,4.69-1.45,5.41-5.41.84.23,1.86-.22,2.71,0,.29.08,1.52,1.94,5.41,2.7Z"/>
      <path class="cls-4" d="M121.81,116.23c-.4,5.34.27,10.86,0,16.22h-5.42s.01-22.97.01-22.97l2.7-1.36c.23,2.04-.34,4.25.5,6.27l2.2,1.84Z"/>
      <path class="cls-13" d="M116.39,137.86c2.18.14,4.45-.35,6.64.13,1.25.45,1.27,1.49,1.48,2.57-3.57-.23-7.28.34-10.83,0-1.56-.15-2.93-.98-2.71-2.7,1.28-.32,3.83-.1,5.41,0Z"/>
      <path class="cls-10" d="M108.27,140.56c-.17.25-2.61,5.12-2.71,5.41l-5.41-2.7c.28-1.1-.3-2.54.33-3.75s1.93-1.21,2.37-1.65c.57.53.55,1.95,1.72,2.36l3.69.34Z"/>
    </g>
  </g>
</svg>