<?xml version="1.0" encoding="UTF-8"?>
<svg id="Layer_2" data-name="Layer 2" xmlns="http://www.w3.org/2000/svg" viewBox="0 0 216.56 288.09">
  <defs>
    <style>
      .cls-1 {
        fill: #414141;
      }

      .cls-2 {
        fill: #0f0f0d;
      }

      .cls-3 {
        fill: #3a3a3a;
      }

      .cls-4 {
        fill: #0b0b09;
      }

      .cls-5 {
        fill: #b7c4d9;
      }

      .cls-6 {
        fill: #13140f;
      }

      .cls-7 {
        fill: #fff;
      }

      .cls-8 {
        fill: #232322;
      }

      .cls-9 {
        fill: #0c0c0c;
      }
    </style>
  </defs>
  <g id="Layer_1-2" data-name="Layer 1">
    <g>
      <rect class="cls-7" x="3.4" y="3.01" width="210" height="284"/>
      <path class="cls-9" d="M205.72,4.27c3.24.58,7.38-.41,10.84,0l-2.72,283.83H0V6.97l2.71,2.7.29,271.37c.41,1.32,3.11,4.35,3.77,4.35h201.66l-.49-276.47-2.22-1.95v-2.7Z"/>
      <path class="cls-1" d="M205.72,4.27v2.7L2.71,9.68,0,6.97C.84,2.48,5.01,1.09,9.36,1.45c61.8,3.81,128.7-4.64,189.86-.04,4.73.36,6.15,2.8,6.5,2.86Z"/>
      <path class="cls-4" d="M148.87,150.22l.07,8.03c34.44-.98,13.1,26.31-4.12,35.4-19.95-9.02-37.63-42.65-1.36-32.61l-2.69-10.81,8.11-.02Z"/>
      <path class="cls-9" d="M127.01,98.67l-14.29,2.9c-2.97,7.11-4.73,5.82-12.57,5.41l5.41-8.09c-1.2-1-17.66,8.37-21.34-4.47-3.43-11.94,14.28-27.09,25.04-27.78,10.24,9.4,21.78,16.12,17.75,32.02Z"/>
      <path class="cls-4" d="M148.47,215.64l2.02,4.99c32.83-.56,10.41,26.96-5.67,35.19-5.15,0-23.26-19.43-22.6-25.4,1.29-11.67,9.81-8.63,16.94-9.78,2.24-.36.62-9.17,9.31-5Z"/>
      <path class="cls-4" d="M146.17,131.33l5.41,8.09-9.32.14-3.12-5.65c-31.59.35-10.76-27.19,5.67-35.19,9.55,3.31,34.59,29.24,15.84,35.03-5.86,1.81-9.14-2.7-14.49-2.41Z"/>
      <path class="cls-2" d="M73.09,71.85c-.24-.05,1-2.47-4.04-2.85-7.19-.55-6.39,2.76-6.79,2.85-8.43,1.86-17.03-2.99-16.34-12.05.73-9.54,14.33-19,20.63-25.7,4.73-1.06,22.38,19.27,22.87,25.7.7,9.08-7.89,13.88-16.34,12.05Z"/>
      <path class="cls-4" d="M110.98,185.39l-2.7,8.1c19.38-9.28,24.85,5.14,13.56,20.31-2.32,3.12-11.29,12.31-14.92,12.3-6.7-.01-35.15-29.07-15.84-35.03,5.86-1.81,9.14,2.7,14.49,2.41l-5.41-8.09h10.83Z"/>
      <path class="cls-4" d="M164.6,68.64c-6.29,6.27-17.19-.54-18.43.52l5.41,8.09h-10.82s2.7-8.09,2.7-8.09c-15.5,6.2-27.82-2.48-16.27-17.62,3.55-4.65,14.4-16.24,19.99-14.6,6.39,1.87,25.88,23.27,17.42,31.71Z"/>
      <path class="cls-9" d="M70.38,131.32c-2.11-.33-4.32-.12-6.41.32l-1.71,2.39c-15.42,1.34-20.83-8.73-12.07-21.51,1.77-2.59,11.56-12.64,13.79-13.31,13.84-4.1,36.83,29.29,18.17,34.53-6.03,1.69-8.41-1.87-11.77-2.41Z"/>
      <path class="cls-4" d="M64.96,223.22c1.47.22,3.94.22,5.41,0,1.56-.23,3.91-2.57,6.85-2.74,7.11-.41,12.96,4.87,12.26,12.18-.42,4.35-18.85,23.17-23.17,23.17-7.18,0-25.93-26.56-20.1-32.4,8.54-5.19,12.4-1.13,18.74-.2Z"/>
      <path class="cls-4" d="M64.96,161.05c1.47.22,3.95.22,5.41,0,5.38-.81,12.74-6.97,17.65,2.64,6.06,11.86-12.31,21.3-19.24,29.71-3.59.8-22.19-18.32-22.85-22.85-2.61-17.89,10.21-10.8,19.02-9.49Z"/>
      <path class="cls-6" d="M23.16,15.22c15.42-4.43,17.43,17.11,14.32,27.83-2.42,8.36-17.16,11.25-18.6.47-.76-5.68-1.6-26.62,4.28-28.31ZM29.77,20.49c-3.05-3.6-5.19-.4-5.41,4.02-.33,6.74.23,13.58,0,20.3,3.05,3.6,5.19.4,5.41-4.02.33-6.74-.23-13.58,0-20.3Z"/>
      <path class="cls-6" d="M194.89,207c.82,1.79,9.18,2.91,8.28,12.14-.33,3.36-9.5,13.56-12.36,14.88-4.63,2.13-4.69-5.41-7.98-8.3-2.17-1.9-6.71-1.91-7.02-4-1.99-13.21,7.69-11.19,8.25-12.02l7.98,2.6,2.84-5.3Z"/>
      <path class="cls-8" d="M183.05,239.65c15.27-4.44,17.68,36.08,2.39,37.74-15.29,1.65-11.98-34.95-2.39-37.74ZM189.47,247.54h-8.11v21.64h8.11v-21.64Z"/>
      <path class="cls-6" d="M21.67,55.64l16.12,17.8c-3.22,12.42-8.53,6.8-14.78,6.8s-8.91,5.37-14.81-4.55l13.47-20.06Z"/>
      <rect class="cls-4" x="8.13" y="15.07" width="8.11" height="35.16"/>
      <rect class="cls-2" x="197.6" y="239.44" width="5.41" height="37.84"/>
      <path class="cls-3" d="M184.07,209.7c.68-1-.74-5.81.15-7.97,13.77-1.78,8.59.71,10.67,5.27l-2.84,5.3-7.98-2.6Z"/>
      <path class="cls-1" d="M64.96,161.05l-2.7-10.81h10.82l-2.7,10.81c-1.46.22-3.95.22-5.41,0Z"/>
      <path class="cls-3" d="M64.96,223.22l-2.7-10.81h10.82l-2.7,10.81c-1.47.22-3.94.22-5.41,0Z"/>
      <path class="cls-8" d="M73.09,71.85l-.3,4.94-8.99.59-1.53-5.53c.4-.09-.4-3.4,6.79-2.85,5.03.38,3.79,2.8,4.04,2.85Z"/>
      <path class="cls-8" d="M70.38,131.32l2.71,8.1-10.51-.46-.31-4.93,1.71-2.39c2.09-.44,4.3-.65,6.41-.32Z"/>
      <rect class="cls-6" x="18.95" y="85.37" width="8.11" height="5.4"/>
      <rect class="cls-5" x="181.36" y="247.54" width="8.11" height="21.64"/>
    </g>
  </g>
</svg>