<?xml version="1.0" encoding="UTF-8"?>
<svg id="Layer_2" data-name="Layer 2" xmlns="http://www.w3.org/2000/svg" viewBox="0 0 216.25 287.5">
  <defs>
    <style>
      .cls-1 {
        fill: #3a3a3a;
      }

      .cls-2 {
        fill: #fff;
      }

      .cls-3 {
        fill: #0c0c0c;
      }

      .cls-4 {
        fill: #fe1014;
      }

      .cls-5 {
        fill: #fe0c11;
      }

      .cls-6 {
        fill: #fe2327;
      }
    </style>
  </defs>
  <g id="Layer_1-2" data-name="Layer 1">
    <g>
      <rect class="cls-2" x="3.45" y="2.29" width="210" height="284"/>
      <path class="cls-3" d="M7.83,283.82c-1.77-.7-4.97.39-6.9-2.51L0,4.35C.41,3.03,3.11,0,3.77,0h212.49v286.53c-.4.45-6.37-3.77-10.83-2.7v-2.7l2.22-1.95.49-276.47H5.12l.49,276.47,2.22,1.95v2.7Z"/>
      <path class="cls-1" d="M205.43,281.12v2.7c-.5.12-1.74,2.66-6.5,2.86-62.26,2.58-126.76-1.83-189.15-.65-1.29-.25-1.56-2.05-1.95-2.21v-2.7h197.6Z"/>
      <path class="cls-5" d="M104.76,33.14c1.42,1.74-1.24,5.7,3.21,4.7-.96-8.11,12.54-10.72,17.65-5.43,13.82,14.28-6.95,28.56-16.52,37.78l-3.88-1.15c-5.7-9.09-20.79-12.97-21.7-24.56-.82-10.48,14.31-19.77,21.24-11.34Z"/>
      <path class="cls-5" d="M110.67,213.54c1.75,13.73,20.07,13.35,19.06,28.26-.96,14.1-19.81,18.64-21.76,4.18h-2.67c1.64,7.96-11.64,10.8-15.91,7.74-.45-.32-5.28-9.08-5.45-9.6-2.29-7.35,14.1-23.46,19.97-27.89,2.34-1.76,2.66-3.71,6.76-2.69Z"/>
      <path class="cls-6" d="M26.77,35.14c-3.65.51-7.46,1.11-8.12,5.4l7.75-.48c.93-1.56.05-3.58.37-4.92,2.6-.37,5.47.22,8.12,0v13.53s-21.66,0-21.66,0c-2.75-13.08,5.49-17.63,13.53-25.69l-13.52-1.34c-3.29-14.93,18.5-13.67,21.44-3.72.64,8.04-5.94,8.79-7.91,17.24Z"/>
      <path class="cls-4" d="M188.15,202.94c8.73-2.51,18.88,16.95,16.06,21.43-6.97,11.09-11.47.53-13.68.53l-7.88,4.79c-12.74-3.6-1.16-24.84,5.49-26.75Z"/>
      <path class="cls-4" d="M26.75,83.8c-10.8.94-23.1-24.21-11.92-26.95,3.24-.79,6.17,1.91,8.38,1.9,3.92-.02,12.46-4.87,14.35,2.19,2.31,8.64-10.4,15-10.8,22.86Z"/>
      <path class="cls-5" d="M194.6,248.68c-.23.19.07,3.44-1.39,5.27-3.67,4.58-8.38,6.24-6.73,13.65l13.52,1.34c-3.14,5.75-16.83,6.25-18.69-.22-2.65-9.18,3.43-12.34,5.17-20.04,2.69.14,5.43-.09,8.12,0Z"/>
      <path class="cls-5" d="M186.48,248.68c-1.8-.09-3.62.09-5.42,0v-10.81s17.48-.02,17.48-.02l1.58,9.26c-.41,3.02-4.93,1.09-5.53,1.57v-5.4s-8.12,0-8.12,0c-.28,1.74.34,3.86,0,5.41Z"/>
    </g>
  </g>
</svg>