<?xml version="1.0" encoding="UTF-8"?>
<svg id="Layer_2" data-name="Layer 2" xmlns="http://www.w3.org/2000/svg" viewBox="0 0 213.84 286.64">
  <defs>
    <style>
      .cls-1 {
        fill: #191a18;
      }

      .cls-2 {
        fill: #3a3a3a;
      }

      .cls-3 {
        fill: #13140f;
      }

      .cls-4 {
        fill: #fff;
      }

      .cls-5 {
        fill: #b7a68b;
      }

      .cls-6 {
        fill: #0c0c0c;
      }
    </style>
  </defs>
  <g id="Layer_1-2" data-name="Layer 1">
    <g>
      <rect class="cls-4" x="2.42" width="210" height="284"/>
      <path class="cls-6" d="M213.84.11v286.53H0V.11h213.84ZM208.43,5.52c-2.87,1.19-6.15-2.7-6.77-2.7H6.77c-.29,0-4.06,3.77-4.06,4.05v273.01c0,.29,3.77,4.05,4.06,4.05h194.89c.62,0,3.9-3.89,6.77-2.7V5.52Z"/>
      <path class="cls-3" d="M97.45,48.76c-5.35-2.33-3.75-20.39,8.95-18.54,8.19,1.2,12.14,10.11,7.43,16.88-2.11,3.03-6.45-.21-5.54,4.35,24.6-10.35,27.01,26.15,0,13.52l1.34,10.82h-9.46s2.69-13.52,2.69-13.52l-4.21,5.56c-18.56,4.38-21.45-20.12-3.9-19.08l4.06,5.39,4.06-5.37c-1.67-.34-4.27.49-5.42-.01Z"/>
      <path class="cls-3" d="M94.74,237.98c-3.04-.58-7.17,1.01-9.63-2.54-4.38-12.73.3-18.23,13.53-16.53l4.21,5.56-2.69-13.5h10.82s-2.69,10.81-2.69,10.81c26.92-12.65,24.68,23.85,0,13.52-1.01,4.5,3.08,1.82,4.73,3.18,7.84,6.46-1.27,23.05-12.89,17.18-5.07-4.02-8.59-9.85-2.67-14.96,4.23-3.66,8.15-2.57,1.35-8.09l-4.06,5.39Z"/>
      <path class="cls-3" d="M97.45,137.97c-5.34-2.33-3.75-20.39,8.95-18.54,12.99,1.9,10.54,14.07,1.88,21.23,24.75-10.19,26.92,26.09,0,13.53l1.34,10.82h-9.46s2.69-13.52,2.69-13.52l-4.21,5.56c-18.56,4.38-21.45-20.12-3.9-19.08l4.06,5.39,4.06-5.37c-1.67-.34-4.27.49-5.42-.01Z"/>
      <path class="cls-6" d="M32.48,10.93c2.04,8.08-5.25,10.33-8.12,16.19,9.08-.43,9.94,9.97,7.83,17.31-2.26,7.86-25.81,6.83-21.36-6.47,5.3-1.62,6.56,4.23,9.66,5.25,8.36,2.75,9.18-15.02-6.97-10.67-2.07-7.75,9.35-5.92,10.84-13.5l-13.53,2.69c-1.94-14.27,10.9-10.68,21.64-10.8Z"/>
      <path class="cls-1" d="M197.59,248.79l-13.52-2.69-.02,8.1h10.84s-8.12,13.51-8.12,13.51l12.17-2.71c2.34.02,1.78,5.29,1.36,6.76-1.77,6.19-16.2,3.71-21.65,4.06-3.25-6.11,4.85-13.6,4.85-14.86,0-1.4-9.8-10.99-3.62-20.41,4.15-6.33,21.59-3.15,17.72,8.24Z"/>
      <path class="cls-3" d="M191.8,200.61c.49.31-.15,3.62,2.03,5.06,4.51,2.98,12.09.23,9.16,9.31-.96,2.96-6.43,3.15-7.53,4.63-2.14,2.88-.11,13.13-9.93,10.15-7.34-2.22-17.36-30.72,1.23-21.51l-2.7-8.1,7.73.47Z"/>
      <path class="cls-1" d="M18.95,78.5c-2.32.24-6.02,5.66-9.54.07-2.19-3.47-1.17-7.13-1.3-10.86l8.17-.03-2.57-6.51c1.54-8.04,22.3-5.3,13.33,6.51l8.17.03c-.13,3.73.89,7.39-1.3,10.86-3.52,5.59-7.22.17-9.54-.07-1.64-.17-3.78-.17-5.41,0Z"/>
      <path class="cls-2" d="M24.36,78.5l2.71,8.1c-2.75-.35-11.59,1.23-10.81-1.33.41-1.34,3.48-3.77,2.69-6.77,1.64-.17,3.78-.17,5.41,0Z"/>
      <path class="cls-5" d="M97.45,240.68c.18-1.73-1.17-2.41-2.71-2.7l4.06-5.39c6.79,5.52,2.88,4.43-1.35,8.09Z"/>
      <path class="cls-5" d="M97.45,48.76c1.15.5,3.75-.33,5.42.01l-4.06,5.37-4.06-5.39h2.71Z"/>
      <path class="cls-5" d="M97.45,137.97c1.15.5,3.75-.33,5.42.01l-4.06,5.37-4.06-5.39h2.71Z"/>
    </g>
  </g>
</svg>