<?xml version="1.0" encoding="UTF-8"?>
<svg id="Layer_2" data-name="Layer 2" xmlns="http://www.w3.org/2000/svg" viewBox="0 0 216.55 286.64">
  <defs>
    <style>
      .cls-1 {
        fill: #191a18;
      }

      .cls-2 {
        fill: #3a3a3a;
      }

      .cls-3 {
        fill: #13140f;
      }

      .cls-4 {
        fill: #fff;
      }

      .cls-5 {
        fill: #b7a68b;
      }

      .cls-6 {
        fill: #0c0c0c;
      }
    </style>
  </defs>
  <g id="Layer_1-2" data-name="Layer 1">
    <g>
      <rect class="cls-4" x="1.19" width="210" height="284"/>
      <path class="cls-6" d="M216.55.11v286.53H0V.11h216.55ZM9.47,2.81l-5.46,5.36v270.4c1.46,1.14,4.75,5.36,5.46,5.36h194.89c.29,0,4.06-3.77,4.06-4.05V6.87c0-.29-3.77-4.05-4.06-4.05H9.47Z"/>
      <path class="cls-3" d="M148.88,51.46c4.27.8,7.46-3.69,11.72-2.47,15.74,4.49,1.94,33.97-14.42,13.29l5.4,13.5h-10.82s2.69-13.5,2.69-13.5c-4.55-.89-1.33,3.36-4.37,5.52-1.13.8-6.07,2.59-7.43,2.31-15.4-9.24-11.6-22.5,6.4-21.36-11.06-28.44,29.65-21.41,10.82,2.7Z"/>
      <path class="cls-3" d="M148.87,210.96l-2.69,13.51,11.93-8.01c16.97,11.01,9.22,26.1-9.23,18.83,18.83,24.05-21.85,31.21-10.82,2.7-23.75,1.22-19.98-22.98,2.47-18.54l2.93,5.01-2.69-13.5h8.11Z"/>
      <path class="cls-3" d="M113.69,135.26c-4.23,3.66-8.15,2.57-1.35,8.09l4.06-5.39c3.04.58,7.17-1.01,9.63,2.54,4.38,12.73-.3,18.23-13.53,16.53l-4.21-5.56,2.69,13.5h-10.82s5.4-13.51,5.4-13.51l-9.8,7.88c-21.35-4.42-11.98-27.61,7.1-18.71,1.52-1.27-13.55-9.6-4.89-18.4,9.33-9.47,25.49,4.55,15.71,13Z"/>
      <path class="cls-3" d="M56.84,237.98c-3.11-.53-7.2.96-9.63-2.54-4.39-11.86.25-18.97,13.37-16.47,1.88.36,2.21,4.11,4.38,5.5.89.57,5.88.76,8.11,2.71.25-1.76-.29-3.79,0-5.41.18-.96.28-2.35,1.35-2.66l10.6.19c5.72,1.6,6.17,14.68,1.73,17.47l-10.97,1.22c.24,5.48,4.28,8.04,1.47,13.54-6.44,12.57-27.59,1.53-17.7-10.84.99-1.24,5.76-2.09,5.41-5.4h-6.76s-1.36,2.69-1.36,2.69Z"/>
      <path class="cls-3" d="M59.55,46.06c-7.99-6.92,1.68-18.87,11.81-15.9,12.12,3.56,3.51,17.98,4.41,18.6,19.56.05,18.51,25.27-2.42,17.62-.1-.47-.19-.93-.27-1.4-.28-1.65.24-3.66,0-5.41-2.23,1.95-7.22,2.14-8.11,2.71-2.17,1.39-2.5,5.14-4.38,5.5-13.12,2.5-17.76-4.61-13.37-16.47,2.46-3.55,6.59-1.96,9.63-2.54l1.36,2.69h6.76c.14-3.27-3.76-3.97-5.41-5.4Z"/>
      <path class="cls-3" d="M197.4,238.18l2.9,13.31-13.52-8.1v13.52s13.54-.01,13.54-.01v18.94s-21.67-.01-21.67-.01v-8.1s16.24-.01,16.24-.01c2.43-10.46-10.85-1.74-15.02-7.96-7.61-11.36,4.51-26.75,17.53-21.56Z"/>
      <path class="cls-3" d="M32.49,10.93v8.1s-13.54.01-13.54.01l12.33,7.95.9,17.43c-8.34,9.75-21.9,4.72-18.64-9.16l13.52,5.4v-10.8s-16.24,0-16.24,0l.3-14.58,4.06-4.05,17.31-.29Z"/>
      <path class="cls-3" d="M27.04,67.61c18.26-.7,9.55,17.64-2.67,10.89l2.7,8.1h-8.12l2.7-8.1c-12.76,6.64-20.54-11.81-2.67-10.89-6.47-9.61,4.51-15.49,10.64-6.44l-2.57,6.44Z"/>
      <path class="cls-1" d="M186.77,208.25c1.64.17,3.78.17,5.41,0,2.32-.24,6.02-5.66,9.54-.07,2.19,3.47,1.17,7.13,1.3,10.86l-8.17.03c8.97,11.8-11.79,14.54-13.33,6.51l2.57-6.51-8.17-.03c.13-3.73-.89-7.39,1.3-10.86,3.52-5.59,7.22-.17,9.54.07Z"/>
      <path class="cls-2" d="M73.09,64.98l-2.55,1.55,2.55,9.25h-10.82s2.7-13.51,2.7-13.51c.89-.57,5.88-.76,8.11-2.71.25,1.75-.27,3.76,0,5.41Z"/>
      <path class="cls-2" d="M64.96,224.47l-2.7-13.51h10.82s-2.55,9.25-2.55,9.25l2.55,1.55c-.3,1.62.25,3.66,0,5.41-2.23-1.95-7.22-2.14-8.11-2.71Z"/>
      <path class="cls-2" d="M186.77,208.25c.79-3-2.28-5.43-2.69-6.77-.78-2.56,8.07-.98,10.81-1.33l-2.71,8.1c-1.64.17-3.78.17-5.41,0Z"/>
      <path class="cls-5" d="M116.39,137.97l-4.06,5.39c-6.79-5.52-2.88-4.43,1.35-8.09-.18,1.73,1.17,2.41,2.71,2.7Z"/>
      <path class="cls-5" d="M56.84,237.98l1.36-2.69h6.76c.35,3.31-4.42,4.16-5.41,5.4.18-1.71-1.18-2.44-2.71-2.7Z"/>
      <path class="cls-5" d="M59.55,46.06c1.65,1.43,5.56,2.12,5.41,5.4h-6.76s-1.36-2.69-1.36-2.69c1.54-.29,2.88-.97,2.71-2.7Z"/>
    </g>
  </g>
</svg>