<?xml version="1.0" encoding="UTF-8"?>
<svg id="Layer_2" data-name="Layer 2" xmlns="http://www.w3.org/2000/svg" viewBox="0 0 216.55 289.25">
  <defs>
    <style>
      .cls-1 {
        fill: #191a18;
      }

      .cls-2 {
        fill: #3a3a3a;
      }

      .cls-3 {
        fill: #13140f;
      }

      .cls-4 {
        fill: #fff;
      }

      .cls-5 {
        fill: #b7a68b;
      }

      .cls-6 {
        fill: #232322;
      }

      .cls-7 {
        fill: #0c0c0c;
      }
    </style>
  </defs>
  <g id="Layer_1-2" data-name="Layer 1">
    <g>
      <rect class="cls-4" x="1.96" y="1.65" width="210" height="284"/>
      <path class="cls-6" d="M216.55,4.46l-5.41,2.7H5.41v275.71h205.72v5.41c-67.32,3.05-136.84-2.33-204.44.07-2.23.3-6.7-2.85-6.7-4.12V5.82C0,2.75,6.58,1.88,9.36,1.65c64.18-5.3,135.51,4.23,200.48.05l6.71,2.76Z"/>
      <path class="cls-7" d="M216.55,4.46v283.83c-1.79.07-3.61-.09-5.41-.01V7.17l5.41-2.7Z"/>
      <path class="cls-3" d="M113.69,101.76l13.32.23c8,15.97-5.97,25.11-18.72,13.3l5.44,6.75c1.4,6.13-10.57,9.34-10.88,5.4l2.71-12.15c-23.48,18.85-30.57-22.44-2.71-10.81,1.32-5.62-5.54-7.12-5.57-12.17-.08-14.42,29.66-12.96,16.4,9.45Z"/>
      <path class="cls-3" d="M75.79,242.34c5.92,5.12,2.39,10.94-2.67,14.96-11.62,5.87-20.73-10.72-12.89-17.18,1.65-1.36,5.74,1.32,4.73-3.18-23.95,11.61-22.11-21.65-7.13-18.66,2.7.54,8.5,9.41,9.83,7.84l-5.4-13.5h10.82s-2.69,13.5-2.69,13.5l2.93-5.01c13.05-4.89,25.48,8.8,13.34,17.3-2.78,1.95-5.63.8-8.16,1.23l-4.06-5.39-4.04,4.03c1.17,2.19,4,2.85,5.39,4.05Z"/>
      <path class="cls-3" d="M75.79,142.32c-1.12.5-3.75-.33-5.42.01l4.06,5.37,4.06-5.39c15.35-.1,17.07,14.45,3.69,21.35-1.36.27-6.3-1.51-7.43-2.31-3.04-2.16.19-6.41-4.37-5.52.73,11.56,8.69,15.14-8.13,13.5l5.4-13.5-8.13,6.91c-13.1,7.97-22.77-29,5.43-17.74l-8.02-11.92c13.86-23.89,28.93,4.68,18.85,9.22Z"/>
      <path class="cls-3" d="M75.79,47.71c-4.25,3.66-8.14,2.57-1.35,8.09l4.06-5.39c2.46.47,5.34-.74,8.16,1.23,12.15,8.51-.29,22.19-13.34,17.3l-2.93-5.01,2.69,13.5h-10.82s5.4-13.51,5.4-13.51c-1.33-1.58-7.14,7.3-9.83,7.84-14.98,2.99-16.82-30.27,7.13-18.66.9-4.55-3.36-1.33-5.53-4.36-1.03-1.44-2.07-5.33-2.32-7.42.28-1.36,6.38-7.83,7.79-8.57,9.16-4.77,18.59,8.31,10.89,14.95Z"/>
      <path class="cls-3" d="M138.05,142.32c-11.58-24.31,27.25-24.09,16.21-.01,14.36-2.55,18.69,17.84,6.5,21.4-6.68,1.95-6.55-2.08-9.17-5.17-3.97-4.67-7.31-4.11-10.83,0-2.03,2.37-1.66,5.61-6.77,5.56-8.4-.08-11.25-12.12-9.27-18.87,3.62-.83,6.88-2.43,10.63-2.91l1.43,2.62,6.69.08v-2.68c-1.79-.04-3.6,0-5.41-.01Z"/>
      <path class="cls-3" d="M135.34,239.63c-3.11-.53-7.2.96-9.63-2.54-4.39-11.86.25-18.97,13.37-16.47,1.88.36,2.21,4.11,4.38,5.5.89.57,5.88.76,8.11,2.71.25-1.76-.29-3.79,0-5.41.18-.96.28-2.35,1.35-2.66l10.6.19c5.72,1.6,6.17,14.68,1.73,17.47l-10.97,1.22c.24,5.48,4.28,8.04,1.47,13.54-6.44,12.57-27.59,1.53-17.7-10.84.99-1.24,5.76-2.09,5.41-5.4h-6.76s-1.36,2.69-1.36,2.69Z"/>
      <path class="cls-3" d="M138.05,47.71c-7.99-6.92,1.68-18.87,11.81-15.9,12.12,3.56,3.51,17.98,4.41,18.6,19.56.05,18.51,25.27-2.42,17.62-.1-.47-.19-.93-.27-1.4-.28-1.65.24-3.66,0-5.41-2.23,1.95-7.22,2.14-8.11,2.71-2.17,1.39-2.5,5.14-4.38,5.5-13.12,2.5-17.76-4.61-13.37-16.47,2.46-3.55,6.59-1.96,9.63-2.54l1.36,2.69h6.76c.14-3.27-3.76-3.97-5.41-5.4Z"/>
      <path class="cls-1" d="M29.95,69.07c14.51,3.67,8.71,17.94-5.59,11.09l5.41,8.09h-10.83s2.7-8.1,2.7-8.1c-18.98,8.89-9.06-20.71,1.3-21.73,8.46-.83,11.29,4.15,7,10.65Z"/>
      <path class="cls-1" d="M194.89,201.8l-2.7,8.1c12.76-6.64,20.54,11.81,2.67,10.89l2.57,6.44c-6.13,9.05-17.11,3.16-10.64-6.44-18.26.7-9.55-17.64,2.67-10.89l-2.7-8.1h8.12Z"/>
      <path class="cls-6" d="M35.19,12.58c.91,13.4-10.66,23.71-8.13,37.85h-8.11c-1.19-10.72,3.19-20.56,8.12-29.74l-13.53,2.69v-10.8s21.65,0,21.65,0Z"/>
      <path class="cls-6" d="M192.18,239.64c1.2,10.72-3.22,20.58-8.12,29.72l13.53-2.69v10.8c-6.72-.31-22.01,2.92-21.76-6.8.1-3.94,4.45-6.57,6.1-10.19,2.11-4.61,3.28-9.48,4.68-14.33,1.28-4.44-2.62-7.84,5.56-6.51Z"/>
      <path class="cls-2" d="M151.58,66.64l-2.55,1.55,2.55,9.25h-10.82s2.7-13.51,2.7-13.51c.89-.57,5.88-.76,8.11-2.71.25,1.75-.27,3.76,0,5.41Z"/>
      <path class="cls-2" d="M143.46,226.12l-2.7-13.51h10.82s-2.55,9.25-2.55,9.25l2.55,1.55c-.3,1.62.25,3.66,0,5.41-2.23-1.95-7.22-2.14-8.11-2.71Z"/>
      <path class="cls-2" d="M151.58,158.54l-2.55,1.55,2.55,9.25-10.85-1.37,2.58-7.88-2.55-1.55c3.51-4.11,6.86-4.67,10.83,0Z"/>
      <path class="cls-5" d="M78.5,50.42l-4.06,5.39c-6.79-5.52-2.89-4.43,1.35-8.09-.17,1.73,1.16,2.41,2.71,2.7Z"/>
      <path class="cls-5" d="M78.5,239.63c-1.53.26-2.88.99-2.71,2.7-1.4-1.21-4.23-1.86-5.39-4.05l4.04-4.03,4.06,5.39Z"/>
      <path class="cls-5" d="M135.34,239.63l1.36-2.69h6.76c.35,3.31-4.42,4.16-5.41,5.4.18-1.71-1.18-2.44-2.71-2.7Z"/>
      <path class="cls-5" d="M138.05,47.71c1.65,1.43,5.56,2.12,5.41,5.4h-6.76s-1.36-2.69-1.36-2.69c1.54-.29,2.88-.97,2.71-2.7Z"/>
      <path class="cls-5" d="M75.79,142.32h2.71l-4.06,5.39-4.06-5.37c1.67-.34,4.3.49,5.42-.01Z"/>
      <path class="cls-5" d="M138.05,142.32c1.8.02,3.62-.03,5.41.01v2.68s-6.69-.08-6.69-.08l-1.43-2.62c.86-.11,1.83,0,2.71,0Z"/>
    </g>
  </g>
</svg>