<?xml version="1.0" encoding="UTF-8"?>
<svg id="Layer_2" data-name="Layer 2" xmlns="http://www.w3.org/2000/svg" viewBox="0 0 216.25 287.5">
  <defs>
    <style>
      .cls-1 {
        fill: #3a3a3a;
      }

      .cls-2 {
        fill: #fff;
      }

      .cls-3 {
        fill: #0c0c0c;
      }

      .cls-4 {
        fill: #fe1014;
      }

      .cls-5 {
        fill: #fe0c11;
      }

      .cls-6 {
        fill: #fe2327;
      }
    </style>
  </defs>
  <g id="Layer_1-2" data-name="Layer 1">
    <g>
      <rect class="cls-2" x="1.66" y="2.29" width="210" height="284"/>
      <path class="cls-3" d="M7.83,283.82c-1.77-.7-4.97.39-6.9-2.51L0,4.35C.41,3.03,3.11,0,3.77,0h212.49v286.53c-.4.45-6.37-3.77-10.83-2.7v-2.7l2.22-1.95.49-276.47H5.12l.49,276.47,2.22,1.95v2.7Z"/>
      <path class="cls-1" d="M205.43,281.12v2.7c-.5.12-1.74,2.66-6.5,2.86-62.26,2.58-126.76-1.83-189.15-.65-1.29-.25-1.56-2.05-1.95-2.21v-2.7h197.6Z"/>
      <path class="cls-5" d="M144.75,213.64c2.94-.66,21.45,17.54,22.36,20.58,4.42,14.77-9.5,31.09-20.11,14.56l-13.08,7.92c-22.21-16.25-3.38-30.18,10.82-43.06Z"/>
      <path class="cls-5" d="M66.86,122.34c.81,1.07.52,3.24.52,4.71h2.68c.96-11.77,15.68-9.09,20.37-.05,7.38,14.24-14.81,23.06-21.94,32.4-3.45.77-22.28-18.22-22.89-22.9-.78-5.98,1.66-11.79,5.39-16.34,3.37-2.72,13.93-.38,15.87,2.19Z"/>
      <path class="cls-5" d="M105.29,83.79c3.9.6,3.05-4.01,5.29-6.85,7.59-9.62,19.28,1.6,19.28,10.91,0,10.27-17.04,20.12-23.23,28.36-9.26-11.31-30.67-21.7-18.84-37.72,7.35-9.95,15.35-5.62,17.5,5.3Z"/>
      <path class="cls-5" d="M66.86,33.13c.81,1.07.52,3.24.52,4.71h2.68c.96-11.77,15.68-9.09,20.37-.05,7.38,14.24-14.81,23.06-21.94,32.4-3.45.77-22.28-18.22-22.89-22.9-.78-5.98,1.66-11.79,5.39-16.34,3.37-2.72,13.93-.38,15.87,2.19Z"/>
      <path class="cls-5" d="M131.36,30.05c8.82-2.55,11.82,5.76,15.48,4.89,4.9-1.16,14.09-13.72,19.46,2.77,5.29,16.26-9.9,21.66-19.3,32.48-2.94.66-21.45-17.54-22.36-20.58-1.95-6.52-.57-17.46,6.73-19.57Z"/>
      <path class="cls-5" d="M131.25,119.16c8.4-2.56,10.36,4.2,13.66,4.98s15.78-14.49,21.39,2.77c5.29,16.26-9.9,21.66-19.3,32.48-2.92.65-21.5-17.58-22.4-20.57-1.62-5.38,1.03-17.94,6.66-19.65Z"/>
      <path class="cls-5" d="M85.98,253.72c-4.28,3.07-17.55.22-15.91-7.74h-2.67c-1.96,14.46-20.8,9.92-21.76-4.18-1.02-14.91,17.3-14.52,19.06-28.26,4.1-1.02,4.43.93,6.76,2.69,5.87,4.43,22.27,20.54,19.97,27.89-.16.53-5,9.28-5.45,9.6Z"/>
      <path class="cls-4" d="M188.15,202.94c8.73-2.51,18.88,16.95,16.06,21.43-6.97,11.09-11.47.53-13.68.53l-7.88,4.79c-12.74-3.6-1.16-24.84,5.49-26.75Z"/>
      <path class="cls-4" d="M26.75,83.8c-10.8.94-23.1-24.21-11.92-26.95,3.24-.79,6.17,1.91,8.38,1.9,3.92-.02,12.46-4.87,14.35,2.19,2.31,8.64-10.4,15-10.8,22.86Z"/>
      <path class="cls-6" d="M34.89,10.82c.02,8.35-5.11,15.32-7.49,23.59-1.66,5.76,1.45,14.86-8.74,14.24-1.19-10.72,3.21-20.58,8.12-29.72l-13.53,2.69v-10.8s21.64,0,21.64,0Z"/>
      <path class="cls-4" d="M194.59,237.88c.09,6.27-1.32,13.76-3.31,19.66-1.32,3.92-5.98,5.09-4.8,10.06l13.52-2.69v8.1s-21.64,0-21.64,0l10.67-28.62,5.56-6.51Z"/>
    </g>
  </g>
</svg>