<?xml version="1.0" encoding="UTF-8"?>
<svg id="Layer_2" data-name="Layer 2" xmlns="http://www.w3.org/2000/svg" viewBox="0 0 213.9 288.22">
  <defs>
    <style>
      .cls-1 {
        fill: #050505;
      }

      .cls-2 {
        fill: #0f0f0d;
      }

      .cls-3 {
        fill: #3a3a3a;
      }

      .cls-4 {
        fill: #0b0b09;
      }

      .cls-5 {
        fill: #13140f;
      }

      .cls-6 {
        fill: #fff;
      }

      .cls-7 {
        fill: #b7a68b;
      }

      .cls-8 {
        fill: #232322;
      }

      .cls-9 {
        fill: #0c0c0c;
      }
    </style>
  </defs>
  <g id="Layer_1-2" data-name="Layer 1">
    <g>
      <rect class="cls-6" x="1.25" y="3.13" width="210" height="284"/>
      <path class="cls-1" d="M203.01,1.69c5.57-.72,10.47.49,10.89,6.69l-.06,279.83H0L.24,4.56c1.63-.84,3.96.25,5.17-.17v2.7l-2.22,1.95-.49,276.47h201.66c3.07,0,3.94-6.57,4.17-9.35,6.89-83.17-5.48-175.57.02-259.74,2.02-6.26-4.98-8.29-5.55-9.33-.53-.96.36-3.82,0-5.41Z"/>
      <path class="cls-3" d="M203.01,1.69c.36,1.59-.53,4.44,0,5.41H5.41v-2.7c1.05-.36,1.54-2.45,6.51-2.85,61.19-4.98,129.19,4.02,191.09.15Z"/>
      <path class="cls-2" d="M146.18,161.18l2.7,8.1h-10.83l2.7-8.1c-15.34,7.95-24.48-4.65-14.77-18.81,12.17-17.74,22.73-17.85,34.97,0,9.67,14.11.65,26.77-14.77,18.81Z"/>
      <path class="cls-2" d="M69.98,215.81l2,4.95,13.42,2.44c7.93,11.81-8.75,27.8-19.09,32.75-17.24-9.03-38.58-36.61-4.04-35.32l-2.75-5.39,10.45.57Z"/>
      <path class="cls-5" d="M140.76,74.67c.44-1.21-.21-3.7-.01-5.41-8.65,6.1-19.85,1.35-19.04-9.35.73-9.53,14.33-19,20.63-25.7,4.73-1.06,22.38,19.27,22.87,25.7.82,10.69-10.39,15.45-19.04,9.35.2,1.7-.44,4.19-.01,5.41h-5.41Z"/>
      <path class="cls-4" d="M124.01,120.11c-7.21,7.19-17.75-2.92-18.43-2.18l5.4,10.8h-10.82s2.69-10.8,2.69-10.8c-10.85,11.63-22.48,1.24-18.56-11.78.9-2.99,19.47-21.22,22.39-20.56,7.93,7.24,28.31,23.57,17.32,34.53Z"/>
      <path class="cls-9" d="M86.41,160.96l-14.29,2.9c-2.97,7.11-4.73,5.82-12.57,5.41l5.41-8.09c-5.35-.29-8.64,4.23-14.49,2.41-5.5-1.7-8.48-8.7-6.85-14.22,1.21-4.08,19.79-21.96,25.05-20.42,7.47,2.19,23.27,22.69,17.73,32.01Z"/>
      <path class="cls-9" d="M70.38,74.67c-3.96,2.33-5.12,3.94-10.83,2.69l5.41-8.09c-4.57-.62-7.47,3.23-12.11,2.88-9.98-.75-12.36-14.9-6.21-21.21,1.23-1.27,4.36-1.56,6.12-3.21,5.42-5.1,9.77-13.79,17.69-9.64,8.55,4.49,20.32,20.61,15.97,30.95-3.87,2.21-10.03,1.82-13.32,2.92l-5.4-5.41v6.75s2.7,1.36,2.7,1.36Z"/>
      <path class="cls-4" d="M140.76,223.34c1.46.22,3.95.22,5.41,0,5.37-.81,12.73-6.97,17.65,2.64,4.93,9.63-7.66,19.56-14.9,25.78-7.99,6.87-9.83,4.5-16.3-2.73-6.36-7.11-18.66-23.88-3.64-28.1,6.06-1.7,8.49,1.91,11.77,2.41Z"/>
      <path class="cls-5" d="M24.37,80.07l.02,9.24-8.14,1.58,2.69-10.81c-9.5,6.16-13.65-2.77-9.52-10.88,1.55-3.05,8.45-7.54,11.12-10.66,3.73-.84,14.35,10.71,14.75,14.74.84,8.37-4.01,11.39-10.92,6.78Z"/>
      <path class="cls-9" d="M192.18,201.73l-2.69,10.81,10.82-2.71c6.27,12.41-4.85,15.66-12.18,24.31-10.52-9.19-26.8-24.48-1.35-24.32l-2.71-8.09h8.11Z"/>
      <path class="cls-8" d="M189.47,239.57c1.2,10.72-3.22,20.58-8.12,29.72l13.53-2.69v10.8s-21.64,0-21.64,0c1.37-10.97,7.41-20.02,10.67-31.32,1.28-4.44-2.62-7.84,5.56-6.51Z"/>
      <path class="cls-8" d="M32.48,15.21c-.62,12.22-10.53,21.97-8.12,35.15l-8.11-.02c.07-10.41,3.06-20.8,8.12-29.72l-13.53,2.69v-8.1s21.64,0,21.64,0Z"/>
      <path class="cls-3" d="M140.76,223.34l-2.7-10.81h10.82l-2.7,10.81c-1.46.22-3.95.22-5.41,0Z"/>
      <path class="cls-7" d="M73.09,71.97c-1.84.62-2.21,2.41-2.71,2.7l-2.7-1.36v-6.75s5.4,5.41,5.4,5.41Z"/>
      <path class="cls-1" d="M146.17,74.67c.08.23,1.9.26,2.7,1.33l-10.82,1.36c-.68-2.31,2.61-2.41,2.71-2.69h5.41Z"/>
    </g>
  </g>
</svg>