<?xml version="1.0" encoding="UTF-8"?>
<svg id="Layer_2" data-name="Layer 2" xmlns="http://www.w3.org/2000/svg" viewBox="0 0 213.84 286.64">
  <defs>
    <style>
      .cls-1 {
        fill: #191a18;
      }

      .cls-2 {
        fill: #3a3a3a;
      }

      .cls-3 {
        fill: #b7c4d9;
      }

      .cls-4 {
        fill: #13140f;
      }

      .cls-5 {
        fill: #fff;
      }

      .cls-6 {
        fill: #b7a68b;
      }

      .cls-7 {
        fill: #0c0c0c;
      }
    </style>
  </defs>
  <g id="Layer_1-2" data-name="Layer 1">
    <g>
      <rect class="cls-5" x=".63" width="210" height="284"/>
      <path class="cls-7" d="M213.84.11v286.53H0V.11h213.84ZM208.43,5.52c-2.87,1.19-6.15-2.7-6.77-2.7H6.77c-.29,0-4.06,3.77-4.06,4.05v273.01c0,.29,3.77,4.05,4.06,4.05h194.89c.62,0,3.9-3.89,6.77-2.7V5.52Z"/>
      <path class="cls-4" d="M151.58,137.97l-5.41,5.4h6.76s1.36-2.69,1.36-2.69c1.73.37,4.2-.5,6.34.34,9.01,3.52,4.61,21.23-4.96,21.4-7.57.14-4.29-8.22-9.49-8.22l2.69,13.5h-10.82s2.69-10.81,2.69-10.81c-17.8,15.14-29.68-15.19-5.38-16.22-10.22-22.28,23.12-25.23,18.7-4.24-.29,1.37-2.39,1.35-2.48,1.54Z"/>
      <path class="cls-4" d="M70.38,51.46c4.27.8,7.46-3.69,11.72-2.47,15.74,4.49,1.94,33.97-14.42,13.29l5.4,13.5h-10.82s2.69-13.5,2.69-13.5c-4.55-.89-1.33,3.36-4.37,5.52-1.13.8-6.07,2.59-7.43,2.31-15.4-9.24-11.6-22.5,6.4-21.36-11.06-28.44,29.65-21.41,10.82,2.7Z"/>
      <path class="cls-4" d="M108.27,102.82l14.72-2.57c14.04,8.81-6.89,24.89-11.82,18.47-1.25-1.62,1.82-6.12-2.89-5.07l2.41,9.53c-2.58,4.33-5.72,4.49-10.54,3.98l2.69-13.5-4.21,5.56c-22.57,3.64-16.44-21.62-5.19-21.21,2.01.07,5.41,6.32,6.7,4.84,1.86-9.01-7.43-1.44-5.46-12.18,3.53-19.21,35.47-6.14,13.59,12.17Z"/>
      <path class="cls-4" d="M70.38,143.36c4.27.8,7.46-3.69,11.72-2.47,15.74,4.49,1.94,33.97-14.42,13.29l5.4,13.5h-10.82s2.69-13.5,2.69-13.5c-4.57-.91-1.32,3.43-4.36,5.54-17.35,12.03-27.57-27.41,1.66-16.36-19.63-28.12,27.78-28.04,8.12,0Z"/>
      <path class="cls-4" d="M151.58,48.76c-1.15.5-3.75-.33-5.42.01l4.06,5.37,4.06-5.39c17.55-1.04,14.66,23.46-3.9,19.08l-4.21-5.56,2.69,13.5h-9.46s1.34-10.81,1.34-10.81c-27.01,12.62-24.59-23.87,0-13.52.91-4.57-3.43-1.32-5.54-4.35-4.71-6.77-.76-15.68,7.43-16.88,12.7-1.85,14.29,16.21,8.95,18.54Z"/>
      <path class="cls-4" d="M151.58,240.68c5.92,5.11,2.39,10.94-2.67,14.96-11.62,5.87-20.73-10.72-12.89-17.18,1.65-1.36,5.74,1.32,4.73-3.18-24.68,10.32-26.93-26.18,0-13.52l-2.69-10.81h10.82s-2.69,13.5-2.69,13.5l4.21-5.56c13.23-1.7,17.9,3.8,13.53,16.53-2.43,3.5-6.52,2.02-9.63,2.54l-4.06-5.39-4.04,4.03c1.17,2.19,4,2.85,5.39,4.05Z"/>
      <path class="cls-4" d="M70.37,210.96l-2.69,13.51,11.93-8.01c16.97,11.01,9.22,26.1-9.23,18.83,18.83,24.05-21.85,31.21-10.82,2.7-23.75,1.22-19.98-22.98,2.47-18.54l2.93,5.01-2.69-13.5h8.11Z"/>
      <path class="cls-4" d="M94.74,197.43c-14.08-1.67-14.94-18.07-1.35-21.79l9.46,5.57-1.34-10.82,9.47.02-2.7,10.8,9.46-5.57c13.76,4.65,13.07,18.85-1.35,21.79l-6.76-5.42-1.36,5.41c1.79.07,3.61-.07,5.41,0,7.59,11.81-4.04,18.06-14.69,16.34-3.17-.47-5.95-14.33-1.55-16.34,1.1-.51,3.75.34,5.42-.01l-4.06-5.37-4.06,5.39Z"/>
      <path class="cls-4" d="M182.95,238.23c5.96-1.73,15.43.54,17.13,6.94,1.01,3.81-2.28,6.97-2.31,10.4-.06,5.42,6.27,10.12-.14,16.24-6.85,6.55-18.02,4.28-19.12-5.5-.46-4.13,1.65-7.56,1.65-10.76,0-4.73-5.06-15.04,2.8-17.32ZM192.18,243.39h-8.11v10.81h8.11v-10.81ZM192.18,259.61h-8.11v8.1h8.11v-8.1Z"/>
      <path class="cls-1" d="M17.96,11.24c5.58-1.63,12.7,1.44,14.24,6.87,1.21,4.26-1.34,7.42-1.21,10.38.46,10.49,5.83,25.42-13.02,19.88-11.03-3.24-5.07-12.71-5.12-17.68-.05-6.04-5.88-16.25,5.11-19.45ZM27.07,19.04h-10.82v8.1h10.82v-8.1ZM27.06,32.55h-10.82c-1.19,8.3,2.5,11.99,10.82,10.8v-10.8Z"/>
      <path class="cls-4" d="M191.8,200.61c.49.31-.15,3.62,2.03,5.06,4.51,2.98,12.09.23,9.16,9.31-.96,2.96-6.43,3.15-7.53,4.63-1.11,1.49-.47,3.95-1.14,5.55-4.21,10.09-17.26,3.37-10.22-6.09l-8.17-.03c-.98-8.6.62-16.86,10.83-10.79l-2.7-8.1,7.73.47Z"/>
      <path class="cls-1" d="M18.95,78.5c-2.32.24-6.02,5.66-9.54.07-2.19-3.47-1.17-7.13-1.3-10.86l8.17-.03-2.57-6.51c1.54-8.04,22.3-5.3,13.33,6.51l8.17.03c-.13,3.73.89,7.39-1.3,10.86-3.52,5.59-7.22.17-9.54-.07-1.64-.17-3.78-.17-5.41,0Z"/>
      <path class="cls-2" d="M24.36,78.5l2.71,8.1c-2.75-.35-11.59,1.23-10.81-1.33.41-1.34,3.48-3.77,2.69-6.77,1.64-.17,3.78-.17,5.41,0Z"/>
      <path class="cls-6" d="M154.29,237.98c-1.53.26-2.89.99-2.71,2.7-1.4-1.21-4.23-1.86-5.39-4.05l4.04-4.03,4.06,5.39Z"/>
      <path class="cls-6" d="M116.39,197.43c-.79.16-1.88.04-2.71,0-1.8-.08-3.62.06-5.41,0l1.36-5.41,6.76,5.42Z"/>
      <path class="cls-3" d="M94.74,197.43l4.06-5.39,4.06,5.37c-1.66.35-4.31-.5-5.42.01h-2.71Z"/>
      <path class="cls-6" d="M154.29,140.67l-1.36,2.69h-6.76s5.41-5.4,5.41-5.4c-.69,1.42,1.52,2.45,2.71,2.7Z"/>
      <path class="cls-6" d="M151.58,48.76h2.71l-4.06,5.39-4.06-5.37c1.67-.34,4.27.49,5.42-.01Z"/>
      <rect class="cls-3" x="184.07" y="243.39" width="8.11" height="10.81"/>
      <path class="cls-3" d="M27.06,32.55v10.8c-8.31,1.19-12.01-2.5-10.82-10.8h10.82Z"/>
      <rect class="cls-3" x="16.24" y="19.04" width="10.82" height="8.1"/>
    </g>
  </g>
</svg>