<?xml version="1.0" encoding="UTF-8"?>
<svg id="Layer_2" data-name="Layer 2" xmlns="http://www.w3.org/2000/svg" viewBox="0 0 213.84 286.53">
  <defs>
    <style>
      .cls-1 {
        fill: #e5e9f1;
      }

      .cls-2 {
        fill: #fe1417;
      }

      .cls-3 {
        fill: #fff;
      }

      .cls-4 {
        fill: #0c0c0c;
      }

      .cls-5 {
        fill: #fe1014;
      }

      .cls-6 {
        fill: #fe0c11;
      }

      .cls-7 {
        fill: #f0f1f3;
      }

      .cls-8 {
        fill: #fe2327;
      }
    </style>
  </defs>
  <g id="Layer_1-2" data-name="Layer 1">
    <g>
      <rect class="cls-3" x="3.63" y=".84" width="210" height="284"/>
      <path class="cls-4" d="M213.84,0v286.53H0V0h213.84ZM208.43,5.41c-2.87,1.19-6.15-2.7-6.77-2.7H6.77c-.29,0-4.06,3.77-4.06,4.05v273.01c0,.29,3.77,4.05,4.06,4.05h194.89c.62,0,3.9-3.89,6.77-2.7V5.41Z"/>
      <polygon class="cls-5" points="66.32 118.96 83.62 142.35 66.32 167.57 48.85 144.33 66.32 118.96"/>
      <path class="cls-5" d="M66.32,27.05l17.3,23.39-17.3,25.22c-6.09-8.04-9.36-16.56-17.48-23.24l17.48-25.38Z"/>
      <path class="cls-5" d="M66.32,210.86l17.3,25.22-17.3,23.39-17.48-25.38c8.11-6.67,11.39-15.19,17.48-23.24Z"/>
      <path class="cls-5" d="M100.34,170.46c5.1-5.98,20.86,14.73,21.55,20.07-.19,4.09-13.38,22.55-14.98,23.01-3.22.93-11.58-10.67-13.38-13.64-9.39-15.5,1.83-15.99,6.81-29.44Z"/>
      <path class="cls-2" d="M100.34,116.07l-11-20.11c0-4.65,7.89-14.52,11.25-18.49,1.72-2.03,2.55-5.57,6.33-4.48,1.6.46,14.79,18.92,14.98,23.01-.69,5.34-16.45,26.05-21.55,20.07Z"/>
      <path class="cls-5" d="M148.83,256.78c-4.68,5.39-20.5-15.91-21.22-20.69-.5-3.37,12.89-22.09,14.51-22.54,3.88-1.09,17.4,16.73,17.75,20.29.87,8.96-11.74,13.28-11.04,22.94Z"/>
      <path class="cls-5" d="M148.83,29.75c-.69,9.66,11.91,13.98,11.04,22.94-.35,3.56-13.87,21.38-17.75,20.29-1.62-.46-15.02-19.17-14.51-22.54.71-4.78,16.53-26.08,21.22-20.69Z"/>
      <path class="cls-6" d="M142.12,121.64c3.88-1.09,17.4,16.72,17.75,20.29.42,4.31-11.99,22.02-15.07,22.95-3.52,1.06-16.67-17.22-17.19-20.7s12.89-22.09,14.51-22.54Z"/>
      <path class="cls-2" d="M182.95,238.12c9.75-2.83,20.19,3.81,16.96,14.18-.74,2.38-4.46,4.42-4.46,5.85,0,1.69,6.43,4.66,4.75,10.63-5.27,5.96-13.18,10.23-18.96,3.01-5.14-6.43-.89-8.76-1.11-13.64-.23-5.33-5.07-17.74,2.81-20.03ZM192.18,243.28h-8.11v10.81h8.11v-10.81ZM192.18,259.5h-8.11v8.1h8.11v-8.1Z"/>
      <polygon class="cls-8" points="24.34 56.76 32.4 71.41 24.41 82.06 18.97 83.8 10.91 69.15 18.9 58.5 24.34 56.76"/>
      <polygon class="cls-5" points="188.13 202.75 200.21 215.13 188.13 229.74 178.87 217.21 188.13 202.75"/>
      <path class="cls-1" d="M16.24,35.14l10.82-2.7v1.35c1.02,8.01-4.29,12.11-10.82,6.75.44-1.28-.27-3.72,0-5.41Z"/>
      <rect class="cls-7" x="184.07" y="243.28" width="8.11" height="10.81"/>
      <path class="cls-7" d="M24.36,27.03c-2.25-.54-5.58.4-8.13,0l.02-8.1h10.82c-.21,2.64.38,5.51,0,8.1h-2.71Z"/>
      <path class="cls-2" d="M16.95,12.12c9.75-2.83,20.19,3.81,16.96,14.18-.74,2.38-4.46,4.42-4.46,5.85,0,1.69,6.43,4.66,4.75,10.63-5.27,5.96-13.18,10.23-18.96,3.01-5.14-6.43-.89-8.76-1.11-13.64-.23-5.33-5.07-17.74,2.81-20.03ZM26.18,17.28h-8.11v10.81h8.11v-10.81ZM26.18,33.5h-8.11v8.1h8.11v-8.1Z"/>
    </g>
  </g>
</svg>