<?xml version="1.0" encoding="UTF-8"?>
<svg id="Layer_2" data-name="Layer 2" xmlns="http://www.w3.org/2000/svg" viewBox="0 0 213.84 286.62">
  <defs>
    <style>
      .cls-1 {
        fill: #e5e9f1;
      }

      .cls-2 {
        fill: #fe1417;
      }

      .cls-3 {
        fill: #fff;
      }

      .cls-4 {
        fill: #0c0c0c;
      }

      .cls-5 {
        fill: #fe1014;
      }

      .cls-6 {
        fill: #fe0c11;
      }

      .cls-7 {
        fill: #f0f1f3;
      }

      .cls-8 {
        fill: #fe2327;
      }
    </style>
  </defs>
  <g id="Layer_1-2" data-name="Layer 1">
    <g>
      <rect class="cls-3" x="1.63" y="2.29" width="210" height="284"/>
      <path class="cls-4" d="M213.84,0v286.53l-207.14.07c-2.23.3-6.7-2.85-6.7-4.12V0h213.84ZM2.71,281.12h201.66c.29,0,4.06-3.77,4.06-4.05V6.76c0-.29-3.77-4.05-4.06-4.05H6.77c-.29,0-4.06,3.77-4.06,4.05v274.36Z"/>
      <path class="cls-6" d="M64.65,121.98c1.76,2.41-2.22,8.6,3.01,7.77-3.61-9.9,11.72-14.23,17.65-8.13,12.16,12.52-11.05,38.04-18.99,38.04-5.71,0-22.6-19.38-23.11-25.97-.4-5.12,5.37-13.2,10.02-14.51,2.25-.64,10.8,1.94,11.43,2.8Z"/>
      <path class="cls-6" d="M102.29,76.44c.96,1.14.7,3.14.58,4.65h1.34c6.97-8.35,16.1-11,21.69-.05,6.57,12.85-10.58,26.95-19.21,35.1-3.61.81-22.15-18.3-22.84-22.87-.79-5.29.89-15.97,5.36-19.09,3.28-2.29,11.04-.16,13.09,2.26Z"/>
      <path class="cls-6" d="M64.65,32.77c1.76,2.41-2.22,8.6,3.01,7.77-3.61-9.9,11.72-14.23,17.65-8.13,12.16,12.52-11.05,38.04-18.99,38.04-5.71,0-22.6-19.38-23.11-25.97-.4-5.12,5.37-13.2,10.02-14.51,2.25-.64,10.8,1.94,11.43,2.8Z"/>
      <path class="cls-6" d="M108.25,162.18c2.31,13.56,23.42,17.34,18.51,33.32-.35,1.15-5.89,9.98-6.48,10.07-7.96,1.22-11.34-2.87-16.07-8.25-2.45.25-.21,3.56-3.05,5.48-2.14,1.45-7.6,3.2-10.17,2.47-1.61-.46-9.07-10.92-9.39-12.41-1.63-7.59,13.85-23.45,19.89-28,2.34-1.76,2.66-3.71,6.76-2.69Z"/>
      <path class="cls-6" d="M142.34,213.64c2.94-.66,21.45,17.54,22.36,20.58,3.05,10.2-1.27,16.82-9.3,22.48l-10.55-7.64-13.29,7.62c-22.32-16.13-3.4-30.2,10.78-43.03Z"/>
      <path class="cls-6" d="M146.15,37.85c4.4-16.8,21.55-7.21,19.02,9.48-.69,4.58-19.21,23.66-22.82,22.85-9.75-11.09-26.37-17.46-18.43-34.3,5.94-12.58,14.75-4.34,22.23,1.97Z"/>
      <path class="cls-6" d="M146.15,127.05c4.4-16.8,21.55-7.21,19.02,9.48-.69,4.58-19.21,23.66-22.82,22.85-9.75-11.09-26.37-17.46-18.43-34.3,5.94-12.58,14.75-4.34,22.23,1.97Z"/>
      <path class="cls-6" d="M67.65,245.98h-2.67c-2.02,14.44-20.65,9.99-21.77-4.18-.75-9.51,17.38-20.47,23.1-28.24,4.72,6.53,22.54,18.85,23.17,25.7,1.41,15.2-19.3,22.57-21.84,6.72Z"/>
      <path class="cls-5" d="M185.74,202.94c9.82-2.8,25.59,20.84,10.27,26.76l-7.89-4.79-5.64,4.68c-12.92-1.22-4.84-24.34,3.26-26.65Z"/>
      <path class="cls-5" d="M18.97,83.8c-.4-7.87-13.1-14.22-10.8-22.86,1.88-7.06,10.43-2.22,14.35-2.19,2.21.01,5.18-2.7,8.39-1.91,10.17,2.52-1.39,28.33-11.94,26.96Z"/>
      <path class="cls-8" d="M197.6,259.5h-16.24c1.08-5.42-10.74-21.98,6.8-21.82,19.19.19,8.44,16.84,9.44,21.82ZM192.18,243.28h-8.11v8.1h8.11v-8.1Z"/>
      <path class="cls-2" d="M13.53,29.73c2.13.5,2.52-2.67,2.71-2.7,3.33-.51,7.34.37,10.84,0v-5.41c1.05,3.85,5.53,7.53,5.61,14.89.18,17.32-24.68,16.07-21.91-2.75.42-2.84,2.71-3.79,2.75-4.03ZM27.07,32.44h-10.82v8.1h10.82v-8.1Z"/>
      <path class="cls-5" d="M184.07,259.5v8.12h8.12v-8.12h5.42c.08.39,1.83.82,2.22,2.06,2.48,7.91-1.97,4.9-4.03,6.93-1.89,1.86.78,4.32-4.8,4.67-8.03.5-13.34-.75-12.39-9.65.29-2.77,2.72-3.77,2.77-4.01h2.71Z"/>
      <path class="cls-8" d="M13.53,29.73c.86-4.78-6.96-9.86,1.23-16.35,4-3.17,7.28-2.93,12.3-2.57.15,1.78-.17,3.63,0,5.41-8.28-1.16-11.88,2.68-10.83,10.81-.19.03-.58,3.2-2.71,2.7Z"/>
      <path class="cls-1" d="M27.07,16.22c.18,1.75-.39,4.01,0,5.41v5.41c-3.48.37-7.5-.52-10.83,0-1.06-8.13,2.54-11.97,10.83-10.81Z"/>
      <rect class="cls-7" x="16.24" y="32.44" width="10.82" height="8.1"/>
    </g>
  </g>
</svg>