<?xml version="1.0" encoding="UTF-8"?>
<svg id="Layer_2" data-name="Layer 2" xmlns="http://www.w3.org/2000/svg" viewBox="0 0 213.84 286.53">
  <defs>
    <style>
      .cls-1 {
        fill: #191a18;
      }

      .cls-2 {
        fill: #414141;
      }

      .cls-3 {
        fill: #87722b;
      }

      .cls-4 {
        fill: #f5f5f6;
      }

      .cls-5 {
        fill: #e5e9f1;
      }

      .cls-6 {
        fill: #0f0f0d;
      }

      .cls-7 {
        fill: #dab924;
      }

      .cls-8 {
        fill: #3a3a3a;
      }

      .cls-9 {
        fill: #b7c4d9;
      }

      .cls-10 {
        fill: #fe1417;
      }

      .cls-11 {
        fill: #13140f;
      }

      .cls-12 {
        fill: #fff;
      }

      .cls-13 {
        fill: #c4a025;
      }

      .cls-14 {
        fill: #172680;
      }

      .cls-15 {
        fill: #b7a68b;
      }

      .cls-16 {
        fill: #c71618;
      }

      .cls-17 {
        fill: #802121;
      }

      .cls-18 {
        fill: #232322;
      }

      .cls-19 {
        fill: #0c0c0c;
      }

      .cls-20 {
        fill: #fe1014;
      }

      .cls-21 {
        fill: #fe0c11;
      }

      .cls-22 {
        fill: #f2d621;
      }

      .cls-23 {
        fill: #585858;
      }

      .cls-24 {
        fill: #f0f1f3;
      }

      .cls-25 {
        fill: #fe2327;
      }

      .cls-26 {
        fill: #95a4ca;
      }

      .cls-27 {
        fill: #6874af;
      }
    </style>
  </defs>
  <g id="Layer_1-2" data-name="Layer 1">
    <g>
      <rect class="cls-12" x="2.84" y=".84" width="210" height="284"/>
      <path class="cls-19" d="M213.84,0v286.53H0V0h213.84ZM208.43,5.41c-2.87,1.19-6.15-2.7-6.77-2.7H6.77c-.29,0-4.06,3.77-4.06,4.05v273.01c0,.29,3.77,4.05,4.06,4.05h194.89c.62,0,3.9-3.89,6.77-2.7V5.41Z"/>
      <path class="cls-6" d="M173.24,29.73c.23,1.71-1.16,2.58-2.71,2.7-9.45.76-12.08-.42-21.65,2.7-.51.17-2.19.17-2.71,0-10.47-3.41-15.86-2.68-27.07-2.7-1.8,0-3.61,0-5.41,0-9.9-.02-19.88-.02-29.78,0-2.71,0-5.41,0-8.12,0-12.61.03-25.3-.02-37.9,0,.37,24.28-.48,48.71,0,72.99.04,1.8-.05,3.61,0,5.41.09,3.25,2.75,7.09,2.71,8.11-.19,4.68-3.43,1.91,0,10.81.82,2.11-2.47,6.31-2.71,8.11-.33,2.57.11,5.45.05,8.07,1.65.52,4.23-.43,5.36.04v5.43s-5.4-2.74-5.4-2.74c-.07,1.79.08,3.63,0,5.43s.01,3.61,0,5.41-.1,3.62,0,5.41-.12,3.62,0,5.41c.1,1.55,3.39,4.87,2.71,8.11-.94,4.46-2.66,5.88-2.71,13.52-.08,13.33-1.15,29.02-.03,41.98.17,1.99.39,4.38,2.74,3.97-.1,1.41-2.39,4.65-2.71,8.11-.24,2.66.14,5.44,0,8.11,6.75-.28,13.63.47,20.39-.02,2.76-.2,3.68-2.59,3.98-2.69.51-.17,2.19-.17,2.71,0,9.76,3.18,13.86,2.69,24.36,2.7.9,0,1.8,0,2.71,0,1.8.01,3.61.01,5.41,0,9-.05,18.07.07,27.07,0,4.01-.03,5.11-2.66,5.41-2.7,2.96-.45,7.8,2.74,12.08,2.8,9.42.15,18.93-.08,28.31-.31,3.01-6.47,2.59-12.03,2.92-18.71.04-.9-.04-1.8,0-2.7.41-9.83-.05-19.88,0-29.73.04-8.05-.42-16.31,0-24.33h2.71v78.39H35.19V29.73h138.05Z"/>
      <path class="cls-18" d="M175.95,164.89h-2.71c1.03-2.81-2.47-4.72-2.71-5.41-.45-1.3.28-3.7-.01-5.4l-8.11,5.4c.14-.75.1-1.93,0-2.7-.12-.96.26-2.09,0-2.7,12.26-7.14,8.41-15.4,5.41-27.03,7.82-2.19,2.84-5.62,2.71-8.11-.02-.46,3.74-2.75-1.34-8.22-2.71-2.92-5.3-1.82-6.78-2.59-2.16-3.09-7.26-10.7-10.83-10.81-.17-1.77.12-3.62,0-5.41h13.53c.43,1.74.09,3.01,2.71,2.7,4.67-2.43,2.66-10.39,2.7-14.88.13-13.06,0-26.16,0-39.19v-8.11c1.55-.12,2.93-1,2.71-2.7l2.59,1.42.12,133.73Z"/>
      <path class="cls-25" d="M189.48,243.28c.59,3.04,1.12,11.02,5.4,10.81l-2.69-16.21h13.53c-2.82,8.81-3.2,16.29-2.55,25.53.19,2.73,2.87,6.05,2.47,8.07-.94,4.78-13.23,6.02-13.47,2.86l2.71-12.15c-6.36,1.79-5.5,8.34-5.48,13.49l-10.75.02c-1.68-8.69,5.97-12.03,10.8-17.57-7.65-4.7-6.3-8.76-8.1-14.87h8.12Z"/>
      <path class="cls-20" d="M16.24,13.52l-2.7,10.81c6.83.83,8.97-4.78,8.12-10.81,3.48.42,7.29-.3,10.82,0,1.67,6.56-1.52,4.37-3.52,5.95-3.33,2.61-11.07,7.41-10.01,11.59,5.94,4.73,12.72,7.56,13.55,16.23.03,2.51-8.02,1.32-10.84,1.36l-6.76-16.23,1.34,16.23c-3.6-.08-7.23.06-10.82,0,.4-7.23,3.11-12.65,2.87-20.33-.18-5.76-2.25-9-2.9-13.45-1.39-9.5,10.2-1.43,10.85-1.35Z"/>
      <path class="cls-1" d="M173.24,164.89h2.71c0,2.7,0,5.41,0,8.11l-2.33,1.6c-.46,1.24-.31,2.52-.38,3.81-7.05-1.25-23.85,13.39-27.07,13.52-.03-4.28-1.21-9.59-2.71-13.52,4.78.91,6.59-3.15,10.83-5.41.71-.38,2.03.38,2.71,0,2.75-1.56,2.54-2.61,2.71-2.7,2.28-1.22,2.54-2.61,2.71-2.7.74-.41,5.13-2.61,5.41-2.7,1.34-.45,3.74.3,5.41,0Z"/>
      <path class="cls-10" d="M194.87,232.47c-7.43.92-8.77-8.25-13.3-12.55l9.26-14.46,12.1,12.37-8.06,14.65Z"/>
      <polygon class="cls-25" points="21.63 54.06 29.69 68.71 21.7 79.36 16.26 81.09 8.2 66.45 16.2 55.79 21.63 54.06"/>
      <path class="cls-5" d="M21.65,48.66c-1.8.03-3.61.04-5.41,0l-1.34-16.23,6.76,16.23Z"/>
      <path class="cls-5" d="M21.65,13.52c.86,6.03-1.28,11.64-8.12,10.81l2.7-10.81c1.76.22,3.65-.21,5.41,0Z"/>
      <path class="cls-21" d="M181.36,243.28c-.1-.33-4.07-.67-2.7-5.4l10.8.02c.32,1.75-.29,3.79.02,5.38h-8.12Z"/>
      <path class="cls-18" d="M175.95,178.4h-2.71c.07-1.28-.08-2.57.38-3.81l2.33-1.6c0,1.8,0,3.6,0,5.41Z"/>
      <path class="cls-4" d="M75.79,32.44c-.22,4.78,7.86,10.17,8.12,10.81.69,1.71-.48,5.74,0,8.12,9.33-4.34,13.34-1.3,21.65,0,4.76.74,8.91,1.75,13.53,2.7-.48,3.27-4.21,2-5.41,2.7-4.18,2.44-2.39,3.99-2.71,8.11-.14,1.78.1,3.62,0,5.41-.2,3.53.45,7.47,0,10.81-.12.88.09,1.81,0,2.7l-5.34.15,2.65,5.25c-13.73,3.68-30.82-8.39-40.62,2.71h-2.71c-1.87-.7-3.75-1.61-5.41-2.7-2.63-1.73-.94-2.87-8.12-5.41-7.89-2.79-9.82-4.49-10.91,6.68-.54,5.54-1.17,7.97,5.5,6.82-3.16-9.59-3.85-6.95,5.42-10.81l8.12,2.7c.3,1.67-.46,4.09,0,5.41-6.29,1.5-13.27,7.63-18.95,10.81h-2.71c-.49-24.28.37-48.71,0-72.99,12.61-.01,25.3.04,37.9,0ZM54.11,37.84c-6.01-.84-4.33-.18-5.9,3.5s-7.17,10.7-7.17,11.37c0,1.23,3.59,3.69,4.6,5.8,2.38,4.98,4.68,15.68,9,5.57,1.9-4.45,3.88-7.69,7.03-11.33l-7.56-14.91ZM100.15,54.07h-10.82v2.68h10.82v-2.68ZM94.74,64.86l-5.4-5.4v5.4s5.4,0,5.4,0ZM83.91,83.8h16.24l2.7-1.36v-6.75s-5.4,0-5.4,0l2.71,5.4c-5.53.7-7.69-2.88-8.3-7.99l-7.94,2.58c.56-4.88,1.74-8.81,2.7-13.51-5.35-1.11-5.88.69-6.85,5.37-1.04,5-.53,13.57,4.15,16.25Z"/>
      <path class="cls-4" d="M140.76,194.62c.5-.27,4.23-.19,5.41,0,1.51.24,3.7,1.98,5.41,2.7.94,3.94,4.15,5.72,8.12,5.41.84.93-.04,2.41,2.71,2.7,4.2.45,4.69-2.45,5.41-2.7,1.31-.46,3.74.31,5.41,0-.05,9.85.41,19.9,0,29.73h-2.71l-13.52-13.52c.89,6.56-8.31,9.19-8.31,14.87s9.2,8.3,8.31,14.87l13.52-13.52h2.71c-.33,6.69.09,12.25-2.92,18.71-9.38.23-18.89.46-28.31.31-4.28-.07-9.12-3.25-12.08-2.8.47-6.18-2.16-12.19-6.79-16.2-1.08-.14-.94,2.35-1.33,2.68-10.98,1.82-19.61-3.06-29.78-5.41,12.37-7.44,8.49-14.7,5.51-25.84-.3-1.12,10.48-.23,2.61-9.3.32-.1.57-2.08,1.77-2.2,3.04-.29,6.71,2.35,10.43,2.42,5.74.1,24.66,1.9,25.83,1.18,1.73-1.07,2.16-3.88,2.56-4.1ZM110.98,202.73c-3.08,1.11-6.1,3.34-5.42,6.75l5.42,1.36v-5.4s8.3,8.05,8.3,8.05l7.86-2.62.14,1.67,2.67-.33-4.45-9.63c-3.01-1.89-11.33-.99-14.52.16ZM116.39,221.65c-11.19-.56-5.36,4.65-13.53,5.42v2.68c2.68.18,5.45-.22,8.12.01l2.18,2.17c1.87.72,3.99.93,5.94.53,2.56-.52,3.83-2.13,5.2-4.12.11-.91-2.44-1.11-2.49-1.28-1.44-4.8,2.91-4.99-5.41-5.41Z"/>
      <path class="cls-5" d="M54.14,194.62c2.46,3.96,7.05,2.52,10.83,2.7-.98,9.87.21,16.06,5.41,24.33v8.11c0,.86.15,1.88,0,2.7-.17.94.27,2.02,0,2.7-1.3,3.31-9.08,9.88-8.12,16.22-.3.1-1.22,2.49-3.98,2.69-6.77.49-13.65-.26-20.39.02.15-2.67-.23-5.45,0-8.11l5.17-.25c.95-1.62-.17-3.95.24-5.15.49-1.44,4.39-3.62,2.72-8.11,3.61,3.28,6.98,3.75,10.82,5.41.19.08.31,2.81,1.33,2.68,3.81-2.44,3.56-4.37,4.08-8.09.23-1.65,0-3.64,0-5.41.02-3.9.44-7.85-.45-11.72-1-4.29-4.02-5.39-4.96-7.2-.52-1,.32-3.75-.01-5.4h-2.69c.06,3.58-.14,7.22-.01,10.8-2.62,2.4-7.05,5.43-10.83,5.41,0-7.48-2.16-19.39,2.71-24.33,2.48.36,5.46-.13,8.12,0Z"/>
      <path class="cls-24" d="M170.53,32.44v8.11c-1.57.29-1.93,1.94-2.71,2.7-.9.88-1.73,1.1-2.71,2.7-1.46,2.4-3.83,3.62-2.77,8.14l-5.35-2.73v-8.1s-4.05,0-4.05,0l-1.36,2.69c-5.87,11.02-4.23,18.77,0,29.73.86,2.22,2.63,8.2,4.06,8.12l1.34-.02c.11-2.68-.12-5.42.01-8.1.09-1.79,0-3.61,0-5.41h2.71c.86,4.24,4.61,10.27,3.08,17.26l2.33,1.66c.06.93-.19,1.95,0,2.7h-8.12c-1.09-1.47-10.18-5.3-10.83-5.41l-.17-3.89c-.43-1.2-2.51-1.37-2.54-1.52-1.14-5.69-2.14-17.79-2.71-24.33-.07-.83-.11-1.88,0-2.7.13-.95-.25-2.04,0-2.7,1.29-3.36,7.55-10.3,8.12-16.22,9.57-3.12,12.2-1.94,21.65-2.7Z"/>
      <path class="cls-7" d="M64.96,94.61l.54,5.94,2.16,2.17c-.08,1.77-.08,3.63,0,5.41,1.78-.13,3.62,0,5.41,0,.29,1.54-.02,3.65,0,5.41.12,9.24,1.49,12.58,2.71,21.62.12.89-.12,1.82,0,2.7,1.06,7.56-3.06,16.61,4.06,21.6,2.26-1.37,2.89-3.5,4.06-5.39,3.28-5.31,2.24-4.73,2.71-10.81h2.71c0,1.8.01,3.6,0,5.41,0,.89.11,1.83,0,2.7-.59,4.86-1.36,8.84-2.71,13.52s-3.79,9.06-5.41,13.5c3.65-.74,10.97,1.09,13.53.01v8.1s2.7,0,2.7,0v-6.75s-2.7-1.36-2.7-1.36c.53-.22,3.12-5.68,8.12-8.11v2.7c6.87,8.78,19.01,5.07,16.52-6.49.2-2.05,1.39-1.31,2.43-1.62.03,2.7-.1,5.41,0,8.11.11,3.01-.51,6.07.39,9.06l2.32,1.75c-.06.89.13,1.83,0,2.7-.18,1.24.41,2.72-.12,3.93l-2.59,1.47c1.02-2.83-2.46-4.7-2.71-5.41-.43-1.22.56-3.6-.1-5.25l-1.34-.25c-10.21-1.42-8.94,3.42-12.09,5.5-2.42,1.6-9.37-.14-8.12,8.11-11.87.79-25.86.34-37.9,0-4.59-6.18-10.97-15.34-18.95-16.22.69-3.24-2.61-6.56-2.71-8.11,1.61,1,4.07,1.56,5.41,2.7,1.49,1.27,15.25,14.65,16.23,13.51.44-7.14,5.96-12.54,8.13-18.92,9.49-27.8,1.15-34.51,0-59.47-.89.06-1.85-.15-2.71,0,.59,10.09-9.24,24.02-16.03,31.41-1.05,4.73,8.05,13.28,10.62,17.24,1.6,2.46,2.66,5.12,2.71,8.11-3.93-1.22-4.92.77-8.12-5.41-2.75-4.49-6.27-11.59-10.83-13.52-1.13-.47-3.7.48-5.36-.04.05-2.62-.39-5.49-.05-8.07,8.84-4.77,14.33-14.64,16.24-24.33,3.49-1.63,3.54-4.16,10.83-5.41-.34-5.78-3.77-8.81-5.41-13.52,1.53-.37,3.69.25,5.41,0ZM75.79,167.6h-5.41s0,5.4,0,5.4l5.4-5.4ZM75.79,175.71c-12.41-2.44-5.9,4.17-8.61,7.64-.47.6-10.08.85-4.91,5.86,1.14,1.11,12.37-4.46,16.23,2.71,2.28-7.66-6-4.99-8.1-9.48-2.85-6.08,6.63-2,5.4-6.73ZM82.56,181.11c-1.76,0-1.76,2.7,0,2.7s1.76-2.7,0-2.7ZM89.32,186.52h-5.4v5.4h5.4v-5.4Z"/>
      <path class="cls-9" d="M173.24,178.4c-.42,8.02.04,16.28,0,24.33-1.67.31-4.1-.46-5.41,0v-10.81s-2.7,0-2.7,0l-2.72,13.51c-2.75-.3-1.86-1.77-2.71-2.7-.78-.86-.89-2.97-2.66-4.11-2.17-1.4-4.28-.8-5.46-1.3-1.72-.73-3.9-2.46-5.41-2.7v-2.7c3.22-.13,20.01-14.76,27.07-13.52Z"/>
      <path class="cls-18" d="M64.96,108.12c-7.29,1.24-7.34,3.78-10.83,5.41-2.2,1.03-3.17,1.43-5.41,2.7-1.76,1-3.57,1.89-5.41,2.7h-2.71c.04-1.02-2.62-4.86-2.71-8.11h5.43s-2.72-5.41-2.72-5.41c5.68-3.18,12.66-9.31,18.95-10.81,1.64,4.71,5.07,7.73,5.41,13.52Z"/>
      <path class="cls-13" d="M86.62,237.87l2.71,16.22c-10.5-.02-14.6.47-24.36-2.7l8.12-13.52c3.91.32,9.76.48,13.53,0Z"/>
      <path class="cls-7" d="M146.17,35.14c-3.81,6.22-10.43,4.57-8.12,13.52-1.43-.39-3.66.22-5.41,0l2.71-5.4-4.05-.02h-1.36s0,5.41,0,5.41c-1.7-.11-3.46.5-5.12-.21l-5.71-16.01c11.21.02,16.6-.71,27.07,2.7Z"/>
      <path class="cls-13" d="M124.52,254.09c-9,.07-18.07-.05-27.07,0,.09-1.79-.14-3.62,0-5.41,5.19-10.29,26.71-7.56,27.07,5.41Z"/>
      <path class="cls-17" d="M83.91,32.44l9.35,9.99c5.9-3.03,10.32-1.37,16.16.63l1.56-2.5h5.41s.02,5.4.02,5.4l-8.13,2.71c-.87-.17-1.83.16-2.71,0-.24-.04-1.05-2.25-3.96-2.71-5.79-.9-12.37,1.56-17.69-2.7-.26-.64-8.34-6.03-8.12-10.81,2.71,0,5.41,0,8.12,0Z"/>
      <path class="cls-7" d="M113.69,32.44l-2.71,8.11-1.56,2.5c-5.84-2-10.25-3.66-16.16-.63l-9.35-9.99c9.9-.02,19.88-.02,29.78,0Z"/>
      <path class="cls-16" d="M119.1,32.44l5.71,16.01c1.66.72,3.43.1,5.12.21.9.06,1.82-.11,2.71,0,1.75.22,3.98-.39,5.41,0,.35.1,1.34,2.47,2.71,2.7-.25.66.13,1.75,0,2.7l-32.48-5.41,8.13-2.71-.02-5.39h-5.41s2.71-8.11,2.71-8.11c1.8,0,3.61,0,5.41,0Z"/>
      <path class="cls-8" d="M59.55,194.62c-1.8-.05-3.62.09-5.41,0-2.66-.13-5.64.36-8.12,0-.3-.04-2.82-3.77-5.41-2.7h-2.71c.05-7.63,1.76-9.06,2.71-13.52,7.98.88,14.36,10.04,18.95,16.22Z"/>
      <path class="cls-17" d="M129.93,251.39c-.3.05-1.4,2.67-5.41,2.7-.36-12.97-21.87-15.7-27.07-5.41.3-3.96.07-7.37,2.71-10.81,8.13,1.08,14.25,6.35,21.65,0,.39-.33.25-2.82,1.33-2.68,4.63,4.01,7.26,10.02,6.79,16.2Z"/>
      <path class="cls-13" d="M46.02,194.62c-4.87,4.94-2.7,16.85-2.71,24.33s0,14.44,0,21.62c-.41,1.2.71,3.53-.24,5.15l-5.17.25c.31-3.46,2.61-6.7,2.71-8.11,1.07-14.92-.77-30.89,0-45.95,2.59-1.07,5.11,2.66,5.41,2.7Z"/>
      <path class="cls-17" d="M54.14,159.48c2.29,3.73,2.47,13.93,10.83,8.11h2.71c-2.18,6.38-7.69,11.78-8.13,18.92-.98,1.14-14.73-12.24-16.23-13.51.31-3.97-1.47-7.17-5.41-8.11-.1-1.78-.01-3.61,0-5.41,8.56-2.31,5.59,10.37,8.24,13.45,2.19,2.54,11.54.16,8.04-6.7l-16.28-12.15c.08-1.8-.06-3.63,0-5.43l5.4,2.74v-5.43c4.56,1.92,8.08,9.03,10.84,13.52Z"/>
      <path class="cls-13" d="M37.9,154.08l16.28,12.15c3.51,6.86-5.85,9.25-8.04,6.7-2.65-3.08.32-15.75-8.24-13.45.01-1.8-.08-3.61,0-5.41Z"/>
      <path class="cls-21" d="M40.6,237.87c-2.35.41-2.57-1.98-2.74-3.97-1.12-12.96-.05-28.65.03-41.98h2.71c-.77,15.06,1.07,31.03,0,45.95Z"/>
      <path class="cls-2" d="M54.14,113.53c-1.91,9.68-7.4,19.56-16.24,24.33.23-1.8,3.52-5.99,2.71-8.11,2.68-1.15,2.44-3,2.71-5.41,3.95-.93,5.73-4.14,5.41-8.11,2.25-1.28,3.21-1.68,5.41-2.7Z"/>
      <path class="cls-17" d="M148.88,35.14c-.57,5.92-6.83,12.86-8.12,16.22-1.36-.23-2.35-2.61-2.71-2.7-2.31-8.94,4.31-7.3,8.12-13.52.51.17,2.19.17,2.71,0Z"/>
      <path class="cls-25" d="M100.15,237.87c-2.64,3.44-2.4,6.85-2.71,10.81-.14,1.78.09,3.61,0,5.41-1.8.01-3.61.01-5.41,0v-16.22c2.64.23,5.54-.34,8.12,0Z"/>
      <path class="cls-2" d="M73.09,237.87l-8.12,13.52c-.51-.17-2.19-.17-2.71,0-.96-6.34,6.82-12.91,8.12-16.22-.14,2.03.83,2.55,2.71,2.7Z"/>
      <path class="cls-17" d="M92.03,237.87v16.22c-.9,0-1.8,0-2.71,0l-2.71-16.22c1.59-.2,2.93-.95,2.71-2.7l2.71,2.7Z"/>
      <path class="cls-15" d="M43.31,124.34c-.27,2.4-.03,4.25-2.71,5.41-3.43-8.91-.19-6.13,0-10.81h2.71c-.13,1.78.2,3.64,0,5.41Z"/>
      <path class="cls-16" d="M43.31,173c-1.34-1.14-3.8-1.7-5.41-2.7-.12-1.79.1-3.61,0-5.41,3.95.93,5.73,4.14,5.41,8.11Z"/>
      <path class="cls-17" d="M40.6,105.42l2.72,5.4h-5.43c-.05-1.79.04-3.6,0-5.4h2.71Z"/>
      <path class="cls-9" d="M173.24,235.17h-2.71v-2.7h2.71c-.04.9.04,1.8,0,2.7Z"/>
      <path class="cls-7" d="M143.46,108.12c1.03,4.58-.95,6.02-5.41,5.42v2.68c9.61-.4,11.12,2.93,13.53,10.82,1.77.19,3.63-.12,5.41,0,1.58,4.26,4.14,16.98,10.84,12.15-2.15-6.29-7.12-12.16-10.84-17.56-2.4-3.49-4.35-9.34-5.41-10.81v-2.7h2.71c-1.77,7.83,4.13,4.52,5.41,5.41.45.31,1.56,8.55,3.02,10.58l5.1.23c.27.76-.23,1.82,0,2.7,3,11.63,6.85,19.9-5.41,27.03-.52-1.2-4.04-4.12-5.41-5.41.8-.95,1.13-3.16,2.58-4.1.1-.86-2.31-.9-2.58-1.31-4.24-6.51-3.65-10.45-5.41-16.22-2.12-.22-7.47-1.33-8.12-2.7-.51-1.07.37-3.76,0-5.41-4.79-1.42-5.01,2.53-5.41,2.71-.76.33-1.94-.32-2.71,0-1.74.74-4.83,3.38-5.4,2.7v-5.39s5.21-.25,5.21-.25l-2.38-7.69c4.64.63,5.39-2.72,7.99-5.59l2.71,2.7Z"/>
      <path class="cls-13" d="M162.41,154.08c.26.61-.12,1.74,0,2.7-6.13,2.52-8.43,10.05-8.12,16.22-4.23,2.25-6.05,6.32-10.83,5.41,1.5,3.93,2.68,9.24,2.71,13.52-1.44.06-3.78-2.1-5.41-2.7-1.03-9.39-9.58-18.59-10.83-29.73h2.71c.87,2.96,9.8,16.24,10.83,18.92-2.58-2.51,6.97-23.02,9.58-27.02,1.17-1.8,3.43-2.09,3.95-2.72,1.37,1.29,4.89,4.2,5.41,5.41Z"/>
      <path class="cls-25" d="M167.82,94.61v-51.36c.77-.76,1.13-2.41,2.71-2.7,0,13.03.12,26.13,0,39.19-.04,4.48,1.97,12.44-2.7,14.88Z"/>
      <path class="cls-26" d="M146.17,86.5c.64.11,9.74,3.93,10.83,5.41h-13.53c-6.28,0-12.69-.28-18.95,0l1.35-13.53c2.77-.07-.08,9.09,5.61,10.69s11.05-3.18,14.7-2.57Z"/>
      <path class="cls-15" d="M167.82,94.61c-2.62.31-2.27-.96-2.71-2.7-.19-.75.06-1.77,0-2.7-.5-7.94,0-16.32,0-24.33v-18.92c.98-1.6,1.81-1.82,2.71-2.7v51.36Z"/>
      <path class="cls-15" d="M170.53,159.48l-2.71,5.41c-.29.1-4.68,2.3-5.41,2.7h-2.71v-2.7c.68-1.39,1.84-.86,2.71-5.41l8.11-5.4c.29,1.7-.44,4.11.01,5.4Z"/>
      <path class="cls-13" d="M170.53,118.94c-6.76-1.17-6.44-8.41-8.12-10.81,1.48.77,4.07-.33,6.78,2.59,5.08,5.47,1.32,7.76,1.34,8.22Z"/>
      <path class="cls-22" d="M151.58,91.9c.12,1.78-.17,3.63,0,5.41l-2.71,2.7c-3.95-.93-5.73-4.14-5.41-8.11h8.12Z"/>
      <path class="cls-16" d="M162.41,108.12c1.68,2.41,1.36,9.64,8.12,10.81.13,2.49,5.12,5.92-2.71,8.11-.23-.88.27-1.95,0-2.7-2.31-6.49-4.43-6.96-8.12-10.81-1.45-1.51-1.84-5.04-5.41-5.41h-2.71c-.61-1.77-2.4-3.77-2.71-5.41-.16-.87.12-1.82,0-2.7l2.71-2.7c.79,8.12,4.61,7.56,10.83,10.81Z"/>
      <path class="cls-7" d="M162.41,108.12c-6.22-3.25-10.04-2.69-10.83-10.81,3.56.11,8.66,7.72,10.83,10.81Z"/>
      <path class="cls-14" d="M162.41,159.48c-.87,4.54-2.03,4.02-2.71,5.41-.84,1.72-4.48,3.35-2.71,8.11-.68.38-2-.38-2.71,0-.31-6.17,1.99-13.7,8.12-16.22.1.77.14,1.95,0,2.7Z"/>
      <path class="cls-17" d="M173.24,164.89c-1.68.3-4.07-.45-5.41,0l2.71-5.41c.24.69,3.73,2.6,2.71,5.41Z"/>
      <path class="cls-17" d="M159.7,167.59v2.7c-.17.09.04,1.14-2.71,2.7-1.77-4.76,1.87-6.39,2.71-8.11v2.7Z"/>
      <path class="cls-14" d="M159.7,170.29v-2.7h2.71c-.17.09-.42,1.48-2.71,2.7Z"/>
      <path class="cls-9" d="M129.93,56.76l2.72,21.64,4.13-2.34,6.69,5.02c.03.14,2.1.32,2.54,1.52l.17,3.89c-3.65-.61-8.97,4.19-14.7,2.57s-2.84-10.76-5.61-10.69l-1.35,13.53c-.9.04-1.81-.05-2.71,0l-.17-6.58-2.54-1.53c-.9-.07-1.82.1-2.71,0-.08-1.79.06-3.62-.01-5.41l-5.4,2.7c.45-3.34-.2-7.28,0-10.81l8.11,5.4-2.69-10.82,8.11-8.09c1.6.29,3.63-.11,5.41,0ZM127.21,67.57v-8.1h-2.69v8.1h2.69Z"/>
      <path class="cls-26" d="M110.98,83.8c1.78.13,3.65-.19,5.41,0,.12,2.69-.08,5.41,0,8.11-3.58.27-6.36,2.5-8.12,2.7-7.17.84-16.14-2.69-21.65,2.7-2.69,2.63-3.54,3.38-2.71,8.11-.05-.38-4.72-3.88-5.41-5.41-.48-1.06.52-3.67-.1-5.31l-8.01-.09c-1.78,5.35,2.01,9.79,2.7,13.51-1.79,0-3.64-.13-5.41,0-.08-1.77-.08-3.63,0-5.41.16-3.52.31-6.45,2.24-9.56l-2.24-1.26c9.81-11.1,26.89.97,40.62-2.71l-2.65-5.25,5.34-.15Z"/>
      <path class="cls-20" d="M54.11,37.84l7.56,14.91c-3.16,3.63-5.13,6.87-7.03,11.33-4.32,10.11-6.63-.58-9-5.57-1.01-2.11-4.6-4.57-4.6-5.8,0-.67,5.54-7.56,7.17-11.37s-.11-4.34,5.9-3.5Z"/>
      <path class="cls-6" d="M140.76,54.06c-.11.82-.07,1.87,0,2.7-3.59-.15-7.25.23-10.83,0-1.78-.11-3.81.29-5.41,0-.3-.05-1.75-1.95-5.41-2.7-4.63-.96-8.78-1.97-13.53-2.7v-2.7c.87.16,1.84-.17,2.71,0l32.48,5.41Z"/>
      <path class="cls-27" d="M83.91,75.69l7.94-2.58c.6,5.11,2.77,8.68,8.3,7.99v2.7h-16.24c.2-2.66-.3-5.49,0-8.11Z"/>
      <path class="cls-26" d="M124.52,56.76l-8.11,8.09,2.69,10.82-8.11-5.4c.1-1.79-.14-3.62,0-5.41l5.28-4.05-2.57-4.05c1.2-.7,4.93.57,5.41-2.7,3.66.76,5.12,2.65,5.41,2.7Z"/>
      <path class="cls-27" d="M51.43,83.8v2.7c-9.27,3.86-8.58,1.21-5.42,10.81-6.66,1.15-6.04-1.28-5.5-6.82,1.09-11.18,3.02-9.47,10.91-6.68Z"/>
      <path class="cls-8" d="M105.57,48.66v2.7c-8.31-1.29-12.32-4.33-21.65,0-.49-2.38.68-6.41,0-8.12,5.32,4.27,11.9,1.8,17.69,2.7,2.91.45,3.73,2.66,3.96,2.71Z"/>
      <path class="cls-26" d="M83.91,83.8c-4.68-2.68-5.19-11.24-4.15-16.25.97-4.68,1.51-6.48,6.85-5.37-.97,4.7-2.14,8.63-2.7,13.51-.3,2.62.2,5.45,0,8.11Z"/>
      <path class="cls-14" d="M59.55,89.2l-8.12-2.7v-2.7c7.18,2.54,5.49,3.68,8.12,5.41Z"/>
      <path class="cls-14" d="M67.67,102.72l-2.16-2.17-.54-5.94v-2.7h2.71l2.24,1.26c-1.93,3.11-2.08,6.03-2.24,9.56Z"/>
      <rect class="cls-14" x="89.33" y="54.07" width="10.82" height="2.68"/>
      <path class="cls-9" d="M110.98,64.87c.32-4.12-1.47-5.67,2.71-8.11l2.57,4.05-5.28,4.05Z"/>
      <polygon class="cls-26" points="100.15 81.09 97.45 75.7 102.86 75.69 102.85 82.44 100.15 83.8 100.15 81.09"/>
      <path class="cls-27" d="M116.39,83.8c-1.77-.19-3.63.13-5.41,0,.09-.89-.12-1.82,0-2.7l5.4-2.7c.07,1.79-.07,3.61.01,5.41Z"/>
      <path class="cls-26" d="M64.96,91.9v2.7c-1.73.25-3.88-.37-5.41,0-.46-1.32.3-3.73,0-5.41,1.66,1.09,3.55,2.01,5.41,2.7Z"/>
      <polygon class="cls-14" points="94.74 64.86 89.33 64.87 89.34 59.47 94.74 64.86"/>
      <path class="cls-9" d="M86.62,200.03l2.71,5.41c4.14.18,4.19-5.97,6.02-7.58,1.59-1.4,3.7-.18,4.8-.52,7.87,9.07-2.91,8.18-2.61,9.3,2.98,11.14,6.86,18.4-5.51,25.84-6.38-1.47-8.51-2.69-16.24-2.7-.43-3.75-4-5.86-5.41-8.11-5.2-8.27-6.39-14.45-5.41-24.33,3.98.19,7.98-.09,12.02.14,2.9.16,7.57,3.28,9.64,2.56Z"/>
      <path class="cls-26" d="M129.93,132.45c.66,8.73-.96,18.51,0,27.03,1.25,11.14,9.8,20.35,10.83,29.73.19,1.76-.13,3.63,0,5.41-.41.22-.83,3.03-2.56,4.1-1.17.72-20.1-1.07-25.83-1.18-3.72-.07-7.4-2.71-10.43-2.42-1.2.12-1.45,2.1-1.77,2.2-1.1.35-3.22-.88-4.8.52-1.83,1.62-1.88,7.77-6.02,7.58v-8.11c-2.27-.69-2.29,2.56-2.71,2.7-2.07.72-6.73-2.4-9.64-2.56-4.04-.23-8.03.05-12.02-.14-3.78-.18-8.36,1.26-10.83-2.7,1.8.09,3.61-.05,5.41,0,12.03.34,26.03.79,37.9,0,1.09-.07,3.89-2.26,6.76-2.58,5.83-.65,11.78.11,17.6-.12l2.59-1.47c.53-1.21-.06-2.69.12-3.93h2.71c1.75,3.91,3.6,6.32,8.12,5.4,3.09-7.65-4.61-12.37-5.41-16.21-.65-3.12.46-7.41,0-10.83-1.8-.01-3.61,0-5.42.01-.91,0-2.04-.2-2.71,0-.02-1.8,0-3.6,0-5.41.03-8.25-1.15-19.48,0-27.03.02-.14,2.19,0,2.34-1.59l.37-3.81c2.45,1.19,2.98,4.33,5.41,5.41ZM127.21,148.66v-10.8h-2.69v10.8h2.69ZM127.21,159.48v-8.1h-2.69v8.1h2.69Z"/>
      <path class="cls-10" d="M170.53,232.47v2.7l-13.52,13.52c.89-6.56-8.31-9.19-8.31-14.87s9.2-8.3,8.31-14.87l13.52,13.52Z"/>
      <path class="cls-1" d="M75.79,229.76c7.73.01,9.86,1.23,16.24,2.7,10.17,2.35,18.79,7.23,29.78,5.41-7.41,6.35-13.53,1.08-21.65,0-2.58-.34-5.48.23-8.12,0l-2.71-2.7-18.95-2.7c.15-.83,0-1.84,0-2.7,1.8,0,3.61,0,5.41,0Z"/>
      <path class="cls-27" d="M110.98,202.73c3.19-1.15,11.51-2.05,14.52-.16l4.45,9.63-2.67.33-.14-1.67-7.86,2.62-8.3-8.05v-2.7Z"/>
      <path class="cls-26" d="M116.39,221.65l5.41,5.41c.05.18,2.6.37,2.49,1.28-1.37,2-2.63,3.61-5.2,4.12l-1.75-2.33c-2.07-.84-4.33-.2-6.38-.38-2.67-.23-5.44.17-8.11-.01v-2.68c8.16-.77,2.33-5.98,13.53-5.42Z"/>
      <path class="cls-27" d="M167.82,202.73c-.72.25-1.21,3.15-5.41,2.7l2.72-13.51h2.69s.01,10.81.01,10.81Z"/>
      <path class="cls-26" d="M110.98,205.43v5.4s-5.42-1.36-5.42-1.36c-.68-3.41,2.35-5.64,5.42-6.75v2.7Z"/>
      <path class="cls-14" d="M159.7,202.73c-3.97.31-7.18-1.47-8.12-5.41,1.19.5,3.29-.1,5.46,1.3,1.76,1.14,1.87,3.24,2.66,4.11Z"/>
      <path class="cls-14" d="M146.17,191.92v2.7c-1.18-.19-4.92-.27-5.41,0-.13-1.78.19-3.64,0-5.41,1.64.6,3.98,2.76,5.41,2.7Z"/>
      <path class="cls-14" d="M119.1,232.47c-1.95.39-4.07.19-5.94-.53l-2.18-2.17c2.05.18,4.3-.46,6.38.38l1.75,2.33Z"/>
      <path class="cls-14" d="M116.39,221.65c8.32.41,3.97.6,5.41,5.41l-5.41-5.41Z"/>
      <path class="cls-26" d="M56.84,227.06c.09.7-.94,1.15,0,5.41.35,1.57-.23,3.67,0,5.41-3.84-1.66-7.21-2.13-10.82-5.41,1.67,4.49-2.23,6.67-2.72,8.11,0-7.19,0-14.44,0-21.62,3.78.03,8.21-3.01,10.83-5.41.23,6.36,2.18,9.46,2.71,13.52Z"/>
      <path class="cls-15" d="M62.26,227.06h-5.41c-.53-4.05-2.48-7.15-2.71-13.52.67-.61,2.03-.55,2.36-1.72l.35-3.69c.95,1.81,3.97,2.91,4.96,7.2.9,3.86.47,7.82.45,11.72Z"/>
      <path class="cls-16" d="M89.33,235.17c.22,1.75-1.12,2.5-2.71,2.7-3.78.48-9.62.32-13.53,0-1.88-.16-2.85-.67-2.71-2.7.27-.68-.17-1.76,0-2.7l18.95,2.7Z"/>
      <path class="cls-22" d="M62.26,227.06c0,1.76.23,3.75,0,5.41h-5.41c-.94-4.26.09-4.71,0-5.41h5.41Z"/>
      <path class="cls-15" d="M62.26,232.47c-.52,3.72-.28,5.65-4.08,8.09-1.02.12-1.14-2.6-1.33-2.68-.23-1.73.35-3.84,0-5.41h5.41Z"/>
      <path class="cls-27" d="M75.79,229.76c-1.8,0-3.61,0-5.41,0v-8.11c1.41,2.24,4.98,4.36,5.41,8.11Z"/>
      <path class="cls-23" d="M56.84,208.14l-.35,3.69c-.33,1.17-1.69,1.11-2.36,1.72-.13-3.59.07-7.22.01-10.81h2.69c.33,1.65-.51,4.41.01,5.4Z"/>
      <path class="cls-26" d="M140.76,56.76c.57,6.54,1.56,18.64,2.71,24.33l-6.69-5.02-4.13,2.34-2.72-21.64c3.58.23,7.23-.15,10.83,0Z"/>
      <path class="cls-13" d="M157,51.36c-.71,3.4-1.54,7.64-2.71,10.81-.12.34-2.17.33-2.63,1.39-1.82,4.18,1.36,4.69,5.34,4.02,0,.9,0,1.8,0,2.7,0,1.8.09,3.62,0,5.41h-5.41c-4.23-10.97-5.87-18.71,0-29.73l5.41,5.41Z"/>
      <path class="cls-26" d="M165.12,56.76l-2.3,1.75c-.94,2.03-.06,4.55-.41,6.36l-5.41-2.7h-2.71c1.17-3.18,1.99-7.41,2.71-10.81l5.35,2.73c-1.06-4.51,1.31-5.74,2.77-8.14v10.81Z"/>
      <path class="cls-26" d="M165.12,89.2l-2.33-1.66c1.53-6.99-2.22-13.02-3.08-17.26-.2-.98,2.41-3.84,2.71-5.41h2.71c0,8-.5,16.38,0,24.33Z"/>
      <polygon class="cls-27" points="151.58 45.95 152.95 43.26 156.99 43.25 157 51.36 151.58 45.95"/>
      <path class="cls-27" d="M165.12,64.87h-2.71c.35-1.82-.53-4.33.41-6.36l2.3-1.75v8.11Z"/>
      <path class="cls-27" d="M162.41,64.87c-.3,1.56-2.91,4.43-2.71,5.41h-2.71c0-.9,0-1.8,0-2.7v-5.41l5.41,2.7Z"/>
      <path class="cls-8" d="M157,75.69c-.13,2.69.1,5.42-.01,8.1l-1.34.02c-1.43.08-3.2-5.9-4.06-8.12h5.41Z"/>
      <path class="cls-14" d="M67.67,167.59h-2.71c.11-1.79-1.2-2.24-2.71-2.7-.05-2.99-1.11-5.65-2.71-8.11,2.41-.05,4.04,1.46,5.39-1.56,4.17-9.25,2.57-18.4,2.72-28.18-6.47,1.02-6.46,8.18-8.11,10.81.12-.28,5.18-2.97,5.4-2.7l-2.71,10.81h-2.68c.42-2.37-.7-6.58-.01-8.1-.35.56-3.15.91-4.13,2.55-6.01,9.92,7.38,6.25,4.13,16.38-2.57-3.96-11.67-12.52-10.62-17.24,6.79-7.39,16.62-21.32,16.03-31.41.86-.15,1.82.06,2.71,0,1.15,24.96,9.49,31.66,0,59.47Z"/>
      <path class="cls-25" d="M54.14,159.48c3.2,6.18,4.19,4.19,8.12,5.41,1.51.47,2.81.91,2.71,2.7-8.36,5.82-8.54-4.38-10.83-8.11Z"/>
      <path class="cls-25" d="M43.31,124.34c.2-1.76-.13-3.63,0-5.41,1.85-.81,3.66-1.71,5.41-2.7.31,3.97-1.47,7.17-5.41,8.11Z"/>
      <path class="cls-2" d="M129.93,48.66v-5.4s1.36-.01,1.36-.01l4.05.02-2.71,5.4c-.88-.11-1.81.06-2.71,0Z"/>
      <path class="cls-1" d="M151.58,127.04c1.76,5.77,1.17,9.71,5.41,16.22-6.72,2.83-8.9,8.65-10.69,15.07-1.16,4.16,1.14,4.5-5.54,3.86-3.83-12.92-3.97-19.62-2.71-32.45.09-.89-.03-1.81,0-2.7l5.41-2.7c.65,1.37,6,2.48,8.12,2.7ZM143.47,148.67l5.28-4.3-2.6-9.21h-2.68s0,13.51,0,13.51Z"/>
      <path class="cls-17" d="M151.58,110.83c1.07,1.47,3.01,7.32,5.41,10.81l-2.67,1.35c1.11,1.19,2.1,2.52,2.67,4.06-1.78-.12-3.64.19-5.41,0-2.41-7.89-3.93-11.22-13.53-10.82v-2.68c4.46.6,6.44-.84,5.41-5.42.88.14,1.85-.18,2.71,0,1.33.28,5.03,2.18,5.41,2.7Z"/>
      <path class="cls-18" d="M157,121.64c3.72,5.4,8.69,11.27,10.84,17.56-6.7,4.83-9.26-7.89-10.84-12.15-.57-1.54-1.56-2.87-2.67-4.06l2.67-1.35Z"/>
      <path class="cls-14" d="M138.05,129.75c-1.26,12.82-1.12,19.52,2.71,32.45,6.68.64,4.38.29,5.54-3.86,1.79-6.42,3.97-12.24,10.69-15.07.27.41,2.67.45,2.58,1.31-1.44.94-1.78,3.14-2.58,4.1-.53.63-2.78.92-3.95,2.72-2.61,3.99-12.16,24.51-9.58,27.02-1.02-2.68-9.95-15.96-10.83-18.92-1.87-6.31,1.3-19.54,0-27.03,1.39-.4,2.16-1.45,2.71-2.7h2.71Z"/>
      <path class="cls-18" d="M167.82,124.34l-5.1-.23c-1.46-2.03-2.57-10.27-3.02-10.58,3.69,3.86,5.81,4.32,8.12,10.81Z"/>
      <path class="cls-8" d="M151.58,108.12v2.7c-.38-.53-4.09-2.42-5.41-2.7v-2.7l2.71-2.7c.3,1.64,2.1,3.64,2.71,5.41Z"/>
      <path class="cls-19" d="M159.7,113.53c-1.28-.89-7.19,2.42-5.41-5.41,3.58.37,3.97,3.89,5.41,5.41Z"/>
      <path class="cls-13" d="M116.39,91.9c.9-.07,1.81.06,2.71,0s1.81.05,2.71,0,1.81.04,2.71,0c6.26-.28,12.67,0,18.95,0-.31,3.97,1.47,7.17,5.41,8.11.12.88-.16,1.84,0,2.7l-2.71,2.7-4.08-2.67c-1.31-.03-.96,2.26-1.33,2.67-2.6,2.87-3.35,6.22-7.99,5.59l2.38,7.69-5.2.25v5.39c.57.68,3.66-1.97,5.4-2.7v8.11c-.55,1.25-1.32,2.3-2.71,2.7-.49.14-2.27.19-2.71,0-2.43-1.08-2.96-4.22-5.41-5.41-.41-.2-2.16-.13-2.71,0,.46-2.35-.68-6.36,0-8.11.84-2.15,3.63-6.45,5.41-10.81.07-.18,3.19.34,2.71-2.69-2.59.3-5.78-.5-8.12-.01-4.19.88-13.85,8.01-18.95,10.81v-10.81s-2.7,0-2.7,0l-.07,5.4c-.49.8-3.68-2.19-5.35-2.7-.83-.25-1.9.27-2.71,0,1.27-3.24,5.61-2.53,8.09-4.16,2.14-1.4,2.31-3.61,2.73-3.95,1.95-1.54,4.84-1.95,5.41-5.41,1.76-.2,4.54-2.44,8.12-2.7Z"/>
      <path class="cls-22" d="M132.64,159.48h-2.71c-.96-8.52.66-18.3,0-27.03.43.19,2.21.14,2.71,0,1.3,7.49-1.87,20.72,0,27.03Z"/>
      <path class="cls-26" d="M121.81,91.9c-.9.05-1.81-.06-2.71,0v-8.11l2.54,1.53.17,6.58Z"/>
      <path class="cls-14" d="M119.1,91.9c-.9.06-1.81-.07-2.71,0-.08-2.7.12-5.42,0-8.11.89.1,1.81-.07,2.71,0v8.11Z"/>
      <rect class="cls-27" x="124.53" y="59.47" width="2.69" height="8.1"/>
      <path class="cls-27" d="M83.91,105.42c.14.99-3.56,4.57-2.72,5.4h5.43c0,5.4.09,10.84,0,16.23h-5.41c.43-1.38-.3-3.71,0-5.41,1.64-9.24-.86-4.83-2.71-10.81-.23-.75.15-1.77,0-2.7-.39-2.49.26-5.49,0-8.11.69,1.53,5.36,5.03,5.41,5.41Z"/>
      <path class="cls-18" d="M108.27,94.61c-.58,3.46-3.46,3.86-5.41,5.41h-16.24v-2.7c5.51-5.39,14.48-1.87,21.65-2.7Z"/>
      <path class="cls-25" d="M73.09,108.12c-.69-3.72-4.48-8.16-2.7-13.51l8.01.09c.63,1.63-.37,4.25.1,5.31.26,2.62-.39,5.62,0,8.11h-5.41Z"/>
      <path class="cls-2" d="M86.62,100.01v10.81h-5.43c-.84-.84,2.86-4.42,2.72-5.41-.83-4.73.02-5.48,2.71-8.11v2.7Z"/>
      <path class="cls-5" d="M89.33,205.43l-2.71-5.41c.42-.15.44-3.4,2.69-2.7v8.11Z"/>
      <path class="cls-18" d="M105.57,186.51h13.53c.25.71,3.73,2.58,2.71,5.41-5.82.24-11.77-.52-17.6.12-2.87.32-5.68,2.51-6.76,2.58-1.25-8.25,5.7-6.51,8.12-8.11Z"/>
      <path class="cls-21" d="M129.93,175.7c.8,3.84,8.5,8.57,5.41,16.21-4.52.92-6.36-1.49-8.12-5.4v-10.81h2.71Z"/>
      <path class="cls-16" d="M124.52,164.89c1.8,0,3.62-.03,5.42-.01.46,3.41-.66,7.71,0,10.83h-2.71l-2.71-2.7v-8.11Z"/>
      <path class="cls-5" d="M127.22,186.51h-2.71c.13-.87-.06-1.81,0-2.7.12-1.78,0-3.62,0-5.41h2.71v8.11Z"/>
      <path class="cls-9" d="M157,62.17v5.41c-3.97.67-7.15.16-5.34-4.02.46-1.07,2.5-1.05,2.63-1.39h2.71Z"/>
      <path class="cls-11" d="M59.55,137.86c1.65-2.64,1.64-9.79,8.11-10.81-.14,9.78,1.45,18.92-2.72,28.18-1.36,3.02-2.99,1.51-5.39,1.56,3.25-10.13-10.14-6.46-4.13-16.38.99-1.63,3.78-1.99,4.13-2.55-.69,1.52.43,5.73.01,8.1h2.68s2.71-10.81,2.71-10.81c-.23-.26-5.28,2.43-5.4,2.7Z"/>
      <path class="cls-11" d="M116.39,151.37c-.06.9.06,1.81,0,2.7-.22,3.43.62,7.84,0,10.81h-29.78c1.34-4.68,2.12-8.66,2.71-13.52h27.07ZM113.68,156.78h-5.4v5.4h5.4v-5.4Z"/>
      <path class="cls-17" d="M116.39,164.89c-.43,2.05-2.32,2.19-2.71,2.7-3.12,1.01-8.2,1.43-10.83,2.7-5,2.43-7.59,7.89-8.12,8.11-2.57,1.08-9.89-.75-13.53-.01,1.63-4.44,4.11-8.97,5.41-13.5h29.78Z"/>
      <path class="cls-14" d="M119.1,135.15c-.24,3.57.16,7.23,0,10.81-1.9-.08-2.31,1.12-2.71,2.7h-27.07c.01-1.8,0-3.6,0-5.41,1.72.25,3.9-.38,5.41,0,.15.04-.06,1.73,1.34,2.7l1.34-8.13-2.68,2.73-2.7-1.38c-.17-1.34.09-2.7,0-4.03h27.07ZM105.57,145.97c1.01.26,4.4.26,5.41,0,2.54-.66,3.73-2.25,5.39-4.05-1.66-1.81-2.86-3.39-5.39-4.05-1.01-.26-4.4-.26-5.41,0-2.54.66-3.73,2.25-5.39,4.05,1.66,1.81,2.86,3.39,5.39,4.05Z"/>
      <path class="cls-3" d="M121.81,159.48c0,1.8-.02,3.61,0,5.41-1.04.31-2.23-.43-2.43,1.62,2.49,11.56-9.65,15.27-16.52,6.49,6.97,1.11,7.62-1.15,10.83-5.41.39-.51,2.28-.65,2.71-2.7.62-2.97-.22-7.38,0-10.81l5.41,5.41Z"/>
      <path class="cls-27" d="M83.91,132.45c.2.07.5,3.21,2.71,2.7-.08,2.69.2,5.44,0,8.11-.46,6.09.57,5.5-2.71,10.81-6.26-3.72-5.52-3.94-5.41-10.81h5.41s0-5.4,0-5.4h-5.41s-2.71,0-2.71,0c-.12-.88.12-1.82,0-2.7,1.73-.14,2.14-1.33,2.71-2.7,1.67.31,4.12-.47,5.41,0Z"/>
      <path class="cls-9" d="M78.5,143.26c-.11,6.87-.84,7.09,5.41,10.81-1.17,1.89-1.8,4.02-4.06,5.39-7.12-4.99-3-14.04-4.06-21.6h2.71c-.02,1.8.03,3.6,0,5.41Z"/>
      <path class="cls-9" d="M75.79,113.53l-2.67,4.05,4.28,3.82,3.81.23c-.3,1.7.43,4.02,0,5.41-.09.29-1.88,3.4-2.71,5.41-.57,1.38-.97,2.57-2.71,2.7-1.22-9.04-2.59-12.38-2.71-21.62h2.71Z"/>
      <path class="cls-3" d="M75.79,175.71c1.23,4.73-8.25.65-5.4,6.73,2.1,4.48,10.38,1.81,8.1,9.48-3.85-7.17-15.08-1.6-16.23-2.71-5.17-5.01,4.44-5.27,4.91-5.86,2.72-3.47-3.8-10.07,8.61-7.64Z"/>
      <path class="cls-21" d="M116.39,148.67c-.19.76.07,1.77,0,2.7h-27.07c.11-.87,0-1.82,0-2.7h27.07Z"/>
      <path class="cls-3" d="M92.03,135.15c.1,1.32-.16,2.69,0,4.03l2.7,1.38v2.7c-1.51-.38-3.69.25-5.41,0h-2.71c.2-2.67-.08-5.42,0-8.11.03-.9-.03-1.8,0-2.7,1.37-.24,2.33-2.59,2.71-2.7.71-.21,1.76.07,2.71,0,.09,1.79-.14,3.62,0,5.41Z"/>
      <path class="cls-16" d="M105.57,186.51c3.15-2.09,1.89-6.92,12.09-5.5l1.34.25c.66,1.66-.33,4.04.1,5.25h-13.53Z"/>
      <path class="cls-22" d="M113.69,167.59c-3.21,4.25-3.85,6.52-10.83,5.41v-2.7c2.63-1.28,7.71-1.69,10.83-2.7Z"/>
      <path class="cls-14" d="M124.52,178.4c0,1.79.12,3.63,0,5.41l-2.32-1.75c-.9-2.99-.28-6.05-.39-9.06h2.71c0,1.8,0,3.6,0,5.41Z"/>
      <rect class="cls-3" x="83.92" y="186.52" width="5.4" height="5.4"/>
      <polygon class="cls-2" points="94.74 178.4 97.44 179.76 97.44 186.51 94.75 186.51 94.74 178.4"/>
      <polygon class="cls-3" points="75.79 167.6 70.39 173 70.38 167.6 75.79 167.6"/>
      <path class="cls-5" d="M124.52,173h-2.71c-.1-2.7.03-5.41,0-8.11.67-.2,1.79,0,2.71,0v8.11Z"/>
      <path class="cls-3" d="M82.56,181.11c1.76,0,1.76,2.7,0,2.7s-1.76-2.7,0-2.7Z"/>
      <polygon class="cls-14" points="143.47 148.67 143.47 135.16 146.16 135.16 148.76 144.37 143.47 148.67"/>
      <path class="cls-14" d="M138.05,121.64c.4-.17.63-4.12,5.41-2.71.37,1.64-.51,4.34,0,5.41l-5.41,2.7c.06-1.8-.04-3.61,0-5.41Z"/>
      <path class="cls-23" d="M138.05,127.04c-.03.9.09,1.82,0,2.7h-2.71v-8.11c.76-.32,1.94.33,2.71,0-.04,1.8.06,3.61,0,5.41Z"/>
      <path class="cls-22" d="M146.17,105.42v2.7c-.86-.18-1.83.14-2.71,0l-2.71-2.7c.37-.41.02-2.7,1.33-2.67l4.08,2.67Z"/>
      <path class="cls-18" d="M100.15,118.94c7.15.45,14.49-.3,21.65,0-.68,1.75.46,5.76,0,8.11-2.45.6-2.02.45-2.71,2.7-.22.71.08,1.76,0,2.7-8.69-2.91-17.91-3.42-27.07-2.7-.94.07-2-.21-2.71,0v-13.52c3.93,2.35,6.48,2.43,10.83,2.7ZM100.15,121.64h-5.4v5.4h5.4v-5.4Z"/>
      <path class="cls-17" d="M127.22,108.12c-1.78,4.36-4.58,8.66-5.41,10.81-7.17-.3-14.51.45-21.65,0,.2-1.71,1.45-2.01,2.71-2.7,5.1-2.8,14.75-9.93,18.95-10.81l1.59,2.34,3.82.37Z"/>
      <path class="cls-7" d="M92.03,108.12c.8.27,1.87-.25,2.71,0v5.41s8.12,0,8.12,0v2.7c-1.26.69-2.51.99-2.71,2.7-4.35-.27-6.9-.35-10.82-2.7v13.52c-.39.12-1.35,2.47-2.72,2.7.06-1.8-.03-3.61,0-5.41.09-5.39,0-10.82,0-16.22v-5.41c1.83.74,3.58,2.09,5.41,2.7Z"/>
      <path class="cls-16" d="M102.86,100.01c-.43.34-.6,2.54-2.73,3.95-2.48,1.63-6.82.92-8.09,4.16-1.84-.61-3.58-1.97-5.41-2.7v-5.41h16.24Z"/>
      <path class="cls-3" d="M102.86,113.53h-8.13s.01-5.41.01-5.41c1.67.51,4.86,3.5,5.35,2.7l.07-5.4h2.69s.01,8.11.01,8.11Z"/>
      <path class="cls-8" d="M121.81,105.42c2.34-.49,5.53.31,8.12.01.49,3.03-2.63,2.52-2.71,2.69l-3.82-.37-1.59-2.34Z"/>
      <path class="cls-3" d="M124.52,127.04l-.37,3.81c-.16,1.6-2.32,1.45-2.34,1.59l-2.71-2.7c.69-2.26.26-2.11,2.71-2.7.54-.13,2.3-.2,2.71,0Z"/>
      <path class="cls-22" d="M121.81,132.45c-1.15,7.55.03,18.78,0,27.03l-5.41-5.41c.06-.9-.06-1.81,0-2.7s-.19-1.95,0-2.7l2.71-2.7c.16-3.58-.24-7.24,0-10.81.06-.9-.08-1.81,0-2.7.08-.94-.22-1.99,0-2.7l2.71,2.7Z"/>
      <rect class="cls-25" x="124.53" y="137.86" width="2.69" height="10.8"/>
      <rect class="cls-21" x="124.53" y="151.38" width="2.69" height="8.1"/>
      <path class="cls-25" d="M81.21,121.64l-3.81-.23-4.28-3.82,2.67-4.05,2.71-2.7c1.85,5.98,4.34,1.57,2.71,10.81Z"/>
      <path class="cls-25" d="M83.91,127.04v5.41c-1.3-.47-3.75.31-5.41,0,.83-2,2.62-5.12,2.71-5.41h2.71Z"/>
      <path class="cls-5" d="M78.5,108.12c.15.93-.23,1.95,0,2.7l-2.71,2.7h-2.71c-.02-1.76.29-3.86,0-5.41h5.41Z"/>
      <path class="cls-5" d="M86.62,132.45c-.03.9.03,1.8,0,2.7-2.21.5-2.51-2.63-2.71-2.7v-5.41h2.71c-.03,1.8.06,3.61,0,5.41Z"/>
      <path class="cls-26" d="M127.22,175.7v2.7h-2.71c0-1.8,0-3.6,0-5.41l2.71,2.7Z"/>
      <rect class="cls-15" x="108.28" y="156.78" width="5.4" height="5.4"/>
      <path class="cls-16" d="M119.1,132.45c-.08.89.06,1.81,0,2.7h-27.07c-.14-1.78.09-3.62,0-5.41,9.16-.72,18.37-.21,27.07,2.7Z"/>
      <path class="cls-23" d="M110.98,137.86v8.11c-1.01.26-4.4.26-5.41,0v-8.11c1.01-.26,4.4-.26,5.41,0Z"/>
      <path class="cls-7" d="M105.57,145.97c-2.54-.66-3.73-2.25-5.39-4.05,1.66-1.81,2.86-3.39,5.39-4.05v8.11Z"/>
      <path class="cls-13" d="M110.98,145.97v-8.11c2.54.66,3.73,2.25,5.39,4.05-1.66,1.81-2.86,3.39-5.39,4.05Z"/>
      <path class="cls-22" d="M94.74,140.56l2.68-2.73-1.34,8.13c-1.4-.97-1.19-2.66-1.34-2.7v-2.7Z"/>
      <path class="cls-3" d="M116.39,148.67c.4-1.58.8-2.78,2.71-2.7l-2.71,2.7Z"/>
      <path class="cls-25" d="M78.5,137.86h5.41s0,5.4,0,5.4h-5.41c.03-1.8-.02-3.6,0-5.4Z"/>
      <rect class="cls-9" x="94.75" y="121.64" width="5.4" height="5.4"/>
    </g>
  </g>
</svg>