<?xml version="1.0" encoding="UTF-8"?>
<svg id="Layer_2" data-name="Layer 2" xmlns="http://www.w3.org/2000/svg" viewBox="0 0 216.55 286.64">
  <defs>
    <style>
      .cls-1 {
        fill: #191a18;
      }

      .cls-2 {
        fill: #3a3a3a;
      }

      .cls-3 {
        fill: #13140f;
      }

      .cls-4 {
        fill: #fff;
      }

      .cls-5 {
        fill: #b7a68b;
      }

      .cls-6 {
        fill: #232322;
      }

      .cls-7 {
        fill: #0c0c0c;
      }

      .cls-8 {
        fill: #f0f1f3;
      }
    </style>
  </defs>
  <g id="Layer_1-2" data-name="Layer 1">
    <g>
      <rect class="cls-4" x="2.4" width="210" height="284"/>
      <path class="cls-7" d="M216.55.11v286.53H0V.11h216.55ZM9.47,2.81l-5.46,5.36v270.4c1.46,1.14,4.75,5.36,5.46,5.36h194.89c.29,0,4.06-3.77,4.06-4.05V6.87c0-.29-3.77-4.05-4.06-4.05H9.47Z"/>
      <path class="cls-3" d="M148.88,51.46c4.27.8,7.46-3.69,11.72-2.47,15.74,4.49,1.94,33.97-14.42,13.29l5.4,13.5h-10.82s2.69-13.5,2.69-13.5c-4.55-.89-1.33,3.36-4.37,5.52-1.13.8-6.07,2.59-7.43,2.31-15.4-9.24-11.6-22.5,6.4-21.36-11.06-28.44,29.65-21.41,10.82,2.7Z"/>
      <path class="cls-3" d="M148.88,113.63c4.27.8,7.46-3.69,11.72-2.47,15.74,4.49,1.94,33.97-14.42,13.29l5.4,13.5h-10.82s2.69-13.5,2.69-13.5c-4.57-.91-1.32,3.43-4.36,5.54-17.35,12.03-27.57-27.41,1.66-16.36-19.63-28.12,27.78-28.04,8.12,0Z"/>
      <path class="cls-3" d="M151.58,148.79l-5.4,13.5,8.13-6.91c13.1-7.96,22.77,28.99-5.43,17.74,19.63,28.13-27.78,28.02-8.12,0-18.43,7.38-26.37-8.2-9.1-18.66,1.36-.27,6.3,1.51,7.43,2.31,3.04,2.16-.19,6.41,4.37,5.52l-2.69-13.5h10.82Z"/>
      <path class="cls-3" d="M113.69,78.5c-1.15.5-3.75-.33-5.42.01l4.06,5.37,4.06-5.39c17.55-1.04,14.66,23.46-3.9,19.08l-4.21-5.56c.72,11.56,8.7,15.13-8.13,13.5l5.4-13.51c-4.59,1-6.93,8.63-11.73,7.83-18.24-3.02-9.49-28.99,9.03-18.66.91-4.57-3.43-1.32-5.54-4.35-4.71-6.77-.76-15.68,7.43-16.88,12.7-1.85,14.29,16.21,8.95,18.54Z"/>
      <path class="cls-3" d="M148.87,210.96l-2.69,13.51,11.93-8.01c16.97,11.01,9.22,26.1-9.23,18.83,18.83,24.05-21.85,31.21-10.82,2.7-23.75,1.22-19.98-22.98,2.47-18.54l2.93,5.01-2.69-13.5h8.11Z"/>
      <path class="cls-3" d="M113.69,208.25c5.35,2.33,3.75,20.39-8.95,18.54-8.19-1.2-12.14-10.11-7.43-16.88,2.11-3.03,6.45.21,5.54-4.35-14.39,6.19-22.9-1.55-16.03-16.02,8.08-1.72,12.73.38,18.74,5.2l-5.4-13.51h9.46s-1.34,13.5-1.34,13.5l4.21-5.56c18.56-4.38,21.45,20.12,3.9,19.08l-4.06-5.39-4.06,5.37c1.67.34,4.27-.49,5.42.01Z"/>
      <path class="cls-3" d="M59.55,110.94c-11.58-24.31,27.25-24.09,16.21-.01,14.36-2.55,18.69,17.85,6.5,21.4-6.7,1.95-6.55-2.11-9.17-5.17-2.38-2.78-3.61-3.72-8.12-2.7-3.24.73-3.7,7.01-6.94,8.01-10.63.85-13.73-9.12-11.81-18.61,3.62-.83,6.88-2.43,10.63-2.91l1.43,2.62,6.69.08v-2.68c-1.79-.04-3.6,0-5.41-.01Z"/>
      <path class="cls-3" d="M64.96,162.29c4.49,1.01,5.74.08,8.12-2.7,1.81-2.12,1.75-5.92,6.37-5.16,15.72,2.57,11.75,23.16-3.69,21.39,11.29,20.02-20.28,24.76-19.06,6.74.11-1.61,2.2-6.46,2.85-6.75,1.12-.5,3.75.33,5.42-.01l-4.06-5.37-4.06,5.39-10.63-2.91c-1.92-9.49,1.18-19.47,11.81-18.61,3.23,1,3.7,7.27,6.94,8.01Z"/>
      <path class="cls-3" d="M56.84,237.98c-3.11-.53-7.2.96-9.63-2.54-4.39-11.86.25-18.97,13.37-16.47,1.88.36,2.21,4.11,4.38,5.5.89.57,5.88.76,8.11,2.71.25-1.76-.29-3.79,0-5.41.18-.96.28-2.35,1.35-2.66l10.6.19c5.72,1.6,6.17,14.68,1.73,17.47l-10.97,1.22c.24,5.48,4.28,8.04,1.47,13.54-6.44,12.57-27.59,1.53-17.7-10.84.99-1.24,5.76-2.09,5.41-5.4h-6.76s-1.36,2.69-1.36,2.69Z"/>
      <path class="cls-3" d="M59.55,46.06c-7.99-6.92,1.68-18.87,11.81-15.9,12.12,3.56,3.51,17.98,4.41,18.6,19.56.05,18.51,25.27-2.42,17.62-.1-.47-.19-.93-.27-1.4-.28-1.65.24-3.66,0-5.41-2.23,1.95-7.22,2.14-8.11,2.71-2.17,1.39-2.5,5.14-4.38,5.5-13.12,2.5-17.76-4.61-13.37-16.47,2.46-3.55,6.59-1.96,9.63-2.54l1.36,2.69h6.76c.14-3.27-3.76-3.97-5.41-5.4Z"/>
      <path class="cls-6" d="M180.16,238.12c23.36-6.7,18.01,50.23-.27,35.11-6.05-5.01-6.23-33.24.27-35.11ZM186.77,267.71l-1.34-24.32c-5.96,4.88-4.43,13.57-4.06,20.31.24,4.39,2.31,7.65,5.4,4.01Z"/>
      <path class="cls-3" d="M25.92,10.99c16.53,2.03,15.78,36.51,2.54,37.89-15.77,1.65-11.37-35.93-2.54-37.89ZM29.77,19.04c-3.05-3.6-5.19-.4-5.41,4.02-.33,6.74.23,13.58,0,20.3,3.05,3.6,5.19.4,5.41-4.02.33-6.74-.23-13.58,0-20.3Z"/>
      <path class="cls-3" d="M27.04,67.61c18.26-.7,9.55,17.64-2.67,10.89l2.7,8.1h-8.12l2.7-8.1c-12.76,6.64-20.54-11.81-2.67-10.89-6.47-9.61,4.51-15.49,10.64-6.44l-2.57,6.44Z"/>
      <path class="cls-1" d="M186.77,208.25c1.64.17,3.78.17,5.41,0,2.32-.24,6.02-5.66,9.54-.07,2.19,3.47,1.17,7.13,1.3,10.86l-8.17.03c8.97,11.8-11.79,14.54-13.33,6.51l2.57-6.51-8.17-.03c.13-3.73-.89-7.39,1.3-10.86,3.52-5.59,7.22-.17,9.54.07Z"/>
      <rect class="cls-7" x="8.13" y="13.62" width="8.11" height="35.16"/>
      <rect class="cls-7" x="197.6" y="237.98" width="5.41" height="37.84"/>
      <path class="cls-2" d="M64.96,224.47l-2.7-13.51h10.82s-2.55,9.25-2.55,9.25l2.55,1.55c-.3,1.62.25,3.66,0,5.41-2.23-1.95-7.22-2.14-8.11-2.71Z"/>
      <path class="cls-2" d="M73.09,64.98l-2.55,1.55,2.55,9.25h-10.82s2.7-13.51,2.7-13.51c.89-.57,5.88-.76,8.11-2.71.25,1.75-.27,3.76,0,5.41Z"/>
      <path class="cls-2" d="M64.96,162.29l-2.7-13.51h10.82s-2.55,9.25-2.55,9.25l2.55,1.55c-2.38,2.79-3.63,3.72-8.12,2.7Z"/>
      <path class="cls-2" d="M186.77,208.25c.79-3-2.28-5.43-2.69-6.77-.78-2.56,8.07-.98,10.81-1.33l-2.71,8.1c-1.64.17-3.78.17-5.41,0Z"/>
      <path class="cls-3" d="M70.38,132.56c.22.55,3.92,1.33,2.7,5.4h-10.82c-1.34-4.58,2.61-5.07,2.7-5.4h5.41Z"/>
      <path class="cls-2" d="M73.09,127.15l-2.55,1.54c-.02,1.27-.59,2.76-.15,3.87h-5.41c.58-2.14-.39-5.62,0-8.11,4.51-1.02,5.74-.07,8.12,2.7Z"/>
      <path class="cls-5" d="M56.84,175.81l4.06-5.39,4.06,5.37c-1.67.34-4.29-.49-5.42.01h-2.71Z"/>
      <path class="cls-5" d="M113.69,78.5h2.71l-4.06,5.39-4.06-5.37c1.67-.34,4.27.49,5.42-.01Z"/>
      <path class="cls-5" d="M59.55,46.06c1.65,1.43,5.56,2.12,5.41,5.4h-6.76s-1.36-2.69-1.36-2.69c1.54-.29,2.88-.97,2.71-2.7Z"/>
      <path class="cls-5" d="M56.84,237.98l1.36-2.69h6.76c.35,3.31-4.42,4.16-5.41,5.4.18-1.71-1.18-2.44-2.71-2.7Z"/>
      <path class="cls-5" d="M116.39,208.25h-2.71c-1.15-.5-3.75.33-5.42-.01l4.06-5.37,4.06,5.39Z"/>
      <path class="cls-5" d="M59.55,110.94c1.8.02,3.62-.03,5.41.01v2.68s-6.69-.08-6.69-.08l-1.43-2.62c.86-.11,1.83,0,2.71,0Z"/>
      <path class="cls-8" d="M186.77,267.71c-3.09,3.64-5.16.38-5.4-4.01-.37-6.74-1.89-15.42,4.06-20.31l1.34,24.32Z"/>
      <path class="cls-8" d="M29.77,19.04c-.22,6.72.34,13.56,0,20.3-.22,4.42-2.36,7.62-5.41,4.02.22-6.72-.34-13.56,0-20.3.22-4.42,2.36-7.62,5.41-4.02Z"/>
    </g>
  </g>
</svg>