<?xml version="1.0" encoding="UTF-8"?>
<svg id="Layer_2" data-name="Layer 2" xmlns="http://www.w3.org/2000/svg" viewBox="0 0 216.55 286.53">
  <defs>
    <style>
      .cls-1 {
        fill: #fe1417;
      }

      .cls-2 {
        fill: #fff;
      }

      .cls-3 {
        fill: #0c0c0c;
      }

      .cls-4 {
        fill: #fe1014;
      }

      .cls-5 {
        fill: #fe0c11;
      }

      .cls-6 {
        fill: #f0f1f3;
      }

      .cls-7 {
        fill: #fe2327;
      }
    </style>
  </defs>
  <g id="Layer_1-2" data-name="Layer 1">
    <g>
      <rect class="cls-2" x=".4" y=".84" width="210" height="284"/>
      <path class="cls-3" d="M216.55,0v286.53H0V0h216.55ZM9.47,2.7l-5.46,5.36v270.4c1.46,1.14,4.75,5.36,5.46,5.36h194.89c.29,0,4.06-3.77,4.06-4.05V6.76c0-.29-3.77-4.05-4.06-4.05H9.47Z"/>
      <polygon class="cls-4" points="144.82 89.22 162.12 112.61 144.82 137.84 127.35 114.6 144.82 89.22"/>
      <polygon class="cls-4" points="144.82 148.69 162.2 172.03 144.82 197.3 127.35 174.06 144.82 148.69"/>
      <path class="cls-4" d="M144.82,210.86l17.3,25.22-17.3,23.39-17.48-25.38c8.11-6.67,11.39-15.19,17.48-23.24Z"/>
      <path class="cls-4" d="M144.82,27.05l17.3,23.39-17.3,25.22c-6.09-8.04-9.36-16.56-17.48-23.24l17.48-25.38Z"/>
      <path class="cls-1" d="M110.81,226.92c-4.62,5.53-20.39-15.86-21.09-20.57-1.21-8.08,13.24-14.42,13.17-22.55,2.94-4.04,18.78,16.62,19.1,20.31.71,8.16-10.07,14.38-11.18,22.81Z"/>
      <path class="cls-1" d="M110.81,59.6c1.11,8.43,11.89,14.64,11.18,22.81-.32,3.69-16.17,24.35-19.1,20.31.07-8.13-14.38-14.46-13.17-22.55.7-4.71,16.48-26.1,21.09-20.57Z"/>
      <path class="cls-4" d="M66.48,29.79c4.95-1.07,15.1,15.6,17.54,20.16-.23,4.09-13.39,22.55-15,23.02-3.78,1.1-4.61-2.45-6.33-4.48-4.41-5.21-9.65-11.95-11.36-18.54,0-2.17,13.05-19.71,15.15-20.16Z"/>
      <path class="cls-4" d="M66.33,213.55c3.54-1.03,16.67,17.21,17.2,20.7.54,3.54-11.55,21.82-14.66,22.48-4.95,1.06-15.1-15.59-17.53-20.16.23-4.09,13.39-22.55,15-23.02Z"/>
      <path class="cls-5" d="M66.34,151.38c3.52-1.05,16.66,17.22,17.19,20.7s-12.89,22.09-14.51,22.54c-4.53,1.27-16.61-16.84-17.2-20.69-.54-3.52,11.52-21.64,14.53-22.55Z"/>
      <path class="cls-5" d="M66.34,91.91c3.52-1.05,16.66,17.22,17.19,20.7s-12.89,22.09-14.51,22.54c-4.53,1.27-16.61-16.84-17.2-20.69-.54-3.52,11.52-21.64,14.53-22.55Z"/>
      <path class="cls-7" d="M180.16,238.01c23.36-6.7,18.01,50.23-.27,35.11-6.05-5.01-6.23-33.24.27-35.11ZM186.77,267.6l-1.34-24.32c-5.96,4.88-4.43,13.57-4.06,20.31.24,4.39,2.31,7.65,5.4,4.01Z"/>
      <path class="cls-5" d="M25.92,10.9c11.05-2.44,10.84,27.01,8.97,33.41-1.91,6.56-14.76,6.98-16.01-2.34-1-7.48-1.66-29.14,7.04-31.07ZM29.77,18.93c-3.05-3.6-5.19-.4-5.41,4.02-.33,6.74.23,13.58,0,20.3,3.05,3.6,5.19.4,5.41-4.02.33-6.74-.23-13.58,0-20.3Z"/>
      <polygon class="cls-7" points="192.16 202.73 200.22 217.38 192.23 228.03 186.8 229.76 178.74 215.12 186.73 204.46 192.16 202.73"/>
      <path class="cls-1" d="M16.24,10.81v37.84h-8.12C10.55,37.61,1.36,12.16,16.24,10.81Z"/>
      <path class="cls-5" d="M23.01,56.79l9.26,12.53-9.26,14.46c-11.5-9.47-11.4-17.6,0-26.99Z"/>
      <rect class="cls-1" x="197.6" y="237.87" width="5.41" height="37.84"/>
      <path class="cls-6" d="M186.77,267.6c-3.09,3.64-5.16.38-5.4-4.01-.37-6.74-1.89-15.42,4.06-20.31l1.34,24.32Z"/>
    </g>
  </g>
</svg>