<?xml version="1.0" encoding="UTF-8"?>
<svg id="Layer_2" data-name="Layer 2" xmlns="http://www.w3.org/2000/svg" viewBox="0 0 213.84 286.53">
  <defs>
    <style>
      .cls-1 {
        fill: #e5e9f1;
      }

      .cls-2 {
        fill: #fe1417;
      }

      .cls-3 {
        fill: #fff;
      }

      .cls-4 {
        fill: #0c0c0c;
      }

      .cls-5 {
        fill: #fe1014;
      }

      .cls-6 {
        fill: #fe0c11;
      }

      .cls-7 {
        fill: #f0f1f3;
      }
    </style>
  </defs>
  <g id="Layer_1-2" data-name="Layer 1">
    <g>
      <rect class="cls-3" x="1.81" y=".84" width="210" height="284"/>
      <path class="cls-4" d="M213.84,0v286.53H0V0h213.84ZM2.71,281.12c2.87-1.19,6.15,2.7,6.77,2.7h194.89c.29,0,4.06-3.77,4.06-4.05V6.76c0-.29-3.77-4.05-4.06-4.05H6.77c-.29,0-4.06,3.77-4.06,4.05v274.36Z"/>
      <path class="cls-2" d="M148.74,213.63c-.18,9.73,11.99,14.27,11.12,22.85-.25,2.45-13.66,23.01-15.04,23-15.79-21.94-24.63-18.42-5.51-40.75,2.8-3.27-.28-7.15,9.43-5.1Z"/>
      <path class="cls-5" d="M140.78,72.98c.07-8.13-14.37-14.46-13.17-22.55,1.02-6.8,13.81-16.41,17.2-23.38,4.03,6.38,15.68,18.64,15.07,25.63-.33,3.69-16.17,24.35-19.1,20.31Z"/>
      <path class="cls-2" d="M70.36,72.98c-2.94,4.04-18.78-16.62-19.1-20.31-.71-8.16,10.07-14.38,11.18-22.81,4.62-5.53,20.39,15.86,21.09,20.57,1.21,8.08-13.24,14.42-13.17,22.55Z"/>
      <path class="cls-2" d="M70.36,213.54c-.07,8.13,14.38,14.46,13.17,22.55-.7,4.71-16.48,26.1-21.09,20.57-1.11-8.43-11.89-14.64-11.18-22.81.32-3.69,16.17-24.35,19.1-20.31Z"/>
      <path class="cls-6" d="M189.47,237.88l-1.44,10.82c3.86,5.66,18.41-.61,14.97,6.73-.74,1.59-12.56,13.15-14.87,14.89s-2.65,3.72-6.77,2.69l.13-14.65-5.53-1.57v-5.38s5.59-1.5,5.59-1.5l-2.89-12.02h10.82ZM194.89,256.8h-8.12c-2.06,11.69,9.98,1.49,8.12,0Z"/>
      <path class="cls-6" d="M18.95,24.33c2.42-1.84,3.2-12.97,10.82-10.81l-.13,14.65,5.53,1.57v5.38s-5.59,1.5-5.59,1.5l2.89,12.02h-10.82s2.7-13.5,2.7-13.5H8.13c-1.67-8.64,8.28-8.88,10.82-10.82-.27.13-2.98,5.17-2.71,5.4h8.12s0-5.39,0-5.39c-1.68.23-4.47-.46-5.41,0Z"/>
      <path class="cls-2" d="M192.17,202.73l8.06,14.65-7.99,10.65-5.44,1.73-7.96-14.51c4.62-4.24,5.87-13.45,13.33-12.52Z"/>
      <path class="cls-2" d="M18.97,83.8l-8.06-14.65,12.1-12.37,9.26,14.46c-4.53,4.3-5.87,13.47-13.3,12.55Z"/>
      <path class="cls-7" d="M194.89,256.8c1.87,1.49-10.17,11.69-8.12,0h8.12Z"/>
      <path class="cls-1" d="M18.95,24.33c.94-.45,3.72.23,5.41,0v5.4s-8.12,0-8.12,0c-.27-.23,2.43-5.26,2.71-5.4Z"/>
    </g>
  </g>
</svg>