<?xml version="1.0" encoding="UTF-8"?>
<svg id="Layer_2" data-name="Layer 2" xmlns="http://www.w3.org/2000/svg" viewBox="0 0 213.84 286.53">
  <defs>
    <style>
      .cls-1 {
        fill: #191a18;
      }

      .cls-2 {
        fill: #0f0f0d;
      }

      .cls-3 {
        fill: #0b0b09;
      }

      .cls-4 {
        fill: #fff;
      }

      .cls-5 {
        fill: #0c0c0c;
      }
    </style>
  </defs>
  <g id="Layer_1-2" data-name="Layer 1">
    <g>
      <rect class="cls-4" x="1.81" y="1.44" width="210" height="284"/>
      <path class="cls-5" d="M213.84,2.7v283.82H0V4.05C0,3.77,3.77,0,4.06,0h203.01c.62,0,3.9,3.89,6.77,2.7ZM208.43,5.41H2.71v274.36c0,.29,3.77,4.05,4.06,4.05h197.6c.29,0,4.06-3.77,4.06-4.05V5.41Z"/>
      <path class="cls-2" d="M67.67,67.59l5.41,8.09-9.31.13-3.26-5.54-14.29-2.9c-5.9-11.14,12.77-33.36,22.78-32.39,6.98.68,21.21,17.96,20.48,25.8-1.46,15.66-20.78,5.95-21.81,6.81Z"/>
      <path class="cls-2" d="M148.48,214.12l2,4.95,13.42,2.44c7.93,11.81-8.75,27.8-19.09,32.75-17.24-9.03-38.58-36.61-4.04-35.32l-2.75-5.39,10.45.57Z"/>
      <path class="cls-5" d="M164.91,67.37l-14.29,2.9c-2.97,7.11-4.73,5.82-12.57,5.41l5.41-8.09c-11.81,4.66-23.41,3.38-21.18-11.67,1.18-7.96,5.45-6.56,8.97-9.87,4.26-4.01,9.48-12.57,15.92-10.68,7.47,2.19,23.27,22.69,17.73,32.01Z"/>
      <path class="cls-3" d="M73.09,213.55l-5.41,8.09c1.8,1.5,14.75-8.26,20.39,2.67,4.32,8.38-9.72,22.1-16.23,27.16-7.99,6.22-18.79-5.51-22.74-12.63-8.65-15.58-.56-25.5,15.86-17.2l-2.7-8.1h10.83Z"/>
      <path class="cls-3" d="M24.37,78.39l2.69,10.81h-8.11s2.7-10.8,2.7-10.8c-11.67,5.47-17.93-1.11-10.51-11.9,2.91-4.22,8.98-3.6,7.88-9.67,1.96-3.06,15,9.7,15.83,12.45,2.64,8.74-2.69,14.58-10.48,9.11Z"/>
      <path class="cls-5" d="M192.18,200.04l-2.71,8.09,10.92,1.27,2.61,2.81c1.64,6.08-10.74,19.24-17.24,17.33-10.87-3.2-15.63-23.98,1.03-21.41l-2.73-8.09h8.11Z"/>
      <path class="cls-1" d="M29.77,13.52l-.13,14.66c8.26,2.89,8.4,8.47-.06,11.13l2.9,9.34h-10.82s2.7-10.8,2.7-10.8h-14.88c-8.4-1.02,9.87-18.36,12.17-20.28,2.73-2.27,3.48-5.17,8.12-4.05ZM24.36,29.73v-5.4s-1.34,0-1.34,0l-4.07,5.39h5.41Z"/>
      <path class="cls-5" d="M189.47,237.88l-2.7,13.5h14.88c8.4,1.02-9.87,18.36-12.17,20.28-2.73,2.27-3.48,5.17-8.12,4.05l.13-17.35-5.54-1.57v-5.39s5.59-1.5,5.59-1.5l-2.89-12.02h10.82ZM194.89,256.8h-8.12s0,8.1,0,8.1l8.11-8.1Z"/>
    </g>
  </g>
</svg>