<?xml version="1.0" encoding="UTF-8"?>
<svg id="Layer_2" data-name="Layer 2" xmlns="http://www.w3.org/2000/svg" viewBox="0 0 216.55 286.53">
  <defs>
    <style>
      .cls-1 {
        fill: #fe1417;
      }

      .cls-2 {
        fill: #fff;
      }

      .cls-3 {
        fill: #0c0c0c;
      }

      .cls-4 {
        fill: #fe1014;
      }

      .cls-5 {
        fill: #fe0c11;
      }

      .cls-6 {
        fill: #fe2327;
      }
    </style>
  </defs>
  <g id="Layer_1-2" data-name="Layer 1">
    <g>
      <rect class="cls-2" x="3.19" y=".84" width="210" height="284"/>
      <path class="cls-3" d="M216.55,0v286.53H0V0h216.55ZM9.47,2.7l-5.46,5.36v270.4c1.46,1.14,4.75,5.36,5.46,5.36h194.89c.29,0,4.06-3.77,4.06-4.05V6.76c0-.29-3.77-4.05-4.06-4.05H9.47Z"/>
      <path class="cls-4" d="M144.82,210.86l17.3,25.22-17.3,23.39-17.48-25.38c8.11-6.67,11.39-15.19,17.48-23.24Z"/>
      <path class="cls-4" d="M144.82,27.05l17.3,23.39-17.3,25.22c-6.09-8.04-9.36-16.56-17.48-23.24l17.48-25.38Z"/>
      <path class="cls-1" d="M110.93,121.65c-.69,9.66,11.91,13.98,11.04,22.94-.45,4.71-5.32,7.38-7.95,11.18-3.47,5-.97,11.72-9.71,9.02-1.98-.61-15.1-19.07-14.59-22.45.71-4.78,16.53-26.08,21.22-20.69Z"/>
      <path class="cls-4" d="M66.48,29.79c4.95-1.07,15.1,15.6,17.54,20.16-.23,4.09-13.39,22.55-15,23.02-3.78,1.1-4.61-2.45-6.33-4.48-4.41-5.21-9.65-11.95-11.36-18.54,0-2.17,13.05-19.71,15.15-20.16Z"/>
      <path class="cls-4" d="M66.33,213.55c3.54-1.03,16.67,17.21,17.2,20.7s-11.55,21.82-14.66,22.48c-4.95,1.06-15.1-15.59-17.53-20.16.23-4.09,13.39-22.55,15-23.02Z"/>
      <path class="cls-5" d="M32.49,10.82v8.1s-13.54.01-13.54.01l12.33,7.95.9,17.43c-8.34,9.75-21.9,4.72-18.64-9.16l13.52,5.4v-10.8s-13.54,0-13.54,0V10.8s18.96.01,18.96.01Z"/>
      <path class="cls-5" d="M200.3,251.38l-9.48-8.1c-15.54,6.38-2.97,16.84,9.5,13.51l-.02,18.92-21.65-2.7,16.23-5.41-14.93-10.75c-9.44-18.67,20.24-28.97,20.34-5.47Z"/>
      <polygon class="cls-6" points="192.16 202.73 200.22 217.38 192.23 228.03 186.8 229.76 178.74 215.12 186.73 204.46 192.16 202.73"/>
      <path class="cls-5" d="M23.01,56.79l9.26,12.53-9.26,14.46c-11.5-9.47-11.4-17.6,0-26.99Z"/>
    </g>
  </g>
</svg>