<?xml version="1.0" encoding="UTF-8"?>
<svg id="Layer_2" data-name="Layer 2" xmlns="http://www.w3.org/2000/svg" viewBox="0 0 213.84 286.64">
  <defs>
    <style>
      .cls-1 {
        fill: #191a18;
      }

      .cls-2 {
        fill: #414141;
      }

      .cls-3 {
        fill: #e5e9f1;
      }

      .cls-4 {
        fill: #13140f;
      }

      .cls-5 {
        fill: #fff;
      }

      .cls-6 {
        fill: #b7a68b;
      }

      .cls-7 {
        fill: #0c0c0c;
      }

      .cls-8 {
        fill: #f0f1f3;
      }
    </style>
  </defs>
  <g id="Layer_1-2" data-name="Layer 1">
    <g>
      <rect class="cls-5" x="1.87" width="210" height="284"/>
      <path class="cls-7" d="M0,2.81L1.64.45,213.84.11v286.53l-212.2-.34-1.64-2.36,2.71-2.7c4.57,3.37,9.6,2.6,14.85,2.75,61.15,1.72,122.66-1.14,183.81-.34,1.33-.41,4.36-3.1,4.36-3.76V6.87c0-.66-3.03-3.35-4.36-3.76-61.1,1.14-122.73-2.52-183.82-.35-5.32.19-10.1-.42-14.84,2.76L0,2.81Z"/>
      <polygon class="cls-2" points="2.71 5.52 2.71 281.23 0 283.93 0 2.81 2.71 5.52"/>
      <path class="cls-4" d="M135.34,48.76c-5.35-2.33-3.75-20.39,8.95-18.54,8.19,1.2,12.14,10.11,7.43,16.88-2.11,3.03-6.45-.21-5.54,4.35,18.52-10.34,27.27,15.64,9.03,18.66-4.8.79-7.14-6.83-11.73-7.83l5.4,13.51c-16.83,1.63-8.85-1.94-8.13-13.5l-4.21,5.56c-18.56,4.38-21.45-20.12-3.9-19.08l4.06,5.39,4.06-5.37c-1.67-.34-4.27.49-5.42-.01Z"/>
      <path class="cls-4" d="M73.09,48.76c-1.15.5-3.75-.33-5.42.01l4.06,5.37,4.06-5.39c17.55-1.04,14.66,23.46-3.9,19.08l-4.21-5.56,2.69,13.5h-9.46s1.34-10.81,1.34-10.81c-27.01,12.62-24.59-23.87,0-13.52.91-4.57-3.43-1.32-5.54-4.35-4.71-6.77-.76-15.68,7.43-16.88,12.7-1.85,14.29,16.21,8.95,18.54Z"/>
      <path class="cls-4" d="M73.09,240.68c5.92,5.11,2.39,10.94-2.67,14.96-11.62,5.87-20.73-10.72-12.89-17.18,1.65-1.36,5.74,1.32,4.73-3.18-24.68,10.32-26.93-26.18,0-13.52l-2.69-10.81h10.82s-2.69,13.5-2.69,13.5l4.21-5.56c13.23-1.7,17.9,3.8,13.53,16.53-2.43,3.5-6.52,2.02-9.63,2.54l-4.06-5.39-4.04,4.03c1.17,2.19,4,2.85,5.39,4.05Z"/>
      <path class="cls-4" d="M73.09,137.97c-1.15.5-3.75-.33-5.42.01l4.06,5.37,4.06-5.39c17.55-1.04,14.66,23.46-3.9,19.08l-4.21-5.56,2.69,13.5h-9.46s1.34-10.81,1.34-10.81c-26.92,12.57-24.74-23.72,0-13.53-8.66-7.16-11.11-19.34,1.88-21.23,12.7-1.85,14.29,16.21,8.95,18.54Z"/>
      <path class="cls-4" d="M135.34,135.26c-9.77-8.45,6.39-22.47,15.71-13,8.67,8.8-6.41,17.13-4.89,18.4,19.08-8.9,28.45,14.29,7.1,18.71l-9.8-7.88,5.4,13.51h-10.82s2.69-13.5,2.69-13.5l-4.21,5.56c-13.23,1.7-17.9-3.8-13.53-16.53,2.46-3.55,6.59-1.96,9.63-2.54l4.06,5.39c6.79-5.52,2.88-4.43-1.35-8.09Z"/>
      <path class="cls-4" d="M132.64,237.98c-17.55,1.04-14.66-23.46,3.9-19.08l4.21,5.56c-.72-11.56-8.7-15.13,8.13-13.5l-5.4,13.51c6.01-4.83,10.66-6.92,18.74-5.2,6.87,14.47-1.65,22.21-16.03,16.02-.91,4.57,3.43,1.32,5.54,4.35,4.71,6.77.76,15.68-7.43,16.88-12.7,1.85-14.29-16.21-8.95-18.54,1.15-.5,3.75.33,5.42-.01l-4.06-5.37-4.06,5.39Z"/>
      <path class="cls-1" d="M178.65,267.72l13.54-5.4c-23.9,3.45-20.49-30.36,1.12-24.09,6,1.74,5.44,22.49,3.89,27.73-2.4,8.1-18.19,16.27-18.54,1.76ZM192.18,243.38h-8.11v13.53h8.11v-13.53Z"/>
      <path class="cls-1" d="M29.78,19.03l-13.54,5.4c23.9-3.45,20.49,30.36-1.12,24.09-6-1.74-5.44-22.49-3.89-27.73,2.4-8.1,18.19-16.27,18.54-1.76ZM24.36,29.83h-8.11v13.53h8.11v-13.53Z"/>
      <path class="cls-4" d="M27.63,67.14c1.65,2.21,10.06,1.45,7.55,10-1.18,4.01-8.05,3.12-10.24,4.82-1.68,1.31.98,7-8.7,4.64l2.7-8.1c-9.99,5.99-11.84-1.85-10.83-10.79l8.17-.03c-7.04-9.46,6.01-16.17,10.22-6.09.67,1.6.03,4.07,1.14,5.55Z"/>
      <path class="cls-4" d="M192.19,200.15l-2.7,8.1c9.99-5.99,11.84,1.85,10.83,10.79l-8.17.03,2.56,6.5c-12.29,12.58-10.95-2.03-13.92-5.96-.83-1.1-3.28-1.17-4.64-2.01-8.16-5.03.9-17.27,9.29-9.37l-1.38-8.08h8.12Z"/>
      <path class="cls-6" d="M75.79,237.98c-1.53.26-2.89.99-2.71,2.7-1.4-1.21-4.23-1.86-5.39-4.05l4.04-4.03,4.06,5.39Z"/>
      <path class="cls-6" d="M132.64,137.97c1.54-.29,2.88-.97,2.71-2.7,4.23,3.66,8.15,2.57,1.35,8.09l-4.06-5.39Z"/>
      <path class="cls-6" d="M73.09,48.76h2.71l-4.06,5.39-4.06-5.37c1.67-.34,4.27.49,5.42-.01Z"/>
      <path class="cls-6" d="M135.34,48.76c1.15.5,3.75-.33,5.42.01l-4.06,5.37-4.06-5.39h2.71Z"/>
      <path class="cls-6" d="M73.09,137.97h2.71l-4.06,5.39-4.06-5.37c1.67-.34,4.27.49,5.42-.01Z"/>
      <path class="cls-6" d="M132.64,237.98l4.06-5.39,4.06,5.37c-1.67.34-4.27-.49-5.42.01h-2.71Z"/>
      <rect class="cls-3" x="184.07" y="243.38" width="8.11" height="13.53"/>
      <rect class="cls-8" x="16.25" y="29.83" width="8.11" height="13.53"/>
    </g>
  </g>
</svg>