<?xml version="1.0" encoding="UTF-8"?>
<svg id="Layer_2" data-name="Layer 2" xmlns="http://www.w3.org/2000/svg" viewBox="0 0 215.34 288.24">
  <defs>
    <style>
      .cls-1 {
        fill: #414141;
      }

      .cls-2 {
        fill: #fe1417;
      }

      .cls-3 {
        fill: #fff;
      }

      .cls-4 {
        fill: #0c0c0c;
      }

      .cls-5 {
        fill: #fe1014;
      }

      .cls-6 {
        fill: #fe0c11;
      }

      .cls-7 {
        fill: #fe2327;
      }
    </style>
  </defs>
  <g id="Layer_1-2" data-name="Layer 1">
    <g>
      <rect class="cls-3" x="3.36" y="2.3" width="210" height="284"/>
      <path class="cls-4" d="M1.5,0h213.85s-.01,286.52-.01,286.52c-3.7.64-7.62-3.27-10.82-2.7v-2.7l2.22-1.95.5-276.48L4.2,5.41,1.5,0Z"/>
      <path class="cls-1" d="M4.2,5.41v275.72s200.31,0,200.31,0v2.7c-61.67,10.94-132.91-2.62-196.36,2.81l-8.15-2.67L1.5,0l2.71,5.41Z"/>
      <path class="cls-6" d="M65.34,213.64c2.94-.66,21.45,17.54,22.36,20.58,3.05,10.2-1.27,16.82-9.3,22.48l-10.55-7.64-13.29,7.62c-22.32-16.13-3.4-30.2,10.78-43.03Z"/>
      <path class="cls-6" d="M144.94,245.99h-2.67c-4.39,18.9-16.37,7.6-21.76-4.01-.13-6.75,21.56-29.24,25.58-28.34,9.29,9.74,25.74,19.07,18.42,34.3-4.69,9.76-19.11,9.15-19.56-1.96Z"/>
      <path class="cls-6" d="M141.94,121.98c1.76,2.41-2.22,8.6,3.01,7.77,1.43-11.43,14.19-16.05,19.56-4.66,7.95,16.84-8.68,23.21-18.43,34.3-3.82.85-12.47-10.2-16.02-13.53-1.82-1.71-5.35-2.05-6.2-3.15-.45-.57-3.26-10.49-3.29-11.73-.08-3.31,6.94-10.96,9.94-11.81,2.25-.64,10.8,1.94,11.43,2.8Z"/>
      <path class="cls-6" d="M141.94,32.78c1.76,2.41-2.22,8.6,3.01,7.77,1.43-11.43,14.19-16.05,19.56-4.66,7.95,16.84-8.68,23.21-18.43,34.3-3.82.85-12.47-10.2-16.02-13.53-1.82-1.71-5.35-2.05-6.2-3.15-.45-.57-3.26-10.49-3.29-11.73-.08-3.31,6.94-10.96,9.94-11.81,2.25-.64,10.8,1.94,11.43,2.8Z"/>
      <path class="cls-6" d="M69.14,37.86c4.4-16.8,21.55-7.21,19.02,9.48-.69,4.58-19.21,23.66-22.82,22.85-9.75-11.09-26.37-17.46-18.43-34.3,5.94-12.58,14.75-4.34,22.23,1.97Z"/>
      <path class="cls-6" d="M69.14,127.06c4.4-16.8,21.55-7.21,19.02,9.48-.69,4.58-19.21,23.66-22.82,22.85-9.75-11.09-26.37-17.46-18.43-34.3,5.94-12.58,14.75-4.34,22.23,1.97Z"/>
      <path class="cls-2" d="M185.7,224.53c1.26,9.35-7.21,4.63-9.71-.12-4.08-7.78,8.13-23.72,16.02-21.47,9.01,2.57,14.36,29.17,3.22,26.68-2.79-.62-4.65-7.27-9.53-5.09Z"/>
      <path class="cls-7" d="M180.15,273.01l13.53-10.8c-13.06,2.2-19.5-7.75-15.95-20.01,1.82-6.29,20.04-7.77,21.43,2.36,2.23,16.26,1.19,31.85-19.01,28.44ZM193.68,243.29h-8.11v10.81h8.11v-10.81Z"/>
      <path class="cls-5" d="M28.56,10.83l.02,8.1-10.86,5.41c23.59-4.3,19.18,29.02,1.79,24.09C7.56,45.04,7.48,4.15,28.56,10.83ZM25.85,29.74h-8.11v10.81h8.11v-10.81Z"/>
      <path class="cls-2" d="M20.2,57.14l.26,5.04c6.07-4.18,10.46-9.43,16.17-1.22,1.77,6.35-7.99,19.02-14.83,20.31-10.78.02-20.06-28.31-1.6-24.12Z"/>
    </g>
  </g>
</svg>