<?xml version="1.0" encoding="UTF-8"?>
<svg id="Layer_2" data-name="Layer 2" xmlns="http://www.w3.org/2000/svg" viewBox="0 0 213.84 286.53">
  <defs>
    <style>
      .cls-1 {
        fill: #191a18;
      }

      .cls-2 {
        fill: #e5e9f1;
      }

      .cls-3 {
        fill: #0f0f0d;
      }

      .cls-4 {
        fill: #0b0b09;
      }

      .cls-5 {
        fill: #b7c4d9;
      }

      .cls-6 {
        fill: #13140f;
      }

      .cls-7 {
        fill: #fff;
      }

      .cls-8 {
        fill: #0c0c0c;
      }
    </style>
  </defs>
  <g id="Layer_1-2" data-name="Layer 1">
    <g>
      <rect class="cls-7" x="3.63" y="1.44" width="210" height="284"/>
      <path class="cls-8" d="M213.84,2.7v283.82H0V4.05C0,3.77,3.77,0,4.06,0h203.01c.62,0,3.9,3.89,6.77,2.7ZM2.71,5.41v274.36c0,.29,3.77,4.05,4.06,4.05h197.6c.29,0,4.06-3.77,4.06-4.05V9.46c0-.29-3.77-4.05-4.06-4.05H2.71Z"/>
      <path class="cls-3" d="M149.32,70.89c-1.36,1,.62,7.82-11.27,4.78l2.7-8.1c-6.05,3.86-14.13,4.19-17.65-2.64-6.33-12.28,11.58-24.57,19.24-32.4,4.73-1.06,22.38,19.27,22.87,25.7,1.06,13.84-12.32,10.04-15.89,12.66Z"/>
      <path class="cls-3" d="M110.57,170.88c.64.46.08,3.26.98,4.08,2.29,2.07,11.39,1.49,14.45,6.02,8,8.37-16.98,33.5-21.56,32.48-7.95-9.17-26.27-18.47-19.22-32.4,6.25-12.34,16.94.83,17.62.05l-2.69-10.81c3.16.43,8.1-1.09,10.41.57Z"/>
      <path class="cls-3" d="M73.11,213.55l-2.75,5.39c8.66-1.59,20.55,1.46,18.65,11.67-1.16,6.27-18.61,25.14-25.05,23.26-4.9-1.44-22.34-20.99-20.41-27.75,3.24-11.33,18.39-2.38,20.21-12.71l9.34.14Z"/>
      <path class="cls-3" d="M108.28,118.95l2.7,8.09h-10.82s2.69-10.8,2.69-10.8c-.68-.78-11.38,12.39-17.62.05-7.05-13.93,11.27-23.23,19.22-32.4,4.57-1.02,29.55,24.11,21.56,32.49-6.13,5.73-10.41,4.8-17.73,2.57Z"/>
      <path class="cls-8" d="M149.32,162.8c-1.37,1.02.68,7.79-11.27,4.78l5.41-8.09c-1.8-1.5-14.78,8.25-20.36-2.65-6.36-12.43,11.17-25.72,21.72-29.95,10.82,3.66,29.83,26.92,14.91,34-3.67,1.74-8.46.47-10.41,1.92Z"/>
      <path class="cls-4" d="M67.67,159.49l5.41,8.09-9.32.14-3.12-5.65c-31.59.35-10.76-27.19,5.67-35.19,9.55,3.31,34.59,29.24,15.84,35.03-5.86,1.81-9.14-2.7-14.49-2.41Z"/>
      <path class="cls-4" d="M67.67,67.59l5.41,8.09h-10.82s2.7-8.09,2.7-8.09c-15.49,6.2-27.83-2.48-16.27-17.62,13.81-18.09,19.58-19.1,33.94-1.38,6.99,8.63,9.24,13.43-.35,21.5l-14.6-2.49Z"/>
      <path class="cls-4" d="M148.88,213.55l-2.7,8.1c6.88-4.53,11.72-2.25,18.74.19,5.29,9.3-12.37,32.43-20.1,32.41-6.7-.01-35.15-29.07-15.84-35.03,5.86-1.81,9.14,2.7,14.49,2.41l-5.41-8.09h10.83Z"/>
      <path class="cls-6" d="M185.79,238.19c5.5-1.6,12.87,1.54,14.29,6.87,1.02,3.82-2.29,6.97-2.32,10.39-.06,6.26,7.69,18.23-6.91,20.33-17.19,2.48-11.16-10.24-10.72-20.34.23-5.22-4.52-14.29,5.65-17.25ZM192.18,245.99h-8.11v8.1h8.11v-8.1ZM192.18,259.5h-8.11v10.81h8.11v-10.81Z"/>
      <path class="cls-6" d="M192.18,200.04l-2.7,8.09,8.16-1.46,5.54,8.23-15.05,17.55c-7.33-3.96-19.66-22.08-8.1-27,6.28-2.68,1.89,6.56,6.74,5.39l5.42-10.8Z"/>
      <path class="cls-6" d="M15.18,13.82c4.52-1.32,15.69-1.32,17.17,3.96,1.31,4.65-1.93,8.6-1.9,12.81s6.29,15.29-2.32,17.77c-22.03,6.34-15.69-8.07-15.29-19.47.13-3.57-6.09-12.62,2.33-15.07ZM27.07,18.93h-10.82v8.1h10.82v-8.1ZM27.07,35.15h-10.82v8.1h10.82v-8.1Z"/>
      <path class="cls-1" d="M18.95,83.8c-.2-1.77.13-3.64,0-5.42l-6.52,2.58c-11.06-7.74.64-20.3,10.36-24.1,3.94,4.14,11.94,9.13,12.51,14.74.86,8.37-4,11.38-10.92,6.79v5.41h-5.42Z"/>
      <path class="cls-8" d="M24.36,83.8l2.7,5.4h-8.11c-.17-1.77.2-3.64,0-5.4h5.41Z"/>
      <rect class="cls-5" x="184.07" y="259.5" width="8.11" height="10.81"/>
      <rect class="cls-2" x="16.24" y="35.15" width="10.82" height="8.1"/>
      <rect class="cls-2" x="16.24" y="18.93" width="10.82" height="8.1"/>
    </g>
  </g>
</svg>