<?xml version="1.0" encoding="UTF-8"?>
<svg id="Layer_2" data-name="Layer 2" xmlns="http://www.w3.org/2000/svg" viewBox="0 0 213.84 286.53">
  <defs>
    <style>
      .cls-1 {
        fill: #e5e9f1;
      }

      .cls-2 {
        fill: #fe1417;
      }

      .cls-3 {
        fill: #fff;
      }

      .cls-4 {
        fill: #0c0c0c;
      }

      .cls-5 {
        fill: #fe0c11;
      }

      .cls-6 {
        fill: #f0f1f3;
      }

      .cls-7 {
        fill: #fe2327;
      }
    </style>
  </defs>
  <g id="Layer_1-2" data-name="Layer 1">
    <g>
      <rect class="cls-3" x="1.02" y="2.29" width="210" height="284"/>
      <path class="cls-4" d="M213.84,0v286.53c-3.56-2.91-5.66,0-6.77,0H4.06c-.29,0-4.06-3.77-4.06-4.05V0h213.84ZM208.43,281.12V6.76c0-.29-3.77-4.05-4.06-4.05H6.77c-.29,0-4.06,3.77-4.06,4.05v274.36h205.72Z"/>
      <path class="cls-5" d="M143.15,94.94c1.75,2.46-2.22,8.6,3.01,7.77-2.52-13.35,14.69-13.7,20.37-2.75,6.82,13.16-14.45,26.42-21.71,35.17-4.87-6.74-22.17-18.36-23.13-25.68-1.04-7.94,3.01-18.45,12.18-17.62,1.52.14,9,2.7,9.28,3.1Z"/>
      <path class="cls-5" d="M142.95,33.13c.81,1.07.52,3.24.52,4.71h2.68c.96-11.77,15.68-9.09,20.37-.05,7.38,14.24-14.81,23.06-21.94,32.4-3.45.77-22.28-18.22-22.89-22.9-.78-5.98,1.66-11.79,5.39-16.34,3.37-2.72,13.93-.38,15.87,2.19Z"/>
      <path class="cls-5" d="M67.65,245.98h-2.67c-4.39,18.9-16.37,7.6-21.76-4.01-.13-6.75,21.56-29.24,25.58-28.34,9.29,9.74,25.74,19.07,18.42,34.3-4.69,9.76-19.11,9.15-19.56-1.96Z"/>
      <path class="cls-5" d="M68.18,188.51c-.84-1.07-.57-3.24-.52-4.7h-2.68s-2.53,6.93-2.53,6.93c-6.74,5.14-19.23-4.58-19.24-10.94-.01-9.02,17.34-21.7,23.34-28.34,3.57-.8,22.3,18.4,22.89,22.9.59,4.49-1.7,13.81-5.39,16.34s-13.68.61-15.87-2.19Z"/>
      <path class="cls-5" d="M146.15,183.81h-2.68c.99,8.11-12.55,10.71-17.65,5.43-12.93-13.39,7.21-29.34,16.51-37.78,3.43-.77,25.22,21.16,25.65,25.61,1.14,11.9-20.18,23.44-21.84,6.74Z"/>
      <path class="cls-5" d="M64.4,95.37c.96,1.14.7,3.14.58,4.65h1.34c6.05-8.07,15.53-13.36,20.91-1.96,7.95,16.84-8.68,23.21-18.43,34.3-3.81.85-12.48-10.19-16.02-13.53-4.33-4.08-8.1-2.06-8.89-12.59-.73-9.81,13.17-19.59,20.51-10.87Z"/>
      <path class="cls-5" d="M64.65,32.77c1.76,2.41-2.22,8.6,3.01,7.77,1.43-11.43,14.19-16.05,19.56-4.66,7.95,16.84-8.68,23.21-18.43,34.3-3.82.85-12.47-10.2-16.02-13.53-1.82-1.71-5.35-2.05-6.2-3.15-.45-.57-3.26-10.49-3.29-11.73-.08-3.31,6.94-10.96,9.94-11.81,2.25-.64,10.8,1.94,11.43,2.8Z"/>
      <path class="cls-5" d="M108.25,167.59c-.19.25-3.99,1.38-5.43-1.73-5.98-12.86-21.86-15.77-18.42-31.56,4.32-19.82,18.63-4.28,22.1-4.81,6.29-.97,14.34-12.92,19.49,2.82,5.1,15.58-6.62,18.54-15.13,28.5-2.33,2.73-2.22,6.26-2.61,6.78Z"/>
      <path class="cls-5" d="M162.06,253.72c-4.28,3.07-17.55.22-15.91-7.74h-2.67c-1.96,14.46-20.8,9.92-21.76-4.18-1.02-14.91,17.3-14.52,19.06-28.26,4.1-1.02,4.43.93,6.76,2.69,5.87,4.43,22.27,20.54,19.97,27.89-.16.53-5,9.28-5.45,9.6Z"/>
      <path class="cls-2" d="M18.97,83.8c-.4-7.87-13.1-14.22-10.8-22.86,1.88-7.06,10.43-2.21,14.35-2.19,2.21.01,5.14-2.69,8.38-1.9,11.18,2.74-1.13,27.89-11.92,26.95Z"/>
      <path class="cls-7" d="M13.53,40.55l13.54-5.4c-23.9,3.45-20.49-30.36,1.12-24.09,6,1.74,5.44,22.49,3.89,27.73-2.4,8.1-18.19,16.27-18.54,1.76ZM27.06,16.21h-8.11v13.53h8.11v-13.53Z"/>
      <path class="cls-2" d="M188.37,202.83c5.21-1.17,16.23,14.17,14.59,20.05-2.2,7.89-11.63,1.3-14.49,1.87s-4.81,6.02-8.44,5.01c-10.59-2.95.74-23.76,8.33-26.94Z"/>
      <path class="cls-2" d="M197.6,237.88l-13.53,10.8c13.06-2.2,19.5,7.75,15.95,20.01-1.82,6.29-20.04,7.77-21.43-2.36-2.23-16.26-1.19-31.85,19.01-28.44ZM194.89,267.6c1.05-8.96-.52-14.99-10.82-13.51v13.52s10.82-.01,10.82-.01Z"/>
      <rect class="cls-6" x="18.95" y="16.21" width="8.11" height="13.53"/>
      <path class="cls-1" d="M194.89,267.6h-10.82s0-13.51,0-13.51c10.3-1.49,11.86,4.55,10.82,13.51Z"/>
    </g>
  </g>
</svg>