<?xml version="1.0" encoding="UTF-8"?>
<svg id="Layer_2" data-name="Layer 2" xmlns="http://www.w3.org/2000/svg" viewBox="0 0 213.84 286.53">
  <defs>
    <style>
      .cls-1 {
        fill: #191a18;
      }

      .cls-2 {
        fill: #e5e9f1;
      }

      .cls-3 {
        fill: #0b0b09;
      }

      .cls-4 {
        fill: #b7c4d9;
      }

      .cls-5 {
        fill: #13140f;
      }

      .cls-6 {
        fill: #fff;
      }

      .cls-7 {
        fill: #232322;
      }

      .cls-8 {
        fill: #0c0c0c;
      }
    </style>
  </defs>
  <g id="Layer_1-2" data-name="Layer 1">
    <g>
      <rect class="cls-6" x="1.02" y="1.44" width="210" height="284"/>
      <path class="cls-8" d="M213.84,2.7v283.82H0V4.05C0,3.77,3.77,0,4.06,0h203.01c.62,0,3.9,3.89,6.77,2.7ZM208.43,5.41H2.71v274.36c0,.29,3.77,4.05,4.06,4.05h197.6c.29,0,4.06-3.77,4.06-4.05V5.41Z"/>
      <path class="cls-8" d="M67.67,67.59l5.41,8.09-9.31.13c-2.15-9.26-11.82-3.63-17.88-9.81-3.04-14.53,9.33-24.63,20.42-31.02,10.38,4.13,28.13,17.5,21.72,29.95-5.61,10.91-18.55,1.15-20.36,2.65Z"/>
      <path class="cls-3" d="M148.87,148.68l-2.69,10.81c32.87-11.46,18.59,25.1-1.36,32.61-17.27-9.06-38.57-36.59-4.04-35.33l-1.52-5.39,9.61-2.69Z"/>
      <path class="cls-8" d="M67.67,129.76l5.41,8.09-9.31.13c-2.15-9.26-11.82-3.63-17.88-9.81-3.44-16.56,11.1-22.75,20.42-33.54,6.74,9.31,28.04,20.1,21.71,32.48-5.57,10.9-18.56,1.15-20.36,2.65Z"/>
      <path class="cls-3" d="M64.95,159.48l-2.69-10.81c5.01-.62,7.86-.12,10.8,4.05l-4.05,6.74c6.07-6.24,20.41-1.99,20.4,6.74,0,6.24-17.66,25.89-23.1,25.89-3.77,0-13.81-10.38-16.13-13.79-10.3-15.11-2.76-27.84,14.77-18.81Z"/>
      <path class="cls-3" d="M164.91,67.37l-14.29,2.9c-2.97,7.11-4.73,5.82-12.57,5.41l5.41-8.09c-5.35-.29-8.64,4.23-14.49,2.41-5.5-1.7-8.48-8.7-6.85-14.22,1.21-4.08,19.79-21.96,25.05-20.42,7.47,2.19,23.27,22.69,17.73,32.01Z"/>
      <path class="cls-3" d="M164.91,129.54l-14.29,2.9c-2.97,7.11-4.73,5.82-12.57,5.41l5.41-8.09c-5.35-.29-8.63,4.22-14.49,2.41-19.32-5.96,9.17-35.03,15.84-35.03,7.34,0,26.53,22.73,20.09,32.39Z"/>
      <path class="cls-3" d="M148.88,213.55l-2.7,8.1c33.18-11.43,18.19,25.43-1.36,32.61-9.55-3.31-34.59-29.24-15.84-35.03,5.86-1.81,9.14,2.7,14.49,2.41l-5.41-8.09h10.83Z"/>
      <path class="cls-5" d="M110.98,156.78c-1.38-.16-3.68-2.71-6.85-2.72-2.9,0-3.74,2.67-3.98,2.72-29.45,5.57-11.19-32.95,6.53-37.75,15.06,8.36,34.38,41.18,4.29,37.75Z"/>
      <path class="cls-3" d="M73.09,213.55l-5.41,8.09c1.8,1.5,14.75-8.26,20.39,2.67,4.32,8.38-9.72,22.1-16.23,27.16-7.99,6.22-18.79-5.51-22.74-12.63-8.65-15.58-.56-25.5,15.86-17.2l-2.7-8.1h10.83Z"/>
      <path class="cls-3" d="M24.37,78.39l2.69,10.81h-8.11s2.7-10.8,2.7-10.8c-11.67,5.47-17.93-1.11-10.51-11.9,2.91-4.22,8.98-3.6,7.88-9.67,1.96-3.06,15,9.7,15.83,12.45,2.64,8.74-2.69,14.58-10.48,9.11Z"/>
      <path class="cls-8" d="M192.18,200.04l-2.71,8.09,10.92,1.27,2.61,2.81c1.64,6.08-10.74,19.24-17.24,17.33-10.87-3.2-15.63-23.98,1.03-21.41l-2.73-8.09h8.11Z"/>
      <path class="cls-5" d="M197.6,245.98l-13.53,5.4c25.28-6.08,20.34,30.31-1.12,24.09-6-1.74-5.44-22.49-3.89-27.73,2.4-8.1,18.19-16.27,18.54-1.76ZM194.89,256.8h-10.82s0,13.51,0,13.51c10.3,1.49,11.86-4.55,10.82-13.51Z"/>
      <path class="cls-1" d="M29.78,43.25c-1.43-.38-1.92-2.03-2.71-2.7-4.8-4.1-9.79-1.93-13.7-6.59C.19,18.19,30.92,1.7,32.59,22.86c.62,7.86.99,14.34-2.81,20.39ZM27.06,18.91h-8.11v13.53h8.11v-13.53Z"/>
      <path class="cls-7" d="M29.78,43.25c-4.59,7.3-7.94,5.59-16.24,5.4l-.02-5.4,13.55-2.71c.78.67,1.27,2.33,2.71,2.7Z"/>
      <path class="cls-7" d="M110.98,156.78l-1.55,5.52-9.28-.12v-5.41c.24-.04,1.07-2.72,3.98-2.72,3.17,0,5.47,2.56,6.85,2.72Z"/>
      <path class="cls-4" d="M194.89,256.8c1.05,8.96-.52,14.99-10.82,13.51v-13.52s10.82.01,10.82.01Z"/>
      <rect class="cls-2" x="18.95" y="18.91" width="8.11" height="13.53"/>
    </g>
  </g>
</svg>