<?xml version="1.0" encoding="UTF-8"?>
<svg id="Layer_2" data-name="Layer 2" xmlns="http://www.w3.org/2000/svg" viewBox="0 0 213.84 286.53">
  <defs>
    <style>
      .cls-1 {
        fill: #414141;
      }

      .cls-2 {
        fill: #f5f5f6;
      }

      .cls-3 {
        fill: #fe1417;
      }

      .cls-4 {
        fill: #fff;
      }

      .cls-5 {
        fill: #0c0c0c;
      }

      .cls-6 {
        fill: #fe1014;
      }

      .cls-7 {
        fill: #fe0c11;
      }

      .cls-8 {
        fill: #f0f1f3;
      }

      .cls-9 {
        fill: #fe2327;
      }
    </style>
  </defs>
  <g id="Layer_1-2" data-name="Layer 1">
    <g>
      <rect class="cls-4" x="1.66" y=".84" width="210" height="284"/>
      <path class="cls-5" d="M0,2.7L1.64.34l212.2-.34v286.53l-212.2-.34-1.64-2.36,2.71-2.7c4.57,3.37,9.6,2.6,14.85,2.75,61.15,1.72,122.66-1.14,183.81-.34,1.33-.41,4.36-3.1,4.36-3.76V6.76c0-.66-3.03-3.35-4.36-3.76-61.1,1.14-122.73-2.52-183.82-.35-5.32.19-10.1-.42-14.84,2.76L0,2.7Z"/>
      <polygon class="cls-1" points="2.71 5.41 2.71 281.12 0 283.82 0 2.7 2.71 5.41"/>
      <polygon class="cls-6" points="104.21 118.96 121.68 144.33 104.21 167.57 86.91 142.35 104.21 118.96"/>
      <path class="cls-3" d="M37.89,48.65h-13.53s2.7-8.09,2.7-8.09l-9.48-.05-1.46,8.07-10.72.08c-.71-14.35,11.84-24.65,13.54-37.83l8.57,14.41,10.36,23.43ZM24.36,32.43c1.76-3.38-4.34-9.43-5.4-8.1,1.08,4.04-1.84,4.93-2.72,8.1h8.12Z"/>
      <path class="cls-9" d="M184.06,237.88l-2.7,8.09,9.48.05,1.46-8.07,10.72-.08c4.19,4.17-15.83,29.98-13.54,37.84-3.97-.3-4.22-4.06-5.46-6.7-3.42-7.28-11.63-21.28-13.44-27.13-2.19-7.06,9.75-3.19,13.5-4.01ZM192.19,254.1h-8.12c-.87,4.03,1.19,5.58,4.06,8.09l4.06-8.09Z"/>
      <path class="cls-3" d="M189.46,229.77l-13.43-12.39,8.06-14.65c7.46-.93,8.71,8.28,13.33,12.52l-7.96,14.52Z"/>
      <path class="cls-7" d="M20.3,56.79c11.34,10.1,12.86,17.65,0,26.99l-9.26-14.46,9.26-12.53Z"/>
      <path class="cls-8" d="M24.36,32.43h-8.12c.87-3.18,3.8-4.06,2.72-8.1,1.06-1.33,7.16,4.72,5.4,8.1Z"/>
      <path class="cls-2" d="M192.19,254.1l-4.06,8.09c-2.87-2.51-4.93-4.07-4.06-8.1h8.12Z"/>
    </g>
  </g>
</svg>