<?xml version="1.0" encoding="UTF-8"?>
<svg id="Layer_2" data-name="Layer 2" xmlns="http://www.w3.org/2000/svg" viewBox="0 0 213.84 288.1">
  <defs>
    <style>
      .cls-1 {
        fill: #050505;
      }

      .cls-2 {
        fill: #191a18;
      }

      .cls-3 {
        fill: #414141;
      }

      .cls-4 {
        fill: #87722b;
      }

      .cls-5 {
        fill: #f5f5f6;
      }

      .cls-6 {
        fill: #e5e9f1;
      }

      .cls-7 {
        fill: #0f0f0d;
      }

      .cls-8 {
        fill: #dab924;
      }

      .cls-9 {
        fill: #3a3a3a;
      }

      .cls-10 {
        fill: #b7c4d9;
      }

      .cls-11 {
        fill: #fe1417;
      }

      .cls-12 {
        fill: #fff;
      }

      .cls-13 {
        fill: #c4a025;
      }

      .cls-14 {
        fill: #172680;
      }

      .cls-15 {
        fill: #b7a68b;
      }

      .cls-16 {
        fill: #c71618;
      }

      .cls-17 {
        fill: #802121;
      }

      .cls-18 {
        fill: #232322;
      }

      .cls-19 {
        fill: #0c0c0c;
      }

      .cls-20 {
        fill: #fe1014;
      }

      .cls-21 {
        fill: #fe0c11;
      }

      .cls-22 {
        fill: #f2d621;
      }

      .cls-23 {
        fill: #585858;
      }

      .cls-24 {
        fill: #f0f1f3;
      }

      .cls-25 {
        fill: #fe2327;
      }

      .cls-26 {
        fill: #95a4ca;
      }

      .cls-27 {
        fill: #ad912e;
      }

      .cls-28 {
        fill: #6874af;
      }
    </style>
  </defs>
  <g id="Layer_1-2" data-name="Layer 1">
    <g>
      <rect class="cls-12" x="1.84" y="2.29" width="210" height="284"/>
      <path class="cls-19" d="M213.84,0v283.82c-5.21-.35-9.62,2.39-14.8,2.8-61,4.77-128-3.84-189.68.02-2.8.93-9.36-2.02-9.36-4.17V0h213.84ZM2.71,281.12h201.66c.29,0,4.06-3.77,4.06-4.05V6.76c0-.29-3.77-4.05-4.06-4.05H6.77c-.29,0-4.06,3.77-4.06,4.05v274.36Z"/>
      <path class="cls-1" d="M35.19,254.09V29.73h140.76c.07,18.88-.09,37.88,0,56.76h-2.71c.24-.2-.08-1.76,0-2.7.55-6.65.27-14.84,0-21.62-.05-1.3-2.43-3.73-2.71-5.41-.13-.75-.13-1.95,0-2.7.28-1.68,2.6-4.02,2.71-5.41.41-5.33-.28-10.87,0-16.23-9.9-.02-19.88.04-29.78,0-23.42-.08-46.96-.06-70.38,0-.9,0-1.8,0-2.71,0-10.8.04-21.69-.02-32.49,0,.14,21.59-.17,43.29,0,64.88.02,2.7-.05,5.41,0,8.11s-.18,5.43,0,8.11c.13,1.98-.42,4.03.58,5.93l2.12,2.18c-3.03,4.44-2.45,8.64-2.71,13.52-.52,9.81.14,19.89,0,29.73-.05,3.6.04,7.21,0,10.81,0,.9,0,1.8,0,2.7-.02,2.7.02,5.41,0,8.11v64.87c-.19.03-.47,3.24-2.71,2.7Z"/>
      <path class="cls-18" d="M157,86.5l8.13,8.1-1.34-5.42,7.95,2.89,1.51-5.57h2.71c.16,33.29.08,66.72,0,100.01h-2.71c-5.26-.13-8.99,3.82-13.53,5.41l.13-3.81c-7.15-1.77-4.78-5.98-5.55-7.01,3.36-.81,5.6-7.13,6.01-7.4,5.83-3.82,6.38,2.33,10.23-8.82,2.95-8.55-.03-9.67,0-13.52.01-1.8-.02-3.6,0-5.41.09-7.15-.23-15.19,0-21.62.07-1.93-.06-4.03,0-5.41.15-3.25-.1-10.24,0-10.81.06-.32,3.88-1.79,2.7-5.4l-11.85.38-1.68,2.31c-1.02-1.3-5.29-1.6-5.41-5.41h18.94s0-2.69,0-2.69c-5.19.51-11.29-.77-16.24-.01l-2.71-8.11c0-1.75,2.46-2.24,2.71-2.7Z"/>
      <path class="cls-3" d="M138.05,251.39h32.48v2.7c-1.05.36-1.54,2.45-6.51,2.85-34.03,2.77-87.62,1.96-122.13-.09-3.1-.18-6.03,1.21-6.71-2.76,2.24.54,2.52-2.67,2.71-2.7,5.99-.89,13.96.24,20.44.08,3.69-.09,8.85-2.86,9.33-2.79,23.22,3.36,46.32,2.7,70.38,2.7Z"/>
      <path class="cls-11" d="M203,232.47c-9.53,1.52-10.69-9.65-17.81-.18-14.5-3.98-2.55-21.05,5.89-26.75,11.57,4.56,17.43,15.5,11.93,26.93Z"/>
      <path class="cls-20" d="M21.63,81.09c-.21.28-3.96,1.43-5.44-1.82-3.01-6.63-6.03-5.04-7.49-6.86-.44-.55-3.29-10.48-3.33-11.72-.35-10.03,9.4-4.64,12.72-4.66,3.92-.03,12.46-4.87,14.35,2.19,1.72,6.43-4.91,11.85-8.15,16.12-2.17,2.86-2.32,6.3-2.65,6.74Z"/>
      <path class="cls-20" d="M16.24,10.81l-2.7,13.51,1.36.02c7.16-.09,7.39-7.28,6.76-13.53,8.1.18,12.27-2.99,10.85,6.76-.34,2.36-15,3.72-13.57,10.8,0,1.53,5.54,2.35,8.26,5.27,1.62,1.73,6.96,10.75,5.28,12.3-3.53.31-7.34-.42-10.82,0,3.37-7.22.82-12.14-6.76-13.53l-1.36.02,2.7,13.51c-.65.08-12.24,8.15-10.85-1.35.65-4.44,2.71-7.69,2.9-13.45.25-7.68-2.46-13.11-2.87-20.33,3.59-.07,7.23.07,10.82,0Z"/>
      <path class="cls-25" d="M192.19,251.39c.26-.43,3.04-.3,2.77-3.84-.24-3.2-3.3-6.13-2.77-9.67h13.53c-3.85,11.97-3.87,23.1,0,35.13h-13.53s2.69-10.81,2.69-10.81c-.74-.83-3.54,2.14-5.4,2.7-1.41.43-3.72-.29-5.41,0,3.1-4.01,3.72-7.94,5.41-10.81.34-.57,1.87-1.33,2.71-2.7Z"/>
      <path class="cls-1" d="M175.95,186.51c-.05,21.96-.06,44.02.13,66.01l-.37,1.4c-1.63.84-3.96-.25-5.17.17v-2.7c2.85-1.23,2.68-3.66,2.86-6.5,1.17-18.98-1.17-39.25-.15-58.37h2.71Z"/>
      <path class="cls-11" d="M189.48,254.09l-10.82-16.21h10.83s2.7,13.51,2.7,13.51c-.84,1.37-2.37,2.13-2.71,2.7Z"/>
      <path class="cls-6" d="M21.65,45.95c-1.76.21-3.66-.22-5.41,0l-2.7-13.51,1.36-.02c7.58,1.39,10.13,6.3,6.76,13.53Z"/>
      <path class="cls-6" d="M21.65,10.81c.63,6.25.41,13.43-6.76,13.53l-1.36-.02,2.7-13.51c1.8-.04,3.62-.04,5.41,0Z"/>
      <path class="cls-21" d="M189.48,264.9v8.12s-10.82-.01-10.82-.01c-1.87-5.89,3.81-6.03,5.41-8.1,1.69-.29,4.01.43,5.41,0Z"/>
      <path class="cls-24" d="M70.38,32.44c1.25,6.04,4.7,13.95,8.12,18.92-2.08,4.4-3.36,9.09-5.41,13.52-.12.26-3.46.42-2.5,3.58.8,2.63,4.27,4.04,5.12,5.98.33.74.28,1.64.12,2.59l-5.49,3.09-2.68,14.44c2.8.18,5.83,1.17,8.12,2.75.69.48,2.11.14,2.45,1.6.4,1.26.32,2.52.25,3.81-.2,3.88-3.01,6.85-2.62,10.64,3.75-.69,12.16,7.02,10.74,8.27h-5.42s-7.93-.16-7.93-.16l-2.83-9.51c-1.9-1.59-4.71,1.65-5.48,1.56-.19-.02-1.74-1.78-2.71-2.7-.69-.65-2.53-2.42-2.71-2.7-.6-.95-1.35-3.17-2.71-5.41-.69-1.13-.84-2.68-2.71-5.41s-2.3-6.09-6.74-5.41l-1.38,2.71c-1.98.23-5.2,3.15-8.12,2.7-.18-21.59.13-43.29,0-64.88,10.8-.02,21.69.04,32.49,0ZM51.13,35.56c-20.61-4.74-4.65,28.47,4.11,26.51,6.29-4.71,14.85-14.32,12.33-22.74-3.07-10.24-13.94,4.06-15.99,1.04l-.45-4.81Z"/>
      <path class="cls-17" d="M73.09,32.44l9.58,10.76,13.36-5.48c2.08,0,1.41,4.85,4.13,5.53,4.06,1.02,11.29-.43,16.24,0,.33,1.58-.28,3.65,0,5.4l11.97.14c3.15-.41.98-4.26,1.57-5.54.34-.73,10.85-9.3,13.53-8.11,1.02,5.28-4.04,8.15-5.41,10.81-1.85,3.58-3.98,6.54-5.41,10.81h-2.71v-2.7c-2.78-7.26-9.36-.38-10.83,0-3.7.95-10.84-2.4-16.24-2.7-8.14-.45-13.98,1.85-21.65,2.7-.94-1.34-2.3-2.11-2.71-2.7-3.42-4.98-6.88-12.88-8.12-18.92.9,0,1.8,0,2.71,0Z"/>
      <path class="cls-22" d="M143.46,32.44v2.7c-2.69-1.19-13.2,7.38-13.53,8.11.25-2.21-.6-2.66-2.71-2.7s-4.27-.31-6.38.38l-1.75,2.33c-.89-.11-1.81.08-2.71,0-2.58-12.51-15.34-11.25-16.24,0-2.72-.68-2.05-5.54-4.13-5.53l-13.36,5.48-9.58-10.76c23.42-.06,46.96-.08,70.38,0Z"/>
      <path class="cls-5" d="M143.46,32.44c9.9.04,19.88-.02,29.78,0-.29,5.35.4,10.89,0,16.23-4.67,4.07-5.87-.03-10.13-2.12-2.27-1.12-5.58-.22-6.11-.58-.37-.25-.53-6.89-4.06-8.09-5.3,3.55-4.05,7.9-4.06,13.49-3.97-1.05-7.1-2.19-10.82.01v-5.42c1.36-2.66,6.42-5.53,5.4-10.81v-2.7Z"/>
      <path class="cls-3" d="M56.84,186.51h5.41c.95,8.21-5.98,8.42-10.82,10.81v-5.4s-5.4,0-5.4,0c.58,3.11-2.27,5.86-2.73,8.11-.17.83.11,1.8,0,2.7l-5.41-5.41v-10.81h18.95Z"/>
      <path class="cls-6" d="M43.31,202.73c-.28,2.38-.19,5.65,0,8.11.07.89-.05,1.81,0,2.7l13.53,8.11-18.95,2.7v-27.03l5.41,5.41Z"/>
      <path class="cls-17" d="M62.26,110.83l-9.63,5.36c-1.53,2.07,1.46,4.37,1.51,5.45.02.31-3.1,1.15-.06,5.25l-7.65.59c-1.45,1.07,0,4.41-.41,4.98-.17.25-4.72-.02-5.41,2.7h-2.71c.26-4.88-.32-9.08,2.71-13.52,3.67-5.39,14.94-7.22,18.95-13.52.18.28,2.02,2.05,2.71,2.7Z"/>
      <path class="cls-9" d="M54.14,97.31c1.86,2.72,2.02,4.28,2.71,5.41-5.03,5.02-11.77,10.07-18.95,10.81-.18-2.67.05-5.42,0-8.11,7.6,1.29,7.93-.47,10.71-6.8l2.82-1.31h2.71Z"/>
      <path class="cls-27" d="M48.72,137.86v2.7c-1.78-.15-3.63.06-5.41,0-.28,1.74.33,3.84,0,5.41-1.33,6.21-.54,7.16,0,13.52.15,1.77-.25,3.7,0,5.41,9.81.87,3.57,5.54,10.83,10.81-.06.9.05,1.8,0,2.7l-2.71,2.7-1.6-2.32c-1.24-.5-2.54-.26-3.81-.38v-2.7c-.5-3.73-2.16-7.08-2.71-10.81-1.78-.16-3.62.11-5.41,0,.14-9.85-.52-19.92,0-29.73h2.71c1.68,3.05,4.8,3.11,8.12,2.7Z"/>
      <path class="cls-8" d="M59.55,108.12c-4.01,6.3-15.27,8.13-18.95,13.52l-2.12-2.18c-1.01-1.9-.45-3.95-.58-5.93,7.18-.74,13.92-5.79,18.95-10.81,1.36,2.23,2.11,4.46,2.71,5.41Z"/>
      <path class="cls-5" d="M173.24,62.17c.27,6.78.55,14.98,0,21.62h-5.41c-.31-1.62.23-3.67,0-5.41-.17-1.25.34-2.66-.16-3.9l-2.55-1.5c.25-1.73-.31-3.78,0-5.41.06-.33,3.78-2.79,2.71-5.41h5.41Z"/>
      <path class="cls-14" d="M56.84,221.65c-.23,3.56.35,7.27,0,10.81-1.99-1.25-3.18-4.84-5.41-5.41-4.09-1.04-9.93.39-13.53,2.7v-5.41l18.95-2.7Z"/>
      <path class="cls-16" d="M46.02,178.4c1.27.12,2.58-.12,3.81.38l1.6,2.32h-10.82s0,2.69,0,2.69l16.24-2.69v5.41h-18.95c.02-2.7-.02-5.41,0-8.11,2.68.17,5.46-.26,8.12,0Z"/>
      <path class="cls-13" d="M51.43,97.31l-2.82,1.31c-2.78,6.32-3.11,8.09-10.71,6.8-.05-2.7.02-5.41,0-8.11,2.92.45,6.14-2.47,8.12-2.7,2.56-.3,4.44.28,5.41,2.7Z"/>
      <path class="cls-6" d="M51.43,227.06l-.28,3.76-3.98,4.28-6.58-2.64h-2.71v-2.7c3.6-2.31,9.44-3.74,13.53-2.7Z"/>
      <path class="cls-28" d="M43.31,164.89c.54,3.73,2.21,7.09,2.71,10.81h-8.12c.04-3.6-.05-7.21,0-10.81,1.79.11,3.63-.16,5.41,0Z"/>
      <path class="cls-26" d="M173.24,48.66c-.11,1.39-2.43,3.72-2.71,5.41-3.64-.7-7.27-1.7-10.83-2.7-.36-.1-1.06-3.95-5.41,0,.08-1.28-.09-2.57.38-3.81l2.33-1.6c.53.36,3.85-.54,6.11.58,4.26,2.1,5.45,6.19,10.13,2.12Z"/>
      <path class="cls-26" d="M170.53,56.76c.28,1.68,2.65,4.1,2.71,5.41h-10.83l-5.41-5.41h13.53Z"/>
      <path class="cls-6" d="M170.53,54.06c-.13.75-.13,1.95,0,2.7h-13.53l2.71-5.41c3.55,1.01,7.19,2,10.83,2.7Z"/>
      <path class="cls-13" d="M46.02,175.7v2.7c-2.66-.26-5.44.17-8.12,0,0-.9,0-1.8,0-2.7h8.12Z"/>
      <path class="cls-26" d="M173.24,83.8c-.08.94.24,2.5,0,2.7-1.41,1.17-4.78.54-5.41-2.7h5.41Z"/>
      <path class="cls-6" d="M173.24,186.51c-1.02,19.12,1.32,39.4.15,58.37-.18,2.84,0,5.27-2.86,6.5h-32.48v-2.7c-2.18-4.63-4.92-8.12-5.41-13.52-.67-7.28,1.21-12.02,5.16-17.98l-5.16-9.04c6.52,2.37,6.85-7.54,8.12-8.12,2.05-.93,7.77.87,10.78-.12l.05-5.29,3.82-.37,1.59-2.34c.89-.22,1.95.27,2.71,0,4.55-1.59,8.27-5.53,13.53-5.41ZM153.26,224.57c-5.59,1.6-11.37,14.11-9.7,19.93,2.7,9.4,11.22-.67,12.08-.67s11.48,11.26,12.35-1.92c.43-6.59-6.6-19.67-14.73-17.34Z"/>
      <path class="cls-10" d="M127.22,159.48c.72.67.89,3.23,2.56,4.15,2.1,1.16,7.93-2.51,10.98,1.25,1.16,2.77,8.48,10.17,10.83,13.52.94,1.35,2.2,2.02,2.71,2.7.76,1.03-1.61,5.24,5.55,7.01l-.13,3.81c-.76.27-1.82-.22-2.71,0-1.12.28-2.64-.42-3.92.17l-1.49,2.53-.05,5.29c-3.01.99-8.72-.81-10.78.12l-5.41-2.73v-4.02c-.39-1.58-.09-1.58,1.32-1.09,3.88,1.36,4.39,5.82,4.1-2.97-2.71-.06-5.42-.01-8.13,0,1.01-3.11-2.11-4.28-2.71-5.41-2.53-4.73-4.6-10.9-5.41-16.22-.51-3.32.34-7.33,0-10.81,1.97-.04,2.07,2.12,2.71,2.7Z"/>
      <path class="cls-17" d="M170.53,164.89c-6.5,3.5-15.19,7.24-18.95,13.52-2.35-3.35-9.67-10.74-10.83-13.52-.49-1.19.33-3.77,0-5.41,1.78,0,3.66.17,5.41,0s3.78.29,5.41,0l5.4,2.7c.21-1.76-.29-3.79.01-5.4,4.87-1.43,9.23-2.55,13.53-5.41-.03,3.85,2.95,4.96,0,13.52Z"/>
      <path class="cls-27" d="M167.82,83.8c.63,3.24,4,3.87,5.41,2.7l-1.51,5.57-7.95-2.89,1.34,5.42-8.13-8.1c2.24-4.14-1.76-4.42,8.12-8.11h2.71c.23,1.74-.31,3.79,0,5.41Z"/>
      <path class="cls-15" d="M170.53,124.34c-.23,6.44.09,14.47,0,21.62h-5.41l2.7-8.1h-5.41v-5.41l2.33-1.74.38-6.37h5.41Z"/>
      <path class="cls-8" d="M165.12,145.97h5.41c-.02,1.8.01,3.6,0,5.41-4.3,2.85-8.67,3.97-13.53,5.41.71-3.74,2.32-7.2,2.71-10.81h5.41Z"/>
      <path class="cls-13" d="M159.7,105.42c.91,1.17,2.62,2.53,2.71,2.7,1.27,2.35,1.32,7.72,3.02,10.59l5.1.22c-.06,1.38.07,3.48,0,5.41h-2.71c-.19-3.44-4.55-4.28-5.41-5.41-1.76-2.3-1.75-6.95-5.41-8.11h-2.71c-.2-1.63-2.04-8.31-2.71-10.81h2.71c.12,3.8,4.39,4.1,5.41,5.41Z"/>
      <path class="cls-23" d="M170.53,108.12c-.1.57.15,7.56,0,10.81l-5.1-.22c-1.7-2.87-1.75-8.24-3.02-10.59h8.12Z"/>
      <path class="cls-9" d="M159.7,78.39c1.77.17,3.63-.12,5.41,0-9.88,3.68-5.88,3.97-8.12,8.11-.25.46-2.71.95-2.71,2.7h-2.71c.33-1.65-.36-3.82,0-5.41.96-4.21,2.04-5.85,2.71-8.11l1.6,2.32c1.24.5,2.54.25,3.81.38Z"/>
      <path class="cls-16" d="M159.7,105.42l1.68-2.31,11.85-.38c1.17,3.61-2.65,5.08-2.7,5.4h-8.12c-.09-.17-1.79-1.54-2.71-2.7Z"/>
      <path class="cls-2" d="M154.29,89.2l2.71,8.11c-2.08.32-2.79.17-2.71,2.7h-2.71c-.57-2.15-.47-2.22-2.71-2.7-1.95-3.85,2.56-7.41,2.71-8.11h2.71Z"/>
      <path class="cls-16" d="M157,97.31c4.95-.76,11.05.52,16.24.01v2.68s-18.94.01-18.94.01c-.08-2.53.63-2.39,2.71-2.7Z"/>
      <path class="cls-8" d="M170.53,164.89c-3.85,11.15-4.4,4.99-10.23,8.82-.42.27-2.65,6.59-6.01,7.4-.5-.68-1.76-1.35-2.71-2.7,3.76-6.28,12.45-10.02,18.95-13.52Z"/>
      <path class="cls-8" d="M67.67,248.68c5.32-1.71,7.5-3.22,9.66-8.26,4.24,4.8,15.57-1.42,17.25.3.36.37.55,2.93,2.86,5.26,3.62,3.64,5.12,3.08,10.82,2.71v-8.11c4.57.11,8.21,1.16,12.2,1.42,2.2.14,5.06-2.03,7.78-1.28,4.67,1.29,2.94,10.7,9.8,7.97v2.7c-24.06,0-47.16.65-70.38-2.7Z"/>
      <path class="cls-11" d="M51.13,35.56l.45,4.81c2.04,3.02,12.92-11.29,15.99-1.04,2.52,8.42-6.04,18.03-12.33,22.74-8.76,1.96-24.72-31.26-4.11-26.51Z"/>
      <path class="cls-28" d="M75.79,64.87c.86.18,1.88-.24,2.71,0,4.56,12.08.08,19.81,13.53,27.03-2.9-.57-3.95,1.78-5.41,2.7-2.99-.32-6.05-.23-9,.44l-1.83,2.26c-2.29-1.58-5.32-2.57-8.12-2.75l2.68-14.44,5.49-3.09c.16-.95.2-1.86-.12-2.59-.86-1.94-4.32-3.35-5.12-5.98-.97-3.17,2.38-3.32,2.5-3.58h2.71Z"/>
      <path class="cls-16" d="M64.96,113.53l2.71,10.81c-.9-.06-1.81.06-2.71,0-3.98-.28-7.38-.09-10.83-2.7-.05-1.08-3.04-3.39-1.51-5.45l9.63-5.36c.97.92,2.52,2.68,2.71,2.7Z"/>
      <path class="cls-14" d="M64.96,113.53c.76.08,3.58-3.16,5.48-1.56l2.83,9.51,7.93.17v2.7c-4.27-.49-9.11.27-13.53,0l-2.71-10.81Z"/>
      <path class="cls-28" d="M86.62,116.23c1.6,4.29,1.73,8.01,2.71,10.81h-2.71c-1.73-.51-3.95-2.53-5.41-2.7v-2.7h5.42c1.42-1.26-7-8.97-10.74-8.28-.39-3.79,2.42-6.76,2.62-10.64h2.71c3.12,4.21,3.76,9.1,5.41,13.52Z"/>
      <path class="cls-26" d="M81.21,54.06c1.25,1.78,3.85,2.33,4.68,3.4,1.55,2.01.4,3.79.73,4.71h-2.71l-1.36-2.7h-2.69l-1.36,2.7c-1.62.29-2.87.9-2.71,2.7h-2.71c2.05-4.43,3.34-9.11,5.41-13.52.41.6,1.76,1.37,2.71,2.7Z"/>
      <path class="cls-18" d="M86.62,94.61c-3.56,2.25-6.76,3.63-5.41,8.11h-2.71c.07-1.29.15-2.55-.25-3.81-.35-1.46-1.76-1.12-2.45-1.6l1.83-2.26c2.95-.67,6.01-.76,9-.44Z"/>
      <path class="cls-26" d="M54.14,97.31h-2.71c-.98-2.42-2.85-3-5.41-2.7l1.38-2.71c4.44-.68,4.92,2.75,6.74,5.41Z"/>
      <path class="cls-10" d="M119.1,54.06h2.71v10.81s2.7,0,2.7,0l.46-7.8,4.96-.31h2.71c-.26.79.24,1.84,0,2.7-.08.29-2.24.47-2.23,1.34.43,1,2.04.98,2.23,1.36,4.47,8.98,8.61,18.29,13.53,27.03-.88,1.02-2.36,2.17-2.71,2.7h-2.71l-1.75-2.33c-2.07-.84-4.33-.19-6.37-.38-4.7-.43-15.77-1.91-18.58-5.76-2.74-3.75,4.27-18.11-5.78-10.46,1.43-5.87,4.08-10.03,2.85-17.45l-8.26-4.17c5.4.3,12.54,3.65,16.24,2.7Z"/>
      <path class="cls-24" d="M102.86,51.36l8.26,4.17c1.23,7.42-1.42,11.58-2.85,17.45-2.64,10.84-1.05,13.82-13.53,18.92h-2.71c-13.45-7.22-8.97-14.95-13.53-27.03,1.85.53,4.42,3.26,6.73,2.71l4.08-4.09c.13-1.08-2.64-1.19-2.69-1.33-.34-.91.82-2.7-.73-4.71-.83-1.08-3.43-1.63-4.68-3.4,7.68-.85,13.51-3.15,21.65-2.7ZM94.74,62.17c.42,1.39-.33,3.71,0,5.41h8.11s0-5.4,0-5.4h-5.41s5.41-2.72,5.41-2.72v-2.68s-10.8,1.34-10.8,1.34c1.28,1.08,2.21,2.47,2.69,4.06ZM100.14,81.09c.6-8.61-6.79-8.77-13.52-8.1v10.8s13.52-2.7,13.52-2.7Z"/>
      <path class="cls-16" d="M116.39,43.25c-4.95-.43-12.18,1.02-16.24,0,.9-11.25,13.66-12.51,16.24,0Z"/>
      <path class="cls-15" d="M138.05,45.95v5.42c3.72-2.2,6.86-1.07,10.83-.01,0,2.7,0,5.41,0,8.11-3.36-.91-6.44,1.87-5.42-5.4h-5.39s-.44,4.9-.44,4.9l-4.99.5c.24-.86-.26-1.92,0-2.7,1.43-4.27,3.56-7.23,5.41-10.81Z"/>
      <path class="cls-9" d="M129.93,43.25c-.59,1.28,1.58,5.12-1.57,5.54l-11.97-.14c-.28-1.75.33-3.82,0-5.4.9.08,1.82-.11,2.71,0,3.73.46,9.15,7.71,8.12-2.7,2.11.05,2.96.49,2.71,2.7Z"/>
      <polygon class="cls-28" points="129.93 54.06 129.93 56.76 124.97 57.07 124.51 64.87 121.82 64.87 121.81 54.06 129.93 54.06"/>
      <path class="cls-25" d="M129.93,54.06h-10.83c1.47-.38,8.05-7.26,10.83,0Z"/>
      <path class="cls-4" d="M127.22,40.55c1.03,10.41-4.39,3.16-8.12,2.7l1.75-2.33c2.1-.69,4.23-.42,6.38-.38Z"/>
      <path class="cls-27" d="M157,45.95l-2.33,1.6c-.47,1.24-.3,2.53-.38,3.81-.22,3.48-.18,7.33,0,10.81.09,1.8-.09,3.62,0,5.41h8.13c-1.81,3.52-4.83,2.53-8.12,2.7-2.69.14-5.43-.08-8.12,0v-5.38s5.41-2.73,5.41-2.73c.31-2.68-1.03-2.25-2.71-2.7,0-2.7,0-5.41,0-8.11.01-5.6-1.24-9.95,4.06-13.49,3.53,1.19,3.69,7.83,4.06,8.09Z"/>
      <path class="cls-17" d="M94.74,232.47c1.8-.01,3.61,0,5.41,0,9.9-.04,19.88.03,29.78,0v2.7c-9.59.46-18.86,1.95-28.5,2.68-2,.15-4.4.37-3.98,2.73v5.41c-2.31-2.32-2.51-4.89-2.86-5.26-1.68-1.73-13.01,4.5-17.25-.3-2.16,5.04-4.34,6.56-9.66,8.26l5.41-13.52c.85.2,1.84-.17,2.71,0,.35.07,1.71,2.42,6.51,2.85,3.16.29,6.54-.39,9.73-.16.58-2.68-2.65-2.51-2.71-2.69-.22-.74.12-1.77,0-2.7,1.8-.03,3.61.01,5.41,0Z"/>
      <path class="cls-27" d="M56.84,213.54c.45.01,3.9,2.67,8.11,0v5.38s-5.41,2.73-5.41,2.73v2.7l.03,1.43c2.96,2.18,9.84-.72,8.11,6.68l8.11-5.41c.06.18,2.52,2.66,2.71,2.7v2.7l-2.71,2.7c-.87-.17-1.85.2-2.71,0-3.5-.8-7.04.13-10.82-2.71.69,7.12.02,14.29-8.13,13.52-.39-1.63.51-4.37,0-5.41,1.72-2.51,2.41-5.1,2.71-8.11.35-3.54-.23-7.25,0-10.81l-13.53-8.11c4.5.1,9.03-.14,13.53,0Z"/>
      <path class="cls-28" d="M56.84,232.47c-.29,3.01-.99,5.6-2.71,8.11-1.09-2.2-13.25-2.21-13.53-8.11l6.58,2.64,3.98-4.28.28-3.76c2.23.57,3.42,4.16,5.41,5.41Z"/>
      <path class="cls-27" d="M64.96,186.51c.15,1.61.23,3.87,0,5.41-.14.95.26,2.04,0,2.7-.53,1.36-4.91,4.19-5.41,5.41-3.44,2.24-6.75,2.87-10.83,2.7l.25-3.8c.44-1.19,1.54-1.15,2.46-1.6,4.84-2.39,11.77-2.6,10.82-10.81h-5.41v-5.41c1.55,1.32,6.61,5,8.12,5.41Z"/>
      <path class="cls-13" d="M43.31,200.03c.45-2.26,3.31-5.01,2.73-8.11h5.39s0,5.41,0,5.41c-.92.45-2.02.41-2.46,1.6l-.25,3.8c-.94-.04-2.09.23-2.71,0-.19-.07-.49-3.2-2.71-2.7Z"/>
      <path class="cls-27" d="M46.02,202.73v8.11h-2.71c-.19-2.46-.28-5.72,0-8.11.11-.91-.17-1.87,0-2.7,2.21-.5,2.51,2.63,2.71,2.7Z"/>
      <path class="cls-3" d="M56.84,210.84v2.7c-4.5-.14-9.03.1-13.53,0-.05-.9.07-1.81,0-2.7h13.53Z"/>
      <path class="cls-13" d="M64.96,124.34l-2.71,10.81c-2.38.7-1.81,1.05-2.71,2.7-2.43.17-4.42,4.22-6.77,4.6-1.61.26-3.18-1.82-4.06-1.9v-2.7l-.38-3.81-2.33-1.59c.4-.57-1.04-3.9.41-4.98l7.65-.59c-3.04-4.1.08-4.94.06-5.25,3.44,2.62,6.85,2.42,10.83,2.7Z"/>
      <path class="cls-22" d="M46.02,132.45l2.33,1.59.38,3.81c-3.32.41-6.44.35-8.12-2.7.69-2.72,5.24-2.46,5.41-2.7Z"/>
      <path class="cls-3" d="M54.14,151.37c-1.02,7.41.56,16.53,0,24.33-7.25-5.28-1.02-9.94-10.83-10.81-.25-1.7.15-3.64,0-5.41h5.41c.63-5.03-3.53-9.38,0-13.52,2.39,1.18,3.38,3.84,5.41,5.41Z"/>
      <path class="cls-4" d="M54.14,151.37c-2.03-1.57-3.02-4.22-5.41-5.41-1.05-.52-3.8.35-5.41,0,.34-1.57-.27-3.67,0-5.41,1.78.07,3.63-.14,5.41,0,.88.07,2.45,2.16,4.06,1.9,2.34-.38,4.34-4.42,6.77-4.6-1.63,3.01-4.97,10.33-5.41,13.52Z"/>
      <path class="cls-10" d="M48.72,145.97c-3.53,4.13.63,8.49,0,13.52h-5.41c-.54-6.36-1.33-7.31,0-13.52,1.61.35,4.37-.52,5.41,0Z"/>
      <path class="cls-10" d="M162.41,62.17h5.41c1.08,2.62-2.64,5.07-2.71,5.41h-10.84c-.08-1.79.1-3.61,0-5.41h8.12Z"/>
      <path class="cls-9" d="M165.12,72.98c-.9-.05-1.81.06-2.71,0-2.68-.18-5.43.12-8.12,0v-2.7c3.29-.17,6.31.82,8.12-2.7h2.71c-.31,1.63.25,3.68,0,5.41Z"/>
      <path class="cls-10" d="M167.82,78.39h-2.71c.16-1.76-.25-3.7,0-5.41l2.55,1.5c.5,1.25,0,2.65.16,3.9Z"/>
      <path class="cls-1" d="M56.84,181.11l-16.24,2.69v-2.68s10.82-.01,10.82-.01l2.71-2.7c2.35-.4,2.16,2.24,2.71,2.7Z"/>
      <path class="cls-14" d="M159.7,51.36l-2.71,5.41,5.41,5.41h-8.12c-.18-3.49-.22-7.33,0-10.81,4.36-3.95,5.06-.1,5.41,0Z"/>
      <path class="cls-20" d="M153.26,224.57c8.14-2.33,15.17,10.75,14.73,17.34-.87,13.18-11.48,1.93-12.35,1.92s-9.38,10.06-12.08.67c-1.67-5.82,4.11-18.33,9.7-19.93Z"/>
      <path class="cls-28" d="M132.64,189.22c2.71,0,5.43-.05,8.13,0,.29,8.79-.21,4.33-4.1,2.97-1.41-.49-1.71-.49-1.34,1.09v4.02s5.42,2.73,5.42,2.73c-1.27.58-1.6,10.49-8.12,8.12l5.16,9.04c-3.96,5.96-5.83,10.7-5.16,17.98h-2.71v-2.7l-.12-8.04c-1.73-.55-3.72.18-5.3-.07,1.25-1.96,4.85-3.22,5.41-5.41,2.05-7.98-1.15-17.54-5.41-24.33-1.28-7.14,2.44-5.39,8.12-5.41Z"/>
      <path class="cls-18" d="M129.93,235.17h2.71c.5,5.4,3.23,8.89,5.41,13.52-6.86,2.73-5.13-6.68-9.8-7.97-2.72-.75-5.58,1.42-7.78,1.28-3.99-.26-7.63-1.31-12.2-1.42-3.6-.09-7.23.06-10.83,0-.42-2.36,1.98-2.58,3.98-2.73,9.63-.73,18.91-2.22,28.5-2.68Z"/>
      <path class="cls-28" d="M157,191.92l-1.59,2.34-3.82.37,1.49-2.53c1.29-.58,2.81.11,3.92-.17Z"/>
      <path class="cls-16" d="M129.93,183.81c-2.57,4.64-8.59,5.68-13.53,5.41-.32-.45-1.93-1.94-2.71-2.7-.6-.59-.57-1.98-1.76-2.31l-3.66-.39c4.15-3.77,9.63-11.6,13.53-16.22h2.71c.81,5.32,2.88,11.48,5.41,16.22Z"/>
      <path class="cls-24" d="M143.46,148.67c.9.03,1.82-.09,2.71,0,2.96,3.78,2.92,7.09,0,10.81-1.75.17-3.64,0-5.41,0h-13.53c-.64-.59-.74-2.75-2.71-2.7h-2.71c-.09-.94.22-1.99,0-2.7l10.82,2.7-2.7-8.1c4.49.09,9.04-.17,13.53-.01Z"/>
      <path class="cls-28" d="M140.76,159.48c.33,1.64-.49,4.22,0,5.41-3.05-3.76-8.88-.09-10.98-1.25-1.66-.92-1.83-3.49-2.56-4.15h13.53Z"/>
      <path class="cls-2" d="M132.64,189.22c-5.68.01-9.4-1.74-8.12,5.41-1.74.22-3.82-.33-5.41,0-.94-1.75-1.57-3.78-2.71-5.41,4.94.27,10.97-.77,13.53-5.41.6,1.12,3.71,2.29,2.71,5.41Z"/>
      <path class="cls-28" d="M124.52,167.59h-2.71c0-2.7,0-5.41,0-8.11,0-.89.09-1.82,0-2.7h2.71c.34,3.48-.51,7.49,0,10.81Z"/>
      <path class="cls-27" d="M159.7,145.97c-.38,3.61-2,7.08-2.71,10.81-4.16,1.22-5.09,2.64-5.41,2.7-1.63.29-3.64-.17-5.41,0,2.92-3.72,2.96-7.04,0-10.81,1.75.17,4.08-.4,5.41,0,.33.1.63,4.1,5.41,2.7,1.2-3.79-2.6-5.05-2.7-5.4-.29-.98,2.65-4.13,2.71-5.41.04-.9-.03-1.8,0-2.7l2.34,1.75c.56,2.09.59,4.23.37,6.36Z"/>
      <path class="cls-22" d="M157,156.78c-.3,1.61.19,3.65-.01,5.4l-5.4-2.7c.33-.06,1.25-1.48,5.41-2.7Z"/>
      <path class="cls-4" d="M162.41,129.75c.02.9,0,1.8,0,2.7v13.52h-2.71c.23-2.13.19-4.27-.37-6.36l-2.34-1.75c.08-2.7-.08-5.41,0-8.11h5.41Z"/>
      <polygon class="cls-28" points="162.41 137.86 167.82 137.86 165.12 145.97 162.41 145.97 162.41 137.86"/>
      <path class="cls-14" d="M167.82,124.34h-5.41c-.09-1.78.04-3.62,0-5.41.86,1.13,5.22,1.97,5.41,5.41Z"/>
      <path class="cls-6" d="M162.41,132.45c0-.9.02-1.8,0-2.7-.03-1.8.09-3.61,0-5.41h2.71l-.38,6.37-2.33,1.74Z"/>
      <path class="cls-25" d="M157,129.75c-.08,2.7.08,5.41,0,8.11-.03.9.04,1.8,0,2.7l-5.41,5.41h-5.41c-.49-2.96,2.42-6.13,2.71-8.11,2.49-.42,2.06-1.9,2.71-2.7,4.24-5.22,2.91-9.61,2.71-16.22-.08-2.66.31-5.55,0-8.11h2.71c-.12,6.29.18,12.64,0,18.92Z"/>
      <path class="cls-16" d="M148.88,97.31c2.24.49,2.13.55,2.71,2.7.67,2.5,2.51,9.18,2.71,10.81.31,2.56-.08,5.45,0,8.11h-2.71c-.43-3.92-1.28-3.34-2.71-5.41-.92-6.6-.51-10.53-8.12-13.52,0-.91-.18-1.97,0-2.7,2.56.34,5.8-.5,8.12,0Z"/>
      <path class="cls-18" d="M162.41,118.94l-2.7,1.36v9.46h-2.72c.18-6.29-.12-12.63,0-18.92,3.67,1.16,3.65,5.81,5.41,8.11Z"/>
      <path class="cls-24" d="M151.58,62.17l-5.41,2.73v5.38c2.69-.07,5.43.14,8.12,0v2.7c-.18.86.24,1.88,0,2.7-.66,2.25-1.75,3.9-2.71,8.11-1.69,1.85-3.79,3.53-5.41,5.41-4.92-8.74-9.06-18.05-13.53-27.03h18.95Z"/>
      <path class="cls-22" d="M162.41,72.98l-2.71,5.41c-1.27-.12-2.58.13-3.81-.38l-1.6-2.32c.24-.82-.18-1.84,0-2.7,2.69.12,5.44-.18,8.12,0Z"/>
      <path class="cls-4" d="M165.12,78.39c-1.79-.12-3.64.17-5.41,0l2.71-5.41c.9.06,1.81-.05,2.71,0-.25,1.71.16,3.64,0,5.41Z"/>
      <path class="cls-4" d="M151.58,89.2c-.14.7-4.66,4.26-2.71,8.11-2.32-.5-5.56.34-8.12,0,.35-1.43,1.82-4.03,2.71-5.41.34-.53,1.83-1.68,2.71-2.7,1.62-1.88,3.73-3.55,5.41-5.41-.36,1.59.33,3.76,0,5.41Z"/>
      <path class="cls-16" d="M108.27,240.57v8.11c-5.71.37-7.21.93-10.83-2.71v-5.41c3.6.06,7.23-.09,10.83,0Z"/>
      <path class="cls-14" d="M83.91,62.17h2.71c.05.14,2.82.25,2.69,1.33l-4.08,4.09c-2.31.54-4.88-2.19-6.73-2.71-.82-.24-1.84.18-2.71,0-.16-1.8,1.09-2.41,2.71-2.7s3.67.2,5.41,0Z"/>
      <path class="cls-2" d="M92.03,91.9h2.71c.31,1.62,1.4,2.05,2.71,2.7,1.53.76,3.21,4.54,8.12,2.7-.9,1.05-2.21,2.02-2.71,2.7-6.22-.43-9.78-4.72-16.24-5.41,1.47-.93,2.51-3.27,5.41-2.7Z"/>
      <path class="cls-6" d="M81.21,124.34c1.47.17,3.68,2.19,5.41,2.7-1.96,2.39-1.88,5.41-2.71,8.11-4.13-.49-5.11,2.66-5.41,2.7-1.68.26-3.65-.16-5.41,0l-1.76-2.32c-2.09-.74-4.23-.36-6.36-.38-.9-.01-2.04-.19-2.71,0l2.71-10.81c.9.06,1.81-.06,2.71,0,4.43.27,9.26-.49,13.53,0Z"/>
      <path class="cls-6" d="M94.74,148.67c-.08.89.04,1.81,0,2.7-.27,6.66-.95,6.05,0,13.52.44,3.44-.3,7.29,0,10.81-2.08,6.66-10.49,3.17-8,10.69,1.98.16,4.78.64,5.3,2.82l-24.36,2.7c.65-1.73,2.45-3.76,2.71-5.41,1.71.07,6.54-2.86,10.82,0v-5.38s-5.41-2.73-5.41-2.73c1.04-1.15,1.75-3.78,2.71-5.41,3.7-6.32,4.13-14.61,10.82-13.53v-2.68s-5.41,0-5.41,0c.49-2.34-.33-5.54,0-8.11l-2.71-2.7c-1.01-4.32,1.67-7.42,2.71-10.81,6.24.74,6.28,12.29,10.83,13.52Z"/>
      <path class="cls-13" d="M108.27,94.61h8.13c-2.33,6.76-2.35,12.1-2.72,18.92-.05.9.05,1.8,0,2.7-6.25,3.99-12.29,9.95-16.24,16.22-.27.43-2.3.68-2.71,2.7-1.65-1.53-4.83-6.44-5.41-8.11-.98-2.8-1.1-6.52-2.71-10.81,8.59-.11,11.72-10.04,16.24-16.22.5-.69,1.8-1.66,2.71-2.7.77-.89,1.08-2.42,2.71-2.7Z"/>
      <path class="cls-21" d="M102.86,100.01c-4.52,6.17-7.65,16.11-16.24,16.22-1.65-4.42-2.29-9.31-5.41-13.52-1.34-4.48,1.86-5.86,5.41-8.11,6.46.69,10.02,4.98,16.24,5.41Z"/>
      <path class="cls-24" d="M83.91,62.17c-1.75.2-3.76-.3-5.41,0l1.36-2.7h2.69l1.36,2.7Z"/>
      <path class="cls-26" d="M83.91,135.15c-1.04,3.39-3.72,6.49-2.71,10.81h-2.71c.24-.75-.16-1.78,0-2.7.29-1.65-.2-3.66,0-5.41.3-.05,1.28-3.19,5.41-2.7Z"/>
      <path class="cls-26" d="M94.74,135.15c-.76,3.82.38,9.24,0,13.52-4.55-1.23-4.59-12.77-10.83-13.52.83-2.7.75-5.72,2.71-8.11h2.71c.58,1.67,3.76,6.58,5.41,8.11Z"/>
      <path class="cls-6" d="M140.76,91.9h2.71c-.89,1.38-2.36,3.98-2.71,5.41-.18.73,0,1.79,0,2.7s-.18,1.98,0,2.7l-5.1.23c-.96,3.54-2.75,6.84-3.02,10.58-.06.84-.12,1.88,0,2.7-1.46.33-1.96,2.12-2.71,2.7-8.46,6.55-9.28,5.71-5.09,17.28l2.38,1.64c-.07,2.7.05,5.41,0,8.11-.74.05-6.42,2.59-8.12,2.7-.9.06-1.81-.05-2.71,0v-2.7c3.99-1.77,3.76-6.17,0-8.11.08-.89-.02-1.81,0-2.7.19-7.98.48-12.85,0-21.62-.21-3.78-.37-8.48,0-12.16.29-2.96,3.61,2.53,5.39.05l-2.68-6.81c4.01-.27,8.33.65,12.28,0,2.85-.47,3.73-2.66,3.97-2.7,1.61-.32,3.67.21,5.41,0ZM124.5,116.23v-8.1h-2.69v8.1h2.69Z"/>
      <path class="cls-28" d="M108.27,72.98c10.05-7.65,3.04,6.71,5.78,10.46,2.81,3.85,13.88,5.32,18.58,5.76l2.71,2.7c-.24.05-1.12,2.24-3.97,2.7-3.95.65-8.27-.27-12.28,0l2.68,6.81c-1.78,2.48-5.09-3.01-5.39-.05-.37,3.68-.2,8.38,0,12.16h-2.71c.37-6.82.39-12.16,2.72-18.92h-8.13s-.02-5.38-.02-5.38l-5.38-.02-.44,4.89-4.99.5c-1.31-.65-2.4-1.09-2.71-2.7,12.49-5.11,10.9-8.08,13.53-18.92Z"/>
      <path class="cls-9" d="M132.64,59.47l4.99-.5.44-4.9h5.39c-1.02,7.27,2.06,4.49,5.42,5.4,1.68.45,3.02.02,2.71,2.7h-18.95c-.19-.38-1.8-.36-2.23-1.36-.01-.87,2.15-1.05,2.23-1.34Z"/>
      <path class="cls-14" d="M140.76,91.9c-1.75.21-3.8-.32-5.41,0l-2.71-2.7c2.04.19,4.3-.47,6.37.38l1.75,2.33Z"/>
      <path class="cls-26" d="M100.14,81.09l-13.52,2.7v-10.8c6.73-.67,14.12-.51,13.52,8.1Z"/>
      <path class="cls-14" d="M97.45,62.17h5.41s0,5.4,0,5.4h-8.11c-.34-1.69.42-4.01,0-5.4h2.71Z"/>
      <path class="cls-10" d="M94.74,62.17c-.48-1.59-1.41-2.98-2.69-4.06l10.8-1.34v2.68s-5.41,2.72-5.41,2.72h-2.71Z"/>
      <path class="cls-26" d="M97.45,178.4l-2.32,1.76-.38,6.35c-.45,1.27.24,3.73,0,5.41,11.45,1.27,6.53-1.1,8.12-5.41h10.83c.77.76,2.39,2.25,2.71,2.7,1.13,1.63,1.77,3.66,2.71,5.41-23.3,4.83-20.39,17.25-18.95,37.84-1.8,0-3.61-.01-5.41,0l-2.72-10.81h-2.68c-.02,2.69-.01,5.4-.01,8.1-3.32-.49-7.91.73-10.83,0-.19-.05-2.65-2.52-2.71-2.7-.46-1.43.43-3.88,0-5.41-2.55-9-5.86-14.81-8.12-24.33,8.9-.54,15.83-5.81,24.35,0-.31-2.59.55-5.85.01-8.11s-3.31-2.66-5.3-2.82c-2.49-7.52,5.92-4.04,8-10.69h2.71c-.07.9.08,1.81,0,2.7Z"/>
      <path class="cls-6" d="M119.1,194.62c1.59-.33,3.67.22,5.41,0,4.26,6.78,7.46,16.34,5.41,24.33l-4.06-2.67-4.06,6.71c.43,1.65,1.55,1.17,2.7,1.36,1.58.26,3.57-.47,5.3.07l.12,8.04c-9.9.03-19.88-.04-29.78,0-1.45-20.59-4.35-33.01,18.95-37.84ZM124.51,202.74c-6.36.02-12.3-1.7-16.21,4.05,3.12,4.5,6.62,4.86,11.96,3.86,3.28-2,5.03-4.03,4.25-7.91Z"/>
      <path class="cls-2" d="M89.33,235.17c.05.18,3.28.01,2.71,2.69-3.19-.23-6.57.45-9.73.16-4.8-.43-6.16-2.79-6.51-2.85l2.71-2.7,1.36,2.69h9.47Z"/>
      <path class="cls-10" d="M94.74,232.47c-1.8.01-3.61-.03-5.41,0-.11-.86,0-1.82,0-2.7,0-2.7-.01-5.42.01-8.1h2.68s2.72,10.81,2.72,10.81Z"/>
      <path class="cls-21" d="M89.33,232.47c.12.94-.22,1.96,0,2.7h-9.47s-1.36-2.7-1.36-2.7c3.59-.05,7.23.07,10.83,0Z"/>
      <path class="cls-24" d="M67.67,197.33c2.26,9.52,5.57,15.33,8.12,24.33h-16.24l5.41-2.73v-5.38c-4.21,2.67-7.67.01-8.11,0v-2.7c.2-.85-.27-1.91,0-2.7.79-2.29,2.1-6.64,2.71-8.11.51-1.22,4.88-4.05,5.41-5.41.93.69,2.47,1.69,2.71,2.7Z"/>
      <path class="cls-23" d="M75.79,221.65c.43,1.53-.46,3.97,0,5.41l-8.11,5.41c1.73-7.41-5.14-4.5-8.11-6.68l-.03-1.43,6.38-.38,1.75-2.33h8.12Z"/>
      <path class="cls-23" d="M89.33,229.76c0,.88-.11,1.84,0,2.7-3.6.07-7.24-.05-10.83,0v-2.7c2.92.73,7.51-.49,10.83,0Z"/>
      <polygon class="cls-26" points="67.67 221.65 65.93 223.98 59.55 224.36 59.55 221.65 67.67 221.65"/>
      <path class="cls-11" d="M64.96,140.56v5.41c-.92.27-2.14-.35-2.71,0-1.97,1.23-1.71,1.48-2.71,2.7-3.68,4.51-4.04,10.86-2.25,17.04.38,1.3,2.14,1.56,2.25,1.88,2.49,7.04,4.66,10.86,5.41,18.92-1.51-.4-6.57-4.08-8.12-5.41-.55-.47-.35-3.11-2.71-2.7.05-.9-.06-1.81,0-2.7.56-7.8-1.02-16.92,0-24.33.44-3.18,3.78-10.51,5.41-13.52,1.39-.1,3.79,2.12,5.41,2.7Z"/>
      <path class="cls-28" d="M92.03,189.22c.54,2.26-.32,5.52-.01,8.11-8.52-5.81-15.45-.54-24.35,0-.24-1.01-1.78-2.02-2.71-2.7.26-.66-.14-1.75,0-2.7h2.71l24.36-2.7Z"/>
      <path class="cls-9" d="M56.84,208.14h-10.83v-5.41c.62.23,1.77-.04,2.71,0,4.08.16,7.39-.47,10.83-2.7-.61,1.47-1.91,5.82-2.71,8.11Z"/>
      <path class="cls-18" d="M70.38,186.51c-.25,1.65-2.05,3.67-2.71,5.41h-2.71c.23-1.54.15-3.8,0-5.41,1.36.36,3.67-.07,5.41,0Z"/>
      <path class="cls-22" d="M56.84,208.14c-.27.79.2,1.86,0,2.7h-10.83v-2.7h10.83Z"/>
      <path class="cls-17" d="M64.96,135.15v5.41c-1.62-.59-4.03-2.8-5.41-2.7.89-1.65.33-2.01,2.71-2.7.67-.19,1.8-.01,2.71,0Z"/>
      <path class="cls-14" d="M129.93,218.95c-.56,2.19-4.17,3.44-5.41,5.41-1.16-.19-2.28.29-2.7-1.36l4.06-6.71,4.06,2.67Z"/>
      <path class="cls-13" d="M119.1,151.37l.38,6.36,2.33,1.75c0,2.7,0,5.41,0,8.11-3.91,4.62-9.39,12.44-13.53,16.22-.54.49-4.03-1.06-5.41,2.7-1.58,4.31,3.33,6.68-8.12,5.41.24-1.68-.46-4.14,0-5.41.05-.14,1.95.64,2.33-1.75s.19-4.31.38-6.36c.08-.89-.07-1.81,0-2.7.2-2.66,0-5.43,0-8.11,7.44-2.93,13.81-17.09,21.65-16.22Z"/>
      <path class="cls-7" d="M108.27,183.81l3.66.39c1.19.33,1.16,1.72,1.76,2.31h-10.83c1.38-3.76,4.87-2.21,5.41-2.7Z"/>
      <path class="cls-26" d="M127.22,145.97c5.32-.39,10.88.03,16.24,0v2.7c-4.49-.16-9.04.1-13.53.01l2.7,8.1-10.82-2.7c-.58-1.86.21-2.38-2.71-2.7v-2.7c1.7-.11,7.38-2.65,8.12-2.7Z"/>
      <path class="cls-9" d="M151.58,145.97v2.7c-1.34-.4-3.66.17-5.41,0-.89-.09-1.81.03-2.71,0v-2.7c.9,0,1.8,0,2.71,0h5.41Z"/>
      <path class="cls-14" d="M121.81,154.08c.22.71-.09,1.76,0,2.7.09.88,0,1.81,0,2.7l-2.33-1.75-.38-6.36c2.92.33,2.12.84,2.71,2.7Z"/>
      <path class="cls-22" d="M154.29,145.97c.11.35,3.91,1.61,2.7,5.4-4.78,1.41-5.08-2.6-5.41-2.7v-2.7h2.71Z"/>
      <path class="cls-27" d="M162.41,124.34c.09,1.79-.03,3.61,0,5.41h-2.71v-9.46s2.71-1.36,2.71-1.36c.04,1.79-.09,3.62,0,5.41Z"/>
      <path class="cls-4" d="M154.29,145.97h-2.71l5.41-5.41c-.05,1.28-3,4.42-2.71,5.41Z"/>
      <path class="cls-23" d="M148.88,137.86c-.29,1.97-3.2,5.15-2.71,8.11-.9,0-1.8,0-2.71,0-5.36.03-10.92-.39-16.24,0,.05-2.7-.07-5.41,0-8.11,3.65.7,5.11-2.66,5.41-2.7,1.04-.15,9.63,3.82,16.24,2.7ZM143.46,140.57h-8.11v2.68h8.11v-2.68Z"/>
      <path class="cls-22" d="M151.58,118.94c.56,5.18-.38,10.93,0,16.22-.65.8-.21,2.28-2.71,2.7.48-3.28-.18-7.3,0-10.81.09-1.78.03-3.62,0-5.41s.14-3.63,0-5.41c-.07-.89.12-1.83,0-2.7,1.43,2.06,2.28,1.49,2.71,5.41Z"/>
      <path class="cls-17" d="M151.58,135.15c-.38-5.29.56-11.04,0-16.22h2.71c.2,6.61,1.53,11-2.71,16.22Z"/>
      <path class="cls-8" d="M148.88,113.53c-1.22-1.76-4.16-3.57-5.41-5.41-.91-1.34-2.34-3.95-2.71-5.41-.18-.72,0-1.8,0-2.7,7.61,2.99,7.2,6.91,8.12,13.52Z"/>
      <path class="cls-6" d="M97.45,94.61l4.99-.5.44-4.89,5.38.02.02,5.37c-1.63.28-1.94,1.81-2.71,2.7-4.91,1.84-6.6-1.94-8.12-2.7Z"/>
      <path class="cls-18" d="M73.09,137.86c1.77-.16,3.73.26,5.41,0-.2,1.75.29,3.76,0,5.41-7.88-1.84-8.34,10.25-8.33,14.87,0,3.27,2.87,21.24,8.33,14.86-.95,1.63-1.67,4.26-2.71,5.41-.95,1.05-3.98,1.66-5.41,2.7-.06-.18-2.02-1.09-2.71-2.7,2.49-5.69.46-10.36-.01-16.21h-2.69s-.01,8.1-.01,8.1c-.06-.23-2.34-1.11-2.69-3.97-.8-6.52.47-13.72-.01-20.36.57-.35,1.79.27,2.71,0,3.89-1.15,2.81-4.39,2.71-8.11,1.79-.11,3.64.16,5.41,0Z"/>
      <path class="cls-26" d="M73.09,137.86c-1.78.16-3.62-.11-5.41,0h-2.71v-2.7c2.13.02,4.27-.35,6.36.38l1.76,2.32Z"/>
      <path class="cls-8" d="M113.69,135.15h2.71c-.02.9.08,1.82,0,2.7s.03,1.81,0,2.7h-18.94s-.02,1.35-.02,1.35l.02,1.34h18.94v5.42c-5.17.28-17.77,1.05-21.65,0,.38-4.28-.76-9.69,0-13.52.4-2.02,2.44-2.28,2.71-2.7,2.56,5.1,11.21,2.03,16.24,2.7Z"/>
      <path class="cls-26" d="M116.39,135.15h-2.71v-2.7c-.01-3.6.01-7.21,0-10.81,0-1.79-.09-3.62,0-5.41.05-.9-.05-1.8,0-2.7h2.71c.48,8.78.19,13.64,0,21.62Z"/>
      <path class="cls-18" d="M113.69,121.64c-5.25,2.22-11.39,5.11-13.53,10.8h13.53v2.71c-5.03-.67-13.68,2.4-16.24-2.7,3.95-6.27,9.99-12.23,16.24-16.22-.09,1.79,0,3.61,0,5.41Z"/>
      <path class="cls-2" d="M116.39,148.67c.9-.05,1.81.06,2.71,0v2.7c-7.85-.88-14.22,13.29-21.65,16.22,0-.9,0-1.8,0-2.7v-2.7l10.83-10.8h-10.83s-2.71-.01-2.71-.01c.04-.9-.08-1.81,0-2.7,3.88,1.05,16.48.28,21.65,0Z"/>
      <path class="cls-27" d="M135.34,129.75l-2.7,1.36v4.04c-.31.04-1.77,3.4-5.42,2.7.18-7.04,2.05-12.22,2.71-18.92.75-.58,1.24-2.37,2.71-2.7.48,3.41,4.54,8.41,2.71,13.52Z"/>
      <path class="cls-16" d="M143.46,108.12v4.07c-.4.97-2.22.8-2.71,1.34-5.09,5.71-2,8.12.01,14.84-2.04,2.39-3.66,4.65-5.43,1.38,1.84-5.11-2.23-10.1-2.71-13.52-.12-.83-.06-1.86,0-2.7l4.99-.5.43-4.9h5.4Z"/>
      <path class="cls-26" d="M127.22,137.86l-2.38-1.64c-4.19-11.57-3.37-10.73,5.09-17.28-.66,6.7-2.53,11.88-2.71,18.92Z"/>
      <path class="cls-3" d="M140.76,102.72c.36,1.45,1.8,4.07,2.71,5.41h-5.4s-.43,4.91-.43,4.91l-4.99.5c.27-3.74,2.06-7.04,3.02-10.58l5.1-.23Z"/>
      <rect class="cls-14" x="121.82" y="108.13" width="2.69" height="8.1"/>
      <path class="cls-28" d="M116.39,145.97v-2.7c0-.9-.03-1.8,0-2.7s-.08-1.82,0-2.7c3.76,1.94,3.99,6.34,0,8.11Z"/>
      <path class="cls-3" d="M94.74,186.51l.38-6.35,2.32-1.76c-.19,2.05,0,4.02-.38,6.36s-2.28,1.61-2.33,1.75Z"/>
      <path class="cls-26" d="M124.51,202.74c.78,3.88-.97,5.9-4.25,7.91-5.35,1-8.84.64-11.96-3.86,3.91-5.75,9.85-4.03,16.21-4.05Z"/>
      <path class="cls-8" d="M64.96,170.29c1.11,4.11,1.13,4.41,2.71,8.11.69,1.61,2.65,2.52,2.71,2.7.31.98.2,4.12,0,5.41-1.74-.07-4.06.36-5.41,0-.76-8.07-2.93-11.88-5.41-18.92v-18.92c1-1.22.73-1.48,2.71-2.7.48,6.64-.79,13.84.01,20.36.35,2.86,2.63,3.73,2.69,3.97Z"/>
      <path class="cls-16" d="M59.55,167.59c-.11-.32-1.88-.57-2.25-1.88-1.79-6.18-1.43-12.53,2.25-17.04v18.92Z"/>
      <path class="cls-8" d="M64.96,145.97v-8.11h2.71c.1,3.72,1.19,6.96-2.71,8.11Z"/>
      <path class="cls-28" d="M97.45,167.59c0,2.68.2,5.45,0,8.11h-2.71c-.3-3.52.44-7.37,0-10.81h2.71c0,.9,0,1.8,0,2.7Z"/>
      <path class="cls-18" d="M148.88,116.23c.14,1.77-.03,3.62,0,5.41h-5.41c-.02,1.79-.02,3.61,0,5.4h5.41c-.18,3.52.48,7.54,0,10.82-6.62,1.12-15.2-2.85-16.24-2.7v-4.04s2.71-1.36,2.71-1.36c1.77,3.27,3.38,1.01,5.43-1.38-2.01-6.72-5.1-9.12-.01-14.84l1.75,2.33,6.38.38Z"/>
      <rect class="cls-15" x="135.35" y="140.57" width="8.11" height="2.68"/>
      <path class="cls-23" d="M148.88,113.53c.12.88-.07,1.81,0,2.7l-6.38-.38-1.75-2.33c.48-.54,2.3-.37,2.7-1.34v-4.07c1.26,1.84,4.21,3.65,5.42,5.41Z"/>
      <path class="cls-28" d="M148.88,121.64c.03,1.79.09,3.62,0,5.41h-5.41c-.02-1.79-.02-3.61,0-5.4h5.41Z"/>
      <path class="cls-17" d="M78.5,143.26c-.16.92.24,1.95,0,2.7-2.17,6.86-6.88,9.98-2.19,19.84l2.19,1.79c-.08,1.63.33,5.03,0,5.41-5.46,6.37-8.33-11.59-8.33-14.86,0-4.62.45-16.71,8.33-14.87Z"/>
      <path class="cls-28" d="M75.79,178.4l5.41,2.73v5.38c-4.28-2.86-9.11.08-10.82,0,.2-1.29.31-4.43,0-5.41,1.43-1.05,4.47-1.66,5.41-2.7Z"/>
      <path class="cls-28" d="M67.67,178.4c-1.58-3.7-1.59-4-2.71-8.11v-8.1s2.7,0,2.7,0c.47,5.85,2.5,10.52.01,16.21Z"/>
      <path class="cls-4" d="M81.21,145.97l2.71,2.7h-5.42c-.08,5.38.1,10.82,0,16.22-.02.9.04,1.81,0,2.7l-2.19-1.79c-4.69-9.85.02-12.97,2.19-19.84h2.71Z"/>
      <path class="cls-4" d="M116.39,140.56c-.03.9,0,1.8,0,2.7h-18.94s-.02-1.35-.02-1.35l.02-1.34h18.94Z"/>
      <path class="cls-11" d="M113.69,132.45h-13.53c2.15-5.7,8.28-8.59,13.53-10.81.01,3.6-.01,7.21,0,10.81Z"/>
      <path class="cls-13" d="M83.91,148.67c-.33,2.57.49,5.77,0,8.11-.58,2.76-2.69,6.76-5.41,8.11.09-5.39-.08-10.84,0-16.23h5.42Z"/>
      <path class="cls-26" d="M97.45,162.19v2.7h-2.71c-.95-7.47-.27-6.86,0-13.52h2.71v10.81Z"/>
      <path class="cls-28" d="M83.91,156.78h5.42s0,2.69,0,2.69c-6.69-1.08-7.12,7.2-10.82,13.53.33-.38-.08-3.78,0-5.41.04-.9-.02-1.8,0-2.7,2.73-1.35,4.84-5.35,5.41-8.11Z"/>
      <polygon class="cls-21" points="97.45 151.37 108.27 151.38 97.45 162.19 97.45 151.37"/>
    </g>
  </g>
</svg>