<?xml version="1.0" encoding="UTF-8"?>
<svg id="Layer_2" data-name="Layer 2" xmlns="http://www.w3.org/2000/svg" viewBox="0 0 213.9 288.22">
  <defs>
    <style>
      .cls-1 {
        fill: #050505;
      }

      .cls-2 {
        fill: #191a18;
      }

      .cls-3 {
        fill: #414141;
      }

      .cls-4 {
        fill: #87722b;
      }

      .cls-5 {
        fill: #f5f5f6;
      }

      .cls-6 {
        fill: #e5e9f1;
      }

      .cls-7 {
        fill: #0f0f0d;
      }

      .cls-8 {
        fill: #dab924;
      }

      .cls-9 {
        fill: #3a3a3a;
      }

      .cls-10 {
        fill: #b7c4d9;
      }

      .cls-11 {
        fill: #fe1417;
      }

      .cls-12 {
        fill: #13140f;
      }

      .cls-13 {
        fill: #fff;
      }

      .cls-14 {
        fill: #c4a025;
      }

      .cls-15 {
        fill: #172680;
      }

      .cls-16 {
        fill: #b7a68b;
      }

      .cls-17 {
        fill: #c71618;
      }

      .cls-18 {
        fill: #802121;
      }

      .cls-19 {
        fill: #232322;
      }

      .cls-20 {
        fill: #0c0c0c;
      }

      .cls-21 {
        fill: #fe1014;
      }

      .cls-22 {
        fill: #fe0c11;
      }

      .cls-23 {
        fill: #f2d621;
      }

      .cls-24 {
        fill: #585858;
      }

      .cls-25 {
        fill: #f0f1f3;
      }

      .cls-26 {
        fill: #fe2327;
      }

      .cls-27 {
        fill: #95a4ca;
      }

      .cls-28 {
        fill: #ad912e;
      }

      .cls-29 {
        fill: #6874af;
      }
    </style>
  </defs>
  <g id="Layer_1-2" data-name="Layer 1">
    <g>
      <rect class="cls-13" x=".46" y="3.13" width="210" height="284"/>
      <path class="cls-1" d="M203.01,1.69c5.57-.72,10.47.49,10.89,6.69l-.06,279.83H0L.24,4.56c1.63-.84,3.96.25,5.17-.17v2.7l-2.22,1.95-.49,276.47h201.66c3.07,0,3.94-6.57,4.17-9.35,6.89-83.17-5.48-175.57.02-259.74,2.02-6.26-4.98-8.29-5.55-9.33-.53-.96.36-3.82,0-5.41Z"/>
      <path class="cls-9" d="M203.01,1.69c.36,1.59-.53,4.44,0,5.41H5.41v-2.7c1.05-.36,1.54-2.45,6.51-2.85,61.19-4.98,129.19,4.02,191.09.15Z"/>
      <path class="cls-3" d="M167.82,31.43c2.7.07,5.43-.07,8.13,0l-.13,225.65-2.59,1.42c-.22-1.33-2.68-2.5-2.71-2.7-2.1-16.49.31-39.23,0-56.76-.1-5.54-2.85-15.4-2.71-16.22,1-5.63,3.41-1.11,0-10.81-.17-.5-.16-2.19,0-2.7,2.25-7.11,4.4-14.16,2.81-22.62-.41-2.2-4.45-1.95-5.52-4.41,1.75.16,2.51-1.11,2.71-2.7l2.32-1.75c.89-2.99.29-6.05.39-9.06.03-.9.02-1.81,0-2.7-.07-3.59.06-7.22,0-10.81h-5.41s-2.34,1.59-2.34,1.59l-.37,3.81c-.47,1.29.31,3.74,0,5.41-.88.14-1.82-.11-2.71,0-.3-9.86.43-19.88,0-29.73-.08-1.8.1-3.62,0-5.41h-5.42s0-2.7,0-2.7c.7-.31,1.82.26,2.71,0,1.08-.31,2.14.02,2.45-1.53l.69-10.28,2.27-1.71c-.07,2.69-.03,5.41,0,8.11.06,5.39-.06,10.84,0,16.23h8.11c.06-4.49-.05-9.03,0-13.52.09-7.18.14-14.45,0-21.62-.11-5.52-2.85-15.4-2.71-16.22,1.02-5.78,3.28-1.15,0-10.81-.45-1.34.3-3.73,0-5.41ZM170.53,104.41h-8.11v5.4h8.11v-5.4Z"/>
      <path class="cls-20" d="M40.6,34.13v2.7c-5,16.11-2.64,38.42-2.71,56.76,0,1.8,0,3.6,0,5.41s-.02,3.6,0,5.41-.01,3.6,0,5.41c.02,2.7-.04,5.41,0,8.11.1,7.16-.38,14.49,0,21.62.09,1.6-.79,3.6.54,4.94.94.94,4.34-.21,5.02,2.07l-.14,3.81c-1.24.72-4.68-1.13-5.41,2.7-.44,2.33.18,5.48,0,8.11-.12,1.79.07,3.61,0,5.41-.1,2.7.05,5.41,0,8.11-.02.9.01,1.8,0,2.7s0,1.8,0,2.7c-.02,1.8.01,3.6,0,5.41-.02,2.7.01,5.41,0,8.11-.02,3.6,0,7.21,0,10.81.01,7.19-.03,14.43,0,21.62.01,3.6-.03,7.21,0,10.81.01,1.8-.03,3.61,0,5.41.07,4.5-.06,9.03,0,13.52,8.1.03,16.27-.06,24.37,0,1.8.01,3.61,0,5.41,0s3.61.03,5.41,0c4.49-.09,9.07.29,13.53,0,1.78-.11,3.65.2,5.41,0,.92-.1,1.89.17,2.71,0,1.23-.26,4.21-1.87,5.41-2.7l1.67,2.38c2.3.71,5.57-2.47,6.45-2.38,2.39.24,6.7,2.54,13.53,2.7,1.8.04,3.61-.03,5.41,0,14.4.23,28.91-.16,43.31,0,.03.21,2.49,1.37,2.71,2.7H35.18s.25-224.19.25-224.19c1.63-.84,3.97.25,5.17-.17Z"/>
      <path class="cls-2" d="M167.82,31.43c.3,1.68-.45,4.07,0,5.41h-21.65c-3.61,0-7.22-.06-10.83,0-5.39.09-10.86-.24-16.24,0-1.7.08-3.44-.53-5.08.26-2.55,10.32-9.4,18.37-15.07,27.03-1.87,2.85-3.93,9.86-7.61,12.41s-8.22,3.82-12.84,3.55c.42-2.15,3.16-5.07,2.71-8.11,12.17-1.2,9.77-10.38,13.53-16.22.32-.5,2.9-.96,3.96-2.73,3.27-5.45,5.77-11.45,9.57-16.18-2.42.4-6.49-.7-8.12-.01.45-.05,2.89-2.18,8.12-2.7,1.77-.18,3.65.2,5.41,0,4.08-.46,5.11-2.68,5.41-2.7,14.75-1.23,33.62-.41,48.72,0Z"/>
      <path class="cls-12" d="M181.36,234.16c4.01,5.16,15.77,6.01,18.46,8.6,5.23,5.05,4.59,28.94-2.09,33.42-4.34,2.91-16.37,1.19-16.37-2.83v-39.19ZM194.89,247.66h-8.11v24.35h8.11v-24.35Z"/>
      <path class="cls-19" d="M29.56,18.13l.36,27.97-5.56,2.9,5.41,6.75c-7.57.5-13.52-5.47-20.48-7.92C6.85,27.94,2.63,6.77,29.56,18.13ZM21.65,20.6h-8.11v24.35h8.11v-24.35Z"/>
      <path class="cls-12" d="M18.95,80.09l2.7,10.8h-8.11s2.69-10.81,2.69-10.81l-6.53,2.57c-11.23-8.76.74-17.71,8.13-24.1,5.8-1.29,21.69,19.4,10.44,24.2l-9.32-2.67Z"/>
      <path class="cls-20" d="M194.89,201.73l-2.7,8.09h10.84c2.43,12.26-4.12,16.85-12.2,24.32-8.04-7.43-14.65-12.06-12.18-24.3l10.81,2.7-2.73-9.43,8.15-1.38Z"/>
      <path class="cls-2" d="M83.91,31.43l10.83,5.41c-3.58.22-7.23-.12-10.83,0-14.37.49-28.93-.35-43.31,0v-2.7c.29-.1,1.03-2.37,3.97-2.69,11.69-1.3,27.12-.08,39.34,0Z"/>
      <path class="cls-3" d="M108.27,34.13c-5.23.52-7.67,2.66-8.12,2.7-1.77.18-3.63-.11-5.41,0l-10.83-5.41c7.51.04,19.4-2.18,24.36,2.7Z"/>
      <path class="cls-3" d="M119.1,31.43c-.3.03-1.34,2.24-5.41,2.7l1.59-2.34,3.82-.37Z"/>
      <path class="cls-5" d="M157,188.2c0,1.8,0,3.6,0,5.41s-.04,3.61,0,5.41c1.79.11,3.62-.12,5.42,0s3.62-.08,5.41,0h2.71c.31,17.53-2.1,40.27,0,56.76-14.4-.16-28.91.23-43.31,0,.37-4.38-.55-9.28,0-13.52.93-7.22,5.39-13.13,5.42-20.26-.4-1.75-1.73-1.12-2.71-1.37-.58-.15-2.15-.18-2.71,0v-8.11c1.48-1.04,2.04-2.17,2.71-2.7,5.9-4.7,3.48-5.15,5.41-8.11.54-.82,4.1-1.58,5.41-2.7,4.04-3.46,8.37-5.11,10.83-10.81,1.78.13,3.65-.2,5.41,0ZM159.7,220.65h-8.12s2.7,8.09,2.7,8.09l-8.16-1.46-5.53,8.23,15.05,17.56c1.44.64,2.07-4.64,3.94-6.83,5.78-6.76,14.44-11.42,3.94-20.07l-6.53,2.57,2.7-8.1Z"/>
      <path class="cls-25" d="M167.82,36.83c3.28,9.67,1.02,5.03,0,10.81v-5.4s-5.4,0-5.4,0c-1.55,4.4-1.77,9.3-2.72,13.52-1.11,4.92-7.57,11.98,2.71,10.81-.11,2.69.07,5.41,0,8.11l-2.27,1.71-.69,10.28c-.31,1.54-1.37,1.21-2.45,1.53-4.23-5.31-1.83-11.83-2.73-17.64-.44-2.84-2.65-3.75-2.69-3.99-.83-4.72-1.97-9.56-2.71-13.52-.92-4.92,1.45-11.39-2.71-16.22h21.65Z"/>
      <path class="cls-19" d="M154.29,90.89h5.42c.1,1.79-.08,3.61,0,5.41-6.65,7.5.92,20.8-5.41,29.72h5.41s-13.53,13.53-13.53,13.53c1.32-5.92-.53-7.31-2.71-10.81-.29-.47-2.38-.66-2.71-2.7,2.62-.09,5.29.47,7.87-.21,2.88-5.27,2.09-10.92,2.95-16.01.29-1.68-.25-3.69,0-5.41.13-.88-.12-1.82,0-2.7.1-.71,5.16-6.26,2.71-10.81Z"/>
      <path class="cls-16" d="M159.7,134.14l-2.71,5.4h8.12c-.05.87-.21,2.22,0,2.71,1.07,2.47,5.11,2.21,5.52,4.41,1.59,8.46-.57,15.51-2.81,22.62-1.33-.22-2.46-2.66-2.71-2.7l2.72-10.81c-2.4-.48-6.36.67-8.13,0-.78-.3-1.81-4.96-2.71-5.41l5.41-2.73v-5.38c-10.34-1.9-7.14,2.29-10.82,8.1-.84,1.32-.27,1.99-2.71,2.7.48-5.42-2.84-8.6-8.12-8.11-.04-.9,0-1.8,0-2.7v-5.41c.86-.06,5.29,2.43,5.41,2.7.51,1.09-.34,3.75.01,5.41,5.21-.13,6.66-8.51,8.69-10.31,1.59-1.42,4.29-.12,4.84-.5Z"/>
      <path class="cls-16" d="M157,88.19c-.88.26-2-.31-2.71,0-2.08.9-4.05,1.54-4.87,3.96l2.16,9.56-8.11,2.72-2.72-8.12c.23-2.72-.72-5.8,1.16-8.27l9.51-2.71.16-18.76c.04.24,2.25,1.14,2.69,3.99.89,5.81-1.51,12.33,2.73,17.64Z"/>
      <path class="cls-14" d="M159.7,55.75c.95-4.22,1.17-9.12,2.72-13.52h5.39s0,5.41,0,5.41c-.15.82,2.6,10.7,2.71,16.22h-2.71c-4.14.53-2.93,6.02-2.51,9.28l2.51,1.53c0,1.79-.13,3.63,0,5.41l-5.41,2.7c-.03-2.7-.07-5.42,0-8.11s-.11-5.42,0-8.11c.28-6.6-1.89-7.13,5.44-9.43l-2.74-6.78h-2.68s-2.72,5.4-2.72,5.4Z"/>
      <path class="cls-23" d="M170.53,85.49c-.06,4.5.06,9.03,0,13.52h-8.11c-.06-5.39.06-10.83,0-16.23l5.41-2.7c.09,1.28-.1,2.57.38,3.81l2.33,1.6Z"/>
      <path class="cls-22" d="M159.7,126.03h-5.41c6.33-8.94-1.23-22.24,5.41-29.73.43,9.85-.3,19.87,0,29.73Z"/>
      <path class="cls-23" d="M167.82,182.8c-.15.82,2.61,10.68,2.71,16.22h-2.71c0-1.8,0-3.6,0-5.41s.04-3.61,0-5.41h-5.42s0-8.11,0-8.11c.82-.06,1.92-.15,2.71,0,1.61.3,2.79.89,2.71,2.7Z"/>
      <path class="cls-23" d="M165.12,115.22h5.41c.06,3.59-.06,7.22,0,10.81-2.62.27-5.64-.4-8.12,0,.31-1.66-.47-4.12,0-5.41.21-.57,3.95-2.32,2.71-5.41Z"/>
      <path class="cls-14" d="M170.53,126.03c.02.9.03,1.81,0,2.7-4.9-1.8-6.44,1.85-8.12,2.7-1.42.72-1.97,2.18-2.71,2.7-.54.38-3.24-.92-4.84.5-2.02,1.8-3.48,10.18-8.69,10.31-.35-1.66.5-4.32-.01-5.41l13.53-13.52c.89-.11,1.83.14,2.71,0,2.48-.4,5.5.27,8.12,0Z"/>
      <path class="cls-6" d="M170.53,85.49l-2.33-1.6c-.48-1.24-.29-2.53-.38-3.81-.13-1.78,0-3.62,0-5.41-.01-3.6,0-7.21,0-10.81h2.71c.14,7.17.09,14.45,0,21.62Z"/>
      <path class="cls-17" d="M154.29,90.89c2.45,4.55-2.61,10.11-2.71,10.81l-2.16-9.56c.82-2.41,2.79-3.05,4.87-3.96v2.7Z"/>
      <rect class="cls-23" x="162.42" y="104.41" width="8.11" height="5.4"/>
      <path class="cls-25" d="M170.53,128.74c-.1,3.01.5,6.07-.39,9.06l-2.32,1.75c.19-1.48.27-4.06,0-5.41-.23-1.15-.01-2.14-1.49-2.56l-3.92-.15c1.69-.85,3.22-4.51,8.12-2.7Z"/>
      <path class="cls-15" d="M165.12,166.58c.24.04,1.37,2.48,2.71,2.7-.16.51-.17,2.21,0,2.7-4.56.39-9.77-.38-10.83-5.41,2.64.08,5.72-.38,8.12,0Z"/>
      <path class="cls-6" d="M167.82,182.8c.08-1.81-1.1-2.4-2.71-2.7,1.67-2.8,3.4-4.61,2.71-8.11,3.41,9.7,1,5.18,0,10.81Z"/>
      <path class="cls-4" d="M167.82,139.55c-.2,1.6-.96,2.87-2.71,2.7-.21-.49-.05-1.84,0-2.7.07-1.27-.19-2.56.36-3.79l2.35-1.62c.27,1.34.19,3.93,0,5.41Z"/>
      <path class="cls-14" d="M162.41,120.63l.37-3.81,2.34-1.59c1.25,3.09-2.5,4.84-2.71,5.41Z"/>
      <path class="cls-5" d="M83.91,36.83c-2.96,3.32-1.98,7.38-2.71,10.81-1.64,7.69-4.52,15.22-5.42,22.96.39,1.75,1.72,1.13,2.71,1.37.72.18,1.94.08,2.71,0,.46,3.04-2.29,5.96-2.71,8.11-.16.81,0,1.85,0,2.7-3.52.41-3.97,3.93-5.41,5.41-1.66,1.7-3.72,3.79-5.41,5.41-2.79,2.65-7.53,5.76-10.83,8.11-.06-.33-1.76-.84-2.12-2.2-2.58-9.63,1.95-7.53-11.16-11.13l-.25,5.22c-1.23-.48-3.76.33-5.41,0,.07-18.35-2.29-40.65,2.71-56.76,14.38-.35,28.94.49,43.31,0ZM51.43,63.86c.79,3-2.28,5.43-2.69,6.77-.78,2.56,8.07.98,10.81,1.33l-2.71-8.1c2.75-.24,5.67.73,8.18-1.26,8.94-5.25-7.97-21.17-12.01-20.27-9.91,8.12-21.83,19.72-1.59,21.53Z"/>
      <path class="cls-6" d="M86.62,207.13h2.71l.09,5.3c2.66.44,5.36.02,8.03.1-.13,1.86,2.58,2.41,2.71,2.7,1.22,2.75,0,7.3,5.41,8.11-4.79,6.49-5.86,17.94-13.53,21.62-.01-.15-5.19-1.39-1.13-2.77l3.83-5.33-9.26-2.63-6.98,13.42,10.82.02-2.7,8.1c-4.46.29-9.05-.09-13.53,0v-5.41s-5.41,0-5.41,0c-.17-.88.19-1.86,0-2.7,3.81.37,7.37-1.48,8.12-5.41.61-3.17-.41-7.38-.01-10.81h-2.69s-.01,5.4-.01,5.4c-.39-.44-2,.4-2.71,0-1.7-.97-1.63-3.14-5.41,0,.07-15.82,6.38-17.68,8.12-27.03l5.41-2.7h8.12ZM83.91,220.65h-13.52v2.68h13.52v-2.68ZM86.61,226.06h-10.82v2.68h10.82v-2.68Z"/>
      <path class="cls-6" d="M54.14,204.42l.22,17.42,2.49,1.5h2.71c.12,7.81,2.18,11.96,2.71,16.22.63,5.09-.43,10.97,0,16.22-8.1-.05-16.27.04-24.37,0-.05-4.49.08-9.03,0-13.52l2.72,8.12h5.4c.4-1.63-.51-4.43,0-5.42.27-.52,4.54-1.28,5.08-4.32.5-2.87-3.03-6.97-2.37-9.19.15-.5,4.28-1.82,2.5-5.2l-5.2-.21c-1.43-4.43,2.08-7.85,2.71-10.81.5-2.33-.34-5.55,0-8.11,1.05-2.8,4.19-2.02,5.41-2.7Z"/>
      <path class="cls-19" d="M127.22,212.53v8.11c-10.35,3.26-18.27,26.37-27.07,32.44-1.21.83-4.18,2.45-5.41,2.7,4.16-12.93,16.22-34.01,27.16-41.89,1.95-1.4,4.68-.9,5.32-1.35Z"/>
      <path class="cls-28" d="M46.02,215.24h2.71c-.63,2.96-4.14,6.39-2.71,10.81l2.71,5.41c-.66,2.23,2.87,6.33,2.37,9.19-.53,3.04-4.8,3.8-5.08,4.32l-8.12-8.11c-.03-3.6.01-7.21,0-10.81h5.41c-1.13-4.51-1.91-8.93-2.7-13.52l5.41,2.7Z"/>
      <path class="cls-17" d="M129.93,207.13v2.7c-.66.53-1.23,1.66-2.71,2.7-.64.45-3.37-.05-5.32,1.35-10.94,7.88-23,28.97-27.16,41.89-.82.17-1.79-.1-2.71,0-.19-3.58.28-7.25,0-10.81,7.67-3.68,8.74-15.14,13.53-21.62.34-.46,7.27-7.38,8.12-8.11,2.08-1.79,7.64-1.77,8.12-5.41.35-5.14-16.57-12.45-20.39-16.13-4.38-4.22-5.56-11.29-12.09-13.6-.95-1.64-2.45-2.28-2.71-2.7-.46-.76.74-2.76.05-3.72-1.45-1.99-3.8-1.54-4.64-2.53-2.98-3.46,2.63-4.03-6.23-4.57l2.71-2.7c1.06,2.09,29.63,28.96,33.82,32.45,4.99,4.15,11.76,7.88,17.61,10.8Z"/>
      <path class="cls-16" d="M73.09,115.22v8.1s4.05,0,4.05,0l1.36-2.69c.58,1.3,3.97,4.13,5.41,5.41v2.7c-.3.11-5.17,2.53-5.41,2.7v-5.4c-5.22-1.49-4.62,1.9-5.41,2.7-4.51,4.5-4.29,6.13,2.71,5.41-1.67,2.26-2.58,5.28-2.71,8.11-.44.13-2.54,3.89-5.41,2.7-.1-1.79.07-3.61,0-5.4h-5.4c-1.29,4.38,2.62,5.07,2.7,5.4.39,1.49-.28,3.69,0,5.41-3.5,2.88-11.03,7.86-13.53,10.81v-8.1s-10.83,2.7-10.83,2.7c-.33-1.62-.88-2.86-2.71-2.7.73-3.84,4.18-1.99,5.41-2.7,1.88-1.09,2.11-2.22,2.71-2.7h10.84s0-8.11,0-8.11c2.67-1.41,6.8-.46,9.63-5.42,3.21-3.62-1.43-5.06-1.51-5.39-.2-.76.09-1.77,0-2.7-.08-.82-.2-2.16,0-2.7,1.87-5.19,5.32-5.45,8.12-8.11Z"/>
      <path class="cls-29" d="M86.62,255.78l2.7-8.1-10.82-.02,6.98-13.42,9.26,2.63-3.83,5.33c-4.06,1.38,1.11,2.62,1.13,2.77.28,3.56-.19,7.23,0,10.81-1.76.2-3.63-.11-5.41,0Z"/>
      <path class="cls-26" d="M129.93,220.64l-1.33,2.81c-8.37,2.37-7.61,8.51-9.49,16.11-1.52.2-2.12,2.33-2.71,2.7-4.29,2.74-9.09,5.22-8.12,10.81-.88-.09-4.16,3.09-6.45,2.38l-1.67-2.38c8.8-6.07,16.72-29.18,27.07-32.44.56-.18,2.12-.15,2.71,0Z"/>
      <path class="cls-23" d="M48.72,193.61c-.13,1.78.18,3.64,0,5.41-.05.45-2.11,3.08-2.71,8.11-.31,2.62.21,5.45,0,8.11l-5.41-2.7c-.32-1.85.55-4.32-.38-6.36l-2.33-1.75c0-3.6-.02-7.21,0-10.81h10.83Z"/>
      <path class="cls-28" d="M40.6,117.92l7.92,2.96.2,5.15h-5.42c-.28,6.11-1.5,9.19,5.42,8.12v2.68s-10.83,2.72-10.83,2.72c-.38-7.14.1-14.46,0-21.62h2.71Z"/>
      <path class="cls-3" d="M48.72,190.91c-.06.9.06,1.81,0,2.7h-10.83c.01-2.7-.02-5.41,0-8.11,2.84,1.64,4.57,3.45,8.12,2.7v-8.1s-8.12,0-8.12,0c0-.9-.01-1.8,0-2.7,7.07,1.03,7.61-6.26,10.83-10.81v24.33Z"/>
      <path class="cls-14" d="M127.22,242.27c-.55,4.23.37,9.14,0,13.52-1.8-.03-3.61.04-5.41,0-3.14-3.01-6.89-2.7-5.41-8.11,1.2,0,3.08,1.68,4.07,2.67l1.32-1.31-5.39-6.77c.59-.37,1.18-2.51,2.71-2.7,2.58-.34,5.83,1.43,8.12,2.7Z"/>
      <path class="cls-25" d="M48.72,126.03h16.24c.09.93-.2,1.94,0,2.7v1.41c-7.56-2.88-18.75,5.45-13.53,12.11-3.86,2.34-4.03,4.3-5.41,5.41-.6.48-.82,1.61-2.71,2.7l.14-3.81c-.68-2.27-4.08-1.12-5.02-2.07-1.33-1.34-.45-3.33-.54-4.94l10.82-2.72v-2.68c-6.9,1.07-5.69-2.01-5.41-8.12h5.42Z"/>
      <path class="cls-8" d="M51.43,161.17c-1.15,1.36-1.63,3.88-2.71,5.41-3.21,4.55-3.76,11.85-10.83,10.81.01-.9-.02-1.8,0-2.7h5.42c0-2.69,0-5.42,0-8.1h-5.42c.07-1.8-.12-3.62,0-5.41h13.53Z"/>
      <path class="cls-23" d="M43.31,93.6c4.51,1.76,8.41,5.77,8.12,10.81h-5.41c0-1.8.04-3.61,0-5.41h-8.13c0-1.8,0-3.6,0-5.4,1.65.33,4.18-.48,5.41,0Z"/>
      <path class="cls-6" d="M40.6,212.53c.79,4.59,1.57,9,2.7,13.51h-5.41c-.03-7.19.01-14.43,0-21.62l2.33,1.75c.93,2.04.06,4.51.38,6.36Z"/>
      <path class="cls-23" d="M46.02,244.97c-.52.99.39,3.79,0,5.41h-5.4s-2.72-8.11-2.72-8.11c-.03-1.8.01-3.6,0-5.41l8.12,8.11Z"/>
      <path class="cls-18" d="M67.67,247.67c.19.85-.17,1.83,0,2.7.31,1.63-.21,3.66,0,5.41-1.8,0-3.61.01-5.41,0-.43-5.25.63-11.13,0-16.22h2.71c.49,5.73,2.4,6.76,2.71,8.11Z"/>
      <path class="cls-8" d="M37.9,180.1h8.13s-.01,8.1-.01,8.1c-3.55.75-5.27-1.06-8.12-2.7.01-1.8-.02-3.6,0-5.41Z"/>
      <path class="cls-23" d="M116.39,247.67c-1.47,5.41,2.27,5.1,5.41,8.11-6.83-.16-11.14-2.46-13.53-2.7,1.17,1.43,5.43-5.42,8.12-5.41Z"/>
      <path class="cls-8" d="M46.02,104.41c0,3.35.66,6.32-2.71,8.11l-1.59-2.34-3.82-.37c-.01-1.8.02-3.6,0-5.41h8.12Z"/>
      <path class="cls-4" d="M37.9,99h8.13c.03,1.8-.01,3.6,0,5.41h-8.12c-.02-1.8,0-3.6,0-5.41Z"/>
      <path class="cls-23" d="M37.9,166.58h5.42c0,2.69,0,5.42,0,8.1h-5.42c.05-2.69-.1-5.41,0-8.1Z"/>
      <path class="cls-10" d="M43.31,112.52v2.7c-1.49.49-3.03-.11-2.71,2.7h-2.71c-.04-2.7.02-5.41,0-8.11l3.82.37,1.59,2.34Z"/>
      <path class="cls-10" d="M67.67,250.38h5.42s0,5.41,0,5.41c-1.8.03-3.61,0-5.41,0-.21-1.74.31-3.77,0-5.41Z"/>
      <path class="cls-25" d="M40.6,155.77c.32,1.6-.22,3.66,0,5.41h-2.71c.18-2.63-.44-5.78,0-8.11,1.83-.16,2.38,1.09,2.71,2.7Z"/>
      <path class="cls-6" d="M135.34,36.83l5.41,8.09c-9.99.3-8.45,8.15-8.11,16.23l2.7-13.52,8.11.02v8.1c3.68,11.58-6.9,18.21-8.12,27.03h-2.71c-2.71,0-5.41.01-8.12,0-.9,0-1.81.05-2.71,0l-1.76-2.31-9.07-.39c-.35-.22-.64-2.32-2.71-2.7l-.1-8.02-5.31-.09c4.31-6.31,9.72-15.34,13.53-21.62h13.53s0-2.69,0-2.69l-9.09-.45-1.73-2.27c.45-1.34-.31-3.73,0-5.41,5.38-.24,10.85.09,16.24,0ZM127.22,50.35h-10.82v5.4h10.82v-5.4ZM138.04,69.28h-13.52v2.68h13.52v-2.68Z"/>
      <path class="cls-17" d="M119.1,36.83c-.31,1.67.45,4.07,0,5.41-.1.29-2.47,5.02-2.71,5.41-3.81,6.28-9.22,15.31-13.53,21.62-1.25,1.83-6.96,3.02-8.12,8.11-.19.85.15,1.83,0,2.7h-2.71l-5.41,1.35c5.58,8.03,15.33,12.71,21.72,18.86,6,5.78,18.6,24.47,24.29,25.75-.1,1.52-1.2,2.52-2.71,2.7-4.14-7.5-32.43-29.54-40.6-35.14-.61-.42-2.04.4-2.71,0,.48-5.42-2.84-8.6-8.12-8.11-.23-.51.01-1.78,0-2.7,0-.85-.16-1.89,0-2.7,4.63.27,9.04-.92,12.84-3.55s5.75-9.56,7.61-12.41c5.67-8.66,12.52-16.71,15.07-27.03,1.64-.79,3.38-.18,5.08-.26Z"/>
      <path class="cls-24" d="M146.17,36.83c4.16,4.83,1.79,11.3,2.71,16.22l-5.41,2.7v-8.1s-8.12-.02-8.12-.02l-2.7,13.52c-.35-8.07-1.89-15.92,8.11-16.23l-5.41-8.09c3.61-.06,7.22,0,10.83,0Z"/>
      <path class="cls-17" d="M94.74,55.75c-3.77,5.84-1.36,15.02-13.53,16.22-.77.08-1.99.18-2.71,0,3.23-7.01,8.3-10.94,13.53-16.22h2.71Z"/>
      <path class="cls-26" d="M100.15,36.83c1.63-.69,5.7.41,8.12.01-3.81,4.74-6.31,10.74-9.57,16.18-1.06,1.77-3.64,2.23-3.96,2.73h-2.71v-2.7h5.41c.3-2.62-.41-5.63,0-8.11.33-2.03,1.42-7.57,2.71-8.11Z"/>
      <rect class="cls-5" x="186.78" y="247.66" width="8.11" height="24.35"/>
      <path class="cls-8" d="M94.74,36.83c1.79-.11,3.64.18,5.41,0-1.29.54-2.37,6.08-2.71,8.11l-6.79-2.59-4.04,5.28,4.89.42.52,4.99-10.83-5.41c.73-3.43-.25-7.49,2.71-10.81,3.59-.12,7.25.22,10.83,0Z"/>
      <path class="cls-15" d="M151.58,166.58c1.66,2.77,3.56,5.46,5.41,8.11-.85,1.82-1.73,3.64-2.71,5.41-2.53,4.54-1.81,6.03-2.71,8.11-2.46,5.7-6.79,7.36-10.83,10.81-4.23-5.82-8.77-7.01-13.53-13.52,3.57-.44,3.96-3.84,5.41-5.41.75-.81,1.89-1.91,2.71-2.7.91-.87,1.86-1.95,2.71-2.7,2.45-2.19,7.42-7.61,8.12-8.11.46-.32,1.73.19,2.71,0,.82-.16,1.78.07,2.71,0Z"/>
      <path class="cls-12" d="M159.7,220.65l-2.7,8.1,6.53-2.57c10.5,8.65,1.84,13.31-3.94,20.07-1.88,2.19-2.5,7.47-3.94,6.83l-15.05-17.56,5.53-8.23,8.16,1.46-2.7-8.09h8.12Z"/>
      <path class="cls-12" d="M102.86,171.99c.38.49-.86,3.51.5,4.89s4.45.14,4.91.52c3.81,3.08,7.96,8.99,13.53,13.52,4.44,3.6,9.63,6.56,13.53,10.81-1.94,2.96.49,3.41-5.41,8.11v-2.7c.81-7.18-6.54-7.88-10.9-12.09-12.09-11.65-24.28-23.75-35.11-36.57.29-1.3,2.59-2.27,2.71-2.7,3.39,2.92,3.3,7.06,6.62,10.96,3.77,4.41,9.27,4.82,9.62,5.26Z"/>
      <path class="cls-4" d="M127.22,242.27c-2.29-1.28-5.54-3.04-8.12-2.7,1.89-7.6,1.13-13.74,9.49-16.11l1.33-2.81c.98.25,2.31-.39,2.71,1.37-.02,7.13-4.48,13.04-5.42,20.26Z"/>
      <path class="cls-17" d="M127.22,185.5c4.77,6.51,9.3,7.7,13.53,13.52-1.32,1.13-4.87,1.88-5.41,2.7-3.9-4.26-9.1-7.21-13.53-10.81.31-4.42-.46-9.16,0-13.52,2.55,2.06,3.25,5.16,5.41,8.11Z"/>
      <path class="cls-24" d="M154.29,180.1l1.35,5.42c2.31-.08.6-3.62,4.06-5.42.5-.26,1.75.07,2.71,0v8.11c-1.78-.13-3.65.2-5.41,0s-3.63.13-5.41,0c.9-2.08.18-3.57,2.71-8.11Z"/>
      <path class="cls-8" d="M162.41,188.2v5.41s5.41,0,5.41,0c0,1.8,0,3.6,0,5.41-1.8-.08-3.62.12-5.41,0l-5.41-5.41c0-1.8,0-3.6,0-5.41,1.77.2,3.63-.13,5.41,0Z"/>
      <path class="cls-15" d="M162.41,199.02c-1.79-.12-3.62.11-5.42,0-.04-1.8,0-3.6,0-5.41l5.41,5.41Z"/>
      <path class="cls-9" d="M148.88,53.05c.74,3.96,1.88,8.8,2.71,13.52l-.16,18.76-9.51,2.71c-1.89,2.47-.93,5.54-1.16,8.27-.44,5.14,3.16,12.66-5.41,10.8,3.71-7.95-1.23-15.4,0-24.32,1.22-8.82,11.79-15.45,8.12-27.03l5.41-2.7Z"/>
      <path class="cls-4" d="M159.7,55.75l2.72-5.4h2.68s2.74,6.78,2.74,6.78c-7.32,2.3-5.16,2.84-5.44,9.43-10.28,1.17-3.82-5.89-2.71-10.81Z"/>
      <path class="cls-26" d="M151.58,109.82c-.87,5.09-.07,10.74-2.95,16.01-2.59.68-5.25.12-7.87.21-.56-3.52,1.48-9.87,2.71-13.52l8.12-2.7Z"/>
      <path class="cls-24" d="M146.17,139.55c-.13-.27-4.56-2.77-5.41-2.7-1.29.09-4.65,3.49-5.34,2.7l-.07-5.4c3.23.12,7.85,1.01,8.12-2.7v-2.7c2.17,3.5,4.03,4.89,2.71,10.81Z"/>
      <path class="cls-29" d="M140.76,126.03c.33,2.05,2.41,2.23,2.71,2.7v2.7h-13.53c-.19-.96.31-2.14,0-2.7,1.5-.18,2.6-1.18,2.71-2.7,1.99.45,5.72.08,8.12,0Z"/>
      <path class="cls-10" d="M151.58,104.41c-.25,1.72.29,3.72,0,5.41l-8.12,2.7c1.67-4.96,2.49-9.73,8.12-8.11Z"/>
      <path class="cls-28" d="M108.27,77.38c2.07.39,2.36,2.48,2.71,2.7,5.16,3.22,4.6,2.36,10.83,2.7.9.05,1.81,0,2.71,0-1.5,4.8,4.97,9.4,5.41,10.81.63,2-.42,5.62.01,8.1h2.69c1.98-4.5-2.6-7.59-2.7-8.1-.68-3.8.64-7.64,2.71-10.81h2.71c-1.23,8.92,3.71,16.37,0,24.32,8.57,1.86,4.97-5.66,5.41-10.8l2.72,8.12,8.11-2.72c-.12.88.13,1.82,0,2.7-5.63-1.62-6.45,3.14-8.12,8.11-1.23,3.64-3.27,9.99-2.71,13.52-2.4.08-6.13.45-8.12,0,.31-4.56-2.46-6.68-2.71-10.81,2.63,2.87,4.45,7.07,8.11,8.11v-13.52s-8.11,2.71-8.11,2.71c.2-10.31-11.27-18.66-5.42-2.71-7.92-3.23-12.03-9.29-16.24-16.22.33.28,4.32-.24,6.47.21,2.02.43,2.77,4.11,4.34,1.15-4.41-5.95-4.32-11.26-13.51-9.46l2.71,8.1c-.35-.58-8.54-6.27-10.83-8.11l2.71-5.4h-5.42c.15-.88-.19-1.86,0-2.71,4.26.51,9.57-.74,13.53,0Z"/>
      <path class="cls-27" d="M157,150.36c.9.45,1.92,5.11,2.71,5.41l-10.83,10.81c-.98.19-2.25-.32-2.71,0-3.4-4.54-3.4-8.97,0-13.52.9.02,2.04.19,2.71,0,2.44-.71,1.87-1.38,2.71-2.7,1.61.35,4.37-.52,5.41,0Z"/>
      <path class="cls-2" d="M167.82,134.14l-2.35,1.62c-.54,1.23-.29,2.51-.36,3.79h-8.12s2.71-5.41,2.71-5.41c.74-.52,1.29-1.99,2.71-2.7l3.92.15c1.48.42,1.26,1.41,1.49,2.56Z"/>
      <path class="cls-9" d="M151.58,150.36c3.68-5.82.48-10.01,10.82-8.1v5.38s-5.41,2.73-5.41,2.73c-1.04-.52-3.81.35-5.41,0Z"/>
      <path class="cls-3" d="M148.88,153.06c-.66.19-1.81.02-2.71,0-1.8-.03-3.62.06-5.42,0-.13-1.79.14-3.62,0-5.41-.07-.89.04-1.8,0-2.7,5.28-.49,8.6,2.69,8.12,8.11Z"/>
      <path class="cls-4" d="M167.82,74.67l-2.51-1.53c-.41-3.26-1.62-8.75,2.51-9.28,0,3.6-.01,7.21,0,10.81Z"/>
      <path class="cls-4" d="M157,166.58c1.06,5.02,6.27,5.79,10.83,5.41.69,3.5-1.03,5.31-2.71,8.11-.79-.15-1.88-.06-2.71,0-.96.07-2.21-.26-2.71,0l-.45-3.6c-.37-1.14-1.85-1.23-2.26-1.81-1.86-2.64-3.75-5.34-5.41-8.11,1.76-.14,3.64-.06,5.41,0Z"/>
      <path class="cls-4" d="M162.41,188.2h5.42c.04,1.79,0,3.6,0,5.41h-5.42s0-5.41,0-5.41Z"/>
      <path class="cls-15" d="M83.91,107.11c-8.84,1.8-6.52,4.01-10.83,8.11-2.8,2.66-6.25,2.92-8.12,8.11-6.14,2.17-9.8-4.48-13.53-5.41,2.84-3.92,4.45-5.78,5.41-10.81.15-.76.09-1.92,0-2.7-.11-.89.16-1.84,0-2.7,3.3-2.35,8.04-5.46,10.83-8.11,3.15,2.85,15.34,11.11,16.24,13.52Z"/>
      <path class="cls-7" d="M56.84,63.86c-1.69.15-3.72.15-5.41,0-20.25-1.82-8.32-13.41,1.59-21.53,4.04-.9,20.95,15.02,12.01,20.27-2.5,1.99-5.43,1.03-8.18,1.26Z"/>
      <path class="cls-17" d="M73.09,88.19c.64,5.99,7.8,4.13,10.26,5.98.62.47,8.51,12.19,8.68,12.95-1.76,0-3.7-.21-5.41,0-.92.11-1.88-.17-2.71,0-.9-2.4-13.1-10.67-16.24-13.52,1.7-1.61,3.75-3.71,5.41-5.41Z"/>
      <path class="cls-4" d="M92.03,53.05v2.7c-5.23,5.28-10.3,9.21-13.53,16.22-.99-.24-2.32.38-2.71-1.37.9-7.74,3.78-15.27,5.42-22.96l10.83,5.41Z"/>
      <path class="cls-29" d="M43.31,93.6l.25-5.22c13.11,3.61,8.58,1.5,11.16,11.13.36,1.36,2.06,1.87,2.12,2.2.16.86-.11,1.82,0,2.7h-5.41c.29-5.04-3.61-9.06-8.12-10.81Z"/>
      <path class="cls-2" d="M78.5,85.49c.24.52,7.45,7.7,8.12,8.11s2.1-.42,2.71,0c3.18,4.36,7.23,9.62,10.83,13.52h-5.41c-.9,0-1.8,0-2.71,0-.17-.76-8.06-12.48-8.68-12.95-2.47-1.84-9.62.01-10.26-5.98,1.45-1.48,1.89-5,5.41-5.41.01.92-.23,2.19,0,2.7Z"/>
      <path class="cls-9" d="M56.84,63.86l2.71,8.1c-2.75-.35-11.59,1.23-10.81-1.33.41-1.34,3.48-3.77,2.69-6.77,1.69.15,3.72.15,5.41,0Z"/>
      <path class="cls-28" d="M70.38,180.1c1.5,1.67,8.68,3.21,12.72,6.36,1.86,1.45,12.3,15.05,14.34,17.97.42.59-.4,2.03,0,2.7h-10.83c-.95-4.38-7.23-2.43-10.85-2.68l2.73,2.68-5.41,2.7c1.37-7.34-.95-14.65-2.72-21.62l-2.69,2.7h-2.71c.26-4.47-.33-9.06,0-13.52.07-.89-.13-1.83,0-2.7.17-1.21-.16-2.5.36-3.77.59-1.44,1.95-1.25,2.35-1.64-.53,5.93-.62,7.09,2.71,10.81Z"/>
      <path class="cls-19" d="M73.09,209.83c-1.74,9.35-8.05,11.21-8.12,27.03,0,.89-.08,1.82,0,2.7h-2.71c-.53-4.26-2.59-8.4-2.71-16.22-.08-5.39.05-10.82,0-16.22.88-1.4,2.45-2.23,2.71-2.7h5.42s0-13.52,0-13.52l2.69-2.7c1.77,6.98,4.09,14.29,2.72,21.62Z"/>
      <path class="cls-29" d="M113.69,215.24c-.85.73-7.78,7.65-8.12,8.11-5.41-.81-4.19-5.36-5.41-8.11h13.53Z"/>
      <path class="cls-10" d="M75.79,242.27c-.75,3.92-4.32,5.78-8.12,5.41-.31-1.35-2.22-2.38-2.71-8.11l5.4,2.7v-5.41c.71.4,2.33-.44,2.72,0,.59.67-.33,4.74,2.71,5.41Z"/>
      <path class="cls-3" d="M97.45,207.13c1.03,1.72,1.75,3.64,2.71,5.41-.9-.05-1.81.03-2.71,0-2.67-.08-5.37.33-8.03-.1l-.09-5.3h8.12Z"/>
      <path class="cls-16" d="M113.69,215.24h-13.53c-.13-.29-2.84-.84-2.71-2.7.9.03,1.81-.05,2.71,0,4.03.22,8.12-.17,12.18.01l1.36,2.69Z"/>
      <rect class="cls-15" x="70.38" y="220.65" width="13.52" height="2.68"/>
      <rect class="cls-27" x="75.8" y="226.06" width="10.82" height="2.68"/>
      <path class="cls-29" d="M75.79,242.27c-3.03-.67-2.12-4.73-2.71-5.41v-5.4s2.7,0,2.7,0c-.4,3.43.62,7.63.01,10.81Z"/>
      <path class="cls-29" d="M70.38,236.86v5.41s-5.41-2.7-5.41-2.7c-.08-.88,0-1.81,0-2.7,3.78-3.14,3.71-.97,5.41,0Z"/>
      <path class="cls-12" d="M86.62,207.13h-8.12l-2.73-2.68c3.62.25,9.9-1.7,10.85,2.68Z"/>
      <path class="cls-16" d="M64.96,199.02c-.34,1.5-1.84,3.83-2.71,5.41-.26.47-1.83,1.31-2.71,2.7-3.77,5.98-3.03,9.01-2.71,16.22l-2.49-1.5-.22-17.42c1.47-.82,2.23-2.45,2.71-2.7,2.61-1.36,5.01-2.85,8.12-2.7Z"/>
      <path class="cls-18" d="M59.55,223.34h-2.71c-.33-7.21-1.07-10.24,2.71-16.22.05,5.4-.08,10.82,0,16.22Z"/>
      <path class="cls-3" d="M56.84,201.72c-.48.25-1.24,1.88-2.71,2.7-1.23.68-4.37-.09-5.41,2.7h-2.71c.6-5.03,2.66-7.66,2.71-8.11l1.75,2.33,6.38.38Z"/>
      <path class="cls-19" d="M48.72,215.24h-2.71c.21-2.66-.31-5.49,0-8.11h2.71c-.34,2.56.5,5.78,0,8.11Z"/>
      <path class="cls-3" d="M46.02,226.05l5.2.21c1.79,3.38-2.35,4.7-2.5,5.2l-2.71-5.41Z"/>
      <path class="cls-4" d="M105.57,201.72c.47,1.2-.78,4.31.15,5.25.84.84,3.73-.14,5.26.16,3.69.72,7.14,2.05,10.83,2.7-.48,3.63-6.04,3.62-8.12,5.41l-1.36-2.69c-4.05-.18-8.15.21-12.18-.01-.96-1.76-1.68-3.68-2.71-5.41-.4-.68.42-2.11,0-2.7,2.68,1.13,5.11-2.64,5.41-2.7.67-.14,2.04-.15,2.71,0Z"/>
      <path class="cls-18" d="M67.67,161.17v2.7c-.86.31-4.48,4.12-5.41,5.41-3.96,5.45-1.92,5.41-2.71,10.81-.15,1-2.08,2.56-2.1,4.42-.04,3.71,2.58,7.59,2.29,11.66l5.22.13c-.1.92.18,1.9,0,2.7-3.12-.15-5.51,1.34-8.12,2.7l-6.38-.38-1.75-2.33c.18-1.77-.13-3.62,0-5.41.06-.9-.06-1.81,0-2.7l2.33-1.67,3.09-22.65h-5.41c1.08-1.54,1.55-4.05,2.71-5.42,2.5-2.96,10.04-7.93,13.53-10.81.46,2.82-.57,6.33.13,9.36.38,1.69,1.4,1.24,2.58,1.46Z"/>
      <path class="cls-27" d="M64.96,128.74c.08.33,4.72,1.77,1.51,5.39-2.83,4.96-6.96,4.02-9.63,5.42-1.77.93-3.72,1.67-5.41,2.7-5.22-6.66,5.98-14.99,13.53-12.11v-1.41Z"/>
      <path class="cls-2" d="M40.6,155.77l10.82-2.7v8.1s-10.82,0-10.82,0c-.22-1.74.32-3.81,0-5.41Z"/>
      <path class="cls-19" d="M56.84,139.55v8.12s-10.83,0-10.83,0c1.38-1.11,1.56-3.06,5.41-5.41,1.7-1.03,3.65-1.77,5.41-2.7Z"/>
      <path class="cls-27" d="M67.67,150.36c.08,3.6-.05,7.21,0,10.81-1.18-.22-2.2.23-2.58-1.46-.69-3.02.33-6.53-.13-9.36-.28-1.71.39-3.92,0-5.41h2.71c.1,1.79-.04,3.61,0,5.41Z"/>
      <path class="cls-1" d="M64.96,144.96c-.09-.33-4-1.02-2.7-5.4h5.4c.07,1.79-.09,3.61,0,5.4h-2.71Z"/>
      <path class="cls-4" d="M116.39,247.67c-2.69-.01-6.95,6.84-8.12,5.41-.97-5.59,3.83-8.07,8.12-10.81l5.39,6.77-1.32,1.31c-.99-.99-2.88-2.67-4.07-2.67Z"/>
      <path class="cls-24" d="M51.43,117.92c3.73.93,7.4,7.58,13.53,5.41-.2.55-.08,1.88,0,2.7h-16.24l-.2-5.15-7.92-2.96c3.32.49,7.9-.73,10.83,0Z"/>
      <polygon class="cls-22" points="48.72 166.58 54.14 166.59 51.05 189.24 48.72 190.91 48.72 166.58"/>
      <path class="cls-24" d="M51.43,104.41h5.41c.09.78.15,1.95,0,2.7-6.79-2.01-4.98,4.32-8.04,6.85-1.86,1.54-4.02.78-5.49,1.26v-2.7c3.37-1.79,2.71-4.76,2.71-8.11h5.41Z"/>
      <path class="cls-8" d="M56.84,107.11c-.96,5.03-2.58,6.89-5.41,10.81-2.92-.73-7.51.49-10.83,0-.32-2.81,1.22-2.21,2.71-2.7s3.63.27,5.49-1.26c3.06-2.53,1.25-8.85,8.04-6.85Z"/>
      <path class="cls-29" d="M102.86,69.27l5.31.09.1,8.02c-3.96-.74-9.28.51-13.53,0,1.16-5.09,6.87-6.28,8.12-8.11Z"/>
      <rect class="cls-29" x="116.4" y="50.35" width="10.82" height="5.4"/>
      <path class="cls-9" d="M132.64,82.78c-2.07,3.17-3.39,7.01-2.71,10.81-.44-1.41-6.91-6.01-5.41-10.81,2.71.01,5.41,0,8.12,0Z"/>
      <path class="cls-29" d="M119.1,42.24l1.73,2.27,9.09.45v2.68s-13.53.01-13.53.01c.23-.39,2.61-5.12,2.71-5.41Z"/>
      <rect class="cls-15" x="124.52" y="69.28" width="13.52" height="2.68"/>
      <path class="cls-9" d="M121.81,82.78c-6.22-.35-5.67.52-10.83-2.7l9.07.39,1.76,2.31Z"/>
      <path class="cls-23" d="M89.33,93.6c8.17,5.6,36.47,27.64,40.6,35.14.31.56-.19,1.74,0,2.7.17.87-.17,1.83,0,2.7-8.76-6.68-16.74-13.91-24.36-21.62-1.73-1.75-4.03-3.91-5.41-5.41-3.6-3.89-7.65-9.16-10.83-13.52Z"/>
      <path class="cls-16" d="M92.03,80.08c.54,3.52,3.51,3.88,5.41,5.41,2.29,1.84,10.48,7.53,10.83,8.11,4.21,6.93,8.32,12.99,16.24,16.22,4.21,1.71,3.61,3.44,5.41,5.41.25,4.13,3.02,6.25,2.71,10.81-5.69-1.27-18.29-19.97-24.29-25.75-6.39-6.15-16.14-10.82-21.72-18.86l5.41-1.35Z"/>
      <path class="cls-23" d="M86.62,93.6c-.67-.4-7.88-7.59-8.12-8.11,5.28-.49,8.6,2.69,8.12,8.11Z"/>
      <path class="cls-24" d="M97.45,44.94c-.41,2.48.3,5.49,0,8.12h-5.41s-.52-5-.52-5l-4.89-.42,4.04-5.28,6.79,2.59Z"/>
      <path class="cls-4" d="M94.74,80.08h5.42s-2.71,5.41-2.71,5.41c-1.9-1.53-4.87-1.89-5.41-5.41h2.71Z"/>
      <path class="cls-14" d="M135.34,150.36c.45,2.92-2.47,6.13-2.71,8.11-.15,1.29-.09,2.56.23,3.82l2.48,1.59c-.78,2.45,2.85,7.63,2.71,10.81-.85.76-1.8,1.83-2.71,2.7v-2.7c1.19-3.24-2.24-4.47-2.71-5.41-1.27-2.54-2.67-5.17-2.72-8.1h-2.68c-2.42,5.27,2.29,9.23,2.7,10.81.22.87-.25,1.9,0,2.7.36,1.17-.13,2.63.46,3.81l2.24,1.59c-1.45,1.57-1.84,4.97-5.41,5.41-2.16-2.95-2.86-6.05-5.41-8.11.09-.89-.06-1.81,0-2.7s2.2-2.74,2.31-4.59c.36-6.05-3.74-8.04.4-14.33.11-.16,2.55-2.6,2.71-2.7,2.98-1.99,5.76-1.72,8.12-2.7Z"/>
      <path class="cls-16" d="M140.76,147.66c.14,1.78-.13,3.62,0,5.41,1.8.06,3.61-.03,5.42,0-3.4,4.54-3.4,8.97,0,13.52-.7.49-5.67,5.92-8.12,8.11.14-3.18-3.49-8.36-2.71-10.81.12-.39,3.88-1.71,2.7-5.4h-5.41c.23-1.98,3.16-5.2,2.71-8.12.82-.34,2.42-3.78,5.41-2.7Z"/>
      <path class="cls-23" d="M159.7,180.1c-3.46,1.8-1.75,5.33-4.06,5.42l-1.35-5.42c.98-1.76,1.85-3.58,2.71-5.41.41.58,1.89.67,2.26,1.81l.45,3.6Z"/>
      <path class="cls-16" d="M135.34,174.69v2.7c-.82.79-1.96,1.89-2.71,2.7l-2.24-1.59c-.59-1.18-.11-2.65-.46-3.81h5.41Z"/>
      <path class="cls-8" d="M83.91,158.47c10.83,12.82,23.02,24.92,35.11,36.57,4.37,4.21,11.71,4.91,10.9,12.09-5.84-2.92-12.62-6.65-17.61-10.8-4.19-3.49-32.76-30.36-33.82-32.45-.45-.88.18-3.71,0-5.41h5.41Z"/>
      <path class="cls-14" d="M86.62,177.39c.26.42,1.75,1.06,2.71,2.7,4.6,7.93,14.33,16.75,16.24,21.62-.66-.15-2.04-.14-2.71,0-5.99-4.73-14.59-11.64-19.1-17.53-2.34-3.05-1.83-5.52-2.55-6.8h5.41Z"/>
      <path class="cls-16" d="M121.81,209.83c-3.69-.65-7.14-1.98-10.83-2.7-.89-2.8-2.39-4.71-5.41-5.41-1.91-4.88-11.64-13.7-16.24-21.62,6.54,2.31,7.72,9.38,12.09,13.6,3.82,3.68,20.74,10.99,20.39,16.13Z"/>
      <path class="cls-16" d="M75.79,166.58c8.87.54,3.26,1.11,6.23,4.57.85.99,3.19.54,4.64,2.53.69.95-.51,2.96-.05,3.72h-5.41c-.35-.62-2.14-1.27-2.71-2.7-.95-2.42-.84-5.63-2.71-8.11Z"/>
      <path class="cls-26" d="M119.1,171.99c.21.03,1.37,2.49,2.71,2.7-.06.9.09,1.82,0,2.7-.46,4.36.31,9.09,0,13.52-5.58-4.52-9.72-10.44-13.53-13.52h5.41s0-2.69,0-2.69c-2.95-.31-5.61-.56-5.41,2.69-.47-.38-3.51.9-4.91-.52s-.12-4.4-.5-4.89h2.71c4.38.38,9.31-.56,13.53,0Z"/>
      <path class="cls-4" d="M135.34,134.14l.07,5.4c.69.78,4.06-2.61,5.34-2.7v5.41c-2.58-.33-5.77.49-8.12,0v-8.11h2.71Z"/>
      <path class="cls-23" d="M143.46,131.44c-.27,3.72-4.89,2.82-8.12,2.7h-2.71v-2.7h10.83Z"/>
      <path class="cls-10" d="M132.64,134.14v8.11c-2.41-.5-2.15-.5-2.71-2.7-.38-1.54.33-3.74,0-5.41-.17-.87.17-1.84,0-2.7h2.71v2.7Z"/>
      <path class="cls-9" d="M94.74,142.25c6.74.11,13.53-.03,20.29-.02l1.36-2.69h13.53c.55,2.21.3,2.21,2.71,2.7s5.55-.33,8.12,0c0,.9-.04,1.81,0,2.7s-.07,1.81,0,2.7c-3-1.08-4.59,2.36-5.41,2.7-2.36.99-5.14.72-8.12,2.7l-1.66-2.32c-6.67-1.21-9.78-1.47-14.59,2.32-.92.73-2.53.9-2.71,2.7-.33-.75-3.97-5.07-5.41-5.41h-4.05c-1.75.53-1.11,1.7-1.36,2.7-1.71-.62-3.83-2.52-5.41-2.7-1.74-.2-3.59-.11-5.33.11-.59,1.7.29,3.91-.09,5.3-.12.44-2.41,1.4-2.71,2.7h-5.41c-.33-3.08.29-6.33,0-9.45l-2.7-1.36-2.7,1.36-.02,9.45h-2.69s-2.72-8.1-2.72-8.1c-.04-1.8.1-3.62,0-5.41,2.87,1.19,4.97-2.57,5.41-2.7,2.12-.62,7.7-2.77,8.12-2.7,3.73.61,6.16,2.58,13.53,2.7Z"/>
      <path class="cls-19" d="M108.27,93.6l-2.71-8.1c9.2-1.79,9.1,3.52,13.51,9.46-1.57,2.96-2.31-.71-4.34-1.15-2.14-.46-6.14.06-6.47-.21Z"/>
      <path class="cls-19" d="M124.52,109.82c-5.85-15.95,5.62-7.6,5.42,2.71l8.11-2.71v13.52c-3.66-1.04-5.48-5.24-8.11-8.11-1.8-1.97-1.21-3.69-5.41-5.41Z"/>
      <path class="cls-3" d="M129.93,93.6c.09.51,4.68,3.6,2.7,8.1h-2.69c-.43-2.48.62-6.1-.01-8.1Z"/>
      <path class="cls-8" d="M83.91,107.11c.43,1.16-.63,3.59.14,5.24l5.27.17c.08.75.19,2.05,0,2.7-1.06,3.6-6.28,6.08-5.41,10.81-1.44-1.28-4.83-4.1-5.41-5.41-.5-1.12.37-3.76,0-5.41h-5.41c4.31-4.09,1.98-6.31,10.83-8.11Z"/>
      <path class="cls-21" d="M92.03,107.11c.5,2.22-.22,5.51,0,8.11h-2.71c.19-.65.08-1.96,0-2.7-.18-1.56-2.1-3.7-2.71-5.41,1.71-.21,3.65,0,5.41,0Z"/>
      <path class="cls-3" d="M89.33,112.52l-5.27-.17c-.77-1.64.29-4.08-.14-5.24.83-.17,1.79.11,2.71,0,.61,1.71,2.53,3.85,2.71,5.41Z"/>
      <path class="cls-19" d="M73.09,166.58l5.41,8.11c.56,1.43,2.36,2.08,2.71,2.7.72,1.28.21,3.75,2.55,6.8,4.51,5.88,13.11,12.8,19.1,17.53-.3.06-2.73,3.84-5.41,2.7-2.05-2.92-12.48-16.52-14.34-17.97-4.05-3.15-11.23-4.69-12.72-6.36v-9.46s-2.71-1.36-2.71-1.36c.34-.34.13-1.62,1.65-2.26,1.21-.51,2.53-.23,3.76-.44Z"/>
      <path class="cls-16" d="M64.96,190.91c-.11,1.78.18,3.64,0,5.41l-5.22-.13c.29-4.07-2.33-7.95-2.29-11.66.02-1.87,1.96-3.42,2.1-4.42l5.41-2.7c-.33,4.46.26,9.04,0,13.52Z"/>
      <path class="cls-8" d="M67.67,190.91v13.53s-5.41-.01-5.41-.01c.87-1.57,2.37-3.9,2.71-5.41.18-.8-.1-1.78,0-2.7.18-1.77-.11-3.62,0-5.41h2.71Z"/>
      <path class="cls-26" d="M64.96,174.69c-.13.87.07,1.81,0,2.7l-5.41,2.7c.78-5.4-1.25-5.36,2.71-10.81l.37,3.81,2.34,1.59Z"/>
      <path class="cls-10" d="M78.5,158.47c.18,1.7-.45,4.52,0,5.41l-2.71,2.7c-.83-.05-1.9-.14-2.71,0-1.23.21-2.56-.07-3.76.44-1.52.64-1.31,1.93-1.65,2.26-.39.39-1.76.2-2.35,1.64-.52,1.27-.18,2.57-.36,3.77l-2.34-1.59-.37-3.81c.93-1.29,4.56-5.09,5.41-5.41,1.42-.52,4.48.68,6.46-.29l1.66-2.41v-13.52l2.7,1.36c.3,3.12-.32,6.37,0,9.45Z"/>
      <path class="cls-23" d="M70.38,180.1c-3.33-3.72-3.24-4.88-2.71-10.81l2.7,1.36v9.46Z"/>
      <path class="cls-8" d="M110.98,207.13c-1.53-.3-4.42.68-5.26-.16-.93-.94.32-4.05-.15-5.25,3.02.7,4.53,2.6,5.41,5.41Z"/>
      <path class="cls-15" d="M75.79,161.17l-1.66,2.41c-1.98.97-5.05-.23-6.46.29v-2.7c2.41.45,5.52-.3,8.12,0Z"/>
      <path class="cls-14" d="M75.79,161.17c-2.6-.3-5.71.45-8.12,0-.05-3.6.08-7.21,0-10.81l2.72,8.1h2.69s.02-9.45.02-9.45l2.7-1.36v13.52Z"/>
      <path class="cls-11" d="M100.15,107.11c1.38,1.5,3.69,3.66,5.41,5.41.45,10.29,15.71,12.91,13.53,24.33h-2.71c-2.31-4.93-9.25-10.05-13.53-13.52-.78-.63-1.26-1.79-2.71-2.7-2.15-1.35-3.15-4.26-8.12-2.7-.09-.89.08-1.81,0-2.7,3.72-.27,2.82-4.88,2.71-8.11h5.41Z"/>
      <polygon class="cls-11" points="124.52 139.55 119.1 139.55 119.1 136.85 122.92 137.22 124.52 139.55"/>
      <path class="cls-2" d="M119.1,139.55h-2.71c-.21-.9.31-2.05,0-2.7h2.71v2.7Z"/>
      <path class="cls-2" d="M105.57,112.52c7.62,7.72,15.6,14.95,24.36,21.62.33,1.67-.38,3.87,0,5.41h-5.41l-1.6-2.33-3.82-.38c2.17-11.41-13.09-14.03-13.53-24.33Z"/>
      <path class="cls-16" d="M92.03,115.22c-.22-2.6.5-5.89,0-8.11.9,0,1.8,0,2.71,0,.12,3.23,1.02,7.84-2.71,8.11Z"/>
      <path class="cls-19" d="M124.52,155.77c-4.15,6.3-.04,8.29-.4,14.33-.11,1.84-2.25,3.66-2.31,4.59-1.33-.22-2.5-2.67-2.71-2.7l-1.7-2.32-11.83-.38c-.11-.89.14-1.83,0-2.7,4.38.46,9.1-.31,13.53,0l.02-5.4-10.69-.23c-.86-1.62.31-4.14-.15-5.18.18-1.8,1.78-1.98,2.71-2.7,4.03,2.73,8.78,3.14,13.53,2.7Z"/>
      <path class="cls-17" d="M127.22,153.06c-.16.11-2.6,2.54-2.71,2.7-4.76.43-9.5.03-13.53-2.7,4.81-3.78,7.92-3.53,14.59-2.32l1.66,2.32Z"/>
      <path class="cls-25" d="M132.64,169.28l-2.71,2.7c-.4-1.57-5.11-5.54-2.7-10.81h2.68c.05,2.93,1.45,5.56,2.72,8.1Z"/>
      <path class="cls-1" d="M132.64,158.47h5.41c1.18,3.69-2.58,5.02-2.7,5.41l-2.48-1.59c-.32-1.26-.38-2.53-.23-3.82Z"/>
      <path class="cls-1" d="M135.34,174.69h-5.41c-.25-.8.22-1.84,0-2.7l2.71-2.7c.47.94,3.89,2.17,2.71,5.41Z"/>
      <path class="cls-14" d="M78.5,174.69l-5.41-8.11c.81-.14,1.87-.05,2.71,0,1.86,2.48,1.76,5.69,2.71,8.11Z"/>
      <path class="cls-11" d="M92.03,150.36c-1.42,5.51,4.33,6.58,5.41,8.11,2.16,3.04-1.84,7.07,8.12,8.11.14.87-.11,1.82,0,2.7v2.7h-2.71c-.35-.44-5.85-.84-9.62-5.26-3.33-3.9-3.24-8.04-6.62-10.96.37-1.39-.51-3.6.09-5.3,1.74-.22,3.59-.31,5.33-.11Z"/>
      <path class="cls-27" d="M119.1,171.99c-4.22-.56-9.15.38-13.53,0v-2.7l11.83.38,1.7,2.32Z"/>
      <path class="cls-11" d="M108.27,177.39c-.2-3.25,2.46-3.01,5.41-2.69v2.68s-5.41.01-5.41.01Z"/>
      <path class="cls-6" d="M108.27,155.77c.46,1.04-.71,3.56.15,5.18l10.69.23-.02,5.4c-4.43-.31-9.14.46-13.53,0-.56-3.48-2.25-5.9-2.71-8.11-.48-2.36.33-5.54,0-8.11,1.44.33,5.08,4.66,5.41,5.41Z"/>
      <path class="cls-22" d="M94.74,136.85c.29.78-.22,1.87,0,2.7v2.7c-7.37-.12-9.8-2.09-13.53-2.7.33-1.32,2.47-2.13,2.71-2.7h10.83Z"/>
      <path class="cls-8" d="M89.33,128.74v2.7c-.96.08-2.17-.26-2.71,0-3.86,1.85-1.86,3.38-2.71,5.41-.24.58-2.38,1.39-2.71,2.7-.42-.07-6,2.08-8.12,2.7.13-2.82,1.03-5.85,2.71-8.11.17-.23,2.52-2.57,2.71-2.7.25-.18,5.11-2.59,5.41-2.7.77-.29,1.87.22,2.71,0h2.71Z"/>
      <path class="cls-18" d="M102.86,139.55h13.53l-1.36,2.69c-6.76-.01-13.55.13-20.29.02v-2.7h8.12Z"/>
      <path class="cls-8" d="M102.86,150.36c.33,2.57-.48,5.75,0,8.11l-5.41-2.7c.16-.87-.21-1.86,0-2.7.25-1-.39-2.18,1.36-2.69h4.05Z"/>
      <path class="cls-29" d="M97.45,153.06c-.21.84.16,1.83,0,2.7v2.7c-1.08-1.53-6.83-2.6-5.41-8.11,1.58.18,3.7,2.08,5.41,2.7Z"/>
      <path class="cls-19" d="M73.09,115.22h5.41c.38,1.65-.5,4.28,0,5.41l-1.36,2.69h-4.04s0-8.1,0-8.1Z"/>
      <path class="cls-2" d="M75.79,134.14c-7,.72-7.21-.91-2.71-5.41l2.7,1.36v4.04Z"/>
      <path class="cls-9" d="M73.09,128.74c.8-.8.19-4.19,5.41-2.7v5.4c-.18.13-2.53,2.47-2.7,2.7v-4.04s-2.71-1.36-2.71-1.36Z"/>
      <path class="cls-3" d="M92.03,117.92c.1.95-.24,2.05,0,2.7,1.3,3.47,6.18,2.35,8.12,5.41h-8.12s0,5.41,0,5.41c-.9,0-1.82-.07-2.71,0v-2.7l-1.35-8.12-1.35,8.12c-.84.22-1.93-.29-2.71,0v-2.7c-.86-4.74,4.35-7.21,5.41-10.81h2.71c.08.89-.09,1.81,0,2.7Z"/>
      <path class="cls-29" d="M116.39,136.85c.31.66-.21,1.8,0,2.7h-5.41l-8.12-13.52v-2.7c4.28,3.47,11.22,8.59,13.53,13.52Z"/>
      <path class="cls-15" d="M100.15,120.63c1.44.91,1.93,2.07,2.71,2.7v2.7h-2.71c-1.94-3.05-6.82-1.93-8.12-5.41h8.12Z"/>
      <path class="cls-16" d="M100.15,120.63h-8.12c-.24-.65.1-1.75,0-2.7,4.97-1.56,5.97,1.35,8.12,2.7Z"/>
      <path class="cls-15" d="M102.86,158.47c.45,2.21,2.15,4.62,2.71,8.11-9.96-1.04-5.96-5.07-8.12-8.11v-2.7l5.41,2.7Z"/>
      <path class="cls-12" d="M92.03,131.44c2.5-.01,6.03-.45,8.12,0,.54,2.91.83,5.66,2.71,8.11h-8.12c-.22-.84.29-1.93,0-2.7-1.39-3.72-6.55-1.94-8.12-5.41.54-.26,1.74.08,2.71,0,.89-.07,1.81,0,2.71,0Z"/>
      <path class="cls-4" d="M94.74,136.85h-10.83c.85-2.02-1.15-3.55,2.71-5.41,1.57,3.46,6.73,1.69,8.12,5.41Z"/>
      <path class="cls-25" d="M105.57,139.55h-2.71c-1.87-2.45-2.17-5.2-2.71-8.11,3.96.86,5.77,4.18,5.41,8.11Z"/>
      <path class="cls-23" d="M110.98,139.55h-5.41c.36-3.93-1.45-7.25-5.41-8.11-.3-1.64.19-3.66,0-5.41h2.71l8.12,13.52Z"/>
      <polygon class="cls-15" points="89.33 128.74 86.62 128.74 87.97 120.62 89.33 128.74"/>
      <path class="cls-6" d="M100.15,126.03c.19,1.74-.3,3.77,0,5.41-2.09-.45-5.62-.01-8.12,0v-5.41s8.12,0,8.12,0Z"/>
    </g>
  </g>
</svg>